<?xml version="1.0" encoding="utf-8" standalone="no"?>
<!DOCTYPE svg PUBLIC "-//W3C//DTD SVG 1.1//EN"
  "http://www.w3.org/Graphics/SVG/1.1/DTD/svg11.dtd">
<!-- Created with matplotlib (https://matplotlib.org/) -->
<svg height="277.314375pt" version="1.1" viewBox="0 0 385.78125 277.314375" width="385.78125pt" xmlns="http://www.w3.org/2000/svg" xmlns:xlink="http://www.w3.org/1999/xlink">
 <defs>
  <style type="text/css">
*{stroke-linecap:butt;stroke-linejoin:round;}
  </style>
 </defs>
 <g id="figure_1">
  <g id="patch_1">
   <path d="M 0 277.314375 
L 385.78125 277.314375 
L 385.78125 0 
L 0 0 
z
" style="fill:none;"/>
  </g>
  <g id="axes_1">
   <g id="patch_2">
    <path d="M 43.78125 239.758125 
L 378.58125 239.758125 
L 378.58125 22.318125 
L 43.78125 22.318125 
z
" style="fill:#ffffff;"/>
   </g>
   <g id="matplotlib.axis_1">
    <g id="xtick_1">
     <g id="line2d_1">
      <defs>
       <path d="M 0 0 
L 0 3.5 
" id="m24f6f47deb" style="stroke:#000000;stroke-width:0.8;"/>
      </defs>
      <g>
       <use style="stroke:#000000;stroke-width:0.8;" x="58.999432" xlink:href="#m24f6f47deb" y="239.758125"/>
      </g>
     </g>
     <g id="text_1">
      <!-- 0.2 -->
      <defs>
       <path d="M 31.78125 66.40625 
Q 24.171875 66.40625 20.328125 58.90625 
Q 16.5 51.421875 16.5 36.375 
Q 16.5 21.390625 20.328125 13.890625 
Q 24.171875 6.390625 31.78125 6.390625 
Q 39.453125 6.390625 43.28125 13.890625 
Q 47.125 21.390625 47.125 36.375 
Q 47.125 51.421875 43.28125 58.90625 
Q 39.453125 66.40625 31.78125 66.40625 
z
M 31.78125 74.21875 
Q 44.046875 74.21875 50.515625 64.515625 
Q 56.984375 54.828125 56.984375 36.375 
Q 56.984375 17.96875 50.515625 8.265625 
Q 44.046875 -1.421875 31.78125 -1.421875 
Q 19.53125 -1.421875 13.0625 8.265625 
Q 6.59375 17.96875 6.59375 36.375 
Q 6.59375 54.828125 13.0625 64.515625 
Q 19.53125 74.21875 31.78125 74.21875 
z
" id="DejaVuSans-48"/>
       <path d="M 10.6875 12.40625 
L 21 12.40625 
L 21 0 
L 10.6875 0 
z
" id="DejaVuSans-46"/>
       <path d="M 19.1875 8.296875 
L 53.609375 8.296875 
L 53.609375 0 
L 7.328125 0 
L 7.328125 8.296875 
Q 12.9375 14.109375 22.625 23.890625 
Q 32.328125 33.6875 34.8125 36.53125 
Q 39.546875 41.84375 41.421875 45.53125 
Q 43.3125 49.21875 43.3125 52.78125 
Q 43.3125 58.59375 39.234375 62.25 
Q 35.15625 65.921875 28.609375 65.921875 
Q 23.96875 65.921875 18.8125 64.3125 
Q 13.671875 62.703125 7.8125 59.421875 
L 7.8125 69.390625 
Q 13.765625 71.78125 18.9375 73 
Q 24.125 74.21875 28.421875 74.21875 
Q 39.75 74.21875 46.484375 68.546875 
Q 53.21875 62.890625 53.21875 53.421875 
Q 53.21875 48.921875 51.53125 44.890625 
Q 49.859375 40.875 45.40625 35.40625 
Q 44.1875 33.984375 37.640625 27.21875 
Q 31.109375 20.453125 19.1875 8.296875 
z
" id="DejaVuSans-50"/>
      </defs>
      <g transform="translate(51.047869 254.356562)scale(0.1 -0.1)">
       <use xlink:href="#DejaVuSans-48"/>
       <use x="63.623047" xlink:href="#DejaVuSans-46"/>
       <use x="95.410156" xlink:href="#DejaVuSans-50"/>
      </g>
     </g>
    </g>
    <g id="xtick_2">
     <g id="line2d_2">
      <g>
       <use style="stroke:#000000;stroke-width:0.8;" x="97.092503" xlink:href="#m24f6f47deb" y="239.758125"/>
      </g>
     </g>
     <g id="text_2">
      <!-- 0.3 -->
      <defs>
       <path d="M 40.578125 39.3125 
Q 47.65625 37.796875 51.625 33 
Q 55.609375 28.21875 55.609375 21.1875 
Q 55.609375 10.40625 48.1875 4.484375 
Q 40.765625 -1.421875 27.09375 -1.421875 
Q 22.515625 -1.421875 17.65625 -0.515625 
Q 12.796875 0.390625 7.625 2.203125 
L 7.625 11.71875 
Q 11.71875 9.328125 16.59375 8.109375 
Q 21.484375 6.890625 26.8125 6.890625 
Q 36.078125 6.890625 40.9375 10.546875 
Q 45.796875 14.203125 45.796875 21.1875 
Q 45.796875 27.640625 41.28125 31.265625 
Q 36.765625 34.90625 28.71875 34.90625 
L 20.21875 34.90625 
L 20.21875 43.015625 
L 29.109375 43.015625 
Q 36.375 43.015625 40.234375 45.921875 
Q 44.09375 48.828125 44.09375 54.296875 
Q 44.09375 59.90625 40.109375 62.90625 
Q 36.140625 65.921875 28.71875 65.921875 
Q 24.65625 65.921875 20.015625 65.03125 
Q 15.375 64.15625 9.8125 62.3125 
L 9.8125 71.09375 
Q 15.4375 72.65625 20.34375 73.4375 
Q 25.25 74.21875 29.59375 74.21875 
Q 40.828125 74.21875 47.359375 69.109375 
Q 53.90625 64.015625 53.90625 55.328125 
Q 53.90625 49.265625 50.4375 45.09375 
Q 46.96875 40.921875 40.578125 39.3125 
z
" id="DejaVuSans-51"/>
      </defs>
      <g transform="translate(89.14094 254.356562)scale(0.1 -0.1)">
       <use xlink:href="#DejaVuSans-48"/>
       <use x="63.623047" xlink:href="#DejaVuSans-46"/>
       <use x="95.410156" xlink:href="#DejaVuSans-51"/>
      </g>
     </g>
    </g>
    <g id="xtick_3">
     <g id="line2d_3">
      <g>
       <use style="stroke:#000000;stroke-width:0.8;" x="135.185574" xlink:href="#m24f6f47deb" y="239.758125"/>
      </g>
     </g>
     <g id="text_3">
      <!-- 0.4 -->
      <defs>
       <path d="M 37.796875 64.3125 
L 12.890625 25.390625 
L 37.796875 25.390625 
z
M 35.203125 72.90625 
L 47.609375 72.90625 
L 47.609375 25.390625 
L 58.015625 25.390625 
L 58.015625 17.1875 
L 47.609375 17.1875 
L 47.609375 0 
L 37.796875 0 
L 37.796875 17.1875 
L 4.890625 17.1875 
L 4.890625 26.703125 
z
" id="DejaVuSans-52"/>
      </defs>
      <g transform="translate(127.234011 254.356562)scale(0.1 -0.1)">
       <use xlink:href="#DejaVuSans-48"/>
       <use x="63.623047" xlink:href="#DejaVuSans-46"/>
       <use x="95.410156" xlink:href="#DejaVuSans-52"/>
      </g>
     </g>
    </g>
    <g id="xtick_4">
     <g id="line2d_4">
      <g>
       <use style="stroke:#000000;stroke-width:0.8;" x="173.278644" xlink:href="#m24f6f47deb" y="239.758125"/>
      </g>
     </g>
     <g id="text_4">
      <!-- 0.5 -->
      <defs>
       <path d="M 10.796875 72.90625 
L 49.515625 72.90625 
L 49.515625 64.59375 
L 19.828125 64.59375 
L 19.828125 46.734375 
Q 21.96875 47.46875 24.109375 47.828125 
Q 26.265625 48.1875 28.421875 48.1875 
Q 40.625 48.1875 47.75 41.5 
Q 54.890625 34.8125 54.890625 23.390625 
Q 54.890625 11.625 47.5625 5.09375 
Q 40.234375 -1.421875 26.90625 -1.421875 
Q 22.3125 -1.421875 17.546875 -0.640625 
Q 12.796875 0.140625 7.71875 1.703125 
L 7.71875 11.625 
Q 12.109375 9.234375 16.796875 8.0625 
Q 21.484375 6.890625 26.703125 6.890625 
Q 35.15625 6.890625 40.078125 11.328125 
Q 45.015625 15.765625 45.015625 23.390625 
Q 45.015625 31 40.078125 35.4375 
Q 35.15625 39.890625 26.703125 39.890625 
Q 22.75 39.890625 18.8125 39.015625 
Q 14.890625 38.140625 10.796875 36.28125 
z
" id="DejaVuSans-53"/>
      </defs>
      <g transform="translate(165.327082 254.356562)scale(0.1 -0.1)">
       <use xlink:href="#DejaVuSans-48"/>
       <use x="63.623047" xlink:href="#DejaVuSans-46"/>
       <use x="95.410156" xlink:href="#DejaVuSans-53"/>
      </g>
     </g>
    </g>
    <g id="xtick_5">
     <g id="line2d_5">
      <g>
       <use style="stroke:#000000;stroke-width:0.8;" x="211.371715" xlink:href="#m24f6f47deb" y="239.758125"/>
      </g>
     </g>
     <g id="text_5">
      <!-- 0.6 -->
      <defs>
       <path d="M 33.015625 40.375 
Q 26.375 40.375 22.484375 35.828125 
Q 18.609375 31.296875 18.609375 23.390625 
Q 18.609375 15.53125 22.484375 10.953125 
Q 26.375 6.390625 33.015625 6.390625 
Q 39.65625 6.390625 43.53125 10.953125 
Q 47.40625 15.53125 47.40625 23.390625 
Q 47.40625 31.296875 43.53125 35.828125 
Q 39.65625 40.375 33.015625 40.375 
z
M 52.59375 71.296875 
L 52.59375 62.3125 
Q 48.875 64.0625 45.09375 64.984375 
Q 41.3125 65.921875 37.59375 65.921875 
Q 27.828125 65.921875 22.671875 59.328125 
Q 17.53125 52.734375 16.796875 39.40625 
Q 19.671875 43.65625 24.015625 45.921875 
Q 28.375 48.1875 33.59375 48.1875 
Q 44.578125 48.1875 50.953125 41.515625 
Q 57.328125 34.859375 57.328125 23.390625 
Q 57.328125 12.15625 50.6875 5.359375 
Q 44.046875 -1.421875 33.015625 -1.421875 
Q 20.359375 -1.421875 13.671875 8.265625 
Q 6.984375 17.96875 6.984375 36.375 
Q 6.984375 53.65625 15.1875 63.9375 
Q 23.390625 74.21875 37.203125 74.21875 
Q 40.921875 74.21875 44.703125 73.484375 
Q 48.484375 72.75 52.59375 71.296875 
z
" id="DejaVuSans-54"/>
      </defs>
      <g transform="translate(203.420153 254.356562)scale(0.1 -0.1)">
       <use xlink:href="#DejaVuSans-48"/>
       <use x="63.623047" xlink:href="#DejaVuSans-46"/>
       <use x="95.410156" xlink:href="#DejaVuSans-54"/>
      </g>
     </g>
    </g>
    <g id="xtick_6">
     <g id="line2d_6">
      <g>
       <use style="stroke:#000000;stroke-width:0.8;" x="249.464786" xlink:href="#m24f6f47deb" y="239.758125"/>
      </g>
     </g>
     <g id="text_6">
      <!-- 0.7 -->
      <defs>
       <path d="M 8.203125 72.90625 
L 55.078125 72.90625 
L 55.078125 68.703125 
L 28.609375 0 
L 18.3125 0 
L 43.21875 64.59375 
L 8.203125 64.59375 
z
" id="DejaVuSans-55"/>
      </defs>
      <g transform="translate(241.513224 254.356562)scale(0.1 -0.1)">
       <use xlink:href="#DejaVuSans-48"/>
       <use x="63.623047" xlink:href="#DejaVuSans-46"/>
       <use x="95.410156" xlink:href="#DejaVuSans-55"/>
      </g>
     </g>
    </g>
    <g id="xtick_7">
     <g id="line2d_7">
      <g>
       <use style="stroke:#000000;stroke-width:0.8;" x="287.557857" xlink:href="#m24f6f47deb" y="239.758125"/>
      </g>
     </g>
     <g id="text_7">
      <!-- 0.8 -->
      <defs>
       <path d="M 31.78125 34.625 
Q 24.75 34.625 20.71875 30.859375 
Q 16.703125 27.09375 16.703125 20.515625 
Q 16.703125 13.921875 20.71875 10.15625 
Q 24.75 6.390625 31.78125 6.390625 
Q 38.8125 6.390625 42.859375 10.171875 
Q 46.921875 13.96875 46.921875 20.515625 
Q 46.921875 27.09375 42.890625 30.859375 
Q 38.875 34.625 31.78125 34.625 
z
M 21.921875 38.8125 
Q 15.578125 40.375 12.03125 44.71875 
Q 8.5 49.078125 8.5 55.328125 
Q 8.5 64.0625 14.71875 69.140625 
Q 20.953125 74.21875 31.78125 74.21875 
Q 42.671875 74.21875 48.875 69.140625 
Q 55.078125 64.0625 55.078125 55.328125 
Q 55.078125 49.078125 51.53125 44.71875 
Q 48 40.375 41.703125 38.8125 
Q 48.828125 37.15625 52.796875 32.3125 
Q 56.78125 27.484375 56.78125 20.515625 
Q 56.78125 9.90625 50.3125 4.234375 
Q 43.84375 -1.421875 31.78125 -1.421875 
Q 19.734375 -1.421875 13.25 4.234375 
Q 6.78125 9.90625 6.78125 20.515625 
Q 6.78125 27.484375 10.78125 32.3125 
Q 14.796875 37.15625 21.921875 38.8125 
z
M 18.3125 54.390625 
Q 18.3125 48.734375 21.84375 45.5625 
Q 25.390625 42.390625 31.78125 42.390625 
Q 38.140625 42.390625 41.71875 45.5625 
Q 45.3125 48.734375 45.3125 54.390625 
Q 45.3125 60.0625 41.71875 63.234375 
Q 38.140625 66.40625 31.78125 66.40625 
Q 25.390625 66.40625 21.84375 63.234375 
Q 18.3125 60.0625 18.3125 54.390625 
z
" id="DejaVuSans-56"/>
      </defs>
      <g transform="translate(279.606295 254.356562)scale(0.1 -0.1)">
       <use xlink:href="#DejaVuSans-48"/>
       <use x="63.623047" xlink:href="#DejaVuSans-46"/>
       <use x="95.410156" xlink:href="#DejaVuSans-56"/>
      </g>
     </g>
    </g>
    <g id="xtick_8">
     <g id="line2d_8">
      <g>
       <use style="stroke:#000000;stroke-width:0.8;" x="325.650928" xlink:href="#m24f6f47deb" y="239.758125"/>
      </g>
     </g>
     <g id="text_8">
      <!-- 0.9 -->
      <defs>
       <path d="M 10.984375 1.515625 
L 10.984375 10.5 
Q 14.703125 8.734375 18.5 7.8125 
Q 22.3125 6.890625 25.984375 6.890625 
Q 35.75 6.890625 40.890625 13.453125 
Q 46.046875 20.015625 46.78125 33.40625 
Q 43.953125 29.203125 39.59375 26.953125 
Q 35.25 24.703125 29.984375 24.703125 
Q 19.046875 24.703125 12.671875 31.3125 
Q 6.296875 37.9375 6.296875 49.421875 
Q 6.296875 60.640625 12.9375 67.421875 
Q 19.578125 74.21875 30.609375 74.21875 
Q 43.265625 74.21875 49.921875 64.515625 
Q 56.59375 54.828125 56.59375 36.375 
Q 56.59375 19.140625 48.40625 8.859375 
Q 40.234375 -1.421875 26.421875 -1.421875 
Q 22.703125 -1.421875 18.890625 -0.6875 
Q 15.09375 0.046875 10.984375 1.515625 
z
M 30.609375 32.421875 
Q 37.25 32.421875 41.125 36.953125 
Q 45.015625 41.5 45.015625 49.421875 
Q 45.015625 57.28125 41.125 61.84375 
Q 37.25 66.40625 30.609375 66.40625 
Q 23.96875 66.40625 20.09375 61.84375 
Q 16.21875 57.28125 16.21875 49.421875 
Q 16.21875 41.5 20.09375 36.953125 
Q 23.96875 32.421875 30.609375 32.421875 
z
" id="DejaVuSans-57"/>
      </defs>
      <g transform="translate(317.699366 254.356562)scale(0.1 -0.1)">
       <use xlink:href="#DejaVuSans-48"/>
       <use x="63.623047" xlink:href="#DejaVuSans-46"/>
       <use x="95.410156" xlink:href="#DejaVuSans-57"/>
      </g>
     </g>
    </g>
    <g id="xtick_9">
     <g id="line2d_9">
      <g>
       <use style="stroke:#000000;stroke-width:0.8;" x="363.743999" xlink:href="#m24f6f47deb" y="239.758125"/>
      </g>
     </g>
     <g id="text_9">
      <!-- 1.0 -->
      <defs>
       <path d="M 12.40625 8.296875 
L 28.515625 8.296875 
L 28.515625 63.921875 
L 10.984375 60.40625 
L 10.984375 69.390625 
L 28.421875 72.90625 
L 38.28125 72.90625 
L 38.28125 8.296875 
L 54.390625 8.296875 
L 54.390625 0 
L 12.40625 0 
z
" id="DejaVuSans-49"/>
      </defs>
      <g transform="translate(355.792436 254.356562)scale(0.1 -0.1)">
       <use xlink:href="#DejaVuSans-49"/>
       <use x="63.623047" xlink:href="#DejaVuSans-46"/>
       <use x="95.410156" xlink:href="#DejaVuSans-48"/>
      </g>
     </g>
    </g>
    <g id="text_10">
     <!-- Wavelength (µm) -->
     <defs>
      <path d="M 3.328125 72.90625 
L 13.28125 72.90625 
L 28.609375 11.28125 
L 43.890625 72.90625 
L 54.984375 72.90625 
L 70.3125 11.28125 
L 85.59375 72.90625 
L 95.609375 72.90625 
L 77.296875 0 
L 64.890625 0 
L 49.515625 63.28125 
L 33.984375 0 
L 21.578125 0 
z
" id="DejaVuSans-87"/>
      <path d="M 34.28125 27.484375 
Q 23.390625 27.484375 19.1875 25 
Q 14.984375 22.515625 14.984375 16.5 
Q 14.984375 11.71875 18.140625 8.90625 
Q 21.296875 6.109375 26.703125 6.109375 
Q 34.1875 6.109375 38.703125 11.40625 
Q 43.21875 16.703125 43.21875 25.484375 
L 43.21875 27.484375 
z
M 52.203125 31.203125 
L 52.203125 0 
L 43.21875 0 
L 43.21875 8.296875 
Q 40.140625 3.328125 35.546875 0.953125 
Q 30.953125 -1.421875 24.3125 -1.421875 
Q 15.921875 -1.421875 10.953125 3.296875 
Q 6 8.015625 6 15.921875 
Q 6 25.140625 12.171875 29.828125 
Q 18.359375 34.515625 30.609375 34.515625 
L 43.21875 34.515625 
L 43.21875 35.40625 
Q 43.21875 41.609375 39.140625 45 
Q 35.0625 48.390625 27.6875 48.390625 
Q 23 48.390625 18.546875 47.265625 
Q 14.109375 46.140625 10.015625 43.890625 
L 10.015625 52.203125 
Q 14.9375 54.109375 19.578125 55.046875 
Q 24.21875 56 28.609375 56 
Q 40.484375 56 46.34375 49.84375 
Q 52.203125 43.703125 52.203125 31.203125 
z
" id="DejaVuSans-97"/>
      <path d="M 2.984375 54.6875 
L 12.5 54.6875 
L 29.59375 8.796875 
L 46.6875 54.6875 
L 56.203125 54.6875 
L 35.6875 0 
L 23.484375 0 
z
" id="DejaVuSans-118"/>
      <path d="M 56.203125 29.59375 
L 56.203125 25.203125 
L 14.890625 25.203125 
Q 15.484375 15.921875 20.484375 11.0625 
Q 25.484375 6.203125 34.421875 6.203125 
Q 39.59375 6.203125 44.453125 7.46875 
Q 49.3125 8.734375 54.109375 11.28125 
L 54.109375 2.78125 
Q 49.265625 0.734375 44.1875 -0.34375 
Q 39.109375 -1.421875 33.890625 -1.421875 
Q 20.796875 -1.421875 13.15625 6.1875 
Q 5.515625 13.8125 5.515625 26.8125 
Q 5.515625 40.234375 12.765625 48.109375 
Q 20.015625 56 32.328125 56 
Q 43.359375 56 49.78125 48.890625 
Q 56.203125 41.796875 56.203125 29.59375 
z
M 47.21875 32.234375 
Q 47.125 39.59375 43.09375 43.984375 
Q 39.0625 48.390625 32.421875 48.390625 
Q 24.90625 48.390625 20.390625 44.140625 
Q 15.875 39.890625 15.1875 32.171875 
z
" id="DejaVuSans-101"/>
      <path d="M 9.421875 75.984375 
L 18.40625 75.984375 
L 18.40625 0 
L 9.421875 0 
z
" id="DejaVuSans-108"/>
      <path d="M 54.890625 33.015625 
L 54.890625 0 
L 45.90625 0 
L 45.90625 32.71875 
Q 45.90625 40.484375 42.875 44.328125 
Q 39.84375 48.1875 33.796875 48.1875 
Q 26.515625 48.1875 22.3125 43.546875 
Q 18.109375 38.921875 18.109375 30.90625 
L 18.109375 0 
L 9.078125 0 
L 9.078125 54.6875 
L 18.109375 54.6875 
L 18.109375 46.1875 
Q 21.34375 51.125 25.703125 53.5625 
Q 30.078125 56 35.796875 56 
Q 45.21875 56 50.046875 50.171875 
Q 54.890625 44.34375 54.890625 33.015625 
z
" id="DejaVuSans-110"/>
      <path d="M 45.40625 27.984375 
Q 45.40625 37.75 41.375 43.109375 
Q 37.359375 48.484375 30.078125 48.484375 
Q 22.859375 48.484375 18.828125 43.109375 
Q 14.796875 37.75 14.796875 27.984375 
Q 14.796875 18.265625 18.828125 12.890625 
Q 22.859375 7.515625 30.078125 7.515625 
Q 37.359375 7.515625 41.375 12.890625 
Q 45.40625 18.265625 45.40625 27.984375 
z
M 54.390625 6.78125 
Q 54.390625 -7.171875 48.1875 -13.984375 
Q 42 -20.796875 29.203125 -20.796875 
Q 24.46875 -20.796875 20.265625 -20.09375 
Q 16.0625 -19.390625 12.109375 -17.921875 
L 12.109375 -9.1875 
Q 16.0625 -11.328125 19.921875 -12.34375 
Q 23.78125 -13.375 27.78125 -13.375 
Q 36.625 -13.375 41.015625 -8.765625 
Q 45.40625 -4.15625 45.40625 5.171875 
L 45.40625 9.625 
Q 42.625 4.78125 38.28125 2.390625 
Q 33.9375 0 27.875 0 
Q 17.828125 0 11.671875 7.65625 
Q 5.515625 15.328125 5.515625 27.984375 
Q 5.515625 40.671875 11.671875 48.328125 
Q 17.828125 56 27.875 56 
Q 33.9375 56 38.28125 53.609375 
Q 42.625 51.21875 45.40625 46.390625 
L 45.40625 54.6875 
L 54.390625 54.6875 
z
" id="DejaVuSans-103"/>
      <path d="M 18.3125 70.21875 
L 18.3125 54.6875 
L 36.8125 54.6875 
L 36.8125 47.703125 
L 18.3125 47.703125 
L 18.3125 18.015625 
Q 18.3125 11.328125 20.140625 9.421875 
Q 21.96875 7.515625 27.59375 7.515625 
L 36.8125 7.515625 
L 36.8125 0 
L 27.59375 0 
Q 17.1875 0 13.234375 3.875 
Q 9.28125 7.765625 9.28125 18.015625 
L 9.28125 47.703125 
L 2.6875 47.703125 
L 2.6875 54.6875 
L 9.28125 54.6875 
L 9.28125 70.21875 
z
" id="DejaVuSans-116"/>
      <path d="M 54.890625 33.015625 
L 54.890625 0 
L 45.90625 0 
L 45.90625 32.71875 
Q 45.90625 40.484375 42.875 44.328125 
Q 39.84375 48.1875 33.796875 48.1875 
Q 26.515625 48.1875 22.3125 43.546875 
Q 18.109375 38.921875 18.109375 30.90625 
L 18.109375 0 
L 9.078125 0 
L 9.078125 75.984375 
L 18.109375 75.984375 
L 18.109375 46.1875 
Q 21.34375 51.125 25.703125 53.5625 
Q 30.078125 56 35.796875 56 
Q 45.21875 56 50.046875 50.171875 
Q 54.890625 44.34375 54.890625 33.015625 
z
" id="DejaVuSans-104"/>
      <path id="DejaVuSans-32"/>
      <path d="M 31 75.875 
Q 24.46875 64.65625 21.28125 53.65625 
Q 18.109375 42.671875 18.109375 31.390625 
Q 18.109375 20.125 21.3125 9.0625 
Q 24.515625 -2 31 -13.1875 
L 23.1875 -13.1875 
Q 15.875 -1.703125 12.234375 9.375 
Q 8.59375 20.453125 8.59375 31.390625 
Q 8.59375 42.28125 12.203125 53.3125 
Q 15.828125 64.359375 23.1875 75.875 
z
" id="DejaVuSans-40"/>
      <path d="M 8.5 -20.796875 
L 8.5 54.6875 
L 17.484375 54.6875 
L 17.484375 20.703125 
Q 17.484375 13.625 20.84375 10 
Q 24.21875 6.390625 30.8125 6.390625 
Q 38.03125 6.390625 41.671875 10.484375 
Q 45.3125 14.59375 45.3125 22.796875 
L 45.3125 54.6875 
L 54.296875 54.6875 
L 54.296875 12.59375 
Q 54.296875 9.671875 55.140625 8.28125 
Q 56 6.890625 57.8125 6.890625 
Q 58.25 6.890625 59.03125 7.15625 
Q 59.8125 7.421875 61.1875 8.015625 
L 61.1875 0.78125 
Q 59.1875 -0.34375 57.390625 -0.875 
Q 55.609375 -1.421875 53.90625 -1.421875 
Q 50.53125 -1.421875 48.53125 0.484375 
Q 46.53125 2.390625 45.796875 6.296875 
Q 43.359375 2.4375 39.8125 0.5 
Q 36.28125 -1.421875 31.5 -1.421875 
Q 26.515625 -1.421875 23.015625 0.484375 
Q 19.53125 2.390625 17.484375 6.203125 
L 17.484375 -20.796875 
z
" id="DejaVuSans-181"/>
      <path d="M 52 44.1875 
Q 55.375 50.25 60.0625 53.125 
Q 64.75 56 71.09375 56 
Q 79.640625 56 84.28125 50.015625 
Q 88.921875 44.046875 88.921875 33.015625 
L 88.921875 0 
L 79.890625 0 
L 79.890625 32.71875 
Q 79.890625 40.578125 77.09375 44.375 
Q 74.3125 48.1875 68.609375 48.1875 
Q 61.625 48.1875 57.5625 43.546875 
Q 53.515625 38.921875 53.515625 30.90625 
L 53.515625 0 
L 44.484375 0 
L 44.484375 32.71875 
Q 44.484375 40.625 41.703125 44.40625 
Q 38.921875 48.1875 33.109375 48.1875 
Q 26.21875 48.1875 22.15625 43.53125 
Q 18.109375 38.875 18.109375 30.90625 
L 18.109375 0 
L 9.078125 0 
L 9.078125 54.6875 
L 18.109375 54.6875 
L 18.109375 46.1875 
Q 21.1875 51.21875 25.484375 53.609375 
Q 29.78125 56 35.6875 56 
Q 41.65625 56 45.828125 52.96875 
Q 50 49.953125 52 44.1875 
z
" id="DejaVuSans-109"/>
      <path d="M 8.015625 75.875 
L 15.828125 75.875 
Q 23.140625 64.359375 26.78125 53.3125 
Q 30.421875 42.28125 30.421875 31.390625 
Q 30.421875 20.453125 26.78125 9.375 
Q 23.140625 -1.703125 15.828125 -13.1875 
L 8.015625 -13.1875 
Q 14.5 -2 17.703125 9.0625 
Q 20.90625 20.125 20.90625 31.390625 
Q 20.90625 42.671875 17.703125 53.65625 
Q 14.5 64.65625 8.015625 75.875 
z
" id="DejaVuSans-41"/>
     </defs>
     <g transform="translate(167.976562 268.034687)scale(0.1 -0.1)">
      <use xlink:href="#DejaVuSans-87"/>
      <use x="92.501953" xlink:href="#DejaVuSans-97"/>
      <use x="153.78125" xlink:href="#DejaVuSans-118"/>
      <use x="212.960938" xlink:href="#DejaVuSans-101"/>
      <use x="274.484375" xlink:href="#DejaVuSans-108"/>
      <use x="302.267578" xlink:href="#DejaVuSans-101"/>
      <use x="363.791016" xlink:href="#DejaVuSans-110"/>
      <use x="427.169922" xlink:href="#DejaVuSans-103"/>
      <use x="490.646484" xlink:href="#DejaVuSans-116"/>
      <use x="529.855469" xlink:href="#DejaVuSans-104"/>
      <use x="593.234375" xlink:href="#DejaVuSans-32"/>
      <use x="625.021484" xlink:href="#DejaVuSans-40"/>
      <use x="664.035156" xlink:href="#DejaVuSans-181"/>
      <use x="727.658203" xlink:href="#DejaVuSans-109"/>
      <use x="825.070312" xlink:href="#DejaVuSans-41"/>
     </g>
    </g>
   </g>
   <g id="matplotlib.axis_2">
    <g id="ytick_1">
     <g id="line2d_10">
      <defs>
       <path d="M 0 0 
L -3.5 0 
" id="m00acecb447" style="stroke:#000000;stroke-width:0.8;"/>
      </defs>
      <g>
       <use style="stroke:#000000;stroke-width:0.8;" x="43.78125" xlink:href="#m00acecb447" y="230.008023"/>
      </g>
     </g>
     <g id="text_11">
      <!-- 0.0 -->
      <g transform="translate(20.878125 233.807242)scale(0.1 -0.1)">
       <use xlink:href="#DejaVuSans-48"/>
       <use x="63.623047" xlink:href="#DejaVuSans-46"/>
       <use x="95.410156" xlink:href="#DejaVuSans-48"/>
      </g>
     </g>
    </g>
    <g id="ytick_2">
     <g id="line2d_11">
      <g>
       <use style="stroke:#000000;stroke-width:0.8;" x="43.78125" xlink:href="#m00acecb447" y="190.446771"/>
      </g>
     </g>
     <g id="text_12">
      <!-- 0.2 -->
      <g transform="translate(20.878125 194.24599)scale(0.1 -0.1)">
       <use xlink:href="#DejaVuSans-48"/>
       <use x="63.623047" xlink:href="#DejaVuSans-46"/>
       <use x="95.410156" xlink:href="#DejaVuSans-50"/>
      </g>
     </g>
    </g>
    <g id="ytick_3">
     <g id="line2d_12">
      <g>
       <use style="stroke:#000000;stroke-width:0.8;" x="43.78125" xlink:href="#m00acecb447" y="150.885519"/>
      </g>
     </g>
     <g id="text_13">
      <!-- 0.4 -->
      <g transform="translate(20.878125 154.684737)scale(0.1 -0.1)">
       <use xlink:href="#DejaVuSans-48"/>
       <use x="63.623047" xlink:href="#DejaVuSans-46"/>
       <use x="95.410156" xlink:href="#DejaVuSans-52"/>
      </g>
     </g>
    </g>
    <g id="ytick_4">
     <g id="line2d_13">
      <g>
       <use style="stroke:#000000;stroke-width:0.8;" x="43.78125" xlink:href="#m00acecb447" y="111.324266"/>
      </g>
     </g>
     <g id="text_14">
      <!-- 0.6 -->
      <g transform="translate(20.878125 115.123485)scale(0.1 -0.1)">
       <use xlink:href="#DejaVuSans-48"/>
       <use x="63.623047" xlink:href="#DejaVuSans-46"/>
       <use x="95.410156" xlink:href="#DejaVuSans-54"/>
      </g>
     </g>
    </g>
    <g id="ytick_5">
     <g id="line2d_14">
      <g>
       <use style="stroke:#000000;stroke-width:0.8;" x="43.78125" xlink:href="#m00acecb447" y="71.763014"/>
      </g>
     </g>
     <g id="text_15">
      <!-- 0.8 -->
      <g transform="translate(20.878125 75.562232)scale(0.1 -0.1)">
       <use xlink:href="#DejaVuSans-48"/>
       <use x="63.623047" xlink:href="#DejaVuSans-46"/>
       <use x="95.410156" xlink:href="#DejaVuSans-56"/>
      </g>
     </g>
    </g>
    <g id="ytick_6">
     <g id="line2d_15">
      <g>
       <use style="stroke:#000000;stroke-width:0.8;" x="43.78125" xlink:href="#m00acecb447" y="32.201761"/>
      </g>
     </g>
     <g id="text_16">
      <!-- 1.0 -->
      <g transform="translate(20.878125 36.00098)scale(0.1 -0.1)">
       <use xlink:href="#DejaVuSans-49"/>
       <use x="63.623047" xlink:href="#DejaVuSans-46"/>
       <use x="95.410156" xlink:href="#DejaVuSans-48"/>
      </g>
     </g>
    </g>
    <g id="text_17">
     <!-- Reflectance -->
     <defs>
      <path d="M 44.390625 34.1875 
Q 47.5625 33.109375 50.5625 29.59375 
Q 53.5625 26.078125 56.59375 19.921875 
L 66.609375 0 
L 56 0 
L 46.6875 18.703125 
Q 43.0625 26.03125 39.671875 28.421875 
Q 36.28125 30.8125 30.421875 30.8125 
L 19.671875 30.8125 
L 19.671875 0 
L 9.8125 0 
L 9.8125 72.90625 
L 32.078125 72.90625 
Q 44.578125 72.90625 50.734375 67.671875 
Q 56.890625 62.453125 56.890625 51.90625 
Q 56.890625 45.015625 53.6875 40.46875 
Q 50.484375 35.9375 44.390625 34.1875 
z
M 19.671875 64.796875 
L 19.671875 38.921875 
L 32.078125 38.921875 
Q 39.203125 38.921875 42.84375 42.21875 
Q 46.484375 45.515625 46.484375 51.90625 
Q 46.484375 58.296875 42.84375 61.546875 
Q 39.203125 64.796875 32.078125 64.796875 
z
" id="DejaVuSans-82"/>
      <path d="M 37.109375 75.984375 
L 37.109375 68.5 
L 28.515625 68.5 
Q 23.6875 68.5 21.796875 66.546875 
Q 19.921875 64.59375 19.921875 59.515625 
L 19.921875 54.6875 
L 34.71875 54.6875 
L 34.71875 47.703125 
L 19.921875 47.703125 
L 19.921875 0 
L 10.890625 0 
L 10.890625 47.703125 
L 2.296875 47.703125 
L 2.296875 54.6875 
L 10.890625 54.6875 
L 10.890625 58.5 
Q 10.890625 67.625 15.140625 71.796875 
Q 19.390625 75.984375 28.609375 75.984375 
z
" id="DejaVuSans-102"/>
      <path d="M 48.78125 52.59375 
L 48.78125 44.1875 
Q 44.96875 46.296875 41.140625 47.34375 
Q 37.3125 48.390625 33.40625 48.390625 
Q 24.65625 48.390625 19.8125 42.84375 
Q 14.984375 37.3125 14.984375 27.296875 
Q 14.984375 17.28125 19.8125 11.734375 
Q 24.65625 6.203125 33.40625 6.203125 
Q 37.3125 6.203125 41.140625 7.25 
Q 44.96875 8.296875 48.78125 10.40625 
L 48.78125 2.09375 
Q 45.015625 0.34375 40.984375 -0.53125 
Q 36.96875 -1.421875 32.421875 -1.421875 
Q 20.0625 -1.421875 12.78125 6.34375 
Q 5.515625 14.109375 5.515625 27.296875 
Q 5.515625 40.671875 12.859375 48.328125 
Q 20.21875 56 33.015625 56 
Q 37.15625 56 41.109375 55.140625 
Q 45.0625 54.296875 48.78125 52.59375 
z
" id="DejaVuSans-99"/>
     </defs>
     <g transform="translate(14.798438 160.357656)rotate(-90)scale(0.1 -0.1)">
      <use xlink:href="#DejaVuSans-82"/>
      <use x="64.982422" xlink:href="#DejaVuSans-101"/>
      <use x="126.505859" xlink:href="#DejaVuSans-102"/>
      <use x="161.710938" xlink:href="#DejaVuSans-108"/>
      <use x="189.494141" xlink:href="#DejaVuSans-101"/>
      <use x="251.017578" xlink:href="#DejaVuSans-99"/>
      <use x="305.998047" xlink:href="#DejaVuSans-116"/>
      <use x="345.207031" xlink:href="#DejaVuSans-97"/>
      <use x="406.486328" xlink:href="#DejaVuSans-110"/>
      <use x="469.865234" xlink:href="#DejaVuSans-99"/>
      <use x="524.845703" xlink:href="#DejaVuSans-101"/>
     </g>
    </g>
   </g>
   <g id="line2d_16">
    <path clip-path="url(#paf7a95a130)" d="M 58.999432 86.465805 
L 59.380363 80.975316 
L 59.761293 77.095388 
L 60.142224 74.496413 
L 60.523155 72.954842 
L 60.904085 72.330274 
L 61.285016 72.548567 
L 61.665947 73.591099 
L 62.046877 75.489193 
L 62.427808 78.322557 
L 63.18967 86.339518 
L 63.951531 97.624556 
L 64.713392 113.99673 
L 65.475254 136.464962 
L 67.379907 203.128183 
L 67.760838 212.281312 
L 68.141769 218.740892 
L 68.5227 222.236299 
L 68.90363 222.866052 
L 69.284561 221.037871 
L 69.665492 217.341941 
L 72.712937 179.120918 
L 73.474799 173.663597 
L 74.23666 170.305492 
L 74.617591 169.280403 
L 74.998522 168.652078 
L 75.379452 168.401692 
L 75.760383 168.510487 
L 76.141314 168.959929 
L 76.522244 169.731676 
L 77.284106 172.168604 
L 78.045967 175.670296 
L 79.188759 181.808189 
L 80.712482 191.877202 
L 82.998066 207.268227 
L 84.140859 213.643617 
L 85.283651 218.586096 
L 86.045512 220.865666 
L 86.807374 222.33789 
L 87.188304 222.797764 
L 87.569235 223.079385 
L 87.950166 223.190038 
L 88.331096 223.138982 
L 88.712027 222.937149 
L 89.473889 222.131335 
L 90.23575 220.943071 
L 91.378542 218.61408 
L 95.56878 209.244821 
L 96.711572 207.386503 
L 97.473433 206.438323 
L 98.235295 205.736319 
L 98.997156 205.275152 
L 99.759018 205.05931 
L 100.520879 205.088617 
L 101.28274 205.356195 
L 102.044602 205.847159 
L 102.806463 206.550562 
L 103.949255 207.971395 
L 105.092048 209.764322 
L 106.61577 212.574275 
L 111.56787 222.195368 
L 112.710662 223.774414 
L 113.472523 224.5481 
L 114.234385 225.064641 
L 114.996246 225.293664 
L 115.758107 225.209696 
L 116.519969 224.795842 
L 117.28183 224.043374 
L 118.043692 222.944933 
L 118.805553 221.501478 
L 119.948345 218.70842 
L 121.091137 215.238276 
L 122.61486 209.668911 
L 124.519514 201.551138 
L 127.186029 188.955281 
L 131.757197 167.204643 
L 134.423712 155.731795 
L 136.709296 146.954167 
L 138.61395 140.42463 
L 140.518604 134.599616 
L 142.423257 129.43764 
L 144.327911 124.89263 
L 146.232564 120.910733 
L 148.137218 117.43845 
L 150.041871 114.426813 
L 151.946525 111.826897 
L 153.851178 109.599662 
L 155.755832 107.704076 
L 157.660485 106.111043 
L 159.565139 104.787292 
L 161.469792 103.712078 
L 163.755377 102.713317 
L 166.040961 102.007725 
L 168.326545 101.562651 
L 170.61213 101.358575 
L 172.897714 101.375824 
L 175.564229 101.650138 
L 178.230744 102.181851 
L 180.897259 102.952807 
L 183.563774 103.942823 
L 186.611219 105.332715 
L 189.658665 106.981951 
L 192.706111 108.877004 
L 195.753556 111.004364 
L 199.181933 113.662645 
L 202.99124 116.929628 
L 206.800547 120.506516 
L 210.990785 124.774618 
L 215.561953 129.793228 
L 220.133122 135.146419 
L 225.466152 141.748499 
L 231.941974 150.151661 
L 242.988964 164.94395 
L 251.75037 176.501786 
L 257.464331 183.689795 
L 262.41643 189.578092 
L 266.987599 194.670567 
L 271.177837 199.011045 
L 274.987144 202.663123 
L 278.796451 206.02226 
L 282.605758 209.081338 
L 286.415065 211.838435 
L 289.843441 214.063827 
L 293.271818 216.05181 
L 297.081125 217.99114 
L 300.890432 219.659155 
L 304.699739 221.070928 
L 308.509046 222.243185 
L 312.318353 223.193725 
L 316.508591 224.005137 
L 320.698829 224.59501 
L 325.269997 225.014155 
L 330.222097 225.237894 
L 335.555126 225.251028 
L 341.650018 225.027976 
L 348.506771 224.538171 
L 356.506315 223.731805 
L 363.363068 222.901594 
L 363.363068 222.901594 
" style="fill:none;stroke:#1f77b4;stroke-linecap:square;stroke-width:1.5;"/>
   </g>
   <g id="line2d_17">
    <path clip-path="url(#paf7a95a130)" d="M 58.999432 52.337234 
L 59.380363 49.16482 
L 59.761293 47.272332 
L 60.142224 46.277387 
L 60.523155 45.988257 
L 60.904085 46.338838 
L 61.285016 47.364818 
L 61.665947 49.209638 
L 62.046877 52.16097 
L 62.427808 56.729682 
L 63.18967 72.653527 
L 63.5706 85.594746 
L 63.951531 104.39639 
L 64.713392 164.072901 
L 65.094323 197.92616 
L 65.475254 219.913718 
L 65.856185 222.389782 
L 66.237115 210.295366 
L 66.998977 179.625604 
L 67.379907 168.740573 
L 67.760838 161.116601 
L 68.141769 156.555972 
L 68.5227 154.750727 
L 68.90363 155.424931 
L 69.284561 158.359591 
L 69.665492 163.366353 
L 70.427353 178.66084 
L 71.951076 212.64224 
L 72.332007 218.426707 
L 72.712937 221.724816 
L 73.093868 222.255735 
L 73.474799 220.137808 
L 73.855729 215.831639 
L 74.998522 197.144111 
L 76.141314 179.408951 
L 76.903175 170.96902 
L 77.665037 165.721213 
L 78.045967 164.269496 
L 78.426898 163.435299 
L 78.807829 163.238339 
L 79.188759 163.651762 
L 79.56969 164.64805 
L 79.950621 166.198631 
L 80.712482 170.836845 
L 81.474344 177.270306 
L 83.378997 197.022414 
L 84.90272 212.407419 
L 85.664581 218.204674 
L 86.426443 221.973935 
L 86.807374 223.168801 
L 87.188304 223.911441 
L 87.569235 224.227032 
L 87.950166 224.153654 
L 88.331096 223.739306 
L 89.092958 222.109908 
L 90.616681 217.416147 
L 91.759473 214.027762 
L 92.521334 212.281362 
L 93.283196 211.108351 
L 93.664126 210.77453 
L 94.045057 210.594064 
L 94.425988 210.566411 
L 94.806918 210.688403 
L 95.187849 210.954436 
L 95.949711 211.884999 
L 96.711572 213.270367 
L 97.854364 215.902704 
L 100.139948 221.362974 
L 100.90181 222.675849 
L 101.663671 223.492267 
L 102.044602 223.692388 
L 102.425533 223.742103 
L 102.806463 223.636014 
L 103.187394 223.371567 
L 103.949255 222.371706 
L 104.711117 220.77805 
L 105.472978 218.697681 
L 106.61577 214.85269 
L 110.806008 199.481009 
L 111.9488 196.409755 
L 112.710662 194.850346 
L 113.472523 193.718249 
L 114.234385 193.030949 
L 114.996246 192.804448 
L 115.377177 192.866881 
L 116.139038 193.344893 
L 116.9009 194.276278 
L 117.662761 195.65755 
L 118.424622 197.470507 
L 119.567415 200.934609 
L 121.091137 206.654971 
L 124.900444 222.186252 
L 125.662306 224.438144 
L 126.424167 226.026636 
L 126.805098 226.519913 
L 127.186029 226.786927 
L 127.566959 226.810663 
L 127.94789 226.578633 
L 128.328821 226.079697 
L 128.709752 225.305032 
L 129.471613 222.910041 
L 130.233474 219.392592 
L 130.995336 214.809092 
L 132.138128 206.214452 
L 133.661851 192.379809 
L 138.994881 140.788753 
L 140.518604 128.594818 
L 142.042326 118.000844 
L 143.566049 108.943461 
L 145.089772 101.266183 
L 146.613495 94.783906 
L 148.137218 89.32902 
L 149.660941 84.735285 
L 151.184663 80.867811 
L 152.708386 77.609978 
L 154.232109 74.865898 
L 155.755832 72.554669 
L 157.279555 70.613059 
L 158.803278 68.986842 
L 160.327 67.632306 
L 162.231654 66.269709 
L 164.136307 65.220272 
L 166.040961 64.444471 
L 167.945615 63.905395 
L 169.850268 63.581259 
L 171.754922 63.448645 
L 174.040506 63.526558 
L 176.32609 63.844225 
L 178.611674 64.390902 
L 180.897259 65.164089 
L 183.182843 66.157232 
L 185.468427 67.379705 
L 187.754011 68.835205 
L 190.039596 70.533814 
L 192.32518 72.491617 
L 194.610764 74.717074 
L 196.896348 77.234761 
L 199.181933 80.060357 
L 201.467517 83.214673 
L 203.753101 86.723113 
L 206.038685 90.598916 
L 208.32427 94.87087 
L 210.609854 99.552595 
L 213.276369 105.551181 
L 215.942884 112.141749 
L 218.609399 119.318169 
L 221.656844 128.202407 
L 225.085221 138.974189 
L 229.275459 152.975107 
L 238.798726 185.20567 
L 241.846172 194.560249 
L 244.512687 201.969826 
L 246.798271 207.627293 
L 248.702925 211.79803 
L 250.607578 215.446002 
L 252.512232 218.560153 
L 254.035955 220.666979 
L 255.559678 222.438199 
L 257.0834 223.885101 
L 258.607123 225.020267 
L 260.130846 225.862275 
L 261.654569 226.430074 
L 263.178292 226.744991 
L 264.702015 226.829406 
L 266.225737 226.70605 
L 268.130391 226.29428 
L 270.035045 225.63698 
L 272.320629 224.581738 
L 274.987144 223.066825 
L 278.41552 220.810491 
L 283.74855 216.960349 
L 291.367164 211.487126 
L 295.938333 208.498607 
L 299.74764 206.257155 
L 303.556947 204.268045 
L 307.366254 202.540808 
L 311.175561 201.075286 
L 314.984868 199.864746 
L 318.794175 198.898143 
L 322.603482 198.161747 
L 326.412789 197.64029 
L 330.603027 197.295795 
L 334.793265 197.170394 
L 339.364434 197.258407 
L 344.316533 197.588242 
L 349.649563 198.179622 
L 355.363523 199.042761 
L 361.839345 200.253982 
L 363.363068 200.568942 
L 363.363068 200.568942 
" style="fill:none;stroke:#ff7f0e;stroke-linecap:square;stroke-width:1.5;"/>
   </g>
   <g id="line2d_18">
    <path clip-path="url(#paf7a95a130)" d="M 58.999432 39.188458 
L 59.380363 37.752623 
L 59.761293 37.00246 
L 60.142224 36.692509 
L 60.523155 36.727839 
L 60.904085 37.108976 
L 61.285016 37.929314 
L 61.665947 39.421404 
L 62.046877 42.090511 
L 62.427808 47.061741 
L 62.808739 57.01312 
L 63.18967 73.880222 
L 63.5706 107.1244 
L 64.332462 218.662376 
L 64.713392 213.969374 
L 65.475254 154.373034 
L 65.856185 140.894893 
L 66.237115 137.08496 
L 66.618046 140.945183 
L 66.998977 149.93037 
L 67.760838 181.708607 
L 68.5227 215.996221 
L 68.90363 222.803088 
L 69.284561 219.561326 
L 70.046422 196.084013 
L 70.808284 175.149293 
L 71.189215 169.108967 
L 71.570145 165.93041 
L 71.951076 165.516171 
L 72.332007 167.719988 
L 72.712937 172.365516 
L 73.474799 187.795366 
L 74.617591 214.813464 
L 74.998522 220.165138 
L 75.379452 222.201152 
L 75.760383 220.582878 
L 76.141314 215.665003 
L 76.903175 199.682169 
L 78.045967 174.65513 
L 78.807829 163.396275 
L 79.188759 159.546339 
L 79.56969 156.869383 
L 79.950621 155.32431 
L 80.331552 154.863766 
L 80.712482 155.440735 
L 81.093413 157.01006 
L 81.474344 159.526337 
L 82.236205 166.836262 
L 82.998066 176.625254 
L 85.664581 216.285098 
L 86.426443 222.551598 
L 86.807374 224.360096 
L 87.188304 225.314799 
L 87.569235 225.504119 
L 87.950166 225.054203 
L 88.331096 224.112962 
L 89.092958 221.367884 
L 90.23575 217.17476 
L 90.997611 215.276243 
L 91.378542 214.715332 
L 91.759473 214.433575 
L 92.140403 214.428885 
L 92.521334 214.687233 
L 92.902265 215.18402 
L 93.664126 216.732034 
L 95.949711 222.277669 
L 96.330641 222.80279 
L 96.711572 223.09756 
L 97.092503 223.135551 
L 97.473433 222.909095 
L 97.854364 222.417445 
L 98.616226 220.677321 
L 99.378087 218.084992 
L 100.90181 211.52447 
L 102.425533 205.398425 
L 103.187394 203.11047 
L 103.949255 201.56905 
L 104.330186 201.11079 
L 104.711117 200.871159 
L 105.092048 200.851955 
L 105.472978 201.049312 
L 105.853909 201.460883 
L 106.61577 202.902804 
L 107.377632 205.100199 
L 108.520424 209.519421 
L 111.56787 222.293368 
L 112.329731 224.197492 
L 112.710662 224.761262 
L 113.091592 225.042882 
L 113.472523 225.02683 
L 113.853454 224.704715 
L 114.234385 224.075637 
L 114.996246 221.930205 
L 115.758107 218.725293 
L 116.9009 212.472766 
L 120.710207 189.804632 
L 121.852999 185.144676 
L 122.61486 182.953616 
L 123.376722 181.563295 
L 123.757652 181.181242 
L 124.138583 181.010829 
L 124.519514 181.054537 
L 124.900444 181.314832 
L 125.281375 181.793582 
L 126.043237 183.410629 
L 126.805098 185.905661 
L 127.566959 189.260415 
L 128.709752 195.74266 
L 129.852544 203.67051 
L 132.138128 220.399981 
L 132.899989 224.607516 
L 133.28092 226.127029 
L 133.661851 227.150368 
L 134.042781 227.602509 
L 134.423712 227.417311 
L 134.804643 226.541748 
L 135.185574 224.939804 
L 135.566504 222.607305 
L 136.328366 215.77965 
L 137.090227 206.356816 
L 138.233019 188.688252 
L 141.661396 132.087127 
L 142.804188 116.838211 
L 143.94698 104.085484 
L 145.089772 93.577662 
L 146.232564 84.995195 
L 147.375356 78.01272 
L 148.518148 72.320517 
L 149.660941 67.662158 
L 150.803733 63.834574 
L 151.946525 60.674219 
L 153.089317 58.04944 
L 154.232109 55.859343 
L 155.755832 53.480064 
L 157.279555 51.588365 
L 158.803278 50.078072 
L 160.327 48.870372 
L 161.850723 47.907696 
L 163.755377 46.980166 
L 165.66003 46.304497 
L 167.945615 45.7604 
L 170.231199 45.461404 
L 172.516783 45.372191 
L 175.183298 45.507008 
L 177.849813 45.887112 
L 180.516328 46.51262 
L 183.182843 47.396945 
L 185.468427 48.383247 
L 187.754011 49.605122 
L 190.039596 51.095918 
L 191.944249 52.57583 
L 193.848903 54.300375 
L 195.753556 56.30986 
L 197.65821 58.642281 
L 199.562863 61.352596 
L 201.467517 64.493312 
L 203.37217 68.136896 
L 205.276824 72.351868 
L 207.181478 77.228308 
L 209.086131 82.847073 
L 210.990785 89.307378 
L 212.895438 96.685435 
L 214.800092 105.061763 
L 216.704745 114.465065 
L 218.609399 124.897271 
L 220.894983 138.635815 
L 223.942429 158.461085 
L 228.513597 188.32016 
L 230.418251 199.41696 
L 231.941974 207.21516 
L 233.465696 213.851606 
L 234.608489 217.983742 
L 235.751281 221.358442 
L 236.894073 223.977034 
L 237.655934 225.311408 
L 238.417796 226.327992 
L 239.179657 227.041361 
L 239.941519 227.468974 
L 240.70338 227.629663 
L 241.465241 227.543854 
L 242.227103 227.233253 
L 242.988964 226.7202 
L 244.131756 225.618847 
L 245.274548 224.183737 
L 246.798271 221.871296 
L 248.702925 218.542096 
L 252.512232 211.287338 
L 255.940608 204.941002 
L 258.607123 200.491937 
L 260.892708 197.125976 
L 262.797361 194.665927 
L 264.702015 192.525373 
L 266.606668 190.703337 
L 268.511322 189.191323 
L 270.415975 187.978388 
L 272.320629 187.050699 
L 274.225282 186.393184 
L 276.129936 185.99054 
L 278.034589 185.82638 
L 279.939243 185.88559 
L 281.843896 186.151668 
L 284.129481 186.723487 
L 286.415065 187.545369 
L 288.700649 188.59231 
L 291.367164 190.06497 
L 294.41461 192.030652 
L 297.842986 194.534948 
L 302.033224 197.904089 
L 308.509046 203.463856 
L 316.12766 209.95844 
L 320.698829 213.550063 
L 324.508136 216.254527 
L 327.936512 218.41447 
L 330.983958 220.091203 
L 334.031404 221.524466 
L 337.078849 222.706887 
L 340.126295 223.637096 
L 343.173741 224.319534 
L 346.221186 224.763325 
L 349.268632 224.981651 
L 352.316078 224.990895 
L 355.744454 224.774796 
L 359.553761 224.287476 
L 363.363068 223.579872 
L 363.363068 223.579872 
" style="fill:none;stroke:#2ca02c;stroke-linecap:square;stroke-width:1.5;"/>
   </g>
   <g id="line2d_19">
    <path clip-path="url(#paf7a95a130)" d="M 58.999432 32.21179 
L 61.665947 32.251969 
L 62.046877 32.432538 
L 62.427808 34.708429 
L 62.808739 216.148998 
L 63.18967 73.04322 
L 63.5706 121.598533 
L 63.951531 205.460486 
L 64.332462 115.011217 
L 64.713392 119.891404 
L 65.094323 194.776734 
L 65.475254 201.07701 
L 65.856185 141.760859 
L 66.237115 139.192077 
L 66.998977 223.332217 
L 67.760838 155.194794 
L 68.141769 153.211783 
L 68.5227 180.164287 
L 68.90363 217.810366 
L 69.284561 212.98364 
L 69.665492 179.081751 
L 70.046422 161.456476 
L 70.427353 167.819685 
L 71.189215 218.32947 
L 71.570145 217.793691 
L 72.332007 172.360201 
L 72.712937 166.959809 
L 73.093868 177.532508 
L 73.855729 220.307409 
L 74.23666 216.903707 
L 74.998522 177.35235 
L 75.379452 168.653748 
L 75.760383 172.006172 
L 76.141314 186.573841 
L 76.522244 207.517094 
L 76.903175 221.585223 
L 77.284106 215.480102 
L 78.045967 174.704825 
L 78.426898 163.850642 
L 78.807829 162.872517 
L 79.188759 172.026224 
L 79.950621 212.41681 
L 80.331552 221.955253 
L 80.712482 205.575572 
L 81.474344 143.06798 
L 81.855274 121.84186 
L 82.236205 109.076264 
L 82.617136 102.275331 
L 82.998066 100.141955 
L 83.378997 102.077749 
L 83.759928 108.077091 
L 84.140859 118.569019 
L 84.521789 134.131049 
L 85.283651 179.106321 
L 86.045512 219.740837 
L 86.426443 228.396735 
L 86.807374 229.874489 
L 87.188304 227.583729 
L 87.569235 224.615053 
L 87.950166 222.632775 
L 88.331096 222.000546 
L 89.092958 222.615254 
L 89.473889 222.336942 
L 89.854819 221.161422 
L 90.997611 215.360119 
L 91.378542 214.482242 
L 91.759473 214.741539 
L 92.140403 216.095913 
L 93.283196 222.231677 
L 93.664126 222.82682 
L 94.045057 222.005233 
L 94.425988 219.837817 
L 95.949711 208.292237 
L 96.330641 207.475686 
L 96.711572 208.067144 
L 97.092503 209.98912 
L 97.854364 216.307846 
L 98.616226 222.16644 
L 98.997156 223.343002 
L 99.378087 222.83882 
L 99.759018 220.700707 
L 100.520879 213.314732 
L 101.28274 206.045735 
L 101.663671 203.768153 
L 102.044602 202.771622 
L 102.425533 203.163565 
L 102.806463 204.906963 
L 103.568325 211.568002 
L 104.330186 219.515359 
L 104.711117 222.468035 
L 105.092048 223.964152 
L 105.472978 223.74014 
L 105.853909 221.793027 
L 106.61577 214.15682 
L 107.758563 201.718939 
L 108.139493 199.209997 
L 108.520424 197.96676 
L 108.901355 198.072539 
L 109.282285 199.5016 
L 109.663216 202.154203 
L 110.425078 210.19629 
L 111.186939 219.143864 
L 111.56787 222.577636 
L 111.9488 224.583191 
L 112.329731 224.802561 
L 112.710662 223.176514 
L 113.091592 219.919544 
L 113.853454 210.355692 
L 114.615315 200.359459 
L 115.377177 193.358358 
L 115.758107 191.59344 
L 116.139038 191.133507 
L 116.519969 191.989577 
L 116.9009 194.121662 
L 117.28183 197.432535 
L 118.043692 206.778844 
L 119.186484 221.708399 
L 119.567415 224.733419 
L 119.948345 225.913173 
L 120.329276 225.01988 
L 120.710207 222.123178 
L 121.472068 211.827631 
L 122.995791 188.42841 
L 123.376722 184.476947 
L 123.757652 181.733819 
L 124.138583 180.293208 
L 124.519514 180.183557 
L 124.900444 181.422043 
L 125.281375 183.995369 
L 125.662306 187.84995 
L 126.424167 198.852969 
L 127.94789 223.399712 
L 128.328821 226.375343 
L 128.709752 226.821241 
L 129.090682 224.516984 
L 129.471613 219.648629 
L 130.233474 204.59093 
L 131.376266 179.645925 
L 132.138128 167.425397 
L 132.519059 163.286364 
L 132.899989 160.565567 
L 133.28092 159.304239 
L 133.661851 159.539772 
L 134.042781 161.31581 
L 134.423712 164.682224 
L 134.804643 169.68249 
L 135.566504 184.476516 
L 137.090227 222.244686 
L 137.471158 227.222607 
L 137.852089 227.467865 
L 138.233019 222.348577 
L 138.61395 212.388769 
L 140.899534 134.97778 
L 141.661396 121.731849 
L 142.042326 117.94649 
L 142.423257 115.994297 
L 142.804188 115.933862 
L 143.185118 117.939561 
L 143.566049 122.373352 
L 143.94698 129.836633 
L 144.327911 141.227412 
L 144.708841 157.681911 
L 145.851633 226.532006 
L 146.232564 222.4531 
L 146.613495 187.641913 
L 147.375356 105.205475 
L 147.756287 80.246104 
L 148.137218 64.411878 
L 148.518148 54.390296 
L 148.899079 47.921341 
L 149.28001 43.63346 
L 149.660941 40.712973 
L 150.422802 37.212765 
L 151.184663 35.356382 
L 151.946525 34.295377 
L 152.708386 33.652828 
L 153.851178 33.096739 
L 155.374901 32.72124 
L 157.660485 32.472531 
L 161.469792 32.327692 
L 170.61213 32.259765 
L 186.611219 32.345129 
L 192.32518 32.555187 
L 195.372626 32.861547 
L 197.277279 33.237972 
L 198.801002 33.74943 
L 199.943794 34.350615 
L 201.086586 35.263804 
L 201.848448 36.14526 
L 202.610309 37.358339 
L 203.37217 39.059983 
L 204.134032 41.494583 
L 204.895893 45.058126 
L 205.657755 50.410154 
L 206.419616 58.649558 
L 207.181478 71.595968 
L 207.943339 92.026948 
L 208.7052 123.207122 
L 210.609854 221.680731 
L 210.990785 228.349772 
L 211.371715 227.495059 
L 211.752646 220.762461 
L 212.514507 198.575308 
L 213.6573 165.403448 
L 214.419161 149.126998 
L 215.181022 137.436482 
L 215.942884 129.41949 
L 216.704745 124.237285 
L 217.466607 121.293612 
L 217.847537 120.528988 
L 218.228468 120.185127 
L 218.609399 120.233826 
L 218.99033 120.653258 
L 219.37126 121.424647 
L 220.133122 123.982098 
L 220.894983 127.850015 
L 221.656844 133.00618 
L 222.418706 139.44098 
L 223.561498 151.416257 
L 224.70429 165.903249 
L 228.513597 217.11588 
L 229.275459 223.394229 
L 229.656389 225.567712 
L 230.03732 227.058449 
L 230.418251 227.86274 
L 230.799182 227.997263 
L 231.180112 227.498192 
L 231.561043 226.415413 
L 232.322904 222.753214 
L 233.084766 217.576246 
L 234.608489 204.941409 
L 236.513142 189.241906 
L 237.655934 181.316451 
L 238.798726 174.909367 
L 239.941519 170.078347 
L 240.70338 167.714594 
L 241.465241 166.009988 
L 242.227103 164.937758 
L 242.608033 164.629826 
L 242.988964 164.469357 
L 243.369895 164.453038 
L 243.750826 164.577628 
L 244.512687 165.23689 
L 245.274548 166.422276 
L 246.03641 168.107562 
L 246.798271 170.266216 
L 247.941063 174.331675 
L 249.083856 179.288322 
L 250.607578 187.019931 
L 253.274093 202.228544 
L 255.178747 212.66829 
L 256.321539 218.016263 
L 257.464331 222.286651 
L 258.226193 224.412921 
L 258.988054 225.908858 
L 259.749915 226.753857 
L 260.130846 226.932669 
L 260.511777 226.952296 
L 260.892708 226.816975 
L 261.273638 226.532563 
L 262.0355 225.544099 
L 262.797361 224.051671 
L 263.940153 221.036254 
L 265.463876 216.002476 
L 270.796906 197.102679 
L 272.320629 192.890873 
L 273.463421 190.300771 
L 274.606213 188.227032 
L 275.749005 186.680021 
L 276.510867 185.941226 
L 277.272728 185.433595 
L 278.034589 185.153241 
L 278.796451 185.09533 
L 279.558312 185.254087 
L 280.320174 185.622546 
L 281.082035 186.193061 
L 282.224827 187.409973 
L 283.367619 189.032083 
L 284.510411 191.02208 
L 286.034134 194.176135 
L 287.938788 198.760253 
L 290.605303 205.882247 
L 294.033679 214.937724 
L 295.557402 218.443526 
L 297.081125 221.393948 
L 298.223917 223.163066 
L 299.366709 224.50557 
L 300.128571 225.150574 
L 300.890432 225.591519 
L 301.652293 225.828295 
L 302.414155 225.863955 
L 303.176016 225.704605 
L 303.937878 225.359153 
L 305.08067 224.51693 
L 306.223462 223.32714 
L 307.747185 221.292879 
L 309.651838 218.220725 
L 312.699284 212.697827 
L 316.12766 206.589596 
L 318.032314 203.586371 
L 319.936967 201.001986 
L 321.46069 199.281371 
L 322.984413 197.89292 
L 324.508136 196.847704 
L 325.650928 196.291421 
L 326.79372 195.929357 
L 327.936512 195.758818 
L 329.079304 195.775649 
L 330.222097 195.974107 
L 331.745819 196.509391 
L 333.269542 197.336348 
L 334.793265 198.431593 
L 336.697919 200.138925 
L 338.602572 202.167059 
L 340.888156 204.932768 
L 344.316533 209.492994 
L 349.268632 216.088034 
L 351.554216 218.786124 
L 353.45887 220.736358 
L 355.363523 222.351368 
L 356.887246 223.371013 
L 358.410969 224.13122 
L 359.934692 224.623715 
L 361.458415 224.847244 
L 362.982137 224.807763 
L 363.363068 224.75809 
L 363.363068 224.75809 
" style="fill:none;stroke:#d62728;stroke-linecap:square;stroke-width:1.5;"/>
   </g>
   <g id="line2d_20">
    <path clip-path="url(#paf7a95a130)" d="M 58.999432 32.201762 
L 62.046877 32.202289 
L 62.427808 32.7301 
L 62.808739 207.422144 
L 63.5706 84.949619 
L 63.951531 180.385648 
L 64.332462 121.686133 
L 64.713392 157.805341 
L 65.094323 144.184609 
L 65.475254 171.552768 
L 65.856185 146.501222 
L 66.237115 199.545651 
L 66.618046 143.400034 
L 66.998977 222.395975 
L 67.379907 155.67587 
L 67.760838 173.420254 
L 68.141769 212.049879 
L 68.5227 153.882251 
L 68.90363 198.570834 
L 69.284561 197.663294 
L 69.665492 159.313225 
L 70.046422 210.129742 
L 70.427353 193.068997 
L 70.808284 163.170757 
L 71.189215 202.917246 
L 71.570145 209.891978 
L 71.951076 167.373871 
L 72.332007 185.5655 
L 72.712937 222.131017 
L 73.093868 181.149091 
L 73.474799 171.231923 
L 73.855729 212.346025 
L 74.23666 206.454427 
L 74.617591 170.926252 
L 74.998522 180.417326 
L 75.379452 219.204758 
L 75.760383 201.10759 
L 76.141314 169.200544 
L 76.522244 181.126313 
L 76.903175 219.313972 
L 77.284106 201.07113 
L 77.665037 167.383778 
L 78.045967 175.515332 
L 78.426898 213.98707 
L 78.807829 209.686134 
L 79.188759 168.28024 
L 79.56969 159.262596 
L 80.331552 221.431916 
L 81.093413 139.958813 
L 81.474344 150.881855 
L 81.855274 211.771889 
L 82.236205 172.414344 
L 82.617136 87.541775 
L 82.998066 59.701695 
L 83.378997 51.017619 
L 83.759928 49.067105 
L 84.140859 51.36864 
L 84.521789 59.393367 
L 84.90272 79.540559 
L 85.283651 125.79923 
L 85.664581 194.466167 
L 86.045512 224.495886 
L 86.426443 222.633775 
L 86.807374 222.89205 
L 87.188304 226.992235 
L 87.569235 227.411614 
L 87.950166 224.118499 
L 88.331096 222.019785 
L 88.712027 222.430132 
L 89.092958 222.536481 
L 89.854819 218.140289 
L 90.23575 218.257803 
L 90.997611 222.60655 
L 91.378542 220.809428 
L 92.140403 212.971013 
L 92.521334 213.810365 
L 93.283196 222.353715 
L 93.664126 221.830621 
L 94.425988 211.111575 
L 94.806918 209.199114 
L 95.187849 212.360388 
L 95.56878 218.492701 
L 95.949711 222.819482 
L 96.330641 221.355849 
L 97.092503 208.635985 
L 97.473433 206.447461 
L 97.854364 209.594431 
L 98.616226 222.235192 
L 98.997156 222.737837 
L 99.378087 217.188626 
L 99.759018 209.562614 
L 100.139948 204.628344 
L 100.520879 204.977583 
L 100.90181 210.466276 
L 101.28274 218.112472 
L 101.663671 223.275526 
L 102.044602 222.188031 
L 103.187394 202.406676 
L 103.568325 202.637399 
L 103.949255 208.030907 
L 104.711117 222.803637 
L 105.092048 223.482447 
L 105.472978 217.755358 
L 106.23484 202.024706 
L 106.61577 199.42374 
L 106.996701 202.204961 
L 108.139493 223.916338 
L 108.520424 223.0775 
L 108.901355 216.119157 
L 109.663216 199.569696 
L 110.044147 196.712002 
L 110.425078 199.14263 
L 110.806008 206.192484 
L 111.56787 223.018009 
L 111.9488 224.596904 
L 112.329731 219.135811 
L 113.091592 200.409263 
L 113.472523 194.602904 
L 113.853454 193.75857 
L 114.234385 198.080808 
L 115.377177 223.935509 
L 115.758107 224.783334 
L 116.139038 218.417809 
L 116.9009 198.017944 
L 117.28183 191.299451 
L 117.662761 189.431893 
L 118.043692 192.772024 
L 118.424622 200.73365 
L 119.186484 221.305122 
L 119.567415 225.843429 
L 119.948345 222.458126 
L 121.472068 185.157917 
L 121.852999 184.436511 
L 122.233929 188.955269 
L 122.61486 198.10166 
L 123.376722 221.036803 
L 123.757652 226.329716 
L 124.138583 222.94575 
L 124.900444 199.000863 
L 125.281375 187.225144 
L 125.662306 179.531076 
L 126.043237 176.96872 
L 126.424167 179.830416 
L 126.805098 187.931012 
L 127.94789 224.516047 
L 128.328821 226.399422 
L 128.709752 218.236827 
L 129.852544 176.124812 
L 130.233474 168.874137 
L 130.614405 167.186959 
L 130.995336 171.238236 
L 131.376266 180.96913 
L 132.519059 224.677124 
L 132.899989 226.639579 
L 133.28092 215.874103 
L 134.423712 164.347276 
L 134.804643 155.576854 
L 135.185574 152.900091 
L 135.566504 156.42802 
L 135.947435 166.43384 
L 136.709296 203.844095 
L 137.090227 222.391932 
L 137.471158 227.457667 
L 137.852089 213.777106 
L 138.994881 146.730346 
L 139.375811 135.982757 
L 139.756742 132.217344 
L 140.137673 135.424161 
L 140.518604 146.461874 
L 140.899534 166.792293 
L 141.661396 223.068506 
L 142.042326 224.595222 
L 143.566049 111.084431 
L 143.94698 103.490393 
L 144.327911 103.985747 
L 144.708841 113.932124 
L 145.089772 138.624627 
L 145.851633 228.649957 
L 146.232564 183.643001 
L 146.613495 117.570215 
L 146.994426 83.490051 
L 147.375356 69.171228 
L 147.756287 65.694935 
L 148.137218 73.958509 
L 148.899079 180.544449 
L 149.28001 49.632911 
L 149.660941 36.039989 
L 150.041871 33.454965 
L 150.422802 32.707259 
L 150.803733 32.435083 
L 151.565594 32.265953 
L 153.851178 32.205767 
L 189.658665 32.201896 
L 201.086586 32.297983 
L 202.229378 32.509535 
L 202.610309 32.680233 
L 202.99124 32.973121 
L 203.37217 33.503197 
L 203.753101 34.531149 
L 204.134032 36.711438 
L 204.514963 41.985885 
L 204.895893 57.358326 
L 205.276824 112.647149 
L 205.657755 227.130731 
L 206.419616 102.347665 
L 206.800547 80.399322 
L 207.181478 71.450835 
L 207.562408 68.17483 
L 207.943339 68.194778 
L 208.32427 70.817325 
L 208.7052 76.149945 
L 209.086131 84.877699 
L 209.467062 98.267273 
L 209.847993 118.116265 
L 210.609854 180.87646 
L 210.990785 213.673266 
L 211.371715 228.737739 
L 211.752646 219.327747 
L 212.895438 148.933544 
L 213.276369 133.178402 
L 213.6573 122.033607 
L 214.03823 114.504983 
L 214.419161 109.791726 
L 214.800092 107.342764 
L 215.181022 106.817691 
L 215.561953 108.034666 
L 215.942884 110.940379 
L 216.323815 115.581053 
L 216.704745 122.076152 
L 217.466607 141.259842 
L 218.228468 168.985515 
L 219.37126 215.074198 
L 219.752191 224.708337 
L 220.133122 228.437587 
L 220.514052 225.963702 
L 220.894983 218.381551 
L 223.180567 155.145718 
L 223.942429 144.001376 
L 224.323359 140.536913 
L 224.70429 138.334274 
L 225.085221 137.306493 
L 225.466152 137.389391 
L 225.847082 138.541125 
L 226.228013 140.739112 
L 226.608944 143.974951 
L 227.370805 153.532983 
L 228.132667 167.087478 
L 229.275459 193.013173 
L 230.418251 217.818718 
L 230.799182 223.423242 
L 231.180112 226.89154 
L 231.561043 227.988852 
L 231.941974 226.73183 
L 232.322904 223.376253 
L 233.084766 212.170826 
L 234.989419 179.104952 
L 235.751281 169.450988 
L 236.513142 162.797595 
L 236.894073 160.588879 
L 237.275004 159.102501 
L 237.655934 158.318373 
L 238.036865 158.217208 
L 238.417796 158.779936 
L 238.798726 159.990714 
L 239.179657 161.834575 
L 239.941519 167.354982 
L 240.70338 175.156517 
L 241.846172 190.292058 
L 243.750826 217.097393 
L 244.512687 224.260778 
L 244.893618 226.37304 
L 245.274548 227.378661 
L 245.655479 227.260836 
L 246.03641 226.069771 
L 246.417341 223.911512 
L 247.179202 217.316214 
L 248.702925 199.976144 
L 249.845717 187.872243 
L 250.607578 181.479624 
L 251.36944 176.732565 
L 252.131301 173.71071 
L 252.512232 172.847609 
L 252.893163 172.41078 
L 253.274093 172.393772 
L 253.655024 172.787937 
L 254.035955 173.584422 
L 254.416885 174.772885 
L 255.178747 178.274704 
L 255.940608 183.16229 
L 257.0834 192.633011 
L 260.130846 220.380985 
L 260.892708 224.642069 
L 261.273638 225.976233 
L 261.654569 226.73289 
L 262.0355 226.901013 
L 262.41643 226.49049 
L 262.797361 225.531 
L 263.178292 224.069515 
L 263.940153 219.893096 
L 265.082945 211.610329 
L 266.987599 197.064235 
L 268.130391 190.037006 
L 268.892252 186.501908 
L 269.654114 183.988869 
L 270.415975 182.528656 
L 270.796906 182.194331 
L 271.177837 182.121308 
L 271.558767 182.3061 
L 271.939698 182.744066 
L 272.320629 183.429406 
L 273.08249 185.5104 
L 273.844352 188.476668 
L 274.987144 194.354853 
L 276.510867 204.024818 
L 278.41552 216.392959 
L 279.558312 222.19234 
L 280.320174 224.793168 
L 280.701104 225.638847 
L 281.082035 226.162781 
L 281.462966 226.359777 
L 281.843896 226.232076 
L 282.224827 225.789139 
L 282.605758 225.047106 
L 283.367619 222.758661 
L 284.129481 219.595497 
L 285.272273 213.801097 
L 287.938788 199.784373 
L 289.08158 195.064924 
L 289.843441 192.618473 
L 290.605303 190.791697 
L 291.367164 189.610092 
L 291.748095 189.264369 
L 292.129026 189.081639 
L 292.509956 189.060774 
L 292.890887 189.199915 
L 293.271818 189.496499 
L 294.033679 190.548253 
L 294.795541 192.18137 
L 295.557402 194.348051 
L 296.700194 198.460801 
L 298.223917 205.110913 
L 300.890432 217.292921 
L 302.033224 221.484842 
L 302.795085 223.592999 
L 303.556947 225.032795 
L 303.937878 225.481988 
L 304.318808 225.744963 
L 304.699739 225.820854 
L 305.08067 225.711551 
L 305.4616 225.421607 
L 306.223462 224.330276 
L 306.985323 222.629325 
L 308.128115 219.177496 
L 309.651838 213.558405 
L 312.318353 203.606894 
L 313.461145 200.093931 
L 314.603937 197.315725 
L 315.365799 195.92572 
L 316.12766 194.926951 
L 316.889522 194.328309 
L 317.651383 194.131244 
L 318.413245 194.330481 
L 319.175106 194.914658 
L 319.936967 195.867015 
L 320.698829 197.164907 
L 321.841621 199.695185 
L 322.984413 202.811335 
L 324.889067 208.865337 
L 327.555582 217.512601 
L 328.698374 220.625708 
L 329.841166 223.060319 
L 330.603027 224.220671 
L 331.364889 224.970249 
L 332.12675 225.291358 
L 332.888611 225.182837 
L 333.650473 224.659866 
L 334.412334 223.752458 
L 335.174196 222.502715 
L 336.316988 220.100921 
L 337.840711 216.226325 
L 341.650018 206.037444 
L 343.173741 202.72661 
L 344.316533 200.757249 
L 345.459325 199.291193 
L 346.221186 198.609727 
L 346.983048 198.170774 
L 347.744909 197.975522 
L 348.506771 198.022077 
L 349.268632 198.305436 
L 350.030493 198.818204 
L 350.792355 199.550255 
L 351.935147 201.030871 
L 353.077939 202.920812 
L 354.601662 205.958611 
L 356.887246 211.208644 
L 359.934692 218.195515 
L 361.458415 221.081323 
L 362.601207 222.780021 
L 363.363068 223.646407 
L 363.363068 223.646407 
" style="fill:none;stroke:#9467bd;stroke-linecap:square;stroke-width:1.5;"/>
   </g>
   <g id="patch_3">
    <path d="M 43.78125 239.758125 
L 43.78125 22.318125 
" style="fill:none;stroke:#000000;stroke-linecap:square;stroke-linejoin:miter;stroke-width:0.8;"/>
   </g>
   <g id="patch_4">
    <path d="M 378.58125 239.758125 
L 378.58125 22.318125 
" style="fill:none;stroke:#000000;stroke-linecap:square;stroke-linejoin:miter;stroke-width:0.8;"/>
   </g>
   <g id="patch_5">
    <path d="M 43.78125 239.758125 
L 378.58125 239.758125 
" style="fill:none;stroke:#000000;stroke-linecap:square;stroke-linejoin:miter;stroke-width:0.8;"/>
   </g>
   <g id="patch_6">
    <path d="M 43.78125 22.318125 
L 378.58125 22.318125 
" style="fill:none;stroke:#000000;stroke-linecap:square;stroke-linejoin:miter;stroke-width:0.8;"/>
   </g>
   <g id="text_18">
    <!-- Buildup of a high reflector -->
    <defs>
     <path d="M 19.671875 34.8125 
L 19.671875 8.109375 
L 35.5 8.109375 
Q 43.453125 8.109375 47.28125 11.40625 
Q 51.125 14.703125 51.125 21.484375 
Q 51.125 28.328125 47.28125 31.5625 
Q 43.453125 34.8125 35.5 34.8125 
z
M 19.671875 64.796875 
L 19.671875 42.828125 
L 34.28125 42.828125 
Q 41.5 42.828125 45.03125 45.53125 
Q 48.578125 48.25 48.578125 53.8125 
Q 48.578125 59.328125 45.03125 62.0625 
Q 41.5 64.796875 34.28125 64.796875 
z
M 9.8125 72.90625 
L 35.015625 72.90625 
Q 46.296875 72.90625 52.390625 68.21875 
Q 58.5 63.53125 58.5 54.890625 
Q 58.5 48.1875 55.375 44.234375 
Q 52.25 40.28125 46.1875 39.3125 
Q 53.46875 37.75 57.5 32.78125 
Q 61.53125 27.828125 61.53125 20.40625 
Q 61.53125 10.640625 54.890625 5.3125 
Q 48.25 0 35.984375 0 
L 9.8125 0 
z
" id="DejaVuSans-66"/>
     <path d="M 8.5 21.578125 
L 8.5 54.6875 
L 17.484375 54.6875 
L 17.484375 21.921875 
Q 17.484375 14.15625 20.5 10.265625 
Q 23.53125 6.390625 29.59375 6.390625 
Q 36.859375 6.390625 41.078125 11.03125 
Q 45.3125 15.671875 45.3125 23.6875 
L 45.3125 54.6875 
L 54.296875 54.6875 
L 54.296875 0 
L 45.3125 0 
L 45.3125 8.40625 
Q 42.046875 3.421875 37.71875 1 
Q 33.40625 -1.421875 27.6875 -1.421875 
Q 18.265625 -1.421875 13.375 4.4375 
Q 8.5 10.296875 8.5 21.578125 
z
M 31.109375 56 
z
" id="DejaVuSans-117"/>
     <path d="M 9.421875 54.6875 
L 18.40625 54.6875 
L 18.40625 0 
L 9.421875 0 
z
M 9.421875 75.984375 
L 18.40625 75.984375 
L 18.40625 64.59375 
L 9.421875 64.59375 
z
" id="DejaVuSans-105"/>
     <path d="M 45.40625 46.390625 
L 45.40625 75.984375 
L 54.390625 75.984375 
L 54.390625 0 
L 45.40625 0 
L 45.40625 8.203125 
Q 42.578125 3.328125 38.25 0.953125 
Q 33.9375 -1.421875 27.875 -1.421875 
Q 17.96875 -1.421875 11.734375 6.484375 
Q 5.515625 14.40625 5.515625 27.296875 
Q 5.515625 40.1875 11.734375 48.09375 
Q 17.96875 56 27.875 56 
Q 33.9375 56 38.25 53.625 
Q 42.578125 51.265625 45.40625 46.390625 
z
M 14.796875 27.296875 
Q 14.796875 17.390625 18.875 11.75 
Q 22.953125 6.109375 30.078125 6.109375 
Q 37.203125 6.109375 41.296875 11.75 
Q 45.40625 17.390625 45.40625 27.296875 
Q 45.40625 37.203125 41.296875 42.84375 
Q 37.203125 48.484375 30.078125 48.484375 
Q 22.953125 48.484375 18.875 42.84375 
Q 14.796875 37.203125 14.796875 27.296875 
z
" id="DejaVuSans-100"/>
     <path d="M 18.109375 8.203125 
L 18.109375 -20.796875 
L 9.078125 -20.796875 
L 9.078125 54.6875 
L 18.109375 54.6875 
L 18.109375 46.390625 
Q 20.953125 51.265625 25.265625 53.625 
Q 29.59375 56 35.59375 56 
Q 45.5625 56 51.78125 48.09375 
Q 58.015625 40.1875 58.015625 27.296875 
Q 58.015625 14.40625 51.78125 6.484375 
Q 45.5625 -1.421875 35.59375 -1.421875 
Q 29.59375 -1.421875 25.265625 0.953125 
Q 20.953125 3.328125 18.109375 8.203125 
z
M 48.6875 27.296875 
Q 48.6875 37.203125 44.609375 42.84375 
Q 40.53125 48.484375 33.40625 48.484375 
Q 26.265625 48.484375 22.1875 42.84375 
Q 18.109375 37.203125 18.109375 27.296875 
Q 18.109375 17.390625 22.1875 11.75 
Q 26.265625 6.109375 33.40625 6.109375 
Q 40.53125 6.109375 44.609375 11.75 
Q 48.6875 17.390625 48.6875 27.296875 
z
" id="DejaVuSans-112"/>
     <path d="M 30.609375 48.390625 
Q 23.390625 48.390625 19.1875 42.75 
Q 14.984375 37.109375 14.984375 27.296875 
Q 14.984375 17.484375 19.15625 11.84375 
Q 23.34375 6.203125 30.609375 6.203125 
Q 37.796875 6.203125 41.984375 11.859375 
Q 46.1875 17.53125 46.1875 27.296875 
Q 46.1875 37.015625 41.984375 42.703125 
Q 37.796875 48.390625 30.609375 48.390625 
z
M 30.609375 56 
Q 42.328125 56 49.015625 48.375 
Q 55.71875 40.765625 55.71875 27.296875 
Q 55.71875 13.875 49.015625 6.21875 
Q 42.328125 -1.421875 30.609375 -1.421875 
Q 18.84375 -1.421875 12.171875 6.21875 
Q 5.515625 13.875 5.515625 27.296875 
Q 5.515625 40.765625 12.171875 48.375 
Q 18.84375 56 30.609375 56 
z
" id="DejaVuSans-111"/>
     <path d="M 41.109375 46.296875 
Q 39.59375 47.171875 37.8125 47.578125 
Q 36.03125 48 33.890625 48 
Q 26.265625 48 22.1875 43.046875 
Q 18.109375 38.09375 18.109375 28.8125 
L 18.109375 0 
L 9.078125 0 
L 9.078125 54.6875 
L 18.109375 54.6875 
L 18.109375 46.1875 
Q 20.953125 51.171875 25.484375 53.578125 
Q 30.03125 56 36.53125 56 
Q 37.453125 56 38.578125 55.875 
Q 39.703125 55.765625 41.0625 55.515625 
z
" id="DejaVuSans-114"/>
    </defs>
    <g transform="translate(133.055625 16.318125)scale(0.12 -0.12)">
     <use xlink:href="#DejaVuSans-66"/>
     <use x="68.603516" xlink:href="#DejaVuSans-117"/>
     <use x="131.982422" xlink:href="#DejaVuSans-105"/>
     <use x="159.765625" xlink:href="#DejaVuSans-108"/>
     <use x="187.548828" xlink:href="#DejaVuSans-100"/>
     <use x="251.025391" xlink:href="#DejaVuSans-117"/>
     <use x="314.404297" xlink:href="#DejaVuSans-112"/>
     <use x="377.880859" xlink:href="#DejaVuSans-32"/>
     <use x="409.667969" xlink:href="#DejaVuSans-111"/>
     <use x="470.849609" xlink:href="#DejaVuSans-102"/>
     <use x="506.054688" xlink:href="#DejaVuSans-32"/>
     <use x="537.841797" xlink:href="#DejaVuSans-97"/>
     <use x="599.121094" xlink:href="#DejaVuSans-32"/>
     <use x="630.908203" xlink:href="#DejaVuSans-104"/>
     <use x="694.287109" xlink:href="#DejaVuSans-105"/>
     <use x="722.070312" xlink:href="#DejaVuSans-103"/>
     <use x="785.546875" xlink:href="#DejaVuSans-104"/>
     <use x="848.925781" xlink:href="#DejaVuSans-32"/>
     <use x="880.712891" xlink:href="#DejaVuSans-114"/>
     <use x="919.576172" xlink:href="#DejaVuSans-101"/>
     <use x="981.099609" xlink:href="#DejaVuSans-102"/>
     <use x="1016.304688" xlink:href="#DejaVuSans-108"/>
     <use x="1044.087891" xlink:href="#DejaVuSans-101"/>
     <use x="1105.611328" xlink:href="#DejaVuSans-99"/>
     <use x="1160.591797" xlink:href="#DejaVuSans-116"/>
     <use x="1199.800781" xlink:href="#DejaVuSans-111"/>
     <use x="1260.982422" xlink:href="#DejaVuSans-114"/>
    </g>
   </g>
   <g id="legend_1">
    <g id="patch_7">
     <path d="M 310.585938 103.70875 
L 371.58125 103.70875 
Q 373.58125 103.70875 373.58125 101.70875 
L 373.58125 29.318125 
Q 373.58125 27.318125 371.58125 27.318125 
L 310.585938 27.318125 
Q 308.585938 27.318125 308.585938 29.318125 
L 308.585938 101.70875 
Q 308.585938 103.70875 310.585938 103.70875 
z
" style="fill:#ffffff;opacity:0.8;stroke:#cccccc;stroke-linejoin:miter;"/>
    </g>
    <g id="line2d_21">
     <path d="M 312.585938 35.416562 
L 332.585938 35.416562 
" style="fill:none;stroke:#1f77b4;stroke-linecap:square;stroke-width:1.5;"/>
    </g>
    <g id="line2d_22"/>
    <g id="text_19">
     <!-- 2 LH -->
     <defs>
      <path d="M 9.8125 72.90625 
L 19.671875 72.90625 
L 19.671875 8.296875 
L 55.171875 8.296875 
L 55.171875 0 
L 9.8125 0 
z
" id="DejaVuSans-76"/>
      <path d="M 9.8125 72.90625 
L 19.671875 72.90625 
L 19.671875 43.015625 
L 55.515625 43.015625 
L 55.515625 72.90625 
L 65.375 72.90625 
L 65.375 0 
L 55.515625 0 
L 55.515625 34.71875 
L 19.671875 34.71875 
L 19.671875 0 
L 9.8125 0 
z
" id="DejaVuSans-72"/>
     </defs>
     <g transform="translate(340.585938 38.916562)scale(0.1 -0.1)">
      <use xlink:href="#DejaVuSans-50"/>
      <use x="63.623047" xlink:href="#DejaVuSans-32"/>
      <use x="95.410156" xlink:href="#DejaVuSans-76"/>
      <use x="151.123047" xlink:href="#DejaVuSans-72"/>
     </g>
    </g>
    <g id="line2d_23">
     <path d="M 312.585938 50.094687 
L 332.585938 50.094687 
" style="fill:none;stroke:#ff7f0e;stroke-linecap:square;stroke-width:1.5;"/>
    </g>
    <g id="line2d_24"/>
    <g id="text_20">
     <!-- 3 LH -->
     <g transform="translate(340.585938 53.594687)scale(0.1 -0.1)">
      <use xlink:href="#DejaVuSans-51"/>
      <use x="63.623047" xlink:href="#DejaVuSans-32"/>
      <use x="95.410156" xlink:href="#DejaVuSans-76"/>
      <use x="151.123047" xlink:href="#DejaVuSans-72"/>
     </g>
    </g>
    <g id="line2d_25">
     <path d="M 312.585938 64.772812 
L 332.585938 64.772812 
" style="fill:none;stroke:#2ca02c;stroke-linecap:square;stroke-width:1.5;"/>
    </g>
    <g id="line2d_26"/>
    <g id="text_21">
     <!-- 4 LH -->
     <g transform="translate(340.585938 68.272812)scale(0.1 -0.1)">
      <use xlink:href="#DejaVuSans-52"/>
      <use x="63.623047" xlink:href="#DejaVuSans-32"/>
      <use x="95.410156" xlink:href="#DejaVuSans-76"/>
      <use x="151.123047" xlink:href="#DejaVuSans-72"/>
     </g>
    </g>
    <g id="line2d_27">
     <path d="M 312.585938 79.450938 
L 332.585938 79.450938 
" style="fill:none;stroke:#d62728;stroke-linecap:square;stroke-width:1.5;"/>
    </g>
    <g id="line2d_28"/>
    <g id="text_22">
     <!-- 10 LH -->
     <g transform="translate(340.585938 82.950938)scale(0.1 -0.1)">
      <use xlink:href="#DejaVuSans-49"/>
      <use x="63.623047" xlink:href="#DejaVuSans-48"/>
      <use x="127.246094" xlink:href="#DejaVuSans-32"/>
      <use x="159.033203" xlink:href="#DejaVuSans-76"/>
      <use x="214.746094" xlink:href="#DejaVuSans-72"/>
     </g>
    </g>
    <g id="line2d_29">
     <path d="M 312.585938 94.129063 
L 332.585938 94.129063 
" style="fill:none;stroke:#9467bd;stroke-linecap:square;stroke-width:1.5;"/>
    </g>
    <g id="line2d_30"/>
    <g id="text_23">
     <!-- 20 LH -->
     <g transform="translate(340.585938 97.629063)scale(0.1 -0.1)">
      <use xlink:href="#DejaVuSans-50"/>
      <use x="63.623047" xlink:href="#DejaVuSans-48"/>
      <use x="127.246094" xlink:href="#DejaVuSans-32"/>
      <use x="159.033203" xlink:href="#DejaVuSans-76"/>
      <use x="214.746094" xlink:href="#DejaVuSans-72"/>
     </g>
    </g>
   </g>
  </g>
 </g>
 <defs>
  <clipPath id="paf7a95a130">
   <rect height="217.44" width="334.8" x="43.78125" y="22.318125"/>
  </clipPath>
 </defs>
</svg>
