<?xml version="1.0" encoding="utf-8" standalone="no"?>
<!DOCTYPE svg PUBLIC "-//W3C//DTD SVG 1.1//EN"
  "http://www.w3.org/Graphics/SVG/1.1/DTD/svg11.dtd">
<!-- Created with matplotlib (https://matplotlib.org/) -->
<svg height="262.19625pt" version="1.1" viewBox="0 0 386.318321 262.19625" width="386.318321pt" xmlns="http://www.w3.org/2000/svg" xmlns:xlink="http://www.w3.org/1999/xlink">
 <defs>
  <style type="text/css">
*{stroke-linecap:butt;stroke-linejoin:round;}
  </style>
 </defs>
 <g id="figure_1">
  <g id="patch_1">
   <path d="M 0 262.19625 
L 386.318321 262.19625 
L 386.318321 0 
L 0 0 
z
" style="fill:none;"/>
  </g>
  <g id="axes_1">
   <g id="patch_2">
    <path d="M 43.78125 224.64 
L 378.58125 224.64 
L 378.58125 7.2 
L 43.78125 7.2 
z
" style="fill:#ffffff;"/>
   </g>
   <g id="matplotlib.axis_1">
    <g id="xtick_1">
     <g id="line2d_1">
      <defs>
       <path d="M 0 0 
L 0 3.5 
" id="m12305d77ba" style="stroke:#000000;stroke-width:0.8;"/>
      </defs>
      <g>
       <use style="stroke:#000000;stroke-width:0.8;" x="58.999432" xlink:href="#m12305d77ba" y="224.64"/>
      </g>
     </g>
     <g id="text_1">
      <!-- 0 -->
      <defs>
       <path d="M 31.78125 66.40625 
Q 24.171875 66.40625 20.328125 58.90625 
Q 16.5 51.421875 16.5 36.375 
Q 16.5 21.390625 20.328125 13.890625 
Q 24.171875 6.390625 31.78125 6.390625 
Q 39.453125 6.390625 43.28125 13.890625 
Q 47.125 21.390625 47.125 36.375 
Q 47.125 51.421875 43.28125 58.90625 
Q 39.453125 66.40625 31.78125 66.40625 
z
M 31.78125 74.21875 
Q 44.046875 74.21875 50.515625 64.515625 
Q 56.984375 54.828125 56.984375 36.375 
Q 56.984375 17.96875 50.515625 8.265625 
Q 44.046875 -1.421875 31.78125 -1.421875 
Q 19.53125 -1.421875 13.0625 8.265625 
Q 6.59375 17.96875 6.59375 36.375 
Q 6.59375 54.828125 13.0625 64.515625 
Q 19.53125 74.21875 31.78125 74.21875 
z
" id="DejaVuSans-48"/>
      </defs>
      <g transform="translate(55.818182 239.238437)scale(0.1 -0.1)">
       <use xlink:href="#DejaVuSans-48"/>
      </g>
     </g>
    </g>
    <g id="xtick_2">
     <g id="line2d_2">
      <g>
       <use style="stroke:#000000;stroke-width:0.8;" x="121.11446" xlink:href="#m12305d77ba" y="224.64"/>
      </g>
     </g>
     <g id="text_2">
      <!-- 20 -->
      <defs>
       <path d="M 19.1875 8.296875 
L 53.609375 8.296875 
L 53.609375 0 
L 7.328125 0 
L 7.328125 8.296875 
Q 12.9375 14.109375 22.625 23.890625 
Q 32.328125 33.6875 34.8125 36.53125 
Q 39.546875 41.84375 41.421875 45.53125 
Q 43.3125 49.21875 43.3125 52.78125 
Q 43.3125 58.59375 39.234375 62.25 
Q 35.15625 65.921875 28.609375 65.921875 
Q 23.96875 65.921875 18.8125 64.3125 
Q 13.671875 62.703125 7.8125 59.421875 
L 7.8125 69.390625 
Q 13.765625 71.78125 18.9375 73 
Q 24.125 74.21875 28.421875 74.21875 
Q 39.75 74.21875 46.484375 68.546875 
Q 53.21875 62.890625 53.21875 53.421875 
Q 53.21875 48.921875 51.53125 44.890625 
Q 49.859375 40.875 45.40625 35.40625 
Q 44.1875 33.984375 37.640625 27.21875 
Q 31.109375 20.453125 19.1875 8.296875 
z
" id="DejaVuSans-50"/>
      </defs>
      <g transform="translate(114.75196 239.238437)scale(0.1 -0.1)">
       <use xlink:href="#DejaVuSans-50"/>
       <use x="63.623047" xlink:href="#DejaVuSans-48"/>
      </g>
     </g>
    </g>
    <g id="xtick_3">
     <g id="line2d_3">
      <g>
       <use style="stroke:#000000;stroke-width:0.8;" x="183.229487" xlink:href="#m12305d77ba" y="224.64"/>
      </g>
     </g>
     <g id="text_3">
      <!-- 40 -->
      <defs>
       <path d="M 37.796875 64.3125 
L 12.890625 25.390625 
L 37.796875 25.390625 
z
M 35.203125 72.90625 
L 47.609375 72.90625 
L 47.609375 25.390625 
L 58.015625 25.390625 
L 58.015625 17.1875 
L 47.609375 17.1875 
L 47.609375 0 
L 37.796875 0 
L 37.796875 17.1875 
L 4.890625 17.1875 
L 4.890625 26.703125 
z
" id="DejaVuSans-52"/>
      </defs>
      <g transform="translate(176.866987 239.238437)scale(0.1 -0.1)">
       <use xlink:href="#DejaVuSans-52"/>
       <use x="63.623047" xlink:href="#DejaVuSans-48"/>
      </g>
     </g>
    </g>
    <g id="xtick_4">
     <g id="line2d_4">
      <g>
       <use style="stroke:#000000;stroke-width:0.8;" x="245.344515" xlink:href="#m12305d77ba" y="224.64"/>
      </g>
     </g>
     <g id="text_4">
      <!-- 60 -->
      <defs>
       <path d="M 33.015625 40.375 
Q 26.375 40.375 22.484375 35.828125 
Q 18.609375 31.296875 18.609375 23.390625 
Q 18.609375 15.53125 22.484375 10.953125 
Q 26.375 6.390625 33.015625 6.390625 
Q 39.65625 6.390625 43.53125 10.953125 
Q 47.40625 15.53125 47.40625 23.390625 
Q 47.40625 31.296875 43.53125 35.828125 
Q 39.65625 40.375 33.015625 40.375 
z
M 52.59375 71.296875 
L 52.59375 62.3125 
Q 48.875 64.0625 45.09375 64.984375 
Q 41.3125 65.921875 37.59375 65.921875 
Q 27.828125 65.921875 22.671875 59.328125 
Q 17.53125 52.734375 16.796875 39.40625 
Q 19.671875 43.65625 24.015625 45.921875 
Q 28.375 48.1875 33.59375 48.1875 
Q 44.578125 48.1875 50.953125 41.515625 
Q 57.328125 34.859375 57.328125 23.390625 
Q 57.328125 12.15625 50.6875 5.359375 
Q 44.046875 -1.421875 33.015625 -1.421875 
Q 20.359375 -1.421875 13.671875 8.265625 
Q 6.984375 17.96875 6.984375 36.375 
Q 6.984375 53.65625 15.1875 63.9375 
Q 23.390625 74.21875 37.203125 74.21875 
Q 40.921875 74.21875 44.703125 73.484375 
Q 48.484375 72.75 52.59375 71.296875 
z
" id="DejaVuSans-54"/>
      </defs>
      <g transform="translate(238.982015 239.238437)scale(0.1 -0.1)">
       <use xlink:href="#DejaVuSans-54"/>
       <use x="63.623047" xlink:href="#DejaVuSans-48"/>
      </g>
     </g>
    </g>
    <g id="xtick_5">
     <g id="line2d_5">
      <g>
       <use style="stroke:#000000;stroke-width:0.8;" x="307.459543" xlink:href="#m12305d77ba" y="224.64"/>
      </g>
     </g>
     <g id="text_5">
      <!-- 80 -->
      <defs>
       <path d="M 31.78125 34.625 
Q 24.75 34.625 20.71875 30.859375 
Q 16.703125 27.09375 16.703125 20.515625 
Q 16.703125 13.921875 20.71875 10.15625 
Q 24.75 6.390625 31.78125 6.390625 
Q 38.8125 6.390625 42.859375 10.171875 
Q 46.921875 13.96875 46.921875 20.515625 
Q 46.921875 27.09375 42.890625 30.859375 
Q 38.875 34.625 31.78125 34.625 
z
M 21.921875 38.8125 
Q 15.578125 40.375 12.03125 44.71875 
Q 8.5 49.078125 8.5 55.328125 
Q 8.5 64.0625 14.71875 69.140625 
Q 20.953125 74.21875 31.78125 74.21875 
Q 42.671875 74.21875 48.875 69.140625 
Q 55.078125 64.0625 55.078125 55.328125 
Q 55.078125 49.078125 51.53125 44.71875 
Q 48 40.375 41.703125 38.8125 
Q 48.828125 37.15625 52.796875 32.3125 
Q 56.78125 27.484375 56.78125 20.515625 
Q 56.78125 9.90625 50.3125 4.234375 
Q 43.84375 -1.421875 31.78125 -1.421875 
Q 19.734375 -1.421875 13.25 4.234375 
Q 6.78125 9.90625 6.78125 20.515625 
Q 6.78125 27.484375 10.78125 32.3125 
Q 14.796875 37.15625 21.921875 38.8125 
z
M 18.3125 54.390625 
Q 18.3125 48.734375 21.84375 45.5625 
Q 25.390625 42.390625 31.78125 42.390625 
Q 38.140625 42.390625 41.71875 45.5625 
Q 45.3125 48.734375 45.3125 54.390625 
Q 45.3125 60.0625 41.71875 63.234375 
Q 38.140625 66.40625 31.78125 66.40625 
Q 25.390625 66.40625 21.84375 63.234375 
Q 18.3125 60.0625 18.3125 54.390625 
z
" id="DejaVuSans-56"/>
      </defs>
      <g transform="translate(301.097043 239.238437)scale(0.1 -0.1)">
       <use xlink:href="#DejaVuSans-56"/>
       <use x="63.623047" xlink:href="#DejaVuSans-48"/>
      </g>
     </g>
    </g>
    <g id="xtick_6">
     <g id="line2d_6">
      <g>
       <use style="stroke:#000000;stroke-width:0.8;" x="369.574571" xlink:href="#m12305d77ba" y="224.64"/>
      </g>
     </g>
     <g id="text_6">
      <!-- 100 -->
      <defs>
       <path d="M 12.40625 8.296875 
L 28.515625 8.296875 
L 28.515625 63.921875 
L 10.984375 60.40625 
L 10.984375 69.390625 
L 28.421875 72.90625 
L 38.28125 72.90625 
L 38.28125 8.296875 
L 54.390625 8.296875 
L 54.390625 0 
L 12.40625 0 
z
" id="DejaVuSans-49"/>
      </defs>
      <g transform="translate(360.030821 239.238437)scale(0.1 -0.1)">
       <use xlink:href="#DejaVuSans-49"/>
       <use x="63.623047" xlink:href="#DejaVuSans-48"/>
       <use x="127.246094" xlink:href="#DejaVuSans-48"/>
      </g>
     </g>
    </g>
    <g id="text_7">
     <!-- Number of Jones-Mueller matrices averaged -->
     <defs>
      <path d="M 9.8125 72.90625 
L 23.09375 72.90625 
L 55.421875 11.921875 
L 55.421875 72.90625 
L 64.984375 72.90625 
L 64.984375 0 
L 51.703125 0 
L 19.390625 60.984375 
L 19.390625 0 
L 9.8125 0 
z
" id="DejaVuSans-78"/>
      <path d="M 8.5 21.578125 
L 8.5 54.6875 
L 17.484375 54.6875 
L 17.484375 21.921875 
Q 17.484375 14.15625 20.5 10.265625 
Q 23.53125 6.390625 29.59375 6.390625 
Q 36.859375 6.390625 41.078125 11.03125 
Q 45.3125 15.671875 45.3125 23.6875 
L 45.3125 54.6875 
L 54.296875 54.6875 
L 54.296875 0 
L 45.3125 0 
L 45.3125 8.40625 
Q 42.046875 3.421875 37.71875 1 
Q 33.40625 -1.421875 27.6875 -1.421875 
Q 18.265625 -1.421875 13.375 4.4375 
Q 8.5 10.296875 8.5 21.578125 
z
M 31.109375 56 
z
" id="DejaVuSans-117"/>
      <path d="M 52 44.1875 
Q 55.375 50.25 60.0625 53.125 
Q 64.75 56 71.09375 56 
Q 79.640625 56 84.28125 50.015625 
Q 88.921875 44.046875 88.921875 33.015625 
L 88.921875 0 
L 79.890625 0 
L 79.890625 32.71875 
Q 79.890625 40.578125 77.09375 44.375 
Q 74.3125 48.1875 68.609375 48.1875 
Q 61.625 48.1875 57.5625 43.546875 
Q 53.515625 38.921875 53.515625 30.90625 
L 53.515625 0 
L 44.484375 0 
L 44.484375 32.71875 
Q 44.484375 40.625 41.703125 44.40625 
Q 38.921875 48.1875 33.109375 48.1875 
Q 26.21875 48.1875 22.15625 43.53125 
Q 18.109375 38.875 18.109375 30.90625 
L 18.109375 0 
L 9.078125 0 
L 9.078125 54.6875 
L 18.109375 54.6875 
L 18.109375 46.1875 
Q 21.1875 51.21875 25.484375 53.609375 
Q 29.78125 56 35.6875 56 
Q 41.65625 56 45.828125 52.96875 
Q 50 49.953125 52 44.1875 
z
" id="DejaVuSans-109"/>
      <path d="M 48.6875 27.296875 
Q 48.6875 37.203125 44.609375 42.84375 
Q 40.53125 48.484375 33.40625 48.484375 
Q 26.265625 48.484375 22.1875 42.84375 
Q 18.109375 37.203125 18.109375 27.296875 
Q 18.109375 17.390625 22.1875 11.75 
Q 26.265625 6.109375 33.40625 6.109375 
Q 40.53125 6.109375 44.609375 11.75 
Q 48.6875 17.390625 48.6875 27.296875 
z
M 18.109375 46.390625 
Q 20.953125 51.265625 25.265625 53.625 
Q 29.59375 56 35.59375 56 
Q 45.5625 56 51.78125 48.09375 
Q 58.015625 40.1875 58.015625 27.296875 
Q 58.015625 14.40625 51.78125 6.484375 
Q 45.5625 -1.421875 35.59375 -1.421875 
Q 29.59375 -1.421875 25.265625 0.953125 
Q 20.953125 3.328125 18.109375 8.203125 
L 18.109375 0 
L 9.078125 0 
L 9.078125 75.984375 
L 18.109375 75.984375 
z
" id="DejaVuSans-98"/>
      <path d="M 56.203125 29.59375 
L 56.203125 25.203125 
L 14.890625 25.203125 
Q 15.484375 15.921875 20.484375 11.0625 
Q 25.484375 6.203125 34.421875 6.203125 
Q 39.59375 6.203125 44.453125 7.46875 
Q 49.3125 8.734375 54.109375 11.28125 
L 54.109375 2.78125 
Q 49.265625 0.734375 44.1875 -0.34375 
Q 39.109375 -1.421875 33.890625 -1.421875 
Q 20.796875 -1.421875 13.15625 6.1875 
Q 5.515625 13.8125 5.515625 26.8125 
Q 5.515625 40.234375 12.765625 48.109375 
Q 20.015625 56 32.328125 56 
Q 43.359375 56 49.78125 48.890625 
Q 56.203125 41.796875 56.203125 29.59375 
z
M 47.21875 32.234375 
Q 47.125 39.59375 43.09375 43.984375 
Q 39.0625 48.390625 32.421875 48.390625 
Q 24.90625 48.390625 20.390625 44.140625 
Q 15.875 39.890625 15.1875 32.171875 
z
" id="DejaVuSans-101"/>
      <path d="M 41.109375 46.296875 
Q 39.59375 47.171875 37.8125 47.578125 
Q 36.03125 48 33.890625 48 
Q 26.265625 48 22.1875 43.046875 
Q 18.109375 38.09375 18.109375 28.8125 
L 18.109375 0 
L 9.078125 0 
L 9.078125 54.6875 
L 18.109375 54.6875 
L 18.109375 46.1875 
Q 20.953125 51.171875 25.484375 53.578125 
Q 30.03125 56 36.53125 56 
Q 37.453125 56 38.578125 55.875 
Q 39.703125 55.765625 41.0625 55.515625 
z
" id="DejaVuSans-114"/>
      <path id="DejaVuSans-32"/>
      <path d="M 30.609375 48.390625 
Q 23.390625 48.390625 19.1875 42.75 
Q 14.984375 37.109375 14.984375 27.296875 
Q 14.984375 17.484375 19.15625 11.84375 
Q 23.34375 6.203125 30.609375 6.203125 
Q 37.796875 6.203125 41.984375 11.859375 
Q 46.1875 17.53125 46.1875 27.296875 
Q 46.1875 37.015625 41.984375 42.703125 
Q 37.796875 48.390625 30.609375 48.390625 
z
M 30.609375 56 
Q 42.328125 56 49.015625 48.375 
Q 55.71875 40.765625 55.71875 27.296875 
Q 55.71875 13.875 49.015625 6.21875 
Q 42.328125 -1.421875 30.609375 -1.421875 
Q 18.84375 -1.421875 12.171875 6.21875 
Q 5.515625 13.875 5.515625 27.296875 
Q 5.515625 40.765625 12.171875 48.375 
Q 18.84375 56 30.609375 56 
z
" id="DejaVuSans-111"/>
      <path d="M 37.109375 75.984375 
L 37.109375 68.5 
L 28.515625 68.5 
Q 23.6875 68.5 21.796875 66.546875 
Q 19.921875 64.59375 19.921875 59.515625 
L 19.921875 54.6875 
L 34.71875 54.6875 
L 34.71875 47.703125 
L 19.921875 47.703125 
L 19.921875 0 
L 10.890625 0 
L 10.890625 47.703125 
L 2.296875 47.703125 
L 2.296875 54.6875 
L 10.890625 54.6875 
L 10.890625 58.5 
Q 10.890625 67.625 15.140625 71.796875 
Q 19.390625 75.984375 28.609375 75.984375 
z
" id="DejaVuSans-102"/>
      <path d="M 9.8125 72.90625 
L 19.671875 72.90625 
L 19.671875 5.078125 
Q 19.671875 -8.109375 14.671875 -14.0625 
Q 9.671875 -20.015625 -1.421875 -20.015625 
L -5.171875 -20.015625 
L -5.171875 -11.71875 
L -2.09375 -11.71875 
Q 4.4375 -11.71875 7.125 -8.046875 
Q 9.8125 -4.390625 9.8125 5.078125 
z
" id="DejaVuSans-74"/>
      <path d="M 54.890625 33.015625 
L 54.890625 0 
L 45.90625 0 
L 45.90625 32.71875 
Q 45.90625 40.484375 42.875 44.328125 
Q 39.84375 48.1875 33.796875 48.1875 
Q 26.515625 48.1875 22.3125 43.546875 
Q 18.109375 38.921875 18.109375 30.90625 
L 18.109375 0 
L 9.078125 0 
L 9.078125 54.6875 
L 18.109375 54.6875 
L 18.109375 46.1875 
Q 21.34375 51.125 25.703125 53.5625 
Q 30.078125 56 35.796875 56 
Q 45.21875 56 50.046875 50.171875 
Q 54.890625 44.34375 54.890625 33.015625 
z
" id="DejaVuSans-110"/>
      <path d="M 44.28125 53.078125 
L 44.28125 44.578125 
Q 40.484375 46.53125 36.375 47.5 
Q 32.28125 48.484375 27.875 48.484375 
Q 21.1875 48.484375 17.84375 46.4375 
Q 14.5 44.390625 14.5 40.28125 
Q 14.5 37.15625 16.890625 35.375 
Q 19.28125 33.59375 26.515625 31.984375 
L 29.59375 31.296875 
Q 39.15625 29.25 43.1875 25.515625 
Q 47.21875 21.78125 47.21875 15.09375 
Q 47.21875 7.46875 41.1875 3.015625 
Q 35.15625 -1.421875 24.609375 -1.421875 
Q 20.21875 -1.421875 15.453125 -0.5625 
Q 10.6875 0.296875 5.421875 2 
L 5.421875 11.28125 
Q 10.40625 8.6875 15.234375 7.390625 
Q 20.0625 6.109375 24.8125 6.109375 
Q 31.15625 6.109375 34.5625 8.28125 
Q 37.984375 10.453125 37.984375 14.40625 
Q 37.984375 18.0625 35.515625 20.015625 
Q 33.0625 21.96875 24.703125 23.78125 
L 21.578125 24.515625 
Q 13.234375 26.265625 9.515625 29.90625 
Q 5.8125 33.546875 5.8125 39.890625 
Q 5.8125 47.609375 11.28125 51.796875 
Q 16.75 56 26.8125 56 
Q 31.78125 56 36.171875 55.265625 
Q 40.578125 54.546875 44.28125 53.078125 
z
" id="DejaVuSans-115"/>
      <path d="M 4.890625 31.390625 
L 31.203125 31.390625 
L 31.203125 23.390625 
L 4.890625 23.390625 
z
" id="DejaVuSans-45"/>
      <path d="M 9.8125 72.90625 
L 24.515625 72.90625 
L 43.109375 23.296875 
L 61.8125 72.90625 
L 76.515625 72.90625 
L 76.515625 0 
L 66.890625 0 
L 66.890625 64.015625 
L 48.09375 14.015625 
L 38.1875 14.015625 
L 19.390625 64.015625 
L 19.390625 0 
L 9.8125 0 
z
" id="DejaVuSans-77"/>
      <path d="M 9.421875 75.984375 
L 18.40625 75.984375 
L 18.40625 0 
L 9.421875 0 
z
" id="DejaVuSans-108"/>
      <path d="M 34.28125 27.484375 
Q 23.390625 27.484375 19.1875 25 
Q 14.984375 22.515625 14.984375 16.5 
Q 14.984375 11.71875 18.140625 8.90625 
Q 21.296875 6.109375 26.703125 6.109375 
Q 34.1875 6.109375 38.703125 11.40625 
Q 43.21875 16.703125 43.21875 25.484375 
L 43.21875 27.484375 
z
M 52.203125 31.203125 
L 52.203125 0 
L 43.21875 0 
L 43.21875 8.296875 
Q 40.140625 3.328125 35.546875 0.953125 
Q 30.953125 -1.421875 24.3125 -1.421875 
Q 15.921875 -1.421875 10.953125 3.296875 
Q 6 8.015625 6 15.921875 
Q 6 25.140625 12.171875 29.828125 
Q 18.359375 34.515625 30.609375 34.515625 
L 43.21875 34.515625 
L 43.21875 35.40625 
Q 43.21875 41.609375 39.140625 45 
Q 35.0625 48.390625 27.6875 48.390625 
Q 23 48.390625 18.546875 47.265625 
Q 14.109375 46.140625 10.015625 43.890625 
L 10.015625 52.203125 
Q 14.9375 54.109375 19.578125 55.046875 
Q 24.21875 56 28.609375 56 
Q 40.484375 56 46.34375 49.84375 
Q 52.203125 43.703125 52.203125 31.203125 
z
" id="DejaVuSans-97"/>
      <path d="M 18.3125 70.21875 
L 18.3125 54.6875 
L 36.8125 54.6875 
L 36.8125 47.703125 
L 18.3125 47.703125 
L 18.3125 18.015625 
Q 18.3125 11.328125 20.140625 9.421875 
Q 21.96875 7.515625 27.59375 7.515625 
L 36.8125 7.515625 
L 36.8125 0 
L 27.59375 0 
Q 17.1875 0 13.234375 3.875 
Q 9.28125 7.765625 9.28125 18.015625 
L 9.28125 47.703125 
L 2.6875 47.703125 
L 2.6875 54.6875 
L 9.28125 54.6875 
L 9.28125 70.21875 
z
" id="DejaVuSans-116"/>
      <path d="M 9.421875 54.6875 
L 18.40625 54.6875 
L 18.40625 0 
L 9.421875 0 
z
M 9.421875 75.984375 
L 18.40625 75.984375 
L 18.40625 64.59375 
L 9.421875 64.59375 
z
" id="DejaVuSans-105"/>
      <path d="M 48.78125 52.59375 
L 48.78125 44.1875 
Q 44.96875 46.296875 41.140625 47.34375 
Q 37.3125 48.390625 33.40625 48.390625 
Q 24.65625 48.390625 19.8125 42.84375 
Q 14.984375 37.3125 14.984375 27.296875 
Q 14.984375 17.28125 19.8125 11.734375 
Q 24.65625 6.203125 33.40625 6.203125 
Q 37.3125 6.203125 41.140625 7.25 
Q 44.96875 8.296875 48.78125 10.40625 
L 48.78125 2.09375 
Q 45.015625 0.34375 40.984375 -0.53125 
Q 36.96875 -1.421875 32.421875 -1.421875 
Q 20.0625 -1.421875 12.78125 6.34375 
Q 5.515625 14.109375 5.515625 27.296875 
Q 5.515625 40.671875 12.859375 48.328125 
Q 20.21875 56 33.015625 56 
Q 37.15625 56 41.109375 55.140625 
Q 45.0625 54.296875 48.78125 52.59375 
z
" id="DejaVuSans-99"/>
      <path d="M 2.984375 54.6875 
L 12.5 54.6875 
L 29.59375 8.796875 
L 46.6875 54.6875 
L 56.203125 54.6875 
L 35.6875 0 
L 23.484375 0 
z
" id="DejaVuSans-118"/>
      <path d="M 45.40625 27.984375 
Q 45.40625 37.75 41.375 43.109375 
Q 37.359375 48.484375 30.078125 48.484375 
Q 22.859375 48.484375 18.828125 43.109375 
Q 14.796875 37.75 14.796875 27.984375 
Q 14.796875 18.265625 18.828125 12.890625 
Q 22.859375 7.515625 30.078125 7.515625 
Q 37.359375 7.515625 41.375 12.890625 
Q 45.40625 18.265625 45.40625 27.984375 
z
M 54.390625 6.78125 
Q 54.390625 -7.171875 48.1875 -13.984375 
Q 42 -20.796875 29.203125 -20.796875 
Q 24.46875 -20.796875 20.265625 -20.09375 
Q 16.0625 -19.390625 12.109375 -17.921875 
L 12.109375 -9.1875 
Q 16.0625 -11.328125 19.921875 -12.34375 
Q 23.78125 -13.375 27.78125 -13.375 
Q 36.625 -13.375 41.015625 -8.765625 
Q 45.40625 -4.15625 45.40625 5.171875 
L 45.40625 9.625 
Q 42.625 4.78125 38.28125 2.390625 
Q 33.9375 0 27.875 0 
Q 17.828125 0 11.671875 7.65625 
Q 5.515625 15.328125 5.515625 27.984375 
Q 5.515625 40.671875 11.671875 48.328125 
Q 17.828125 56 27.875 56 
Q 33.9375 56 38.28125 53.609375 
Q 42.625 51.21875 45.40625 46.390625 
L 45.40625 54.6875 
L 54.390625 54.6875 
z
" id="DejaVuSans-103"/>
      <path d="M 45.40625 46.390625 
L 45.40625 75.984375 
L 54.390625 75.984375 
L 54.390625 0 
L 45.40625 0 
L 45.40625 8.203125 
Q 42.578125 3.328125 38.25 0.953125 
Q 33.9375 -1.421875 27.875 -1.421875 
Q 17.96875 -1.421875 11.734375 6.484375 
Q 5.515625 14.40625 5.515625 27.296875 
Q 5.515625 40.1875 11.734375 48.09375 
Q 17.96875 56 27.875 56 
Q 33.9375 56 38.25 53.625 
Q 42.578125 51.265625 45.40625 46.390625 
z
M 14.796875 27.296875 
Q 14.796875 17.390625 18.875 11.75 
Q 22.953125 6.109375 30.078125 6.109375 
Q 37.203125 6.109375 41.296875 11.75 
Q 45.40625 17.390625 45.40625 27.296875 
Q 45.40625 37.203125 41.296875 42.84375 
Q 37.203125 48.484375 30.078125 48.484375 
Q 22.953125 48.484375 18.875 42.84375 
Q 14.796875 37.203125 14.796875 27.296875 
z
" id="DejaVuSans-100"/>
     </defs>
     <g transform="translate(100.847656 252.916562)scale(0.1 -0.1)">
      <use xlink:href="#DejaVuSans-78"/>
      <use x="74.804688" xlink:href="#DejaVuSans-117"/>
      <use x="138.183594" xlink:href="#DejaVuSans-109"/>
      <use x="235.595703" xlink:href="#DejaVuSans-98"/>
      <use x="299.072266" xlink:href="#DejaVuSans-101"/>
      <use x="360.595703" xlink:href="#DejaVuSans-114"/>
      <use x="401.708984" xlink:href="#DejaVuSans-32"/>
      <use x="433.496094" xlink:href="#DejaVuSans-111"/>
      <use x="494.677734" xlink:href="#DejaVuSans-102"/>
      <use x="529.882812" xlink:href="#DejaVuSans-32"/>
      <use x="561.669922" xlink:href="#DejaVuSans-74"/>
      <use x="591.162109" xlink:href="#DejaVuSans-111"/>
      <use x="652.34375" xlink:href="#DejaVuSans-110"/>
      <use x="715.722656" xlink:href="#DejaVuSans-101"/>
      <use x="777.246094" xlink:href="#DejaVuSans-115"/>
      <use x="829.345703" xlink:href="#DejaVuSans-45"/>
      <use x="865.429688" xlink:href="#DejaVuSans-77"/>
      <use x="951.708984" xlink:href="#DejaVuSans-117"/>
      <use x="1015.087891" xlink:href="#DejaVuSans-101"/>
      <use x="1076.611328" xlink:href="#DejaVuSans-108"/>
      <use x="1104.394531" xlink:href="#DejaVuSans-108"/>
      <use x="1132.177734" xlink:href="#DejaVuSans-101"/>
      <use x="1193.701172" xlink:href="#DejaVuSans-114"/>
      <use x="1234.814453" xlink:href="#DejaVuSans-32"/>
      <use x="1266.601562" xlink:href="#DejaVuSans-109"/>
      <use x="1364.013672" xlink:href="#DejaVuSans-97"/>
      <use x="1425.292969" xlink:href="#DejaVuSans-116"/>
      <use x="1464.501953" xlink:href="#DejaVuSans-114"/>
      <use x="1505.615234" xlink:href="#DejaVuSans-105"/>
      <use x="1533.398438" xlink:href="#DejaVuSans-99"/>
      <use x="1588.378906" xlink:href="#DejaVuSans-101"/>
      <use x="1649.902344" xlink:href="#DejaVuSans-115"/>
      <use x="1702.001953" xlink:href="#DejaVuSans-32"/>
      <use x="1733.789062" xlink:href="#DejaVuSans-97"/>
      <use x="1795.068359" xlink:href="#DejaVuSans-118"/>
      <use x="1854.248047" xlink:href="#DejaVuSans-101"/>
      <use x="1915.771484" xlink:href="#DejaVuSans-114"/>
      <use x="1956.884766" xlink:href="#DejaVuSans-97"/>
      <use x="2018.164062" xlink:href="#DejaVuSans-103"/>
      <use x="2081.640625" xlink:href="#DejaVuSans-101"/>
      <use x="2143.164062" xlink:href="#DejaVuSans-100"/>
     </g>
    </g>
   </g>
   <g id="matplotlib.axis_2">
    <g id="ytick_1">
     <g id="line2d_7">
      <defs>
       <path d="M 0 0 
L -3.5 0 
" id="mc2e4091e92" style="stroke:#000000;stroke-width:0.8;"/>
      </defs>
      <g>
       <use style="stroke:#000000;stroke-width:0.8;" x="43.78125" xlink:href="#mc2e4091e92" y="214.756364"/>
      </g>
     </g>
     <g id="text_8">
      <!-- 0.0 -->
      <defs>
       <path d="M 10.6875 12.40625 
L 21 12.40625 
L 21 0 
L 10.6875 0 
z
" id="DejaVuSans-46"/>
      </defs>
      <g transform="translate(20.878125 218.555582)scale(0.1 -0.1)">
       <use xlink:href="#DejaVuSans-48"/>
       <use x="63.623047" xlink:href="#DejaVuSans-46"/>
       <use x="95.410156" xlink:href="#DejaVuSans-48"/>
      </g>
     </g>
    </g>
    <g id="ytick_2">
     <g id="line2d_8">
      <g>
       <use style="stroke:#000000;stroke-width:0.8;" x="43.78125" xlink:href="#mc2e4091e92" y="177.924832"/>
      </g>
     </g>
     <g id="text_9">
      <!-- 0.2 -->
      <g transform="translate(20.878125 181.724051)scale(0.1 -0.1)">
       <use xlink:href="#DejaVuSans-48"/>
       <use x="63.623047" xlink:href="#DejaVuSans-46"/>
       <use x="95.410156" xlink:href="#DejaVuSans-50"/>
      </g>
     </g>
    </g>
    <g id="ytick_3">
     <g id="line2d_9">
      <g>
       <use style="stroke:#000000;stroke-width:0.8;" x="43.78125" xlink:href="#mc2e4091e92" y="141.093301"/>
      </g>
     </g>
     <g id="text_10">
      <!-- 0.4 -->
      <g transform="translate(20.878125 144.89252)scale(0.1 -0.1)">
       <use xlink:href="#DejaVuSans-48"/>
       <use x="63.623047" xlink:href="#DejaVuSans-46"/>
       <use x="95.410156" xlink:href="#DejaVuSans-52"/>
      </g>
     </g>
    </g>
    <g id="ytick_4">
     <g id="line2d_10">
      <g>
       <use style="stroke:#000000;stroke-width:0.8;" x="43.78125" xlink:href="#mc2e4091e92" y="104.261769"/>
      </g>
     </g>
     <g id="text_11">
      <!-- 0.6 -->
      <g transform="translate(20.878125 108.060988)scale(0.1 -0.1)">
       <use xlink:href="#DejaVuSans-48"/>
       <use x="63.623047" xlink:href="#DejaVuSans-46"/>
       <use x="95.410156" xlink:href="#DejaVuSans-54"/>
      </g>
     </g>
    </g>
    <g id="ytick_5">
     <g id="line2d_11">
      <g>
       <use style="stroke:#000000;stroke-width:0.8;" x="43.78125" xlink:href="#mc2e4091e92" y="67.430238"/>
      </g>
     </g>
     <g id="text_12">
      <!-- 0.8 -->
      <g transform="translate(20.878125 71.229457)scale(0.1 -0.1)">
       <use xlink:href="#DejaVuSans-48"/>
       <use x="63.623047" xlink:href="#DejaVuSans-46"/>
       <use x="95.410156" xlink:href="#DejaVuSans-56"/>
      </g>
     </g>
    </g>
    <g id="ytick_6">
     <g id="line2d_12">
      <g>
       <use style="stroke:#000000;stroke-width:0.8;" x="43.78125" xlink:href="#mc2e4091e92" y="30.598707"/>
      </g>
     </g>
     <g id="text_13">
      <!-- 1.0 -->
      <g transform="translate(20.878125 34.397925)scale(0.1 -0.1)">
       <use xlink:href="#DejaVuSans-49"/>
       <use x="63.623047" xlink:href="#DejaVuSans-46"/>
       <use x="95.410156" xlink:href="#DejaVuSans-48"/>
      </g>
     </g>
    </g>
    <g id="text_14">
     <!-- Cloude decomposition -->
     <defs>
      <path d="M 64.40625 67.28125 
L 64.40625 56.890625 
Q 59.421875 61.53125 53.78125 63.8125 
Q 48.140625 66.109375 41.796875 66.109375 
Q 29.296875 66.109375 22.65625 58.46875 
Q 16.015625 50.828125 16.015625 36.375 
Q 16.015625 21.96875 22.65625 14.328125 
Q 29.296875 6.6875 41.796875 6.6875 
Q 48.140625 6.6875 53.78125 8.984375 
Q 59.421875 11.28125 64.40625 15.921875 
L 64.40625 5.609375 
Q 59.234375 2.09375 53.4375 0.328125 
Q 47.65625 -1.421875 41.21875 -1.421875 
Q 24.65625 -1.421875 15.125 8.703125 
Q 5.609375 18.84375 5.609375 36.375 
Q 5.609375 53.953125 15.125 64.078125 
Q 24.65625 74.21875 41.21875 74.21875 
Q 47.75 74.21875 53.53125 72.484375 
Q 59.328125 70.75 64.40625 67.28125 
z
" id="DejaVuSans-67"/>
      <path d="M 18.109375 8.203125 
L 18.109375 -20.796875 
L 9.078125 -20.796875 
L 9.078125 54.6875 
L 18.109375 54.6875 
L 18.109375 46.390625 
Q 20.953125 51.265625 25.265625 53.625 
Q 29.59375 56 35.59375 56 
Q 45.5625 56 51.78125 48.09375 
Q 58.015625 40.1875 58.015625 27.296875 
Q 58.015625 14.40625 51.78125 6.484375 
Q 45.5625 -1.421875 35.59375 -1.421875 
Q 29.59375 -1.421875 25.265625 0.953125 
Q 20.953125 3.328125 18.109375 8.203125 
z
M 48.6875 27.296875 
Q 48.6875 37.203125 44.609375 42.84375 
Q 40.53125 48.484375 33.40625 48.484375 
Q 26.265625 48.484375 22.1875 42.84375 
Q 18.109375 37.203125 18.109375 27.296875 
Q 18.109375 17.390625 22.1875 11.75 
Q 26.265625 6.109375 33.40625 6.109375 
Q 40.53125 6.109375 44.609375 11.75 
Q 48.6875 17.390625 48.6875 27.296875 
z
" id="DejaVuSans-112"/>
     </defs>
     <g transform="translate(14.798438 171.602812)rotate(-90)scale(0.1 -0.1)">
      <use xlink:href="#DejaVuSans-67"/>
      <use x="69.824219" xlink:href="#DejaVuSans-108"/>
      <use x="97.607422" xlink:href="#DejaVuSans-111"/>
      <use x="158.789062" xlink:href="#DejaVuSans-117"/>
      <use x="222.167969" xlink:href="#DejaVuSans-100"/>
      <use x="285.644531" xlink:href="#DejaVuSans-101"/>
      <use x="347.167969" xlink:href="#DejaVuSans-32"/>
      <use x="378.955078" xlink:href="#DejaVuSans-100"/>
      <use x="442.431641" xlink:href="#DejaVuSans-101"/>
      <use x="503.955078" xlink:href="#DejaVuSans-99"/>
      <use x="558.935547" xlink:href="#DejaVuSans-111"/>
      <use x="620.117188" xlink:href="#DejaVuSans-109"/>
      <use x="717.529297" xlink:href="#DejaVuSans-112"/>
      <use x="781.005859" xlink:href="#DejaVuSans-111"/>
      <use x="842.1875" xlink:href="#DejaVuSans-115"/>
      <use x="894.287109" xlink:href="#DejaVuSans-105"/>
      <use x="922.070312" xlink:href="#DejaVuSans-116"/>
      <use x="961.279297" xlink:href="#DejaVuSans-105"/>
      <use x="989.0625" xlink:href="#DejaVuSans-111"/>
      <use x="1050.244141" xlink:href="#DejaVuSans-110"/>
     </g>
    </g>
   </g>
   <g id="line2d_13">
    <path clip-path="url(#p22f7b4bac0)" d="M 58.999432 17.083636 
L 62.105183 68.385877 
L 65.210935 92.082908 
L 68.316686 103.048948 
L 71.422437 107.35146 
L 74.528189 118.846622 
L 77.63394 121.752536 
L 80.739692 121.463006 
L 83.845443 125.626104 
L 86.951194 128.352154 
L 90.056946 129.278098 
L 93.162697 131.54778 
L 96.268449 133.631162 
L 99.3742 134.093034 
L 102.479951 133.854912 
L 105.585703 135.888632 
L 108.691454 137.626673 
L 111.797205 139.742249 
L 114.902957 142.285634 
L 118.008708 141.171564 
L 121.11446 139.872281 
L 124.220211 142.457151 
L 127.325962 142.672549 
L 130.431714 144.069933 
L 133.537465 141.625904 
L 136.643217 143.256976 
L 139.748968 145.637655 
L 142.854719 145.493938 
L 145.960471 146.069678 
L 149.066222 147.155804 
L 152.171974 146.118123 
L 155.277725 146.053614 
L 158.383476 148.881805 
L 161.489228 148.004507 
L 164.594979 147.362992 
L 167.700731 147.903858 
L 170.806482 148.65949 
L 173.912233 149.567191 
L 177.017985 148.264644 
L 180.123736 149.23301 
L 183.229487 150.27318 
L 186.335239 149.387032 
L 189.44099 150.134709 
L 192.546742 149.066208 
L 195.652493 150.018765 
L 198.758244 150.715983 
L 201.863996 150.445565 
L 204.969747 152.603938 
L 208.075499 151.596582 
L 211.18125 151.929585 
L 214.287001 151.289819 
L 217.392753 151.69552 
L 220.498504 152.082849 
L 223.604256 153.574498 
L 226.710007 151.572861 
L 229.815758 152.291483 
L 232.92151 152.706453 
L 236.027261 152.931936 
L 239.133013 152.575152 
L 242.238764 152.998119 
L 245.344515 153.479149 
L 248.450267 152.827499 
L 251.556018 153.483181 
L 254.661769 153.192756 
L 257.767521 153.617685 
L 260.873272 154.139147 
L 263.979024 154.001989 
L 267.084775 154.674931 
L 270.190526 154.070048 
L 273.296278 154.1276 
L 276.402029 154.771057 
L 279.507781 154.833306 
L 282.613532 154.812083 
L 285.719283 154.783909 
L 288.825035 155.373088 
L 291.930786 155.289041 
L 295.036538 154.718278 
L 298.142289 155.479894 
L 301.24804 154.860111 
L 304.353792 155.00179 
L 307.459543 156.200399 
L 310.565295 154.535405 
L 313.671046 155.980267 
L 316.776797 155.917172 
L 319.882549 155.725124 
L 322.9883 156.020628 
L 326.094051 156.057468 
L 329.199803 155.732448 
L 332.305554 156.245018 
L 335.411306 156.394707 
L 338.517057 155.626916 
L 341.622808 155.993024 
L 344.72856 156.561238 
L 347.834311 156.463574 
L 350.940063 156.684616 
L 354.045814 156.597243 
L 357.151565 156.845795 
L 360.257317 157.019069 
L 363.363068 157.018183 
" style="fill:none;stroke:#1f77b4;stroke-linecap:square;stroke-width:1.5;"/>
   </g>
   <g id="line2d_14">
    <path clip-path="url(#p22f7b4bac0)" d="M 58.999432 214.756364 
L 62.105183 174.798338 
L 65.210935 165.727015 
L 68.316686 164.950125 
L 71.422437 161.751495 
L 74.528189 162.405145 
L 77.63394 163.828852 
L 80.739692 163.74114 
L 83.845443 162.111294 
L 86.951194 163.784074 
L 90.056946 161.338629 
L 93.162697 163.380243 
L 96.268449 162.771573 
L 99.3742 162.368305 
L 102.479951 162.413218 
L 105.585703 162.979992 
L 108.691454 162.484821 
L 111.797205 161.557672 
L 114.902957 164.562755 
L 118.008708 162.83179 
L 121.11446 162.035169 
L 124.220211 163.541026 
L 127.325962 163.967473 
L 130.431714 163.110488 
L 133.537465 161.736636 
L 136.643217 162.997069 
L 139.748968 165.143466 
L 142.854719 163.560138 
L 145.960471 164.281784 
L 149.066222 164.727678 
L 152.171974 163.433954 
L 155.277725 163.83902 
L 158.383476 165.022469 
L 161.489228 164.124161 
L 164.594979 164.150072 
L 167.700731 164.274173 
L 170.806482 162.986453 
L 173.912233 164.043099 
L 177.017985 164.637117 
L 180.123736 164.655722 
L 183.229487 163.967193 
L 186.335239 163.589323 
L 189.44099 164.540887 
L 192.546742 163.651 
L 195.652493 164.004618 
L 198.758244 164.493068 
L 201.863996 164.741834 
L 204.969747 164.784999 
L 208.075499 164.229724 
L 211.18125 165.149963 
L 214.287001 164.19402 
L 217.392753 165.140083 
L 220.498504 164.161323 
L 223.604256 165.514237 
L 226.710007 164.609142 
L 229.815758 165.420441 
L 232.92151 165.320364 
L 236.027261 164.770437 
L 239.133013 164.97798 
L 242.238764 164.743762 
L 245.344515 165.040088 
L 248.450267 164.565535 
L 251.556018 164.474106 
L 254.661769 164.917997 
L 257.767521 164.3887 
L 260.873272 165.685513 
L 263.979024 165.028015 
L 267.084775 165.465306 
L 270.190526 164.536446 
L 273.296278 165.270473 
L 276.402029 165.435579 
L 279.507781 164.752744 
L 282.613532 165.099165 
L 285.719283 165.107049 
L 288.825035 165.292229 
L 291.930786 165.274349 
L 295.036538 165.749242 
L 298.142289 165.804851 
L 301.24804 165.048343 
L 304.353792 164.966309 
L 307.459543 165.886347 
L 310.565295 165.518987 
L 313.671046 165.307893 
L 316.776797 164.822107 
L 319.882549 165.374765 
L 322.9883 165.417756 
L 326.094051 165.449294 
L 329.199803 165.323799 
L 332.305554 165.41168 
L 335.411306 166.080533 
L 338.517057 165.115513 
L 341.622808 165.893542 
L 344.72856 165.785295 
L 347.834311 165.638967 
L 350.940063 165.597302 
L 354.045814 165.265912 
L 357.151565 165.872888 
L 360.257317 165.971233 
L 363.363068 165.632595 
" style="fill:none;stroke:#ff7f0e;stroke-linecap:square;stroke-width:1.5;"/>
   </g>
   <g id="line2d_15">
    <path clip-path="url(#p22f7b4bac0)" d="M 58.999432 214.756364 
L 62.105183 214.756364 
L 65.210935 200.869762 
L 68.316686 197.412759 
L 71.422437 193.706727 
L 74.528189 190.132324 
L 77.63394 189.091831 
L 80.739692 186.475759 
L 83.845443 184.575162 
L 86.951194 183.913082 
L 90.056946 182.904386 
L 93.162697 182.486282 
L 96.268449 181.387077 
L 99.3742 182.592078 
L 102.479951 181.256879 
L 105.585703 179.392196 
L 108.691454 179.769591 
L 111.797205 179.311831 
L 114.902957 179.977832 
L 118.008708 178.728053 
L 121.11446 178.979157 
L 124.220211 178.059318 
L 127.325962 178.968164 
L 130.431714 177.768106 
L 133.537465 176.543611 
L 136.643217 177.461982 
L 139.748968 178.22616 
L 142.854719 176.998854 
L 145.960471 177.128002 
L 149.066222 177.289982 
L 152.171974 175.869434 
L 155.277725 176.790266 
L 158.383476 176.206555 
L 161.489228 176.694821 
L 164.594979 175.687318 
L 167.700731 176.047357 
L 170.806482 175.340183 
L 173.912233 176.18997 
L 177.017985 175.400067 
L 180.123736 175.284991 
L 183.229487 175.385791 
L 186.335239 175.502763 
L 189.44099 175.084858 
L 192.546742 175.511518 
L 195.652493 175.000292 
L 198.758244 175.256294 
L 201.863996 175.060157 
L 204.969747 175.133279 
L 208.075499 174.458798 
L 211.18125 175.113625 
L 214.287001 173.92092 
L 217.392753 175.301616 
L 220.498504 174.546189 
L 223.604256 174.90521 
L 226.710007 175.169815 
L 229.815758 174.889538 
L 232.92151 174.897556 
L 236.027261 174.521677 
L 239.133013 174.630768 
L 242.238764 173.935143 
L 245.344515 173.885749 
L 248.450267 174.345016 
L 251.556018 173.628513 
L 254.661769 174.18488 
L 257.767521 173.467102 
L 260.873272 173.885964 
L 263.979024 173.894828 
L 267.084775 174.330625 
L 270.190526 173.133912 
L 273.296278 173.623559 
L 276.402029 174.089207 
L 279.507781 174.157003 
L 282.613532 173.458022 
L 285.719283 173.309928 
L 288.825035 173.676389 
L 291.930786 173.699597 
L 295.036538 173.676662 
L 298.142289 173.490731 
L 301.24804 173.495833 
L 304.353792 172.957427 
L 307.459543 173.66685 
L 310.565295 173.589171 
L 313.671046 173.35362 
L 316.776797 173.132973 
L 319.882549 172.992541 
L 322.9883 173.234448 
L 326.094051 173.043882 
L 329.199803 172.601602 
L 332.305554 173.25686 
L 335.411306 172.963399 
L 338.517057 172.944031 
L 341.622808 173.020403 
L 344.72856 173.430682 
L 347.834311 173.387624 
L 350.940063 173.14445 
L 354.045814 173.435579 
L 357.151565 173.3406 
L 360.257317 173.3002 
L 363.363068 172.739538 
" style="fill:none;stroke:#2ca02c;stroke-linecap:square;stroke-width:1.5;"/>
   </g>
   <g id="line2d_16">
    <path clip-path="url(#p22f7b4bac0)" d="M 58.999432 214.756364 
L 62.105183 214.756364 
L 65.210935 214.756364 
L 68.316686 211.276306 
L 71.422437 209.417157 
L 74.528189 207.127704 
L 77.63394 204.635721 
L 80.739692 203.327464 
L 83.845443 200.986014 
L 86.951194 200.646475 
L 90.056946 198.33225 
L 93.162697 198.319303 
L 96.268449 196.371923 
L 99.3742 196.311253 
L 102.479951 195.486883 
L 105.585703 193.853946 
L 108.691454 194.138241 
L 111.797205 193.601872 
L 114.902957 192.739462 
L 118.008708 192.31109 
L 121.11446 191.429457 
L 124.220211 190.519879 
L 127.325962 190.925747 
L 130.431714 190.057925 
L 133.537465 189.604755 
L 136.643217 189.67133 
L 139.748968 189.203753 
L 142.854719 189.868006 
L 145.960471 188.302813 
L 149.066222 188.484748 
L 152.171974 187.213079 
L 155.277725 188.091997 
L 158.383476 187.840016 
L 161.489228 187.242043 
L 164.594979 186.730184 
L 167.700731 186.650526 
L 170.806482 185.718634 
L 173.912233 186.918139 
L 177.017985 186.057583 
L 180.123736 186.349185 
L 183.229487 185.675359 
L 186.335239 185.395787 
L 189.44099 185.103999 
L 192.546742 185.180992 
L 195.652493 185.256388 
L 198.758244 185.365197 
L 201.863996 184.642514 
L 204.969747 184.330306 
L 208.075499 184.806335 
L 211.18125 184.412166 
L 214.287001 184.136883 
L 217.392753 184.472996 
L 220.498504 184.107891 
L 223.604256 183.823211 
L 226.710007 184.182706 
L 229.815758 183.737222 
L 232.92151 183.333477 
L 236.027261 183.249033 
L 239.133013 183.16152 
L 242.238764 183.293825 
L 245.344515 182.587888 
L 248.450267 183.240453 
L 251.556018 182.115107 
L 254.661769 182.711984 
L 257.767521 182.231767 
L 260.873272 182.661692 
L 263.979024 181.741534 
L 267.084775 181.972737 
L 270.190526 181.94813 
L 273.296278 182.277863 
L 276.402029 181.988432 
L 279.507781 181.714722 
L 282.613532 181.684493 
L 285.719283 181.45202 
L 288.825035 181.513725 
L 291.930786 181.625608 
L 295.036538 181.617406 
L 298.142289 181.434705 
L 301.24804 181.475708 
L 304.353792 180.956504 
L 307.459543 181.10815 
L 310.565295 181.392902 
L 313.671046 181.405921 
L 316.776797 180.865396 
L 319.882549 180.750028 
L 322.9883 180.125459 
L 326.094051 180.897395 
L 329.199803 180.280885 
L 332.305554 180.582977 
L 335.411306 180.489414 
L 338.517057 180.761085 
L 341.622808 180.586474 
L 344.72856 180.306504 
L 347.834311 180.518899 
L 350.940063 180.148801 
L 354.045814 180.239913 
L 357.151565 180.097354 
L 360.257317 180.289332 
L 363.363068 179.635514 
" style="fill:none;stroke:#d62728;stroke-linecap:square;stroke-width:1.5;"/>
   </g>
   <g id="patch_3">
    <path d="M 43.78125 224.64 
L 43.78125 7.2 
" style="fill:none;stroke:#000000;stroke-linecap:square;stroke-linejoin:miter;stroke-width:0.8;"/>
   </g>
   <g id="patch_4">
    <path d="M 378.58125 224.64 
L 378.58125 7.2 
" style="fill:none;stroke:#000000;stroke-linecap:square;stroke-linejoin:miter;stroke-width:0.8;"/>
   </g>
   <g id="patch_5">
    <path d="M 43.78125 224.64 
L 378.58125 224.64 
" style="fill:none;stroke:#000000;stroke-linecap:square;stroke-linejoin:miter;stroke-width:0.8;"/>
   </g>
   <g id="patch_6">
    <path d="M 43.78125 7.2 
L 378.58125 7.2 
" style="fill:none;stroke:#000000;stroke-linecap:square;stroke-linejoin:miter;stroke-width:0.8;"/>
   </g>
  </g>
 </g>
 <defs>
  <clipPath id="p22f7b4bac0">
   <rect height="217.44" width="334.8" x="43.78125" y="7.2"/>
  </clipPath>
 </defs>
</svg>
