<?xml version="1.0" encoding="utf-8" standalone="no"?>
<!DOCTYPE svg PUBLIC "-//W3C//DTD SVG 1.1//EN"
  "http://www.w3.org/Graphics/SVG/1.1/DTD/svg11.dtd">
<!-- Created with matplotlib (https://matplotlib.org/) -->
<svg height="317.99625pt" version="1.1" viewBox="0 0 608.028125 317.99625" width="608.028125pt" xmlns="http://www.w3.org/2000/svg" xmlns:xlink="http://www.w3.org/1999/xlink">
 <defs>
  <style type="text/css">
*{stroke-linecap:butt;stroke-linejoin:round;}
  </style>
 </defs>
 <g id="figure_1">
  <g id="patch_1">
   <path d="M 0 317.99625 
L 608.028125 317.99625 
L 608.028125 0 
L 0 0 
z
" style="fill:none;"/>
  </g>
  <g id="axes_1">
   <g id="patch_2">
    <path d="M 42.828125 294.118125 
L 206.945772 294.118125 
L 206.945772 22.318125 
L 42.828125 22.318125 
z
" style="fill:#ffffff;"/>
   </g>
   <g id="matplotlib.axis_1">
    <g id="xtick_1">
     <g id="line2d_1">
      <defs>
       <path d="M 0 0 
L 0 3.5 
" id="m42f0713d7c" style="stroke:#000000;stroke-width:0.8;"/>
      </defs>
      <g>
       <use style="stroke:#000000;stroke-width:0.8;" x="68.937751" xlink:href="#m42f0713d7c" y="294.118125"/>
      </g>
     </g>
     <g id="text_1">
      <!-- 0.6 -->
      <defs>
       <path d="M 31.78125 66.40625 
Q 24.171875 66.40625 20.328125 58.90625 
Q 16.5 51.421875 16.5 36.375 
Q 16.5 21.390625 20.328125 13.890625 
Q 24.171875 6.390625 31.78125 6.390625 
Q 39.453125 6.390625 43.28125 13.890625 
Q 47.125 21.390625 47.125 36.375 
Q 47.125 51.421875 43.28125 58.90625 
Q 39.453125 66.40625 31.78125 66.40625 
z
M 31.78125 74.21875 
Q 44.046875 74.21875 50.515625 64.515625 
Q 56.984375 54.828125 56.984375 36.375 
Q 56.984375 17.96875 50.515625 8.265625 
Q 44.046875 -1.421875 31.78125 -1.421875 
Q 19.53125 -1.421875 13.0625 8.265625 
Q 6.59375 17.96875 6.59375 36.375 
Q 6.59375 54.828125 13.0625 64.515625 
Q 19.53125 74.21875 31.78125 74.21875 
z
" id="DejaVuSans-48"/>
       <path d="M 10.6875 12.40625 
L 21 12.40625 
L 21 0 
L 10.6875 0 
z
" id="DejaVuSans-46"/>
       <path d="M 33.015625 40.375 
Q 26.375 40.375 22.484375 35.828125 
Q 18.609375 31.296875 18.609375 23.390625 
Q 18.609375 15.53125 22.484375 10.953125 
Q 26.375 6.390625 33.015625 6.390625 
Q 39.65625 6.390625 43.53125 10.953125 
Q 47.40625 15.53125 47.40625 23.390625 
Q 47.40625 31.296875 43.53125 35.828125 
Q 39.65625 40.375 33.015625 40.375 
z
M 52.59375 71.296875 
L 52.59375 62.3125 
Q 48.875 64.0625 45.09375 64.984375 
Q 41.3125 65.921875 37.59375 65.921875 
Q 27.828125 65.921875 22.671875 59.328125 
Q 17.53125 52.734375 16.796875 39.40625 
Q 19.671875 43.65625 24.015625 45.921875 
Q 28.375 48.1875 33.59375 48.1875 
Q 44.578125 48.1875 50.953125 41.515625 
Q 57.328125 34.859375 57.328125 23.390625 
Q 57.328125 12.15625 50.6875 5.359375 
Q 44.046875 -1.421875 33.015625 -1.421875 
Q 20.359375 -1.421875 13.671875 8.265625 
Q 6.984375 17.96875 6.984375 36.375 
Q 6.984375 53.65625 15.1875 63.9375 
Q 23.390625 74.21875 37.203125 74.21875 
Q 40.921875 74.21875 44.703125 73.484375 
Q 48.484375 72.75 52.59375 71.296875 
z
" id="DejaVuSans-54"/>
      </defs>
      <g transform="translate(60.986188 308.716563)scale(0.1 -0.1)">
       <use xlink:href="#DejaVuSans-48"/>
       <use x="63.623047" xlink:href="#DejaVuSans-46"/>
       <use x="95.410156" xlink:href="#DejaVuSans-54"/>
      </g>
     </g>
    </g>
    <g id="xtick_2">
     <g id="line2d_2">
      <g>
       <use style="stroke:#000000;stroke-width:0.8;" x="106.237216" xlink:href="#m42f0713d7c" y="294.118125"/>
      </g>
     </g>
     <g id="text_2">
      <!-- 0.8 -->
      <defs>
       <path d="M 31.78125 34.625 
Q 24.75 34.625 20.71875 30.859375 
Q 16.703125 27.09375 16.703125 20.515625 
Q 16.703125 13.921875 20.71875 10.15625 
Q 24.75 6.390625 31.78125 6.390625 
Q 38.8125 6.390625 42.859375 10.171875 
Q 46.921875 13.96875 46.921875 20.515625 
Q 46.921875 27.09375 42.890625 30.859375 
Q 38.875 34.625 31.78125 34.625 
z
M 21.921875 38.8125 
Q 15.578125 40.375 12.03125 44.71875 
Q 8.5 49.078125 8.5 55.328125 
Q 8.5 64.0625 14.71875 69.140625 
Q 20.953125 74.21875 31.78125 74.21875 
Q 42.671875 74.21875 48.875 69.140625 
Q 55.078125 64.0625 55.078125 55.328125 
Q 55.078125 49.078125 51.53125 44.71875 
Q 48 40.375 41.703125 38.8125 
Q 48.828125 37.15625 52.796875 32.3125 
Q 56.78125 27.484375 56.78125 20.515625 
Q 56.78125 9.90625 50.3125 4.234375 
Q 43.84375 -1.421875 31.78125 -1.421875 
Q 19.734375 -1.421875 13.25 4.234375 
Q 6.78125 9.90625 6.78125 20.515625 
Q 6.78125 27.484375 10.78125 32.3125 
Q 14.796875 37.15625 21.921875 38.8125 
z
M 18.3125 54.390625 
Q 18.3125 48.734375 21.84375 45.5625 
Q 25.390625 42.390625 31.78125 42.390625 
Q 38.140625 42.390625 41.71875 45.5625 
Q 45.3125 48.734375 45.3125 54.390625 
Q 45.3125 60.0625 41.71875 63.234375 
Q 38.140625 66.40625 31.78125 66.40625 
Q 25.390625 66.40625 21.84375 63.234375 
Q 18.3125 60.0625 18.3125 54.390625 
z
" id="DejaVuSans-56"/>
      </defs>
      <g transform="translate(98.285653 308.716563)scale(0.1 -0.1)">
       <use xlink:href="#DejaVuSans-48"/>
       <use x="63.623047" xlink:href="#DejaVuSans-46"/>
       <use x="95.410156" xlink:href="#DejaVuSans-56"/>
      </g>
     </g>
    </g>
    <g id="xtick_3">
     <g id="line2d_3">
      <g>
       <use style="stroke:#000000;stroke-width:0.8;" x="143.536681" xlink:href="#m42f0713d7c" y="294.118125"/>
      </g>
     </g>
     <g id="text_3">
      <!-- 1.0 -->
      <defs>
       <path d="M 12.40625 8.296875 
L 28.515625 8.296875 
L 28.515625 63.921875 
L 10.984375 60.40625 
L 10.984375 69.390625 
L 28.421875 72.90625 
L 38.28125 72.90625 
L 38.28125 8.296875 
L 54.390625 8.296875 
L 54.390625 0 
L 12.40625 0 
z
" id="DejaVuSans-49"/>
      </defs>
      <g transform="translate(135.585119 308.716563)scale(0.1 -0.1)">
       <use xlink:href="#DejaVuSans-49"/>
       <use x="63.623047" xlink:href="#DejaVuSans-46"/>
       <use x="95.410156" xlink:href="#DejaVuSans-48"/>
      </g>
     </g>
    </g>
    <g id="xtick_4">
     <g id="line2d_4">
      <g>
       <use style="stroke:#000000;stroke-width:0.8;" x="180.836146" xlink:href="#m42f0713d7c" y="294.118125"/>
      </g>
     </g>
     <g id="text_4">
      <!-- 1.2 -->
      <defs>
       <path d="M 19.1875 8.296875 
L 53.609375 8.296875 
L 53.609375 0 
L 7.328125 0 
L 7.328125 8.296875 
Q 12.9375 14.109375 22.625 23.890625 
Q 32.328125 33.6875 34.8125 36.53125 
Q 39.546875 41.84375 41.421875 45.53125 
Q 43.3125 49.21875 43.3125 52.78125 
Q 43.3125 58.59375 39.234375 62.25 
Q 35.15625 65.921875 28.609375 65.921875 
Q 23.96875 65.921875 18.8125 64.3125 
Q 13.671875 62.703125 7.8125 59.421875 
L 7.8125 69.390625 
Q 13.765625 71.78125 18.9375 73 
Q 24.125 74.21875 28.421875 74.21875 
Q 39.75 74.21875 46.484375 68.546875 
Q 53.21875 62.890625 53.21875 53.421875 
Q 53.21875 48.921875 51.53125 44.890625 
Q 49.859375 40.875 45.40625 35.40625 
Q 44.1875 33.984375 37.640625 27.21875 
Q 31.109375 20.453125 19.1875 8.296875 
z
" id="DejaVuSans-50"/>
      </defs>
      <g transform="translate(172.884584 308.716563)scale(0.1 -0.1)">
       <use xlink:href="#DejaVuSans-49"/>
       <use x="63.623047" xlink:href="#DejaVuSans-46"/>
       <use x="95.410156" xlink:href="#DejaVuSans-50"/>
      </g>
     </g>
    </g>
   </g>
   <g id="matplotlib.axis_2">
    <g id="ytick_1">
     <g id="line2d_5">
      <defs>
       <path d="M 0 0 
L -3.5 0 
" id="m1895a8e07d" style="stroke:#000000;stroke-width:0.8;"/>
      </defs>
      <g>
       <use style="stroke:#000000;stroke-width:0.8;" x="42.828125" xlink:href="#m1895a8e07d" y="281.824942"/>
      </g>
     </g>
     <g id="text_5">
      <!-- 0.000 -->
      <g transform="translate(7.2 285.624161)scale(0.1 -0.1)">
       <use xlink:href="#DejaVuSans-48"/>
       <use x="63.623047" xlink:href="#DejaVuSans-46"/>
       <use x="95.410156" xlink:href="#DejaVuSans-48"/>
       <use x="159.033203" xlink:href="#DejaVuSans-48"/>
       <use x="222.65625" xlink:href="#DejaVuSans-48"/>
      </g>
     </g>
    </g>
    <g id="ytick_2">
     <g id="line2d_6">
      <g>
       <use style="stroke:#000000;stroke-width:0.8;" x="42.828125" xlink:href="#m1895a8e07d" y="231.989254"/>
      </g>
     </g>
     <g id="text_6">
      <!-- 0.002 -->
      <g transform="translate(7.2 235.788473)scale(0.1 -0.1)">
       <use xlink:href="#DejaVuSans-48"/>
       <use x="63.623047" xlink:href="#DejaVuSans-46"/>
       <use x="95.410156" xlink:href="#DejaVuSans-48"/>
       <use x="159.033203" xlink:href="#DejaVuSans-48"/>
       <use x="222.65625" xlink:href="#DejaVuSans-50"/>
      </g>
     </g>
    </g>
    <g id="ytick_3">
     <g id="line2d_7">
      <g>
       <use style="stroke:#000000;stroke-width:0.8;" x="42.828125" xlink:href="#m1895a8e07d" y="182.153566"/>
      </g>
     </g>
     <g id="text_7">
      <!-- 0.004 -->
      <defs>
       <path d="M 37.796875 64.3125 
L 12.890625 25.390625 
L 37.796875 25.390625 
z
M 35.203125 72.90625 
L 47.609375 72.90625 
L 47.609375 25.390625 
L 58.015625 25.390625 
L 58.015625 17.1875 
L 47.609375 17.1875 
L 47.609375 0 
L 37.796875 0 
L 37.796875 17.1875 
L 4.890625 17.1875 
L 4.890625 26.703125 
z
" id="DejaVuSans-52"/>
      </defs>
      <g transform="translate(7.2 185.952785)scale(0.1 -0.1)">
       <use xlink:href="#DejaVuSans-48"/>
       <use x="63.623047" xlink:href="#DejaVuSans-46"/>
       <use x="95.410156" xlink:href="#DejaVuSans-48"/>
       <use x="159.033203" xlink:href="#DejaVuSans-48"/>
       <use x="222.65625" xlink:href="#DejaVuSans-52"/>
      </g>
     </g>
    </g>
    <g id="ytick_4">
     <g id="line2d_8">
      <g>
       <use style="stroke:#000000;stroke-width:0.8;" x="42.828125" xlink:href="#m1895a8e07d" y="132.317879"/>
      </g>
     </g>
     <g id="text_8">
      <!-- 0.006 -->
      <g transform="translate(7.2 136.117097)scale(0.1 -0.1)">
       <use xlink:href="#DejaVuSans-48"/>
       <use x="63.623047" xlink:href="#DejaVuSans-46"/>
       <use x="95.410156" xlink:href="#DejaVuSans-48"/>
       <use x="159.033203" xlink:href="#DejaVuSans-48"/>
       <use x="222.65625" xlink:href="#DejaVuSans-54"/>
      </g>
     </g>
    </g>
    <g id="ytick_5">
     <g id="line2d_9">
      <g>
       <use style="stroke:#000000;stroke-width:0.8;" x="42.828125" xlink:href="#m1895a8e07d" y="82.482191"/>
      </g>
     </g>
     <g id="text_9">
      <!-- 0.008 -->
      <g transform="translate(7.2 86.281409)scale(0.1 -0.1)">
       <use xlink:href="#DejaVuSans-48"/>
       <use x="63.623047" xlink:href="#DejaVuSans-46"/>
       <use x="95.410156" xlink:href="#DejaVuSans-48"/>
       <use x="159.033203" xlink:href="#DejaVuSans-48"/>
       <use x="222.65625" xlink:href="#DejaVuSans-56"/>
      </g>
     </g>
    </g>
    <g id="ytick_6">
     <g id="line2d_10">
      <g>
       <use style="stroke:#000000;stroke-width:0.8;" x="42.828125" xlink:href="#m1895a8e07d" y="32.646503"/>
      </g>
     </g>
     <g id="text_10">
      <!-- 0.010 -->
      <g transform="translate(7.2 36.445721)scale(0.1 -0.1)">
       <use xlink:href="#DejaVuSans-48"/>
       <use x="63.623047" xlink:href="#DejaVuSans-46"/>
       <use x="95.410156" xlink:href="#DejaVuSans-48"/>
       <use x="159.033203" xlink:href="#DejaVuSans-49"/>
       <use x="222.65625" xlink:href="#DejaVuSans-48"/>
      </g>
     </g>
    </g>
   </g>
   <g id="line2d_11">
    <path clip-path="url(#p2c94aea5d6)" d="M 50.288018 281.739432 
L 61.534088 281.729487 
L 77.278586 281.45717 
L 91.523608 281.020362 
L 101.270202 280.531805 
L 108.767582 279.94483 
L 114.765486 279.246688 
L 119.263914 278.483213 
L 123.012604 277.591308 
L 126.011556 276.633065 
L 128.26077 275.706898 
L 130.509983 274.528511 
L 132.009459 273.561172 
L 133.508935 272.383871 
L 135.008411 271.013288 
L 136.507887 269.34654 
L 138.007363 267.313957 
L 139.506839 264.844803 
L 141.006315 261.811034 
L 142.505791 258.087379 
L 144.005267 253.610142 
L 145.504743 248.274414 
L 150.003171 230.600273 
L 150.752909 228.579864 
L 151.502647 227.238062 
L 152.252385 226.659424 
L 153.002123 226.899721 
L 153.751861 227.961729 
L 154.501599 229.747415 
L 155.251337 232.102284 
L 156.750813 237.901095 
L 159.749765 250.038515 
L 161.249241 255.172745 
L 162.748717 259.478062 
L 164.248193 262.993365 
L 165.747669 265.843977 
L 167.247145 268.169278 
L 168.746621 270.091172 
L 170.246097 271.656537 
L 171.745573 272.941965 
L 173.994787 274.485951 
L 176.244001 275.687372 
L 178.493215 276.623994 
L 181.492167 277.591148 
L 184.491119 278.319363 
L 188.239809 279.003372 
L 192.738237 279.599232 
L 198.736141 280.147481 
L 199.485879 280.202355 
L 199.485879 280.202355 
" style="fill:none;stroke:#1f77b4;stroke-linecap:square;stroke-width:1.5;"/>
   </g>
   <g id="line2d_12">
    <path clip-path="url(#p2c94aea5d6)" d="M 50.288018 281.584461 
L 57.03566 281.58062 
L 64.53304 281.323987 
L 72.03042 280.844499 
L 78.028324 280.266376 
L 82.526752 279.656773 
L 87.02518 278.806489 
L 90.77387 277.84669 
L 93.772822 276.815106 
L 96.022036 275.818616 
L 98.27125 274.54265 
L 99.770726 273.492531 
L 101.270202 272.219547 
L 102.769678 270.679016 
L 104.269154 268.793778 
L 105.76863 266.429748 
L 107.268106 263.485712 
L 108.767582 259.709576 
L 110.267058 254.829029 
L 111.766534 248.467766 
L 112.516272 244.587011 
L 113.26601 240.109525 
L 114.015748 234.943243 
L 115.515224 222.262922 
L 117.0147 206.036445 
L 120.013652 168.756383 
L 120.76339 162.108843 
L 121.513128 158.345427 
L 122.262866 157.886927 
L 123.012604 160.810706 
L 123.762342 166.66623 
L 125.261818 183.748475 
L 127.511032 211.04331 
L 129.010508 225.861288 
L 130.509983 237.483173 
L 132.009459 246.330972 
L 133.508935 253.092665 
L 135.008411 258.115399 
L 136.507887 261.997587 
L 138.007363 265.049359 
L 139.506839 267.469081 
L 141.006315 269.425106 
L 142.505791 271.023799 
L 144.005267 272.339604 
L 146.254481 273.933462 
L 148.503695 275.166109 
L 150.752909 276.138588 
L 153.751861 277.144268 
L 156.750813 277.912409 
L 160.499503 278.642038 
L 164.997931 279.285219 
L 170.995835 279.888167 
L 178.493215 280.390575 
L 188.239809 280.807643 
L 199.485879 281.105856 
L 199.485879 281.105856 
" style="fill:none;stroke:#ff7f0e;stroke-linecap:square;stroke-width:1.5;"/>
   </g>
   <g id="line2d_13">
    <path clip-path="url(#p2c94aea5d6)" d="M 50.288018 281.30967 
L 54.786446 281.304765 
L 59.284874 281.082848 
L 63.783302 280.629421 
L 68.28173 279.917285 
L 71.280682 279.254336 
L 74.279634 278.379927 
L 76.528848 277.531157 
L 78.778062 276.473804 
L 81.027276 275.130057 
L 82.526752 274.008614 
L 84.026228 272.651903 
L 85.525704 270.990856 
L 87.02518 268.918866 
L 88.524656 266.339245 
L 90.024132 263.02522 
L 91.523608 258.697834 
L 93.023084 252.960015 
L 93.772822 249.397155 
L 95.272298 240.41265 
L 96.022036 234.732456 
L 96.771774 227.995861 
L 97.521512 219.98453 
L 98.27125 210.44793 
L 99.020988 199.287943 
L 99.770726 186.164887 
L 101.270202 154.048818 
L 102.769678 118.514566 
L 103.519416 103.628925 
L 104.269154 93.820736 
L 105.018892 91.121078 
L 105.76863 96.11038 
L 106.518368 107.576473 
L 108.017844 140.113541 
L 109.51732 173.032657 
L 111.016796 199.273381 
L 111.766534 209.703788 
L 112.516272 218.57336 
L 113.26601 226.117833 
L 114.765486 238.015099 
L 116.264962 246.735953 
L 117.764438 253.280303 
L 119.263914 258.238825 
L 120.76339 262.037884 
L 122.262866 264.968083 
L 123.762342 267.314343 
L 125.261818 269.20925 
L 126.761294 270.763034 
L 128.26077 272.055624 
L 130.509983 273.629933 
L 132.759197 274.875049 
L 135.008411 275.854809 
L 138.007363 276.864876 
L 141.006315 277.64388 
L 144.755005 278.392905 
L 149.253433 279.066493 
L 155.251337 279.703296 
L 162.748717 280.24221 
L 172.495311 280.69387 
L 185.990595 281.070243 
L 199.485879 281.294808 
L 199.485879 281.294808 
" style="fill:none;stroke:#2ca02c;stroke-linecap:square;stroke-width:1.5;"/>
   </g>
   <g id="line2d_14">
    <path clip-path="url(#p2c94aea5d6)" d="M 50.288018 280.890981 
L 54.036708 280.847365 
L 57.03566 280.613215 
L 60.034612 280.162591 
L 63.033564 279.464227 
L 65.282778 278.730843 
L 67.531992 277.775824 
L 69.781206 276.51568 
L 71.280682 275.456974 
L 72.780158 274.176648 
L 74.279634 272.602147 
L 75.77911 270.622184 
L 77.278586 268.111393 
L 78.778062 264.896358 
L 80.277538 260.675561 
L 81.027276 258.043637 
L 81.777014 254.988044 
L 82.526752 251.432317 
L 83.27649 247.203915 
L 84.026228 242.290939 
L 84.775966 236.396082 
L 85.525704 229.32848 
L 86.275442 220.821452 
L 87.02518 210.450033 
L 87.774918 198.151724 
L 88.524656 183.141873 
L 89.274394 165.253977 
L 90.77387 120.849342 
L 92.273346 73.732122 
L 93.023084 56.73124 
L 93.772822 49.045845 
L 94.52256 52.36205 
L 95.272298 65.663783 
L 96.022036 85.393346 
L 98.27125 151.475662 
L 99.770726 185.074175 
L 100.520464 198.162887 
L 101.270202 209.148094 
L 102.01994 218.408026 
L 102.769678 226.103574 
L 103.519416 232.592587 
L 105.018892 242.781562 
L 106.518368 250.203663 
L 108.017844 255.693174 
L 109.51732 259.912306 
L 111.016796 263.192214 
L 112.516272 265.79227 
L 114.015748 267.896065 
L 115.515224 269.618256 
L 117.0147 271.066581 
L 118.514176 272.280791 
L 120.76339 273.754808 
L 123.012604 274.89833 
L 125.261818 275.819961 
L 128.26077 276.793449 
L 132.009459 277.730881 
L 135.758149 278.435817 
L 141.006315 279.153407 
L 147.004219 279.738362 
L 154.501599 280.245941 
L 164.997931 280.707713 
L 179.242953 281.082551 
L 199.485879 281.373162 
L 199.485879 281.373162 
" style="fill:none;stroke:#d62728;stroke-linecap:square;stroke-width:1.5;"/>
   </g>
   <g id="line2d_15">
    <path clip-path="url(#p2c94aea5d6)" d="M 50.288018 280.305257 
L 53.28697 280.212764 
L 55.536184 279.949183 
L 57.785398 279.470574 
L 60.034612 278.737053 
L 62.283826 277.682063 
L 63.783302 276.742286 
L 65.282778 275.558795 
L 66.782254 274.073162 
L 68.28173 272.20627 
L 69.781206 269.808185 
L 71.280682 266.681222 
L 72.780158 262.535532 
L 73.529896 259.950949 
L 74.279634 256.910607 
L 75.029372 253.341448 
L 75.77911 249.046754 
L 76.528848 243.991087 
L 77.278586 237.849405 
L 78.028324 230.450562 
L 78.778062 221.592799 
L 79.5278 210.675686 
L 80.277538 197.444622 
L 81.027276 181.157909 
L 81.777014 161.564092 
L 83.27649 112.36898 
L 84.775966 60.382042 
L 85.525704 41.955201 
L 86.275442 34.67267 
L 87.02518 40.013595 
L 87.774918 56.480331 
L 89.274394 104.968477 
L 90.77387 151.28185 
L 91.523608 170.064982 
L 92.273346 185.881754 
L 93.023084 198.884331 
L 93.772822 209.698666 
L 94.52256 218.727291 
L 95.272298 226.189802 
L 96.022036 232.493935 
L 97.521512 242.437072 
L 99.020988 249.739708 
L 100.520464 255.231915 
L 102.01994 259.482071 
L 103.519416 262.804325 
L 105.018892 265.458364 
L 106.518368 267.593856 
L 108.017844 269.319766 
L 109.51732 270.757008 
L 111.016796 271.958518 
L 113.26601 273.425936 
L 115.515224 274.595457 
L 117.764438 275.557513 
L 120.76339 276.575377 
L 124.51208 277.525071 
L 129.010508 278.367949 
L 134.258673 279.096028 
L 141.006315 279.736962 
L 149.253433 280.270187 
L 159.749765 280.711749 
L 173.994787 281.07716 
L 194.987451 281.373092 
L 199.485879 281.415325 
L 199.485879 281.415325 
" style="fill:none;stroke:#9467bd;stroke-linecap:square;stroke-width:1.5;"/>
   </g>
   <g id="line2d_16">
    <path clip-path="url(#p2c94aea5d6)" d="M 50.288018 279.532812 
L 52.537232 279.383407 
L 54.036708 279.150365 
L 55.536184 278.781822 
L 57.03566 278.23567 
L 58.535136 277.483552 
L 60.034612 276.482298 
L 61.534088 275.166741 
L 63.033564 273.443538 
L 64.53304 271.148402 
L 66.032516 268.127985 
L 67.531992 264.059729 
L 68.28173 261.465594 
L 69.031468 258.44471 
L 69.781206 254.825075 
L 70.530944 250.500423 
L 71.280682 245.36326 
L 72.03042 239.047058 
L 72.780158 231.549731 
L 73.529896 222.297894 
L 74.279634 210.879026 
L 75.029372 196.932732 
L 75.77911 179.602634 
L 76.528848 159.132095 
L 78.028324 108.228162 
L 79.5278 58.611885 
L 80.277538 44.603358 
L 81.027276 42.348307 
L 81.777014 52.450243 
L 82.526752 71.631311 
L 84.775966 141.785919 
L 86.275442 178.377593 
L 87.02518 192.542835 
L 87.774918 204.270997 
L 88.524656 214.165948 
L 89.274394 222.429105 
L 90.024132 229.360247 
L 90.77387 235.219722 
L 92.273346 244.415411 
L 93.772822 251.113265 
L 95.272298 256.166861 
L 96.771774 260.075218 
L 98.27125 263.176732 
L 99.770726 265.657324 
L 101.270202 267.685944 
L 102.769678 269.373386 
L 104.269154 270.780462 
L 105.76863 271.968739 
L 108.017844 273.404143 
L 110.267058 274.549502 
L 112.516272 275.476975 
L 115.515224 276.467021 
L 119.263914 277.435578 
L 123.012604 278.161743 
L 127.511032 278.821677 
L 133.508935 279.476742 
L 140.256577 279.99069 
L 150.003171 280.495281 
L 162.748717 280.908687 
L 180.742429 281.244613 
L 199.485879 281.44136 
L 199.485879 281.44136 
" style="fill:none;stroke:#8c564b;stroke-linecap:square;stroke-width:1.5;"/>
   </g>
   <g id="line2d_17">
    <path clip-path="url(#p2c94aea5d6)" d="M 50.288018 278.560377 
L 52.537232 278.240572 
L 54.036708 277.816957 
L 55.536184 277.168477 
L 57.03566 276.21239 
L 58.535136 274.87667 
L 60.034612 273.048574 
L 61.534088 270.557834 
L 62.283826 268.991811 
L 63.033564 267.141666 
L 63.783302 264.96128 
L 64.53304 262.334108 
L 65.282778 259.276828 
L 66.032516 255.584153 
L 66.782254 251.130656 
L 67.531992 245.825932 
L 68.28173 239.247544 
L 69.031468 231.332991 
L 69.781206 221.518862 
L 70.530944 209.445103 
L 71.280682 194.863512 
L 72.780158 156.140789 
L 75.029372 84.061881 
L 75.77911 66.402756 
L 76.528848 59.707232 
L 77.278586 64.222945 
L 78.028324 78.500699 
L 79.5278 120.11047 
L 81.027276 160.552465 
L 81.777014 177.146101 
L 82.526752 191.190909 
L 83.27649 203.018142 
L 84.026228 212.85231 
L 84.775966 221.123518 
L 85.525704 228.091531 
L 87.02518 239.016396 
L 88.524656 247.010982 
L 90.024132 253.034727 
L 91.523608 257.644319 
L 93.023084 261.215658 
L 94.52256 264.034701 
L 96.022036 266.295718 
L 97.521512 268.162656 
L 99.020988 269.71473 
L 100.520464 271.019351 
L 102.769678 272.63091 
L 105.018892 273.918364 
L 107.268106 274.950083 
L 110.267058 276.035538 
L 113.26601 276.886039 
L 117.0147 277.722708 
L 121.513128 278.488819 
L 126.761294 279.139415 
L 133.508935 279.749592 
L 141.756053 280.256662 
L 153.002123 280.712316 
L 167.996883 281.08161 
L 189.739285 281.376337 
L 199.485879 281.458852 
L 199.485879 281.458852 
" style="fill:none;stroke:#e377c2;stroke-linecap:square;stroke-width:1.5;"/>
   </g>
   <g id="patch_3">
    <path d="M 42.828125 294.118125 
L 42.828125 22.318125 
" style="fill:none;stroke:#000000;stroke-linecap:square;stroke-linejoin:miter;stroke-width:0.8;"/>
   </g>
   <g id="patch_4">
    <path d="M 206.945772 294.118125 
L 206.945772 22.318125 
" style="fill:none;stroke:#000000;stroke-linecap:square;stroke-linejoin:miter;stroke-width:0.8;"/>
   </g>
   <g id="patch_5">
    <path d="M 42.828125 294.118125 
L 206.945772 294.118125 
" style="fill:none;stroke:#000000;stroke-linecap:square;stroke-linejoin:miter;stroke-width:0.8;"/>
   </g>
   <g id="patch_6">
    <path d="M 42.828125 22.318125 
L 206.945772 22.318125 
" style="fill:none;stroke:#000000;stroke-linecap:square;stroke-linejoin:miter;stroke-width:0.8;"/>
   </g>
   <g id="text_11">
    <!-- Scattering -->
    <defs>
     <path d="M 53.515625 70.515625 
L 53.515625 60.890625 
Q 47.90625 63.578125 42.921875 64.890625 
Q 37.9375 66.21875 33.296875 66.21875 
Q 25.25 66.21875 20.875 63.09375 
Q 16.5 59.96875 16.5 54.203125 
Q 16.5 49.359375 19.40625 46.890625 
Q 22.3125 44.4375 30.421875 42.921875 
L 36.375 41.703125 
Q 47.40625 39.59375 52.65625 34.296875 
Q 57.90625 29 57.90625 20.125 
Q 57.90625 9.515625 50.796875 4.046875 
Q 43.703125 -1.421875 29.984375 -1.421875 
Q 24.8125 -1.421875 18.96875 -0.25 
Q 13.140625 0.921875 6.890625 3.21875 
L 6.890625 13.375 
Q 12.890625 10.015625 18.65625 8.296875 
Q 24.421875 6.59375 29.984375 6.59375 
Q 38.421875 6.59375 43.015625 9.90625 
Q 47.609375 13.234375 47.609375 19.390625 
Q 47.609375 24.75 44.3125 27.78125 
Q 41.015625 30.8125 33.5 32.328125 
L 27.484375 33.5 
Q 16.453125 35.6875 11.515625 40.375 
Q 6.59375 45.0625 6.59375 53.421875 
Q 6.59375 63.09375 13.40625 68.65625 
Q 20.21875 74.21875 32.171875 74.21875 
Q 37.3125 74.21875 42.625 73.28125 
Q 47.953125 72.359375 53.515625 70.515625 
z
" id="DejaVuSans-83"/>
     <path d="M 48.78125 52.59375 
L 48.78125 44.1875 
Q 44.96875 46.296875 41.140625 47.34375 
Q 37.3125 48.390625 33.40625 48.390625 
Q 24.65625 48.390625 19.8125 42.84375 
Q 14.984375 37.3125 14.984375 27.296875 
Q 14.984375 17.28125 19.8125 11.734375 
Q 24.65625 6.203125 33.40625 6.203125 
Q 37.3125 6.203125 41.140625 7.25 
Q 44.96875 8.296875 48.78125 10.40625 
L 48.78125 2.09375 
Q 45.015625 0.34375 40.984375 -0.53125 
Q 36.96875 -1.421875 32.421875 -1.421875 
Q 20.0625 -1.421875 12.78125 6.34375 
Q 5.515625 14.109375 5.515625 27.296875 
Q 5.515625 40.671875 12.859375 48.328125 
Q 20.21875 56 33.015625 56 
Q 37.15625 56 41.109375 55.140625 
Q 45.0625 54.296875 48.78125 52.59375 
z
" id="DejaVuSans-99"/>
     <path d="M 34.28125 27.484375 
Q 23.390625 27.484375 19.1875 25 
Q 14.984375 22.515625 14.984375 16.5 
Q 14.984375 11.71875 18.140625 8.90625 
Q 21.296875 6.109375 26.703125 6.109375 
Q 34.1875 6.109375 38.703125 11.40625 
Q 43.21875 16.703125 43.21875 25.484375 
L 43.21875 27.484375 
z
M 52.203125 31.203125 
L 52.203125 0 
L 43.21875 0 
L 43.21875 8.296875 
Q 40.140625 3.328125 35.546875 0.953125 
Q 30.953125 -1.421875 24.3125 -1.421875 
Q 15.921875 -1.421875 10.953125 3.296875 
Q 6 8.015625 6 15.921875 
Q 6 25.140625 12.171875 29.828125 
Q 18.359375 34.515625 30.609375 34.515625 
L 43.21875 34.515625 
L 43.21875 35.40625 
Q 43.21875 41.609375 39.140625 45 
Q 35.0625 48.390625 27.6875 48.390625 
Q 23 48.390625 18.546875 47.265625 
Q 14.109375 46.140625 10.015625 43.890625 
L 10.015625 52.203125 
Q 14.9375 54.109375 19.578125 55.046875 
Q 24.21875 56 28.609375 56 
Q 40.484375 56 46.34375 49.84375 
Q 52.203125 43.703125 52.203125 31.203125 
z
" id="DejaVuSans-97"/>
     <path d="M 18.3125 70.21875 
L 18.3125 54.6875 
L 36.8125 54.6875 
L 36.8125 47.703125 
L 18.3125 47.703125 
L 18.3125 18.015625 
Q 18.3125 11.328125 20.140625 9.421875 
Q 21.96875 7.515625 27.59375 7.515625 
L 36.8125 7.515625 
L 36.8125 0 
L 27.59375 0 
Q 17.1875 0 13.234375 3.875 
Q 9.28125 7.765625 9.28125 18.015625 
L 9.28125 47.703125 
L 2.6875 47.703125 
L 2.6875 54.6875 
L 9.28125 54.6875 
L 9.28125 70.21875 
z
" id="DejaVuSans-116"/>
     <path d="M 56.203125 29.59375 
L 56.203125 25.203125 
L 14.890625 25.203125 
Q 15.484375 15.921875 20.484375 11.0625 
Q 25.484375 6.203125 34.421875 6.203125 
Q 39.59375 6.203125 44.453125 7.46875 
Q 49.3125 8.734375 54.109375 11.28125 
L 54.109375 2.78125 
Q 49.265625 0.734375 44.1875 -0.34375 
Q 39.109375 -1.421875 33.890625 -1.421875 
Q 20.796875 -1.421875 13.15625 6.1875 
Q 5.515625 13.8125 5.515625 26.8125 
Q 5.515625 40.234375 12.765625 48.109375 
Q 20.015625 56 32.328125 56 
Q 43.359375 56 49.78125 48.890625 
Q 56.203125 41.796875 56.203125 29.59375 
z
M 47.21875 32.234375 
Q 47.125 39.59375 43.09375 43.984375 
Q 39.0625 48.390625 32.421875 48.390625 
Q 24.90625 48.390625 20.390625 44.140625 
Q 15.875 39.890625 15.1875 32.171875 
z
" id="DejaVuSans-101"/>
     <path d="M 41.109375 46.296875 
Q 39.59375 47.171875 37.8125 47.578125 
Q 36.03125 48 33.890625 48 
Q 26.265625 48 22.1875 43.046875 
Q 18.109375 38.09375 18.109375 28.8125 
L 18.109375 0 
L 9.078125 0 
L 9.078125 54.6875 
L 18.109375 54.6875 
L 18.109375 46.1875 
Q 20.953125 51.171875 25.484375 53.578125 
Q 30.03125 56 36.53125 56 
Q 37.453125 56 38.578125 55.875 
Q 39.703125 55.765625 41.0625 55.515625 
z
" id="DejaVuSans-114"/>
     <path d="M 9.421875 54.6875 
L 18.40625 54.6875 
L 18.40625 0 
L 9.421875 0 
z
M 9.421875 75.984375 
L 18.40625 75.984375 
L 18.40625 64.59375 
L 9.421875 64.59375 
z
" id="DejaVuSans-105"/>
     <path d="M 54.890625 33.015625 
L 54.890625 0 
L 45.90625 0 
L 45.90625 32.71875 
Q 45.90625 40.484375 42.875 44.328125 
Q 39.84375 48.1875 33.796875 48.1875 
Q 26.515625 48.1875 22.3125 43.546875 
Q 18.109375 38.921875 18.109375 30.90625 
L 18.109375 0 
L 9.078125 0 
L 9.078125 54.6875 
L 18.109375 54.6875 
L 18.109375 46.1875 
Q 21.34375 51.125 25.703125 53.5625 
Q 30.078125 56 35.796875 56 
Q 45.21875 56 50.046875 50.171875 
Q 54.890625 44.34375 54.890625 33.015625 
z
" id="DejaVuSans-110"/>
     <path d="M 45.40625 27.984375 
Q 45.40625 37.75 41.375 43.109375 
Q 37.359375 48.484375 30.078125 48.484375 
Q 22.859375 48.484375 18.828125 43.109375 
Q 14.796875 37.75 14.796875 27.984375 
Q 14.796875 18.265625 18.828125 12.890625 
Q 22.859375 7.515625 30.078125 7.515625 
Q 37.359375 7.515625 41.375 12.890625 
Q 45.40625 18.265625 45.40625 27.984375 
z
M 54.390625 6.78125 
Q 54.390625 -7.171875 48.1875 -13.984375 
Q 42 -20.796875 29.203125 -20.796875 
Q 24.46875 -20.796875 20.265625 -20.09375 
Q 16.0625 -19.390625 12.109375 -17.921875 
L 12.109375 -9.1875 
Q 16.0625 -11.328125 19.921875 -12.34375 
Q 23.78125 -13.375 27.78125 -13.375 
Q 36.625 -13.375 41.015625 -8.765625 
Q 45.40625 -4.15625 45.40625 5.171875 
L 45.40625 9.625 
Q 42.625 4.78125 38.28125 2.390625 
Q 33.9375 0 27.875 0 
Q 17.828125 0 11.671875 7.65625 
Q 5.515625 15.328125 5.515625 27.984375 
Q 5.515625 40.671875 11.671875 48.328125 
Q 17.828125 56 27.875 56 
Q 33.9375 56 38.28125 53.609375 
Q 42.625 51.21875 45.40625 46.390625 
L 45.40625 54.6875 
L 54.390625 54.6875 
z
" id="DejaVuSans-103"/>
    </defs>
    <g transform="translate(93.960699 16.318125)scale(0.12 -0.12)">
     <use xlink:href="#DejaVuSans-83"/>
     <use x="63.476562" xlink:href="#DejaVuSans-99"/>
     <use x="118.457031" xlink:href="#DejaVuSans-97"/>
     <use x="179.736328" xlink:href="#DejaVuSans-116"/>
     <use x="218.945312" xlink:href="#DejaVuSans-116"/>
     <use x="258.154297" xlink:href="#DejaVuSans-101"/>
     <use x="319.677734" xlink:href="#DejaVuSans-114"/>
     <use x="360.791016" xlink:href="#DejaVuSans-105"/>
     <use x="388.574219" xlink:href="#DejaVuSans-110"/>
     <use x="451.953125" xlink:href="#DejaVuSans-103"/>
    </g>
   </g>
   <g id="legend_1">
    <g id="patch_7">
     <path d="M 120.661397 133.065 
L 199.945772 133.065 
Q 201.945772 133.065 201.945772 131.065 
L 201.945772 29.318125 
Q 201.945772 27.318125 199.945772 27.318125 
L 120.661397 27.318125 
Q 118.661397 27.318125 118.661397 29.318125 
L 118.661397 131.065 
Q 118.661397 133.065 120.661397 133.065 
z
" style="fill:#ffffff;opacity:0.8;stroke:#cccccc;stroke-linejoin:miter;"/>
    </g>
    <g id="line2d_18">
     <path d="M 122.661397 35.416562 
L 142.661397 35.416562 
" style="fill:none;stroke:#1f77b4;stroke-linecap:square;stroke-width:1.5;"/>
    </g>
    <g id="line2d_19"/>
    <g id="text_12">
     <!-- t = 0.002 -->
     <defs>
      <path id="DejaVuSans-32"/>
      <path d="M 10.59375 45.40625 
L 73.1875 45.40625 
L 73.1875 37.203125 
L 10.59375 37.203125 
z
M 10.59375 25.484375 
L 73.1875 25.484375 
L 73.1875 17.1875 
L 10.59375 17.1875 
z
" id="DejaVuSans-61"/>
     </defs>
     <g transform="translate(150.661397 38.916562)scale(0.1 -0.1)">
      <use xlink:href="#DejaVuSans-116"/>
      <use x="39.208984" xlink:href="#DejaVuSans-32"/>
      <use x="70.996094" xlink:href="#DejaVuSans-61"/>
      <use x="154.785156" xlink:href="#DejaVuSans-32"/>
      <use x="186.572266" xlink:href="#DejaVuSans-48"/>
      <use x="250.195312" xlink:href="#DejaVuSans-46"/>
      <use x="281.982422" xlink:href="#DejaVuSans-48"/>
      <use x="345.605469" xlink:href="#DejaVuSans-48"/>
      <use x="409.228516" xlink:href="#DejaVuSans-50"/>
     </g>
    </g>
    <g id="line2d_20">
     <path d="M 122.661397 50.094688 
L 142.661397 50.094688 
" style="fill:none;stroke:#ff7f0e;stroke-linecap:square;stroke-width:1.5;"/>
    </g>
    <g id="line2d_21"/>
    <g id="text_13">
     <!-- t = 0.003 -->
     <defs>
      <path d="M 40.578125 39.3125 
Q 47.65625 37.796875 51.625 33 
Q 55.609375 28.21875 55.609375 21.1875 
Q 55.609375 10.40625 48.1875 4.484375 
Q 40.765625 -1.421875 27.09375 -1.421875 
Q 22.515625 -1.421875 17.65625 -0.515625 
Q 12.796875 0.390625 7.625 2.203125 
L 7.625 11.71875 
Q 11.71875 9.328125 16.59375 8.109375 
Q 21.484375 6.890625 26.8125 6.890625 
Q 36.078125 6.890625 40.9375 10.546875 
Q 45.796875 14.203125 45.796875 21.1875 
Q 45.796875 27.640625 41.28125 31.265625 
Q 36.765625 34.90625 28.71875 34.90625 
L 20.21875 34.90625 
L 20.21875 43.015625 
L 29.109375 43.015625 
Q 36.375 43.015625 40.234375 45.921875 
Q 44.09375 48.828125 44.09375 54.296875 
Q 44.09375 59.90625 40.109375 62.90625 
Q 36.140625 65.921875 28.71875 65.921875 
Q 24.65625 65.921875 20.015625 65.03125 
Q 15.375 64.15625 9.8125 62.3125 
L 9.8125 71.09375 
Q 15.4375 72.65625 20.34375 73.4375 
Q 25.25 74.21875 29.59375 74.21875 
Q 40.828125 74.21875 47.359375 69.109375 
Q 53.90625 64.015625 53.90625 55.328125 
Q 53.90625 49.265625 50.4375 45.09375 
Q 46.96875 40.921875 40.578125 39.3125 
z
" id="DejaVuSans-51"/>
     </defs>
     <g transform="translate(150.661397 53.594688)scale(0.1 -0.1)">
      <use xlink:href="#DejaVuSans-116"/>
      <use x="39.208984" xlink:href="#DejaVuSans-32"/>
      <use x="70.996094" xlink:href="#DejaVuSans-61"/>
      <use x="154.785156" xlink:href="#DejaVuSans-32"/>
      <use x="186.572266" xlink:href="#DejaVuSans-48"/>
      <use x="250.195312" xlink:href="#DejaVuSans-46"/>
      <use x="281.982422" xlink:href="#DejaVuSans-48"/>
      <use x="345.605469" xlink:href="#DejaVuSans-48"/>
      <use x="409.228516" xlink:href="#DejaVuSans-51"/>
     </g>
    </g>
    <g id="line2d_22">
     <path d="M 122.661397 64.772812 
L 142.661397 64.772812 
" style="fill:none;stroke:#2ca02c;stroke-linecap:square;stroke-width:1.5;"/>
    </g>
    <g id="line2d_23"/>
    <g id="text_14">
     <!-- t = 0.004 -->
     <g transform="translate(150.661397 68.272812)scale(0.1 -0.1)">
      <use xlink:href="#DejaVuSans-116"/>
      <use x="39.208984" xlink:href="#DejaVuSans-32"/>
      <use x="70.996094" xlink:href="#DejaVuSans-61"/>
      <use x="154.785156" xlink:href="#DejaVuSans-32"/>
      <use x="186.572266" xlink:href="#DejaVuSans-48"/>
      <use x="250.195312" xlink:href="#DejaVuSans-46"/>
      <use x="281.982422" xlink:href="#DejaVuSans-48"/>
      <use x="345.605469" xlink:href="#DejaVuSans-48"/>
      <use x="409.228516" xlink:href="#DejaVuSans-52"/>
     </g>
    </g>
    <g id="line2d_24">
     <path d="M 122.661397 79.450938 
L 142.661397 79.450938 
" style="fill:none;stroke:#d62728;stroke-linecap:square;stroke-width:1.5;"/>
    </g>
    <g id="line2d_25"/>
    <g id="text_15">
     <!-- t = 0.005 -->
     <defs>
      <path d="M 10.796875 72.90625 
L 49.515625 72.90625 
L 49.515625 64.59375 
L 19.828125 64.59375 
L 19.828125 46.734375 
Q 21.96875 47.46875 24.109375 47.828125 
Q 26.265625 48.1875 28.421875 48.1875 
Q 40.625 48.1875 47.75 41.5 
Q 54.890625 34.8125 54.890625 23.390625 
Q 54.890625 11.625 47.5625 5.09375 
Q 40.234375 -1.421875 26.90625 -1.421875 
Q 22.3125 -1.421875 17.546875 -0.640625 
Q 12.796875 0.140625 7.71875 1.703125 
L 7.71875 11.625 
Q 12.109375 9.234375 16.796875 8.0625 
Q 21.484375 6.890625 26.703125 6.890625 
Q 35.15625 6.890625 40.078125 11.328125 
Q 45.015625 15.765625 45.015625 23.390625 
Q 45.015625 31 40.078125 35.4375 
Q 35.15625 39.890625 26.703125 39.890625 
Q 22.75 39.890625 18.8125 39.015625 
Q 14.890625 38.140625 10.796875 36.28125 
z
" id="DejaVuSans-53"/>
     </defs>
     <g transform="translate(150.661397 82.950938)scale(0.1 -0.1)">
      <use xlink:href="#DejaVuSans-116"/>
      <use x="39.208984" xlink:href="#DejaVuSans-32"/>
      <use x="70.996094" xlink:href="#DejaVuSans-61"/>
      <use x="154.785156" xlink:href="#DejaVuSans-32"/>
      <use x="186.572266" xlink:href="#DejaVuSans-48"/>
      <use x="250.195312" xlink:href="#DejaVuSans-46"/>
      <use x="281.982422" xlink:href="#DejaVuSans-48"/>
      <use x="345.605469" xlink:href="#DejaVuSans-48"/>
      <use x="409.228516" xlink:href="#DejaVuSans-53"/>
     </g>
    </g>
    <g id="line2d_26">
     <path d="M 122.661397 94.129063 
L 142.661397 94.129063 
" style="fill:none;stroke:#9467bd;stroke-linecap:square;stroke-width:1.5;"/>
    </g>
    <g id="line2d_27"/>
    <g id="text_16">
     <!-- t = 0.006 -->
     <g transform="translate(150.661397 97.629063)scale(0.1 -0.1)">
      <use xlink:href="#DejaVuSans-116"/>
      <use x="39.208984" xlink:href="#DejaVuSans-32"/>
      <use x="70.996094" xlink:href="#DejaVuSans-61"/>
      <use x="154.785156" xlink:href="#DejaVuSans-32"/>
      <use x="186.572266" xlink:href="#DejaVuSans-48"/>
      <use x="250.195312" xlink:href="#DejaVuSans-46"/>
      <use x="281.982422" xlink:href="#DejaVuSans-48"/>
      <use x="345.605469" xlink:href="#DejaVuSans-48"/>
      <use x="409.228516" xlink:href="#DejaVuSans-54"/>
     </g>
    </g>
    <g id="line2d_28">
     <path d="M 122.661397 108.807187 
L 142.661397 108.807187 
" style="fill:none;stroke:#8c564b;stroke-linecap:square;stroke-width:1.5;"/>
    </g>
    <g id="line2d_29"/>
    <g id="text_17">
     <!-- t = 0.007 -->
     <defs>
      <path d="M 8.203125 72.90625 
L 55.078125 72.90625 
L 55.078125 68.703125 
L 28.609375 0 
L 18.3125 0 
L 43.21875 64.59375 
L 8.203125 64.59375 
z
" id="DejaVuSans-55"/>
     </defs>
     <g transform="translate(150.661397 112.307187)scale(0.1 -0.1)">
      <use xlink:href="#DejaVuSans-116"/>
      <use x="39.208984" xlink:href="#DejaVuSans-32"/>
      <use x="70.996094" xlink:href="#DejaVuSans-61"/>
      <use x="154.785156" xlink:href="#DejaVuSans-32"/>
      <use x="186.572266" xlink:href="#DejaVuSans-48"/>
      <use x="250.195312" xlink:href="#DejaVuSans-46"/>
      <use x="281.982422" xlink:href="#DejaVuSans-48"/>
      <use x="345.605469" xlink:href="#DejaVuSans-48"/>
      <use x="409.228516" xlink:href="#DejaVuSans-55"/>
     </g>
    </g>
    <g id="line2d_30">
     <path d="M 122.661397 123.485312 
L 142.661397 123.485312 
" style="fill:none;stroke:#e377c2;stroke-linecap:square;stroke-width:1.5;"/>
    </g>
    <g id="line2d_31"/>
    <g id="text_18">
     <!-- t = 0.008 -->
     <g transform="translate(150.661397 126.985312)scale(0.1 -0.1)">
      <use xlink:href="#DejaVuSans-116"/>
      <use x="39.208984" xlink:href="#DejaVuSans-32"/>
      <use x="70.996094" xlink:href="#DejaVuSans-61"/>
      <use x="154.785156" xlink:href="#DejaVuSans-32"/>
      <use x="186.572266" xlink:href="#DejaVuSans-48"/>
      <use x="250.195312" xlink:href="#DejaVuSans-46"/>
      <use x="281.982422" xlink:href="#DejaVuSans-48"/>
      <use x="345.605469" xlink:href="#DejaVuSans-48"/>
      <use x="409.228516" xlink:href="#DejaVuSans-56"/>
     </g>
    </g>
   </g>
  </g>
  <g id="axes_2">
   <g id="patch_8">
    <path d="M 239.769301 294.118125 
L 403.886949 294.118125 
L 403.886949 22.318125 
L 239.769301 22.318125 
z
" style="fill:#ffffff;"/>
   </g>
   <g id="matplotlib.axis_3">
    <g id="xtick_5">
     <g id="line2d_32">
      <g>
       <use style="stroke:#000000;stroke-width:0.8;" x="265.878927" xlink:href="#m42f0713d7c" y="294.118125"/>
      </g>
     </g>
     <g id="text_19">
      <!-- 0.6 -->
      <g transform="translate(257.927365 308.716563)scale(0.1 -0.1)">
       <use xlink:href="#DejaVuSans-48"/>
       <use x="63.623047" xlink:href="#DejaVuSans-46"/>
       <use x="95.410156" xlink:href="#DejaVuSans-54"/>
      </g>
     </g>
    </g>
    <g id="xtick_6">
     <g id="line2d_33">
      <g>
       <use style="stroke:#000000;stroke-width:0.8;" x="303.178392" xlink:href="#m42f0713d7c" y="294.118125"/>
      </g>
     </g>
     <g id="text_20">
      <!-- 0.8 -->
      <g transform="translate(295.22683 308.716563)scale(0.1 -0.1)">
       <use xlink:href="#DejaVuSans-48"/>
       <use x="63.623047" xlink:href="#DejaVuSans-46"/>
       <use x="95.410156" xlink:href="#DejaVuSans-56"/>
      </g>
     </g>
    </g>
    <g id="xtick_7">
     <g id="line2d_34">
      <g>
       <use style="stroke:#000000;stroke-width:0.8;" x="340.477858" xlink:href="#m42f0713d7c" y="294.118125"/>
      </g>
     </g>
     <g id="text_21">
      <!-- 1.0 -->
      <g transform="translate(332.526295 308.716563)scale(0.1 -0.1)">
       <use xlink:href="#DejaVuSans-49"/>
       <use x="63.623047" xlink:href="#DejaVuSans-46"/>
       <use x="95.410156" xlink:href="#DejaVuSans-48"/>
      </g>
     </g>
    </g>
    <g id="xtick_8">
     <g id="line2d_35">
      <g>
       <use style="stroke:#000000;stroke-width:0.8;" x="377.777323" xlink:href="#m42f0713d7c" y="294.118125"/>
      </g>
     </g>
     <g id="text_22">
      <!-- 1.2 -->
      <g transform="translate(369.82576 308.716563)scale(0.1 -0.1)">
       <use xlink:href="#DejaVuSans-49"/>
       <use x="63.623047" xlink:href="#DejaVuSans-46"/>
       <use x="95.410156" xlink:href="#DejaVuSans-50"/>
      </g>
     </g>
    </g>
   </g>
   <g id="matplotlib.axis_4">
    <g id="ytick_7">
     <g id="line2d_36">
      <g>
       <use style="stroke:#000000;stroke-width:0.8;" x="239.769301" xlink:href="#m1895a8e07d" y="282.252904"/>
      </g>
     </g>
     <g id="text_23">
      <!-- 0.000 -->
      <g transform="translate(204.141176 286.052123)scale(0.1 -0.1)">
       <use xlink:href="#DejaVuSans-48"/>
       <use x="63.623047" xlink:href="#DejaVuSans-46"/>
       <use x="95.410156" xlink:href="#DejaVuSans-48"/>
       <use x="159.033203" xlink:href="#DejaVuSans-48"/>
       <use x="222.65625" xlink:href="#DejaVuSans-48"/>
      </g>
     </g>
    </g>
    <g id="ytick_8">
     <g id="line2d_37">
      <g>
       <use style="stroke:#000000;stroke-width:0.8;" x="239.769301" xlink:href="#m1895a8e07d" y="248.636398"/>
      </g>
     </g>
     <g id="text_24">
      <!-- 0.005 -->
      <g transform="translate(204.141176 252.435617)scale(0.1 -0.1)">
       <use xlink:href="#DejaVuSans-48"/>
       <use x="63.623047" xlink:href="#DejaVuSans-46"/>
       <use x="95.410156" xlink:href="#DejaVuSans-48"/>
       <use x="159.033203" xlink:href="#DejaVuSans-48"/>
       <use x="222.65625" xlink:href="#DejaVuSans-53"/>
      </g>
     </g>
    </g>
    <g id="ytick_9">
     <g id="line2d_38">
      <g>
       <use style="stroke:#000000;stroke-width:0.8;" x="239.769301" xlink:href="#m1895a8e07d" y="215.019892"/>
      </g>
     </g>
     <g id="text_25">
      <!-- 0.010 -->
      <g transform="translate(204.141176 218.819111)scale(0.1 -0.1)">
       <use xlink:href="#DejaVuSans-48"/>
       <use x="63.623047" xlink:href="#DejaVuSans-46"/>
       <use x="95.410156" xlink:href="#DejaVuSans-48"/>
       <use x="159.033203" xlink:href="#DejaVuSans-49"/>
       <use x="222.65625" xlink:href="#DejaVuSans-48"/>
      </g>
     </g>
    </g>
    <g id="ytick_10">
     <g id="line2d_39">
      <g>
       <use style="stroke:#000000;stroke-width:0.8;" x="239.769301" xlink:href="#m1895a8e07d" y="181.403386"/>
      </g>
     </g>
     <g id="text_26">
      <!-- 0.015 -->
      <g transform="translate(204.141176 185.202604)scale(0.1 -0.1)">
       <use xlink:href="#DejaVuSans-48"/>
       <use x="63.623047" xlink:href="#DejaVuSans-46"/>
       <use x="95.410156" xlink:href="#DejaVuSans-48"/>
       <use x="159.033203" xlink:href="#DejaVuSans-49"/>
       <use x="222.65625" xlink:href="#DejaVuSans-53"/>
      </g>
     </g>
    </g>
    <g id="ytick_11">
     <g id="line2d_40">
      <g>
       <use style="stroke:#000000;stroke-width:0.8;" x="239.769301" xlink:href="#m1895a8e07d" y="147.786879"/>
      </g>
     </g>
     <g id="text_27">
      <!-- 0.020 -->
      <g transform="translate(204.141176 151.586098)scale(0.1 -0.1)">
       <use xlink:href="#DejaVuSans-48"/>
       <use x="63.623047" xlink:href="#DejaVuSans-46"/>
       <use x="95.410156" xlink:href="#DejaVuSans-48"/>
       <use x="159.033203" xlink:href="#DejaVuSans-50"/>
       <use x="222.65625" xlink:href="#DejaVuSans-48"/>
      </g>
     </g>
    </g>
    <g id="ytick_12">
     <g id="line2d_41">
      <g>
       <use style="stroke:#000000;stroke-width:0.8;" x="239.769301" xlink:href="#m1895a8e07d" y="114.170373"/>
      </g>
     </g>
     <g id="text_28">
      <!-- 0.025 -->
      <g transform="translate(204.141176 117.969592)scale(0.1 -0.1)">
       <use xlink:href="#DejaVuSans-48"/>
       <use x="63.623047" xlink:href="#DejaVuSans-46"/>
       <use x="95.410156" xlink:href="#DejaVuSans-48"/>
       <use x="159.033203" xlink:href="#DejaVuSans-50"/>
       <use x="222.65625" xlink:href="#DejaVuSans-53"/>
      </g>
     </g>
    </g>
    <g id="ytick_13">
     <g id="line2d_42">
      <g>
       <use style="stroke:#000000;stroke-width:0.8;" x="239.769301" xlink:href="#m1895a8e07d" y="80.553867"/>
      </g>
     </g>
     <g id="text_29">
      <!-- 0.030 -->
      <g transform="translate(204.141176 84.353086)scale(0.1 -0.1)">
       <use xlink:href="#DejaVuSans-48"/>
       <use x="63.623047" xlink:href="#DejaVuSans-46"/>
       <use x="95.410156" xlink:href="#DejaVuSans-48"/>
       <use x="159.033203" xlink:href="#DejaVuSans-51"/>
       <use x="222.65625" xlink:href="#DejaVuSans-48"/>
      </g>
     </g>
    </g>
    <g id="ytick_14">
     <g id="line2d_43">
      <g>
       <use style="stroke:#000000;stroke-width:0.8;" x="239.769301" xlink:href="#m1895a8e07d" y="46.937361"/>
      </g>
     </g>
     <g id="text_30">
      <!-- 0.035 -->
      <g transform="translate(204.141176 50.73658)scale(0.1 -0.1)">
       <use xlink:href="#DejaVuSans-48"/>
       <use x="63.623047" xlink:href="#DejaVuSans-46"/>
       <use x="95.410156" xlink:href="#DejaVuSans-48"/>
       <use x="159.033203" xlink:href="#DejaVuSans-51"/>
       <use x="222.65625" xlink:href="#DejaVuSans-53"/>
      </g>
     </g>
    </g>
   </g>
   <g id="line2d_44">
    <path clip-path="url(#p663ebb7f02)" d="M 247.229195 278.751079 
L 252.47736 279.641542 
L 257.725526 280.226223 
L 263.72343 280.558651 
L 270.471072 280.650094 
L 277.218714 280.521131 
L 283.966356 280.184629 
L 289.96426 279.670768 
L 294.462688 279.089562 
L 297.46164 278.518197 
L 299.710854 277.914446 
L 301.960068 277.065588 
L 305.708758 275.303691 
L 307.208234 275.003537 
L 310.956924 274.83192 
L 312.4564 274.534835 
L 313.955876 274.071368 
L 316.20509 273.092135 
L 318.454304 271.79021 
L 320.703518 270.13809 
L 322.202994 268.802501 
L 323.70247 267.240605 
L 325.201946 265.401572 
L 326.701422 263.216846 
L 328.200898 260.615015 
L 329.700374 257.462942 
L 331.19985 253.664847 
L 332.699326 249.164205 
L 334.198802 243.596699 
L 335.698278 236.826538 
L 337.197754 228.467908 
L 338.69723 218.127555 
L 340.196706 205.43366 
L 341.696182 190.155714 
L 343.195658 171.966575 
L 346.944348 124.167557 
L 347.694086 117.204326 
L 348.443824 112.280854 
L 349.193562 109.70659 
L 349.9433 109.698241 
L 350.693038 112.289966 
L 351.442776 117.200216 
L 352.192514 123.966804 
L 353.69199 141.179646 
L 356.690942 178.33278 
L 358.190418 194.351211 
L 359.689894 207.895333 
L 361.18937 219.033004 
L 362.688846 228.125182 
L 364.188322 235.592896 
L 365.687798 241.813697 
L 367.187274 246.899895 
L 368.68675 251.095219 
L 370.186226 254.610346 
L 371.685702 257.609216 
L 373.185178 260.159483 
L 374.684654 262.320198 
L 376.933868 265.039667 
L 379.183082 267.22872 
L 381.432296 269.025744 
L 383.68151 270.520487 
L 385.930724 271.776296 
L 388.929676 273.160047 
L 391.928628 274.277034 
L 395.677317 275.40702 
L 396.427055 275.604662 
L 396.427055 275.604662 
" style="fill:none;stroke:#1f77b4;stroke-linecap:square;stroke-width:1.5;"/>
   </g>
   <g id="line2d_45">
    <path clip-path="url(#p663ebb7f02)" d="M 247.229195 276.656205 
L 251.727622 277.73066 
L 254.726574 278.268706 
L 258.475264 278.70995 
L 262.223954 278.92171 
L 265.972644 278.937186 
L 269.721334 278.757378 
L 273.470024 278.355317 
L 276.468976 277.827395 
L 278.71819 277.208326 
L 280.217666 276.624528 
L 281.717142 275.820784 
L 283.216618 274.717845 
L 284.716094 273.464561 
L 285.465832 272.992364 
L 286.21557 272.758273 
L 287.715046 272.842025 
L 289.214522 272.917166 
L 290.713998 272.603048 
L 292.213474 271.928179 
L 293.71295 270.944737 
L 295.212426 269.648035 
L 296.711902 268.031993 
L 298.211378 266.01508 
L 299.710854 263.512223 
L 301.21033 260.399476 
L 302.709806 256.460555 
L 304.209282 251.503328 
L 305.708758 245.118516 
L 307.208234 236.818045 
L 308.70771 225.920466 
L 309.457448 219.224675 
L 310.207186 211.48408 
L 310.956924 202.534562 
L 312.4564 180.455626 
L 313.955876 151.898207 
L 316.954828 85.110299 
L 317.704566 72.807656 
L 318.454304 65.441734 
L 319.204042 63.850488 
L 319.95378 68.23373 
L 320.703518 77.856476 
L 321.453256 91.291242 
L 325.201946 167.815771 
L 326.701422 191.010031 
L 328.200898 208.980603 
L 329.700374 222.769523 
L 331.19985 233.238554 
L 332.699326 241.100485 
L 334.198802 247.3518 
L 335.698278 252.271414 
L 337.197754 256.237717 
L 338.69723 259.478432 
L 340.196706 262.15068 
L 341.696182 264.373475 
L 343.195658 266.27076 
L 344.695134 267.867813 
L 346.944348 269.842015 
L 349.193562 271.419295 
L 351.442776 272.720643 
L 353.69199 273.789323 
L 356.690942 274.951899 
L 359.689894 275.887442 
L 363.438584 276.812864 
L 367.937012 277.677859 
L 373.185178 278.440432 
L 379.93282 279.163699 
L 388.179938 279.794193 
L 396.427055 280.245559 
L 396.427055 280.245559 
" style="fill:none;stroke:#ff7f0e;stroke-linecap:square;stroke-width:1.5;"/>
   </g>
   <g id="line2d_46">
    <path clip-path="url(#p663ebb7f02)" d="M 247.229195 274.303896 
L 250.977884 275.370367 
L 253.976836 276.018461 
L 257.725526 276.45416 
L 260.724478 276.50079 
L 262.973692 276.359826 
L 265.222906 276.049294 
L 267.47212 275.491996 
L 268.971596 274.932849 
L 270.471072 274.135463 
L 271.970548 273.002892 
L 274.219762 270.902537 
L 274.9695 270.445876 
L 275.719238 270.243084 
L 277.968452 270.057549 
L 278.71819 269.800175 
L 279.467928 269.394984 
L 280.217666 268.853205 
L 281.717142 267.360009 
L 283.216618 265.308814 
L 284.716094 262.620961 
L 286.21557 259.105315 
L 287.715046 254.478542 
L 288.464784 251.627135 
L 289.96426 244.519968 
L 290.713998 240.091566 
L 291.463736 234.895158 
L 292.213474 228.886567 
L 292.963212 221.784132 
L 293.71295 213.335931 
L 294.462688 203.267981 
L 295.212426 191.289995 
L 295.962164 177.23307 
L 296.711902 160.714891 
L 298.211378 120.211924 
L 299.710854 75.142705 
L 300.460592 56.137125 
L 301.21033 43.496348 
L 301.960068 39.828152 
L 302.709806 45.908014 
L 303.459544 60.125763 
L 304.95902 101.007277 
L 306.458496 142.600698 
L 307.957972 175.819245 
L 308.70771 189.02033 
L 310.207186 209.822649 
L 311.706662 224.961827 
L 313.206138 236.054269 
L 314.705614 244.395917 
L 316.20509 250.737646 
L 317.704566 255.613553 
L 319.204042 259.37995 
L 320.703518 262.409829 
L 322.202994 264.857526 
L 323.70247 266.86891 
L 325.201946 268.550317 
L 326.701422 269.971142 
L 328.950636 271.729939 
L 331.19985 273.135857 
L 333.449064 274.239552 
L 335.698278 275.151639 
L 338.69723 276.134737 
L 342.44592 277.09515 
L 346.19461 277.842486 
L 350.693038 278.533965 
L 356.690942 279.221591 
L 364.188322 279.835238 
L 373.185178 280.348206 
L 385.930724 280.82909 
L 396.427055 281.097999 
L 396.427055 281.097999 
" style="fill:none;stroke:#2ca02c;stroke-linecap:square;stroke-width:1.5;"/>
   </g>
   <g id="line2d_47">
    <path clip-path="url(#p663ebb7f02)" d="M 247.229195 271.68777 
L 250.228146 272.583758 
L 253.227098 273.181953 
L 254.726574 273.351815 
L 256.975788 273.389626 
L 258.475264 273.270801 
L 259.97474 273.016632 
L 261.474216 272.571356 
L 262.973692 271.893746 
L 264.473168 270.934376 
L 265.972644 269.636296 
L 267.47212 268.18759 
L 268.221858 267.588993 
L 269.721334 266.821847 
L 271.22081 266.053681 
L 271.970548 265.441151 
L 272.720286 264.646344 
L 273.470024 263.626674 
L 274.219762 262.394166 
L 275.719238 259.232992 
L 276.468976 257.253245 
L 277.218714 254.915581 
L 277.968452 252.181953 
L 278.71819 248.984894 
L 279.467928 245.236281 
L 280.217666 240.799243 
L 280.967404 235.579914 
L 281.717142 229.345708 
L 282.46688 221.869327 
L 283.216618 212.867139 
L 283.966356 201.952903 
L 284.716094 188.949144 
L 285.465832 173.142157 
L 286.21557 154.331125 
L 287.715046 107.891954 
L 289.214522 59.0742 
L 289.96426 41.911805 
L 290.713998 34.67267 
L 291.463736 39.10917 
L 292.213474 53.79062 
L 293.71295 99.407748 
L 295.212426 145.475548 
L 296.711902 180.885376 
L 297.46164 194.63257 
L 298.211378 206.147513 
L 298.961116 215.837271 
L 299.710854 223.837671 
L 300.460592 230.586701 
L 301.960068 241.169632 
L 302.709806 245.333498 
L 304.209282 251.896488 
L 305.708758 256.871949 
L 307.208234 260.714035 
L 308.70771 263.727654 
L 310.207186 266.131474 
L 311.706662 268.098894 
L 313.206138 269.720545 
L 314.705614 271.086362 
L 316.954828 272.748756 
L 319.204042 274.031315 
L 321.453256 275.06253 
L 324.452208 276.14265 
L 327.45116 276.995777 
L 331.19985 277.834729 
L 335.698278 278.573663 
L 340.946444 279.215076 
L 347.694086 279.816317 
L 356.690942 280.365993 
L 367.937012 280.819838 
L 383.68151 281.217284 
L 396.427055 281.427143 
L 396.427055 281.427143 
" style="fill:none;stroke:#d62728;stroke-linecap:square;stroke-width:1.5;"/>
   </g>
   <g id="line2d_48">
    <path clip-path="url(#p663ebb7f02)" d="M 247.229195 268.815255 
L 250.228146 269.564815 
L 252.47736 269.852461 
L 254.726574 269.772478 
L 256.22605 269.505657 
L 257.725526 268.990299 
L 259.225002 268.179155 
L 260.724478 267.020013 
L 262.223954 265.529737 
L 264.473168 263.230763 
L 265.972644 261.752356 
L 266.722382 260.831076 
L 267.47212 259.696362 
L 268.221858 258.286675 
L 268.971596 256.587187 
L 269.721334 254.531433 
L 270.471072 252.087503 
L 271.22081 249.15684 
L 271.970548 245.654663 
L 272.720286 241.470978 
L 273.470024 236.456598 
L 274.219762 230.410091 
L 274.9695 223.137099 
L 275.719238 214.438576 
L 276.468976 203.844251 
L 277.218714 190.956855 
L 277.968452 175.264147 
L 278.71819 156.515931 
L 280.217666 110.169793 
L 281.717142 62.60261 
L 282.46688 46.839386 
L 283.216618 42.010898 
L 283.966356 49.405953 
L 284.716094 66.900389 
L 287.715046 160.552291 
L 288.464784 178.495763 
L 289.214522 193.541046 
L 289.96426 205.844152 
L 290.713998 216.017082 
L 291.463736 224.483834 
L 292.213474 231.41556 
L 292.963212 237.260924 
L 294.462688 246.412635 
L 295.962164 253.092514 
L 297.46164 258.09054 
L 298.961116 261.937435 
L 300.460592 264.912592 
L 301.960068 267.284239 
L 303.459544 269.184734 
L 304.95902 270.718197 
L 306.458496 271.995364 
L 308.70771 273.525646 
L 310.956924 274.721502 
L 313.206138 275.683842 
L 316.20509 276.706619 
L 319.204042 277.489674 
L 322.952732 278.239619 
L 328.200898 279.016816 
L 334.198802 279.649123 
L 341.696182 280.193375 
L 351.442776 280.673962 
L 364.93806 281.096301 
L 383.68151 281.444052 
L 396.427055 281.596166 
L 396.427055 281.596166 
" style="fill:none;stroke:#9467bd;stroke-linecap:square;stroke-width:1.5;"/>
   </g>
   <g id="line2d_49">
    <path clip-path="url(#p663ebb7f02)" d="M 247.229195 265.709685 
L 249.478409 266.038281 
L 250.977884 266.099569 
L 252.47736 265.983465 
L 253.976836 265.583911 
L 255.476312 264.845624 
L 256.22605 264.368909 
L 257.725526 263.077501 
L 259.225002 261.383926 
L 260.724478 259.386331 
L 262.223954 257.104354 
L 262.973692 255.744168 
L 263.72343 254.138316 
L 264.473168 252.18955 
L 265.222906 249.856492 
L 265.972644 246.987562 
L 266.722382 243.551596 
L 267.47212 239.419019 
L 268.221858 234.446629 
L 268.971596 228.423241 
L 269.721334 221.184276 
L 270.471072 212.369308 
L 271.22081 201.553393 
L 271.970548 188.404562 
L 272.720286 172.377359 
L 273.470024 153.512621 
L 276.468976 66.862582 
L 277.218714 57.09232 
L 277.968452 58.58433 
L 278.71819 71.16041 
L 279.467928 91.358835 
L 281.717142 159.342984 
L 282.46688 177.675695 
L 283.216618 193.089703 
L 283.966356 205.945504 
L 284.716094 216.413243 
L 285.465832 225.183779 
L 286.21557 232.436911 
L 286.965308 238.465721 
L 287.715046 243.541588 
L 289.214522 251.397605 
L 290.713998 257.066941 
L 292.213474 261.295848 
L 293.71295 264.530936 
L 295.212426 267.074321 
L 296.711902 269.093067 
L 298.211378 270.734172 
L 299.710854 272.085957 
L 301.21033 273.205297 
L 303.459544 274.556245 
L 305.708758 275.601216 
L 307.957972 276.43923 
L 310.956924 277.313772 
L 314.705614 278.15212 
L 319.204042 278.893393 
L 324.452208 279.510801 
L 331.19985 280.081164 
L 340.196706 280.582727 
L 352.192514 281.015027 
L 368.68675 281.373819 
L 394.177841 281.678506 
L 396.427055 281.697209 
L 396.427055 281.697209 
" style="fill:none;stroke:#8c564b;stroke-linecap:square;stroke-width:1.5;"/>
   </g>
   <g id="line2d_50">
    <path clip-path="url(#p663ebb7f02)" d="M 247.229195 262.40996 
L 248.728671 262.443142 
L 250.977884 262.040036 
L 252.47736 261.454748 
L 253.976836 260.433435 
L 255.476312 258.90238 
L 256.22605 257.971758 
L 257.725526 255.666114 
L 259.225002 252.778607 
L 259.97474 251.053679 
L 260.724478 248.979167 
L 261.474216 246.545282 
L 262.223954 243.58351 
L 262.973692 240.01962 
L 263.72343 235.71101 
L 264.473168 230.505232 
L 265.222906 224.178793 
L 265.972644 216.47466 
L 266.722382 207.114858 
L 267.47212 195.760762 
L 268.221858 182.169451 
L 269.721334 147.280165 
L 271.970548 87.440668 
L 272.720286 75.47599 
L 273.470024 73.726771 
L 274.219762 82.335735 
L 274.9695 99.142782 
L 277.968452 179.992222 
L 278.71819 195.175547 
L 279.467928 207.769888 
L 280.217666 218.260416 
L 280.967404 226.789318 
L 281.717142 233.903449 
L 282.46688 239.8235 
L 283.216618 244.772825 
L 283.966356 248.96857 
L 285.465832 255.503563 
L 286.965308 260.339303 
L 288.464784 263.982048 
L 289.96426 266.768359 
L 291.463736 268.944085 
L 292.963212 270.661752 
L 294.462688 272.064634 
L 295.962164 273.221597 
L 298.211378 274.612399 
L 300.460592 275.700772 
L 302.709806 276.566049 
L 305.708758 277.451065 
L 309.457448 278.279112 
L 313.955876 279.007667 
L 319.204042 279.62302 
L 325.951684 280.168837 
L 334.94854 280.66169 
L 347.694086 281.095087 
L 365.687798 281.452343 
L 391.928628 281.731143 
L 396.427055 281.76358 
L 396.427055 281.76358 
" style="fill:none;stroke:#e377c2;stroke-linecap:square;stroke-width:1.5;"/>
   </g>
   <g id="patch_9">
    <path d="M 239.769301 294.118125 
L 239.769301 22.318125 
" style="fill:none;stroke:#000000;stroke-linecap:square;stroke-linejoin:miter;stroke-width:0.8;"/>
   </g>
   <g id="patch_10">
    <path d="M 403.886949 294.118125 
L 403.886949 22.318125 
" style="fill:none;stroke:#000000;stroke-linecap:square;stroke-linejoin:miter;stroke-width:0.8;"/>
   </g>
   <g id="patch_11">
    <path d="M 239.769301 294.118125 
L 403.886949 294.118125 
" style="fill:none;stroke:#000000;stroke-linecap:square;stroke-linejoin:miter;stroke-width:0.8;"/>
   </g>
   <g id="patch_12">
    <path d="M 239.769301 22.318125 
L 403.886949 22.318125 
" style="fill:none;stroke:#000000;stroke-linecap:square;stroke-linejoin:miter;stroke-width:0.8;"/>
   </g>
   <g id="text_31">
    <!-- Extinction -->
    <defs>
     <path d="M 9.8125 72.90625 
L 55.90625 72.90625 
L 55.90625 64.59375 
L 19.671875 64.59375 
L 19.671875 43.015625 
L 54.390625 43.015625 
L 54.390625 34.71875 
L 19.671875 34.71875 
L 19.671875 8.296875 
L 56.78125 8.296875 
L 56.78125 0 
L 9.8125 0 
z
" id="DejaVuSans-69"/>
     <path d="M 54.890625 54.6875 
L 35.109375 28.078125 
L 55.90625 0 
L 45.3125 0 
L 29.390625 21.484375 
L 13.484375 0 
L 2.875 0 
L 24.125 28.609375 
L 4.6875 54.6875 
L 15.28125 54.6875 
L 29.78125 35.203125 
L 44.28125 54.6875 
z
" id="DejaVuSans-120"/>
     <path d="M 30.609375 48.390625 
Q 23.390625 48.390625 19.1875 42.75 
Q 14.984375 37.109375 14.984375 27.296875 
Q 14.984375 17.484375 19.15625 11.84375 
Q 23.34375 6.203125 30.609375 6.203125 
Q 37.796875 6.203125 41.984375 11.859375 
Q 46.1875 17.53125 46.1875 27.296875 
Q 46.1875 37.015625 41.984375 42.703125 
Q 37.796875 48.390625 30.609375 48.390625 
z
M 30.609375 56 
Q 42.328125 56 49.015625 48.375 
Q 55.71875 40.765625 55.71875 27.296875 
Q 55.71875 13.875 49.015625 6.21875 
Q 42.328125 -1.421875 30.609375 -1.421875 
Q 18.84375 -1.421875 12.171875 6.21875 
Q 5.515625 13.875 5.515625 27.296875 
Q 5.515625 40.765625 12.171875 48.375 
Q 18.84375 56 30.609375 56 
z
" id="DejaVuSans-111"/>
    </defs>
    <g transform="translate(291.872187 16.318125)scale(0.12 -0.12)">
     <use xlink:href="#DejaVuSans-69"/>
     <use x="63.183594" xlink:href="#DejaVuSans-120"/>
     <use x="122.363281" xlink:href="#DejaVuSans-116"/>
     <use x="161.572266" xlink:href="#DejaVuSans-105"/>
     <use x="189.355469" xlink:href="#DejaVuSans-110"/>
     <use x="252.734375" xlink:href="#DejaVuSans-99"/>
     <use x="307.714844" xlink:href="#DejaVuSans-116"/>
     <use x="346.923828" xlink:href="#DejaVuSans-105"/>
     <use x="374.707031" xlink:href="#DejaVuSans-111"/>
     <use x="435.888672" xlink:href="#DejaVuSans-110"/>
    </g>
   </g>
  </g>
  <g id="axes_3">
   <g id="patch_13">
    <path d="M 436.710478 294.118125 
L 600.828125 294.118125 
L 600.828125 22.318125 
L 436.710478 22.318125 
z
" style="fill:#ffffff;"/>
   </g>
   <g id="matplotlib.axis_5">
    <g id="xtick_9">
     <g id="line2d_51">
      <g>
       <use style="stroke:#000000;stroke-width:0.8;" x="462.820104" xlink:href="#m42f0713d7c" y="294.118125"/>
      </g>
     </g>
     <g id="text_32">
      <!-- 0.6 -->
      <g transform="translate(454.868541 308.716563)scale(0.1 -0.1)">
       <use xlink:href="#DejaVuSans-48"/>
       <use x="63.623047" xlink:href="#DejaVuSans-46"/>
       <use x="95.410156" xlink:href="#DejaVuSans-54"/>
      </g>
     </g>
    </g>
    <g id="xtick_10">
     <g id="line2d_52">
      <g>
       <use style="stroke:#000000;stroke-width:0.8;" x="500.119569" xlink:href="#m42f0713d7c" y="294.118125"/>
      </g>
     </g>
     <g id="text_33">
      <!-- 0.8 -->
      <g transform="translate(492.168006 308.716563)scale(0.1 -0.1)">
       <use xlink:href="#DejaVuSans-48"/>
       <use x="63.623047" xlink:href="#DejaVuSans-46"/>
       <use x="95.410156" xlink:href="#DejaVuSans-56"/>
      </g>
     </g>
    </g>
    <g id="xtick_11">
     <g id="line2d_53">
      <g>
       <use style="stroke:#000000;stroke-width:0.8;" x="537.419034" xlink:href="#m42f0713d7c" y="294.118125"/>
      </g>
     </g>
     <g id="text_34">
      <!-- 1.0 -->
      <g transform="translate(529.467472 308.716563)scale(0.1 -0.1)">
       <use xlink:href="#DejaVuSans-49"/>
       <use x="63.623047" xlink:href="#DejaVuSans-46"/>
       <use x="95.410156" xlink:href="#DejaVuSans-48"/>
      </g>
     </g>
    </g>
    <g id="xtick_12">
     <g id="line2d_54">
      <g>
       <use style="stroke:#000000;stroke-width:0.8;" x="574.718499" xlink:href="#m42f0713d7c" y="294.118125"/>
      </g>
     </g>
     <g id="text_35">
      <!-- 1.2 -->
      <g transform="translate(566.766937 308.716563)scale(0.1 -0.1)">
       <use xlink:href="#DejaVuSans-49"/>
       <use x="63.623047" xlink:href="#DejaVuSans-46"/>
       <use x="95.410156" xlink:href="#DejaVuSans-50"/>
      </g>
     </g>
    </g>
   </g>
   <g id="matplotlib.axis_6">
    <g id="ytick_15">
     <g id="line2d_55">
      <g>
       <use style="stroke:#000000;stroke-width:0.8;" x="436.710478" xlink:href="#m1895a8e07d" y="282.269935"/>
      </g>
     </g>
     <g id="text_36">
      <!-- 0.000 -->
      <g transform="translate(401.082353 286.069153)scale(0.1 -0.1)">
       <use xlink:href="#DejaVuSans-48"/>
       <use x="63.623047" xlink:href="#DejaVuSans-46"/>
       <use x="95.410156" xlink:href="#DejaVuSans-48"/>
       <use x="159.033203" xlink:href="#DejaVuSans-48"/>
       <use x="222.65625" xlink:href="#DejaVuSans-48"/>
      </g>
     </g>
    </g>
    <g id="ytick_16">
     <g id="line2d_56">
      <g>
       <use style="stroke:#000000;stroke-width:0.8;" x="436.710478" xlink:href="#m1895a8e07d" y="238.685149"/>
      </g>
     </g>
     <g id="text_37">
      <!-- 0.005 -->
      <g transform="translate(401.082353 242.484368)scale(0.1 -0.1)">
       <use xlink:href="#DejaVuSans-48"/>
       <use x="63.623047" xlink:href="#DejaVuSans-46"/>
       <use x="95.410156" xlink:href="#DejaVuSans-48"/>
       <use x="159.033203" xlink:href="#DejaVuSans-48"/>
       <use x="222.65625" xlink:href="#DejaVuSans-53"/>
      </g>
     </g>
    </g>
    <g id="ytick_17">
     <g id="line2d_57">
      <g>
       <use style="stroke:#000000;stroke-width:0.8;" x="436.710478" xlink:href="#m1895a8e07d" y="195.100363"/>
      </g>
     </g>
     <g id="text_38">
      <!-- 0.010 -->
      <g transform="translate(401.082353 198.899582)scale(0.1 -0.1)">
       <use xlink:href="#DejaVuSans-48"/>
       <use x="63.623047" xlink:href="#DejaVuSans-46"/>
       <use x="95.410156" xlink:href="#DejaVuSans-48"/>
       <use x="159.033203" xlink:href="#DejaVuSans-49"/>
       <use x="222.65625" xlink:href="#DejaVuSans-48"/>
      </g>
     </g>
    </g>
    <g id="ytick_18">
     <g id="line2d_58">
      <g>
       <use style="stroke:#000000;stroke-width:0.8;" x="436.710478" xlink:href="#m1895a8e07d" y="151.515578"/>
      </g>
     </g>
     <g id="text_39">
      <!-- 0.015 -->
      <g transform="translate(401.082353 155.314796)scale(0.1 -0.1)">
       <use xlink:href="#DejaVuSans-48"/>
       <use x="63.623047" xlink:href="#DejaVuSans-46"/>
       <use x="95.410156" xlink:href="#DejaVuSans-48"/>
       <use x="159.033203" xlink:href="#DejaVuSans-49"/>
       <use x="222.65625" xlink:href="#DejaVuSans-53"/>
      </g>
     </g>
    </g>
    <g id="ytick_19">
     <g id="line2d_59">
      <g>
       <use style="stroke:#000000;stroke-width:0.8;" x="436.710478" xlink:href="#m1895a8e07d" y="107.930792"/>
      </g>
     </g>
     <g id="text_40">
      <!-- 0.020 -->
      <g transform="translate(401.082353 111.730011)scale(0.1 -0.1)">
       <use xlink:href="#DejaVuSans-48"/>
       <use x="63.623047" xlink:href="#DejaVuSans-46"/>
       <use x="95.410156" xlink:href="#DejaVuSans-48"/>
       <use x="159.033203" xlink:href="#DejaVuSans-50"/>
       <use x="222.65625" xlink:href="#DejaVuSans-48"/>
      </g>
     </g>
    </g>
    <g id="ytick_20">
     <g id="line2d_60">
      <g>
       <use style="stroke:#000000;stroke-width:0.8;" x="436.710478" xlink:href="#m1895a8e07d" y="64.346006"/>
      </g>
     </g>
     <g id="text_41">
      <!-- 0.025 -->
      <g transform="translate(401.082353 68.145225)scale(0.1 -0.1)">
       <use xlink:href="#DejaVuSans-48"/>
       <use x="63.623047" xlink:href="#DejaVuSans-46"/>
       <use x="95.410156" xlink:href="#DejaVuSans-48"/>
       <use x="159.033203" xlink:href="#DejaVuSans-50"/>
       <use x="222.65625" xlink:href="#DejaVuSans-53"/>
      </g>
     </g>
    </g>
   </g>
   <g id="line2d_61">
    <path clip-path="url(#p8f384ad469)" d="M 444.170371 277.759629 
L 449.418537 278.905694 
L 453.916965 279.581084 
L 457.665655 279.943928 
L 462.164083 280.196011 
L 468.911725 280.288002 
L 474.909629 280.151673 
L 480.907533 279.813091 
L 486.155699 279.313225 
L 490.654127 278.682779 
L 493.653079 278.059154 
L 495.902293 277.402633 
L 498.151507 276.479723 
L 500.400721 275.187615 
L 501.900197 274.27482 
L 502.649935 273.917792 
L 503.399673 273.685257 
L 504.899149 273.569121 
L 507.148363 273.587153 
L 508.647839 273.385726 
L 510.147315 272.96869 
L 511.646791 272.355431 
L 513.146267 271.561759 
L 515.39548 270.049209 
L 516.894956 268.815438 
L 518.394432 267.366605 
L 519.893908 265.675479 
L 521.393384 263.687244 
L 522.89286 261.335208 
L 524.392336 258.528069 
L 525.891812 255.169812 
L 527.391288 251.064028 
L 528.890764 246.218819 
L 530.39024 240.311351 
L 531.889716 233.063175 
L 533.389192 224.184086 
L 534.888668 213.188701 
L 536.388144 199.59974 
L 537.88762 183.093423 
L 539.387096 163.222039 
L 541.63631 128.499439 
L 543.135786 105.377861 
L 543.885524 95.227467 
L 544.635262 86.906229 
L 545.385 80.992203 
L 546.134738 77.857018 
L 546.884476 77.762131 
L 547.634214 80.750858 
L 548.383952 86.492458 
L 549.13369 94.441739 
L 550.633166 114.730107 
L 553.632118 158.654227 
L 555.131594 177.626495 
L 556.63107 193.680726 
L 558.130546 206.891292 
L 559.630022 217.682344 
L 561.129498 226.550999 
L 562.628974 233.944117 
L 564.12845 239.990914 
L 565.627926 244.980596 
L 567.127402 249.163404 
L 568.626878 252.734148 
L 570.126354 255.772259 
L 571.62583 258.346896 
L 573.125306 260.580561 
L 574.624782 262.522971 
L 576.873996 264.962201 
L 579.12321 266.977927 
L 581.372424 268.661538 
L 583.621638 270.081432 
L 586.62059 271.652324 
L 589.619542 272.923866 
L 592.618494 273.980867 
L 593.368232 274.21792 
L 593.368232 274.21792 
" style="fill:none;stroke:#1f77b4;stroke-linecap:square;stroke-width:1.5;"/>
   </g>
   <g id="line2d_62">
    <path clip-path="url(#p8f384ad469)" d="M 444.170371 275.097777 
L 448.668799 276.482953 
L 451.667751 277.194955 
L 454.666703 277.714853 
L 458.415393 278.099701 
L 462.913821 278.236743 
L 466.662511 278.102135 
L 469.661463 277.810591 
L 472.660415 277.307383 
L 474.909629 276.712353 
L 476.409105 276.137426 
L 477.908581 275.340137 
L 479.408057 274.210654 
L 482.407009 271.442289 
L 483.156747 271.2055 
L 483.906485 271.259912 
L 485.405961 271.641446 
L 486.155699 271.724685 
L 486.905437 271.679412 
L 488.404913 271.23427 
L 489.904389 270.398299 
L 491.403865 269.203354 
L 492.903341 267.659183 
L 494.402817 265.723323 
L 495.902293 263.292694 
L 497.401769 260.281895 
L 498.901245 256.482665 
L 500.400721 251.674838 
L 501.900197 245.568271 
L 503.399673 237.624201 
L 504.149411 232.806231 
L 505.648887 220.902548 
L 506.398625 213.578856 
L 507.148363 205.109297 
L 507.898101 195.313294 
L 509.397577 171.123237 
L 510.897053 139.77418 
L 513.896005 66.223305 
L 514.645742 52.598063 
L 515.39548 44.364477 
L 516.145218 42.461776 
L 516.894956 47.121959 
L 517.644694 57.549705 
L 518.394432 72.181123 
L 522.143122 155.92102 
L 523.642598 181.384342 
L 525.142074 201.129639 
L 526.64155 216.300212 
L 528.141026 227.827466 
L 529.640502 236.49047 
L 531.139978 243.388635 
L 532.639454 248.820274 
L 534.13893 253.202721 
L 535.638406 256.786642 
L 537.137882 259.744467 
L 538.637358 262.205794 
L 540.136834 264.309276 
L 541.63631 266.080768 
L 543.135786 267.594905 
L 545.385 269.482044 
L 547.634214 271.023532 
L 549.883428 272.292405 
L 552.88238 273.664725 
L 555.881332 274.767419 
L 559.630022 275.856963 
L 564.12845 276.87194 
L 568.626878 277.65114 
L 574.624782 278.447595 
L 582.122162 279.172745 
L 591.119018 279.794135 
L 593.368232 279.918909 
L 593.368232 279.918909 
" style="fill:none;stroke:#ff7f0e;stroke-linecap:square;stroke-width:1.5;"/>
   </g>
   <g id="line2d_63">
    <path clip-path="url(#p8f384ad469)" d="M 444.170371 272.144069 
L 447.919061 273.523239 
L 450.918013 274.397503 
L 453.916965 274.9447 
L 456.166179 275.179146 
L 458.415393 275.239203 
L 461.414345 274.999378 
L 462.913821 274.737481 
L 464.413297 274.339718 
L 465.912773 273.747858 
L 467.412249 272.865695 
L 468.911725 271.573358 
L 471.160939 269.171339 
L 471.910677 268.702627 
L 472.660415 268.570828 
L 474.909629 268.800357 
L 475.659367 268.654135 
L 476.409105 268.333635 
L 477.158843 267.859051 
L 478.658319 266.445054 
L 480.157795 264.432262 
L 481.657271 261.753608 
L 483.156747 258.218676 
L 484.656223 253.544676 
L 485.405961 250.653235 
L 486.905437 243.445834 
L 487.655175 238.950669 
L 488.404913 233.676996 
L 489.154651 227.566089 
L 489.904389 220.344664 
L 490.654127 211.747973 
L 491.403865 201.497169 
L 492.153603 189.303527 
L 492.903341 174.982387 
L 493.653079 158.156894 
L 495.152555 116.878708 
L 496.652031 70.876017 
L 497.401769 51.442138 
L 498.151507 38.484179 
L 498.901245 34.67267 
L 499.650983 40.809992 
L 500.400721 55.232561 
L 501.900197 96.854268 
L 503.399673 139.265332 
L 504.899149 173.154416 
L 505.648887 186.621161 
L 507.148363 207.849887 
L 508.647839 223.31628 
L 510.147315 234.647157 
L 511.646791 243.172953 
L 513.146267 249.660561 
L 514.645742 254.6533 
L 516.145218 258.511479 
L 517.644694 261.619018 
L 519.14417 264.129638 
L 520.643646 266.1939 
L 522.143122 267.921708 
L 523.642598 269.382873 
L 525.891812 271.192544 
L 528.141026 272.641719 
L 530.39024 273.780465 
L 532.639454 274.723595 
L 535.638406 275.741668 
L 539.387096 276.73867 
L 543.135786 277.51668 
L 547.634214 278.238681 
L 553.632118 278.959825 
L 561.129498 279.606996 
L 570.126354 280.151821 
L 582.122162 280.642422 
L 593.368232 280.958022 
L 593.368232 280.958022 
" style="fill:none;stroke:#2ca02c;stroke-linecap:square;stroke-width:1.5;"/>
   </g>
   <g id="line2d_64">
    <path clip-path="url(#p8f384ad469)" d="M 444.170371 268.898654 
L 447.169323 270.06475 
L 450.168275 270.906426 
L 451.667751 271.185622 
L 453.916965 271.359972 
L 455.416441 271.316065 
L 456.915917 271.120681 
L 458.415393 270.707424 
L 459.914869 270.023328 
L 461.414345 269.011626 
L 462.913821 267.607873 
L 464.413297 266.06861 
L 465.163035 265.485436 
L 465.912773 265.139757 
L 468.161987 264.493557 
L 468.911725 264.023384 
L 469.661463 263.361551 
L 470.411201 262.449466 
L 471.160939 261.319881 
L 471.910677 259.955715 
L 472.660415 258.346035 
L 473.410153 256.467602 
L 474.159891 254.224937 
L 474.909629 251.601429 
L 475.659367 248.52528 
L 476.409105 244.908986 
L 477.158843 240.635449 
L 477.908581 235.587132 
L 478.658319 229.566487 
L 479.408057 222.345584 
L 480.157795 213.649979 
L 480.907533 203.127564 
L 481.657271 190.5701 
L 482.407009 175.326743 
L 483.156747 157.195375 
L 484.656223 112.519609 
L 486.155699 65.708877 
L 486.905437 49.404713 
L 487.655175 42.707528 
L 488.404913 47.299479 
L 489.154651 61.681092 
L 490.654127 105.992452 
L 492.153603 150.533899 
L 493.653079 184.690082 
L 494.402817 197.934925 
L 495.152555 209.021454 
L 495.902293 218.345126 
L 496.652031 226.025761 
L 497.401769 232.50604 
L 498.901245 242.662732 
L 499.650983 246.658423 
L 501.150459 252.948661 
L 502.649935 257.719308 
L 504.149411 261.402611 
L 505.648887 264.28958 
L 507.148363 266.590013 
L 508.647839 268.475108 
L 510.147315 270.026919 
L 511.646791 271.334232 
L 513.896005 272.927206 
L 516.145218 274.157255 
L 518.394432 275.147906 
L 521.393384 276.185258 
L 525.142074 277.185691 
L 528.890764 277.948727 
L 534.13893 278.728887 
L 540.136834 279.37459 
L 547.634214 279.948194 
L 557.380808 280.458487 
L 570.876092 280.915624 
L 589.619542 281.300958 
L 593.368232 281.357357 
L 593.368232 281.357357 
" style="fill:none;stroke:#d62728;stroke-linecap:square;stroke-width:1.5;"/>
   </g>
   <g id="line2d_65">
    <path clip-path="url(#p8f384ad469)" d="M 444.170371 265.379257 
L 447.169323 266.38344 
L 449.418537 266.848589 
L 451.667751 266.91232 
L 453.167227 266.725797 
L 454.666703 266.264484 
L 456.166179 265.472201 
L 456.915917 264.955198 
L 458.415393 263.585204 
L 460.664607 261.264344 
L 463.663559 258.699703 
L 464.413297 257.74088 
L 465.163035 256.494712 
L 465.912773 254.971485 
L 466.662511 253.076209 
L 467.412249 250.811742 
L 468.161987 248.075647 
L 468.911725 244.783563 
L 469.661463 240.861697 
L 470.411201 236.12902 
L 471.160939 230.438078 
L 471.910677 223.596752 
L 472.660415 215.417554 
L 473.410153 205.500812 
L 474.159891 193.420521 
L 474.909629 178.772012 
L 475.659367 161.318864 
L 477.158843 118.439561 
L 478.658319 74.953795 
L 479.408057 60.962536 
L 480.157795 57.249893 
L 480.907533 64.969394 
L 481.657271 81.890919 
L 484.656223 170.149139 
L 485.405961 186.842513 
L 486.155699 200.816015 
L 486.905437 212.218688 
L 487.655175 221.625034 
L 488.404913 229.443961 
L 489.154651 235.820552 
L 489.904389 241.193876 
L 490.654127 245.728946 
L 492.153603 252.879845 
L 493.653079 258.124791 
L 495.152555 262.101883 
L 496.652031 265.171866 
L 498.151507 267.573802 
L 499.650983 269.499775 
L 501.150459 271.029948 
L 502.649935 272.291796 
L 504.149411 273.342049 
L 506.398625 274.606496 
L 508.647839 275.607034 
L 511.646791 276.65132 
L 514.645742 277.458923 
L 518.394432 278.215739 
L 522.89286 278.889608 
L 528.890764 279.547919 
L 536.388144 280.105119 
L 546.134738 280.593075 
L 559.630022 281.023309 
L 578.373472 281.380429 
L 593.368232 281.561749 
L 593.368232 281.561749 
" style="fill:none;stroke:#9467bd;stroke-linecap:square;stroke-width:1.5;"/>
   </g>
   <g id="line2d_66">
    <path clip-path="url(#p8f384ad469)" d="M 444.170371 261.623018 
L 446.419585 262.101317 
L 447.919061 262.262304 
L 449.418537 262.240698 
L 450.918013 261.913724 
L 452.417489 261.219625 
L 453.167227 260.763966 
L 454.666703 259.493512 
L 456.915917 256.912167 
L 459.165131 253.886764 
L 459.914869 252.692159 
L 460.664607 251.272123 
L 461.414345 249.506682 
L 462.164083 247.389305 
L 462.913821 244.726442 
L 463.663559 241.537861 
L 464.413297 237.692737 
L 465.163035 233.043011 
L 465.912773 227.443096 
L 466.662511 220.68034 
L 467.412249 212.488026 
L 468.161987 202.459513 
L 468.911725 190.290472 
L 469.661463 175.573286 
L 471.160939 138.430233 
L 472.660415 97.131103 
L 473.410153 81.096224 
L 474.159891 73.329367 
L 474.909629 76.052682 
L 475.659367 88.823999 
L 477.158843 130.642538 
L 478.658319 171.903179 
L 479.408057 188.764257 
L 480.157795 202.855999 
L 480.907533 214.568526 
L 481.657271 224.037418 
L 482.407009 231.947145 
L 483.156747 238.460361 
L 483.906485 243.852183 
L 484.656223 248.383384 
L 486.155699 255.352032 
L 487.655175 260.359396 
L 489.154651 264.07441 
L 490.654127 266.901544 
L 492.153603 269.114121 
L 493.653079 270.863704 
L 495.152555 272.281777 
L 496.652031 273.444091 
L 498.901245 274.82323 
L 501.150459 275.87669 
L 503.399673 276.704515 
L 506.398625 277.555585 
L 510.147315 278.351993 
L 514.645742 279.056571 
L 520.643646 279.700222 
L 528.141026 280.252015 
L 538.637358 280.740727 
L 552.132642 281.133103 
L 572.375568 281.476041 
L 593.368232 281.683646 
L 593.368232 281.683646 
" style="fill:none;stroke:#8c564b;stroke-linecap:square;stroke-width:1.5;"/>
   </g>
   <g id="line2d_67">
    <path clip-path="url(#p8f384ad469)" d="M 444.170371 257.685011 
L 445.669847 257.785857 
L 447.919061 257.465464 
L 449.418537 256.933477 
L 450.918013 255.94378 
L 452.417489 254.425995 
L 453.167227 253.514039 
L 454.666703 251.274859 
L 456.166179 248.545032 
L 456.915917 246.955845 
L 457.665655 245.028939 
L 458.415393 242.792394 
L 459.165131 240.021891 
L 459.914869 236.693004 
L 460.664607 232.664723 
L 461.414345 227.771019 
L 462.164083 221.869909 
L 462.913821 214.650007 
L 463.663559 205.948005 
L 464.413297 195.450825 
L 465.163035 182.930338 
L 466.662511 151.241646 
L 468.161987 114.38499 
L 468.911725 98.873197 
L 469.661463 89.538296 
L 470.411201 89.612664 
L 471.160939 99.194715 
L 471.910677 115.990788 
L 474.159891 175.557876 
L 474.909629 192.110459 
L 475.659367 205.991168 
L 476.409105 217.406834 
L 477.158843 226.870616 
L 477.908581 234.48832 
L 478.658319 240.818501 
L 479.408057 246.056415 
L 480.157795 250.410647 
L 480.907533 254.091444 
L 482.407009 259.767525 
L 483.906485 263.929929 
L 485.405961 267.04029 
L 486.905437 269.40347 
L 488.404913 271.238183 
L 489.904389 272.674222 
L 491.403865 273.839993 
L 492.903341 274.79707 
L 495.152555 275.942029 
L 497.401769 276.830134 
L 500.400721 277.730374 
L 504.149411 278.540293 
L 508.647839 279.228533 
L 514.645742 279.868101 
L 522.143122 280.387381 
L 531.889716 280.827584 
L 546.134738 281.216343 
L 567.127402 281.541223 
L 593.368232 281.76358 
L 593.368232 281.76358 
" style="fill:none;stroke:#e377c2;stroke-linecap:square;stroke-width:1.5;"/>
   </g>
   <g id="patch_14">
    <path d="M 436.710478 294.118125 
L 436.710478 22.318125 
" style="fill:none;stroke:#000000;stroke-linecap:square;stroke-linejoin:miter;stroke-width:0.8;"/>
   </g>
   <g id="patch_15">
    <path d="M 600.828125 294.118125 
L 600.828125 22.318125 
" style="fill:none;stroke:#000000;stroke-linecap:square;stroke-linejoin:miter;stroke-width:0.8;"/>
   </g>
   <g id="patch_16">
    <path d="M 436.710478 294.118125 
L 600.828125 294.118125 
" style="fill:none;stroke:#000000;stroke-linecap:square;stroke-linejoin:miter;stroke-width:0.8;"/>
   </g>
   <g id="patch_17">
    <path d="M 436.710478 22.318125 
L 600.828125 22.318125 
" style="fill:none;stroke:#000000;stroke-linecap:square;stroke-linejoin:miter;stroke-width:0.8;"/>
   </g>
   <g id="text_42">
    <!-- Absorption -->
    <defs>
     <path d="M 34.1875 63.1875 
L 20.796875 26.90625 
L 47.609375 26.90625 
z
M 28.609375 72.90625 
L 39.796875 72.90625 
L 67.578125 0 
L 57.328125 0 
L 50.6875 18.703125 
L 17.828125 18.703125 
L 11.1875 0 
L 0.78125 0 
z
" id="DejaVuSans-65"/>
     <path d="M 48.6875 27.296875 
Q 48.6875 37.203125 44.609375 42.84375 
Q 40.53125 48.484375 33.40625 48.484375 
Q 26.265625 48.484375 22.1875 42.84375 
Q 18.109375 37.203125 18.109375 27.296875 
Q 18.109375 17.390625 22.1875 11.75 
Q 26.265625 6.109375 33.40625 6.109375 
Q 40.53125 6.109375 44.609375 11.75 
Q 48.6875 17.390625 48.6875 27.296875 
z
M 18.109375 46.390625 
Q 20.953125 51.265625 25.265625 53.625 
Q 29.59375 56 35.59375 56 
Q 45.5625 56 51.78125 48.09375 
Q 58.015625 40.1875 58.015625 27.296875 
Q 58.015625 14.40625 51.78125 6.484375 
Q 45.5625 -1.421875 35.59375 -1.421875 
Q 29.59375 -1.421875 25.265625 0.953125 
Q 20.953125 3.328125 18.109375 8.203125 
L 18.109375 0 
L 9.078125 0 
L 9.078125 75.984375 
L 18.109375 75.984375 
z
" id="DejaVuSans-98"/>
     <path d="M 44.28125 53.078125 
L 44.28125 44.578125 
Q 40.484375 46.53125 36.375 47.5 
Q 32.28125 48.484375 27.875 48.484375 
Q 21.1875 48.484375 17.84375 46.4375 
Q 14.5 44.390625 14.5 40.28125 
Q 14.5 37.15625 16.890625 35.375 
Q 19.28125 33.59375 26.515625 31.984375 
L 29.59375 31.296875 
Q 39.15625 29.25 43.1875 25.515625 
Q 47.21875 21.78125 47.21875 15.09375 
Q 47.21875 7.46875 41.1875 3.015625 
Q 35.15625 -1.421875 24.609375 -1.421875 
Q 20.21875 -1.421875 15.453125 -0.5625 
Q 10.6875 0.296875 5.421875 2 
L 5.421875 11.28125 
Q 10.40625 8.6875 15.234375 7.390625 
Q 20.0625 6.109375 24.8125 6.109375 
Q 31.15625 6.109375 34.5625 8.28125 
Q 37.984375 10.453125 37.984375 14.40625 
Q 37.984375 18.0625 35.515625 20.015625 
Q 33.0625 21.96875 24.703125 23.78125 
L 21.578125 24.515625 
Q 13.234375 26.265625 9.515625 29.90625 
Q 5.8125 33.546875 5.8125 39.890625 
Q 5.8125 47.609375 11.28125 51.796875 
Q 16.75 56 26.8125 56 
Q 31.78125 56 36.171875 55.265625 
Q 40.578125 54.546875 44.28125 53.078125 
z
" id="DejaVuSans-115"/>
     <path d="M 18.109375 8.203125 
L 18.109375 -20.796875 
L 9.078125 -20.796875 
L 9.078125 54.6875 
L 18.109375 54.6875 
L 18.109375 46.390625 
Q 20.953125 51.265625 25.265625 53.625 
Q 29.59375 56 35.59375 56 
Q 45.5625 56 51.78125 48.09375 
Q 58.015625 40.1875 58.015625 27.296875 
Q 58.015625 14.40625 51.78125 6.484375 
Q 45.5625 -1.421875 35.59375 -1.421875 
Q 29.59375 -1.421875 25.265625 0.953125 
Q 20.953125 3.328125 18.109375 8.203125 
z
M 48.6875 27.296875 
Q 48.6875 37.203125 44.609375 42.84375 
Q 40.53125 48.484375 33.40625 48.484375 
Q 26.265625 48.484375 22.1875 42.84375 
Q 18.109375 37.203125 18.109375 27.296875 
Q 18.109375 17.390625 22.1875 11.75 
Q 26.265625 6.109375 33.40625 6.109375 
Q 40.53125 6.109375 44.609375 11.75 
Q 48.6875 17.390625 48.6875 27.296875 
z
" id="DejaVuSans-112"/>
    </defs>
    <g transform="translate(486.290551 16.318125)scale(0.12 -0.12)">
     <use xlink:href="#DejaVuSans-65"/>
     <use x="68.408203" xlink:href="#DejaVuSans-98"/>
     <use x="131.884766" xlink:href="#DejaVuSans-115"/>
     <use x="183.984375" xlink:href="#DejaVuSans-111"/>
     <use x="245.166016" xlink:href="#DejaVuSans-114"/>
     <use x="286.279297" xlink:href="#DejaVuSans-112"/>
     <use x="349.755859" xlink:href="#DejaVuSans-116"/>
     <use x="388.964844" xlink:href="#DejaVuSans-105"/>
     <use x="416.748047" xlink:href="#DejaVuSans-111"/>
     <use x="477.929688" xlink:href="#DejaVuSans-110"/>
    </g>
   </g>
  </g>
 </g>
 <defs>
  <clipPath id="p2c94aea5d6">
   <rect height="271.8" width="164.117647" x="42.828125" y="22.318125"/>
  </clipPath>
  <clipPath id="p663ebb7f02">
   <rect height="271.8" width="164.117647" x="239.769301" y="22.318125"/>
  </clipPath>
  <clipPath id="p8f384ad469">
   <rect height="271.8" width="164.117647" x="436.710478" y="22.318125"/>
  </clipPath>
 </defs>
</svg>
