<?xml version="1.0" encoding="utf-8" standalone="no"?>
<!DOCTYPE svg PUBLIC "-//W3C//DTD SVG 1.1//EN"
  "http://www.w3.org/Graphics/SVG/1.1/DTD/svg11.dtd">
<!-- Created with matplotlib (https://matplotlib.org/) -->
<svg height="494.754375pt" version="1.1" viewBox="0 0 609.476044 494.754375" width="609.476044pt" xmlns="http://www.w3.org/2000/svg" xmlns:xlink="http://www.w3.org/1999/xlink">
 <defs>
  <style type="text/css">
*{stroke-linecap:butt;stroke-linejoin:round;}
  </style>
 </defs>
 <g id="figure_1">
  <g id="patch_1">
   <path d="M 0 494.754375 
L 609.476044 494.754375 
L 609.476044 0 
L 0 0 
z
" style="fill:none;"/>
  </g>
  <g id="axes_1">
   <g id="patch_2">
    <path d="M 40.603125 219.990852 
L 204.720772 219.990852 
L 204.720772 22.318125 
L 40.603125 22.318125 
z
" style="fill:#ffffff;"/>
   </g>
   <g id="matplotlib.axis_1">
    <g id="xtick_1">
     <g id="line2d_1">
      <defs>
       <path d="M 0 0 
L 0 3.5 
" id="m53659c5555" style="stroke:#000000;stroke-width:0.8;"/>
      </defs>
      <g>
       <use style="stroke:#000000;stroke-width:0.8;" x="48.063018" xlink:href="#m53659c5555" y="219.990852"/>
      </g>
     </g>
     <g id="text_1">
      <!-- 0.40 -->
      <defs>
       <path d="M 31.78125 66.40625 
Q 24.171875 66.40625 20.328125 58.90625 
Q 16.5 51.421875 16.5 36.375 
Q 16.5 21.390625 20.328125 13.890625 
Q 24.171875 6.390625 31.78125 6.390625 
Q 39.453125 6.390625 43.28125 13.890625 
Q 47.125 21.390625 47.125 36.375 
Q 47.125 51.421875 43.28125 58.90625 
Q 39.453125 66.40625 31.78125 66.40625 
z
M 31.78125 74.21875 
Q 44.046875 74.21875 50.515625 64.515625 
Q 56.984375 54.828125 56.984375 36.375 
Q 56.984375 17.96875 50.515625 8.265625 
Q 44.046875 -1.421875 31.78125 -1.421875 
Q 19.53125 -1.421875 13.0625 8.265625 
Q 6.59375 17.96875 6.59375 36.375 
Q 6.59375 54.828125 13.0625 64.515625 
Q 19.53125 74.21875 31.78125 74.21875 
z
" id="DejaVuSans-48"/>
       <path d="M 10.6875 12.40625 
L 21 12.40625 
L 21 0 
L 10.6875 0 
z
" id="DejaVuSans-46"/>
       <path d="M 37.796875 64.3125 
L 12.890625 25.390625 
L 37.796875 25.390625 
z
M 35.203125 72.90625 
L 47.609375 72.90625 
L 47.609375 25.390625 
L 58.015625 25.390625 
L 58.015625 17.1875 
L 47.609375 17.1875 
L 47.609375 0 
L 37.796875 0 
L 37.796875 17.1875 
L 4.890625 17.1875 
L 4.890625 26.703125 
z
" id="DejaVuSans-52"/>
      </defs>
      <g transform="translate(36.930206 234.58929)scale(0.1 -0.1)">
       <use xlink:href="#DejaVuSans-48"/>
       <use x="63.623047" xlink:href="#DejaVuSans-46"/>
       <use x="95.410156" xlink:href="#DejaVuSans-52"/>
       <use x="159.033203" xlink:href="#DejaVuSans-48"/>
      </g>
     </g>
    </g>
    <g id="xtick_2">
     <g id="line2d_2">
      <g>
       <use style="stroke:#000000;stroke-width:0.8;" x="85.362483" xlink:href="#m53659c5555" y="219.990852"/>
      </g>
     </g>
     <g id="text_2">
      <!-- 0.45 -->
      <defs>
       <path d="M 10.796875 72.90625 
L 49.515625 72.90625 
L 49.515625 64.59375 
L 19.828125 64.59375 
L 19.828125 46.734375 
Q 21.96875 47.46875 24.109375 47.828125 
Q 26.265625 48.1875 28.421875 48.1875 
Q 40.625 48.1875 47.75 41.5 
Q 54.890625 34.8125 54.890625 23.390625 
Q 54.890625 11.625 47.5625 5.09375 
Q 40.234375 -1.421875 26.90625 -1.421875 
Q 22.3125 -1.421875 17.546875 -0.640625 
Q 12.796875 0.140625 7.71875 1.703125 
L 7.71875 11.625 
Q 12.109375 9.234375 16.796875 8.0625 
Q 21.484375 6.890625 26.703125 6.890625 
Q 35.15625 6.890625 40.078125 11.328125 
Q 45.015625 15.765625 45.015625 23.390625 
Q 45.015625 31 40.078125 35.4375 
Q 35.15625 39.890625 26.703125 39.890625 
Q 22.75 39.890625 18.8125 39.015625 
Q 14.890625 38.140625 10.796875 36.28125 
z
" id="DejaVuSans-53"/>
      </defs>
      <g transform="translate(74.229671 234.58929)scale(0.1 -0.1)">
       <use xlink:href="#DejaVuSans-48"/>
       <use x="63.623047" xlink:href="#DejaVuSans-46"/>
       <use x="95.410156" xlink:href="#DejaVuSans-52"/>
       <use x="159.033203" xlink:href="#DejaVuSans-53"/>
      </g>
     </g>
    </g>
    <g id="xtick_3">
     <g id="line2d_3">
      <g>
       <use style="stroke:#000000;stroke-width:0.8;" x="122.661949" xlink:href="#m53659c5555" y="219.990852"/>
      </g>
     </g>
     <g id="text_3">
      <!-- 0.50 -->
      <g transform="translate(111.529136 234.58929)scale(0.1 -0.1)">
       <use xlink:href="#DejaVuSans-48"/>
       <use x="63.623047" xlink:href="#DejaVuSans-46"/>
       <use x="95.410156" xlink:href="#DejaVuSans-53"/>
       <use x="159.033203" xlink:href="#DejaVuSans-48"/>
      </g>
     </g>
    </g>
    <g id="xtick_4">
     <g id="line2d_4">
      <g>
       <use style="stroke:#000000;stroke-width:0.8;" x="159.961414" xlink:href="#m53659c5555" y="219.990852"/>
      </g>
     </g>
     <g id="text_4">
      <!-- 0.55 -->
      <g transform="translate(148.828601 234.58929)scale(0.1 -0.1)">
       <use xlink:href="#DejaVuSans-48"/>
       <use x="63.623047" xlink:href="#DejaVuSans-46"/>
       <use x="95.410156" xlink:href="#DejaVuSans-53"/>
       <use x="159.033203" xlink:href="#DejaVuSans-53"/>
      </g>
     </g>
    </g>
    <g id="xtick_5">
     <g id="line2d_5">
      <g>
       <use style="stroke:#000000;stroke-width:0.8;" x="197.260879" xlink:href="#m53659c5555" y="219.990852"/>
      </g>
     </g>
     <g id="text_5">
      <!-- 0.60 -->
      <defs>
       <path d="M 33.015625 40.375 
Q 26.375 40.375 22.484375 35.828125 
Q 18.609375 31.296875 18.609375 23.390625 
Q 18.609375 15.53125 22.484375 10.953125 
Q 26.375 6.390625 33.015625 6.390625 
Q 39.65625 6.390625 43.53125 10.953125 
Q 47.40625 15.53125 47.40625 23.390625 
Q 47.40625 31.296875 43.53125 35.828125 
Q 39.65625 40.375 33.015625 40.375 
z
M 52.59375 71.296875 
L 52.59375 62.3125 
Q 48.875 64.0625 45.09375 64.984375 
Q 41.3125 65.921875 37.59375 65.921875 
Q 27.828125 65.921875 22.671875 59.328125 
Q 17.53125 52.734375 16.796875 39.40625 
Q 19.671875 43.65625 24.015625 45.921875 
Q 28.375 48.1875 33.59375 48.1875 
Q 44.578125 48.1875 50.953125 41.515625 
Q 57.328125 34.859375 57.328125 23.390625 
Q 57.328125 12.15625 50.6875 5.359375 
Q 44.046875 -1.421875 33.015625 -1.421875 
Q 20.359375 -1.421875 13.671875 8.265625 
Q 6.984375 17.96875 6.984375 36.375 
Q 6.984375 53.65625 15.1875 63.9375 
Q 23.390625 74.21875 37.203125 74.21875 
Q 40.921875 74.21875 44.703125 73.484375 
Q 48.484375 72.75 52.59375 71.296875 
z
" id="DejaVuSans-54"/>
      </defs>
      <g transform="translate(186.128067 234.58929)scale(0.1 -0.1)">
       <use xlink:href="#DejaVuSans-48"/>
       <use x="63.623047" xlink:href="#DejaVuSans-46"/>
       <use x="95.410156" xlink:href="#DejaVuSans-54"/>
       <use x="159.033203" xlink:href="#DejaVuSans-48"/>
      </g>
     </g>
    </g>
   </g>
   <g id="matplotlib.axis_2">
    <g id="ytick_1">
     <g id="line2d_6">
      <defs>
       <path d="M 0 0 
L -3.5 0 
" id="m74c25ec36d" style="stroke:#000000;stroke-width:0.8;"/>
      </defs>
      <g>
       <use style="stroke:#000000;stroke-width:0.8;" x="40.603125" xlink:href="#m74c25ec36d" y="217.477246"/>
      </g>
     </g>
     <g id="text_6">
      <!-- 0 -->
      <g transform="translate(27.240625 221.276464)scale(0.1 -0.1)">
       <use xlink:href="#DejaVuSans-48"/>
      </g>
     </g>
    </g>
    <g id="ytick_2">
     <g id="line2d_7">
      <g>
       <use style="stroke:#000000;stroke-width:0.8;" x="40.603125" xlink:href="#m74c25ec36d" y="175.775039"/>
      </g>
     </g>
     <g id="text_7">
      <!-- 10 -->
      <defs>
       <path d="M 12.40625 8.296875 
L 28.515625 8.296875 
L 28.515625 63.921875 
L 10.984375 60.40625 
L 10.984375 69.390625 
L 28.421875 72.90625 
L 38.28125 72.90625 
L 38.28125 8.296875 
L 54.390625 8.296875 
L 54.390625 0 
L 12.40625 0 
z
" id="DejaVuSans-49"/>
      </defs>
      <g transform="translate(20.878125 179.574257)scale(0.1 -0.1)">
       <use xlink:href="#DejaVuSans-49"/>
       <use x="63.623047" xlink:href="#DejaVuSans-48"/>
      </g>
     </g>
    </g>
    <g id="ytick_3">
     <g id="line2d_8">
      <g>
       <use style="stroke:#000000;stroke-width:0.8;" x="40.603125" xlink:href="#m74c25ec36d" y="134.072831"/>
      </g>
     </g>
     <g id="text_8">
      <!-- 20 -->
      <defs>
       <path d="M 19.1875 8.296875 
L 53.609375 8.296875 
L 53.609375 0 
L 7.328125 0 
L 7.328125 8.296875 
Q 12.9375 14.109375 22.625 23.890625 
Q 32.328125 33.6875 34.8125 36.53125 
Q 39.546875 41.84375 41.421875 45.53125 
Q 43.3125 49.21875 43.3125 52.78125 
Q 43.3125 58.59375 39.234375 62.25 
Q 35.15625 65.921875 28.609375 65.921875 
Q 23.96875 65.921875 18.8125 64.3125 
Q 13.671875 62.703125 7.8125 59.421875 
L 7.8125 69.390625 
Q 13.765625 71.78125 18.9375 73 
Q 24.125 74.21875 28.421875 74.21875 
Q 39.75 74.21875 46.484375 68.546875 
Q 53.21875 62.890625 53.21875 53.421875 
Q 53.21875 48.921875 51.53125 44.890625 
Q 49.859375 40.875 45.40625 35.40625 
Q 44.1875 33.984375 37.640625 27.21875 
Q 31.109375 20.453125 19.1875 8.296875 
z
" id="DejaVuSans-50"/>
      </defs>
      <g transform="translate(20.878125 137.87205)scale(0.1 -0.1)">
       <use xlink:href="#DejaVuSans-50"/>
       <use x="63.623047" xlink:href="#DejaVuSans-48"/>
      </g>
     </g>
    </g>
    <g id="ytick_4">
     <g id="line2d_9">
      <g>
       <use style="stroke:#000000;stroke-width:0.8;" x="40.603125" xlink:href="#m74c25ec36d" y="92.370624"/>
      </g>
     </g>
     <g id="text_9">
      <!-- 30 -->
      <defs>
       <path d="M 40.578125 39.3125 
Q 47.65625 37.796875 51.625 33 
Q 55.609375 28.21875 55.609375 21.1875 
Q 55.609375 10.40625 48.1875 4.484375 
Q 40.765625 -1.421875 27.09375 -1.421875 
Q 22.515625 -1.421875 17.65625 -0.515625 
Q 12.796875 0.390625 7.625 2.203125 
L 7.625 11.71875 
Q 11.71875 9.328125 16.59375 8.109375 
Q 21.484375 6.890625 26.8125 6.890625 
Q 36.078125 6.890625 40.9375 10.546875 
Q 45.796875 14.203125 45.796875 21.1875 
Q 45.796875 27.640625 41.28125 31.265625 
Q 36.765625 34.90625 28.71875 34.90625 
L 20.21875 34.90625 
L 20.21875 43.015625 
L 29.109375 43.015625 
Q 36.375 43.015625 40.234375 45.921875 
Q 44.09375 48.828125 44.09375 54.296875 
Q 44.09375 59.90625 40.109375 62.90625 
Q 36.140625 65.921875 28.71875 65.921875 
Q 24.65625 65.921875 20.015625 65.03125 
Q 15.375 64.15625 9.8125 62.3125 
L 9.8125 71.09375 
Q 15.4375 72.65625 20.34375 73.4375 
Q 25.25 74.21875 29.59375 74.21875 
Q 40.828125 74.21875 47.359375 69.109375 
Q 53.90625 64.015625 53.90625 55.328125 
Q 53.90625 49.265625 50.4375 45.09375 
Q 46.96875 40.921875 40.578125 39.3125 
z
" id="DejaVuSans-51"/>
      </defs>
      <g transform="translate(20.878125 96.169843)scale(0.1 -0.1)">
       <use xlink:href="#DejaVuSans-51"/>
       <use x="63.623047" xlink:href="#DejaVuSans-48"/>
      </g>
     </g>
    </g>
    <g id="ytick_5">
     <g id="line2d_10">
      <g>
       <use style="stroke:#000000;stroke-width:0.8;" x="40.603125" xlink:href="#m74c25ec36d" y="50.668417"/>
      </g>
     </g>
     <g id="text_10">
      <!-- 40 -->
      <g transform="translate(20.878125 54.467636)scale(0.1 -0.1)">
       <use xlink:href="#DejaVuSans-52"/>
       <use x="63.623047" xlink:href="#DejaVuSans-48"/>
      </g>
     </g>
    </g>
    <g id="text_11">
     <!-- Reflectance $\times 10^5$ -->
     <defs>
      <path d="M 44.390625 34.1875 
Q 47.5625 33.109375 50.5625 29.59375 
Q 53.5625 26.078125 56.59375 19.921875 
L 66.609375 0 
L 56 0 
L 46.6875 18.703125 
Q 43.0625 26.03125 39.671875 28.421875 
Q 36.28125 30.8125 30.421875 30.8125 
L 19.671875 30.8125 
L 19.671875 0 
L 9.8125 0 
L 9.8125 72.90625 
L 32.078125 72.90625 
Q 44.578125 72.90625 50.734375 67.671875 
Q 56.890625 62.453125 56.890625 51.90625 
Q 56.890625 45.015625 53.6875 40.46875 
Q 50.484375 35.9375 44.390625 34.1875 
z
M 19.671875 64.796875 
L 19.671875 38.921875 
L 32.078125 38.921875 
Q 39.203125 38.921875 42.84375 42.21875 
Q 46.484375 45.515625 46.484375 51.90625 
Q 46.484375 58.296875 42.84375 61.546875 
Q 39.203125 64.796875 32.078125 64.796875 
z
" id="DejaVuSans-82"/>
      <path d="M 56.203125 29.59375 
L 56.203125 25.203125 
L 14.890625 25.203125 
Q 15.484375 15.921875 20.484375 11.0625 
Q 25.484375 6.203125 34.421875 6.203125 
Q 39.59375 6.203125 44.453125 7.46875 
Q 49.3125 8.734375 54.109375 11.28125 
L 54.109375 2.78125 
Q 49.265625 0.734375 44.1875 -0.34375 
Q 39.109375 -1.421875 33.890625 -1.421875 
Q 20.796875 -1.421875 13.15625 6.1875 
Q 5.515625 13.8125 5.515625 26.8125 
Q 5.515625 40.234375 12.765625 48.109375 
Q 20.015625 56 32.328125 56 
Q 43.359375 56 49.78125 48.890625 
Q 56.203125 41.796875 56.203125 29.59375 
z
M 47.21875 32.234375 
Q 47.125 39.59375 43.09375 43.984375 
Q 39.0625 48.390625 32.421875 48.390625 
Q 24.90625 48.390625 20.390625 44.140625 
Q 15.875 39.890625 15.1875 32.171875 
z
" id="DejaVuSans-101"/>
      <path d="M 37.109375 75.984375 
L 37.109375 68.5 
L 28.515625 68.5 
Q 23.6875 68.5 21.796875 66.546875 
Q 19.921875 64.59375 19.921875 59.515625 
L 19.921875 54.6875 
L 34.71875 54.6875 
L 34.71875 47.703125 
L 19.921875 47.703125 
L 19.921875 0 
L 10.890625 0 
L 10.890625 47.703125 
L 2.296875 47.703125 
L 2.296875 54.6875 
L 10.890625 54.6875 
L 10.890625 58.5 
Q 10.890625 67.625 15.140625 71.796875 
Q 19.390625 75.984375 28.609375 75.984375 
z
" id="DejaVuSans-102"/>
      <path d="M 9.421875 75.984375 
L 18.40625 75.984375 
L 18.40625 0 
L 9.421875 0 
z
" id="DejaVuSans-108"/>
      <path d="M 48.78125 52.59375 
L 48.78125 44.1875 
Q 44.96875 46.296875 41.140625 47.34375 
Q 37.3125 48.390625 33.40625 48.390625 
Q 24.65625 48.390625 19.8125 42.84375 
Q 14.984375 37.3125 14.984375 27.296875 
Q 14.984375 17.28125 19.8125 11.734375 
Q 24.65625 6.203125 33.40625 6.203125 
Q 37.3125 6.203125 41.140625 7.25 
Q 44.96875 8.296875 48.78125 10.40625 
L 48.78125 2.09375 
Q 45.015625 0.34375 40.984375 -0.53125 
Q 36.96875 -1.421875 32.421875 -1.421875 
Q 20.0625 -1.421875 12.78125 6.34375 
Q 5.515625 14.109375 5.515625 27.296875 
Q 5.515625 40.671875 12.859375 48.328125 
Q 20.21875 56 33.015625 56 
Q 37.15625 56 41.109375 55.140625 
Q 45.0625 54.296875 48.78125 52.59375 
z
" id="DejaVuSans-99"/>
      <path d="M 18.3125 70.21875 
L 18.3125 54.6875 
L 36.8125 54.6875 
L 36.8125 47.703125 
L 18.3125 47.703125 
L 18.3125 18.015625 
Q 18.3125 11.328125 20.140625 9.421875 
Q 21.96875 7.515625 27.59375 7.515625 
L 36.8125 7.515625 
L 36.8125 0 
L 27.59375 0 
Q 17.1875 0 13.234375 3.875 
Q 9.28125 7.765625 9.28125 18.015625 
L 9.28125 47.703125 
L 2.6875 47.703125 
L 2.6875 54.6875 
L 9.28125 54.6875 
L 9.28125 70.21875 
z
" id="DejaVuSans-116"/>
      <path d="M 34.28125 27.484375 
Q 23.390625 27.484375 19.1875 25 
Q 14.984375 22.515625 14.984375 16.5 
Q 14.984375 11.71875 18.140625 8.90625 
Q 21.296875 6.109375 26.703125 6.109375 
Q 34.1875 6.109375 38.703125 11.40625 
Q 43.21875 16.703125 43.21875 25.484375 
L 43.21875 27.484375 
z
M 52.203125 31.203125 
L 52.203125 0 
L 43.21875 0 
L 43.21875 8.296875 
Q 40.140625 3.328125 35.546875 0.953125 
Q 30.953125 -1.421875 24.3125 -1.421875 
Q 15.921875 -1.421875 10.953125 3.296875 
Q 6 8.015625 6 15.921875 
Q 6 25.140625 12.171875 29.828125 
Q 18.359375 34.515625 30.609375 34.515625 
L 43.21875 34.515625 
L 43.21875 35.40625 
Q 43.21875 41.609375 39.140625 45 
Q 35.0625 48.390625 27.6875 48.390625 
Q 23 48.390625 18.546875 47.265625 
Q 14.109375 46.140625 10.015625 43.890625 
L 10.015625 52.203125 
Q 14.9375 54.109375 19.578125 55.046875 
Q 24.21875 56 28.609375 56 
Q 40.484375 56 46.34375 49.84375 
Q 52.203125 43.703125 52.203125 31.203125 
z
" id="DejaVuSans-97"/>
      <path d="M 54.890625 33.015625 
L 54.890625 0 
L 45.90625 0 
L 45.90625 32.71875 
Q 45.90625 40.484375 42.875 44.328125 
Q 39.84375 48.1875 33.796875 48.1875 
Q 26.515625 48.1875 22.3125 43.546875 
Q 18.109375 38.921875 18.109375 30.90625 
L 18.109375 0 
L 9.078125 0 
L 9.078125 54.6875 
L 18.109375 54.6875 
L 18.109375 46.1875 
Q 21.34375 51.125 25.703125 53.5625 
Q 30.078125 56 35.796875 56 
Q 45.21875 56 50.046875 50.171875 
Q 54.890625 44.34375 54.890625 33.015625 
z
" id="DejaVuSans-110"/>
      <path id="DejaVuSans-32"/>
      <path d="M 70.125 53.71875 
L 47.796875 31.296875 
L 70.125 8.984375 
L 64.3125 3.078125 
L 41.890625 25.484375 
L 19.484375 3.078125 
L 13.71875 8.984375 
L 35.984375 31.296875 
L 13.71875 53.71875 
L 19.484375 59.625 
L 41.890625 37.203125 
L 64.3125 59.625 
z
" id="DejaVuSans-215"/>
     </defs>
     <g transform="translate(14.798438 165.254489)rotate(-90)scale(0.1 -0.1)">
      <use transform="translate(0 0.684375)" xlink:href="#DejaVuSans-82"/>
      <use transform="translate(69.482422 0.684375)" xlink:href="#DejaVuSans-101"/>
      <use transform="translate(131.005859 0.684375)" xlink:href="#DejaVuSans-102"/>
      <use transform="translate(166.210938 0.684375)" xlink:href="#DejaVuSans-108"/>
      <use transform="translate(193.994141 0.684375)" xlink:href="#DejaVuSans-101"/>
      <use transform="translate(255.517578 0.684375)" xlink:href="#DejaVuSans-99"/>
      <use transform="translate(310.498047 0.684375)" xlink:href="#DejaVuSans-116"/>
      <use transform="translate(349.707031 0.684375)" xlink:href="#DejaVuSans-97"/>
      <use transform="translate(410.986328 0.684375)" xlink:href="#DejaVuSans-110"/>
      <use transform="translate(474.365234 0.684375)" xlink:href="#DejaVuSans-99"/>
      <use transform="translate(529.345703 0.684375)" xlink:href="#DejaVuSans-101"/>
      <use transform="translate(590.869141 0.684375)" xlink:href="#DejaVuSans-32"/>
      <use transform="translate(622.65625 0.684375)" xlink:href="#DejaVuSans-215"/>
      <use transform="translate(706.445312 0.684375)" xlink:href="#DejaVuSans-49"/>
      <use transform="translate(770.068359 0.684375)" xlink:href="#DejaVuSans-48"/>
      <use transform="translate(834.648438 38.965625)scale(0.7)" xlink:href="#DejaVuSans-53"/>
     </g>
    </g>
   </g>
   <g id="line2d_11">
    <path clip-path="url(#p8221457343)" d="M 48.063018 64.412707 
L 49.554997 43.816244 
L 51.046975 31.303249 
L 52.538954 36.741702 
L 54.030932 55.643017 
L 55.522911 75.447976 
L 57.01489 85.429429 
L 58.506868 81.09804 
L 59.998847 62.613055 
L 61.490826 37.232326 
L 62.982804 46.824542 
L 64.474783 98.391746 
L 65.966761 137.636836 
L 67.45874 161.319221 
L 68.950719 175.323631 
L 70.442697 184.166609 
L 71.934676 189.844321 
L 73.426654 193.844725 
L 74.918633 196.783078 
L 76.410612 198.936768 
L 77.90259 200.570857 
L 79.394569 201.884722 
L 80.886547 203.068248 
L 82.378526 203.99321 
L 83.870505 204.739338 
L 85.362483 205.433322 
L 86.854462 205.981456 
L 88.346441 206.480869 
L 89.838419 206.920232 
L 91.330398 207.313619 
L 92.822376 207.620827 
L 94.314355 207.918968 
L 95.806334 208.222942 
L 97.298312 208.414448 
L 98.790291 208.641203 
L 100.282269 208.836037 
L 101.774248 208.97714 
L 103.266227 209.120823 
L 104.758205 209.239109 
L 106.250184 209.206946 
L 107.742162 209.314143 
L 109.234141 209.142251 
L 110.72612 209.102923 
L 112.218098 208.65946 
L 113.710077 208.391671 
L 115.202055 206.885191 
L 116.694034 205.486381 
L 118.186013 200.818127 
L 119.677991 190.362137 
L 121.16997 190.987893 
L 122.661949 145.917976 
L 124.153927 204.785357 
L 125.645906 209.324032 
L 127.137884 210.287373 
L 128.629863 210.647523 
L 130.121842 210.825696 
L 131.61382 210.926591 
L 133.105799 210.983956 
L 134.597777 211.005728 
L 136.089756 210.996721 
L 137.581735 210.985157 
L 139.073713 210.967941 
L 140.565692 210.942373 
L 142.05767 210.90555 
L 143.549649 210.857955 
L 145.041628 210.799162 
L 146.533606 210.726614 
L 148.025585 210.641445 
L 149.517564 210.54146 
L 151.009542 210.424236 
L 152.501521 210.292248 
L 153.993499 210.137093 
L 155.485478 209.963562 
L 156.977457 209.761048 
L 158.469435 209.529197 
L 159.961414 209.268019 
L 161.453392 208.971677 
L 162.945371 208.654957 
L 164.43735 208.315776 
L 165.929328 207.951883 
L 167.421307 207.564913 
L 168.913285 207.144903 
L 170.405264 206.688743 
L 171.897243 206.194029 
L 173.389221 205.64814 
L 174.8812 205.049147 
L 176.373178 204.388913 
L 177.865157 203.655236 
L 179.357136 202.84182 
L 180.849114 201.932884 
L 182.341093 200.912252 
L 183.833072 199.765339 
L 185.32505 198.469321 
L 186.817029 196.993086 
L 188.309007 195.302342 
L 189.800986 193.352508 
L 191.292965 191.091042 
L 192.784943 188.450011 
L 194.276922 185.345097 
L 195.7689 181.668268 
L 197.260879 177.284315 
" style="fill:none;stroke:#1f77b4;stroke-linecap:square;stroke-width:1.5;"/>
   </g>
   <g id="patch_3">
    <path d="M 40.603125 219.990852 
L 40.603125 22.318125 
" style="fill:none;stroke:#000000;stroke-linecap:square;stroke-linejoin:miter;stroke-width:0.8;"/>
   </g>
   <g id="patch_4">
    <path d="M 204.720772 219.990852 
L 204.720772 22.318125 
" style="fill:none;stroke:#000000;stroke-linecap:square;stroke-linejoin:miter;stroke-width:0.8;"/>
   </g>
   <g id="patch_5">
    <path d="M 40.603125 219.990852 
L 204.720772 219.990852 
" style="fill:none;stroke:#000000;stroke-linecap:square;stroke-linejoin:miter;stroke-width:0.8;"/>
   </g>
   <g id="patch_6">
    <path d="M 40.603125 22.318125 
L 204.720772 22.318125 
" style="fill:none;stroke:#000000;stroke-linecap:square;stroke-linejoin:miter;stroke-width:0.8;"/>
   </g>
   <g id="text_12">
    <!-- Roughness -->
    <defs>
     <path d="M 30.609375 48.390625 
Q 23.390625 48.390625 19.1875 42.75 
Q 14.984375 37.109375 14.984375 27.296875 
Q 14.984375 17.484375 19.15625 11.84375 
Q 23.34375 6.203125 30.609375 6.203125 
Q 37.796875 6.203125 41.984375 11.859375 
Q 46.1875 17.53125 46.1875 27.296875 
Q 46.1875 37.015625 41.984375 42.703125 
Q 37.796875 48.390625 30.609375 48.390625 
z
M 30.609375 56 
Q 42.328125 56 49.015625 48.375 
Q 55.71875 40.765625 55.71875 27.296875 
Q 55.71875 13.875 49.015625 6.21875 
Q 42.328125 -1.421875 30.609375 -1.421875 
Q 18.84375 -1.421875 12.171875 6.21875 
Q 5.515625 13.875 5.515625 27.296875 
Q 5.515625 40.765625 12.171875 48.375 
Q 18.84375 56 30.609375 56 
z
" id="DejaVuSans-111"/>
     <path d="M 8.5 21.578125 
L 8.5 54.6875 
L 17.484375 54.6875 
L 17.484375 21.921875 
Q 17.484375 14.15625 20.5 10.265625 
Q 23.53125 6.390625 29.59375 6.390625 
Q 36.859375 6.390625 41.078125 11.03125 
Q 45.3125 15.671875 45.3125 23.6875 
L 45.3125 54.6875 
L 54.296875 54.6875 
L 54.296875 0 
L 45.3125 0 
L 45.3125 8.40625 
Q 42.046875 3.421875 37.71875 1 
Q 33.40625 -1.421875 27.6875 -1.421875 
Q 18.265625 -1.421875 13.375 4.4375 
Q 8.5 10.296875 8.5 21.578125 
z
M 31.109375 56 
z
" id="DejaVuSans-117"/>
     <path d="M 45.40625 27.984375 
Q 45.40625 37.75 41.375 43.109375 
Q 37.359375 48.484375 30.078125 48.484375 
Q 22.859375 48.484375 18.828125 43.109375 
Q 14.796875 37.75 14.796875 27.984375 
Q 14.796875 18.265625 18.828125 12.890625 
Q 22.859375 7.515625 30.078125 7.515625 
Q 37.359375 7.515625 41.375 12.890625 
Q 45.40625 18.265625 45.40625 27.984375 
z
M 54.390625 6.78125 
Q 54.390625 -7.171875 48.1875 -13.984375 
Q 42 -20.796875 29.203125 -20.796875 
Q 24.46875 -20.796875 20.265625 -20.09375 
Q 16.0625 -19.390625 12.109375 -17.921875 
L 12.109375 -9.1875 
Q 16.0625 -11.328125 19.921875 -12.34375 
Q 23.78125 -13.375 27.78125 -13.375 
Q 36.625 -13.375 41.015625 -8.765625 
Q 45.40625 -4.15625 45.40625 5.171875 
L 45.40625 9.625 
Q 42.625 4.78125 38.28125 2.390625 
Q 33.9375 0 27.875 0 
Q 17.828125 0 11.671875 7.65625 
Q 5.515625 15.328125 5.515625 27.984375 
Q 5.515625 40.671875 11.671875 48.328125 
Q 17.828125 56 27.875 56 
Q 33.9375 56 38.28125 53.609375 
Q 42.625 51.21875 45.40625 46.390625 
L 45.40625 54.6875 
L 54.390625 54.6875 
z
" id="DejaVuSans-103"/>
     <path d="M 54.890625 33.015625 
L 54.890625 0 
L 45.90625 0 
L 45.90625 32.71875 
Q 45.90625 40.484375 42.875 44.328125 
Q 39.84375 48.1875 33.796875 48.1875 
Q 26.515625 48.1875 22.3125 43.546875 
Q 18.109375 38.921875 18.109375 30.90625 
L 18.109375 0 
L 9.078125 0 
L 9.078125 75.984375 
L 18.109375 75.984375 
L 18.109375 46.1875 
Q 21.34375 51.125 25.703125 53.5625 
Q 30.078125 56 35.796875 56 
Q 45.21875 56 50.046875 50.171875 
Q 54.890625 44.34375 54.890625 33.015625 
z
" id="DejaVuSans-104"/>
     <path d="M 44.28125 53.078125 
L 44.28125 44.578125 
Q 40.484375 46.53125 36.375 47.5 
Q 32.28125 48.484375 27.875 48.484375 
Q 21.1875 48.484375 17.84375 46.4375 
Q 14.5 44.390625 14.5 40.28125 
Q 14.5 37.15625 16.890625 35.375 
Q 19.28125 33.59375 26.515625 31.984375 
L 29.59375 31.296875 
Q 39.15625 29.25 43.1875 25.515625 
Q 47.21875 21.78125 47.21875 15.09375 
Q 47.21875 7.46875 41.1875 3.015625 
Q 35.15625 -1.421875 24.609375 -1.421875 
Q 20.21875 -1.421875 15.453125 -0.5625 
Q 10.6875 0.296875 5.421875 2 
L 5.421875 11.28125 
Q 10.40625 8.6875 15.234375 7.390625 
Q 20.0625 6.109375 24.8125 6.109375 
Q 31.15625 6.109375 34.5625 8.28125 
Q 37.984375 10.453125 37.984375 14.40625 
Q 37.984375 18.0625 35.515625 20.015625 
Q 33.0625 21.96875 24.703125 23.78125 
L 21.578125 24.515625 
Q 13.234375 26.265625 9.515625 29.90625 
Q 5.8125 33.546875 5.8125 39.890625 
Q 5.8125 47.609375 11.28125 51.796875 
Q 16.75 56 26.8125 56 
Q 31.78125 56 36.171875 55.265625 
Q 40.578125 54.546875 44.28125 53.078125 
z
" id="DejaVuSans-115"/>
    </defs>
    <g transform="translate(89.931949 16.318125)scale(0.12 -0.12)">
     <use xlink:href="#DejaVuSans-82"/>
     <use x="64.982422" xlink:href="#DejaVuSans-111"/>
     <use x="126.164062" xlink:href="#DejaVuSans-117"/>
     <use x="189.542969" xlink:href="#DejaVuSans-103"/>
     <use x="253.019531" xlink:href="#DejaVuSans-104"/>
     <use x="316.398438" xlink:href="#DejaVuSans-110"/>
     <use x="379.777344" xlink:href="#DejaVuSans-101"/>
     <use x="441.300781" xlink:href="#DejaVuSans-115"/>
     <use x="493.400391" xlink:href="#DejaVuSans-115"/>
    </g>
   </g>
  </g>
  <g id="axes_2">
   <g id="patch_7">
    <path d="M 237.544301 219.990852 
L 401.661949 219.990852 
L 401.661949 22.318125 
L 237.544301 22.318125 
z
" style="fill:#ffffff;"/>
   </g>
   <g id="matplotlib.axis_3">
    <g id="xtick_6">
     <g id="line2d_12">
      <g>
       <use style="stroke:#000000;stroke-width:0.8;" x="245.004195" xlink:href="#m53659c5555" y="219.990852"/>
      </g>
     </g>
     <g id="text_13">
      <!-- 0.40 -->
      <g transform="translate(233.871382 234.58929)scale(0.1 -0.1)">
       <use xlink:href="#DejaVuSans-48"/>
       <use x="63.623047" xlink:href="#DejaVuSans-46"/>
       <use x="95.410156" xlink:href="#DejaVuSans-52"/>
       <use x="159.033203" xlink:href="#DejaVuSans-48"/>
      </g>
     </g>
    </g>
    <g id="xtick_7">
     <g id="line2d_13">
      <g>
       <use style="stroke:#000000;stroke-width:0.8;" x="282.30366" xlink:href="#m53659c5555" y="219.990852"/>
      </g>
     </g>
     <g id="text_14">
      <!-- 0.45 -->
      <g transform="translate(271.170847 234.58929)scale(0.1 -0.1)">
       <use xlink:href="#DejaVuSans-48"/>
       <use x="63.623047" xlink:href="#DejaVuSans-46"/>
       <use x="95.410156" xlink:href="#DejaVuSans-52"/>
       <use x="159.033203" xlink:href="#DejaVuSans-53"/>
      </g>
     </g>
    </g>
    <g id="xtick_8">
     <g id="line2d_14">
      <g>
       <use style="stroke:#000000;stroke-width:0.8;" x="319.603125" xlink:href="#m53659c5555" y="219.990852"/>
      </g>
     </g>
     <g id="text_15">
      <!-- 0.50 -->
      <g transform="translate(308.470312 234.58929)scale(0.1 -0.1)">
       <use xlink:href="#DejaVuSans-48"/>
       <use x="63.623047" xlink:href="#DejaVuSans-46"/>
       <use x="95.410156" xlink:href="#DejaVuSans-53"/>
       <use x="159.033203" xlink:href="#DejaVuSans-48"/>
      </g>
     </g>
    </g>
    <g id="xtick_9">
     <g id="line2d_15">
      <g>
       <use style="stroke:#000000;stroke-width:0.8;" x="356.90259" xlink:href="#m53659c5555" y="219.990852"/>
      </g>
     </g>
     <g id="text_16">
      <!-- 0.55 -->
      <g transform="translate(345.769778 234.58929)scale(0.1 -0.1)">
       <use xlink:href="#DejaVuSans-48"/>
       <use x="63.623047" xlink:href="#DejaVuSans-46"/>
       <use x="95.410156" xlink:href="#DejaVuSans-53"/>
       <use x="159.033203" xlink:href="#DejaVuSans-53"/>
      </g>
     </g>
    </g>
    <g id="xtick_10">
     <g id="line2d_16">
      <g>
       <use style="stroke:#000000;stroke-width:0.8;" x="394.202055" xlink:href="#m53659c5555" y="219.990852"/>
      </g>
     </g>
     <g id="text_17">
      <!-- 0.60 -->
      <g transform="translate(383.069243 234.58929)scale(0.1 -0.1)">
       <use xlink:href="#DejaVuSans-48"/>
       <use x="63.623047" xlink:href="#DejaVuSans-46"/>
       <use x="95.410156" xlink:href="#DejaVuSans-54"/>
       <use x="159.033203" xlink:href="#DejaVuSans-48"/>
      </g>
     </g>
    </g>
   </g>
   <g id="matplotlib.axis_4">
    <g id="ytick_6">
     <g id="line2d_17">
      <g>
       <use style="stroke:#000000;stroke-width:0.8;" x="237.544301" xlink:href="#m74c25ec36d" y="211.161806"/>
      </g>
     </g>
     <g id="text_18">
      <!-- 0 -->
      <g transform="translate(224.181801 214.961025)scale(0.1 -0.1)">
       <use xlink:href="#DejaVuSans-48"/>
      </g>
     </g>
    </g>
    <g id="ytick_7">
     <g id="line2d_18">
      <g>
       <use style="stroke:#000000;stroke-width:0.8;" x="237.544301" xlink:href="#m74c25ec36d" y="172.01644"/>
      </g>
     </g>
     <g id="text_19">
      <!-- 1 -->
      <g transform="translate(224.181801 175.815659)scale(0.1 -0.1)">
       <use xlink:href="#DejaVuSans-49"/>
      </g>
     </g>
    </g>
    <g id="ytick_8">
     <g id="line2d_19">
      <g>
       <use style="stroke:#000000;stroke-width:0.8;" x="237.544301" xlink:href="#m74c25ec36d" y="132.871073"/>
      </g>
     </g>
     <g id="text_20">
      <!-- 2 -->
      <g transform="translate(224.181801 136.670292)scale(0.1 -0.1)">
       <use xlink:href="#DejaVuSans-50"/>
      </g>
     </g>
    </g>
    <g id="ytick_9">
     <g id="line2d_20">
      <g>
       <use style="stroke:#000000;stroke-width:0.8;" x="237.544301" xlink:href="#m74c25ec36d" y="93.725706"/>
      </g>
     </g>
     <g id="text_21">
      <!-- 3 -->
      <g transform="translate(224.181801 97.524925)scale(0.1 -0.1)">
       <use xlink:href="#DejaVuSans-51"/>
      </g>
     </g>
    </g>
    <g id="ytick_10">
     <g id="line2d_21">
      <g>
       <use style="stroke:#000000;stroke-width:0.8;" x="237.544301" xlink:href="#m74c25ec36d" y="54.58034"/>
      </g>
     </g>
     <g id="text_22">
      <!-- 4 -->
      <g transform="translate(224.181801 58.379558)scale(0.1 -0.1)">
       <use xlink:href="#DejaVuSans-52"/>
      </g>
     </g>
    </g>
   </g>
   <g id="line2d_22">
    <path clip-path="url(#pb610d6ffea)" d="M 245.004195 127.032944 
L 246.496173 143.976872 
L 247.988152 146.93446 
L 249.48013 133.83081 
L 250.972109 115.760378 
L 252.464088 105.643278 
L 253.956066 108.419832 
L 255.448045 124.006708 
L 256.940023 147.297489 
L 258.432002 154.099423 
L 259.923981 106.96393 
L 261.415959 51.230982 
L 262.907938 31.303249 
L 264.399916 33.096417 
L 265.891895 42.462671 
L 267.383874 53.467058 
L 268.875852 64.636309 
L 270.367831 74.960248 
L 271.859809 84.714497 
L 273.351788 93.787658 
L 274.843767 102.019908 
L 276.335745 109.751771 
L 277.827724 116.549247 
L 279.319703 123.170196 
L 280.811681 129.227294 
L 282.30366 134.581493 
L 283.795638 139.777182 
L 285.287617 144.576985 
L 286.779596 148.80849 
L 288.271574 153.014765 
L 289.763553 156.940452 
L 291.255531 160.329905 
L 292.74751 163.708378 
L 294.239489 166.950475 
L 295.731467 169.638659 
L 297.223446 172.578442 
L 298.715424 175.049589 
L 300.207403 177.336465 
L 301.699382 179.814394 
L 303.19136 181.828978 
L 304.683339 183.853609 
L 306.175318 185.724759 
L 307.667296 187.447106 
L 309.159275 189.23938 
L 310.651253 190.66307 
L 312.143232 192.338853 
L 313.635211 193.857622 
L 315.127189 195.414806 
L 316.619168 197.377143 
L 318.111146 201.372432 
L 319.603125 199.781519 
L 321.095104 194.501594 
L 322.587082 196.739222 
L 324.079061 198.261678 
L 325.571039 199.454359 
L 327.063018 200.46569 
L 328.554997 201.357644 
L 330.046975 202.15936 
L 331.538954 202.875662 
L 333.030932 203.484766 
L 334.522911 204.042043 
L 336.01489 204.567008 
L 337.506868 205.060306 
L 338.998847 205.518248 
L 340.490826 205.949577 
L 341.982804 206.347926 
L 343.474783 206.72268 
L 344.966761 207.068078 
L 346.45874 207.394064 
L 347.950719 207.691285 
L 349.442697 207.971943 
L 350.934676 208.226714 
L 352.426654 208.462001 
L 353.918633 208.677166 
L 355.410612 208.866576 
L 356.90259 209.035448 
L 358.394569 209.182108 
L 359.886547 209.314645 
L 361.378526 209.442358 
L 362.870505 209.565199 
L 364.362483 209.685484 
L 365.854462 209.802726 
L 367.346441 209.915023 
L 368.838419 210.023686 
L 370.330398 210.128004 
L 371.822376 210.227408 
L 373.314355 210.322458 
L 374.806334 210.412711 
L 376.298312 210.498083 
L 377.790291 210.578718 
L 379.282269 210.65423 
L 380.774248 210.724403 
L 382.266227 210.788806 
L 383.758205 210.847097 
L 385.250184 210.898581 
L 386.742162 210.942192 
L 388.234141 210.976338 
L 389.72612 210.998667 
L 391.218098 211.005728 
L 392.710077 210.992613 
L 394.202055 210.952492 
" style="fill:none;stroke:#1f77b4;stroke-linecap:square;stroke-width:1.5;"/>
   </g>
   <g id="patch_8">
    <path d="M 237.544301 219.990852 
L 237.544301 22.318125 
" style="fill:none;stroke:#000000;stroke-linecap:square;stroke-linejoin:miter;stroke-width:0.8;"/>
   </g>
   <g id="patch_9">
    <path d="M 401.661949 219.990852 
L 401.661949 22.318125 
" style="fill:none;stroke:#000000;stroke-linecap:square;stroke-linejoin:miter;stroke-width:0.8;"/>
   </g>
   <g id="patch_10">
    <path d="M 237.544301 219.990852 
L 401.661949 219.990852 
" style="fill:none;stroke:#000000;stroke-linecap:square;stroke-linejoin:miter;stroke-width:0.8;"/>
   </g>
   <g id="patch_11">
    <path d="M 237.544301 22.318125 
L 401.661949 22.318125 
" style="fill:none;stroke:#000000;stroke-linecap:square;stroke-linejoin:miter;stroke-width:0.8;"/>
   </g>
   <g id="text_23">
    <!-- Particle -->
    <defs>
     <path d="M 19.671875 64.796875 
L 19.671875 37.40625 
L 32.078125 37.40625 
Q 38.96875 37.40625 42.71875 40.96875 
Q 46.484375 44.53125 46.484375 51.125 
Q 46.484375 57.671875 42.71875 61.234375 
Q 38.96875 64.796875 32.078125 64.796875 
z
M 9.8125 72.90625 
L 32.078125 72.90625 
Q 44.34375 72.90625 50.609375 67.359375 
Q 56.890625 61.8125 56.890625 51.125 
Q 56.890625 40.328125 50.609375 34.8125 
Q 44.34375 29.296875 32.078125 29.296875 
L 19.671875 29.296875 
L 19.671875 0 
L 9.8125 0 
z
" id="DejaVuSans-80"/>
     <path d="M 41.109375 46.296875 
Q 39.59375 47.171875 37.8125 47.578125 
Q 36.03125 48 33.890625 48 
Q 26.265625 48 22.1875 43.046875 
Q 18.109375 38.09375 18.109375 28.8125 
L 18.109375 0 
L 9.078125 0 
L 9.078125 54.6875 
L 18.109375 54.6875 
L 18.109375 46.1875 
Q 20.953125 51.171875 25.484375 53.578125 
Q 30.03125 56 36.53125 56 
Q 37.453125 56 38.578125 55.875 
Q 39.703125 55.765625 41.0625 55.515625 
z
" id="DejaVuSans-114"/>
     <path d="M 9.421875 54.6875 
L 18.40625 54.6875 
L 18.40625 0 
L 9.421875 0 
z
M 9.421875 75.984375 
L 18.40625 75.984375 
L 18.40625 64.59375 
L 9.421875 64.59375 
z
" id="DejaVuSans-105"/>
    </defs>
    <g transform="translate(297.435 16.318125)scale(0.12 -0.12)">
     <use xlink:href="#DejaVuSans-80"/>
     <use x="55.802734" xlink:href="#DejaVuSans-97"/>
     <use x="117.082031" xlink:href="#DejaVuSans-114"/>
     <use x="158.195312" xlink:href="#DejaVuSans-116"/>
     <use x="197.404297" xlink:href="#DejaVuSans-105"/>
     <use x="225.1875" xlink:href="#DejaVuSans-99"/>
     <use x="280.167969" xlink:href="#DejaVuSans-108"/>
     <use x="307.951172" xlink:href="#DejaVuSans-101"/>
    </g>
   </g>
  </g>
  <g id="axes_3">
   <g id="patch_12">
    <path d="M 434.485478 219.990852 
L 598.603125 219.990852 
L 598.603125 22.318125 
L 434.485478 22.318125 
z
" style="fill:#ffffff;"/>
   </g>
   <g id="matplotlib.axis_5">
    <g id="xtick_11">
     <g id="line2d_23">
      <g>
       <use style="stroke:#000000;stroke-width:0.8;" x="441.945371" xlink:href="#m53659c5555" y="219.990852"/>
      </g>
     </g>
     <g id="text_24">
      <!-- 0.40 -->
      <g transform="translate(430.812558 234.58929)scale(0.1 -0.1)">
       <use xlink:href="#DejaVuSans-48"/>
       <use x="63.623047" xlink:href="#DejaVuSans-46"/>
       <use x="95.410156" xlink:href="#DejaVuSans-52"/>
       <use x="159.033203" xlink:href="#DejaVuSans-48"/>
      </g>
     </g>
    </g>
    <g id="xtick_12">
     <g id="line2d_24">
      <g>
       <use style="stroke:#000000;stroke-width:0.8;" x="479.244836" xlink:href="#m53659c5555" y="219.990852"/>
      </g>
     </g>
     <g id="text_25">
      <!-- 0.45 -->
      <g transform="translate(468.112024 234.58929)scale(0.1 -0.1)">
       <use xlink:href="#DejaVuSans-48"/>
       <use x="63.623047" xlink:href="#DejaVuSans-46"/>
       <use x="95.410156" xlink:href="#DejaVuSans-52"/>
       <use x="159.033203" xlink:href="#DejaVuSans-53"/>
      </g>
     </g>
    </g>
    <g id="xtick_13">
     <g id="line2d_25">
      <g>
       <use style="stroke:#000000;stroke-width:0.8;" x="516.544301" xlink:href="#m53659c5555" y="219.990852"/>
      </g>
     </g>
     <g id="text_26">
      <!-- 0.50 -->
      <g transform="translate(505.411489 234.58929)scale(0.1 -0.1)">
       <use xlink:href="#DejaVuSans-48"/>
       <use x="63.623047" xlink:href="#DejaVuSans-46"/>
       <use x="95.410156" xlink:href="#DejaVuSans-53"/>
       <use x="159.033203" xlink:href="#DejaVuSans-48"/>
      </g>
     </g>
    </g>
    <g id="xtick_14">
     <g id="line2d_26">
      <g>
       <use style="stroke:#000000;stroke-width:0.8;" x="553.843767" xlink:href="#m53659c5555" y="219.990852"/>
      </g>
     </g>
     <g id="text_27">
      <!-- 0.55 -->
      <g transform="translate(542.710954 234.58929)scale(0.1 -0.1)">
       <use xlink:href="#DejaVuSans-48"/>
       <use x="63.623047" xlink:href="#DejaVuSans-46"/>
       <use x="95.410156" xlink:href="#DejaVuSans-53"/>
       <use x="159.033203" xlink:href="#DejaVuSans-53"/>
      </g>
     </g>
    </g>
    <g id="xtick_15">
     <g id="line2d_27">
      <g>
       <use style="stroke:#000000;stroke-width:0.8;" x="591.143232" xlink:href="#m53659c5555" y="219.990852"/>
      </g>
     </g>
     <g id="text_28">
      <!-- 0.60 -->
      <g transform="translate(580.010419 234.58929)scale(0.1 -0.1)">
       <use xlink:href="#DejaVuSans-48"/>
       <use x="63.623047" xlink:href="#DejaVuSans-46"/>
       <use x="95.410156" xlink:href="#DejaVuSans-54"/>
       <use x="159.033203" xlink:href="#DejaVuSans-48"/>
      </g>
     </g>
    </g>
   </g>
   <g id="matplotlib.axis_6">
    <g id="ytick_11">
     <g id="line2d_28">
      <g>
       <use style="stroke:#000000;stroke-width:0.8;" x="434.485478" xlink:href="#m74c25ec36d" y="214.370099"/>
      </g>
     </g>
     <g id="text_29">
      <!-- 0 -->
      <g transform="translate(421.122978 218.169318)scale(0.1 -0.1)">
       <use xlink:href="#DejaVuSans-48"/>
      </g>
     </g>
    </g>
    <g id="ytick_12">
     <g id="line2d_29">
      <g>
       <use style="stroke:#000000;stroke-width:0.8;" x="434.485478" xlink:href="#m74c25ec36d" y="180.477361"/>
      </g>
     </g>
     <g id="text_30">
      <!-- 20 -->
      <g transform="translate(414.760478 184.27658)scale(0.1 -0.1)">
       <use xlink:href="#DejaVuSans-50"/>
       <use x="63.623047" xlink:href="#DejaVuSans-48"/>
      </g>
     </g>
    </g>
    <g id="ytick_13">
     <g id="line2d_30">
      <g>
       <use style="stroke:#000000;stroke-width:0.8;" x="434.485478" xlink:href="#m74c25ec36d" y="146.584624"/>
      </g>
     </g>
     <g id="text_31">
      <!-- 40 -->
      <g transform="translate(414.760478 150.383843)scale(0.1 -0.1)">
       <use xlink:href="#DejaVuSans-52"/>
       <use x="63.623047" xlink:href="#DejaVuSans-48"/>
      </g>
     </g>
    </g>
    <g id="ytick_14">
     <g id="line2d_31">
      <g>
       <use style="stroke:#000000;stroke-width:0.8;" x="434.485478" xlink:href="#m74c25ec36d" y="112.691887"/>
      </g>
     </g>
     <g id="text_32">
      <!-- 60 -->
      <g transform="translate(414.760478 116.491105)scale(0.1 -0.1)">
       <use xlink:href="#DejaVuSans-54"/>
       <use x="63.623047" xlink:href="#DejaVuSans-48"/>
      </g>
     </g>
    </g>
    <g id="ytick_15">
     <g id="line2d_32">
      <g>
       <use style="stroke:#000000;stroke-width:0.8;" x="434.485478" xlink:href="#m74c25ec36d" y="78.799149"/>
      </g>
     </g>
     <g id="text_33">
      <!-- 80 -->
      <defs>
       <path d="M 31.78125 34.625 
Q 24.75 34.625 20.71875 30.859375 
Q 16.703125 27.09375 16.703125 20.515625 
Q 16.703125 13.921875 20.71875 10.15625 
Q 24.75 6.390625 31.78125 6.390625 
Q 38.8125 6.390625 42.859375 10.171875 
Q 46.921875 13.96875 46.921875 20.515625 
Q 46.921875 27.09375 42.890625 30.859375 
Q 38.875 34.625 31.78125 34.625 
z
M 21.921875 38.8125 
Q 15.578125 40.375 12.03125 44.71875 
Q 8.5 49.078125 8.5 55.328125 
Q 8.5 64.0625 14.71875 69.140625 
Q 20.953125 74.21875 31.78125 74.21875 
Q 42.671875 74.21875 48.875 69.140625 
Q 55.078125 64.0625 55.078125 55.328125 
Q 55.078125 49.078125 51.53125 44.71875 
Q 48 40.375 41.703125 38.8125 
Q 48.828125 37.15625 52.796875 32.3125 
Q 56.78125 27.484375 56.78125 20.515625 
Q 56.78125 9.90625 50.3125 4.234375 
Q 43.84375 -1.421875 31.78125 -1.421875 
Q 19.734375 -1.421875 13.25 4.234375 
Q 6.78125 9.90625 6.78125 20.515625 
Q 6.78125 27.484375 10.78125 32.3125 
Q 14.796875 37.15625 21.921875 38.8125 
z
M 18.3125 54.390625 
Q 18.3125 48.734375 21.84375 45.5625 
Q 25.390625 42.390625 31.78125 42.390625 
Q 38.140625 42.390625 41.71875 45.5625 
Q 45.3125 48.734375 45.3125 54.390625 
Q 45.3125 60.0625 41.71875 63.234375 
Q 38.140625 66.40625 31.78125 66.40625 
Q 25.390625 66.40625 21.84375 63.234375 
Q 18.3125 60.0625 18.3125 54.390625 
z
" id="DejaVuSans-56"/>
      </defs>
      <g transform="translate(414.760478 82.598368)scale(0.1 -0.1)">
       <use xlink:href="#DejaVuSans-56"/>
       <use x="63.623047" xlink:href="#DejaVuSans-48"/>
      </g>
     </g>
    </g>
    <g id="ytick_16">
     <g id="line2d_33">
      <g>
       <use style="stroke:#000000;stroke-width:0.8;" x="434.485478" xlink:href="#m74c25ec36d" y="44.906412"/>
      </g>
     </g>
     <g id="text_34">
      <!-- 100 -->
      <g transform="translate(408.397978 48.705631)scale(0.1 -0.1)">
       <use xlink:href="#DejaVuSans-49"/>
       <use x="63.623047" xlink:href="#DejaVuSans-48"/>
       <use x="127.246094" xlink:href="#DejaVuSans-48"/>
      </g>
     </g>
    </g>
   </g>
   <g id="line2d_34">
    <path clip-path="url(#p74ed83ef0d)" d="M 441.945371 118.645439 
L 443.43735 103.809629 
L 444.929328 87.492283 
L 446.421307 90.989809 
L 447.913285 108.007522 
L 449.405264 127.300992 
L 450.897243 138.370234 
L 452.389221 141.070134 
L 453.8812 130.653376 
L 455.373178 95.838016 
L 456.865157 78.146505 
L 458.357136 111.307312 
L 459.849114 142.922328 
L 461.341093 164.876663 
L 462.833072 178.984766 
L 464.32505 188.175373 
L 465.817029 193.988343 
L 467.309007 198.153397 
L 468.800986 201.172324 
L 470.292965 203.258843 
L 471.784943 204.7009 
L 473.276922 205.821411 
L 474.7689 207.004449 
L 476.260879 207.783528 
L 477.752858 208.2931 
L 479.244836 208.890589 
L 480.736815 209.2368 
L 482.228793 209.538425 
L 483.720772 209.833587 
L 485.212751 210.094331 
L 486.704729 210.120905 
L 488.196708 210.256023 
L 489.688686 210.51059 
L 491.180665 210.376878 
L 492.672644 210.522858 
L 494.164622 210.58126 
L 495.656601 210.517887 
L 497.14858 210.547521 
L 498.640558 210.509991 
L 500.132537 210.194451 
L 501.624515 210.218154 
L 503.116494 209.732883 
L 504.608473 209.547284 
L 506.100451 208.737218 
L 507.59243 208.266957 
L 509.084408 206.195381 
L 510.576387 204.267729 
L 512.068366 198.58651 
L 513.560344 185.79099 
L 515.052323 170.07974 
L 516.544301 31.303249 
L 518.03628 194.019292 
L 519.528259 207.202614 
L 521.020237 209.828961 
L 522.512216 210.650569 
L 524.004195 210.937411 
L 525.496173 211.005728 
L 526.988152 210.952313 
L 528.48013 210.779713 
L 529.972109 210.486289 
L 531.464088 210.237257 
L 532.956066 210.012092 
L 534.448045 209.791447 
L 535.940023 209.556175 
L 537.432002 209.310504 
L 538.923981 209.050394 
L 540.415959 208.767288 
L 541.907938 208.465908 
L 543.399916 208.141543 
L 544.891895 207.779763 
L 546.383874 207.400279 
L 547.875852 206.962769 
L 549.367831 206.493052 
L 550.859809 205.948762 
L 552.351788 205.324833 
L 553.843767 204.627563 
L 555.335745 203.84108 
L 556.827724 203.037138 
L 558.319703 202.229311 
L 559.811681 201.417042 
L 561.30366 200.612661 
L 562.795638 199.788341 
L 564.287617 198.937261 
L 565.779596 198.060707 
L 567.271574 197.130709 
L 568.763553 196.149727 
L 570.255531 195.107455 
L 571.74751 193.984123 
L 573.239489 192.77722 
L 574.731467 191.465278 
L 576.223446 190.02778 
L 577.715424 188.450729 
L 579.207403 186.705283 
L 580.699382 184.755081 
L 582.19136 182.562759 
L 583.683339 180.081655 
L 585.175318 177.263725 
L 586.667296 174.049943 
L 588.159275 170.370885 
L 589.651253 166.137337 
L 591.143232 161.237971 
" style="fill:none;stroke:#1f77b4;stroke-linecap:square;stroke-width:1.5;"/>
   </g>
   <g id="patch_13">
    <path d="M 434.485478 219.990852 
L 434.485478 22.318125 
" style="fill:none;stroke:#000000;stroke-linecap:square;stroke-linejoin:miter;stroke-width:0.8;"/>
   </g>
   <g id="patch_14">
    <path d="M 598.603125 219.990852 
L 598.603125 22.318125 
" style="fill:none;stroke:#000000;stroke-linecap:square;stroke-linejoin:miter;stroke-width:0.8;"/>
   </g>
   <g id="patch_15">
    <path d="M 434.485478 219.990852 
L 598.603125 219.990852 
" style="fill:none;stroke:#000000;stroke-linecap:square;stroke-linejoin:miter;stroke-width:0.8;"/>
   </g>
   <g id="patch_16">
    <path d="M 434.485478 22.318125 
L 598.603125 22.318125 
" style="fill:none;stroke:#000000;stroke-linecap:square;stroke-linejoin:miter;stroke-width:0.8;"/>
   </g>
   <g id="text_35">
    <!-- Volume -->
    <defs>
     <path d="M 28.609375 0 
L 0.78125 72.90625 
L 11.078125 72.90625 
L 34.1875 11.53125 
L 57.328125 72.90625 
L 67.578125 72.90625 
L 39.796875 0 
z
" id="DejaVuSans-86"/>
     <path d="M 52 44.1875 
Q 55.375 50.25 60.0625 53.125 
Q 64.75 56 71.09375 56 
Q 79.640625 56 84.28125 50.015625 
Q 88.921875 44.046875 88.921875 33.015625 
L 88.921875 0 
L 79.890625 0 
L 79.890625 32.71875 
Q 79.890625 40.578125 77.09375 44.375 
Q 74.3125 48.1875 68.609375 48.1875 
Q 61.625 48.1875 57.5625 43.546875 
Q 53.515625 38.921875 53.515625 30.90625 
L 53.515625 0 
L 44.484375 0 
L 44.484375 32.71875 
Q 44.484375 40.625 41.703125 44.40625 
Q 38.921875 48.1875 33.109375 48.1875 
Q 26.21875 48.1875 22.15625 43.53125 
Q 18.109375 38.875 18.109375 30.90625 
L 18.109375 0 
L 9.078125 0 
L 9.078125 54.6875 
L 18.109375 54.6875 
L 18.109375 46.1875 
Q 21.1875 51.21875 25.484375 53.609375 
Q 29.78125 56 35.6875 56 
Q 41.65625 56 45.828125 52.96875 
Q 50 49.953125 52 44.1875 
z
" id="DejaVuSans-109"/>
    </defs>
    <g transform="translate(494.228051 16.318125)scale(0.12 -0.12)">
     <use xlink:href="#DejaVuSans-86"/>
     <use x="60.658203" xlink:href="#DejaVuSans-111"/>
     <use x="121.839844" xlink:href="#DejaVuSans-108"/>
     <use x="149.623047" xlink:href="#DejaVuSans-117"/>
     <use x="213.001953" xlink:href="#DejaVuSans-109"/>
     <use x="310.414062" xlink:href="#DejaVuSans-101"/>
    </g>
   </g>
  </g>
  <g id="axes_4">
   <g id="patch_17">
    <path d="M 40.603125 457.198125 
L 204.720772 457.198125 
L 204.720772 259.525398 
L 40.603125 259.525398 
z
" style="fill:#ffffff;"/>
   </g>
   <g id="matplotlib.axis_7">
    <g id="xtick_16">
     <g id="line2d_35">
      <g>
       <use style="stroke:#000000;stroke-width:0.8;" x="48.063018" xlink:href="#m53659c5555" y="457.198125"/>
      </g>
     </g>
     <g id="text_36">
      <!-- 0.40 -->
      <g transform="translate(36.930206 471.796562)scale(0.1 -0.1)">
       <use xlink:href="#DejaVuSans-48"/>
       <use x="63.623047" xlink:href="#DejaVuSans-46"/>
       <use x="95.410156" xlink:href="#DejaVuSans-52"/>
       <use x="159.033203" xlink:href="#DejaVuSans-48"/>
      </g>
     </g>
    </g>
    <g id="xtick_17">
     <g id="line2d_36">
      <g>
       <use style="stroke:#000000;stroke-width:0.8;" x="85.362483" xlink:href="#m53659c5555" y="457.198125"/>
      </g>
     </g>
     <g id="text_37">
      <!-- 0.45 -->
      <g transform="translate(74.229671 471.796562)scale(0.1 -0.1)">
       <use xlink:href="#DejaVuSans-48"/>
       <use x="63.623047" xlink:href="#DejaVuSans-46"/>
       <use x="95.410156" xlink:href="#DejaVuSans-52"/>
       <use x="159.033203" xlink:href="#DejaVuSans-53"/>
      </g>
     </g>
    </g>
    <g id="xtick_18">
     <g id="line2d_37">
      <g>
       <use style="stroke:#000000;stroke-width:0.8;" x="122.661949" xlink:href="#m53659c5555" y="457.198125"/>
      </g>
     </g>
     <g id="text_38">
      <!-- 0.50 -->
      <g transform="translate(111.529136 471.796562)scale(0.1 -0.1)">
       <use xlink:href="#DejaVuSans-48"/>
       <use x="63.623047" xlink:href="#DejaVuSans-46"/>
       <use x="95.410156" xlink:href="#DejaVuSans-53"/>
       <use x="159.033203" xlink:href="#DejaVuSans-48"/>
      </g>
     </g>
    </g>
    <g id="xtick_19">
     <g id="line2d_38">
      <g>
       <use style="stroke:#000000;stroke-width:0.8;" x="159.961414" xlink:href="#m53659c5555" y="457.198125"/>
      </g>
     </g>
     <g id="text_39">
      <!-- 0.55 -->
      <g transform="translate(148.828601 471.796562)scale(0.1 -0.1)">
       <use xlink:href="#DejaVuSans-48"/>
       <use x="63.623047" xlink:href="#DejaVuSans-46"/>
       <use x="95.410156" xlink:href="#DejaVuSans-53"/>
       <use x="159.033203" xlink:href="#DejaVuSans-53"/>
      </g>
     </g>
    </g>
    <g id="xtick_20">
     <g id="line2d_39">
      <g>
       <use style="stroke:#000000;stroke-width:0.8;" x="197.260879" xlink:href="#m53659c5555" y="457.198125"/>
      </g>
     </g>
     <g id="text_40">
      <!-- 0.60 -->
      <g transform="translate(186.128067 471.796562)scale(0.1 -0.1)">
       <use xlink:href="#DejaVuSans-48"/>
       <use x="63.623047" xlink:href="#DejaVuSans-46"/>
       <use x="95.410156" xlink:href="#DejaVuSans-54"/>
       <use x="159.033203" xlink:href="#DejaVuSans-48"/>
      </g>
     </g>
    </g>
    <g id="text_41">
     <!-- Wavelength (m) -->
     <defs>
      <path d="M 3.328125 72.90625 
L 13.28125 72.90625 
L 28.609375 11.28125 
L 43.890625 72.90625 
L 54.984375 72.90625 
L 70.3125 11.28125 
L 85.59375 72.90625 
L 95.609375 72.90625 
L 77.296875 0 
L 64.890625 0 
L 49.515625 63.28125 
L 33.984375 0 
L 21.578125 0 
z
" id="DejaVuSans-87"/>
      <path d="M 2.984375 54.6875 
L 12.5 54.6875 
L 29.59375 8.796875 
L 46.6875 54.6875 
L 56.203125 54.6875 
L 35.6875 0 
L 23.484375 0 
z
" id="DejaVuSans-118"/>
      <path d="M 31 75.875 
Q 24.46875 64.65625 21.28125 53.65625 
Q 18.109375 42.671875 18.109375 31.390625 
Q 18.109375 20.125 21.3125 9.0625 
Q 24.515625 -2 31 -13.1875 
L 23.1875 -13.1875 
Q 15.875 -1.703125 12.234375 9.375 
Q 8.59375 20.453125 8.59375 31.390625 
Q 8.59375 42.28125 12.203125 53.3125 
Q 15.828125 64.359375 23.1875 75.875 
z
" id="DejaVuSans-40"/>
      <path d="M 8.5 -20.796875 
L 8.5 54.6875 
L 17.484375 54.6875 
L 17.484375 20.703125 
Q 17.484375 13.625 20.84375 10 
Q 24.21875 6.390625 30.8125 6.390625 
Q 38.03125 6.390625 41.671875 10.484375 
Q 45.3125 14.59375 45.3125 22.796875 
L 45.3125 54.6875 
L 54.296875 54.6875 
L 54.296875 12.59375 
Q 54.296875 9.671875 55.140625 8.28125 
Q 56 6.890625 57.8125 6.890625 
Q 58.25 6.890625 59.03125 7.15625 
Q 59.8125 7.421875 61.1875 8.015625 
L 61.1875 0.78125 
Q 59.1875 -0.34375 57.390625 -0.875 
Q 55.609375 -1.421875 53.90625 -1.421875 
Q 50.53125 -1.421875 48.53125 0.484375 
Q 46.53125 2.390625 45.796875 6.296875 
Q 43.359375 2.4375 39.8125 0.5 
Q 36.28125 -1.421875 31.5 -1.421875 
Q 26.515625 -1.421875 23.015625 0.484375 
Q 19.53125 2.390625 17.484375 6.203125 
L 17.484375 -20.796875 
z
" id="DejaVuSans-181"/>
      <path d="M 8.015625 75.875 
L 15.828125 75.875 
Q 23.140625 64.359375 26.78125 53.3125 
Q 30.421875 42.28125 30.421875 31.390625 
Q 30.421875 20.453125 26.78125 9.375 
Q 23.140625 -1.703125 15.828125 -13.1875 
L 8.015625 -13.1875 
Q 14.5 -2 17.703125 9.0625 
Q 20.90625 20.125 20.90625 31.390625 
Q 20.90625 42.671875 17.703125 53.65625 
Q 14.5 64.65625 8.015625 75.875 
z
" id="DejaVuSans-41"/>
     </defs>
     <g transform="translate(79.457261 485.474687)scale(0.1 -0.1)">
      <use xlink:href="#DejaVuSans-87"/>
      <use x="92.501953" xlink:href="#DejaVuSans-97"/>
      <use x="153.78125" xlink:href="#DejaVuSans-118"/>
      <use x="212.960938" xlink:href="#DejaVuSans-101"/>
      <use x="274.484375" xlink:href="#DejaVuSans-108"/>
      <use x="302.267578" xlink:href="#DejaVuSans-101"/>
      <use x="363.791016" xlink:href="#DejaVuSans-110"/>
      <use x="427.169922" xlink:href="#DejaVuSans-103"/>
      <use x="490.646484" xlink:href="#DejaVuSans-116"/>
      <use x="529.855469" xlink:href="#DejaVuSans-104"/>
      <use x="593.234375" xlink:href="#DejaVuSans-32"/>
      <use x="625.021484" xlink:href="#DejaVuSans-40"/>
      <use x="664.035156" xlink:href="#DejaVuSans-181"/>
      <use x="727.658203" xlink:href="#DejaVuSans-109"/>
      <use x="825.070312" xlink:href="#DejaVuSans-41"/>
     </g>
    </g>
   </g>
   <g id="matplotlib.axis_8">
    <g id="ytick_17">
     <g id="line2d_40">
      <g>
       <use style="stroke:#000000;stroke-width:0.8;" x="40.603125" xlink:href="#m74c25ec36d" y="449.135562"/>
      </g>
     </g>
     <g id="text_42">
      <!-- 0 -->
      <g transform="translate(27.240625 452.934781)scale(0.1 -0.1)">
       <use xlink:href="#DejaVuSans-48"/>
      </g>
     </g>
    </g>
    <g id="ytick_18">
     <g id="line2d_41">
      <g>
       <use style="stroke:#000000;stroke-width:0.8;" x="40.603125" xlink:href="#m74c25ec36d" y="412.619654"/>
      </g>
     </g>
     <g id="text_43">
      <!-- 10 -->
      <g transform="translate(20.878125 416.418872)scale(0.1 -0.1)">
       <use xlink:href="#DejaVuSans-49"/>
       <use x="63.623047" xlink:href="#DejaVuSans-48"/>
      </g>
     </g>
    </g>
    <g id="ytick_19">
     <g id="line2d_42">
      <g>
       <use style="stroke:#000000;stroke-width:0.8;" x="40.603125" xlink:href="#m74c25ec36d" y="376.103745"/>
      </g>
     </g>
     <g id="text_44">
      <!-- 20 -->
      <g transform="translate(20.878125 379.902964)scale(0.1 -0.1)">
       <use xlink:href="#DejaVuSans-50"/>
       <use x="63.623047" xlink:href="#DejaVuSans-48"/>
      </g>
     </g>
    </g>
    <g id="ytick_20">
     <g id="line2d_43">
      <g>
       <use style="stroke:#000000;stroke-width:0.8;" x="40.603125" xlink:href="#m74c25ec36d" y="339.587836"/>
      </g>
     </g>
     <g id="text_45">
      <!-- 30 -->
      <g transform="translate(20.878125 343.387055)scale(0.1 -0.1)">
       <use xlink:href="#DejaVuSans-51"/>
       <use x="63.623047" xlink:href="#DejaVuSans-48"/>
      </g>
     </g>
    </g>
    <g id="ytick_21">
     <g id="line2d_44">
      <g>
       <use style="stroke:#000000;stroke-width:0.8;" x="40.603125" xlink:href="#m74c25ec36d" y="303.071928"/>
      </g>
     </g>
     <g id="text_46">
      <!-- 40 -->
      <g transform="translate(20.878125 306.871146)scale(0.1 -0.1)">
       <use xlink:href="#DejaVuSans-52"/>
       <use x="63.623047" xlink:href="#DejaVuSans-48"/>
      </g>
     </g>
    </g>
    <g id="ytick_22">
     <g id="line2d_45">
      <g>
       <use style="stroke:#000000;stroke-width:0.8;" x="40.603125" xlink:href="#m74c25ec36d" y="266.556019"/>
      </g>
     </g>
     <g id="text_47">
      <!-- 50 -->
      <g transform="translate(20.878125 270.355238)scale(0.1 -0.1)">
       <use xlink:href="#DejaVuSans-53"/>
       <use x="63.623047" xlink:href="#DejaVuSans-48"/>
      </g>
     </g>
    </g>
    <g id="text_48">
     <!-- Transmittance $\times 10^5$ -->
     <defs>
      <path d="M -0.296875 72.90625 
L 61.375 72.90625 
L 61.375 64.59375 
L 35.5 64.59375 
L 35.5 0 
L 25.59375 0 
L 25.59375 64.59375 
L -0.296875 64.59375 
z
" id="DejaVuSans-84"/>
     </defs>
     <g transform="translate(14.798438 409.111761)rotate(-90)scale(0.1 -0.1)">
      <use transform="translate(0 0.684375)" xlink:href="#DejaVuSans-84"/>
      <use transform="translate(61.083984 0.684375)" xlink:href="#DejaVuSans-114"/>
      <use transform="translate(102.197266 0.684375)" xlink:href="#DejaVuSans-97"/>
      <use transform="translate(163.476562 0.684375)" xlink:href="#DejaVuSans-110"/>
      <use transform="translate(226.855469 0.684375)" xlink:href="#DejaVuSans-115"/>
      <use transform="translate(278.955078 0.684375)" xlink:href="#DejaVuSans-109"/>
      <use transform="translate(376.367188 0.684375)" xlink:href="#DejaVuSans-105"/>
      <use transform="translate(404.150391 0.684375)" xlink:href="#DejaVuSans-116"/>
      <use transform="translate(443.359375 0.684375)" xlink:href="#DejaVuSans-116"/>
      <use transform="translate(482.568359 0.684375)" xlink:href="#DejaVuSans-97"/>
      <use transform="translate(543.847656 0.684375)" xlink:href="#DejaVuSans-110"/>
      <use transform="translate(607.226562 0.684375)" xlink:href="#DejaVuSans-99"/>
      <use transform="translate(662.207031 0.684375)" xlink:href="#DejaVuSans-101"/>
      <use transform="translate(723.730469 0.684375)" xlink:href="#DejaVuSans-32"/>
      <use transform="translate(755.517578 0.684375)" xlink:href="#DejaVuSans-215"/>
      <use transform="translate(839.306641 0.684375)" xlink:href="#DejaVuSans-49"/>
      <use transform="translate(902.929688 0.684375)" xlink:href="#DejaVuSans-48"/>
      <use transform="translate(967.509766 38.965625)scale(0.7)" xlink:href="#DejaVuSans-53"/>
     </g>
    </g>
   </g>
   <g id="line2d_46">
    <path clip-path="url(#p3a6ec9f218)" d="M 48.063018 320.284505 
L 49.554997 306.203786 
L 51.046975 300.661904 
L 52.538954 307.582477 
L 54.030932 321.744623 
L 55.522911 335.306295 
L 57.01489 340.814456 
L 58.506868 349.090962 
L 59.998847 353.769533 
L 61.490826 358.110887 
L 62.982804 385.565896 
L 64.474783 405.437817 
L 65.966761 432.898554 
L 67.45874 438.615659 
L 68.950719 443.508958 
L 70.442697 445.157055 
L 71.934676 446.086933 
L 73.426654 446.700688 
L 74.918633 446.676302 
L 76.410612 447.348185 
L 77.90259 447.315234 
L 79.394569 447.786573 
L 80.886547 447.866176 
L 82.378526 448.153299 
L 83.870505 448.01185 
L 85.362483 447.893554 
L 86.854462 447.99987 
L 88.346441 448.213001 
L 89.838419 448.079093 
L 91.330398 448.05661 
L 92.822376 448.045948 
L 94.314355 447.914062 
L 95.806334 448.008357 
L 97.298312 447.996065 
L 98.790291 447.897938 
L 100.282269 447.848079 
L 101.774248 447.589244 
L 103.266227 447.797259 
L 104.758205 447.398292 
L 106.250184 447.03916 
L 107.742162 447.105067 
L 109.234141 446.980864 
L 110.72612 446.188947 
L 112.218098 445.354611 
L 113.710077 445.109073 
L 115.202055 442.970104 
L 116.694034 440.833612 
L 118.186013 443.327677 
L 119.677991 440.418235 
L 121.16997 418.524206 
L 122.661949 268.510522 
L 124.153927 426.802141 
L 125.645906 441.692677 
L 127.137884 444.21217 
L 128.629863 445.535693 
L 130.121842 446.055589 
L 131.61382 446.155307 
L 133.105799 446.460999 
L 134.597777 446.342577 
L 136.089756 446.419336 
L 137.581735 446.469634 
L 139.073713 446.225114 
L 140.565692 446.251266 
L 142.05767 446.072518 
L 143.549649 445.901404 
L 145.041628 445.973212 
L 146.533606 445.732161 
L 148.025585 445.657227 
L 149.517564 445.358555 
L 151.009542 444.929181 
L 152.501521 444.893603 
L 153.993499 444.5944 
L 155.485478 444.357302 
L 156.977457 444.420632 
L 158.469435 443.97497 
L 159.961414 443.814282 
L 161.453392 443.300132 
L 162.945371 442.820432 
L 164.43735 442.395552 
L 165.929328 442.157623 
L 167.421307 441.677248 
L 168.913285 441.117052 
L 170.405264 440.660323 
L 171.897243 440.011464 
L 173.389221 439.336872 
L 174.8812 438.512382 
L 176.373178 437.562073 
L 177.865157 436.520589 
L 179.357136 435.411946 
L 180.849114 434.159059 
L 182.341093 432.762176 
L 183.833072 431.342562 
L 185.32505 429.825719 
L 186.817029 427.994908 
L 188.309007 425.791859 
L 189.800986 422.950386 
L 191.292965 418.105346 
L 192.784943 414.105101 
L 194.276922 409.952577 
L 195.7689 403.647574 
L 197.260879 398.071046 
" style="fill:none;stroke:#1f77b4;stroke-linecap:square;stroke-width:1.5;"/>
   </g>
   <g id="patch_18">
    <path d="M 40.603125 457.198125 
L 40.603125 259.525398 
" style="fill:none;stroke:#000000;stroke-linecap:square;stroke-linejoin:miter;stroke-width:0.8;"/>
   </g>
   <g id="patch_19">
    <path d="M 204.720772 457.198125 
L 204.720772 259.525398 
" style="fill:none;stroke:#000000;stroke-linecap:square;stroke-linejoin:miter;stroke-width:0.8;"/>
   </g>
   <g id="patch_20">
    <path d="M 40.603125 457.198125 
L 204.720772 457.198125 
" style="fill:none;stroke:#000000;stroke-linecap:square;stroke-linejoin:miter;stroke-width:0.8;"/>
   </g>
   <g id="patch_21">
    <path d="M 40.603125 259.525398 
L 204.720772 259.525398 
" style="fill:none;stroke:#000000;stroke-linecap:square;stroke-linejoin:miter;stroke-width:0.8;"/>
   </g>
  </g>
  <g id="axes_5">
   <g id="patch_22">
    <path d="M 237.544301 457.198125 
L 401.661949 457.198125 
L 401.661949 259.525398 
L 237.544301 259.525398 
z
" style="fill:#ffffff;"/>
   </g>
   <g id="matplotlib.axis_9">
    <g id="xtick_21">
     <g id="line2d_47">
      <g>
       <use style="stroke:#000000;stroke-width:0.8;" x="245.004195" xlink:href="#m53659c5555" y="457.198125"/>
      </g>
     </g>
     <g id="text_49">
      <!-- 0.40 -->
      <g transform="translate(233.871382 471.796562)scale(0.1 -0.1)">
       <use xlink:href="#DejaVuSans-48"/>
       <use x="63.623047" xlink:href="#DejaVuSans-46"/>
       <use x="95.410156" xlink:href="#DejaVuSans-52"/>
       <use x="159.033203" xlink:href="#DejaVuSans-48"/>
      </g>
     </g>
    </g>
    <g id="xtick_22">
     <g id="line2d_48">
      <g>
       <use style="stroke:#000000;stroke-width:0.8;" x="282.30366" xlink:href="#m53659c5555" y="457.198125"/>
      </g>
     </g>
     <g id="text_50">
      <!-- 0.45 -->
      <g transform="translate(271.170847 471.796562)scale(0.1 -0.1)">
       <use xlink:href="#DejaVuSans-48"/>
       <use x="63.623047" xlink:href="#DejaVuSans-46"/>
       <use x="95.410156" xlink:href="#DejaVuSans-52"/>
       <use x="159.033203" xlink:href="#DejaVuSans-53"/>
      </g>
     </g>
    </g>
    <g id="xtick_23">
     <g id="line2d_49">
      <g>
       <use style="stroke:#000000;stroke-width:0.8;" x="319.603125" xlink:href="#m53659c5555" y="457.198125"/>
      </g>
     </g>
     <g id="text_51">
      <!-- 0.50 -->
      <g transform="translate(308.470312 471.796562)scale(0.1 -0.1)">
       <use xlink:href="#DejaVuSans-48"/>
       <use x="63.623047" xlink:href="#DejaVuSans-46"/>
       <use x="95.410156" xlink:href="#DejaVuSans-53"/>
       <use x="159.033203" xlink:href="#DejaVuSans-48"/>
      </g>
     </g>
    </g>
    <g id="xtick_24">
     <g id="line2d_50">
      <g>
       <use style="stroke:#000000;stroke-width:0.8;" x="356.90259" xlink:href="#m53659c5555" y="457.198125"/>
      </g>
     </g>
     <g id="text_52">
      <!-- 0.55 -->
      <g transform="translate(345.769778 471.796562)scale(0.1 -0.1)">
       <use xlink:href="#DejaVuSans-48"/>
       <use x="63.623047" xlink:href="#DejaVuSans-46"/>
       <use x="95.410156" xlink:href="#DejaVuSans-53"/>
       <use x="159.033203" xlink:href="#DejaVuSans-53"/>
      </g>
     </g>
    </g>
    <g id="xtick_25">
     <g id="line2d_51">
      <g>
       <use style="stroke:#000000;stroke-width:0.8;" x="394.202055" xlink:href="#m53659c5555" y="457.198125"/>
      </g>
     </g>
     <g id="text_53">
      <!-- 0.60 -->
      <g transform="translate(383.069243 471.796562)scale(0.1 -0.1)">
       <use xlink:href="#DejaVuSans-48"/>
       <use x="63.623047" xlink:href="#DejaVuSans-46"/>
       <use x="95.410156" xlink:href="#DejaVuSans-54"/>
       <use x="159.033203" xlink:href="#DejaVuSans-48"/>
      </g>
     </g>
    </g>
    <g id="text_54">
     <!-- Wavelength (m) -->
     <g transform="translate(276.398438 485.474687)scale(0.1 -0.1)">
      <use xlink:href="#DejaVuSans-87"/>
      <use x="92.501953" xlink:href="#DejaVuSans-97"/>
      <use x="153.78125" xlink:href="#DejaVuSans-118"/>
      <use x="212.960938" xlink:href="#DejaVuSans-101"/>
      <use x="274.484375" xlink:href="#DejaVuSans-108"/>
      <use x="302.267578" xlink:href="#DejaVuSans-101"/>
      <use x="363.791016" xlink:href="#DejaVuSans-110"/>
      <use x="427.169922" xlink:href="#DejaVuSans-103"/>
      <use x="490.646484" xlink:href="#DejaVuSans-116"/>
      <use x="529.855469" xlink:href="#DejaVuSans-104"/>
      <use x="593.234375" xlink:href="#DejaVuSans-32"/>
      <use x="625.021484" xlink:href="#DejaVuSans-40"/>
      <use x="664.035156" xlink:href="#DejaVuSans-181"/>
      <use x="727.658203" xlink:href="#DejaVuSans-109"/>
      <use x="825.070312" xlink:href="#DejaVuSans-41"/>
     </g>
    </g>
   </g>
   <g id="matplotlib.axis_10">
    <g id="ytick_23">
     <g id="line2d_52">
      <g>
       <use style="stroke:#000000;stroke-width:0.8;" x="237.544301" xlink:href="#m74c25ec36d" y="448.557812"/>
      </g>
     </g>
     <g id="text_55">
      <!-- 0.0 -->
      <g transform="translate(214.641176 452.357031)scale(0.1 -0.1)">
       <use xlink:href="#DejaVuSans-48"/>
       <use x="63.623047" xlink:href="#DejaVuSans-46"/>
       <use x="95.410156" xlink:href="#DejaVuSans-48"/>
      </g>
     </g>
    </g>
    <g id="ytick_24">
     <g id="line2d_53">
      <g>
       <use style="stroke:#000000;stroke-width:0.8;" x="237.544301" xlink:href="#m74c25ec36d" y="415.443946"/>
      </g>
     </g>
     <g id="text_56">
      <!-- 0.5 -->
      <g transform="translate(214.641176 419.243164)scale(0.1 -0.1)">
       <use xlink:href="#DejaVuSans-48"/>
       <use x="63.623047" xlink:href="#DejaVuSans-46"/>
       <use x="95.410156" xlink:href="#DejaVuSans-53"/>
      </g>
     </g>
    </g>
    <g id="ytick_25">
     <g id="line2d_54">
      <g>
       <use style="stroke:#000000;stroke-width:0.8;" x="237.544301" xlink:href="#m74c25ec36d" y="382.330079"/>
      </g>
     </g>
     <g id="text_57">
      <!-- 1.0 -->
      <g transform="translate(214.641176 386.129298)scale(0.1 -0.1)">
       <use xlink:href="#DejaVuSans-49"/>
       <use x="63.623047" xlink:href="#DejaVuSans-46"/>
       <use x="95.410156" xlink:href="#DejaVuSans-48"/>
      </g>
     </g>
    </g>
    <g id="ytick_26">
     <g id="line2d_55">
      <g>
       <use style="stroke:#000000;stroke-width:0.8;" x="237.544301" xlink:href="#m74c25ec36d" y="349.216213"/>
      </g>
     </g>
     <g id="text_58">
      <!-- 1.5 -->
      <g transform="translate(214.641176 353.015431)scale(0.1 -0.1)">
       <use xlink:href="#DejaVuSans-49"/>
       <use x="63.623047" xlink:href="#DejaVuSans-46"/>
       <use x="95.410156" xlink:href="#DejaVuSans-53"/>
      </g>
     </g>
    </g>
    <g id="ytick_27">
     <g id="line2d_56">
      <g>
       <use style="stroke:#000000;stroke-width:0.8;" x="237.544301" xlink:href="#m74c25ec36d" y="316.102346"/>
      </g>
     </g>
     <g id="text_59">
      <!-- 2.0 -->
      <g transform="translate(214.641176 319.901565)scale(0.1 -0.1)">
       <use xlink:href="#DejaVuSans-50"/>
       <use x="63.623047" xlink:href="#DejaVuSans-46"/>
       <use x="95.410156" xlink:href="#DejaVuSans-48"/>
      </g>
     </g>
    </g>
    <g id="ytick_28">
     <g id="line2d_57">
      <g>
       <use style="stroke:#000000;stroke-width:0.8;" x="237.544301" xlink:href="#m74c25ec36d" y="282.98848"/>
      </g>
     </g>
     <g id="text_60">
      <!-- 2.5 -->
      <g transform="translate(214.641176 286.787698)scale(0.1 -0.1)">
       <use xlink:href="#DejaVuSans-50"/>
       <use x="63.623047" xlink:href="#DejaVuSans-46"/>
       <use x="95.410156" xlink:href="#DejaVuSans-53"/>
      </g>
     </g>
    </g>
   </g>
   <g id="line2d_58">
    <path clip-path="url(#p2b38b73e2b)" d="M 245.004195 411.290389 
L 246.496173 418.79708 
L 247.988152 420.94369 
L 249.48013 418.275898 
L 250.972109 415.125283 
L 252.464088 414.904713 
L 253.956066 415.986195 
L 255.448045 425.041921 
L 256.940023 432.17751 
L 258.432002 433.953947 
L 259.923981 421.071757 
L 261.415959 400.303435 
L 262.907938 399.152342 
L 264.399916 364.754287 
L 265.891895 401.403926 
L 267.383874 401.773123 
L 268.875852 268.510522 
L 270.367831 344.00443 
L 271.859809 401.955605 
L 273.351788 326.105726 
L 274.843767 407.549616 
L 276.335745 415.564674 
L 277.827724 392.645247 
L 279.319703 416.411381 
L 280.811681 418.256619 
L 282.30366 398.204312 
L 283.795638 401.54442 
L 285.287617 418.344364 
L 286.779596 395.044643 
L 288.271574 409.948153 
L 289.763553 409.666306 
L 291.255531 402.090511 
L 292.74751 411.873209 
L 294.239489 417.074202 
L 295.731467 413.172542 
L 297.223446 406.453837 
L 298.715424 411.588671 
L 300.207403 400.565858 
L 301.699382 410.945641 
L 303.19136 405.717149 
L 304.683339 413.2766 
L 306.175318 415.212129 
L 307.667296 406.806093 
L 309.159275 407.866057 
L 310.651253 415.757423 
L 312.143232 411.567953 
L 313.635211 420.018905 
L 315.127189 417.468531 
L 316.619168 423.820335 
L 318.111146 432.157743 
L 319.603125 408.767893 
L 321.095104 410.630614 
L 322.587082 418.458922 
L 324.079061 415.194914 
L 325.571039 415.960608 
L 327.063018 420.251766 
L 328.554997 418.825856 
L 330.046975 424.235481 
L 331.538954 422.334023 
L 333.030932 424.065167 
L 334.522911 426.749988 
L 336.01489 424.892374 
L 337.506868 428.038868 
L 338.998847 427.776909 
L 340.490826 428.533908 
L 341.982804 431.083621 
L 343.474783 431.276381 
L 344.966761 432.485356 
L 346.45874 432.594838 
L 347.950719 431.985949 
L 349.442697 433.864743 
L 350.934676 434.425952 
L 352.426654 435.275068 
L 353.918633 437.064386 
L 355.410612 437.052445 
L 356.90259 438.098308 
L 358.394569 438.358716 
L 359.886547 438.803962 
L 361.378526 439.491554 
L 362.870505 440.514492 
L 364.362483 441.147769 
L 365.854462 441.730318 
L 367.346441 442.431586 
L 368.838419 442.969394 
L 370.330398 443.490807 
L 371.822376 443.986951 
L 373.314355 444.474204 
L 374.806334 444.941154 
L 376.298312 445.47579 
L 377.790291 445.943594 
L 379.282269 446.391297 
L 380.774248 446.817583 
L 382.266227 447.21018 
L 383.758205 447.545604 
L 385.250184 447.826496 
L 386.742162 448.044872 
L 388.234141 448.18587 
L 389.72612 448.213001 
L 391.218098 448.111352 
L 392.710077 447.748452 
L 394.202055 447.285125 
" style="fill:none;stroke:#1f77b4;stroke-linecap:square;stroke-width:1.5;"/>
   </g>
   <g id="patch_23">
    <path d="M 237.544301 457.198125 
L 237.544301 259.525398 
" style="fill:none;stroke:#000000;stroke-linecap:square;stroke-linejoin:miter;stroke-width:0.8;"/>
   </g>
   <g id="patch_24">
    <path d="M 401.661949 457.198125 
L 401.661949 259.525398 
" style="fill:none;stroke:#000000;stroke-linecap:square;stroke-linejoin:miter;stroke-width:0.8;"/>
   </g>
   <g id="patch_25">
    <path d="M 237.544301 457.198125 
L 401.661949 457.198125 
" style="fill:none;stroke:#000000;stroke-linecap:square;stroke-linejoin:miter;stroke-width:0.8;"/>
   </g>
   <g id="patch_26">
    <path d="M 237.544301 259.525398 
L 401.661949 259.525398 
" style="fill:none;stroke:#000000;stroke-linecap:square;stroke-linejoin:miter;stroke-width:0.8;"/>
   </g>
  </g>
  <g id="axes_6">
   <g id="patch_27">
    <path d="M 434.485478 457.198125 
L 598.603125 457.198125 
L 598.603125 259.525398 
L 434.485478 259.525398 
z
" style="fill:#ffffff;"/>
   </g>
   <g id="matplotlib.axis_11">
    <g id="xtick_26">
     <g id="line2d_59">
      <g>
       <use style="stroke:#000000;stroke-width:0.8;" x="441.945371" xlink:href="#m53659c5555" y="457.198125"/>
      </g>
     </g>
     <g id="text_61">
      <!-- 0.40 -->
      <g transform="translate(430.812558 471.796562)scale(0.1 -0.1)">
       <use xlink:href="#DejaVuSans-48"/>
       <use x="63.623047" xlink:href="#DejaVuSans-46"/>
       <use x="95.410156" xlink:href="#DejaVuSans-52"/>
       <use x="159.033203" xlink:href="#DejaVuSans-48"/>
      </g>
     </g>
    </g>
    <g id="xtick_27">
     <g id="line2d_60">
      <g>
       <use style="stroke:#000000;stroke-width:0.8;" x="479.244836" xlink:href="#m53659c5555" y="457.198125"/>
      </g>
     </g>
     <g id="text_62">
      <!-- 0.45 -->
      <g transform="translate(468.112024 471.796562)scale(0.1 -0.1)">
       <use xlink:href="#DejaVuSans-48"/>
       <use x="63.623047" xlink:href="#DejaVuSans-46"/>
       <use x="95.410156" xlink:href="#DejaVuSans-52"/>
       <use x="159.033203" xlink:href="#DejaVuSans-53"/>
      </g>
     </g>
    </g>
    <g id="xtick_28">
     <g id="line2d_61">
      <g>
       <use style="stroke:#000000;stroke-width:0.8;" x="516.544301" xlink:href="#m53659c5555" y="457.198125"/>
      </g>
     </g>
     <g id="text_63">
      <!-- 0.50 -->
      <g transform="translate(505.411489 471.796562)scale(0.1 -0.1)">
       <use xlink:href="#DejaVuSans-48"/>
       <use x="63.623047" xlink:href="#DejaVuSans-46"/>
       <use x="95.410156" xlink:href="#DejaVuSans-53"/>
       <use x="159.033203" xlink:href="#DejaVuSans-48"/>
      </g>
     </g>
    </g>
    <g id="xtick_29">
     <g id="line2d_62">
      <g>
       <use style="stroke:#000000;stroke-width:0.8;" x="553.843767" xlink:href="#m53659c5555" y="457.198125"/>
      </g>
     </g>
     <g id="text_64">
      <!-- 0.55 -->
      <g transform="translate(542.710954 471.796562)scale(0.1 -0.1)">
       <use xlink:href="#DejaVuSans-48"/>
       <use x="63.623047" xlink:href="#DejaVuSans-46"/>
       <use x="95.410156" xlink:href="#DejaVuSans-53"/>
       <use x="159.033203" xlink:href="#DejaVuSans-53"/>
      </g>
     </g>
    </g>
    <g id="xtick_30">
     <g id="line2d_63">
      <g>
       <use style="stroke:#000000;stroke-width:0.8;" x="591.143232" xlink:href="#m53659c5555" y="457.198125"/>
      </g>
     </g>
     <g id="text_65">
      <!-- 0.60 -->
      <g transform="translate(580.010419 471.796562)scale(0.1 -0.1)">
       <use xlink:href="#DejaVuSans-48"/>
       <use x="63.623047" xlink:href="#DejaVuSans-46"/>
       <use x="95.410156" xlink:href="#DejaVuSans-54"/>
       <use x="159.033203" xlink:href="#DejaVuSans-48"/>
      </g>
     </g>
    </g>
    <g id="text_66">
     <!-- Wavelength (m) -->
     <g transform="translate(473.339614 485.474687)scale(0.1 -0.1)">
      <use xlink:href="#DejaVuSans-87"/>
      <use x="92.501953" xlink:href="#DejaVuSans-97"/>
      <use x="153.78125" xlink:href="#DejaVuSans-118"/>
      <use x="212.960938" xlink:href="#DejaVuSans-101"/>
      <use x="274.484375" xlink:href="#DejaVuSans-108"/>
      <use x="302.267578" xlink:href="#DejaVuSans-101"/>
      <use x="363.791016" xlink:href="#DejaVuSans-110"/>
      <use x="427.169922" xlink:href="#DejaVuSans-103"/>
      <use x="490.646484" xlink:href="#DejaVuSans-116"/>
      <use x="529.855469" xlink:href="#DejaVuSans-104"/>
      <use x="593.234375" xlink:href="#DejaVuSans-32"/>
      <use x="625.021484" xlink:href="#DejaVuSans-40"/>
      <use x="664.035156" xlink:href="#DejaVuSans-181"/>
      <use x="727.658203" xlink:href="#DejaVuSans-109"/>
      <use x="825.070312" xlink:href="#DejaVuSans-41"/>
     </g>
    </g>
   </g>
   <g id="matplotlib.axis_12">
    <g id="ytick_29">
     <g id="line2d_64">
      <g>
       <use style="stroke:#000000;stroke-width:0.8;" x="434.485478" xlink:href="#m74c25ec36d" y="449.515349"/>
      </g>
     </g>
     <g id="text_67">
      <!-- 0 -->
      <g transform="translate(421.122978 453.314568)scale(0.1 -0.1)">
       <use xlink:href="#DejaVuSans-48"/>
      </g>
     </g>
    </g>
    <g id="ytick_30">
     <g id="line2d_65">
      <g>
       <use style="stroke:#000000;stroke-width:0.8;" x="434.485478" xlink:href="#m74c25ec36d" y="427.307249"/>
      </g>
     </g>
     <g id="text_68">
      <!-- 200 -->
      <g transform="translate(408.397978 431.106468)scale(0.1 -0.1)">
       <use xlink:href="#DejaVuSans-50"/>
       <use x="63.623047" xlink:href="#DejaVuSans-48"/>
       <use x="127.246094" xlink:href="#DejaVuSans-48"/>
      </g>
     </g>
    </g>
    <g id="ytick_31">
     <g id="line2d_66">
      <g>
       <use style="stroke:#000000;stroke-width:0.8;" x="434.485478" xlink:href="#m74c25ec36d" y="405.09915"/>
      </g>
     </g>
     <g id="text_69">
      <!-- 400 -->
      <g transform="translate(408.397978 408.898369)scale(0.1 -0.1)">
       <use xlink:href="#DejaVuSans-52"/>
       <use x="63.623047" xlink:href="#DejaVuSans-48"/>
       <use x="127.246094" xlink:href="#DejaVuSans-48"/>
      </g>
     </g>
    </g>
    <g id="ytick_32">
     <g id="line2d_67">
      <g>
       <use style="stroke:#000000;stroke-width:0.8;" x="434.485478" xlink:href="#m74c25ec36d" y="382.891051"/>
      </g>
     </g>
     <g id="text_70">
      <!-- 600 -->
      <g transform="translate(408.397978 386.690269)scale(0.1 -0.1)">
       <use xlink:href="#DejaVuSans-54"/>
       <use x="63.623047" xlink:href="#DejaVuSans-48"/>
       <use x="127.246094" xlink:href="#DejaVuSans-48"/>
      </g>
     </g>
    </g>
    <g id="ytick_33">
     <g id="line2d_68">
      <g>
       <use style="stroke:#000000;stroke-width:0.8;" x="434.485478" xlink:href="#m74c25ec36d" y="360.682951"/>
      </g>
     </g>
     <g id="text_71">
      <!-- 800 -->
      <g transform="translate(408.397978 364.48217)scale(0.1 -0.1)">
       <use xlink:href="#DejaVuSans-56"/>
       <use x="63.623047" xlink:href="#DejaVuSans-48"/>
       <use x="127.246094" xlink:href="#DejaVuSans-48"/>
      </g>
     </g>
    </g>
    <g id="ytick_34">
     <g id="line2d_69">
      <g>
       <use style="stroke:#000000;stroke-width:0.8;" x="434.485478" xlink:href="#m74c25ec36d" y="338.474852"/>
      </g>
     </g>
     <g id="text_72">
      <!-- 1000 -->
      <g transform="translate(402.035478 342.274071)scale(0.1 -0.1)">
       <use xlink:href="#DejaVuSans-49"/>
       <use x="63.623047" xlink:href="#DejaVuSans-48"/>
       <use x="127.246094" xlink:href="#DejaVuSans-48"/>
       <use x="190.869141" xlink:href="#DejaVuSans-48"/>
      </g>
     </g>
    </g>
    <g id="ytick_35">
     <g id="line2d_70">
      <g>
       <use style="stroke:#000000;stroke-width:0.8;" x="434.485478" xlink:href="#m74c25ec36d" y="316.266752"/>
      </g>
     </g>
     <g id="text_73">
      <!-- 1200 -->
      <g transform="translate(402.035478 320.065971)scale(0.1 -0.1)">
       <use xlink:href="#DejaVuSans-49"/>
       <use x="63.623047" xlink:href="#DejaVuSans-50"/>
       <use x="127.246094" xlink:href="#DejaVuSans-48"/>
       <use x="190.869141" xlink:href="#DejaVuSans-48"/>
      </g>
     </g>
    </g>
    <g id="ytick_36">
     <g id="line2d_71">
      <g>
       <use style="stroke:#000000;stroke-width:0.8;" x="434.485478" xlink:href="#m74c25ec36d" y="294.058653"/>
      </g>
     </g>
     <g id="text_74">
      <!-- 1400 -->
      <g transform="translate(402.035478 297.857872)scale(0.1 -0.1)">
       <use xlink:href="#DejaVuSans-49"/>
       <use x="63.623047" xlink:href="#DejaVuSans-52"/>
       <use x="127.246094" xlink:href="#DejaVuSans-48"/>
       <use x="190.869141" xlink:href="#DejaVuSans-48"/>
      </g>
     </g>
    </g>
    <g id="ytick_37">
     <g id="line2d_72">
      <g>
       <use style="stroke:#000000;stroke-width:0.8;" x="434.485478" xlink:href="#m74c25ec36d" y="271.850554"/>
      </g>
     </g>
     <g id="text_75">
      <!-- 1600 -->
      <g transform="translate(402.035478 275.649772)scale(0.1 -0.1)">
       <use xlink:href="#DejaVuSans-49"/>
       <use x="63.623047" xlink:href="#DejaVuSans-54"/>
       <use x="127.246094" xlink:href="#DejaVuSans-48"/>
       <use x="190.869141" xlink:href="#DejaVuSans-48"/>
      </g>
     </g>
    </g>
   </g>
   <g id="line2d_73">
    <path clip-path="url(#pfd2cdf8a46)" d="M 441.945371 436.650127 
L 443.43735 434.176025 
L 444.929328 432.879049 
L 446.421307 429.53493 
L 447.913285 435.338396 
L 449.405264 437.017202 
L 450.897243 437.488928 
L 452.389221 439.329125 
L 453.8812 438.132359 
L 455.373178 434.976913 
L 456.865157 433.804783 
L 458.357136 428.478978 
L 459.849114 439.045466 
L 461.341093 432.017811 
L 462.833072 443.374012 
L 464.32505 444.378823 
L 465.817029 422.032059 
L 467.309007 436.417646 
L 468.800986 445.582506 
L 470.292965 436.533014 
L 471.784943 446.736594 
L 473.276922 447.690199 
L 474.7689 445.53457 
L 476.260879 447.982682 
L 477.752858 448.19755 
L 479.244836 446.551636 
L 480.736815 446.903404 
L 482.228793 448.213001 
L 483.720772 446.510236 
L 485.212751 447.637844 
L 486.704729 447.629993 
L 488.196708 447.027729 
L 489.688686 447.710245 
L 491.180665 448.00149 
L 492.672644 447.793769 
L 494.164622 447.809265 
L 495.656601 447.687104 
L 497.14858 447.745219 
L 498.640558 447.653988 
L 500.132537 447.538796 
L 501.624515 447.916051 
L 503.116494 447.766524 
L 504.608473 447.133685 
L 506.100451 447.086822 
L 507.59243 447.088587 
L 509.084408 446.308605 
L 510.576387 446.30094 
L 512.068366 444.66376 
L 513.560344 441.375027 
L 515.052323 421.279898 
L 516.544301 268.510522 
L 518.03628 431.08513 
L 519.528259 444.115427 
L 521.020237 446.17465 
L 522.512216 447.201396 
L 524.004195 447.672933 
L 525.496173 447.803959 
L 526.988152 448.022346 
L 528.48013 447.988604 
L 529.972109 448.057696 
L 531.464088 448.117367 
L 532.956066 447.988489 
L 534.448045 448.044943 
L 535.940023 447.976774 
L 537.432002 447.941842 
L 538.923981 448.004792 
L 540.415959 447.929338 
L 541.907938 447.9073 
L 543.399916 447.80426 
L 544.891895 447.634587 
L 546.383874 447.678002 
L 547.875852 447.60088 
L 549.367831 447.554614 
L 550.859809 447.632945 
L 552.351788 447.473119 
L 553.843767 447.464552 
L 555.335745 447.317943 
L 556.827724 447.18674 
L 558.319703 447.097629 
L 559.811681 447.099659 
L 561.30366 447.000148 
L 562.795638 446.87951 
L 564.287617 446.804628 
L 565.779596 446.658775 
L 567.271574 446.489902 
L 568.763553 446.295394 
L 570.255531 446.098191 
L 571.74751 445.866361 
L 573.239489 445.685969 
L 574.731467 445.452444 
L 576.223446 445.202274 
L 577.715424 444.963303 
L 579.207403 444.73282 
L 580.699382 444.449223 
L 582.19136 444.10438 
L 583.683339 443.576977 
L 585.175318 441.368623 
L 586.667296 440.525894 
L 588.159275 440.160876 
L 589.651253 438.333618 
L 591.143232 438.125094 
" style="fill:none;stroke:#1f77b4;stroke-linecap:square;stroke-width:1.5;"/>
   </g>
   <g id="patch_28">
    <path d="M 434.485478 457.198125 
L 434.485478 259.525398 
" style="fill:none;stroke:#000000;stroke-linecap:square;stroke-linejoin:miter;stroke-width:0.8;"/>
   </g>
   <g id="patch_29">
    <path d="M 598.603125 457.198125 
L 598.603125 259.525398 
" style="fill:none;stroke:#000000;stroke-linecap:square;stroke-linejoin:miter;stroke-width:0.8;"/>
   </g>
   <g id="patch_30">
    <path d="M 434.485478 457.198125 
L 598.603125 457.198125 
" style="fill:none;stroke:#000000;stroke-linecap:square;stroke-linejoin:miter;stroke-width:0.8;"/>
   </g>
   <g id="patch_31">
    <path d="M 434.485478 259.525398 
L 598.603125 259.525398 
" style="fill:none;stroke:#000000;stroke-linecap:square;stroke-linejoin:miter;stroke-width:0.8;"/>
   </g>
  </g>
 </g>
 <defs>
  <clipPath id="p8221457343">
   <rect height="197.672727" width="164.117647" x="40.603125" y="22.318125"/>
  </clipPath>
  <clipPath id="pb610d6ffea">
   <rect height="197.672727" width="164.117647" x="237.544301" y="22.318125"/>
  </clipPath>
  <clipPath id="p74ed83ef0d">
   <rect height="197.672727" width="164.117647" x="434.485478" y="22.318125"/>
  </clipPath>
  <clipPath id="p3a6ec9f218">
   <rect height="197.672727" width="164.117647" x="40.603125" y="259.525398"/>
  </clipPath>
  <clipPath id="p2b38b73e2b">
   <rect height="197.672727" width="164.117647" x="237.544301" y="259.525398"/>
  </clipPath>
  <clipPath id="pfd2cdf8a46">
   <rect height="197.672727" width="164.117647" x="434.485478" y="259.525398"/>
  </clipPath>
 </defs>
</svg>
