<?xml version="1.0" encoding="utf-8" standalone="no"?>
<!DOCTYPE svg PUBLIC "-//W3C//DTD SVG 1.1//EN"
  "http://www.w3.org/Graphics/SVG/1.1/DTD/svg11.dtd">
<svg xmlns:xlink="http://www.w3.org/1999/xlink" width="423.5825pt" height="310.990125pt" viewBox="0 0 423.5825 310.990125" xmlns="http://www.w3.org/2000/svg" version="1.1">
 <metadata>
  <rdf:RDF xmlns:dc="http://purl.org/dc/elements/1.1/" xmlns:cc="http://creativecommons.org/ns#" xmlns:rdf="http://www.w3.org/1999/02/22-rdf-syntax-ns#">
   <cc:Work>
    <dc:type rdf:resource="http://purl.org/dc/dcmitype/StillImage"/>
    <dc:date>2026-10-07T10:52:19.963566</dc:date>
    <dc:format>image/svg+xml</dc:format>
    <dc:creator>
     <cc:Agent>
      <dc:title>Matplotlib v3.10.5, https://matplotlib.org/</dc:title>
     </cc:Agent>
    </dc:creator>
   </cc:Work>
  </rdf:RDF>
 </metadata>
 <defs>
  <style type="text/css">*{stroke-linejoin: round; stroke-linecap: butt}</style>
 </defs>
 <g id="figure_1">
  <g id="patch_1">
   <path d="M 0 310.990125 
L 423.5825 310.990125 
L 423.5825 0 
L 0 0 
z
" style="fill: #ffffff"/>
  </g>
  <g id="axes_1">
   <g id="patch_2">
    <path d="M 52.9 273.312 
L 410.02 273.312 
L 410.02 7.2 
L 52.9 7.2 
z
" style="fill: #ffffff"/>
   </g>
   <g id="matplotlib.axis_1">
    <g id="xtick_1">
     <g id="line2d_1">
      <defs>
       <path id="m6a4640d60f" d="M 0 0 
L 0 3.5 
" style="stroke: #000000; stroke-width: 0.8"/>
      </defs>
      <g>
       <use xlink:href="#m6a4640d60f" x="52.9" y="273.312" style="stroke: #000000; stroke-width: 0.8"/>
      </g>
     </g>
     <g id="text_1">
      <!-- −90 -->
      <g transform="translate(42.347656 287.910438) scale(0.1 -0.1)">
       <defs>
        <path id="DejaVuSans-2212" d="M 678 2272 
L 4684 2272 
L 4684 1741 
L 678 1741 
L 678 2272 
z
" transform="scale(0.015625)"/>
        <path id="DejaVuSans-39" d="M 703 97 
L 703 672 
Q 941 559 1184 500 
Q 1428 441 1663 441 
Q 2288 441 2617 861 
Q 2947 1281 2994 2138 
Q 2813 1869 2534 1725 
Q 2256 1581 1919 1581 
Q 1219 1581 811 2004 
Q 403 2428 403 3163 
Q 403 3881 828 4315 
Q 1253 4750 1959 4750 
Q 2769 4750 3195 4129 
Q 3622 3509 3622 2328 
Q 3622 1225 3098 567 
Q 2575 -91 1691 -91 
Q 1453 -91 1209 -44 
Q 966 3 703 97 
z
M 1959 2075 
Q 2384 2075 2632 2365 
Q 2881 2656 2881 3163 
Q 2881 3666 2632 3958 
Q 2384 4250 1959 4250 
Q 1534 4250 1286 3958 
Q 1038 3666 1038 3163 
Q 1038 2656 1286 2365 
Q 1534 2075 1959 2075 
z
" transform="scale(0.015625)"/>
        <path id="DejaVuSans-30" d="M 2034 4250 
Q 1547 4250 1301 3770 
Q 1056 3291 1056 2328 
Q 1056 1369 1301 889 
Q 1547 409 2034 409 
Q 2525 409 2770 889 
Q 3016 1369 3016 2328 
Q 3016 3291 2770 3770 
Q 2525 4250 2034 4250 
z
M 2034 4750 
Q 2819 4750 3233 4129 
Q 3647 3509 3647 2328 
Q 3647 1150 3233 529 
Q 2819 -91 2034 -91 
Q 1250 -91 836 529 
Q 422 1150 422 2328 
Q 422 3509 836 4129 
Q 1250 4750 2034 4750 
z
" transform="scale(0.015625)"/>
       </defs>
       <use xlink:href="#DejaVuSans-2212"/>
       <use xlink:href="#DejaVuSans-39" transform="translate(83.789062 0)"/>
       <use xlink:href="#DejaVuSans-30" transform="translate(147.412109 0)"/>
      </g>
     </g>
    </g>
    <g id="xtick_2">
     <g id="line2d_2">
      <g>
       <use xlink:href="#m6a4640d60f" x="112.42" y="273.312" style="stroke: #000000; stroke-width: 0.8"/>
      </g>
     </g>
     <g id="text_2">
      <!-- −60 -->
      <g transform="translate(101.867656 287.910438) scale(0.1 -0.1)">
       <defs>
        <path id="DejaVuSans-36" d="M 2113 2584 
Q 1688 2584 1439 2293 
Q 1191 2003 1191 1497 
Q 1191 994 1439 701 
Q 1688 409 2113 409 
Q 2538 409 2786 701 
Q 3034 994 3034 1497 
Q 3034 2003 2786 2293 
Q 2538 2584 2113 2584 
z
M 3366 4563 
L 3366 3988 
Q 3128 4100 2886 4159 
Q 2644 4219 2406 4219 
Q 1781 4219 1451 3797 
Q 1122 3375 1075 2522 
Q 1259 2794 1537 2939 
Q 1816 3084 2150 3084 
Q 2853 3084 3261 2657 
Q 3669 2231 3669 1497 
Q 3669 778 3244 343 
Q 2819 -91 2113 -91 
Q 1303 -91 875 529 
Q 447 1150 447 2328 
Q 447 3434 972 4092 
Q 1497 4750 2381 4750 
Q 2619 4750 2861 4703 
Q 3103 4656 3366 4563 
z
" transform="scale(0.015625)"/>
       </defs>
       <use xlink:href="#DejaVuSans-2212"/>
       <use xlink:href="#DejaVuSans-36" transform="translate(83.789062 0)"/>
       <use xlink:href="#DejaVuSans-30" transform="translate(147.412109 0)"/>
      </g>
     </g>
    </g>
    <g id="xtick_3">
     <g id="line2d_3">
      <g>
       <use xlink:href="#m6a4640d60f" x="171.94" y="273.312" style="stroke: #000000; stroke-width: 0.8"/>
      </g>
     </g>
     <g id="text_3">
      <!-- −30 -->
      <g transform="translate(161.387656 287.910438) scale(0.1 -0.1)">
       <defs>
        <path id="DejaVuSans-33" d="M 2597 2516 
Q 3050 2419 3304 2112 
Q 3559 1806 3559 1356 
Q 3559 666 3084 287 
Q 2609 -91 1734 -91 
Q 1441 -91 1130 -33 
Q 819 25 488 141 
L 488 750 
Q 750 597 1062 519 
Q 1375 441 1716 441 
Q 2309 441 2620 675 
Q 2931 909 2931 1356 
Q 2931 1769 2642 2001 
Q 2353 2234 1838 2234 
L 1294 2234 
L 1294 2753 
L 1863 2753 
Q 2328 2753 2575 2939 
Q 2822 3125 2822 3475 
Q 2822 3834 2567 4026 
Q 2313 4219 1838 4219 
Q 1578 4219 1281 4162 
Q 984 4106 628 3988 
L 628 4550 
Q 988 4650 1302 4700 
Q 1616 4750 1894 4750 
Q 2613 4750 3031 4423 
Q 3450 4097 3450 3541 
Q 3450 3153 3228 2886 
Q 3006 2619 2597 2516 
z
" transform="scale(0.015625)"/>
       </defs>
       <use xlink:href="#DejaVuSans-2212"/>
       <use xlink:href="#DejaVuSans-33" transform="translate(83.789062 0)"/>
       <use xlink:href="#DejaVuSans-30" transform="translate(147.412109 0)"/>
      </g>
     </g>
    </g>
    <g id="xtick_4">
     <g id="line2d_4">
      <g>
       <use xlink:href="#m6a4640d60f" x="231.46" y="273.312" style="stroke: #000000; stroke-width: 0.8"/>
      </g>
     </g>
     <g id="text_4">
      <!-- 0 -->
      <g transform="translate(228.27875 287.910438) scale(0.1 -0.1)">
       <use xlink:href="#DejaVuSans-30"/>
      </g>
     </g>
    </g>
    <g id="xtick_5">
     <g id="line2d_5">
      <g>
       <use xlink:href="#m6a4640d60f" x="290.98" y="273.312" style="stroke: #000000; stroke-width: 0.8"/>
      </g>
     </g>
     <g id="text_5">
      <!-- 30 -->
      <g transform="translate(284.6175 287.910438) scale(0.1 -0.1)">
       <use xlink:href="#DejaVuSans-33"/>
       <use xlink:href="#DejaVuSans-30" transform="translate(63.623047 0)"/>
      </g>
     </g>
    </g>
    <g id="xtick_6">
     <g id="line2d_6">
      <g>
       <use xlink:href="#m6a4640d60f" x="350.5" y="273.312" style="stroke: #000000; stroke-width: 0.8"/>
      </g>
     </g>
     <g id="text_6">
      <!-- 60 -->
      <g transform="translate(344.1375 287.910438) scale(0.1 -0.1)">
       <use xlink:href="#DejaVuSans-36"/>
       <use xlink:href="#DejaVuSans-30" transform="translate(63.623047 0)"/>
      </g>
     </g>
    </g>
    <g id="xtick_7">
     <g id="line2d_7">
      <g>
       <use xlink:href="#m6a4640d60f" x="410.02" y="273.312" style="stroke: #000000; stroke-width: 0.8"/>
      </g>
     </g>
     <g id="text_7">
      <!-- 90 -->
      <g transform="translate(403.6575 287.910438) scale(0.1 -0.1)">
       <use xlink:href="#DejaVuSans-39"/>
       <use xlink:href="#DejaVuSans-30" transform="translate(63.623047 0)"/>
      </g>
     </g>
    </g>
    <g id="text_8">
     <!-- $\theta_s$ [degrees] -->
     <g transform="translate(200.71 301.690125) scale(0.1 -0.1)">
      <defs>
       <path id="DejaVuSans-Oblique-3b8" d="M 2913 2219 
L 925 2219 
Q 791 1284 928 888 
Q 1100 400 1566 400 
Q 2034 400 2391 891 
Q 2703 1322 2913 2219 
z
M 3009 2750 
Q 3094 3638 2984 3950 
Q 2813 4444 2353 4444 
Q 1875 4444 1525 3956 
Q 1250 3563 1034 2750 
L 3009 2750 
z
M 2444 4913 
Q 3194 4913 3494 4250 
Q 3794 3591 3566 2422 
Q 3341 1256 2781 594 
Q 2225 -72 1475 -72 
Q 722 -72 425 594 
Q 128 1256 353 2422 
Q 581 3591 1134 4250 
Q 1691 4913 2444 4913 
z
" transform="scale(0.015625)"/>
       <path id="DejaVuSans-Oblique-73" d="M 3200 3397 
L 3091 2853 
Q 2863 2978 2609 3040 
Q 2356 3103 2088 3103 
Q 1634 3103 1373 2948 
Q 1113 2794 1113 2528 
Q 1113 2219 1719 2053 
Q 1766 2041 1788 2034 
L 1972 1978 
Q 2547 1819 2739 1644 
Q 2931 1469 2931 1166 
Q 2931 609 2489 259 
Q 2047 -91 1331 -91 
Q 1053 -91 747 -37 
Q 441 16 72 128 
L 184 722 
Q 500 559 806 475 
Q 1113 391 1394 391 
Q 1816 391 2080 572 
Q 2344 753 2344 1031 
Q 2344 1331 1650 1516 
L 1591 1531 
L 1394 1581 
Q 956 1697 753 1886 
Q 550 2075 550 2369 
Q 550 2928 970 3256 
Q 1391 3584 2113 3584 
Q 2397 3584 2667 3537 
Q 2938 3491 3200 3397 
z
" transform="scale(0.015625)"/>
       <path id="DejaVuSans-20" transform="scale(0.015625)"/>
       <path id="DejaVuSans-5b" d="M 550 4863 
L 1875 4863 
L 1875 4416 
L 1125 4416 
L 1125 -397 
L 1875 -397 
L 1875 -844 
L 550 -844 
L 550 4863 
z
" transform="scale(0.015625)"/>
       <path id="DejaVuSans-64" d="M 2906 2969 
L 2906 4863 
L 3481 4863 
L 3481 0 
L 2906 0 
L 2906 525 
Q 2725 213 2448 61 
Q 2172 -91 1784 -91 
Q 1150 -91 751 415 
Q 353 922 353 1747 
Q 353 2572 751 3078 
Q 1150 3584 1784 3584 
Q 2172 3584 2448 3432 
Q 2725 3281 2906 2969 
z
M 947 1747 
Q 947 1113 1208 752 
Q 1469 391 1925 391 
Q 2381 391 2643 752 
Q 2906 1113 2906 1747 
Q 2906 2381 2643 2742 
Q 2381 3103 1925 3103 
Q 1469 3103 1208 2742 
Q 947 2381 947 1747 
z
" transform="scale(0.015625)"/>
       <path id="DejaVuSans-65" d="M 3597 1894 
L 3597 1613 
L 953 1613 
Q 991 1019 1311 708 
Q 1631 397 2203 397 
Q 2534 397 2845 478 
Q 3156 559 3463 722 
L 3463 178 
Q 3153 47 2828 -22 
Q 2503 -91 2169 -91 
Q 1331 -91 842 396 
Q 353 884 353 1716 
Q 353 2575 817 3079 
Q 1281 3584 2069 3584 
Q 2775 3584 3186 3129 
Q 3597 2675 3597 1894 
z
M 3022 2063 
Q 3016 2534 2758 2815 
Q 2500 3097 2075 3097 
Q 1594 3097 1305 2825 
Q 1016 2553 972 2059 
L 3022 2063 
z
" transform="scale(0.015625)"/>
       <path id="DejaVuSans-67" d="M 2906 1791 
Q 2906 2416 2648 2759 
Q 2391 3103 1925 3103 
Q 1463 3103 1205 2759 
Q 947 2416 947 1791 
Q 947 1169 1205 825 
Q 1463 481 1925 481 
Q 2391 481 2648 825 
Q 2906 1169 2906 1791 
z
M 3481 434 
Q 3481 -459 3084 -895 
Q 2688 -1331 1869 -1331 
Q 1566 -1331 1297 -1286 
Q 1028 -1241 775 -1147 
L 775 -588 
Q 1028 -725 1275 -790 
Q 1522 -856 1778 -856 
Q 2344 -856 2625 -561 
Q 2906 -266 2906 331 
L 2906 616 
Q 2728 306 2450 153 
Q 2172 0 1784 0 
Q 1141 0 747 490 
Q 353 981 353 1791 
Q 353 2603 747 3093 
Q 1141 3584 1784 3584 
Q 2172 3584 2450 3431 
Q 2728 3278 2906 2969 
L 2906 3500 
L 3481 3500 
L 3481 434 
z
" transform="scale(0.015625)"/>
       <path id="DejaVuSans-72" d="M 2631 2963 
Q 2534 3019 2420 3045 
Q 2306 3072 2169 3072 
Q 1681 3072 1420 2755 
Q 1159 2438 1159 1844 
L 1159 0 
L 581 0 
L 581 3500 
L 1159 3500 
L 1159 2956 
Q 1341 3275 1631 3429 
Q 1922 3584 2338 3584 
Q 2397 3584 2469 3576 
Q 2541 3569 2628 3553 
L 2631 2963 
z
" transform="scale(0.015625)"/>
       <path id="DejaVuSans-73" d="M 2834 3397 
L 2834 2853 
Q 2591 2978 2328 3040 
Q 2066 3103 1784 3103 
Q 1356 3103 1142 2972 
Q 928 2841 928 2578 
Q 928 2378 1081 2264 
Q 1234 2150 1697 2047 
L 1894 2003 
Q 2506 1872 2764 1633 
Q 3022 1394 3022 966 
Q 3022 478 2636 193 
Q 2250 -91 1575 -91 
Q 1294 -91 989 -36 
Q 684 19 347 128 
L 347 722 
Q 666 556 975 473 
Q 1284 391 1588 391 
Q 1994 391 2212 530 
Q 2431 669 2431 922 
Q 2431 1156 2273 1281 
Q 2116 1406 1581 1522 
L 1381 1569 
Q 847 1681 609 1914 
Q 372 2147 372 2553 
Q 372 3047 722 3315 
Q 1072 3584 1716 3584 
Q 2034 3584 2315 3537 
Q 2597 3491 2834 3397 
z
" transform="scale(0.015625)"/>
       <path id="DejaVuSans-5d" d="M 1947 4863 
L 1947 -844 
L 622 -844 
L 622 -397 
L 1369 -397 
L 1369 4416 
L 622 4416 
L 622 4863 
L 1947 4863 
z
" transform="scale(0.015625)"/>
      </defs>
      <use xlink:href="#DejaVuSans-Oblique-3b8" transform="translate(0 0.234375)"/>
      <use xlink:href="#DejaVuSans-Oblique-73" transform="translate(61.181641 -16.171875) scale(0.7)"/>
      <use xlink:href="#DejaVuSans-20" transform="translate(100.385742 0.234375)"/>
      <use xlink:href="#DejaVuSans-5b" transform="translate(132.172852 0.234375)"/>
      <use xlink:href="#DejaVuSans-64" transform="translate(171.186523 0.234375)"/>
      <use xlink:href="#DejaVuSans-65" transform="translate(234.663086 0.234375)"/>
      <use xlink:href="#DejaVuSans-67" transform="translate(296.186523 0.234375)"/>
      <use xlink:href="#DejaVuSans-72" transform="translate(359.663086 0.234375)"/>
      <use xlink:href="#DejaVuSans-65" transform="translate(400.776367 0.234375)"/>
      <use xlink:href="#DejaVuSans-65" transform="translate(462.299805 0.234375)"/>
      <use xlink:href="#DejaVuSans-73" transform="translate(523.823242 0.234375)"/>
      <use xlink:href="#DejaVuSans-5d" transform="translate(575.922852 0.234375)"/>
     </g>
    </g>
   </g>
   <g id="matplotlib.axis_2">
    <g id="ytick_1">
     <g id="line2d_8">
      <defs>
       <path id="m924fef7ed2" d="M 0 0 
L -3.5 0 
" style="stroke: #000000; stroke-width: 0.8"/>
      </defs>
      <g>
       <use xlink:href="#m924fef7ed2" x="52.9" y="252.707071" style="stroke: #000000; stroke-width: 0.8"/>
      </g>
     </g>
     <g id="text_9">
      <!-- $\mathdefault{10^{-5}}$ -->
      <g transform="translate(22.4 256.50629) scale(0.1 -0.1)">
       <defs>
        <path id="DejaVuSans-31" d="M 794 531 
L 1825 531 
L 1825 4091 
L 703 3866 
L 703 4441 
L 1819 4666 
L 2450 4666 
L 2450 531 
L 3481 531 
L 3481 0 
L 794 0 
L 794 531 
z
" transform="scale(0.015625)"/>
        <path id="DejaVuSans-35" d="M 691 4666 
L 3169 4666 
L 3169 4134 
L 1269 4134 
L 1269 2991 
Q 1406 3038 1543 3061 
Q 1681 3084 1819 3084 
Q 2600 3084 3056 2656 
Q 3513 2228 3513 1497 
Q 3513 744 3044 326 
Q 2575 -91 1722 -91 
Q 1428 -91 1123 -41 
Q 819 9 494 109 
L 494 744 
Q 775 591 1075 516 
Q 1375 441 1709 441 
Q 2250 441 2565 725 
Q 2881 1009 2881 1497 
Q 2881 1984 2565 2268 
Q 2250 2553 1709 2553 
Q 1456 2553 1204 2497 
Q 953 2441 691 2322 
L 691 4666 
z
" transform="scale(0.015625)"/>
       </defs>
       <use xlink:href="#DejaVuSans-31" transform="translate(0 0.684375)"/>
       <use xlink:href="#DejaVuSans-30" transform="translate(63.623047 0.684375)"/>
       <use xlink:href="#DejaVuSans-2212" transform="translate(128.203125 38.965625) scale(0.7)"/>
       <use xlink:href="#DejaVuSans-35" transform="translate(186.855469 38.965625) scale(0.7)"/>
      </g>
     </g>
    </g>
    <g id="ytick_2">
     <g id="line2d_9">
      <g>
       <use xlink:href="#m924fef7ed2" x="52.9" y="213.859688" style="stroke: #000000; stroke-width: 0.8"/>
      </g>
     </g>
     <g id="text_10">
      <!-- $\mathdefault{10^{-4}}$ -->
      <g transform="translate(22.4 217.658907) scale(0.1 -0.1)">
       <defs>
        <path id="DejaVuSans-34" d="M 2419 4116 
L 825 1625 
L 2419 1625 
L 2419 4116 
z
M 2253 4666 
L 3047 4666 
L 3047 1625 
L 3713 1625 
L 3713 1100 
L 3047 1100 
L 3047 0 
L 2419 0 
L 2419 1100 
L 313 1100 
L 313 1709 
L 2253 4666 
z
" transform="scale(0.015625)"/>
       </defs>
       <use xlink:href="#DejaVuSans-31" transform="translate(0 0.684375)"/>
       <use xlink:href="#DejaVuSans-30" transform="translate(63.623047 0.684375)"/>
       <use xlink:href="#DejaVuSans-2212" transform="translate(128.203125 38.965625) scale(0.7)"/>
       <use xlink:href="#DejaVuSans-34" transform="translate(186.855469 38.965625) scale(0.7)"/>
      </g>
     </g>
    </g>
    <g id="ytick_3">
     <g id="line2d_10">
      <g>
       <use xlink:href="#m924fef7ed2" x="52.9" y="175.012306" style="stroke: #000000; stroke-width: 0.8"/>
      </g>
     </g>
     <g id="text_11">
      <!-- $\mathdefault{10^{-3}}$ -->
      <g transform="translate(22.4 178.811524) scale(0.1 -0.1)">
       <use xlink:href="#DejaVuSans-31" transform="translate(0 0.765625)"/>
       <use xlink:href="#DejaVuSans-30" transform="translate(63.623047 0.765625)"/>
       <use xlink:href="#DejaVuSans-2212" transform="translate(128.203125 39.046875) scale(0.7)"/>
       <use xlink:href="#DejaVuSans-33" transform="translate(186.855469 39.046875) scale(0.7)"/>
      </g>
     </g>
    </g>
    <g id="ytick_4">
     <g id="line2d_11">
      <g>
       <use xlink:href="#m924fef7ed2" x="52.9" y="136.164923" style="stroke: #000000; stroke-width: 0.8"/>
      </g>
     </g>
     <g id="text_12">
      <!-- $\mathdefault{10^{-2}}$ -->
      <g transform="translate(22.4 139.964142) scale(0.1 -0.1)">
       <defs>
        <path id="DejaVuSans-32" d="M 1228 531 
L 3431 531 
L 3431 0 
L 469 0 
L 469 531 
Q 828 903 1448 1529 
Q 2069 2156 2228 2338 
Q 2531 2678 2651 2914 
Q 2772 3150 2772 3378 
Q 2772 3750 2511 3984 
Q 2250 4219 1831 4219 
Q 1534 4219 1204 4116 
Q 875 4013 500 3803 
L 500 4441 
Q 881 4594 1212 4672 
Q 1544 4750 1819 4750 
Q 2544 4750 2975 4387 
Q 3406 4025 3406 3419 
Q 3406 3131 3298 2873 
Q 3191 2616 2906 2266 
Q 2828 2175 2409 1742 
Q 1991 1309 1228 531 
z
" transform="scale(0.015625)"/>
       </defs>
       <use xlink:href="#DejaVuSans-31" transform="translate(0 0.765625)"/>
       <use xlink:href="#DejaVuSans-30" transform="translate(63.623047 0.765625)"/>
       <use xlink:href="#DejaVuSans-2212" transform="translate(128.203125 39.046875) scale(0.7)"/>
       <use xlink:href="#DejaVuSans-32" transform="translate(186.855469 39.046875) scale(0.7)"/>
      </g>
     </g>
    </g>
    <g id="ytick_5">
     <g id="line2d_12">
      <g>
       <use xlink:href="#m924fef7ed2" x="52.9" y="97.31754" style="stroke: #000000; stroke-width: 0.8"/>
      </g>
     </g>
     <g id="text_13">
      <!-- $\mathdefault{10^{-1}}$ -->
      <g transform="translate(22.4 101.116759) scale(0.1 -0.1)">
       <use xlink:href="#DejaVuSans-31" transform="translate(0 0.684375)"/>
       <use xlink:href="#DejaVuSans-30" transform="translate(63.623047 0.684375)"/>
       <use xlink:href="#DejaVuSans-2212" transform="translate(128.203125 38.965625) scale(0.7)"/>
       <use xlink:href="#DejaVuSans-31" transform="translate(186.855469 38.965625) scale(0.7)"/>
      </g>
     </g>
    </g>
    <g id="ytick_6">
     <g id="line2d_13">
      <g>
       <use xlink:href="#m924fef7ed2" x="52.9" y="58.470157" style="stroke: #000000; stroke-width: 0.8"/>
      </g>
     </g>
     <g id="text_14">
      <!-- $\mathdefault{10^{0}}$ -->
      <g transform="translate(28.3 62.269376) scale(0.1 -0.1)">
       <use xlink:href="#DejaVuSans-31" transform="translate(0 0.765625)"/>
       <use xlink:href="#DejaVuSans-30" transform="translate(63.623047 0.765625)"/>
       <use xlink:href="#DejaVuSans-30" transform="translate(128.203125 39.046875) scale(0.7)"/>
      </g>
     </g>
    </g>
    <g id="ytick_7">
     <g id="line2d_14">
      <g>
       <use xlink:href="#m924fef7ed2" x="52.9" y="19.622775" style="stroke: #000000; stroke-width: 0.8"/>
      </g>
     </g>
     <g id="text_15">
      <!-- $\mathdefault{10^{1}}$ -->
      <g transform="translate(28.3 23.421993) scale(0.1 -0.1)">
       <use xlink:href="#DejaVuSans-31" transform="translate(0 0.684375)"/>
       <use xlink:href="#DejaVuSans-30" transform="translate(63.623047 0.684375)"/>
       <use xlink:href="#DejaVuSans-31" transform="translate(128.203125 38.965625) scale(0.7)"/>
      </g>
     </g>
    </g>
    <g id="ytick_8">
     <g id="line2d_15">
      <defs>
       <path id="mbc0af9780d" d="M 0 0 
L -2 0 
" style="stroke: #000000; stroke-width: 0.6"/>
      </defs>
      <g>
       <use xlink:href="#mbc0af9780d" x="52.9" y="273.019542" style="stroke: #000000; stroke-width: 0.6"/>
      </g>
     </g>
    </g>
    <g id="ytick_9">
     <g id="line2d_16">
      <g>
       <use xlink:href="#mbc0af9780d" x="52.9" y="268.165999" style="stroke: #000000; stroke-width: 0.6"/>
      </g>
     </g>
    </g>
    <g id="ytick_10">
     <g id="line2d_17">
      <g>
       <use xlink:href="#mbc0af9780d" x="52.9" y="264.401299" style="stroke: #000000; stroke-width: 0.6"/>
      </g>
     </g>
    </g>
    <g id="ytick_11">
     <g id="line2d_18">
      <g>
       <use xlink:href="#mbc0af9780d" x="52.9" y="261.325314" style="stroke: #000000; stroke-width: 0.6"/>
      </g>
     </g>
    </g>
    <g id="ytick_12">
     <g id="line2d_19">
      <g>
       <use xlink:href="#mbc0af9780d" x="52.9" y="258.724607" style="stroke: #000000; stroke-width: 0.6"/>
      </g>
     </g>
    </g>
    <g id="ytick_13">
     <g id="line2d_20">
      <g>
       <use xlink:href="#mbc0af9780d" x="52.9" y="256.471772" style="stroke: #000000; stroke-width: 0.6"/>
      </g>
     </g>
    </g>
    <g id="ytick_14">
     <g id="line2d_21">
      <g>
       <use xlink:href="#mbc0af9780d" x="52.9" y="254.48463" style="stroke: #000000; stroke-width: 0.6"/>
      </g>
     </g>
    </g>
    <g id="ytick_15">
     <g id="line2d_22">
      <g>
       <use xlink:href="#mbc0af9780d" x="52.9" y="241.012844" style="stroke: #000000; stroke-width: 0.6"/>
      </g>
     </g>
    </g>
    <g id="ytick_16">
     <g id="line2d_23">
      <g>
       <use xlink:href="#mbc0af9780d" x="52.9" y="234.172159" style="stroke: #000000; stroke-width: 0.6"/>
      </g>
     </g>
    </g>
    <g id="ytick_17">
     <g id="line2d_24">
      <g>
       <use xlink:href="#mbc0af9780d" x="52.9" y="229.318616" style="stroke: #000000; stroke-width: 0.6"/>
      </g>
     </g>
    </g>
    <g id="ytick_18">
     <g id="line2d_25">
      <g>
       <use xlink:href="#mbc0af9780d" x="52.9" y="225.553916" style="stroke: #000000; stroke-width: 0.6"/>
      </g>
     </g>
    </g>
    <g id="ytick_19">
     <g id="line2d_26">
      <g>
       <use xlink:href="#mbc0af9780d" x="52.9" y="222.477932" style="stroke: #000000; stroke-width: 0.6"/>
      </g>
     </g>
    </g>
    <g id="ytick_20">
     <g id="line2d_27">
      <g>
       <use xlink:href="#mbc0af9780d" x="52.9" y="219.877224" style="stroke: #000000; stroke-width: 0.6"/>
      </g>
     </g>
    </g>
    <g id="ytick_21">
     <g id="line2d_28">
      <g>
       <use xlink:href="#mbc0af9780d" x="52.9" y="217.624389" style="stroke: #000000; stroke-width: 0.6"/>
      </g>
     </g>
    </g>
    <g id="ytick_22">
     <g id="line2d_29">
      <g>
       <use xlink:href="#mbc0af9780d" x="52.9" y="215.637247" style="stroke: #000000; stroke-width: 0.6"/>
      </g>
     </g>
    </g>
    <g id="ytick_23">
     <g id="line2d_30">
      <g>
       <use xlink:href="#mbc0af9780d" x="52.9" y="202.165461" style="stroke: #000000; stroke-width: 0.6"/>
      </g>
     </g>
    </g>
    <g id="ytick_24">
     <g id="line2d_31">
      <g>
       <use xlink:href="#mbc0af9780d" x="52.9" y="195.324776" style="stroke: #000000; stroke-width: 0.6"/>
      </g>
     </g>
    </g>
    <g id="ytick_25">
     <g id="line2d_32">
      <g>
       <use xlink:href="#mbc0af9780d" x="52.9" y="190.471233" style="stroke: #000000; stroke-width: 0.6"/>
      </g>
     </g>
    </g>
    <g id="ytick_26">
     <g id="line2d_33">
      <g>
       <use xlink:href="#mbc0af9780d" x="52.9" y="186.706533" style="stroke: #000000; stroke-width: 0.6"/>
      </g>
     </g>
    </g>
    <g id="ytick_27">
     <g id="line2d_34">
      <g>
       <use xlink:href="#mbc0af9780d" x="52.9" y="183.630549" style="stroke: #000000; stroke-width: 0.6"/>
      </g>
     </g>
    </g>
    <g id="ytick_28">
     <g id="line2d_35">
      <g>
       <use xlink:href="#mbc0af9780d" x="52.9" y="181.029841" style="stroke: #000000; stroke-width: 0.6"/>
      </g>
     </g>
    </g>
    <g id="ytick_29">
     <g id="line2d_36">
      <g>
       <use xlink:href="#mbc0af9780d" x="52.9" y="178.777006" style="stroke: #000000; stroke-width: 0.6"/>
      </g>
     </g>
    </g>
    <g id="ytick_30">
     <g id="line2d_37">
      <g>
       <use xlink:href="#mbc0af9780d" x="52.9" y="176.789864" style="stroke: #000000; stroke-width: 0.6"/>
      </g>
     </g>
    </g>
    <g id="ytick_31">
     <g id="line2d_38">
      <g>
       <use xlink:href="#mbc0af9780d" x="52.9" y="163.318078" style="stroke: #000000; stroke-width: 0.6"/>
      </g>
     </g>
    </g>
    <g id="ytick_32">
     <g id="line2d_39">
      <g>
       <use xlink:href="#mbc0af9780d" x="52.9" y="156.477394" style="stroke: #000000; stroke-width: 0.6"/>
      </g>
     </g>
    </g>
    <g id="ytick_33">
     <g id="line2d_40">
      <g>
       <use xlink:href="#mbc0af9780d" x="52.9" y="151.623851" style="stroke: #000000; stroke-width: 0.6"/>
      </g>
     </g>
    </g>
    <g id="ytick_34">
     <g id="line2d_41">
      <g>
       <use xlink:href="#mbc0af9780d" x="52.9" y="147.85915" style="stroke: #000000; stroke-width: 0.6"/>
      </g>
     </g>
    </g>
    <g id="ytick_35">
     <g id="line2d_42">
      <g>
       <use xlink:href="#mbc0af9780d" x="52.9" y="144.783166" style="stroke: #000000; stroke-width: 0.6"/>
      </g>
     </g>
    </g>
    <g id="ytick_36">
     <g id="line2d_43">
      <g>
       <use xlink:href="#mbc0af9780d" x="52.9" y="142.182459" style="stroke: #000000; stroke-width: 0.6"/>
      </g>
     </g>
    </g>
    <g id="ytick_37">
     <g id="line2d_44">
      <g>
       <use xlink:href="#mbc0af9780d" x="52.9" y="139.929623" style="stroke: #000000; stroke-width: 0.6"/>
      </g>
     </g>
    </g>
    <g id="ytick_38">
     <g id="line2d_45">
      <g>
       <use xlink:href="#mbc0af9780d" x="52.9" y="137.942482" style="stroke: #000000; stroke-width: 0.6"/>
      </g>
     </g>
    </g>
    <g id="ytick_39">
     <g id="line2d_46">
      <g>
       <use xlink:href="#mbc0af9780d" x="52.9" y="124.470695" style="stroke: #000000; stroke-width: 0.6"/>
      </g>
     </g>
    </g>
    <g id="ytick_40">
     <g id="line2d_47">
      <g>
       <use xlink:href="#mbc0af9780d" x="52.9" y="117.630011" style="stroke: #000000; stroke-width: 0.6"/>
      </g>
     </g>
    </g>
    <g id="ytick_41">
     <g id="line2d_48">
      <g>
       <use xlink:href="#mbc0af9780d" x="52.9" y="112.776468" style="stroke: #000000; stroke-width: 0.6"/>
      </g>
     </g>
    </g>
    <g id="ytick_42">
     <g id="line2d_49">
      <g>
       <use xlink:href="#mbc0af9780d" x="52.9" y="109.011768" style="stroke: #000000; stroke-width: 0.6"/>
      </g>
     </g>
    </g>
    <g id="ytick_43">
     <g id="line2d_50">
      <g>
       <use xlink:href="#mbc0af9780d" x="52.9" y="105.935783" style="stroke: #000000; stroke-width: 0.6"/>
      </g>
     </g>
    </g>
    <g id="ytick_44">
     <g id="line2d_51">
      <g>
       <use xlink:href="#mbc0af9780d" x="52.9" y="103.335076" style="stroke: #000000; stroke-width: 0.6"/>
      </g>
     </g>
    </g>
    <g id="ytick_45">
     <g id="line2d_52">
      <g>
       <use xlink:href="#mbc0af9780d" x="52.9" y="101.08224" style="stroke: #000000; stroke-width: 0.6"/>
      </g>
     </g>
    </g>
    <g id="ytick_46">
     <g id="line2d_53">
      <g>
       <use xlink:href="#mbc0af9780d" x="52.9" y="99.095099" style="stroke: #000000; stroke-width: 0.6"/>
      </g>
     </g>
    </g>
    <g id="ytick_47">
     <g id="line2d_54">
      <g>
       <use xlink:href="#mbc0af9780d" x="52.9" y="85.623313" style="stroke: #000000; stroke-width: 0.6"/>
      </g>
     </g>
    </g>
    <g id="ytick_48">
     <g id="line2d_55">
      <g>
       <use xlink:href="#mbc0af9780d" x="52.9" y="78.782628" style="stroke: #000000; stroke-width: 0.6"/>
      </g>
     </g>
    </g>
    <g id="ytick_49">
     <g id="line2d_56">
      <g>
       <use xlink:href="#mbc0af9780d" x="52.9" y="73.929085" style="stroke: #000000; stroke-width: 0.6"/>
      </g>
     </g>
    </g>
    <g id="ytick_50">
     <g id="line2d_57">
      <g>
       <use xlink:href="#mbc0af9780d" x="52.9" y="70.164385" style="stroke: #000000; stroke-width: 0.6"/>
      </g>
     </g>
    </g>
    <g id="ytick_51">
     <g id="line2d_58">
      <g>
       <use xlink:href="#mbc0af9780d" x="52.9" y="67.088401" style="stroke: #000000; stroke-width: 0.6"/>
      </g>
     </g>
    </g>
    <g id="ytick_52">
     <g id="line2d_59">
      <g>
       <use xlink:href="#mbc0af9780d" x="52.9" y="64.487693" style="stroke: #000000; stroke-width: 0.6"/>
      </g>
     </g>
    </g>
    <g id="ytick_53">
     <g id="line2d_60">
      <g>
       <use xlink:href="#mbc0af9780d" x="52.9" y="62.234858" style="stroke: #000000; stroke-width: 0.6"/>
      </g>
     </g>
    </g>
    <g id="ytick_54">
     <g id="line2d_61">
      <g>
       <use xlink:href="#mbc0af9780d" x="52.9" y="60.247716" style="stroke: #000000; stroke-width: 0.6"/>
      </g>
     </g>
    </g>
    <g id="ytick_55">
     <g id="line2d_62">
      <g>
       <use xlink:href="#mbc0af9780d" x="52.9" y="46.77593" style="stroke: #000000; stroke-width: 0.6"/>
      </g>
     </g>
    </g>
    <g id="ytick_56">
     <g id="line2d_63">
      <g>
       <use xlink:href="#mbc0af9780d" x="52.9" y="39.935245" style="stroke: #000000; stroke-width: 0.6"/>
      </g>
     </g>
    </g>
    <g id="ytick_57">
     <g id="line2d_64">
      <g>
       <use xlink:href="#mbc0af9780d" x="52.9" y="35.081702" style="stroke: #000000; stroke-width: 0.6"/>
      </g>
     </g>
    </g>
    <g id="ytick_58">
     <g id="line2d_65">
      <g>
       <use xlink:href="#mbc0af9780d" x="52.9" y="31.317002" style="stroke: #000000; stroke-width: 0.6"/>
      </g>
     </g>
    </g>
    <g id="ytick_59">
     <g id="line2d_66">
      <g>
       <use xlink:href="#mbc0af9780d" x="52.9" y="28.241018" style="stroke: #000000; stroke-width: 0.6"/>
      </g>
     </g>
    </g>
    <g id="ytick_60">
     <g id="line2d_67">
      <g>
       <use xlink:href="#mbc0af9780d" x="52.9" y="25.64031" style="stroke: #000000; stroke-width: 0.6"/>
      </g>
     </g>
    </g>
    <g id="ytick_61">
     <g id="line2d_68">
      <g>
       <use xlink:href="#mbc0af9780d" x="52.9" y="23.387475" style="stroke: #000000; stroke-width: 0.6"/>
      </g>
     </g>
    </g>
    <g id="ytick_62">
     <g id="line2d_69">
      <g>
       <use xlink:href="#mbc0af9780d" x="52.9" y="21.400333" style="stroke: #000000; stroke-width: 0.6"/>
      </g>
     </g>
    </g>
    <g id="ytick_63">
     <g id="line2d_70">
      <g>
       <use xlink:href="#mbc0af9780d" x="52.9" y="7.928547" style="stroke: #000000; stroke-width: 0.6"/>
      </g>
     </g>
    </g>
    <g id="text_16">
     <!-- DSC [$\mathrm{\mu m}^2/\mathrm{sr}$] -->
     <g transform="translate(16.3 173.106) rotate(-90) scale(0.1 -0.1)">
      <defs>
       <path id="DejaVuSans-44" d="M 1259 4147 
L 1259 519 
L 2022 519 
Q 2988 519 3436 956 
Q 3884 1394 3884 2338 
Q 3884 3275 3436 3711 
Q 2988 4147 2022 4147 
L 1259 4147 
z
M 628 4666 
L 1925 4666 
Q 3281 4666 3915 4102 
Q 4550 3538 4550 2338 
Q 4550 1131 3912 565 
Q 3275 0 1925 0 
L 628 0 
L 628 4666 
z
" transform="scale(0.015625)"/>
       <path id="DejaVuSans-53" d="M 3425 4513 
L 3425 3897 
Q 3066 4069 2747 4153 
Q 2428 4238 2131 4238 
Q 1616 4238 1336 4038 
Q 1056 3838 1056 3469 
Q 1056 3159 1242 3001 
Q 1428 2844 1947 2747 
L 2328 2669 
Q 3034 2534 3370 2195 
Q 3706 1856 3706 1288 
Q 3706 609 3251 259 
Q 2797 -91 1919 -91 
Q 1588 -91 1214 -16 
Q 841 59 441 206 
L 441 856 
Q 825 641 1194 531 
Q 1563 422 1919 422 
Q 2459 422 2753 634 
Q 3047 847 3047 1241 
Q 3047 1584 2836 1778 
Q 2625 1972 2144 2069 
L 1759 2144 
Q 1053 2284 737 2584 
Q 422 2884 422 3419 
Q 422 4038 858 4394 
Q 1294 4750 2059 4750 
Q 2388 4750 2728 4690 
Q 3069 4631 3425 4513 
z
" transform="scale(0.015625)"/>
       <path id="DejaVuSans-43" d="M 4122 4306 
L 4122 3641 
Q 3803 3938 3442 4084 
Q 3081 4231 2675 4231 
Q 1875 4231 1450 3742 
Q 1025 3253 1025 2328 
Q 1025 1406 1450 917 
Q 1875 428 2675 428 
Q 3081 428 3442 575 
Q 3803 722 4122 1019 
L 4122 359 
Q 3791 134 3420 21 
Q 3050 -91 2638 -91 
Q 1578 -91 968 557 
Q 359 1206 359 2328 
Q 359 3453 968 4101 
Q 1578 4750 2638 4750 
Q 3056 4750 3426 4639 
Q 3797 4528 4122 4306 
z
" transform="scale(0.015625)"/>
       <path id="DejaVuSans-3bc" d="M 544 -1331 
L 544 3500 
L 1119 3500 
L 1119 1325 
Q 1119 872 1334 640 
Q 1550 409 1972 409 
Q 2434 409 2667 671 
Q 2900 934 2900 1459 
L 2900 3500 
L 3475 3500 
L 3475 806 
Q 3475 619 3529 530 
Q 3584 441 3700 441 
Q 3728 441 3778 458 
Q 3828 475 3916 513 
L 3916 50 
Q 3788 -22 3673 -56 
Q 3559 -91 3450 -91 
Q 3234 -91 3106 31 
Q 2978 153 2931 403 
Q 2775 156 2548 32 
Q 2322 -91 2016 -91 
Q 1697 -91 1473 31 
Q 1250 153 1119 397 
L 1119 -1331 
L 544 -1331 
z
" transform="scale(0.015625)"/>
       <path id="DejaVuSans-6d" d="M 3328 2828 
Q 3544 3216 3844 3400 
Q 4144 3584 4550 3584 
Q 5097 3584 5394 3201 
Q 5691 2819 5691 2113 
L 5691 0 
L 5113 0 
L 5113 2094 
Q 5113 2597 4934 2840 
Q 4756 3084 4391 3084 
Q 3944 3084 3684 2787 
Q 3425 2491 3425 1978 
L 3425 0 
L 2847 0 
L 2847 2094 
Q 2847 2600 2669 2842 
Q 2491 3084 2119 3084 
Q 1678 3084 1418 2786 
Q 1159 2488 1159 1978 
L 1159 0 
L 581 0 
L 581 3500 
L 1159 3500 
L 1159 2956 
Q 1356 3278 1631 3431 
Q 1906 3584 2284 3584 
Q 2666 3584 2933 3390 
Q 3200 3197 3328 2828 
z
" transform="scale(0.015625)"/>
       <path id="DejaVuSans-2f" d="M 1625 4666 
L 2156 4666 
L 531 -594 
L 0 -594 
L 1625 4666 
z
" transform="scale(0.015625)"/>
      </defs>
      <use xlink:href="#DejaVuSans-44" transform="translate(0 0.765625)"/>
      <use xlink:href="#DejaVuSans-53" transform="translate(77.001953 0.765625)"/>
      <use xlink:href="#DejaVuSans-43" transform="translate(140.478516 0.765625)"/>
      <use xlink:href="#DejaVuSans-20" transform="translate(210.302734 0.765625)"/>
      <use xlink:href="#DejaVuSans-5b" transform="translate(242.089844 0.765625)"/>
      <use xlink:href="#DejaVuSans-3bc" transform="translate(281.103516 0.765625)"/>
      <use xlink:href="#DejaVuSans-6d" transform="translate(344.726562 0.765625)"/>
      <use xlink:href="#DejaVuSans-32" transform="translate(443.095703 39.046875) scale(0.7)"/>
      <use xlink:href="#DejaVuSans-2f" transform="translate(490.366211 0.765625)"/>
      <use xlink:href="#DejaVuSans-73" transform="translate(524.057617 0.765625)"/>
      <use xlink:href="#DejaVuSans-72" transform="translate(576.157227 0.765625)"/>
      <use xlink:href="#DejaVuSans-5d" transform="translate(617.270508 0.765625)"/>
     </g>
    </g>
   </g>
   <g id="line2d_71">
    <path d="M 54.884 261.216 
L 58.451192 231.095851 
L 62.018384 218.740901 
L 65.585576 211.776619 
L 69.152768 207.400539 
L 72.71996 204.53178 
L 76.287152 202.649714 
L 79.854343 201.469941 
L 83.421535 200.824147 
L 86.988727 200.607343 
L 90.555919 200.751908 
L 94.123111 201.21373 
L 97.690303 201.964349 
L 101.257495 202.986281 
L 104.824687 204.270125 
L 108.391879 205.812668 
L 111.959071 207.615516 
L 115.526263 209.683863 
L 119.093455 212.02498 
L 122.660646 214.645799 
L 126.227838 217.548505 
L 129.79503 220.722196 
L 133.362222 224.127288 
L 136.929414 227.667822 
L 140.496606 231.148175 
L 144.063798 234.224682 
L 147.63099 236.40455 
L 151.198182 237.188085 
L 154.765374 236.352246 
L 158.332566 234.114566 
L 161.899758 230.969523 
L 165.466949 227.404866 
L 169.034141 223.759089 
L 172.601333 220.222315 
L 176.168525 216.88457 
L 179.735717 213.778966 
L 183.302909 210.909266 
L 186.870101 208.265301 
L 190.437293 205.831067 
L 194.004485 203.588802 
L 197.571677 201.520945 
L 201.138869 199.611017 
L 204.706061 197.84395 
L 208.273253 196.206143 
L 211.840444 194.685399 
L 215.407636 193.270806 
L 218.974828 191.952601 
L 222.54202 190.722047 
L 226.109212 189.571306 
L 229.676404 188.493336 
L 233.243596 187.481802 
L 236.810788 186.530993 
L 240.37798 185.635755 
L 243.945172 184.791438 
L 247.512364 183.993844 
L 251.079556 183.239187 
L 254.646747 182.524058 
L 258.213939 181.845399 
L 261.781131 181.200474 
L 265.348323 180.586854 
L 268.915515 180.002392 
L 272.482707 179.445215 
L 276.049899 178.91371 
L 279.617091 178.406512 
L 283.184283 177.922498 
L 286.751475 177.460779 
L 290.318667 177.020698 
L 293.885859 176.601825 
L 297.453051 176.203956 
L 301.020242 175.827114 
L 304.587434 175.471557 
L 308.154626 175.137774 
L 311.721818 174.826507 
L 315.28901 174.538752 
L 318.856202 174.275786 
L 322.423394 174.039191 
L 325.990586 173.830879 
L 329.557778 173.653146 
L 333.12497 173.508721 
L 336.692162 173.400843 
L 340.259354 173.333358 
L 343.826545 173.310853 
L 347.393737 173.338826 
L 350.960929 173.423923 
L 354.528121 173.574258 
L 358.095313 173.799857 
L 361.662505 174.113276 
L 365.229697 174.530495 
L 368.796889 175.072219 
L 372.364081 175.765819 
L 375.931273 176.648344 
L 379.498465 177.771311 
L 383.065657 179.208686 
L 386.632848 181.070848 
L 390.20004 183.530642 
L 393.767232 186.87622 
L 397.334424 191.63125 
L 400.901616 198.878986 
L 404.468808 211.423651 
L 408.036 241.640943 
" clip-path="url(#p58ea4faeda)" style="fill: none; stroke: #1f77b4; stroke-width: 1.5; stroke-linecap: square"/>
   </g>
   <g id="line2d_72">
    <path d="M 54.884 230.653795 
L 58.451192 200.762205 
L 62.018384 188.852624 
L 65.585576 182.55066 
L 69.152768 179.052281 
L 72.71996 177.270574 
L 76.287152 176.669476 
L 79.854343 176.93121 
L 83.421535 177.822077 
L 86.988727 179.118585 
L 90.555919 180.555749 
L 94.123111 181.797391 
L 97.690303 182.456798 
L 101.257495 182.199488 
L 104.824687 180.891358 
L 108.391879 178.66348 
L 111.959071 175.821645 
L 115.526263 172.694103 
L 119.093455 169.536401 
L 122.660646 166.512272 
L 126.227838 163.712345 
L 129.79503 161.179273 
L 133.362222 158.927364 
L 136.929414 156.955347 
L 140.496606 155.253992 
L 144.063798 153.810438 
L 147.63099 152.610581 
L 151.198182 151.640345 
L 154.765374 150.886331 
L 158.332566 150.336117 
L 161.899758 149.978379 
L 165.466949 149.802914 
L 169.034141 149.800615 
L 172.601333 149.963421 
L 176.168525 150.284267 
L 179.735717 150.757012 
L 183.302909 151.376368 
L 186.870101 152.137797 
L 190.437293 153.037368 
L 194.004485 154.071528 
L 197.571677 155.236754 
L 201.138869 156.528983 
L 204.706061 157.942732 
L 208.273253 159.469713 
L 211.840444 161.096719 
L 215.407636 162.802495 
L 218.974828 164.553273 
L 222.54202 166.296908 
L 226.109212 167.95618 
L 229.676404 169.423423 
L 233.243596 170.561118 
L 236.810788 171.2152 
L 240.37798 171.245468 
L 243.945172 170.566651 
L 247.512364 169.179632 
L 251.079556 167.171958 
L 254.646747 164.687235 
L 258.213939 161.883886 
L 261.781131 158.904132 
L 265.348323 155.860086 
L 268.915515 152.832786 
L 272.482707 149.877414 
L 276.049899 147.029948 
L 279.617091 144.313045 
L 283.184283 141.740529 
L 286.751475 139.320555 
L 290.318667 137.057747 
L 293.885859 134.954601 
L 297.453051 133.012382 
L 301.020242 131.231694 
L 304.587434 129.612827 
L 308.154626 128.155968 
L 311.721818 126.861315 
L 315.28901 125.729138 
L 318.856202 124.759799 
L 322.423394 123.953755 
L 325.990586 123.311532 
L 329.557778 122.833711 
L 333.12497 122.520895 
L 336.692162 122.373683 
L 340.259354 122.392658 
L 343.826545 122.578378 
L 347.393737 122.931408 
L 350.960929 123.452388 
L 354.528121 124.142176 
L 358.095313 125.002105 
L 361.662505 126.03442 
L 365.229697 127.242991 
L 368.796889 128.634467 
L 372.364081 130.220135 
L 375.931273 132.018912 
L 379.498465 134.062252 
L 383.065657 136.402383 
L 386.632848 139.126723 
L 390.20004 142.384584 
L 393.767232 146.440864 
L 397.334424 151.797276 
L 400.901616 159.517552 
L 404.468808 172.389939 
L 408.036 202.778724 
" clip-path="url(#p58ea4faeda)" style="fill: none; stroke: #ff7f0e; stroke-width: 1.5; stroke-linecap: square"/>
   </g>
   <g id="line2d_73">
    <path d="M 54.884 184.834005 
L 58.451192 156.31964 
L 62.018384 147.049309 
L 65.585576 144.4972 
L 69.152768 145.430039 
L 72.71996 147.819285 
L 76.287152 149.77715 
L 79.854343 150.202959 
L 83.421535 149.247063 
L 86.988727 146.969936 
L 90.555919 142.355232 
L 94.123111 134.831111 
L 97.690303 125.719258 
L 101.257495 116.771548 
L 104.824687 108.922143 
L 108.391879 102.449854 
L 111.959071 97.349323 
L 115.526263 93.519125 
L 119.093455 90.829175 
L 122.660646 89.137042 
L 126.227838 88.284343 
L 129.79503 88.086578 
L 133.362222 88.326007 
L 136.929414 88.759635 
L 140.496606 89.154305 
L 144.063798 89.346525 
L 147.63099 89.296499 
L 151.198182 89.095699 
L 154.765374 88.921254 
L 158.332566 88.972688 
L 161.899758 89.428011 
L 165.466949 90.42889 
L 169.034141 92.085602 
L 172.601333 94.490606 
L 176.168525 97.734922 
L 179.735717 101.92669 
L 183.302909 107.215188 
L 186.870101 113.827703 
L 190.437293 122.132873 
L 194.004485 132.744859 
L 197.571677 146.543246 
L 201.138869 162.499454 
L 204.706061 165.337982 
L 208.273253 152.509962 
L 211.840444 140.937541 
L 215.407636 132.503898 
L 218.974828 126.301171 
L 222.54202 121.661133 
L 226.109212 118.196987 
L 229.676404 115.695469 
L 233.243596 114.049197 
L 236.810788 113.219232 
L 240.37798 113.214508 
L 243.945172 114.080304 
L 247.512364 115.889483 
L 251.079556 118.726192 
L 254.646747 122.634238 
L 258.213939 127.44952 
L 261.781131 132.341483 
L 265.348323 135.172248 
L 268.915515 133.624652 
L 272.482707 128.471513 
L 276.049899 122.41756 
L 279.617091 117.143652 
L 283.184283 113.261333 
L 286.751475 110.991059 
L 290.318667 110.516662 
L 293.885859 112.16561 
L 297.453051 116.618876 
L 301.020242 125.43906 
L 304.587434 143.053194 
L 308.154626 174.0735 
L 311.721818 137.72551 
L 315.28901 113.78118 
L 318.856202 98.735717 
L 322.423394 87.994905 
L 325.990586 79.908241 
L 329.557778 73.716444 
L 333.12497 69.014132 
L 336.692162 65.564496 
L 340.259354 63.221866 
L 343.826545 61.894795 
L 347.393737 61.526778 
L 350.960929 62.085594 
L 354.528121 63.557392 
L 358.095313 65.943866 
L 361.662505 69.262018 
L 365.229697 73.546916 
L 368.796889 78.858809 
L 372.364081 85.297471 
L 375.931273 93.029377 
L 379.498465 102.339556 
L 383.065657 113.737085 
L 386.632848 128.201303 
L 390.20004 147.90822 
L 393.767232 179.366634 
L 397.334424 219.679045 
L 400.901616 189.706497 
L 404.468808 187.643711 
L 408.036 212.10998 
" clip-path="url(#p58ea4faeda)" style="fill: none; stroke: #2ca02c; stroke-width: 1.5; stroke-linecap: square"/>
   </g>
   <g id="line2d_74">
    <path d="M 54.884 199.396201 
L 58.451192 178.903338 
L 62.018384 188.221173 
L 65.585576 183.930973 
L 69.152768 155.691882 
L 72.71996 136.834776 
L 76.287152 122.453001 
L 79.854343 110.859261 
L 83.421535 101.738706 
L 86.988727 94.653449 
L 90.555919 89.075646 
L 94.123111 84.762098 
L 97.690303 81.850307 
L 101.257495 80.63254 
L 104.824687 81.293545 
L 108.391879 83.705525 
L 111.959071 87.046843 
L 115.526263 89.176052 
L 119.093455 87.593762 
L 122.660646 82.945851 
L 126.227838 78.168192 
L 129.79503 75.185123 
L 133.362222 74.69104 
L 136.929414 76.757883 
L 140.496606 80.910075 
L 144.063798 85.696329 
L 147.63099 88.716668 
L 151.198182 88.968578 
L 154.765374 88.175309 
L 158.332566 88.072449 
L 161.899758 88.884771 
L 165.466949 89.724568 
L 169.034141 89.625105 
L 172.601333 88.679746 
L 176.168525 87.948038 
L 179.735717 88.507296 
L 183.302909 91.084955 
L 186.870101 96.248431 
L 190.437293 104.74623 
L 194.004485 118.038889 
L 197.571677 139.221989 
L 201.138869 158.216707 
L 204.706061 138.997758 
L 208.273253 125.13352 
L 211.840444 118.196511 
L 215.407636 115.549195 
L 218.974828 116.077263 
L 222.54202 119.35158 
L 226.109212 125.131822 
L 229.676404 132.409929 
L 233.243596 137.117518 
L 236.810788 134.502813 
L 240.37798 128.385409 
L 243.945172 124.04411 
L 247.512364 123.478934 
L 251.079556 127.844432 
L 254.646747 138.468088 
L 258.213939 147.973701 
L 261.781131 133.023105 
L 265.348323 116.943151 
L 268.915515 107.676751 
L 272.482707 104.563471 
L 276.049899 108.185656 
L 279.617091 121.885235 
L 283.184283 136.526335 
L 286.751475 106.681987 
L 290.318667 86.184782 
L 293.885859 74.157548 
L 297.453051 67.569239 
L 301.020242 65.218301 
L 304.587434 66.269288 
L 308.154626 68.758417 
L 311.721818 68.27658 
L 315.28901 63.077811 
L 318.856202 57.756368 
L 322.423394 56.386219 
L 325.990586 61.957587 
L 329.557778 81.887773 
L 333.12497 100.84235 
L 336.692162 56.772291 
L 340.259354 36.708722 
L 343.826545 25.684912 
L 347.393737 20.223005 
L 350.960929 19.296 
L 354.528121 22.863111 
L 358.095313 31.784122 
L 361.662505 48.805804 
L 365.229697 83.389896 
L 368.796889 81.652937 
L 372.364081 59.562764 
L 375.931273 53.466601 
L 379.498465 55.716488 
L 383.065657 64.246439 
L 386.632848 78.163121 
L 390.20004 94.357814 
L 393.767232 98.914362 
L 397.334424 90.203272 
L 400.901616 84.333211 
L 404.468808 87.914166 
L 408.036 113.574199 
" clip-path="url(#p58ea4faeda)" style="fill: none; stroke: #d62728; stroke-width: 1.5; stroke-linecap: square"/>
   </g>
   <g id="patch_3">
    <path d="M 52.9 273.312 
L 52.9 7.2 
" style="fill: none; stroke: #000000; stroke-width: 0.8; stroke-linejoin: miter; stroke-linecap: square"/>
   </g>
   <g id="patch_4">
    <path d="M 410.02 273.312 
L 410.02 7.2 
" style="fill: none; stroke: #000000; stroke-width: 0.8; stroke-linejoin: miter; stroke-linecap: square"/>
   </g>
   <g id="patch_5">
    <path d="M 52.9 273.312 
L 410.02 273.312 
" style="fill: none; stroke: #000000; stroke-width: 0.8; stroke-linejoin: miter; stroke-linecap: square"/>
   </g>
   <g id="patch_6">
    <path d="M 52.9 7.2 
L 410.02 7.2 
" style="fill: none; stroke: #000000; stroke-width: 0.8; stroke-linejoin: miter; stroke-linecap: square"/>
   </g>
   <g id="legend_1">
    <g id="patch_7">
     <path d="M 59.9 73.9125 
L 149.520313 73.9125 
Q 151.520313 73.9125 151.520313 71.9125 
L 151.520313 14.2 
Q 151.520313 12.2 149.520313 12.2 
L 59.9 12.2 
Q 57.9 12.2 57.9 14.2 
L 57.9 71.9125 
Q 57.9 73.9125 59.9 73.9125 
z
" style="fill: #ffffff; opacity: 0.8; stroke: #cccccc; stroke-linejoin: miter"/>
    </g>
    <g id="line2d_75">
     <path d="M 61.9 20.298438 
L 71.9 20.298438 
L 81.9 20.298438 
" style="fill: none; stroke: #1f77b4; stroke-width: 1.5; stroke-linecap: square"/>
    </g>
    <g id="text_17">
     <!-- D = 0.1 µm -->
     <g transform="translate(89.9 23.798438) scale(0.1 -0.1)">
      <defs>
       <path id="DejaVuSans-3d" d="M 678 2906 
L 4684 2906 
L 4684 2381 
L 678 2381 
L 678 2906 
z
M 678 1631 
L 4684 1631 
L 4684 1100 
L 678 1100 
L 678 1631 
z
" transform="scale(0.015625)"/>
       <path id="DejaVuSans-2e" d="M 684 794 
L 1344 794 
L 1344 0 
L 684 0 
L 684 794 
z
" transform="scale(0.015625)"/>
       <path id="DejaVuSans-b5" d="M 544 -1331 
L 544 3500 
L 1119 3500 
L 1119 1325 
Q 1119 872 1334 640 
Q 1550 409 1972 409 
Q 2434 409 2667 671 
Q 2900 934 2900 1459 
L 2900 3500 
L 3475 3500 
L 3475 806 
Q 3475 619 3529 530 
Q 3584 441 3700 441 
Q 3728 441 3778 458 
Q 3828 475 3916 513 
L 3916 50 
Q 3788 -22 3673 -56 
Q 3559 -91 3450 -91 
Q 3234 -91 3106 31 
Q 2978 153 2931 403 
Q 2775 156 2548 32 
Q 2322 -91 2016 -91 
Q 1697 -91 1473 31 
Q 1250 153 1119 397 
L 1119 -1331 
L 544 -1331 
z
" transform="scale(0.015625)"/>
      </defs>
      <use xlink:href="#DejaVuSans-44"/>
      <use xlink:href="#DejaVuSans-20" transform="translate(77.001953 0)"/>
      <use xlink:href="#DejaVuSans-3d" transform="translate(108.789062 0)"/>
      <use xlink:href="#DejaVuSans-20" transform="translate(192.578125 0)"/>
      <use xlink:href="#DejaVuSans-30" transform="translate(224.365234 0)"/>
      <use xlink:href="#DejaVuSans-2e" transform="translate(287.988281 0)"/>
      <use xlink:href="#DejaVuSans-31" transform="translate(319.775391 0)"/>
      <use xlink:href="#DejaVuSans-20" transform="translate(383.398438 0)"/>
      <use xlink:href="#DejaVuSans-b5" transform="translate(415.185547 0)"/>
      <use xlink:href="#DejaVuSans-6d" transform="translate(478.808594 0)"/>
     </g>
    </g>
    <g id="line2d_76">
     <path d="M 61.9 34.976563 
L 71.9 34.976563 
L 81.9 34.976563 
" style="fill: none; stroke: #ff7f0e; stroke-width: 1.5; stroke-linecap: square"/>
    </g>
    <g id="text_18">
     <!-- D = 0.2 µm -->
     <g transform="translate(89.9 38.476563) scale(0.1 -0.1)">
      <use xlink:href="#DejaVuSans-44"/>
      <use xlink:href="#DejaVuSans-20" transform="translate(77.001953 0)"/>
      <use xlink:href="#DejaVuSans-3d" transform="translate(108.789062 0)"/>
      <use xlink:href="#DejaVuSans-20" transform="translate(192.578125 0)"/>
      <use xlink:href="#DejaVuSans-30" transform="translate(224.365234 0)"/>
      <use xlink:href="#DejaVuSans-2e" transform="translate(287.988281 0)"/>
      <use xlink:href="#DejaVuSans-32" transform="translate(319.775391 0)"/>
      <use xlink:href="#DejaVuSans-20" transform="translate(383.398438 0)"/>
      <use xlink:href="#DejaVuSans-b5" transform="translate(415.185547 0)"/>
      <use xlink:href="#DejaVuSans-6d" transform="translate(478.808594 0)"/>
     </g>
    </g>
    <g id="line2d_77">
     <path d="M 61.9 49.654688 
L 71.9 49.654688 
L 81.9 49.654688 
" style="fill: none; stroke: #2ca02c; stroke-width: 1.5; stroke-linecap: square"/>
    </g>
    <g id="text_19">
     <!-- D = 0.5 µm -->
     <g transform="translate(89.9 53.154688) scale(0.1 -0.1)">
      <use xlink:href="#DejaVuSans-44"/>
      <use xlink:href="#DejaVuSans-20" transform="translate(77.001953 0)"/>
      <use xlink:href="#DejaVuSans-3d" transform="translate(108.789062 0)"/>
      <use xlink:href="#DejaVuSans-20" transform="translate(192.578125 0)"/>
      <use xlink:href="#DejaVuSans-30" transform="translate(224.365234 0)"/>
      <use xlink:href="#DejaVuSans-2e" transform="translate(287.988281 0)"/>
      <use xlink:href="#DejaVuSans-35" transform="translate(319.775391 0)"/>
      <use xlink:href="#DejaVuSans-20" transform="translate(383.398438 0)"/>
      <use xlink:href="#DejaVuSans-b5" transform="translate(415.185547 0)"/>
      <use xlink:href="#DejaVuSans-6d" transform="translate(478.808594 0)"/>
     </g>
    </g>
    <g id="line2d_78">
     <path d="M 61.9 64.332813 
L 71.9 64.332813 
L 81.9 64.332813 
" style="fill: none; stroke: #d62728; stroke-width: 1.5; stroke-linecap: square"/>
    </g>
    <g id="text_20">
     <!-- D = 1 µm -->
     <g transform="translate(89.9 67.832813) scale(0.1 -0.1)">
      <use xlink:href="#DejaVuSans-44"/>
      <use xlink:href="#DejaVuSans-20" transform="translate(77.001953 0)"/>
      <use xlink:href="#DejaVuSans-3d" transform="translate(108.789062 0)"/>
      <use xlink:href="#DejaVuSans-20" transform="translate(192.578125 0)"/>
      <use xlink:href="#DejaVuSans-31" transform="translate(224.365234 0)"/>
      <use xlink:href="#DejaVuSans-20" transform="translate(287.988281 0)"/>
      <use xlink:href="#DejaVuSans-b5" transform="translate(319.775391 0)"/>
      <use xlink:href="#DejaVuSans-6d" transform="translate(383.398438 0)"/>
     </g>
    </g>
   </g>
  </g>
 </g>
 <defs>
  <clipPath id="p58ea4faeda">
   <rect x="52.9" y="7.2" width="357.12" height="266.112"/>
  </clipPath>
 </defs>
</svg>
