<?xml version="1.0" encoding="utf-8" standalone="no"?>
<!DOCTYPE svg PUBLIC "-//W3C//DTD SVG 1.1//EN"
  "http://www.w3.org/Graphics/SVG/1.1/DTD/svg11.dtd">
<!-- Created with matplotlib (https://matplotlib.org/) -->
<svg height="269.518125pt" version="1.1" viewBox="0 0 278.194266 269.518125" width="278.194266pt" xmlns="http://www.w3.org/2000/svg" xmlns:xlink="http://www.w3.org/1999/xlink">
 <metadata>
  <rdf:RDF xmlns:cc="http://creativecommons.org/ns#" xmlns:dc="http://purl.org/dc/elements/1.1/" xmlns:rdf="http://www.w3.org/1999/02/22-rdf-syntax-ns#">
   <cc:Work>
    <dc:type rdf:resource="http://purl.org/dc/dcmitype/StillImage"/>
    <dc:date>2021-01-29T11:02:29.382592</dc:date>
    <dc:format>image/svg+xml</dc:format>
    <dc:creator>
     <cc:Agent>
      <dc:title>Matplotlib v3.3.1, https://matplotlib.org/</dc:title>
     </cc:Agent>
    </dc:creator>
   </cc:Work>
  </rdf:RDF>
 </metadata>
 <defs>
  <style type="text/css">*{stroke-linecap:butt;stroke-linejoin:round;}</style>
 </defs>
 <g id="figure_1">
  <g id="patch_1">
   <path d="M 0 269.518125 
L 278.194266 269.518125 
L 278.194266 0 
L 0 0 
z
" style="fill:none;"/>
  </g>
  <g id="axes_1">
   <g id="patch_2">
    <path d="M 250.68375 134.759062 
C 250.68375 120.482083 247.871496 106.343929 242.407933 93.15372 
C 236.944369 79.963511 228.935748 67.977762 218.840399 57.882413 
C 208.74505 47.787064 196.759302 39.778443 183.569093 34.31488 
C 170.378884 28.851316 156.24073 26.039062 141.96375 26.039062 
C 127.68677 26.039062 113.548616 28.851316 100.358407 34.31488 
C 87.168198 39.778443 75.18245 47.787064 65.087101 57.882413 
C 54.991752 67.977762 46.983131 79.963511 41.519567 93.15372 
C 36.056004 106.343929 33.24375 120.482083 33.24375 134.759062 
C 33.24375 149.036042 36.056004 163.174196 41.519567 176.364405 
C 46.983131 189.554614 54.991752 201.540363 65.087101 211.635712 
C 75.18245 221.731061 87.168198 229.739682 100.358407 235.203245 
C 113.548616 240.666809 127.68677 243.479062 141.96375 243.479062 
C 156.24073 243.479062 170.378884 240.666809 183.569093 235.203245 
C 196.759302 229.739682 208.74505 221.731061 218.840399 211.635712 
C 228.935748 201.540363 236.944369 189.554614 242.407933 176.364405 
C 247.871496 163.174196 250.68375 149.036042 250.68375 134.759063 
M 141.96375 134.759062 
C 141.96375 134.759062 141.96375 134.759062 141.96375 134.759062 
C 141.96375 134.759062 141.96375 134.759062 141.96375 134.759062 
C 141.96375 134.759062 141.96375 134.759062 141.96375 134.759062 
C 141.96375 134.759062 141.96375 134.759062 141.96375 134.759062 
C 141.96375 134.759062 141.96375 134.759062 141.96375 134.759062 
C 141.96375 134.759062 141.96375 134.759062 141.96375 134.759062 
C 141.96375 134.759062 141.96375 134.759062 141.96375 134.759062 
C 141.96375 134.759062 141.96375 134.759062 141.96375 134.759062 
C 141.96375 134.759062 141.96375 134.759062 141.96375 134.759062 
C 141.96375 134.759062 141.96375 134.759062 141.96375 134.759062 
C 141.96375 134.759062 141.96375 134.759062 141.96375 134.759062 
C 141.96375 134.759062 141.96375 134.759062 141.96375 134.759062 
C 141.96375 134.759062 141.96375 134.759062 141.96375 134.759062 
C 141.96375 134.759062 141.96375 134.759062 141.96375 134.759062 
C 141.96375 134.759062 141.96375 134.759062 141.96375 134.759062 
C 141.96375 134.759062 141.96375 134.759062 141.96375 134.759062 
M 250.68375 134.759062 
z
" style="fill:#ffffff;"/>
   </g>
   <g id="matplotlib.axis_1">
    <g id="xtick_1">
     <g id="line2d_1">
      <path clip-path="url(#p9675cecb51)" d="M 141.96375 134.759062 
L 250.68375 134.759062 
" style="fill:none;stroke:#b0b0b0;stroke-linecap:square;stroke-width:0.8;"/>
     </g>
     <g id="text_1">
      <!-- 0° -->
      <g transform="translate(259.0025 137.518438)scale(0.1 -0.1)">
       <defs>
        <path d="M 31.78125 66.40625 
Q 24.171875 66.40625 20.328125 58.90625 
Q 16.5 51.421875 16.5 36.375 
Q 16.5 21.390625 20.328125 13.890625 
Q 24.171875 6.390625 31.78125 6.390625 
Q 39.453125 6.390625 43.28125 13.890625 
Q 47.125 21.390625 47.125 36.375 
Q 47.125 51.421875 43.28125 58.90625 
Q 39.453125 66.40625 31.78125 66.40625 
z
M 31.78125 74.21875 
Q 44.046875 74.21875 50.515625 64.515625 
Q 56.984375 54.828125 56.984375 36.375 
Q 56.984375 17.96875 50.515625 8.265625 
Q 44.046875 -1.421875 31.78125 -1.421875 
Q 19.53125 -1.421875 13.0625 8.265625 
Q 6.59375 17.96875 6.59375 36.375 
Q 6.59375 54.828125 13.0625 64.515625 
Q 19.53125 74.21875 31.78125 74.21875 
z
" id="DejaVuSans-48"/>
        <path d="M 25 67.921875 
Q 21.09375 67.921875 18.40625 65.203125 
Q 15.71875 62.5 15.71875 58.59375 
Q 15.71875 54.734375 18.40625 52.078125 
Q 21.09375 49.421875 25 49.421875 
Q 28.90625 49.421875 31.59375 52.078125 
Q 34.28125 54.734375 34.28125 58.59375 
Q 34.28125 62.453125 31.5625 65.1875 
Q 28.859375 67.921875 25 67.921875 
z
M 25 74.21875 
Q 28.125 74.21875 31 73.015625 
Q 33.890625 71.828125 35.984375 69.578125 
Q 38.234375 67.390625 39.359375 64.59375 
Q 40.484375 61.8125 40.484375 58.59375 
Q 40.484375 52.15625 35.96875 47.6875 
Q 31.453125 43.21875 24.90625 43.21875 
Q 18.3125 43.21875 13.90625 47.609375 
Q 9.515625 52 9.515625 58.59375 
Q 9.515625 65.140625 14 69.671875 
Q 18.5 74.21875 25 74.21875 
z
" id="DejaVuSans-176"/>
       </defs>
       <use xlink:href="#DejaVuSans-48"/>
       <use x="63.623047" xlink:href="#DejaVuSans-176"/>
      </g>
     </g>
    </g>
    <g id="xtick_2">
     <g id="line2d_2">
      <path clip-path="url(#p9675cecb51)" d="M 141.96375 134.759062 
L 218.840399 57.882413 
" style="fill:none;stroke:#b0b0b0;stroke-linecap:square;stroke-width:0.8;"/>
     </g>
     <g id="text_2">
      <!-- 45° -->
      <g transform="translate(219.877394 50.742293)scale(0.1 -0.1)">
       <defs>
        <path d="M 37.796875 64.3125 
L 12.890625 25.390625 
L 37.796875 25.390625 
z
M 35.203125 72.90625 
L 47.609375 72.90625 
L 47.609375 25.390625 
L 58.015625 25.390625 
L 58.015625 17.1875 
L 47.609375 17.1875 
L 47.609375 0 
L 37.796875 0 
L 37.796875 17.1875 
L 4.890625 17.1875 
L 4.890625 26.703125 
z
" id="DejaVuSans-52"/>
        <path d="M 10.796875 72.90625 
L 49.515625 72.90625 
L 49.515625 64.59375 
L 19.828125 64.59375 
L 19.828125 46.734375 
Q 21.96875 47.46875 24.109375 47.828125 
Q 26.265625 48.1875 28.421875 48.1875 
Q 40.625 48.1875 47.75 41.5 
Q 54.890625 34.8125 54.890625 23.390625 
Q 54.890625 11.625 47.5625 5.09375 
Q 40.234375 -1.421875 26.90625 -1.421875 
Q 22.3125 -1.421875 17.546875 -0.640625 
Q 12.796875 0.140625 7.71875 1.703125 
L 7.71875 11.625 
Q 12.109375 9.234375 16.796875 8.0625 
Q 21.484375 6.890625 26.703125 6.890625 
Q 35.15625 6.890625 40.078125 11.328125 
Q 45.015625 15.765625 45.015625 23.390625 
Q 45.015625 31 40.078125 35.4375 
Q 35.15625 39.890625 26.703125 39.890625 
Q 22.75 39.890625 18.8125 39.015625 
Q 14.890625 38.140625 10.796875 36.28125 
z
" id="DejaVuSans-53"/>
       </defs>
       <use xlink:href="#DejaVuSans-52"/>
       <use x="63.623047" xlink:href="#DejaVuSans-53"/>
       <use x="127.246094" xlink:href="#DejaVuSans-176"/>
      </g>
     </g>
    </g>
    <g id="xtick_3">
     <g id="line2d_3">
      <path clip-path="url(#p9675cecb51)" d="M 141.96375 134.759062 
L 141.96375 26.039062 
" style="fill:none;stroke:#b0b0b0;stroke-linecap:square;stroke-width:0.8;"/>
     </g>
     <g id="text_3">
      <!-- 90° -->
      <g transform="translate(133.10125 14.798438)scale(0.1 -0.1)">
       <defs>
        <path d="M 10.984375 1.515625 
L 10.984375 10.5 
Q 14.703125 8.734375 18.5 7.8125 
Q 22.3125 6.890625 25.984375 6.890625 
Q 35.75 6.890625 40.890625 13.453125 
Q 46.046875 20.015625 46.78125 33.40625 
Q 43.953125 29.203125 39.59375 26.953125 
Q 35.25 24.703125 29.984375 24.703125 
Q 19.046875 24.703125 12.671875 31.3125 
Q 6.296875 37.9375 6.296875 49.421875 
Q 6.296875 60.640625 12.9375 67.421875 
Q 19.578125 74.21875 30.609375 74.21875 
Q 43.265625 74.21875 49.921875 64.515625 
Q 56.59375 54.828125 56.59375 36.375 
Q 56.59375 19.140625 48.40625 8.859375 
Q 40.234375 -1.421875 26.421875 -1.421875 
Q 22.703125 -1.421875 18.890625 -0.6875 
Q 15.09375 0.046875 10.984375 1.515625 
z
M 30.609375 32.421875 
Q 37.25 32.421875 41.125 36.953125 
Q 45.015625 41.5 45.015625 49.421875 
Q 45.015625 57.28125 41.125 61.84375 
Q 37.25 66.40625 30.609375 66.40625 
Q 23.96875 66.40625 20.09375 61.84375 
Q 16.21875 57.28125 16.21875 49.421875 
Q 16.21875 41.5 20.09375 36.953125 
Q 23.96875 32.421875 30.609375 32.421875 
z
" id="DejaVuSans-57"/>
       </defs>
       <use xlink:href="#DejaVuSans-57"/>
       <use x="63.623047" xlink:href="#DejaVuSans-48"/>
       <use x="127.246094" xlink:href="#DejaVuSans-176"/>
      </g>
     </g>
    </g>
    <g id="xtick_4">
     <g id="line2d_4">
      <path clip-path="url(#p9675cecb51)" d="M 141.96375 134.759062 
L 65.087101 57.882413 
" style="fill:none;stroke:#b0b0b0;stroke-linecap:square;stroke-width:0.8;"/>
     </g>
     <g id="text_4">
      <!-- 135° -->
      <g transform="translate(43.143856 50.742293)scale(0.1 -0.1)">
       <defs>
        <path d="M 12.40625 8.296875 
L 28.515625 8.296875 
L 28.515625 63.921875 
L 10.984375 60.40625 
L 10.984375 69.390625 
L 28.421875 72.90625 
L 38.28125 72.90625 
L 38.28125 8.296875 
L 54.390625 8.296875 
L 54.390625 0 
L 12.40625 0 
z
" id="DejaVuSans-49"/>
        <path d="M 40.578125 39.3125 
Q 47.65625 37.796875 51.625 33 
Q 55.609375 28.21875 55.609375 21.1875 
Q 55.609375 10.40625 48.1875 4.484375 
Q 40.765625 -1.421875 27.09375 -1.421875 
Q 22.515625 -1.421875 17.65625 -0.515625 
Q 12.796875 0.390625 7.625 2.203125 
L 7.625 11.71875 
Q 11.71875 9.328125 16.59375 8.109375 
Q 21.484375 6.890625 26.8125 6.890625 
Q 36.078125 6.890625 40.9375 10.546875 
Q 45.796875 14.203125 45.796875 21.1875 
Q 45.796875 27.640625 41.28125 31.265625 
Q 36.765625 34.90625 28.71875 34.90625 
L 20.21875 34.90625 
L 20.21875 43.015625 
L 29.109375 43.015625 
Q 36.375 43.015625 40.234375 45.921875 
Q 44.09375 48.828125 44.09375 54.296875 
Q 44.09375 59.90625 40.109375 62.90625 
Q 36.140625 65.921875 28.71875 65.921875 
Q 24.65625 65.921875 20.015625 65.03125 
Q 15.375 64.15625 9.8125 62.3125 
L 9.8125 71.09375 
Q 15.4375 72.65625 20.34375 73.4375 
Q 25.25 74.21875 29.59375 74.21875 
Q 40.828125 74.21875 47.359375 69.109375 
Q 53.90625 64.015625 53.90625 55.328125 
Q 53.90625 49.265625 50.4375 45.09375 
Q 46.96875 40.921875 40.578125 39.3125 
z
" id="DejaVuSans-51"/>
       </defs>
       <use xlink:href="#DejaVuSans-49"/>
       <use x="63.623047" xlink:href="#DejaVuSans-51"/>
       <use x="127.246094" xlink:href="#DejaVuSans-53"/>
       <use x="190.869141" xlink:href="#DejaVuSans-176"/>
      </g>
     </g>
    </g>
    <g id="xtick_5">
     <g id="line2d_5">
      <path clip-path="url(#p9675cecb51)" d="M 141.96375 134.759062 
L 33.24375 134.759062 
" style="fill:none;stroke:#b0b0b0;stroke-linecap:square;stroke-width:0.8;"/>
     </g>
     <g id="text_5">
      <!-- 180° -->
      <g transform="translate(7.2 137.518438)scale(0.1 -0.1)">
       <defs>
        <path d="M 31.78125 34.625 
Q 24.75 34.625 20.71875 30.859375 
Q 16.703125 27.09375 16.703125 20.515625 
Q 16.703125 13.921875 20.71875 10.15625 
Q 24.75 6.390625 31.78125 6.390625 
Q 38.8125 6.390625 42.859375 10.171875 
Q 46.921875 13.96875 46.921875 20.515625 
Q 46.921875 27.09375 42.890625 30.859375 
Q 38.875 34.625 31.78125 34.625 
z
M 21.921875 38.8125 
Q 15.578125 40.375 12.03125 44.71875 
Q 8.5 49.078125 8.5 55.328125 
Q 8.5 64.0625 14.71875 69.140625 
Q 20.953125 74.21875 31.78125 74.21875 
Q 42.671875 74.21875 48.875 69.140625 
Q 55.078125 64.0625 55.078125 55.328125 
Q 55.078125 49.078125 51.53125 44.71875 
Q 48 40.375 41.703125 38.8125 
Q 48.828125 37.15625 52.796875 32.3125 
Q 56.78125 27.484375 56.78125 20.515625 
Q 56.78125 9.90625 50.3125 4.234375 
Q 43.84375 -1.421875 31.78125 -1.421875 
Q 19.734375 -1.421875 13.25 4.234375 
Q 6.78125 9.90625 6.78125 20.515625 
Q 6.78125 27.484375 10.78125 32.3125 
Q 14.796875 37.15625 21.921875 38.8125 
z
M 18.3125 54.390625 
Q 18.3125 48.734375 21.84375 45.5625 
Q 25.390625 42.390625 31.78125 42.390625 
Q 38.140625 42.390625 41.71875 45.5625 
Q 45.3125 48.734375 45.3125 54.390625 
Q 45.3125 60.0625 41.71875 63.234375 
Q 38.140625 66.40625 31.78125 66.40625 
Q 25.390625 66.40625 21.84375 63.234375 
Q 18.3125 60.0625 18.3125 54.390625 
z
" id="DejaVuSans-56"/>
       </defs>
       <use xlink:href="#DejaVuSans-49"/>
       <use x="63.623047" xlink:href="#DejaVuSans-56"/>
       <use x="127.246094" xlink:href="#DejaVuSans-48"/>
       <use x="190.869141" xlink:href="#DejaVuSans-176"/>
      </g>
     </g>
    </g>
    <g id="xtick_6">
     <g id="line2d_6">
      <path clip-path="url(#p9675cecb51)" d="M 141.96375 134.759062 
L 65.087101 211.635712 
" style="fill:none;stroke:#b0b0b0;stroke-linecap:square;stroke-width:0.8;"/>
     </g>
     <g id="text_6">
      <!-- 225° -->
      <g transform="translate(43.143856 224.294582)scale(0.1 -0.1)">
       <defs>
        <path d="M 19.1875 8.296875 
L 53.609375 8.296875 
L 53.609375 0 
L 7.328125 0 
L 7.328125 8.296875 
Q 12.9375 14.109375 22.625 23.890625 
Q 32.328125 33.6875 34.8125 36.53125 
Q 39.546875 41.84375 41.421875 45.53125 
Q 43.3125 49.21875 43.3125 52.78125 
Q 43.3125 58.59375 39.234375 62.25 
Q 35.15625 65.921875 28.609375 65.921875 
Q 23.96875 65.921875 18.8125 64.3125 
Q 13.671875 62.703125 7.8125 59.421875 
L 7.8125 69.390625 
Q 13.765625 71.78125 18.9375 73 
Q 24.125 74.21875 28.421875 74.21875 
Q 39.75 74.21875 46.484375 68.546875 
Q 53.21875 62.890625 53.21875 53.421875 
Q 53.21875 48.921875 51.53125 44.890625 
Q 49.859375 40.875 45.40625 35.40625 
Q 44.1875 33.984375 37.640625 27.21875 
Q 31.109375 20.453125 19.1875 8.296875 
z
" id="DejaVuSans-50"/>
       </defs>
       <use xlink:href="#DejaVuSans-50"/>
       <use x="63.623047" xlink:href="#DejaVuSans-50"/>
       <use x="127.246094" xlink:href="#DejaVuSans-53"/>
       <use x="190.869141" xlink:href="#DejaVuSans-176"/>
      </g>
     </g>
    </g>
    <g id="xtick_7">
     <g id="line2d_7">
      <path clip-path="url(#p9675cecb51)" d="M 141.96375 134.759062 
L 141.96375 243.479062 
" style="fill:none;stroke:#b0b0b0;stroke-linecap:square;stroke-width:0.8;"/>
     </g>
     <g id="text_7">
      <!-- 270° -->
      <g transform="translate(129.92 260.238437)scale(0.1 -0.1)">
       <defs>
        <path d="M 8.203125 72.90625 
L 55.078125 72.90625 
L 55.078125 68.703125 
L 28.609375 0 
L 18.3125 0 
L 43.21875 64.59375 
L 8.203125 64.59375 
z
" id="DejaVuSans-55"/>
       </defs>
       <use xlink:href="#DejaVuSans-50"/>
       <use x="63.623047" xlink:href="#DejaVuSans-55"/>
       <use x="127.246094" xlink:href="#DejaVuSans-48"/>
       <use x="190.869141" xlink:href="#DejaVuSans-176"/>
      </g>
     </g>
    </g>
    <g id="xtick_8">
     <g id="line2d_8">
      <path clip-path="url(#p9675cecb51)" d="M 141.96375 134.759062 
L 218.840399 211.635712 
" style="fill:none;stroke:#b0b0b0;stroke-linecap:square;stroke-width:0.8;"/>
     </g>
     <g id="text_8">
      <!-- 315° -->
      <g transform="translate(216.696144 224.294582)scale(0.1 -0.1)">
       <use xlink:href="#DejaVuSans-51"/>
       <use x="63.623047" xlink:href="#DejaVuSans-49"/>
       <use x="127.246094" xlink:href="#DejaVuSans-53"/>
       <use x="190.869141" xlink:href="#DejaVuSans-176"/>
      </g>
     </g>
    </g>
   </g>
   <g id="matplotlib.axis_2">
    <g id="ytick_1">
     <g id="line2d_9">
      <path clip-path="url(#p9675cecb51)" d="M 156.504899 134.759062 
C 156.504899 132.849536 156.128764 130.958578 155.39802 129.194406 
C 154.667276 127.430233 153.596134 125.827156 152.245895 124.476917 
C 150.895656 123.126678 149.292579 122.055536 147.528407 121.324792 
C 145.764235 120.594048 143.873276 120.217913 141.96375 120.217913 
C 140.054224 120.217913 138.163265 120.594048 136.399093 121.324792 
C 134.634921 122.055536 133.031844 123.126678 131.681605 124.476917 
C 130.331366 125.827156 129.260224 127.430233 128.52948 129.194406 
C 127.798736 130.958578 127.422601 132.849536 127.422601 134.759062 
C 127.422601 136.668589 127.798736 138.559547 128.52948 140.323719 
C 129.260224 142.087892 130.331366 143.690969 131.681605 145.041208 
C 133.031844 146.391447 134.634921 147.462589 136.399093 148.193333 
C 138.163265 148.924077 140.054224 149.300212 141.96375 149.300212 
C 143.873276 149.300212 145.764235 148.924077 147.528407 148.193333 
C 149.292579 147.462589 150.895656 146.391447 152.245895 145.041208 
C 153.596134 143.690969 154.667276 142.087892 155.39802 140.323719 
C 156.128764 138.559547 156.504899 136.668589 156.504899 134.759062 
" style="fill:none;stroke:#b0b0b0;stroke-linecap:square;stroke-width:0.8;"/>
     </g>
     <g id="text_9">
      <!-- 0.0005 -->
      <g transform="translate(155.39802 127.114718)scale(0.1 -0.1)">
       <defs>
        <path d="M 10.6875 12.40625 
L 21 12.40625 
L 21 0 
L 10.6875 0 
z
" id="DejaVuSans-46"/>
       </defs>
       <use xlink:href="#DejaVuSans-48"/>
       <use x="63.623047" xlink:href="#DejaVuSans-46"/>
       <use x="95.410156" xlink:href="#DejaVuSans-48"/>
       <use x="159.033203" xlink:href="#DejaVuSans-48"/>
       <use x="222.65625" xlink:href="#DejaVuSans-48"/>
       <use x="286.279297" xlink:href="#DejaVuSans-53"/>
      </g>
     </g>
    </g>
    <g id="ytick_2">
     <g id="line2d_10">
      <path clip-path="url(#p9675cecb51)" d="M 171.046048 134.759062 
C 171.046048 130.94001 170.293778 127.158093 168.83229 123.629749 
C 167.370802 120.101404 165.228518 116.89525 162.52804 114.194772 
C 159.827563 111.494294 156.621408 109.35201 153.093064 107.890522 
C 149.564719 106.429034 145.782802 105.676764 141.96375 105.676764 
C 138.144698 105.676764 134.362781 106.429034 130.834436 107.890522 
C 127.306092 109.35201 124.099937 111.494294 121.39946 114.194772 
C 118.698982 116.89525 116.556698 120.101404 115.09521 123.629749 
C 113.633722 127.158093 112.881452 130.94001 112.881452 134.759062 
C 112.881452 138.578115 113.633722 142.360032 115.09521 145.888376 
C 116.556698 149.416721 118.698982 152.622875 121.39946 155.323353 
C 124.099937 158.023831 127.306092 160.166115 130.834436 161.627603 
C 134.362781 163.089091 138.144698 163.841361 141.96375 163.841361 
C 145.782802 163.841361 149.564719 163.089091 153.093064 161.627603 
C 156.621408 160.166115 159.827563 158.023831 162.52804 155.323353 
C 165.228518 152.622875 167.370802 149.416721 168.83229 145.888376 
C 170.293778 142.360032 171.046048 138.578115 171.046048 134.759062 
" style="fill:none;stroke:#b0b0b0;stroke-linecap:square;stroke-width:0.8;"/>
     </g>
     <g id="text_10">
      <!-- 0.0010 -->
      <g transform="translate(168.83229 121.550061)scale(0.1 -0.1)">
       <use xlink:href="#DejaVuSans-48"/>
       <use x="63.623047" xlink:href="#DejaVuSans-46"/>
       <use x="95.410156" xlink:href="#DejaVuSans-48"/>
       <use x="159.033203" xlink:href="#DejaVuSans-48"/>
       <use x="222.65625" xlink:href="#DejaVuSans-49"/>
       <use x="286.279297" xlink:href="#DejaVuSans-48"/>
      </g>
     </g>
    </g>
    <g id="ytick_3">
     <g id="line2d_11">
      <path clip-path="url(#p9675cecb51)" d="M 185.587198 134.759062 
C 185.587198 129.030484 184.458793 123.357608 182.26656 118.065092 
C 180.074328 112.772575 176.860902 107.963344 172.810186 103.912627 
C 168.759469 99.86191 163.950237 96.648484 158.657721 94.456252 
C 153.365204 92.26402 147.692329 91.135615 141.96375 91.135615 
C 136.235171 91.135615 130.562296 92.26402 125.269779 94.456252 
C 119.977263 96.648484 115.168031 99.86191 111.117314 103.912627 
C 107.066598 107.963344 103.853172 112.772575 101.66094 118.065092 
C 99.468707 123.357608 98.340302 129.030484 98.340302 134.759062 
C 98.340302 140.487641 99.468707 146.160517 101.66094 151.453033 
C 103.853172 156.74555 107.066598 161.554781 111.117314 165.605498 
C 115.168031 169.656215 119.977263 172.869641 125.269779 175.061873 
C 130.562296 177.254105 136.235171 178.38251 141.96375 178.38251 
C 147.692329 178.38251 153.365204 177.254105 158.657721 175.061873 
C 163.950237 172.869641 168.759469 169.656215 172.810186 165.605498 
C 176.860902 161.554781 180.074328 156.74555 182.26656 151.453033 
C 184.458793 146.160517 185.587198 140.487641 185.587198 134.759062 
" style="fill:none;stroke:#b0b0b0;stroke-linecap:square;stroke-width:0.8;"/>
     </g>
     <g id="text_11">
      <!-- 0.0015 -->
      <g transform="translate(182.26656 115.985404)scale(0.1 -0.1)">
       <use xlink:href="#DejaVuSans-48"/>
       <use x="63.623047" xlink:href="#DejaVuSans-46"/>
       <use x="95.410156" xlink:href="#DejaVuSans-48"/>
       <use x="159.033203" xlink:href="#DejaVuSans-48"/>
       <use x="222.65625" xlink:href="#DejaVuSans-49"/>
       <use x="286.279297" xlink:href="#DejaVuSans-53"/>
      </g>
     </g>
    </g>
    <g id="ytick_4">
     <g id="line2d_12">
      <path clip-path="url(#p9675cecb51)" d="M 200.128347 134.759062 
C 200.128347 127.120958 198.623807 119.557124 195.700831 112.500435 
C 192.777854 105.443746 188.493287 99.031437 183.092331 93.630482 
C 177.691375 88.229526 171.279066 83.944958 164.222378 81.021982 
C 157.165689 78.099006 149.601855 76.594466 141.96375 76.594466 
C 134.325645 76.594466 126.761811 78.099006 119.705122 81.021982 
C 112.648434 83.944958 106.236125 88.229526 100.835169 93.630482 
C 95.434213 99.031437 91.149646 105.443746 88.226669 112.500435 
C 85.303693 119.557124 83.799153 127.120958 83.799153 134.759062 
C 83.799153 142.397167 85.303693 149.961001 88.226669 157.01769 
C 91.149646 164.074379 95.434213 170.486688 100.835169 175.887643 
C 106.236125 181.288599 112.648434 185.573167 119.705122 188.496143 
C 126.761811 191.419119 134.325645 192.923659 141.96375 192.923659 
C 149.601855 192.923659 157.165689 191.419119 164.222378 188.496143 
C 171.279066 185.573167 177.691375 181.288599 183.092331 175.887643 
C 188.493287 170.486688 192.777854 164.074379 195.700831 157.01769 
C 198.623807 149.961001 200.128347 142.397167 200.128347 134.759063 
" style="fill:none;stroke:#b0b0b0;stroke-linecap:square;stroke-width:0.8;"/>
     </g>
     <g id="text_12">
      <!-- 0.0020 -->
      <g transform="translate(195.700831 110.420747)scale(0.1 -0.1)">
       <use xlink:href="#DejaVuSans-48"/>
       <use x="63.623047" xlink:href="#DejaVuSans-46"/>
       <use x="95.410156" xlink:href="#DejaVuSans-48"/>
       <use x="159.033203" xlink:href="#DejaVuSans-48"/>
       <use x="222.65625" xlink:href="#DejaVuSans-50"/>
       <use x="286.279297" xlink:href="#DejaVuSans-48"/>
      </g>
     </g>
    </g>
    <g id="ytick_5">
     <g id="line2d_13">
      <path clip-path="url(#p9675cecb51)" d="M 214.669496 134.759062 
C 214.669496 125.211431 212.788821 115.756639 209.135101 106.935778 
C 205.481381 98.114917 200.125671 90.099531 193.374476 83.348336 
C 186.623281 76.597142 178.607895 71.241432 169.787034 67.587712 
C 160.966174 63.933992 151.511381 62.053316 141.96375 62.053316 
C 132.416119 62.053316 122.961326 63.933992 114.140466 67.587712 
C 105.319605 71.241432 97.304219 76.597142 90.553024 83.348336 
C 83.801829 90.099531 78.446119 98.114917 74.792399 106.935778 
C 71.138679 115.756639 69.258004 125.211431 69.258004 134.759062 
C 69.258004 144.306694 71.138679 153.761486 74.792399 162.582347 
C 78.446119 171.403208 83.801829 179.418594 90.553024 186.169789 
C 97.304219 192.920983 105.319605 198.276693 114.140466 201.930413 
C 122.961326 205.584133 132.416119 207.464809 141.96375 207.464809 
C 151.511381 207.464809 160.966174 205.584133 169.787034 201.930413 
C 178.607895 198.276693 186.623281 192.920983 193.374476 186.169789 
C 200.125671 179.418594 205.481381 171.403208 209.135101 162.582347 
C 212.788821 153.761486 214.669496 144.306694 214.669496 134.759063 
" style="fill:none;stroke:#b0b0b0;stroke-linecap:square;stroke-width:0.8;"/>
     </g>
     <g id="text_13">
      <!-- 0.0025 -->
      <g transform="translate(209.135101 104.856091)scale(0.1 -0.1)">
       <use xlink:href="#DejaVuSans-48"/>
       <use x="63.623047" xlink:href="#DejaVuSans-46"/>
       <use x="95.410156" xlink:href="#DejaVuSans-48"/>
       <use x="159.033203" xlink:href="#DejaVuSans-48"/>
       <use x="222.65625" xlink:href="#DejaVuSans-50"/>
       <use x="286.279297" xlink:href="#DejaVuSans-53"/>
      </g>
     </g>
    </g>
    <g id="ytick_6">
     <g id="line2d_14">
      <path clip-path="url(#p9675cecb51)" d="M 229.210645 134.759062 
C 229.210645 123.301905 226.953835 111.956154 222.569371 101.371121 
C 218.184907 90.786088 211.758055 81.167625 203.656621 73.066191 
C 195.555188 64.964758 185.936725 58.537906 175.351691 54.153442 
C 164.766658 49.768977 153.420907 47.512167 141.96375 47.512167 
C 130.506593 47.512167 119.160842 49.768977 108.575809 54.153442 
C 97.990775 58.537906 88.372312 64.964758 80.270879 73.066191 
C 72.169445 81.167625 65.742593 90.786088 61.358129 101.371121 
C 56.973665 111.956154 54.716855 123.301905 54.716855 134.759062 
C 54.716855 146.21622 56.973665 157.561971 61.358129 168.147004 
C 65.742593 178.732037 72.169445 188.3505 80.270879 196.451934 
C 88.372312 204.553367 97.990775 210.980219 108.575809 215.364683 
C 119.160842 219.749148 130.506593 222.005958 141.96375 222.005958 
C 153.420907 222.005958 164.766658 219.749148 175.351691 215.364683 
C 185.936725 210.980219 195.555188 204.553367 203.656621 196.451934 
C 211.758055 188.3505 218.184907 178.732037 222.569371 168.147004 
C 226.953835 157.561971 229.210645 146.21622 229.210645 134.759063 
" style="fill:none;stroke:#b0b0b0;stroke-linecap:square;stroke-width:0.8;"/>
     </g>
     <g id="text_14">
      <!-- 0.0030 -->
      <g transform="translate(222.569371 99.291434)scale(0.1 -0.1)">
       <use xlink:href="#DejaVuSans-48"/>
       <use x="63.623047" xlink:href="#DejaVuSans-46"/>
       <use x="95.410156" xlink:href="#DejaVuSans-48"/>
       <use x="159.033203" xlink:href="#DejaVuSans-48"/>
       <use x="222.65625" xlink:href="#DejaVuSans-51"/>
       <use x="286.279297" xlink:href="#DejaVuSans-48"/>
      </g>
     </g>
    </g>
    <g id="ytick_7">
     <g id="line2d_15">
      <path clip-path="url(#p9675cecb51)" d="M 243.751795 134.759062 
C 243.751795 121.392379 241.118849 108.15567 236.003641 95.806464 
C 230.888433 83.457259 223.390439 72.235719 213.938767 62.784046 
C 204.487094 53.332373 193.265554 45.83438 180.916348 40.719171 
C 168.567143 35.603963 155.330434 32.971018 141.96375 32.971018 
C 128.597066 32.971018 115.360357 35.603963 103.011152 40.719171 
C 90.661946 45.83438 79.440406 53.332373 69.988733 62.784046 
C 60.537061 72.235719 53.039067 83.457259 47.923859 95.806464 
C 42.808651 108.15567 40.175705 121.392379 40.175705 134.759062 
C 40.175705 148.125746 42.808651 161.362455 47.923859 173.711661 
C 53.039067 186.060866 60.537061 197.282406 69.988733 206.734079 
C 79.440406 216.185752 90.661946 223.683745 103.011152 228.798954 
C 115.360357 233.914162 128.597066 236.547107 141.96375 236.547107 
C 155.330434 236.547107 168.567143 233.914162 180.916348 228.798954 
C 193.265554 223.683745 204.487094 216.185752 213.938767 206.734079 
C 223.390439 197.282406 230.888433 186.060866 236.003641 173.711661 
C 241.118849 161.362455 243.751795 148.125746 243.751795 134.759063 
" style="fill:none;stroke:#b0b0b0;stroke-linecap:square;stroke-width:0.8;"/>
     </g>
     <g id="text_15">
      <!-- 0.0035 -->
      <g transform="translate(236.003641 93.726777)scale(0.1 -0.1)">
       <use xlink:href="#DejaVuSans-48"/>
       <use x="63.623047" xlink:href="#DejaVuSans-46"/>
       <use x="95.410156" xlink:href="#DejaVuSans-48"/>
       <use x="159.033203" xlink:href="#DejaVuSans-48"/>
       <use x="222.65625" xlink:href="#DejaVuSans-51"/>
       <use x="286.279297" xlink:href="#DejaVuSans-53"/>
      </g>
     </g>
    </g>
   </g>
   <g id="line2d_16">
    <path clip-path="url(#p9675cecb51)" d="M 245.508845 134.759062 
L 245.352128 131.128474 
L 244.883311 127.521888 
L 244.106374 123.96302 
L 243.027893 120.475024 
L 241.656946 117.080217 
L 240.004993 113.799827 
L 238.085718 110.653748 
L 235.914848 107.660326 
L 233.509946 104.836165 
L 230.890177 102.195963 
L 228.076063 99.752371 
L 225.08922 97.515893 
L 221.952089 95.494814 
L 218.687664 93.695158 
L 215.319214 92.120682 
L 211.870013 90.772904 
L 208.363083 89.651157 
L 204.820939 88.752672 
L 201.265362 88.072694 
L 197.717177 87.604613 
L 194.19607 87.340118 
L 190.720408 87.269377 
L 187.307105 87.381217 
L 183.971499 87.663323 
L 180.727262 88.102445 
L 177.586341 88.684602 
L 174.558916 89.395289 
L 171.653395 90.219683 
L 168.876423 91.142839 
L 166.232924 92.149876 
L 161.357788 94.357442 
L 157.035572 96.73099 
L 153.251773 99.169888 
L 149.973715 101.587575 
L 147.154872 103.91369 
L 143.66372 107.119598 
L 135.367594 115.162774 
L 133.02157 116.939279 
L 126.056319 121.777011 
L 124.435195 123.295531 
L 122.965047 125.015654 
L 121.704861 126.934772 
L 120.707961 129.030258 
L 120.211582 130.506653 
L 119.861559 132.029941 
L 119.664821 133.583884 
L 119.625277 135.151161 
L 119.743713 136.71398 
L 120.017774 138.254708 
L 120.442024 139.756487 
L 121.008085 141.203854 
L 122.098134 143.244144 
L 123.434612 145.098531 
L 124.96177 146.750654 
L 126.619913 148.205324 
L 128.93618 149.890977 
L 134.773238 153.874394 
L 137.227106 156.002121 
L 140.87213 159.622184 
L 144.739293 163.423049 
L 148.510219 166.752317 
L 151.552162 169.131948 
L 155.078036 171.570084 
L 159.127997 173.988071 
L 163.726155 176.29197 
L 166.232924 177.368249 
L 168.876423 178.375286 
L 171.653395 179.298442 
L 174.558916 180.122836 
L 177.586341 180.833523 
L 180.727262 181.41568 
L 183.971499 181.854802 
L 187.307105 182.136908 
L 190.720408 182.248748 
L 194.19607 182.178007 
L 197.717177 181.913512 
L 201.265362 181.445431 
L 204.820939 180.765453 
L 208.363083 179.866968 
L 211.870013 178.745221 
L 215.319214 177.397443 
L 218.687664 175.822967 
L 221.952089 174.023311 
L 225.08922 172.002232 
L 228.076063 169.765754 
L 230.890177 167.322162 
L 233.509946 164.68196 
L 235.914848 161.857799 
L 238.085718 158.864377 
L 240.004993 155.718298 
L 241.656946 152.437908 
L 243.027893 149.043101 
L 244.106374 145.555105 
L 244.883311 141.996237 
L 245.352128 138.389651 
L 245.508845 134.759063 
L 245.508845 134.759063 
" style="fill:none;stroke:#1f77b4;stroke-linecap:square;stroke-width:1.5;"/>
   </g>
   <g id="line2d_17">
    <path clip-path="url(#p9675cecb51)" d="M 245.508845 134.759062 
L 245.301199 131.130263 
L 244.680406 127.536156 
L 243.652862 124.010954 
L 242.229125 120.587919 
L 240.423753 117.298903 
L 238.255086 114.173922 
L 235.744975 111.240755 
L 232.918463 108.524587 
L 229.803412 106.047687 
L 226.430111 103.829151 
L 222.830832 101.884681 
L 219.039387 100.226433 
L 215.090655 98.862918 
L 211.020109 97.79896 
L 206.863347 97.035714 
L 202.655635 96.57074 
L 198.43146 96.398132 
L 194.224118 96.50869 
L 190.065324 96.890146 
L 185.984864 97.527424 
L 182.010291 98.402939 
L 178.166652 99.496916 
L 174.476278 100.787745 
L 170.958615 102.252331 
L 167.630104 103.866474 
L 164.504112 105.605231 
L 161.590914 107.443288 
L 158.897714 109.355315 
L 156.428718 111.316304 
L 154.185241 113.301892 
L 152.165852 115.288653 
L 150.366551 117.254365 
L 148.780975 119.178246 
L 146.215104 122.825766 
L 144.379064 126.100557 
L 143.161754 128.904295 
L 142.438603 131.172464 
L 141.996621 133.510763 
L 141.9584 134.712368 
L 141.881467 134.390035 
L 141.472613 133.299961 
L 140.578049 131.737568 
L 139.680159 130.580941 
L 138.544315 129.428974 
L 137.189991 128.355486 
L 135.648663 127.423899 
L 133.9611 126.685876 
L 132.174676 126.180605 
L 130.340814 125.93463 
L 128.512641 125.962147 
L 126.742896 126.265654 
L 125.082126 126.836876 
L 123.577156 127.657881 
L 122.269836 128.702315 
L 121.196039 129.936723 
L 120.384881 131.321891 
L 119.858144 132.814213 
L 119.629873 134.367045 
L 119.706132 135.932063 
L 120.084897 137.460607 
L 120.756091 138.905024 
L 121.701762 140.220021 
L 122.896398 141.364016 
L 124.307421 142.300505 
L 125.895859 142.999416 
L 127.617235 143.438446 
L 129.422688 143.604343 
L 131.260369 143.49409 
L 133.077098 143.115932 
L 134.820324 142.490179 
L 136.44034 141.649686 
L 137.892746 140.639932 
L 139.141077 139.518587 
L 140.159524 138.354485 
L 141.233107 136.701413 
L 141.791733 135.420343 
L 141.9584 134.805757 
L 141.946679 135.147883 
L 142.079702 136.644301 
L 142.438603 138.345661 
L 143.161754 140.61383 
L 144.379064 143.417568 
L 146.215104 146.692359 
L 147.400624 148.476968 
L 148.780975 150.339879 
L 150.366551 152.26376 
L 152.165852 154.229472 
L 154.185241 156.216233 
L 156.428718 158.201821 
L 158.897714 160.16281 
L 161.590914 162.074837 
L 164.504112 163.912894 
L 167.630104 165.651651 
L 170.958615 167.265794 
L 174.476278 168.73038 
L 178.166652 170.021209 
L 182.010291 171.115186 
L 185.984864 171.990701 
L 190.065324 172.627979 
L 194.224118 173.009435 
L 198.43146 173.119993 
L 202.655635 172.947385 
L 206.863347 172.482411 
L 211.020109 171.719165 
L 215.090655 170.655207 
L 219.039387 169.291692 
L 222.830832 167.633444 
L 226.430111 165.688974 
L 229.803412 163.470438 
L 232.918463 160.993538 
L 235.744975 158.27737 
L 238.255086 155.344203 
L 240.423753 152.219222 
L 242.229125 148.930206 
L 243.652862 145.507171 
L 244.680406 141.981969 
L 245.301199 138.387862 
L 245.508845 134.759063 
L 245.508845 134.759063 
" style="fill:none;stroke:#ff7f0e;stroke-linecap:square;stroke-width:1.5;"/>
   </g>
   <g id="line2d_18">
    <path clip-path="url(#p9675cecb51)" d="M 245.508845 134.759062 
L 245.403057 131.126686 
L 245.086217 127.50762 
L 244.559887 123.915086 
L 243.826662 120.362129 
L 242.89014 116.861532 
L 241.7549 113.425732 
L 240.42646 110.06674 
L 238.911234 106.796065 
L 237.21648 103.624643 
L 235.350244 100.562775 
L 233.321294 97.62006 
L 231.139052 94.805353 
L 228.813523 92.12671 
L 226.35522 89.591355 
L 223.77508 87.20565 
L 221.084391 84.975067 
L 218.294705 82.904181 
L 215.41776 80.996654 
L 212.4654 79.255242 
L 209.44949 77.681801 
L 206.381849 76.277298 
L 203.274165 75.041838 
L 200.137933 73.974689 
L 196.984383 73.074316 
L 193.824421 72.338417 
L 190.66857 71.763973 
L 187.526918 71.34729 
L 184.409075 71.084052 
L 181.324128 70.969373 
L 178.280607 70.997859 
L 175.286459 71.163657 
L 172.349025 71.460519 
L 169.475019 71.881863 
L 166.670521 72.420823 
L 163.940969 73.070316 
L 161.291162 73.823093 
L 158.72526 74.671797 
L 153.858683 76.627322 
L 149.362239 78.877773 
L 145.247738 81.365372 
L 141.518614 84.03492 
L 138.170873 86.834832 
L 135.194139 89.717924 
L 132.572746 92.641972 
L 130.286827 95.570066 
L 128.31337 98.47075 
L 126.627201 101.318007 
L 125.201887 104.091091 
L 124.010527 106.774241 
L 122.603972 110.607143 
L 121.577639 114.193265 
L 120.852269 117.529987 
L 120.233558 121.612687 
L 119.888847 125.330341 
L 119.667073 130.400205 
L 119.629281 136.724048 
L 119.785452 142.441651 
L 120.126327 146.944591 
L 120.664952 150.929658 
L 121.306073 154.185221 
L 122.223698 157.687728 
L 123.494216 161.439683 
L 124.578643 164.073418 
L 125.883616 166.803206 
L 127.436007 169.615651 
L 129.262575 172.492539 
L 131.389229 175.410517 
L 133.84018 178.340863 
L 136.636998 181.249384 
L 139.797582 184.096484 
L 143.335091 186.837404 
L 147.256845 189.422672 
L 151.563249 191.798785 
L 156.246794 193.909111 
L 158.72526 194.846328 
L 161.291162 195.695032 
L 163.940969 196.447809 
L 166.670521 197.097302 
L 169.475019 197.636262 
L 172.349025 198.057606 
L 175.286459 198.354468 
L 178.280607 198.520266 
L 181.324128 198.548752 
L 184.409075 198.434073 
L 187.526918 198.170835 
L 190.66857 197.754152 
L 193.824421 197.179708 
L 196.984383 196.443809 
L 200.137933 195.543436 
L 203.274165 194.476287 
L 206.381849 193.240827 
L 209.44949 191.836324 
L 212.4654 190.262883 
L 215.41776 188.521471 
L 218.294705 186.613944 
L 221.084391 184.543058 
L 223.77508 182.312475 
L 226.35522 179.92677 
L 228.813523 177.391415 
L 231.139052 174.712772 
L 233.321294 171.898065 
L 235.350244 168.95535 
L 237.21648 165.893482 
L 238.911234 162.72206 
L 240.42646 159.451385 
L 241.7549 156.092393 
L 242.89014 152.656593 
L 243.826662 149.155996 
L 244.559887 145.603039 
L 245.086217 142.010505 
L 245.403057 138.391439 
L 245.508845 134.759063 
L 245.508845 134.759063 
" style="fill:none;stroke:#2ca02c;stroke-linecap:square;stroke-width:1.5;"/>
   </g>
   <g id="patch_3">
    <path d="M 250.68375 134.759062 
C 250.68375 120.482083 247.871496 106.343929 242.407933 93.15372 
C 236.944369 79.963511 228.935748 67.977762 218.840399 57.882413 
C 208.74505 47.787064 196.759302 39.778443 183.569093 34.31488 
C 170.378884 28.851316 156.24073 26.039062 141.96375 26.039062 
C 127.68677 26.039062 113.548616 28.851316 100.358407 34.31488 
C 87.168198 39.778443 75.18245 47.787064 65.087101 57.882413 
C 54.991752 67.977762 46.983131 79.963511 41.519567 93.15372 
C 36.056004 106.343929 33.24375 120.482083 33.24375 134.759062 
C 33.24375 149.036042 36.056004 163.174196 41.519567 176.364405 
C 46.983131 189.554614 54.991752 201.540363 65.087101 211.635712 
C 75.18245 221.731061 87.168198 229.739682 100.358407 235.203245 
C 113.548616 240.666809 127.68677 243.479062 141.96375 243.479062 
C 156.24073 243.479062 170.378884 240.666809 183.569093 235.203245 
C 196.759302 229.739682 208.74505 221.731061 218.840399 211.635712 
C 228.935748 201.540363 236.944369 189.554614 242.407933 176.364405 
C 247.871496 163.174196 250.68375 149.036042 250.68375 134.759063 
" style="fill:none;stroke:#000000;stroke-linecap:square;stroke-linejoin:miter;stroke-width:0.8;"/>
   </g>
   <g id="legend_1">
    <g id="patch_4">
     <path d="M 40.24375 78.073438 
L 100.164062 78.073438 
Q 102.164062 78.073438 102.164062 76.073438 
L 102.164062 33.039062 
Q 102.164062 31.039062 100.164062 31.039062 
L 40.24375 31.039062 
Q 38.24375 31.039062 38.24375 33.039062 
L 38.24375 76.073438 
Q 38.24375 78.073438 40.24375 78.073438 
z
" style="fill:#ffffff;opacity:0.8;stroke:#cccccc;stroke-linejoin:miter;"/>
    </g>
    <g id="line2d_19">
     <path d="M 42.24375 39.1375 
L 62.24375 39.1375 
" style="fill:none;stroke:#1f77b4;stroke-linecap:square;stroke-width:1.5;"/>
    </g>
    <g id="line2d_20"/>
    <g id="text_16">
     <!-- unpol -->
     <g transform="translate(70.24375 42.6375)scale(0.1 -0.1)">
      <defs>
       <path d="M 8.5 21.578125 
L 8.5 54.6875 
L 17.484375 54.6875 
L 17.484375 21.921875 
Q 17.484375 14.15625 20.5 10.265625 
Q 23.53125 6.390625 29.59375 6.390625 
Q 36.859375 6.390625 41.078125 11.03125 
Q 45.3125 15.671875 45.3125 23.6875 
L 45.3125 54.6875 
L 54.296875 54.6875 
L 54.296875 0 
L 45.3125 0 
L 45.3125 8.40625 
Q 42.046875 3.421875 37.71875 1 
Q 33.40625 -1.421875 27.6875 -1.421875 
Q 18.265625 -1.421875 13.375 4.4375 
Q 8.5 10.296875 8.5 21.578125 
z
M 31.109375 56 
z
" id="DejaVuSans-117"/>
       <path d="M 54.890625 33.015625 
L 54.890625 0 
L 45.90625 0 
L 45.90625 32.71875 
Q 45.90625 40.484375 42.875 44.328125 
Q 39.84375 48.1875 33.796875 48.1875 
Q 26.515625 48.1875 22.3125 43.546875 
Q 18.109375 38.921875 18.109375 30.90625 
L 18.109375 0 
L 9.078125 0 
L 9.078125 54.6875 
L 18.109375 54.6875 
L 18.109375 46.1875 
Q 21.34375 51.125 25.703125 53.5625 
Q 30.078125 56 35.796875 56 
Q 45.21875 56 50.046875 50.171875 
Q 54.890625 44.34375 54.890625 33.015625 
z
" id="DejaVuSans-110"/>
       <path d="M 18.109375 8.203125 
L 18.109375 -20.796875 
L 9.078125 -20.796875 
L 9.078125 54.6875 
L 18.109375 54.6875 
L 18.109375 46.390625 
Q 20.953125 51.265625 25.265625 53.625 
Q 29.59375 56 35.59375 56 
Q 45.5625 56 51.78125 48.09375 
Q 58.015625 40.1875 58.015625 27.296875 
Q 58.015625 14.40625 51.78125 6.484375 
Q 45.5625 -1.421875 35.59375 -1.421875 
Q 29.59375 -1.421875 25.265625 0.953125 
Q 20.953125 3.328125 18.109375 8.203125 
z
M 48.6875 27.296875 
Q 48.6875 37.203125 44.609375 42.84375 
Q 40.53125 48.484375 33.40625 48.484375 
Q 26.265625 48.484375 22.1875 42.84375 
Q 18.109375 37.203125 18.109375 27.296875 
Q 18.109375 17.390625 22.1875 11.75 
Q 26.265625 6.109375 33.40625 6.109375 
Q 40.53125 6.109375 44.609375 11.75 
Q 48.6875 17.390625 48.6875 27.296875 
z
" id="DejaVuSans-112"/>
       <path d="M 30.609375 48.390625 
Q 23.390625 48.390625 19.1875 42.75 
Q 14.984375 37.109375 14.984375 27.296875 
Q 14.984375 17.484375 19.15625 11.84375 
Q 23.34375 6.203125 30.609375 6.203125 
Q 37.796875 6.203125 41.984375 11.859375 
Q 46.1875 17.53125 46.1875 27.296875 
Q 46.1875 37.015625 41.984375 42.703125 
Q 37.796875 48.390625 30.609375 48.390625 
z
M 30.609375 56 
Q 42.328125 56 49.015625 48.375 
Q 55.71875 40.765625 55.71875 27.296875 
Q 55.71875 13.875 49.015625 6.21875 
Q 42.328125 -1.421875 30.609375 -1.421875 
Q 18.84375 -1.421875 12.171875 6.21875 
Q 5.515625 13.875 5.515625 27.296875 
Q 5.515625 40.765625 12.171875 48.375 
Q 18.84375 56 30.609375 56 
z
" id="DejaVuSans-111"/>
       <path d="M 9.421875 75.984375 
L 18.40625 75.984375 
L 18.40625 0 
L 9.421875 0 
z
" id="DejaVuSans-108"/>
      </defs>
      <use xlink:href="#DejaVuSans-117"/>
      <use x="63.378906" xlink:href="#DejaVuSans-110"/>
      <use x="126.757812" xlink:href="#DejaVuSans-112"/>
      <use x="190.234375" xlink:href="#DejaVuSans-111"/>
      <use x="251.416016" xlink:href="#DejaVuSans-108"/>
     </g>
    </g>
    <g id="line2d_21">
     <path d="M 42.24375 53.815625 
L 62.24375 53.815625 
" style="fill:none;stroke:#ff7f0e;stroke-linecap:square;stroke-width:1.5;"/>
    </g>
    <g id="line2d_22"/>
    <g id="text_17">
     <!-- perp -->
     <g transform="translate(70.24375 57.315625)scale(0.1 -0.1)">
      <defs>
       <path d="M 56.203125 29.59375 
L 56.203125 25.203125 
L 14.890625 25.203125 
Q 15.484375 15.921875 20.484375 11.0625 
Q 25.484375 6.203125 34.421875 6.203125 
Q 39.59375 6.203125 44.453125 7.46875 
Q 49.3125 8.734375 54.109375 11.28125 
L 54.109375 2.78125 
Q 49.265625 0.734375 44.1875 -0.34375 
Q 39.109375 -1.421875 33.890625 -1.421875 
Q 20.796875 -1.421875 13.15625 6.1875 
Q 5.515625 13.8125 5.515625 26.8125 
Q 5.515625 40.234375 12.765625 48.109375 
Q 20.015625 56 32.328125 56 
Q 43.359375 56 49.78125 48.890625 
Q 56.203125 41.796875 56.203125 29.59375 
z
M 47.21875 32.234375 
Q 47.125 39.59375 43.09375 43.984375 
Q 39.0625 48.390625 32.421875 48.390625 
Q 24.90625 48.390625 20.390625 44.140625 
Q 15.875 39.890625 15.1875 32.171875 
z
" id="DejaVuSans-101"/>
       <path d="M 41.109375 46.296875 
Q 39.59375 47.171875 37.8125 47.578125 
Q 36.03125 48 33.890625 48 
Q 26.265625 48 22.1875 43.046875 
Q 18.109375 38.09375 18.109375 28.8125 
L 18.109375 0 
L 9.078125 0 
L 9.078125 54.6875 
L 18.109375 54.6875 
L 18.109375 46.1875 
Q 20.953125 51.171875 25.484375 53.578125 
Q 30.03125 56 36.53125 56 
Q 37.453125 56 38.578125 55.875 
Q 39.703125 55.765625 41.0625 55.515625 
z
" id="DejaVuSans-114"/>
      </defs>
      <use xlink:href="#DejaVuSans-112"/>
      <use x="63.476562" xlink:href="#DejaVuSans-101"/>
      <use x="125" xlink:href="#DejaVuSans-114"/>
      <use x="166.113281" xlink:href="#DejaVuSans-112"/>
     </g>
    </g>
    <g id="line2d_23">
     <path d="M 42.24375 68.49375 
L 62.24375 68.49375 
" style="fill:none;stroke:#2ca02c;stroke-linecap:square;stroke-width:1.5;"/>
    </g>
    <g id="line2d_24"/>
    <g id="text_18">
     <!-- par -->
     <g transform="translate(70.24375 71.99375)scale(0.1 -0.1)">
      <defs>
       <path d="M 34.28125 27.484375 
Q 23.390625 27.484375 19.1875 25 
Q 14.984375 22.515625 14.984375 16.5 
Q 14.984375 11.71875 18.140625 8.90625 
Q 21.296875 6.109375 26.703125 6.109375 
Q 34.1875 6.109375 38.703125 11.40625 
Q 43.21875 16.703125 43.21875 25.484375 
L 43.21875 27.484375 
z
M 52.203125 31.203125 
L 52.203125 0 
L 43.21875 0 
L 43.21875 8.296875 
Q 40.140625 3.328125 35.546875 0.953125 
Q 30.953125 -1.421875 24.3125 -1.421875 
Q 15.921875 -1.421875 10.953125 3.296875 
Q 6 8.015625 6 15.921875 
Q 6 25.140625 12.171875 29.828125 
Q 18.359375 34.515625 30.609375 34.515625 
L 43.21875 34.515625 
L 43.21875 35.40625 
Q 43.21875 41.609375 39.140625 45 
Q 35.0625 48.390625 27.6875 48.390625 
Q 23 48.390625 18.546875 47.265625 
Q 14.109375 46.140625 10.015625 43.890625 
L 10.015625 52.203125 
Q 14.9375 54.109375 19.578125 55.046875 
Q 24.21875 56 28.609375 56 
Q 40.484375 56 46.34375 49.84375 
Q 52.203125 43.703125 52.203125 31.203125 
z
" id="DejaVuSans-97"/>
      </defs>
      <use xlink:href="#DejaVuSans-112"/>
      <use x="63.476562" xlink:href="#DejaVuSans-97"/>
      <use x="124.755859" xlink:href="#DejaVuSans-114"/>
     </g>
    </g>
   </g>
  </g>
 </g>
 <defs>
  <clipPath id="p9675cecb51">
   <path d="M 250.68375 134.759062 
C 250.68375 120.482083 247.871496 106.343929 242.407933 93.15372 
C 236.944369 79.963511 228.935748 67.977762 218.840399 57.882413 
C 208.74505 47.787064 196.759302 39.778443 183.569093 34.31488 
C 170.378884 28.851316 156.24073 26.039062 141.96375 26.039062 
C 127.68677 26.039062 113.548616 28.851316 100.358407 34.31488 
C 87.168198 39.778443 75.18245 47.787064 65.087101 57.882413 
C 54.991752 67.977762 46.983131 79.963511 41.519567 93.15372 
C 36.056004 106.343929 33.24375 120.482083 33.24375 134.759062 
C 33.24375 149.036042 36.056004 163.174196 41.519567 176.364405 
C 46.983131 189.554614 54.991752 201.540363 65.087101 211.635712 
C 75.18245 221.731061 87.168198 229.739682 100.358407 235.203245 
C 113.548616 240.666809 127.68677 243.479062 141.96375 243.479062 
C 156.24073 243.479062 170.378884 240.666809 183.569093 235.203245 
C 196.759302 229.739682 208.74505 221.731061 218.840399 211.635712 
C 228.935748 201.540363 236.944369 189.554614 242.407933 176.364405 
C 247.871496 163.174196 250.68375 149.036042 250.68375 134.759063 
M 141.96375 134.759062 
C 141.96375 134.759062 141.96375 134.759062 141.96375 134.759062 
C 141.96375 134.759062 141.96375 134.759062 141.96375 134.759062 
C 141.96375 134.759062 141.96375 134.759062 141.96375 134.759062 
C 141.96375 134.759062 141.96375 134.759062 141.96375 134.759062 
C 141.96375 134.759062 141.96375 134.759062 141.96375 134.759062 
C 141.96375 134.759062 141.96375 134.759062 141.96375 134.759062 
C 141.96375 134.759062 141.96375 134.759062 141.96375 134.759062 
C 141.96375 134.759062 141.96375 134.759062 141.96375 134.759062 
C 141.96375 134.759062 141.96375 134.759062 141.96375 134.759062 
C 141.96375 134.759062 141.96375 134.759062 141.96375 134.759062 
C 141.96375 134.759062 141.96375 134.759062 141.96375 134.759062 
C 141.96375 134.759062 141.96375 134.759062 141.96375 134.759062 
C 141.96375 134.759062 141.96375 134.759062 141.96375 134.759062 
C 141.96375 134.759062 141.96375 134.759062 141.96375 134.759062 
C 141.96375 134.759062 141.96375 134.759062 141.96375 134.759062 
C 141.96375 134.759062 141.96375 134.759062 141.96375 134.759062 
M 250.68375 134.759062 
z
"/>
  </clipPath>
 </defs>
</svg>
