<?xml version="1.0" encoding="utf-8" standalone="no"?>
<!DOCTYPE svg PUBLIC "-//W3C//DTD SVG 1.1//EN"
  "http://www.w3.org/Graphics/SVG/1.1/DTD/svg11.dtd">
<!-- Created with matplotlib (https://matplotlib.org/) -->
<svg height="331.674375pt" version="1.1" viewBox="0 0 607.325 331.674375" width="607.325pt" xmlns="http://www.w3.org/2000/svg" xmlns:xlink="http://www.w3.org/1999/xlink">
 <metadata>
  <rdf:RDF xmlns:cc="http://creativecommons.org/ns#" xmlns:dc="http://purl.org/dc/elements/1.1/" xmlns:rdf="http://www.w3.org/1999/02/22-rdf-syntax-ns#">
   <cc:Work>
    <dc:type rdf:resource="http://purl.org/dc/dcmitype/StillImage"/>
    <dc:date>2021-01-29T11:02:34.631462</dc:date>
    <dc:format>image/svg+xml</dc:format>
    <dc:creator>
     <cc:Agent>
      <dc:title>Matplotlib v3.3.1, https://matplotlib.org/</dc:title>
     </cc:Agent>
    </dc:creator>
   </cc:Work>
  </rdf:RDF>
 </metadata>
 <defs>
  <style type="text/css">*{stroke-linecap:butt;stroke-linejoin:round;}</style>
 </defs>
 <g id="figure_1">
  <g id="patch_1">
   <path d="M 0 331.674375 
L 607.325 331.674375 
L 607.325 0 
L 0 0 
z
" style="fill:none;"/>
  </g>
  <g id="axes_1">
   <g id="patch_2">
    <path d="M 42.125 294.118125 
L 206.242647 294.118125 
L 206.242647 22.318125 
L 42.125 22.318125 
z
" style="fill:#ffffff;"/>
   </g>
   <g id="matplotlib.axis_1">
    <g id="xtick_1">
     <g id="line2d_1">
      <defs>
       <path d="M 0 0 
L 0 3.5 
" id="m9d7b410827" style="stroke:#000000;stroke-width:0.8;"/>
      </defs>
      <g>
       <use style="stroke:#000000;stroke-width:0.8;" x="68.234626" xlink:href="#m9d7b410827" y="294.118125"/>
      </g>
     </g>
     <g id="text_1">
      <!-- 0.6 -->
      <g transform="translate(60.283063 308.716563)scale(0.1 -0.1)">
       <defs>
        <path d="M 31.78125 66.40625 
Q 24.171875 66.40625 20.328125 58.90625 
Q 16.5 51.421875 16.5 36.375 
Q 16.5 21.390625 20.328125 13.890625 
Q 24.171875 6.390625 31.78125 6.390625 
Q 39.453125 6.390625 43.28125 13.890625 
Q 47.125 21.390625 47.125 36.375 
Q 47.125 51.421875 43.28125 58.90625 
Q 39.453125 66.40625 31.78125 66.40625 
z
M 31.78125 74.21875 
Q 44.046875 74.21875 50.515625 64.515625 
Q 56.984375 54.828125 56.984375 36.375 
Q 56.984375 17.96875 50.515625 8.265625 
Q 44.046875 -1.421875 31.78125 -1.421875 
Q 19.53125 -1.421875 13.0625 8.265625 
Q 6.59375 17.96875 6.59375 36.375 
Q 6.59375 54.828125 13.0625 64.515625 
Q 19.53125 74.21875 31.78125 74.21875 
z
" id="DejaVuSans-48"/>
        <path d="M 10.6875 12.40625 
L 21 12.40625 
L 21 0 
L 10.6875 0 
z
" id="DejaVuSans-46"/>
        <path d="M 33.015625 40.375 
Q 26.375 40.375 22.484375 35.828125 
Q 18.609375 31.296875 18.609375 23.390625 
Q 18.609375 15.53125 22.484375 10.953125 
Q 26.375 6.390625 33.015625 6.390625 
Q 39.65625 6.390625 43.53125 10.953125 
Q 47.40625 15.53125 47.40625 23.390625 
Q 47.40625 31.296875 43.53125 35.828125 
Q 39.65625 40.375 33.015625 40.375 
z
M 52.59375 71.296875 
L 52.59375 62.3125 
Q 48.875 64.0625 45.09375 64.984375 
Q 41.3125 65.921875 37.59375 65.921875 
Q 27.828125 65.921875 22.671875 59.328125 
Q 17.53125 52.734375 16.796875 39.40625 
Q 19.671875 43.65625 24.015625 45.921875 
Q 28.375 48.1875 33.59375 48.1875 
Q 44.578125 48.1875 50.953125 41.515625 
Q 57.328125 34.859375 57.328125 23.390625 
Q 57.328125 12.15625 50.6875 5.359375 
Q 44.046875 -1.421875 33.015625 -1.421875 
Q 20.359375 -1.421875 13.671875 8.265625 
Q 6.984375 17.96875 6.984375 36.375 
Q 6.984375 53.65625 15.1875 63.9375 
Q 23.390625 74.21875 37.203125 74.21875 
Q 40.921875 74.21875 44.703125 73.484375 
Q 48.484375 72.75 52.59375 71.296875 
z
" id="DejaVuSans-54"/>
       </defs>
       <use xlink:href="#DejaVuSans-48"/>
       <use x="63.623047" xlink:href="#DejaVuSans-46"/>
       <use x="95.410156" xlink:href="#DejaVuSans-54"/>
      </g>
     </g>
    </g>
    <g id="xtick_2">
     <g id="line2d_2">
      <g>
       <use style="stroke:#000000;stroke-width:0.8;" x="105.534091" xlink:href="#m9d7b410827" y="294.118125"/>
      </g>
     </g>
     <g id="text_2">
      <!-- 0.8 -->
      <g transform="translate(97.582528 308.716563)scale(0.1 -0.1)">
       <defs>
        <path d="M 31.78125 34.625 
Q 24.75 34.625 20.71875 30.859375 
Q 16.703125 27.09375 16.703125 20.515625 
Q 16.703125 13.921875 20.71875 10.15625 
Q 24.75 6.390625 31.78125 6.390625 
Q 38.8125 6.390625 42.859375 10.171875 
Q 46.921875 13.96875 46.921875 20.515625 
Q 46.921875 27.09375 42.890625 30.859375 
Q 38.875 34.625 31.78125 34.625 
z
M 21.921875 38.8125 
Q 15.578125 40.375 12.03125 44.71875 
Q 8.5 49.078125 8.5 55.328125 
Q 8.5 64.0625 14.71875 69.140625 
Q 20.953125 74.21875 31.78125 74.21875 
Q 42.671875 74.21875 48.875 69.140625 
Q 55.078125 64.0625 55.078125 55.328125 
Q 55.078125 49.078125 51.53125 44.71875 
Q 48 40.375 41.703125 38.8125 
Q 48.828125 37.15625 52.796875 32.3125 
Q 56.78125 27.484375 56.78125 20.515625 
Q 56.78125 9.90625 50.3125 4.234375 
Q 43.84375 -1.421875 31.78125 -1.421875 
Q 19.734375 -1.421875 13.25 4.234375 
Q 6.78125 9.90625 6.78125 20.515625 
Q 6.78125 27.484375 10.78125 32.3125 
Q 14.796875 37.15625 21.921875 38.8125 
z
M 18.3125 54.390625 
Q 18.3125 48.734375 21.84375 45.5625 
Q 25.390625 42.390625 31.78125 42.390625 
Q 38.140625 42.390625 41.71875 45.5625 
Q 45.3125 48.734375 45.3125 54.390625 
Q 45.3125 60.0625 41.71875 63.234375 
Q 38.140625 66.40625 31.78125 66.40625 
Q 25.390625 66.40625 21.84375 63.234375 
Q 18.3125 60.0625 18.3125 54.390625 
z
" id="DejaVuSans-56"/>
       </defs>
       <use xlink:href="#DejaVuSans-48"/>
       <use x="63.623047" xlink:href="#DejaVuSans-46"/>
       <use x="95.410156" xlink:href="#DejaVuSans-56"/>
      </g>
     </g>
    </g>
    <g id="xtick_3">
     <g id="line2d_3">
      <g>
       <use style="stroke:#000000;stroke-width:0.8;" x="142.833556" xlink:href="#m9d7b410827" y="294.118125"/>
      </g>
     </g>
     <g id="text_3">
      <!-- 1.0 -->
      <g transform="translate(134.881994 308.716563)scale(0.1 -0.1)">
       <defs>
        <path d="M 12.40625 8.296875 
L 28.515625 8.296875 
L 28.515625 63.921875 
L 10.984375 60.40625 
L 10.984375 69.390625 
L 28.421875 72.90625 
L 38.28125 72.90625 
L 38.28125 8.296875 
L 54.390625 8.296875 
L 54.390625 0 
L 12.40625 0 
z
" id="DejaVuSans-49"/>
       </defs>
       <use xlink:href="#DejaVuSans-49"/>
       <use x="63.623047" xlink:href="#DejaVuSans-46"/>
       <use x="95.410156" xlink:href="#DejaVuSans-48"/>
      </g>
     </g>
    </g>
    <g id="xtick_4">
     <g id="line2d_4">
      <g>
       <use style="stroke:#000000;stroke-width:0.8;" x="180.133021" xlink:href="#m9d7b410827" y="294.118125"/>
      </g>
     </g>
     <g id="text_4">
      <!-- 1.2 -->
      <g transform="translate(172.181459 308.716563)scale(0.1 -0.1)">
       <defs>
        <path d="M 19.1875 8.296875 
L 53.609375 8.296875 
L 53.609375 0 
L 7.328125 0 
L 7.328125 8.296875 
Q 12.9375 14.109375 22.625 23.890625 
Q 32.328125 33.6875 34.8125 36.53125 
Q 39.546875 41.84375 41.421875 45.53125 
Q 43.3125 49.21875 43.3125 52.78125 
Q 43.3125 58.59375 39.234375 62.25 
Q 35.15625 65.921875 28.609375 65.921875 
Q 23.96875 65.921875 18.8125 64.3125 
Q 13.671875 62.703125 7.8125 59.421875 
L 7.8125 69.390625 
Q 13.765625 71.78125 18.9375 73 
Q 24.125 74.21875 28.421875 74.21875 
Q 39.75 74.21875 46.484375 68.546875 
Q 53.21875 62.890625 53.21875 53.421875 
Q 53.21875 48.921875 51.53125 44.890625 
Q 49.859375 40.875 45.40625 35.40625 
Q 44.1875 33.984375 37.640625 27.21875 
Q 31.109375 20.453125 19.1875 8.296875 
z
" id="DejaVuSans-50"/>
       </defs>
       <use xlink:href="#DejaVuSans-49"/>
       <use x="63.623047" xlink:href="#DejaVuSans-46"/>
       <use x="95.410156" xlink:href="#DejaVuSans-50"/>
      </g>
     </g>
    </g>
    <g id="text_5">
     <!-- Wavelength [µm] -->
     <g transform="translate(80.979136 322.394687)scale(0.1 -0.1)">
      <defs>
       <path d="M 3.328125 72.90625 
L 13.28125 72.90625 
L 28.609375 11.28125 
L 43.890625 72.90625 
L 54.984375 72.90625 
L 70.3125 11.28125 
L 85.59375 72.90625 
L 95.609375 72.90625 
L 77.296875 0 
L 64.890625 0 
L 49.515625 63.28125 
L 33.984375 0 
L 21.578125 0 
z
" id="DejaVuSans-87"/>
       <path d="M 34.28125 27.484375 
Q 23.390625 27.484375 19.1875 25 
Q 14.984375 22.515625 14.984375 16.5 
Q 14.984375 11.71875 18.140625 8.90625 
Q 21.296875 6.109375 26.703125 6.109375 
Q 34.1875 6.109375 38.703125 11.40625 
Q 43.21875 16.703125 43.21875 25.484375 
L 43.21875 27.484375 
z
M 52.203125 31.203125 
L 52.203125 0 
L 43.21875 0 
L 43.21875 8.296875 
Q 40.140625 3.328125 35.546875 0.953125 
Q 30.953125 -1.421875 24.3125 -1.421875 
Q 15.921875 -1.421875 10.953125 3.296875 
Q 6 8.015625 6 15.921875 
Q 6 25.140625 12.171875 29.828125 
Q 18.359375 34.515625 30.609375 34.515625 
L 43.21875 34.515625 
L 43.21875 35.40625 
Q 43.21875 41.609375 39.140625 45 
Q 35.0625 48.390625 27.6875 48.390625 
Q 23 48.390625 18.546875 47.265625 
Q 14.109375 46.140625 10.015625 43.890625 
L 10.015625 52.203125 
Q 14.9375 54.109375 19.578125 55.046875 
Q 24.21875 56 28.609375 56 
Q 40.484375 56 46.34375 49.84375 
Q 52.203125 43.703125 52.203125 31.203125 
z
" id="DejaVuSans-97"/>
       <path d="M 2.984375 54.6875 
L 12.5 54.6875 
L 29.59375 8.796875 
L 46.6875 54.6875 
L 56.203125 54.6875 
L 35.6875 0 
L 23.484375 0 
z
" id="DejaVuSans-118"/>
       <path d="M 56.203125 29.59375 
L 56.203125 25.203125 
L 14.890625 25.203125 
Q 15.484375 15.921875 20.484375 11.0625 
Q 25.484375 6.203125 34.421875 6.203125 
Q 39.59375 6.203125 44.453125 7.46875 
Q 49.3125 8.734375 54.109375 11.28125 
L 54.109375 2.78125 
Q 49.265625 0.734375 44.1875 -0.34375 
Q 39.109375 -1.421875 33.890625 -1.421875 
Q 20.796875 -1.421875 13.15625 6.1875 
Q 5.515625 13.8125 5.515625 26.8125 
Q 5.515625 40.234375 12.765625 48.109375 
Q 20.015625 56 32.328125 56 
Q 43.359375 56 49.78125 48.890625 
Q 56.203125 41.796875 56.203125 29.59375 
z
M 47.21875 32.234375 
Q 47.125 39.59375 43.09375 43.984375 
Q 39.0625 48.390625 32.421875 48.390625 
Q 24.90625 48.390625 20.390625 44.140625 
Q 15.875 39.890625 15.1875 32.171875 
z
" id="DejaVuSans-101"/>
       <path d="M 9.421875 75.984375 
L 18.40625 75.984375 
L 18.40625 0 
L 9.421875 0 
z
" id="DejaVuSans-108"/>
       <path d="M 54.890625 33.015625 
L 54.890625 0 
L 45.90625 0 
L 45.90625 32.71875 
Q 45.90625 40.484375 42.875 44.328125 
Q 39.84375 48.1875 33.796875 48.1875 
Q 26.515625 48.1875 22.3125 43.546875 
Q 18.109375 38.921875 18.109375 30.90625 
L 18.109375 0 
L 9.078125 0 
L 9.078125 54.6875 
L 18.109375 54.6875 
L 18.109375 46.1875 
Q 21.34375 51.125 25.703125 53.5625 
Q 30.078125 56 35.796875 56 
Q 45.21875 56 50.046875 50.171875 
Q 54.890625 44.34375 54.890625 33.015625 
z
" id="DejaVuSans-110"/>
       <path d="M 45.40625 27.984375 
Q 45.40625 37.75 41.375 43.109375 
Q 37.359375 48.484375 30.078125 48.484375 
Q 22.859375 48.484375 18.828125 43.109375 
Q 14.796875 37.75 14.796875 27.984375 
Q 14.796875 18.265625 18.828125 12.890625 
Q 22.859375 7.515625 30.078125 7.515625 
Q 37.359375 7.515625 41.375 12.890625 
Q 45.40625 18.265625 45.40625 27.984375 
z
M 54.390625 6.78125 
Q 54.390625 -7.171875 48.1875 -13.984375 
Q 42 -20.796875 29.203125 -20.796875 
Q 24.46875 -20.796875 20.265625 -20.09375 
Q 16.0625 -19.390625 12.109375 -17.921875 
L 12.109375 -9.1875 
Q 16.0625 -11.328125 19.921875 -12.34375 
Q 23.78125 -13.375 27.78125 -13.375 
Q 36.625 -13.375 41.015625 -8.765625 
Q 45.40625 -4.15625 45.40625 5.171875 
L 45.40625 9.625 
Q 42.625 4.78125 38.28125 2.390625 
Q 33.9375 0 27.875 0 
Q 17.828125 0 11.671875 7.65625 
Q 5.515625 15.328125 5.515625 27.984375 
Q 5.515625 40.671875 11.671875 48.328125 
Q 17.828125 56 27.875 56 
Q 33.9375 56 38.28125 53.609375 
Q 42.625 51.21875 45.40625 46.390625 
L 45.40625 54.6875 
L 54.390625 54.6875 
z
" id="DejaVuSans-103"/>
       <path d="M 18.3125 70.21875 
L 18.3125 54.6875 
L 36.8125 54.6875 
L 36.8125 47.703125 
L 18.3125 47.703125 
L 18.3125 18.015625 
Q 18.3125 11.328125 20.140625 9.421875 
Q 21.96875 7.515625 27.59375 7.515625 
L 36.8125 7.515625 
L 36.8125 0 
L 27.59375 0 
Q 17.1875 0 13.234375 3.875 
Q 9.28125 7.765625 9.28125 18.015625 
L 9.28125 47.703125 
L 2.6875 47.703125 
L 2.6875 54.6875 
L 9.28125 54.6875 
L 9.28125 70.21875 
z
" id="DejaVuSans-116"/>
       <path d="M 54.890625 33.015625 
L 54.890625 0 
L 45.90625 0 
L 45.90625 32.71875 
Q 45.90625 40.484375 42.875 44.328125 
Q 39.84375 48.1875 33.796875 48.1875 
Q 26.515625 48.1875 22.3125 43.546875 
Q 18.109375 38.921875 18.109375 30.90625 
L 18.109375 0 
L 9.078125 0 
L 9.078125 75.984375 
L 18.109375 75.984375 
L 18.109375 46.1875 
Q 21.34375 51.125 25.703125 53.5625 
Q 30.078125 56 35.796875 56 
Q 45.21875 56 50.046875 50.171875 
Q 54.890625 44.34375 54.890625 33.015625 
z
" id="DejaVuSans-104"/>
       <path id="DejaVuSans-32"/>
       <path d="M 8.59375 75.984375 
L 29.296875 75.984375 
L 29.296875 69 
L 17.578125 69 
L 17.578125 -6.203125 
L 29.296875 -6.203125 
L 29.296875 -13.1875 
L 8.59375 -13.1875 
z
" id="DejaVuSans-91"/>
       <path d="M 8.5 -20.796875 
L 8.5 54.6875 
L 17.484375 54.6875 
L 17.484375 20.703125 
Q 17.484375 13.625 20.84375 10 
Q 24.21875 6.390625 30.8125 6.390625 
Q 38.03125 6.390625 41.671875 10.484375 
Q 45.3125 14.59375 45.3125 22.796875 
L 45.3125 54.6875 
L 54.296875 54.6875 
L 54.296875 12.59375 
Q 54.296875 9.671875 55.140625 8.28125 
Q 56 6.890625 57.8125 6.890625 
Q 58.25 6.890625 59.03125 7.15625 
Q 59.8125 7.421875 61.1875 8.015625 
L 61.1875 0.78125 
Q 59.1875 -0.34375 57.390625 -0.875 
Q 55.609375 -1.421875 53.90625 -1.421875 
Q 50.53125 -1.421875 48.53125 0.484375 
Q 46.53125 2.390625 45.796875 6.296875 
Q 43.359375 2.4375 39.8125 0.5 
Q 36.28125 -1.421875 31.5 -1.421875 
Q 26.515625 -1.421875 23.015625 0.484375 
Q 19.53125 2.390625 17.484375 6.203125 
L 17.484375 -20.796875 
z
" id="DejaVuSans-181"/>
       <path d="M 52 44.1875 
Q 55.375 50.25 60.0625 53.125 
Q 64.75 56 71.09375 56 
Q 79.640625 56 84.28125 50.015625 
Q 88.921875 44.046875 88.921875 33.015625 
L 88.921875 0 
L 79.890625 0 
L 79.890625 32.71875 
Q 79.890625 40.578125 77.09375 44.375 
Q 74.3125 48.1875 68.609375 48.1875 
Q 61.625 48.1875 57.5625 43.546875 
Q 53.515625 38.921875 53.515625 30.90625 
L 53.515625 0 
L 44.484375 0 
L 44.484375 32.71875 
Q 44.484375 40.625 41.703125 44.40625 
Q 38.921875 48.1875 33.109375 48.1875 
Q 26.21875 48.1875 22.15625 43.53125 
Q 18.109375 38.875 18.109375 30.90625 
L 18.109375 0 
L 9.078125 0 
L 9.078125 54.6875 
L 18.109375 54.6875 
L 18.109375 46.1875 
Q 21.1875 51.21875 25.484375 53.609375 
Q 29.78125 56 35.6875 56 
Q 41.65625 56 45.828125 52.96875 
Q 50 49.953125 52 44.1875 
z
" id="DejaVuSans-109"/>
       <path d="M 30.421875 75.984375 
L 30.421875 -13.1875 
L 9.71875 -13.1875 
L 9.71875 -6.203125 
L 21.390625 -6.203125 
L 21.390625 69 
L 9.71875 69 
L 9.71875 75.984375 
z
" id="DejaVuSans-93"/>
      </defs>
      <use xlink:href="#DejaVuSans-87"/>
      <use x="92.501953" xlink:href="#DejaVuSans-97"/>
      <use x="153.78125" xlink:href="#DejaVuSans-118"/>
      <use x="212.960938" xlink:href="#DejaVuSans-101"/>
      <use x="274.484375" xlink:href="#DejaVuSans-108"/>
      <use x="302.267578" xlink:href="#DejaVuSans-101"/>
      <use x="363.791016" xlink:href="#DejaVuSans-110"/>
      <use x="427.169922" xlink:href="#DejaVuSans-103"/>
      <use x="490.646484" xlink:href="#DejaVuSans-116"/>
      <use x="529.855469" xlink:href="#DejaVuSans-104"/>
      <use x="593.234375" xlink:href="#DejaVuSans-32"/>
      <use x="625.021484" xlink:href="#DejaVuSans-91"/>
      <use x="664.035156" xlink:href="#DejaVuSans-181"/>
      <use x="727.658203" xlink:href="#DejaVuSans-109"/>
      <use x="825.070312" xlink:href="#DejaVuSans-93"/>
     </g>
    </g>
   </g>
   <g id="matplotlib.axis_2">
    <g id="ytick_1">
     <g id="line2d_5">
      <defs>
       <path d="M 0 0 
L -3.5 0 
" id="m6c5a609921" style="stroke:#000000;stroke-width:0.8;"/>
      </defs>
      <g>
       <use style="stroke:#000000;stroke-width:0.8;" x="42.125" xlink:href="#m6c5a609921" y="281.824942"/>
      </g>
     </g>
     <g id="text_6">
      <!-- 0 -->
      <g transform="translate(28.7625 285.624161)scale(0.1 -0.1)">
       <use xlink:href="#DejaVuSans-48"/>
      </g>
     </g>
    </g>
    <g id="ytick_2">
     <g id="line2d_6">
      <g>
       <use style="stroke:#000000;stroke-width:0.8;" x="42.125" xlink:href="#m6c5a609921" y="231.989254"/>
      </g>
     </g>
     <g id="text_7">
      <!-- 2 -->
      <g transform="translate(28.7625 235.788473)scale(0.1 -0.1)">
       <use xlink:href="#DejaVuSans-50"/>
      </g>
     </g>
    </g>
    <g id="ytick_3">
     <g id="line2d_7">
      <g>
       <use style="stroke:#000000;stroke-width:0.8;" x="42.125" xlink:href="#m6c5a609921" y="182.153566"/>
      </g>
     </g>
     <g id="text_8">
      <!-- 4 -->
      <g transform="translate(28.7625 185.952785)scale(0.1 -0.1)">
       <defs>
        <path d="M 37.796875 64.3125 
L 12.890625 25.390625 
L 37.796875 25.390625 
z
M 35.203125 72.90625 
L 47.609375 72.90625 
L 47.609375 25.390625 
L 58.015625 25.390625 
L 58.015625 17.1875 
L 47.609375 17.1875 
L 47.609375 0 
L 37.796875 0 
L 37.796875 17.1875 
L 4.890625 17.1875 
L 4.890625 26.703125 
z
" id="DejaVuSans-52"/>
       </defs>
       <use xlink:href="#DejaVuSans-52"/>
      </g>
     </g>
    </g>
    <g id="ytick_4">
     <g id="line2d_8">
      <g>
       <use style="stroke:#000000;stroke-width:0.8;" x="42.125" xlink:href="#m6c5a609921" y="132.317879"/>
      </g>
     </g>
     <g id="text_9">
      <!-- 6 -->
      <g transform="translate(28.7625 136.117097)scale(0.1 -0.1)">
       <use xlink:href="#DejaVuSans-54"/>
      </g>
     </g>
    </g>
    <g id="ytick_5">
     <g id="line2d_9">
      <g>
       <use style="stroke:#000000;stroke-width:0.8;" x="42.125" xlink:href="#m6c5a609921" y="82.482191"/>
      </g>
     </g>
     <g id="text_10">
      <!-- 8 -->
      <g transform="translate(28.7625 86.281409)scale(0.1 -0.1)">
       <use xlink:href="#DejaVuSans-56"/>
      </g>
     </g>
    </g>
    <g id="ytick_6">
     <g id="line2d_10">
      <g>
       <use style="stroke:#000000;stroke-width:0.8;" x="42.125" xlink:href="#m6c5a609921" y="32.646503"/>
      </g>
     </g>
     <g id="text_11">
      <!-- 10 -->
      <g transform="translate(22.4 36.445721)scale(0.1 -0.1)">
       <use xlink:href="#DejaVuSans-49"/>
       <use x="63.623047" xlink:href="#DejaVuSans-48"/>
      </g>
     </g>
    </g>
    <g id="text_12">
     <!-- Cross Section [µm$^2$/1000] -->
     <g transform="translate(16.3 222.418125)rotate(-90)scale(0.1 -0.1)">
      <defs>
       <path d="M 64.40625 67.28125 
L 64.40625 56.890625 
Q 59.421875 61.53125 53.78125 63.8125 
Q 48.140625 66.109375 41.796875 66.109375 
Q 29.296875 66.109375 22.65625 58.46875 
Q 16.015625 50.828125 16.015625 36.375 
Q 16.015625 21.96875 22.65625 14.328125 
Q 29.296875 6.6875 41.796875 6.6875 
Q 48.140625 6.6875 53.78125 8.984375 
Q 59.421875 11.28125 64.40625 15.921875 
L 64.40625 5.609375 
Q 59.234375 2.09375 53.4375 0.328125 
Q 47.65625 -1.421875 41.21875 -1.421875 
Q 24.65625 -1.421875 15.125 8.703125 
Q 5.609375 18.84375 5.609375 36.375 
Q 5.609375 53.953125 15.125 64.078125 
Q 24.65625 74.21875 41.21875 74.21875 
Q 47.75 74.21875 53.53125 72.484375 
Q 59.328125 70.75 64.40625 67.28125 
z
" id="DejaVuSans-67"/>
       <path d="M 41.109375 46.296875 
Q 39.59375 47.171875 37.8125 47.578125 
Q 36.03125 48 33.890625 48 
Q 26.265625 48 22.1875 43.046875 
Q 18.109375 38.09375 18.109375 28.8125 
L 18.109375 0 
L 9.078125 0 
L 9.078125 54.6875 
L 18.109375 54.6875 
L 18.109375 46.1875 
Q 20.953125 51.171875 25.484375 53.578125 
Q 30.03125 56 36.53125 56 
Q 37.453125 56 38.578125 55.875 
Q 39.703125 55.765625 41.0625 55.515625 
z
" id="DejaVuSans-114"/>
       <path d="M 30.609375 48.390625 
Q 23.390625 48.390625 19.1875 42.75 
Q 14.984375 37.109375 14.984375 27.296875 
Q 14.984375 17.484375 19.15625 11.84375 
Q 23.34375 6.203125 30.609375 6.203125 
Q 37.796875 6.203125 41.984375 11.859375 
Q 46.1875 17.53125 46.1875 27.296875 
Q 46.1875 37.015625 41.984375 42.703125 
Q 37.796875 48.390625 30.609375 48.390625 
z
M 30.609375 56 
Q 42.328125 56 49.015625 48.375 
Q 55.71875 40.765625 55.71875 27.296875 
Q 55.71875 13.875 49.015625 6.21875 
Q 42.328125 -1.421875 30.609375 -1.421875 
Q 18.84375 -1.421875 12.171875 6.21875 
Q 5.515625 13.875 5.515625 27.296875 
Q 5.515625 40.765625 12.171875 48.375 
Q 18.84375 56 30.609375 56 
z
" id="DejaVuSans-111"/>
       <path d="M 44.28125 53.078125 
L 44.28125 44.578125 
Q 40.484375 46.53125 36.375 47.5 
Q 32.28125 48.484375 27.875 48.484375 
Q 21.1875 48.484375 17.84375 46.4375 
Q 14.5 44.390625 14.5 40.28125 
Q 14.5 37.15625 16.890625 35.375 
Q 19.28125 33.59375 26.515625 31.984375 
L 29.59375 31.296875 
Q 39.15625 29.25 43.1875 25.515625 
Q 47.21875 21.78125 47.21875 15.09375 
Q 47.21875 7.46875 41.1875 3.015625 
Q 35.15625 -1.421875 24.609375 -1.421875 
Q 20.21875 -1.421875 15.453125 -0.5625 
Q 10.6875 0.296875 5.421875 2 
L 5.421875 11.28125 
Q 10.40625 8.6875 15.234375 7.390625 
Q 20.0625 6.109375 24.8125 6.109375 
Q 31.15625 6.109375 34.5625 8.28125 
Q 37.984375 10.453125 37.984375 14.40625 
Q 37.984375 18.0625 35.515625 20.015625 
Q 33.0625 21.96875 24.703125 23.78125 
L 21.578125 24.515625 
Q 13.234375 26.265625 9.515625 29.90625 
Q 5.8125 33.546875 5.8125 39.890625 
Q 5.8125 47.609375 11.28125 51.796875 
Q 16.75 56 26.8125 56 
Q 31.78125 56 36.171875 55.265625 
Q 40.578125 54.546875 44.28125 53.078125 
z
" id="DejaVuSans-115"/>
       <path d="M 53.515625 70.515625 
L 53.515625 60.890625 
Q 47.90625 63.578125 42.921875 64.890625 
Q 37.9375 66.21875 33.296875 66.21875 
Q 25.25 66.21875 20.875 63.09375 
Q 16.5 59.96875 16.5 54.203125 
Q 16.5 49.359375 19.40625 46.890625 
Q 22.3125 44.4375 30.421875 42.921875 
L 36.375 41.703125 
Q 47.40625 39.59375 52.65625 34.296875 
Q 57.90625 29 57.90625 20.125 
Q 57.90625 9.515625 50.796875 4.046875 
Q 43.703125 -1.421875 29.984375 -1.421875 
Q 24.8125 -1.421875 18.96875 -0.25 
Q 13.140625 0.921875 6.890625 3.21875 
L 6.890625 13.375 
Q 12.890625 10.015625 18.65625 8.296875 
Q 24.421875 6.59375 29.984375 6.59375 
Q 38.421875 6.59375 43.015625 9.90625 
Q 47.609375 13.234375 47.609375 19.390625 
Q 47.609375 24.75 44.3125 27.78125 
Q 41.015625 30.8125 33.5 32.328125 
L 27.484375 33.5 
Q 16.453125 35.6875 11.515625 40.375 
Q 6.59375 45.0625 6.59375 53.421875 
Q 6.59375 63.09375 13.40625 68.65625 
Q 20.21875 74.21875 32.171875 74.21875 
Q 37.3125 74.21875 42.625 73.28125 
Q 47.953125 72.359375 53.515625 70.515625 
z
" id="DejaVuSans-83"/>
       <path d="M 48.78125 52.59375 
L 48.78125 44.1875 
Q 44.96875 46.296875 41.140625 47.34375 
Q 37.3125 48.390625 33.40625 48.390625 
Q 24.65625 48.390625 19.8125 42.84375 
Q 14.984375 37.3125 14.984375 27.296875 
Q 14.984375 17.28125 19.8125 11.734375 
Q 24.65625 6.203125 33.40625 6.203125 
Q 37.3125 6.203125 41.140625 7.25 
Q 44.96875 8.296875 48.78125 10.40625 
L 48.78125 2.09375 
Q 45.015625 0.34375 40.984375 -0.53125 
Q 36.96875 -1.421875 32.421875 -1.421875 
Q 20.0625 -1.421875 12.78125 6.34375 
Q 5.515625 14.109375 5.515625 27.296875 
Q 5.515625 40.671875 12.859375 48.328125 
Q 20.21875 56 33.015625 56 
Q 37.15625 56 41.109375 55.140625 
Q 45.0625 54.296875 48.78125 52.59375 
z
" id="DejaVuSans-99"/>
       <path d="M 9.421875 54.6875 
L 18.40625 54.6875 
L 18.40625 0 
L 9.421875 0 
z
M 9.421875 75.984375 
L 18.40625 75.984375 
L 18.40625 64.59375 
L 9.421875 64.59375 
z
" id="DejaVuSans-105"/>
       <path d="M 25.390625 72.90625 
L 33.6875 72.90625 
L 8.296875 -9.28125 
L 0 -9.28125 
z
" id="DejaVuSans-47"/>
      </defs>
      <use transform="translate(0 0.765625)" xlink:href="#DejaVuSans-67"/>
      <use transform="translate(69.824219 0.765625)" xlink:href="#DejaVuSans-114"/>
      <use transform="translate(110.9375 0.765625)" xlink:href="#DejaVuSans-111"/>
      <use transform="translate(172.119141 0.765625)" xlink:href="#DejaVuSans-115"/>
      <use transform="translate(224.21875 0.765625)" xlink:href="#DejaVuSans-115"/>
      <use transform="translate(276.318359 0.765625)" xlink:href="#DejaVuSans-32"/>
      <use transform="translate(308.105469 0.765625)" xlink:href="#DejaVuSans-83"/>
      <use transform="translate(371.582031 0.765625)" xlink:href="#DejaVuSans-101"/>
      <use transform="translate(433.105469 0.765625)" xlink:href="#DejaVuSans-99"/>
      <use transform="translate(488.085938 0.765625)" xlink:href="#DejaVuSans-116"/>
      <use transform="translate(527.294922 0.765625)" xlink:href="#DejaVuSans-105"/>
      <use transform="translate(555.078125 0.765625)" xlink:href="#DejaVuSans-111"/>
      <use transform="translate(616.259766 0.765625)" xlink:href="#DejaVuSans-110"/>
      <use transform="translate(679.638672 0.765625)" xlink:href="#DejaVuSans-32"/>
      <use transform="translate(711.425781 0.765625)" xlink:href="#DejaVuSans-91"/>
      <use transform="translate(747.314453 0.765625)" xlink:href="#DejaVuSans-181"/>
      <use transform="translate(810.9375 0.765625)" xlink:href="#DejaVuSans-109"/>
      <use transform="translate(909.306641 39.046875)scale(0.7)" xlink:href="#DejaVuSans-50"/>
      <use transform="translate(956.577148 0.765625)" xlink:href="#DejaVuSans-47"/>
      <use transform="translate(990.268555 0.765625)" xlink:href="#DejaVuSans-49"/>
      <use transform="translate(1053.891602 0.765625)" xlink:href="#DejaVuSans-48"/>
      <use transform="translate(1117.514648 0.765625)" xlink:href="#DejaVuSans-48"/>
      <use transform="translate(1181.137695 0.765625)" xlink:href="#DejaVuSans-48"/>
      <use transform="translate(1244.760742 0.765625)" xlink:href="#DejaVuSans-93"/>
     </g>
    </g>
   </g>
   <g id="line2d_11">
    <path clip-path="url(#p376d3dbdf9)" d="M 49.584893 281.739432 
L 60.830963 281.729487 
L 76.575461 281.45717 
L 90.820483 281.020362 
L 100.567077 280.531805 
L 108.064457 279.94483 
L 114.062361 279.246688 
L 118.560789 278.483213 
L 122.309479 277.591308 
L 125.308431 276.633065 
L 127.557645 275.706898 
L 129.806858 274.528511 
L 131.306334 273.561172 
L 132.80581 272.383871 
L 134.305286 271.013288 
L 135.804762 269.34654 
L 137.304238 267.313957 
L 138.803714 264.844803 
L 140.30319 261.811034 
L 141.802666 258.087379 
L 143.302142 253.610142 
L 144.801618 248.274414 
L 149.300046 230.600273 
L 150.049784 228.579864 
L 150.799522 227.238062 
L 151.54926 226.659424 
L 152.298998 226.899721 
L 153.048736 227.961729 
L 153.798474 229.747415 
L 154.548212 232.102284 
L 156.047688 237.901095 
L 159.04664 250.038515 
L 160.546116 255.172745 
L 162.045592 259.478062 
L 163.545068 262.993365 
L 165.044544 265.843977 
L 166.54402 268.169278 
L 168.043496 270.091172 
L 169.542972 271.656537 
L 171.042448 272.941965 
L 173.291662 274.485951 
L 175.540876 275.687372 
L 177.79009 276.623994 
L 180.789042 277.591148 
L 183.787994 278.319363 
L 187.536684 279.003372 
L 192.035112 279.599232 
L 198.033016 280.147481 
L 198.782754 280.202355 
L 198.782754 280.202355 
" style="fill:none;stroke:#1f77b4;stroke-linecap:square;stroke-width:1.5;"/>
   </g>
   <g id="line2d_12">
    <path clip-path="url(#p376d3dbdf9)" d="M 49.584893 281.584461 
L 56.332535 281.58062 
L 63.829915 281.323987 
L 71.327295 280.844499 
L 77.325199 280.266376 
L 81.823627 279.656773 
L 86.322055 278.806489 
L 90.070745 277.84669 
L 93.069697 276.815106 
L 95.318911 275.818616 
L 97.568125 274.54265 
L 99.067601 273.492531 
L 100.567077 272.219547 
L 102.066553 270.679016 
L 103.566029 268.793778 
L 105.065505 266.429748 
L 106.564981 263.485712 
L 108.064457 259.709576 
L 109.563933 254.829029 
L 111.063409 248.467766 
L 111.813147 244.587011 
L 112.562885 240.109525 
L 113.312623 234.943243 
L 114.812099 222.262922 
L 116.311575 206.036445 
L 119.310527 168.756383 
L 120.060265 162.108843 
L 120.810003 158.345427 
L 121.559741 157.886927 
L 122.309479 160.810706 
L 123.059217 166.66623 
L 124.558693 183.748475 
L 126.807907 211.04331 
L 128.307383 225.861288 
L 129.806858 237.483173 
L 131.306334 246.330972 
L 132.80581 253.092665 
L 134.305286 258.115399 
L 135.804762 261.997587 
L 137.304238 265.049359 
L 138.803714 267.469081 
L 140.30319 269.425106 
L 141.802666 271.023799 
L 143.302142 272.339604 
L 145.551356 273.933462 
L 147.80057 275.166109 
L 150.049784 276.138588 
L 153.048736 277.144268 
L 156.047688 277.912409 
L 159.796378 278.642038 
L 164.294806 279.285219 
L 170.29271 279.888167 
L 177.79009 280.390575 
L 187.536684 280.807643 
L 198.782754 281.105856 
L 198.782754 281.105856 
" style="fill:none;stroke:#ff7f0e;stroke-linecap:square;stroke-width:1.5;"/>
   </g>
   <g id="line2d_13">
    <path clip-path="url(#p376d3dbdf9)" d="M 49.584893 281.30967 
L 54.083321 281.304765 
L 58.581749 281.082848 
L 63.080177 280.629421 
L 67.578605 279.917285 
L 70.577557 279.254336 
L 73.576509 278.379927 
L 75.825723 277.531157 
L 78.074937 276.473804 
L 80.324151 275.130057 
L 81.823627 274.008614 
L 83.323103 272.651903 
L 84.822579 270.990856 
L 86.322055 268.918866 
L 87.821531 266.339245 
L 89.321007 263.02522 
L 90.820483 258.697834 
L 92.319959 252.960015 
L 93.069697 249.397155 
L 94.569173 240.41265 
L 95.318911 234.732456 
L 96.068649 227.995861 
L 96.818387 219.98453 
L 97.568125 210.44793 
L 98.317863 199.287943 
L 99.067601 186.164887 
L 100.567077 154.048818 
L 102.066553 118.514566 
L 102.816291 103.628925 
L 103.566029 93.820736 
L 104.315767 91.121078 
L 105.065505 96.11038 
L 105.815243 107.576473 
L 107.314719 140.113541 
L 108.814195 173.032657 
L 110.313671 199.273381 
L 111.063409 209.703788 
L 111.813147 218.57336 
L 112.562885 226.117833 
L 114.062361 238.015099 
L 115.561837 246.735953 
L 117.061313 253.280303 
L 118.560789 258.238825 
L 120.060265 262.037884 
L 121.559741 264.968083 
L 123.059217 267.314343 
L 124.558693 269.20925 
L 126.058169 270.763034 
L 127.557645 272.055624 
L 129.806858 273.629933 
L 132.056072 274.875049 
L 134.305286 275.854809 
L 137.304238 276.864876 
L 140.30319 277.64388 
L 144.05188 278.392905 
L 148.550308 279.066493 
L 154.548212 279.703296 
L 162.045592 280.24221 
L 171.792186 280.69387 
L 185.28747 281.070243 
L 198.782754 281.294808 
L 198.782754 281.294808 
" style="fill:none;stroke:#2ca02c;stroke-linecap:square;stroke-width:1.5;"/>
   </g>
   <g id="line2d_14">
    <path clip-path="url(#p376d3dbdf9)" d="M 49.584893 280.890981 
L 53.333583 280.847365 
L 56.332535 280.613215 
L 59.331487 280.162591 
L 62.330439 279.464227 
L 64.579653 278.730843 
L 66.828867 277.775824 
L 69.078081 276.51568 
L 70.577557 275.456974 
L 72.077033 274.176648 
L 73.576509 272.602147 
L 75.075985 270.622184 
L 76.575461 268.111393 
L 78.074937 264.896358 
L 79.574413 260.675561 
L 80.324151 258.043637 
L 81.073889 254.988044 
L 81.823627 251.432317 
L 82.573365 247.203915 
L 83.323103 242.290939 
L 84.072841 236.396082 
L 84.822579 229.32848 
L 85.572317 220.821452 
L 86.322055 210.450033 
L 87.071793 198.151724 
L 87.821531 183.141873 
L 88.571269 165.253977 
L 90.070745 120.849342 
L 91.570221 73.732122 
L 92.319959 56.73124 
L 93.069697 49.045845 
L 93.819435 52.36205 
L 94.569173 65.663783 
L 95.318911 85.393346 
L 97.568125 151.475662 
L 99.067601 185.074175 
L 99.817339 198.162887 
L 100.567077 209.148094 
L 101.316815 218.408026 
L 102.066553 226.103574 
L 102.816291 232.592587 
L 104.315767 242.781562 
L 105.815243 250.203663 
L 107.314719 255.693174 
L 108.814195 259.912306 
L 110.313671 263.192214 
L 111.813147 265.79227 
L 113.312623 267.896065 
L 114.812099 269.618256 
L 116.311575 271.066581 
L 117.811051 272.280791 
L 120.060265 273.754808 
L 122.309479 274.89833 
L 124.558693 275.819961 
L 127.557645 276.793449 
L 131.306334 277.730881 
L 135.055024 278.435817 
L 140.30319 279.153407 
L 146.301094 279.738362 
L 153.798474 280.245941 
L 164.294806 280.707713 
L 178.539828 281.082551 
L 198.782754 281.373162 
L 198.782754 281.373162 
" style="fill:none;stroke:#d62728;stroke-linecap:square;stroke-width:1.5;"/>
   </g>
   <g id="line2d_15">
    <path clip-path="url(#p376d3dbdf9)" d="M 49.584893 280.305257 
L 52.583845 280.212764 
L 54.833059 279.949183 
L 57.082273 279.470574 
L 59.331487 278.737053 
L 61.580701 277.682063 
L 63.080177 276.742286 
L 64.579653 275.558795 
L 66.079129 274.073162 
L 67.578605 272.20627 
L 69.078081 269.808185 
L 70.577557 266.681222 
L 72.077033 262.535532 
L 72.826771 259.950949 
L 73.576509 256.910607 
L 74.326247 253.341448 
L 75.075985 249.046754 
L 75.825723 243.991087 
L 76.575461 237.849405 
L 77.325199 230.450562 
L 78.074937 221.592799 
L 78.824675 210.675686 
L 79.574413 197.444622 
L 80.324151 181.157909 
L 81.073889 161.564092 
L 82.573365 112.36898 
L 84.072841 60.382042 
L 84.822579 41.955201 
L 85.572317 34.67267 
L 86.322055 40.013595 
L 87.071793 56.480331 
L 88.571269 104.968477 
L 90.070745 151.28185 
L 90.820483 170.064982 
L 91.570221 185.881754 
L 92.319959 198.884331 
L 93.069697 209.698666 
L 93.819435 218.727291 
L 94.569173 226.189802 
L 95.318911 232.493935 
L 96.818387 242.437072 
L 98.317863 249.739708 
L 99.817339 255.231915 
L 101.316815 259.482071 
L 102.816291 262.804325 
L 104.315767 265.458364 
L 105.815243 267.593856 
L 107.314719 269.319766 
L 108.814195 270.757008 
L 110.313671 271.958518 
L 112.562885 273.425936 
L 114.812099 274.595457 
L 117.061313 275.557513 
L 120.060265 276.575377 
L 123.808955 277.525071 
L 128.307383 278.367949 
L 133.555548 279.096028 
L 140.30319 279.736962 
L 148.550308 280.270187 
L 159.04664 280.711749 
L 173.291662 281.07716 
L 194.284326 281.373092 
L 198.782754 281.415325 
L 198.782754 281.415325 
" style="fill:none;stroke:#9467bd;stroke-linecap:square;stroke-width:1.5;"/>
   </g>
   <g id="line2d_16">
    <path clip-path="url(#p376d3dbdf9)" d="M 49.584893 279.532812 
L 51.834107 279.383407 
L 53.333583 279.150365 
L 54.833059 278.781822 
L 56.332535 278.23567 
L 57.832011 277.483552 
L 59.331487 276.482298 
L 60.830963 275.166741 
L 62.330439 273.443538 
L 63.829915 271.148402 
L 65.329391 268.127985 
L 66.828867 264.059729 
L 67.578605 261.465594 
L 68.328343 258.44471 
L 69.078081 254.825075 
L 69.827819 250.500423 
L 70.577557 245.36326 
L 71.327295 239.047058 
L 72.077033 231.549731 
L 72.826771 222.297894 
L 73.576509 210.879026 
L 74.326247 196.932732 
L 75.075985 179.602634 
L 75.825723 159.132095 
L 77.325199 108.228162 
L 78.824675 58.611885 
L 79.574413 44.603358 
L 80.324151 42.348307 
L 81.073889 52.450243 
L 81.823627 71.631311 
L 84.072841 141.785919 
L 85.572317 178.377593 
L 86.322055 192.542835 
L 87.071793 204.270997 
L 87.821531 214.165948 
L 88.571269 222.429105 
L 89.321007 229.360247 
L 90.070745 235.219722 
L 91.570221 244.415411 
L 93.069697 251.113265 
L 94.569173 256.166861 
L 96.068649 260.075218 
L 97.568125 263.176732 
L 99.067601 265.657324 
L 100.567077 267.685944 
L 102.066553 269.373386 
L 103.566029 270.780462 
L 105.065505 271.968739 
L 107.314719 273.404143 
L 109.563933 274.549502 
L 111.813147 275.476975 
L 114.812099 276.467021 
L 118.560789 277.435578 
L 122.309479 278.161743 
L 126.807907 278.821677 
L 132.80581 279.476742 
L 139.553452 279.99069 
L 149.300046 280.495281 
L 162.045592 280.908687 
L 180.039304 281.244613 
L 198.782754 281.44136 
L 198.782754 281.44136 
" style="fill:none;stroke:#8c564b;stroke-linecap:square;stroke-width:1.5;"/>
   </g>
   <g id="line2d_17">
    <path clip-path="url(#p376d3dbdf9)" d="M 49.584893 278.560377 
L 51.834107 278.240572 
L 53.333583 277.816957 
L 54.833059 277.168477 
L 56.332535 276.21239 
L 57.832011 274.87667 
L 59.331487 273.048574 
L 60.830963 270.557834 
L 61.580701 268.991811 
L 62.330439 267.141666 
L 63.080177 264.96128 
L 63.829915 262.334108 
L 64.579653 259.276828 
L 65.329391 255.584153 
L 66.079129 251.130656 
L 66.828867 245.825932 
L 67.578605 239.247544 
L 68.328343 231.332991 
L 69.078081 221.518862 
L 69.827819 209.445103 
L 70.577557 194.863512 
L 72.077033 156.140789 
L 74.326247 84.061881 
L 75.075985 66.402756 
L 75.825723 59.707232 
L 76.575461 64.222945 
L 77.325199 78.500699 
L 78.824675 120.11047 
L 80.324151 160.552465 
L 81.073889 177.146101 
L 81.823627 191.190909 
L 82.573365 203.018142 
L 83.323103 212.85231 
L 84.072841 221.123518 
L 84.822579 228.091531 
L 86.322055 239.016396 
L 87.821531 247.010982 
L 89.321007 253.034727 
L 90.820483 257.644319 
L 92.319959 261.215658 
L 93.819435 264.034701 
L 95.318911 266.295718 
L 96.818387 268.162656 
L 98.317863 269.71473 
L 99.817339 271.019351 
L 102.066553 272.63091 
L 104.315767 273.918364 
L 106.564981 274.950083 
L 109.563933 276.035538 
L 112.562885 276.886039 
L 116.311575 277.722708 
L 120.810003 278.488819 
L 126.058169 279.139415 
L 132.80581 279.749592 
L 141.052928 280.256662 
L 152.298998 280.712316 
L 167.293758 281.08161 
L 189.03616 281.376337 
L 198.782754 281.458852 
L 198.782754 281.458852 
" style="fill:none;stroke:#e377c2;stroke-linecap:square;stroke-width:1.5;"/>
   </g>
   <g id="patch_3">
    <path d="M 42.125 294.118125 
L 42.125 22.318125 
" style="fill:none;stroke:#000000;stroke-linecap:square;stroke-linejoin:miter;stroke-width:0.8;"/>
   </g>
   <g id="patch_4">
    <path d="M 206.242647 294.118125 
L 206.242647 22.318125 
" style="fill:none;stroke:#000000;stroke-linecap:square;stroke-linejoin:miter;stroke-width:0.8;"/>
   </g>
   <g id="patch_5">
    <path d="M 42.125 294.118125 
L 206.242647 294.118125 
" style="fill:none;stroke:#000000;stroke-linecap:square;stroke-linejoin:miter;stroke-width:0.8;"/>
   </g>
   <g id="patch_6">
    <path d="M 42.125 22.318125 
L 206.242647 22.318125 
" style="fill:none;stroke:#000000;stroke-linecap:square;stroke-linejoin:miter;stroke-width:0.8;"/>
   </g>
   <g id="text_13">
    <!-- Scattering -->
    <g transform="translate(93.257574 16.318125)scale(0.12 -0.12)">
     <use xlink:href="#DejaVuSans-83"/>
     <use x="63.476562" xlink:href="#DejaVuSans-99"/>
     <use x="118.457031" xlink:href="#DejaVuSans-97"/>
     <use x="179.736328" xlink:href="#DejaVuSans-116"/>
     <use x="218.945312" xlink:href="#DejaVuSans-116"/>
     <use x="258.154297" xlink:href="#DejaVuSans-101"/>
     <use x="319.677734" xlink:href="#DejaVuSans-114"/>
     <use x="360.791016" xlink:href="#DejaVuSans-105"/>
     <use x="388.574219" xlink:href="#DejaVuSans-110"/>
     <use x="451.953125" xlink:href="#DejaVuSans-103"/>
    </g>
   </g>
   <g id="legend_1">
    <g id="patch_7">
     <path d="M 119.958272 133.065 
L 199.242647 133.065 
Q 201.242647 133.065 201.242647 131.065 
L 201.242647 29.318125 
Q 201.242647 27.318125 199.242647 27.318125 
L 119.958272 27.318125 
Q 117.958272 27.318125 117.958272 29.318125 
L 117.958272 131.065 
Q 117.958272 133.065 119.958272 133.065 
z
" style="fill:#ffffff;opacity:0.8;stroke:#cccccc;stroke-linejoin:miter;"/>
    </g>
    <g id="line2d_18">
     <path d="M 121.958272 35.416563 
L 141.958272 35.416563 
" style="fill:none;stroke:#1f77b4;stroke-linecap:square;stroke-width:1.5;"/>
    </g>
    <g id="line2d_19"/>
    <g id="text_14">
     <!-- t = 0.002 -->
     <g transform="translate(149.958272 38.916563)scale(0.1 -0.1)">
      <defs>
       <path d="M 10.59375 45.40625 
L 73.1875 45.40625 
L 73.1875 37.203125 
L 10.59375 37.203125 
z
M 10.59375 25.484375 
L 73.1875 25.484375 
L 73.1875 17.1875 
L 10.59375 17.1875 
z
" id="DejaVuSans-61"/>
      </defs>
      <use xlink:href="#DejaVuSans-116"/>
      <use x="39.208984" xlink:href="#DejaVuSans-32"/>
      <use x="70.996094" xlink:href="#DejaVuSans-61"/>
      <use x="154.785156" xlink:href="#DejaVuSans-32"/>
      <use x="186.572266" xlink:href="#DejaVuSans-48"/>
      <use x="250.195312" xlink:href="#DejaVuSans-46"/>
      <use x="281.982422" xlink:href="#DejaVuSans-48"/>
      <use x="345.605469" xlink:href="#DejaVuSans-48"/>
      <use x="409.228516" xlink:href="#DejaVuSans-50"/>
     </g>
    </g>
    <g id="line2d_20">
     <path d="M 121.958272 50.094688 
L 141.958272 50.094688 
" style="fill:none;stroke:#ff7f0e;stroke-linecap:square;stroke-width:1.5;"/>
    </g>
    <g id="line2d_21"/>
    <g id="text_15">
     <!-- t = 0.003 -->
     <g transform="translate(149.958272 53.594688)scale(0.1 -0.1)">
      <defs>
       <path d="M 40.578125 39.3125 
Q 47.65625 37.796875 51.625 33 
Q 55.609375 28.21875 55.609375 21.1875 
Q 55.609375 10.40625 48.1875 4.484375 
Q 40.765625 -1.421875 27.09375 -1.421875 
Q 22.515625 -1.421875 17.65625 -0.515625 
Q 12.796875 0.390625 7.625 2.203125 
L 7.625 11.71875 
Q 11.71875 9.328125 16.59375 8.109375 
Q 21.484375 6.890625 26.8125 6.890625 
Q 36.078125 6.890625 40.9375 10.546875 
Q 45.796875 14.203125 45.796875 21.1875 
Q 45.796875 27.640625 41.28125 31.265625 
Q 36.765625 34.90625 28.71875 34.90625 
L 20.21875 34.90625 
L 20.21875 43.015625 
L 29.109375 43.015625 
Q 36.375 43.015625 40.234375 45.921875 
Q 44.09375 48.828125 44.09375 54.296875 
Q 44.09375 59.90625 40.109375 62.90625 
Q 36.140625 65.921875 28.71875 65.921875 
Q 24.65625 65.921875 20.015625 65.03125 
Q 15.375 64.15625 9.8125 62.3125 
L 9.8125 71.09375 
Q 15.4375 72.65625 20.34375 73.4375 
Q 25.25 74.21875 29.59375 74.21875 
Q 40.828125 74.21875 47.359375 69.109375 
Q 53.90625 64.015625 53.90625 55.328125 
Q 53.90625 49.265625 50.4375 45.09375 
Q 46.96875 40.921875 40.578125 39.3125 
z
" id="DejaVuSans-51"/>
      </defs>
      <use xlink:href="#DejaVuSans-116"/>
      <use x="39.208984" xlink:href="#DejaVuSans-32"/>
      <use x="70.996094" xlink:href="#DejaVuSans-61"/>
      <use x="154.785156" xlink:href="#DejaVuSans-32"/>
      <use x="186.572266" xlink:href="#DejaVuSans-48"/>
      <use x="250.195312" xlink:href="#DejaVuSans-46"/>
      <use x="281.982422" xlink:href="#DejaVuSans-48"/>
      <use x="345.605469" xlink:href="#DejaVuSans-48"/>
      <use x="409.228516" xlink:href="#DejaVuSans-51"/>
     </g>
    </g>
    <g id="line2d_22">
     <path d="M 121.958272 64.772813 
L 141.958272 64.772813 
" style="fill:none;stroke:#2ca02c;stroke-linecap:square;stroke-width:1.5;"/>
    </g>
    <g id="line2d_23"/>
    <g id="text_16">
     <!-- t = 0.004 -->
     <g transform="translate(149.958272 68.272813)scale(0.1 -0.1)">
      <use xlink:href="#DejaVuSans-116"/>
      <use x="39.208984" xlink:href="#DejaVuSans-32"/>
      <use x="70.996094" xlink:href="#DejaVuSans-61"/>
      <use x="154.785156" xlink:href="#DejaVuSans-32"/>
      <use x="186.572266" xlink:href="#DejaVuSans-48"/>
      <use x="250.195312" xlink:href="#DejaVuSans-46"/>
      <use x="281.982422" xlink:href="#DejaVuSans-48"/>
      <use x="345.605469" xlink:href="#DejaVuSans-48"/>
      <use x="409.228516" xlink:href="#DejaVuSans-52"/>
     </g>
    </g>
    <g id="line2d_24">
     <path d="M 121.958272 79.450938 
L 141.958272 79.450938 
" style="fill:none;stroke:#d62728;stroke-linecap:square;stroke-width:1.5;"/>
    </g>
    <g id="line2d_25"/>
    <g id="text_17">
     <!-- t = 0.005 -->
     <g transform="translate(149.958272 82.950938)scale(0.1 -0.1)">
      <defs>
       <path d="M 10.796875 72.90625 
L 49.515625 72.90625 
L 49.515625 64.59375 
L 19.828125 64.59375 
L 19.828125 46.734375 
Q 21.96875 47.46875 24.109375 47.828125 
Q 26.265625 48.1875 28.421875 48.1875 
Q 40.625 48.1875 47.75 41.5 
Q 54.890625 34.8125 54.890625 23.390625 
Q 54.890625 11.625 47.5625 5.09375 
Q 40.234375 -1.421875 26.90625 -1.421875 
Q 22.3125 -1.421875 17.546875 -0.640625 
Q 12.796875 0.140625 7.71875 1.703125 
L 7.71875 11.625 
Q 12.109375 9.234375 16.796875 8.0625 
Q 21.484375 6.890625 26.703125 6.890625 
Q 35.15625 6.890625 40.078125 11.328125 
Q 45.015625 15.765625 45.015625 23.390625 
Q 45.015625 31 40.078125 35.4375 
Q 35.15625 39.890625 26.703125 39.890625 
Q 22.75 39.890625 18.8125 39.015625 
Q 14.890625 38.140625 10.796875 36.28125 
z
" id="DejaVuSans-53"/>
      </defs>
      <use xlink:href="#DejaVuSans-116"/>
      <use x="39.208984" xlink:href="#DejaVuSans-32"/>
      <use x="70.996094" xlink:href="#DejaVuSans-61"/>
      <use x="154.785156" xlink:href="#DejaVuSans-32"/>
      <use x="186.572266" xlink:href="#DejaVuSans-48"/>
      <use x="250.195312" xlink:href="#DejaVuSans-46"/>
      <use x="281.982422" xlink:href="#DejaVuSans-48"/>
      <use x="345.605469" xlink:href="#DejaVuSans-48"/>
      <use x="409.228516" xlink:href="#DejaVuSans-53"/>
     </g>
    </g>
    <g id="line2d_26">
     <path d="M 121.958272 94.129063 
L 141.958272 94.129063 
" style="fill:none;stroke:#9467bd;stroke-linecap:square;stroke-width:1.5;"/>
    </g>
    <g id="line2d_27"/>
    <g id="text_18">
     <!-- t = 0.006 -->
     <g transform="translate(149.958272 97.629063)scale(0.1 -0.1)">
      <use xlink:href="#DejaVuSans-116"/>
      <use x="39.208984" xlink:href="#DejaVuSans-32"/>
      <use x="70.996094" xlink:href="#DejaVuSans-61"/>
      <use x="154.785156" xlink:href="#DejaVuSans-32"/>
      <use x="186.572266" xlink:href="#DejaVuSans-48"/>
      <use x="250.195312" xlink:href="#DejaVuSans-46"/>
      <use x="281.982422" xlink:href="#DejaVuSans-48"/>
      <use x="345.605469" xlink:href="#DejaVuSans-48"/>
      <use x="409.228516" xlink:href="#DejaVuSans-54"/>
     </g>
    </g>
    <g id="line2d_28">
     <path d="M 121.958272 108.807188 
L 141.958272 108.807188 
" style="fill:none;stroke:#8c564b;stroke-linecap:square;stroke-width:1.5;"/>
    </g>
    <g id="line2d_29"/>
    <g id="text_19">
     <!-- t = 0.007 -->
     <g transform="translate(149.958272 112.307188)scale(0.1 -0.1)">
      <defs>
       <path d="M 8.203125 72.90625 
L 55.078125 72.90625 
L 55.078125 68.703125 
L 28.609375 0 
L 18.3125 0 
L 43.21875 64.59375 
L 8.203125 64.59375 
z
" id="DejaVuSans-55"/>
      </defs>
      <use xlink:href="#DejaVuSans-116"/>
      <use x="39.208984" xlink:href="#DejaVuSans-32"/>
      <use x="70.996094" xlink:href="#DejaVuSans-61"/>
      <use x="154.785156" xlink:href="#DejaVuSans-32"/>
      <use x="186.572266" xlink:href="#DejaVuSans-48"/>
      <use x="250.195312" xlink:href="#DejaVuSans-46"/>
      <use x="281.982422" xlink:href="#DejaVuSans-48"/>
      <use x="345.605469" xlink:href="#DejaVuSans-48"/>
      <use x="409.228516" xlink:href="#DejaVuSans-55"/>
     </g>
    </g>
    <g id="line2d_30">
     <path d="M 121.958272 123.485313 
L 141.958272 123.485313 
" style="fill:none;stroke:#e377c2;stroke-linecap:square;stroke-width:1.5;"/>
    </g>
    <g id="line2d_31"/>
    <g id="text_20">
     <!-- t = 0.008 -->
     <g transform="translate(149.958272 126.985313)scale(0.1 -0.1)">
      <use xlink:href="#DejaVuSans-116"/>
      <use x="39.208984" xlink:href="#DejaVuSans-32"/>
      <use x="70.996094" xlink:href="#DejaVuSans-61"/>
      <use x="154.785156" xlink:href="#DejaVuSans-32"/>
      <use x="186.572266" xlink:href="#DejaVuSans-48"/>
      <use x="250.195312" xlink:href="#DejaVuSans-46"/>
      <use x="281.982422" xlink:href="#DejaVuSans-48"/>
      <use x="345.605469" xlink:href="#DejaVuSans-48"/>
      <use x="409.228516" xlink:href="#DejaVuSans-56"/>
     </g>
    </g>
   </g>
  </g>
  <g id="axes_2">
   <g id="patch_8">
    <path d="M 239.066176 294.118125 
L 403.183824 294.118125 
L 403.183824 22.318125 
L 239.066176 22.318125 
z
" style="fill:#ffffff;"/>
   </g>
   <g id="matplotlib.axis_3">
    <g id="xtick_5">
     <g id="line2d_32">
      <g>
       <use style="stroke:#000000;stroke-width:0.8;" x="265.175802" xlink:href="#m9d7b410827" y="294.118125"/>
      </g>
     </g>
     <g id="text_21">
      <!-- 0.6 -->
      <g transform="translate(257.22424 308.716563)scale(0.1 -0.1)">
       <use xlink:href="#DejaVuSans-48"/>
       <use x="63.623047" xlink:href="#DejaVuSans-46"/>
       <use x="95.410156" xlink:href="#DejaVuSans-54"/>
      </g>
     </g>
    </g>
    <g id="xtick_6">
     <g id="line2d_33">
      <g>
       <use style="stroke:#000000;stroke-width:0.8;" x="302.475267" xlink:href="#m9d7b410827" y="294.118125"/>
      </g>
     </g>
     <g id="text_22">
      <!-- 0.8 -->
      <g transform="translate(294.523705 308.716563)scale(0.1 -0.1)">
       <use xlink:href="#DejaVuSans-48"/>
       <use x="63.623047" xlink:href="#DejaVuSans-46"/>
       <use x="95.410156" xlink:href="#DejaVuSans-56"/>
      </g>
     </g>
    </g>
    <g id="xtick_7">
     <g id="line2d_34">
      <g>
       <use style="stroke:#000000;stroke-width:0.8;" x="339.774733" xlink:href="#m9d7b410827" y="294.118125"/>
      </g>
     </g>
     <g id="text_23">
      <!-- 1.0 -->
      <g transform="translate(331.82317 308.716563)scale(0.1 -0.1)">
       <use xlink:href="#DejaVuSans-49"/>
       <use x="63.623047" xlink:href="#DejaVuSans-46"/>
       <use x="95.410156" xlink:href="#DejaVuSans-48"/>
      </g>
     </g>
    </g>
    <g id="xtick_8">
     <g id="line2d_35">
      <g>
       <use style="stroke:#000000;stroke-width:0.8;" x="377.074198" xlink:href="#m9d7b410827" y="294.118125"/>
      </g>
     </g>
     <g id="text_24">
      <!-- 1.2 -->
      <g transform="translate(369.122635 308.716563)scale(0.1 -0.1)">
       <use xlink:href="#DejaVuSans-49"/>
       <use x="63.623047" xlink:href="#DejaVuSans-46"/>
       <use x="95.410156" xlink:href="#DejaVuSans-50"/>
      </g>
     </g>
    </g>
    <g id="text_25">
     <!-- Wavelength [µm] -->
     <g transform="translate(277.920313 322.394687)scale(0.1 -0.1)">
      <use xlink:href="#DejaVuSans-87"/>
      <use x="92.501953" xlink:href="#DejaVuSans-97"/>
      <use x="153.78125" xlink:href="#DejaVuSans-118"/>
      <use x="212.960938" xlink:href="#DejaVuSans-101"/>
      <use x="274.484375" xlink:href="#DejaVuSans-108"/>
      <use x="302.267578" xlink:href="#DejaVuSans-101"/>
      <use x="363.791016" xlink:href="#DejaVuSans-110"/>
      <use x="427.169922" xlink:href="#DejaVuSans-103"/>
      <use x="490.646484" xlink:href="#DejaVuSans-116"/>
      <use x="529.855469" xlink:href="#DejaVuSans-104"/>
      <use x="593.234375" xlink:href="#DejaVuSans-32"/>
      <use x="625.021484" xlink:href="#DejaVuSans-91"/>
      <use x="664.035156" xlink:href="#DejaVuSans-181"/>
      <use x="727.658203" xlink:href="#DejaVuSans-109"/>
      <use x="825.070312" xlink:href="#DejaVuSans-93"/>
     </g>
    </g>
   </g>
   <g id="matplotlib.axis_4">
    <g id="ytick_7">
     <g id="line2d_36">
      <g>
       <use style="stroke:#000000;stroke-width:0.8;" x="239.066176" xlink:href="#m6c5a609921" y="282.252904"/>
      </g>
     </g>
     <g id="text_26">
      <!-- 0 -->
      <g transform="translate(225.703676 286.052123)scale(0.1 -0.1)">
       <use xlink:href="#DejaVuSans-48"/>
      </g>
     </g>
    </g>
    <g id="ytick_8">
     <g id="line2d_37">
      <g>
       <use style="stroke:#000000;stroke-width:0.8;" x="239.066176" xlink:href="#m6c5a609921" y="248.636398"/>
      </g>
     </g>
     <g id="text_27">
      <!-- 5 -->
      <g transform="translate(225.703676 252.435617)scale(0.1 -0.1)">
       <use xlink:href="#DejaVuSans-53"/>
      </g>
     </g>
    </g>
    <g id="ytick_9">
     <g id="line2d_38">
      <g>
       <use style="stroke:#000000;stroke-width:0.8;" x="239.066176" xlink:href="#m6c5a609921" y="215.019892"/>
      </g>
     </g>
     <g id="text_28">
      <!-- 10 -->
      <g transform="translate(219.341176 218.819111)scale(0.1 -0.1)">
       <use xlink:href="#DejaVuSans-49"/>
       <use x="63.623047" xlink:href="#DejaVuSans-48"/>
      </g>
     </g>
    </g>
    <g id="ytick_10">
     <g id="line2d_39">
      <g>
       <use style="stroke:#000000;stroke-width:0.8;" x="239.066176" xlink:href="#m6c5a609921" y="181.403386"/>
      </g>
     </g>
     <g id="text_29">
      <!-- 15 -->
      <g transform="translate(219.341176 185.202604)scale(0.1 -0.1)">
       <use xlink:href="#DejaVuSans-49"/>
       <use x="63.623047" xlink:href="#DejaVuSans-53"/>
      </g>
     </g>
    </g>
    <g id="ytick_11">
     <g id="line2d_40">
      <g>
       <use style="stroke:#000000;stroke-width:0.8;" x="239.066176" xlink:href="#m6c5a609921" y="147.786879"/>
      </g>
     </g>
     <g id="text_30">
      <!-- 20 -->
      <g transform="translate(219.341176 151.586098)scale(0.1 -0.1)">
       <use xlink:href="#DejaVuSans-50"/>
       <use x="63.623047" xlink:href="#DejaVuSans-48"/>
      </g>
     </g>
    </g>
    <g id="ytick_12">
     <g id="line2d_41">
      <g>
       <use style="stroke:#000000;stroke-width:0.8;" x="239.066176" xlink:href="#m6c5a609921" y="114.170373"/>
      </g>
     </g>
     <g id="text_31">
      <!-- 25 -->
      <g transform="translate(219.341176 117.969592)scale(0.1 -0.1)">
       <use xlink:href="#DejaVuSans-50"/>
       <use x="63.623047" xlink:href="#DejaVuSans-53"/>
      </g>
     </g>
    </g>
    <g id="ytick_13">
     <g id="line2d_42">
      <g>
       <use style="stroke:#000000;stroke-width:0.8;" x="239.066176" xlink:href="#m6c5a609921" y="80.553867"/>
      </g>
     </g>
     <g id="text_32">
      <!-- 30 -->
      <g transform="translate(219.341176 84.353086)scale(0.1 -0.1)">
       <use xlink:href="#DejaVuSans-51"/>
       <use x="63.623047" xlink:href="#DejaVuSans-48"/>
      </g>
     </g>
    </g>
    <g id="ytick_14">
     <g id="line2d_43">
      <g>
       <use style="stroke:#000000;stroke-width:0.8;" x="239.066176" xlink:href="#m6c5a609921" y="46.937361"/>
      </g>
     </g>
     <g id="text_33">
      <!-- 35 -->
      <g transform="translate(219.341176 50.73658)scale(0.1 -0.1)">
       <use xlink:href="#DejaVuSans-51"/>
       <use x="63.623047" xlink:href="#DejaVuSans-53"/>
      </g>
     </g>
    </g>
   </g>
   <g id="line2d_44">
    <path clip-path="url(#pc904ff5431)" d="M 246.52607 278.751079 
L 251.774235 279.641542 
L 257.022401 280.226223 
L 263.020305 280.558651 
L 269.767947 280.650094 
L 276.515589 280.521131 
L 283.263231 280.184629 
L 289.261135 279.670768 
L 293.759563 279.089562 
L 296.758515 278.518197 
L 299.007729 277.914446 
L 301.256943 277.065588 
L 305.005633 275.303691 
L 306.505109 275.003537 
L 310.253799 274.83192 
L 311.753275 274.534835 
L 313.252751 274.071368 
L 315.501965 273.092135 
L 317.751179 271.79021 
L 320.000393 270.13809 
L 321.499869 268.802501 
L 322.999345 267.240605 
L 324.498821 265.401572 
L 325.998297 263.216846 
L 327.497773 260.615015 
L 328.997249 257.462942 
L 330.496725 253.664847 
L 331.996201 249.164205 
L 333.495677 243.596699 
L 334.995153 236.826538 
L 336.494629 228.467908 
L 337.994105 218.127555 
L 339.493581 205.43366 
L 340.993057 190.155714 
L 342.492533 171.966575 
L 346.241223 124.167557 
L 346.990961 117.204326 
L 347.740699 112.280854 
L 348.490437 109.70659 
L 349.240175 109.698241 
L 349.989913 112.289966 
L 350.739651 117.200216 
L 351.489389 123.966804 
L 352.988865 141.179646 
L 355.987817 178.33278 
L 357.487293 194.351211 
L 358.986769 207.895333 
L 360.486245 219.033004 
L 361.985721 228.125182 
L 363.485197 235.592896 
L 364.984673 241.813697 
L 366.484149 246.899895 
L 367.983625 251.095219 
L 369.483101 254.610346 
L 370.982577 257.609216 
L 372.482053 260.159483 
L 373.981529 262.320198 
L 376.230743 265.039667 
L 378.479957 267.22872 
L 380.729171 269.025744 
L 382.978385 270.520487 
L 385.227599 271.776296 
L 388.226551 273.160047 
L 391.225503 274.277034 
L 394.974192 275.40702 
L 395.72393 275.604662 
L 395.72393 275.604662 
" style="fill:none;stroke:#1f77b4;stroke-linecap:square;stroke-width:1.5;"/>
   </g>
   <g id="line2d_45">
    <path clip-path="url(#pc904ff5431)" d="M 246.52607 276.656205 
L 251.024497 277.73066 
L 254.023449 278.268706 
L 257.772139 278.70995 
L 261.520829 278.92171 
L 265.269519 278.937186 
L 269.018209 278.757378 
L 272.766899 278.355317 
L 275.765851 277.827395 
L 278.015065 277.208326 
L 279.514541 276.624528 
L 281.014017 275.820784 
L 282.513493 274.717845 
L 284.012969 273.464561 
L 284.762707 272.992364 
L 285.512445 272.758273 
L 287.011921 272.842025 
L 288.511397 272.917166 
L 290.010873 272.603048 
L 291.510349 271.928179 
L 293.009825 270.944737 
L 294.509301 269.648035 
L 296.008777 268.031993 
L 297.508253 266.01508 
L 299.007729 263.512223 
L 300.507205 260.399476 
L 302.006681 256.460555 
L 303.506157 251.503328 
L 305.005633 245.118516 
L 306.505109 236.818045 
L 308.004585 225.920466 
L 308.754323 219.224675 
L 309.504061 211.48408 
L 310.253799 202.534562 
L 311.753275 180.455626 
L 313.252751 151.898207 
L 316.251703 85.110299 
L 317.001441 72.807656 
L 317.751179 65.441734 
L 318.500917 63.850488 
L 319.250655 68.23373 
L 320.000393 77.856476 
L 320.750131 91.291242 
L 324.498821 167.815771 
L 325.998297 191.010031 
L 327.497773 208.980603 
L 328.997249 222.769523 
L 330.496725 233.238554 
L 331.996201 241.100485 
L 333.495677 247.3518 
L 334.995153 252.271414 
L 336.494629 256.237717 
L 337.994105 259.478432 
L 339.493581 262.15068 
L 340.993057 264.373475 
L 342.492533 266.27076 
L 343.992009 267.867813 
L 346.241223 269.842015 
L 348.490437 271.419295 
L 350.739651 272.720643 
L 352.988865 273.789323 
L 355.987817 274.951899 
L 358.986769 275.887442 
L 362.735459 276.812864 
L 367.233887 277.677859 
L 372.482053 278.440432 
L 379.229695 279.163699 
L 387.476813 279.794193 
L 395.72393 280.245559 
L 395.72393 280.245559 
" style="fill:none;stroke:#ff7f0e;stroke-linecap:square;stroke-width:1.5;"/>
   </g>
   <g id="line2d_46">
    <path clip-path="url(#pc904ff5431)" d="M 246.52607 274.303896 
L 250.274759 275.370367 
L 253.273711 276.018461 
L 257.022401 276.45416 
L 260.021353 276.50079 
L 262.270567 276.359826 
L 264.519781 276.049294 
L 266.768995 275.491996 
L 268.268471 274.932849 
L 269.767947 274.135463 
L 271.267423 273.002892 
L 273.516637 270.902537 
L 274.266375 270.445876 
L 275.016113 270.243084 
L 277.265327 270.057549 
L 278.015065 269.800175 
L 278.764803 269.394984 
L 279.514541 268.853205 
L 281.014017 267.360009 
L 282.513493 265.308814 
L 284.012969 262.620961 
L 285.512445 259.105315 
L 287.011921 254.478542 
L 287.761659 251.627135 
L 289.261135 244.519968 
L 290.010873 240.091566 
L 290.760611 234.895158 
L 291.510349 228.886567 
L 292.260087 221.784132 
L 293.009825 213.335931 
L 293.759563 203.267981 
L 294.509301 191.289995 
L 295.259039 177.23307 
L 296.008777 160.714891 
L 297.508253 120.211924 
L 299.007729 75.142705 
L 299.757467 56.137125 
L 300.507205 43.496348 
L 301.256943 39.828152 
L 302.006681 45.908014 
L 302.756419 60.125763 
L 304.255895 101.007277 
L 305.755371 142.600698 
L 307.254847 175.819245 
L 308.004585 189.02033 
L 309.504061 209.822649 
L 311.003537 224.961827 
L 312.503013 236.054269 
L 314.002489 244.395917 
L 315.501965 250.737646 
L 317.001441 255.613553 
L 318.500917 259.37995 
L 320.000393 262.409829 
L 321.499869 264.857526 
L 322.999345 266.86891 
L 324.498821 268.550317 
L 325.998297 269.971142 
L 328.247511 271.729939 
L 330.496725 273.135857 
L 332.745939 274.239552 
L 334.995153 275.151639 
L 337.994105 276.134737 
L 341.742795 277.09515 
L 345.491485 277.842486 
L 349.989913 278.533965 
L 355.987817 279.221591 
L 363.485197 279.835238 
L 372.482053 280.348206 
L 385.227599 280.82909 
L 395.72393 281.097999 
L 395.72393 281.097999 
" style="fill:none;stroke:#2ca02c;stroke-linecap:square;stroke-width:1.5;"/>
   </g>
   <g id="line2d_47">
    <path clip-path="url(#pc904ff5431)" d="M 246.52607 271.68777 
L 249.525021 272.583758 
L 252.523973 273.181953 
L 254.023449 273.351815 
L 256.272663 273.389626 
L 257.772139 273.270801 
L 259.271615 273.016632 
L 260.771091 272.571356 
L 262.270567 271.893746 
L 263.770043 270.934376 
L 265.269519 269.636296 
L 266.768995 268.18759 
L 267.518733 267.588993 
L 269.018209 266.821847 
L 270.517685 266.053681 
L 271.267423 265.441151 
L 272.017161 264.646344 
L 272.766899 263.626674 
L 273.516637 262.394166 
L 275.016113 259.232992 
L 275.765851 257.253245 
L 276.515589 254.915581 
L 277.265327 252.181953 
L 278.015065 248.984894 
L 278.764803 245.236281 
L 279.514541 240.799243 
L 280.264279 235.579914 
L 281.014017 229.345708 
L 281.763755 221.869327 
L 282.513493 212.867139 
L 283.263231 201.952903 
L 284.012969 188.949144 
L 284.762707 173.142157 
L 285.512445 154.331125 
L 287.011921 107.891954 
L 288.511397 59.0742 
L 289.261135 41.911805 
L 290.010873 34.67267 
L 290.760611 39.10917 
L 291.510349 53.79062 
L 293.009825 99.407748 
L 294.509301 145.475548 
L 296.008777 180.885376 
L 296.758515 194.63257 
L 297.508253 206.147513 
L 298.257991 215.837271 
L 299.007729 223.837671 
L 299.757467 230.586701 
L 301.256943 241.169632 
L 302.006681 245.333498 
L 303.506157 251.896488 
L 305.005633 256.871949 
L 306.505109 260.714035 
L 308.004585 263.727654 
L 309.504061 266.131474 
L 311.003537 268.098894 
L 312.503013 269.720545 
L 314.002489 271.086362 
L 316.251703 272.748756 
L 318.500917 274.031315 
L 320.750131 275.06253 
L 323.749083 276.14265 
L 326.748035 276.995777 
L 330.496725 277.834729 
L 334.995153 278.573663 
L 340.243319 279.215076 
L 346.990961 279.816317 
L 355.987817 280.365993 
L 367.233887 280.819838 
L 382.978385 281.217284 
L 395.72393 281.427143 
L 395.72393 281.427143 
" style="fill:none;stroke:#d62728;stroke-linecap:square;stroke-width:1.5;"/>
   </g>
   <g id="line2d_48">
    <path clip-path="url(#pc904ff5431)" d="M 246.52607 268.815255 
L 249.525021 269.564815 
L 251.774235 269.852461 
L 254.023449 269.772478 
L 255.522925 269.505657 
L 257.022401 268.990299 
L 258.521877 268.179155 
L 260.021353 267.020013 
L 261.520829 265.529737 
L 263.770043 263.230763 
L 265.269519 261.752356 
L 266.019257 260.831076 
L 266.768995 259.696362 
L 267.518733 258.286675 
L 268.268471 256.587187 
L 269.018209 254.531433 
L 269.767947 252.087503 
L 270.517685 249.15684 
L 271.267423 245.654663 
L 272.017161 241.470978 
L 272.766899 236.456598 
L 273.516637 230.410091 
L 274.266375 223.137099 
L 275.016113 214.438576 
L 275.765851 203.844251 
L 276.515589 190.956855 
L 277.265327 175.264147 
L 278.015065 156.515931 
L 279.514541 110.169793 
L 281.014017 62.60261 
L 281.763755 46.839386 
L 282.513493 42.010898 
L 283.263231 49.405953 
L 284.012969 66.900389 
L 287.011921 160.552291 
L 287.761659 178.495763 
L 288.511397 193.541046 
L 289.261135 205.844152 
L 290.010873 216.017082 
L 290.760611 224.483834 
L 291.510349 231.41556 
L 292.260087 237.260924 
L 293.759563 246.412635 
L 295.259039 253.092514 
L 296.758515 258.09054 
L 298.257991 261.937435 
L 299.757467 264.912592 
L 301.256943 267.284239 
L 302.756419 269.184734 
L 304.255895 270.718197 
L 305.755371 271.995364 
L 308.004585 273.525646 
L 310.253799 274.721502 
L 312.503013 275.683842 
L 315.501965 276.706619 
L 318.500917 277.489674 
L 322.249607 278.239619 
L 327.497773 279.016816 
L 333.495677 279.649123 
L 340.993057 280.193375 
L 350.739651 280.673962 
L 364.234935 281.096301 
L 382.978385 281.444052 
L 395.72393 281.596166 
L 395.72393 281.596166 
" style="fill:none;stroke:#9467bd;stroke-linecap:square;stroke-width:1.5;"/>
   </g>
   <g id="line2d_49">
    <path clip-path="url(#pc904ff5431)" d="M 246.52607 265.709685 
L 248.775284 266.038281 
L 250.274759 266.099569 
L 251.774235 265.983465 
L 253.273711 265.583911 
L 254.773187 264.845624 
L 255.522925 264.368909 
L 257.022401 263.077501 
L 258.521877 261.383926 
L 260.021353 259.386331 
L 261.520829 257.104354 
L 262.270567 255.744168 
L 263.020305 254.138316 
L 263.770043 252.18955 
L 264.519781 249.856492 
L 265.269519 246.987562 
L 266.019257 243.551596 
L 266.768995 239.419019 
L 267.518733 234.446629 
L 268.268471 228.423241 
L 269.018209 221.184276 
L 269.767947 212.369308 
L 270.517685 201.553393 
L 271.267423 188.404562 
L 272.017161 172.377359 
L 272.766899 153.512621 
L 275.765851 66.862582 
L 276.515589 57.09232 
L 277.265327 58.58433 
L 278.015065 71.16041 
L 278.764803 91.358835 
L 281.014017 159.342984 
L 281.763755 177.675695 
L 282.513493 193.089703 
L 283.263231 205.945504 
L 284.012969 216.413243 
L 284.762707 225.183779 
L 285.512445 232.436911 
L 286.262183 238.465721 
L 287.011921 243.541588 
L 288.511397 251.397605 
L 290.010873 257.066941 
L 291.510349 261.295848 
L 293.009825 264.530936 
L 294.509301 267.074321 
L 296.008777 269.093067 
L 297.508253 270.734172 
L 299.007729 272.085957 
L 300.507205 273.205297 
L 302.756419 274.556245 
L 305.005633 275.601216 
L 307.254847 276.43923 
L 310.253799 277.313772 
L 314.002489 278.15212 
L 318.500917 278.893393 
L 323.749083 279.510801 
L 330.496725 280.081164 
L 339.493581 280.582727 
L 351.489389 281.015027 
L 367.983625 281.373819 
L 393.474716 281.678506 
L 395.72393 281.697209 
L 395.72393 281.697209 
" style="fill:none;stroke:#8c564b;stroke-linecap:square;stroke-width:1.5;"/>
   </g>
   <g id="line2d_50">
    <path clip-path="url(#pc904ff5431)" d="M 246.52607 262.40996 
L 248.025546 262.443142 
L 250.274759 262.040036 
L 251.774235 261.454748 
L 253.273711 260.433435 
L 254.773187 258.90238 
L 255.522925 257.971758 
L 257.022401 255.666114 
L 258.521877 252.778607 
L 259.271615 251.053679 
L 260.021353 248.979167 
L 260.771091 246.545282 
L 261.520829 243.58351 
L 262.270567 240.01962 
L 263.020305 235.71101 
L 263.770043 230.505232 
L 264.519781 224.178793 
L 265.269519 216.47466 
L 266.019257 207.114858 
L 266.768995 195.760762 
L 267.518733 182.169451 
L 269.018209 147.280165 
L 271.267423 87.440668 
L 272.017161 75.47599 
L 272.766899 73.726771 
L 273.516637 82.335735 
L 274.266375 99.142782 
L 277.265327 179.992222 
L 278.015065 195.175547 
L 278.764803 207.769888 
L 279.514541 218.260416 
L 280.264279 226.789318 
L 281.014017 233.903449 
L 281.763755 239.8235 
L 282.513493 244.772825 
L 283.263231 248.96857 
L 284.762707 255.503563 
L 286.262183 260.339303 
L 287.761659 263.982048 
L 289.261135 266.768359 
L 290.760611 268.944085 
L 292.260087 270.661752 
L 293.759563 272.064634 
L 295.259039 273.221597 
L 297.508253 274.612399 
L 299.757467 275.700772 
L 302.006681 276.566049 
L 305.005633 277.451065 
L 308.754323 278.279112 
L 313.252751 279.007667 
L 318.500917 279.62302 
L 325.248559 280.168837 
L 334.245415 280.66169 
L 346.990961 281.095087 
L 364.984673 281.452343 
L 391.225503 281.731143 
L 395.72393 281.76358 
L 395.72393 281.76358 
" style="fill:none;stroke:#e377c2;stroke-linecap:square;stroke-width:1.5;"/>
   </g>
   <g id="patch_9">
    <path d="M 239.066176 294.118125 
L 239.066176 22.318125 
" style="fill:none;stroke:#000000;stroke-linecap:square;stroke-linejoin:miter;stroke-width:0.8;"/>
   </g>
   <g id="patch_10">
    <path d="M 403.183824 294.118125 
L 403.183824 22.318125 
" style="fill:none;stroke:#000000;stroke-linecap:square;stroke-linejoin:miter;stroke-width:0.8;"/>
   </g>
   <g id="patch_11">
    <path d="M 239.066176 294.118125 
L 403.183824 294.118125 
" style="fill:none;stroke:#000000;stroke-linecap:square;stroke-linejoin:miter;stroke-width:0.8;"/>
   </g>
   <g id="patch_12">
    <path d="M 239.066176 22.318125 
L 403.183824 22.318125 
" style="fill:none;stroke:#000000;stroke-linecap:square;stroke-linejoin:miter;stroke-width:0.8;"/>
   </g>
   <g id="text_34">
    <!-- Extinction -->
    <g transform="translate(291.169062 16.318125)scale(0.12 -0.12)">
     <defs>
      <path d="M 9.8125 72.90625 
L 55.90625 72.90625 
L 55.90625 64.59375 
L 19.671875 64.59375 
L 19.671875 43.015625 
L 54.390625 43.015625 
L 54.390625 34.71875 
L 19.671875 34.71875 
L 19.671875 8.296875 
L 56.78125 8.296875 
L 56.78125 0 
L 9.8125 0 
z
" id="DejaVuSans-69"/>
      <path d="M 54.890625 54.6875 
L 35.109375 28.078125 
L 55.90625 0 
L 45.3125 0 
L 29.390625 21.484375 
L 13.484375 0 
L 2.875 0 
L 24.125 28.609375 
L 4.6875 54.6875 
L 15.28125 54.6875 
L 29.78125 35.203125 
L 44.28125 54.6875 
z
" id="DejaVuSans-120"/>
     </defs>
     <use xlink:href="#DejaVuSans-69"/>
     <use x="63.183594" xlink:href="#DejaVuSans-120"/>
     <use x="122.363281" xlink:href="#DejaVuSans-116"/>
     <use x="161.572266" xlink:href="#DejaVuSans-105"/>
     <use x="189.355469" xlink:href="#DejaVuSans-110"/>
     <use x="252.734375" xlink:href="#DejaVuSans-99"/>
     <use x="307.714844" xlink:href="#DejaVuSans-116"/>
     <use x="346.923828" xlink:href="#DejaVuSans-105"/>
     <use x="374.707031" xlink:href="#DejaVuSans-111"/>
     <use x="435.888672" xlink:href="#DejaVuSans-110"/>
    </g>
   </g>
  </g>
  <g id="axes_3">
   <g id="patch_13">
    <path d="M 436.007353 294.118125 
L 600.125 294.118125 
L 600.125 22.318125 
L 436.007353 22.318125 
z
" style="fill:#ffffff;"/>
   </g>
   <g id="matplotlib.axis_5">
    <g id="xtick_9">
     <g id="line2d_51">
      <g>
       <use style="stroke:#000000;stroke-width:0.8;" x="462.116979" xlink:href="#m9d7b410827" y="294.118125"/>
      </g>
     </g>
     <g id="text_35">
      <!-- 0.6 -->
      <g transform="translate(454.165416 308.716563)scale(0.1 -0.1)">
       <use xlink:href="#DejaVuSans-48"/>
       <use x="63.623047" xlink:href="#DejaVuSans-46"/>
       <use x="95.410156" xlink:href="#DejaVuSans-54"/>
      </g>
     </g>
    </g>
    <g id="xtick_10">
     <g id="line2d_52">
      <g>
       <use style="stroke:#000000;stroke-width:0.8;" x="499.416444" xlink:href="#m9d7b410827" y="294.118125"/>
      </g>
     </g>
     <g id="text_36">
      <!-- 0.8 -->
      <g transform="translate(491.464881 308.716563)scale(0.1 -0.1)">
       <use xlink:href="#DejaVuSans-48"/>
       <use x="63.623047" xlink:href="#DejaVuSans-46"/>
       <use x="95.410156" xlink:href="#DejaVuSans-56"/>
      </g>
     </g>
    </g>
    <g id="xtick_11">
     <g id="line2d_53">
      <g>
       <use style="stroke:#000000;stroke-width:0.8;" x="536.715909" xlink:href="#m9d7b410827" y="294.118125"/>
      </g>
     </g>
     <g id="text_37">
      <!-- 1.0 -->
      <g transform="translate(528.764347 308.716563)scale(0.1 -0.1)">
       <use xlink:href="#DejaVuSans-49"/>
       <use x="63.623047" xlink:href="#DejaVuSans-46"/>
       <use x="95.410156" xlink:href="#DejaVuSans-48"/>
      </g>
     </g>
    </g>
    <g id="xtick_12">
     <g id="line2d_54">
      <g>
       <use style="stroke:#000000;stroke-width:0.8;" x="574.015374" xlink:href="#m9d7b410827" y="294.118125"/>
      </g>
     </g>
     <g id="text_38">
      <!-- 1.2 -->
      <g transform="translate(566.063812 308.716563)scale(0.1 -0.1)">
       <use xlink:href="#DejaVuSans-49"/>
       <use x="63.623047" xlink:href="#DejaVuSans-46"/>
       <use x="95.410156" xlink:href="#DejaVuSans-50"/>
      </g>
     </g>
    </g>
    <g id="text_39">
     <!-- Wavelength [µm] -->
     <g transform="translate(474.861489 322.394687)scale(0.1 -0.1)">
      <use xlink:href="#DejaVuSans-87"/>
      <use x="92.501953" xlink:href="#DejaVuSans-97"/>
      <use x="153.78125" xlink:href="#DejaVuSans-118"/>
      <use x="212.960938" xlink:href="#DejaVuSans-101"/>
      <use x="274.484375" xlink:href="#DejaVuSans-108"/>
      <use x="302.267578" xlink:href="#DejaVuSans-101"/>
      <use x="363.791016" xlink:href="#DejaVuSans-110"/>
      <use x="427.169922" xlink:href="#DejaVuSans-103"/>
      <use x="490.646484" xlink:href="#DejaVuSans-116"/>
      <use x="529.855469" xlink:href="#DejaVuSans-104"/>
      <use x="593.234375" xlink:href="#DejaVuSans-32"/>
      <use x="625.021484" xlink:href="#DejaVuSans-91"/>
      <use x="664.035156" xlink:href="#DejaVuSans-181"/>
      <use x="727.658203" xlink:href="#DejaVuSans-109"/>
      <use x="825.070312" xlink:href="#DejaVuSans-93"/>
     </g>
    </g>
   </g>
   <g id="matplotlib.axis_6">
    <g id="ytick_15">
     <g id="line2d_55">
      <g>
       <use style="stroke:#000000;stroke-width:0.8;" x="436.007353" xlink:href="#m6c5a609921" y="282.269935"/>
      </g>
     </g>
     <g id="text_40">
      <!-- 0 -->
      <g transform="translate(422.644853 286.069153)scale(0.1 -0.1)">
       <use xlink:href="#DejaVuSans-48"/>
      </g>
     </g>
    </g>
    <g id="ytick_16">
     <g id="line2d_56">
      <g>
       <use style="stroke:#000000;stroke-width:0.8;" x="436.007353" xlink:href="#m6c5a609921" y="238.685149"/>
      </g>
     </g>
     <g id="text_41">
      <!-- 5 -->
      <g transform="translate(422.644853 242.484368)scale(0.1 -0.1)">
       <use xlink:href="#DejaVuSans-53"/>
      </g>
     </g>
    </g>
    <g id="ytick_17">
     <g id="line2d_57">
      <g>
       <use style="stroke:#000000;stroke-width:0.8;" x="436.007353" xlink:href="#m6c5a609921" y="195.100363"/>
      </g>
     </g>
     <g id="text_42">
      <!-- 10 -->
      <g transform="translate(416.282353 198.899582)scale(0.1 -0.1)">
       <use xlink:href="#DejaVuSans-49"/>
       <use x="63.623047" xlink:href="#DejaVuSans-48"/>
      </g>
     </g>
    </g>
    <g id="ytick_18">
     <g id="line2d_58">
      <g>
       <use style="stroke:#000000;stroke-width:0.8;" x="436.007353" xlink:href="#m6c5a609921" y="151.515578"/>
      </g>
     </g>
     <g id="text_43">
      <!-- 15 -->
      <g transform="translate(416.282353 155.314796)scale(0.1 -0.1)">
       <use xlink:href="#DejaVuSans-49"/>
       <use x="63.623047" xlink:href="#DejaVuSans-53"/>
      </g>
     </g>
    </g>
    <g id="ytick_19">
     <g id="line2d_59">
      <g>
       <use style="stroke:#000000;stroke-width:0.8;" x="436.007353" xlink:href="#m6c5a609921" y="107.930792"/>
      </g>
     </g>
     <g id="text_44">
      <!-- 20 -->
      <g transform="translate(416.282353 111.730011)scale(0.1 -0.1)">
       <use xlink:href="#DejaVuSans-50"/>
       <use x="63.623047" xlink:href="#DejaVuSans-48"/>
      </g>
     </g>
    </g>
    <g id="ytick_20">
     <g id="line2d_60">
      <g>
       <use style="stroke:#000000;stroke-width:0.8;" x="436.007353" xlink:href="#m6c5a609921" y="64.346006"/>
      </g>
     </g>
     <g id="text_45">
      <!-- 25 -->
      <g transform="translate(416.282353 68.145225)scale(0.1 -0.1)">
       <use xlink:href="#DejaVuSans-50"/>
       <use x="63.623047" xlink:href="#DejaVuSans-53"/>
      </g>
     </g>
    </g>
   </g>
   <g id="line2d_61">
    <path clip-path="url(#p1f62744144)" d="M 443.467246 277.759629 
L 448.715412 278.905694 
L 453.21384 279.581084 
L 456.96253 279.943928 
L 461.460958 280.196011 
L 468.2086 280.288002 
L 474.206504 280.151673 
L 480.204408 279.813091 
L 485.452574 279.313225 
L 489.951002 278.682779 
L 492.949954 278.059154 
L 495.199168 277.402633 
L 497.448382 276.479723 
L 499.697596 275.187615 
L 501.197072 274.27482 
L 501.94681 273.917792 
L 502.696548 273.685257 
L 504.196024 273.569121 
L 506.445238 273.587153 
L 507.944714 273.385726 
L 509.44419 272.96869 
L 510.943666 272.355431 
L 512.443142 271.561759 
L 514.692355 270.049209 
L 516.191831 268.815438 
L 517.691307 267.366605 
L 519.190783 265.675479 
L 520.690259 263.687244 
L 522.189735 261.335208 
L 523.689211 258.528069 
L 525.188687 255.169812 
L 526.688163 251.064028 
L 528.187639 246.218819 
L 529.687115 240.311351 
L 531.186591 233.063175 
L 532.686067 224.184086 
L 534.185543 213.188701 
L 535.685019 199.59974 
L 537.184495 183.093423 
L 538.683971 163.222039 
L 540.933185 128.499439 
L 542.432661 105.377861 
L 543.182399 95.227467 
L 543.932137 86.906229 
L 544.681875 80.992203 
L 545.431613 77.857018 
L 546.181351 77.762131 
L 546.931089 80.750858 
L 547.680827 86.492458 
L 548.430565 94.441739 
L 549.930041 114.730107 
L 552.928993 158.654227 
L 554.428469 177.626495 
L 555.927945 193.680726 
L 557.427421 206.891292 
L 558.926897 217.682344 
L 560.426373 226.550999 
L 561.925849 233.944117 
L 563.425325 239.990914 
L 564.924801 244.980596 
L 566.424277 249.163404 
L 567.923753 252.734148 
L 569.423229 255.772259 
L 570.922705 258.346896 
L 572.422181 260.580561 
L 573.921657 262.522971 
L 576.170871 264.962201 
L 578.420085 266.977927 
L 580.669299 268.661538 
L 582.918513 270.081432 
L 585.917465 271.652324 
L 588.916417 272.923866 
L 591.915369 273.980867 
L 592.665107 274.21792 
L 592.665107 274.21792 
" style="fill:none;stroke:#1f77b4;stroke-linecap:square;stroke-width:1.5;"/>
   </g>
   <g id="line2d_62">
    <path clip-path="url(#p1f62744144)" d="M 443.467246 275.097777 
L 447.965674 276.482953 
L 450.964626 277.194955 
L 453.963578 277.714853 
L 457.712268 278.099701 
L 462.210696 278.236743 
L 465.959386 278.102135 
L 468.958338 277.810591 
L 471.95729 277.307383 
L 474.206504 276.712353 
L 475.70598 276.137426 
L 477.205456 275.340137 
L 478.704932 274.210654 
L 481.703884 271.442289 
L 482.453622 271.2055 
L 483.20336 271.259912 
L 484.702836 271.641446 
L 485.452574 271.724685 
L 486.202312 271.679412 
L 487.701788 271.23427 
L 489.201264 270.398299 
L 490.70074 269.203354 
L 492.200216 267.659183 
L 493.699692 265.723323 
L 495.199168 263.292694 
L 496.698644 260.281895 
L 498.19812 256.482665 
L 499.697596 251.674838 
L 501.197072 245.568271 
L 502.696548 237.624201 
L 503.446286 232.806231 
L 504.945762 220.902548 
L 505.6955 213.578856 
L 506.445238 205.109297 
L 507.194976 195.313294 
L 508.694452 171.123237 
L 510.193928 139.77418 
L 513.19288 66.223305 
L 513.942617 52.598063 
L 514.692355 44.364477 
L 515.442093 42.461776 
L 516.191831 47.121959 
L 516.941569 57.549705 
L 517.691307 72.181123 
L 521.439997 155.92102 
L 522.939473 181.384342 
L 524.438949 201.129639 
L 525.938425 216.300212 
L 527.437901 227.827466 
L 528.937377 236.49047 
L 530.436853 243.388635 
L 531.936329 248.820274 
L 533.435805 253.202721 
L 534.935281 256.786642 
L 536.434757 259.744467 
L 537.934233 262.205794 
L 539.433709 264.309276 
L 540.933185 266.080768 
L 542.432661 267.594905 
L 544.681875 269.482044 
L 546.931089 271.023532 
L 549.180303 272.292405 
L 552.179255 273.664725 
L 555.178207 274.767419 
L 558.926897 275.856963 
L 563.425325 276.87194 
L 567.923753 277.65114 
L 573.921657 278.447595 
L 581.419037 279.172745 
L 590.415893 279.794135 
L 592.665107 279.918909 
L 592.665107 279.918909 
" style="fill:none;stroke:#ff7f0e;stroke-linecap:square;stroke-width:1.5;"/>
   </g>
   <g id="line2d_63">
    <path clip-path="url(#p1f62744144)" d="M 443.467246 272.144069 
L 447.215936 273.523239 
L 450.214888 274.397503 
L 453.21384 274.9447 
L 455.463054 275.179146 
L 457.712268 275.239203 
L 460.71122 274.999378 
L 462.210696 274.737481 
L 463.710172 274.339718 
L 465.209648 273.747858 
L 466.709124 272.865695 
L 468.2086 271.573358 
L 470.457814 269.171339 
L 471.207552 268.702627 
L 471.95729 268.570828 
L 474.206504 268.800357 
L 474.956242 268.654135 
L 475.70598 268.333635 
L 476.455718 267.859051 
L 477.955194 266.445054 
L 479.45467 264.432262 
L 480.954146 261.753608 
L 482.453622 258.218676 
L 483.953098 253.544676 
L 484.702836 250.653235 
L 486.202312 243.445834 
L 486.95205 238.950669 
L 487.701788 233.676996 
L 488.451526 227.566089 
L 489.201264 220.344664 
L 489.951002 211.747973 
L 490.70074 201.497169 
L 491.450478 189.303527 
L 492.200216 174.982387 
L 492.949954 158.156894 
L 494.44943 116.878708 
L 495.948906 70.876017 
L 496.698644 51.442138 
L 497.448382 38.484179 
L 498.19812 34.67267 
L 498.947858 40.809992 
L 499.697596 55.232561 
L 501.197072 96.854268 
L 502.696548 139.265332 
L 504.196024 173.154416 
L 504.945762 186.621161 
L 506.445238 207.849887 
L 507.944714 223.31628 
L 509.44419 234.647157 
L 510.943666 243.172953 
L 512.443142 249.660561 
L 513.942617 254.6533 
L 515.442093 258.511479 
L 516.941569 261.619018 
L 518.441045 264.129638 
L 519.940521 266.1939 
L 521.439997 267.921708 
L 522.939473 269.382873 
L 525.188687 271.192544 
L 527.437901 272.641719 
L 529.687115 273.780465 
L 531.936329 274.723595 
L 534.935281 275.741668 
L 538.683971 276.73867 
L 542.432661 277.51668 
L 546.931089 278.238681 
L 552.928993 278.959825 
L 560.426373 279.606996 
L 569.423229 280.151821 
L 581.419037 280.642422 
L 592.665107 280.958022 
L 592.665107 280.958022 
" style="fill:none;stroke:#2ca02c;stroke-linecap:square;stroke-width:1.5;"/>
   </g>
   <g id="line2d_64">
    <path clip-path="url(#p1f62744144)" d="M 443.467246 268.898654 
L 446.466198 270.06475 
L 449.46515 270.906426 
L 450.964626 271.185622 
L 453.21384 271.359972 
L 454.713316 271.316065 
L 456.212792 271.120681 
L 457.712268 270.707424 
L 459.211744 270.023328 
L 460.71122 269.011626 
L 462.210696 267.607873 
L 463.710172 266.06861 
L 464.45991 265.485436 
L 465.209648 265.139757 
L 467.458862 264.493557 
L 468.2086 264.023384 
L 468.958338 263.361551 
L 469.708076 262.449466 
L 470.457814 261.319881 
L 471.207552 259.955715 
L 471.95729 258.346035 
L 472.707028 256.467602 
L 473.456766 254.224937 
L 474.206504 251.601429 
L 474.956242 248.52528 
L 475.70598 244.908986 
L 476.455718 240.635449 
L 477.205456 235.587132 
L 477.955194 229.566487 
L 478.704932 222.345584 
L 479.45467 213.649979 
L 480.204408 203.127564 
L 480.954146 190.5701 
L 481.703884 175.326743 
L 482.453622 157.195375 
L 483.953098 112.519609 
L 485.452574 65.708877 
L 486.202312 49.404713 
L 486.95205 42.707528 
L 487.701788 47.299479 
L 488.451526 61.681092 
L 489.951002 105.992452 
L 491.450478 150.533899 
L 492.949954 184.690082 
L 493.699692 197.934925 
L 494.44943 209.021454 
L 495.199168 218.345126 
L 495.948906 226.025761 
L 496.698644 232.50604 
L 498.19812 242.662732 
L 498.947858 246.658423 
L 500.447334 252.948661 
L 501.94681 257.719308 
L 503.446286 261.402611 
L 504.945762 264.28958 
L 506.445238 266.590013 
L 507.944714 268.475108 
L 509.44419 270.026919 
L 510.943666 271.334232 
L 513.19288 272.927206 
L 515.442093 274.157255 
L 517.691307 275.147906 
L 520.690259 276.185258 
L 524.438949 277.185691 
L 528.187639 277.948727 
L 533.435805 278.728887 
L 539.433709 279.37459 
L 546.931089 279.948194 
L 556.677683 280.458487 
L 570.172967 280.915624 
L 588.916417 281.300958 
L 592.665107 281.357357 
L 592.665107 281.357357 
" style="fill:none;stroke:#d62728;stroke-linecap:square;stroke-width:1.5;"/>
   </g>
   <g id="line2d_65">
    <path clip-path="url(#p1f62744144)" d="M 443.467246 265.379257 
L 446.466198 266.38344 
L 448.715412 266.848589 
L 450.964626 266.91232 
L 452.464102 266.725797 
L 453.963578 266.264484 
L 455.463054 265.472201 
L 456.212792 264.955198 
L 457.712268 263.585204 
L 459.961482 261.264344 
L 462.960434 258.699703 
L 463.710172 257.74088 
L 464.45991 256.494712 
L 465.209648 254.971485 
L 465.959386 253.076209 
L 466.709124 250.811742 
L 467.458862 248.075647 
L 468.2086 244.783563 
L 468.958338 240.861697 
L 469.708076 236.12902 
L 470.457814 230.438078 
L 471.207552 223.596752 
L 471.95729 215.417554 
L 472.707028 205.500812 
L 473.456766 193.420521 
L 474.206504 178.772012 
L 474.956242 161.318864 
L 476.455718 118.439561 
L 477.955194 74.953795 
L 478.704932 60.962536 
L 479.45467 57.249893 
L 480.204408 64.969394 
L 480.954146 81.890919 
L 483.953098 170.149139 
L 484.702836 186.842513 
L 485.452574 200.816015 
L 486.202312 212.218688 
L 486.95205 221.625034 
L 487.701788 229.443961 
L 488.451526 235.820552 
L 489.201264 241.193876 
L 489.951002 245.728946 
L 491.450478 252.879845 
L 492.949954 258.124791 
L 494.44943 262.101883 
L 495.948906 265.171866 
L 497.448382 267.573802 
L 498.947858 269.499775 
L 500.447334 271.029948 
L 501.94681 272.291796 
L 503.446286 273.342049 
L 505.6955 274.606496 
L 507.944714 275.607034 
L 510.943666 276.65132 
L 513.942617 277.458923 
L 517.691307 278.215739 
L 522.189735 278.889608 
L 528.187639 279.547919 
L 535.685019 280.105119 
L 545.431613 280.593075 
L 558.926897 281.023309 
L 577.670347 281.380429 
L 592.665107 281.561749 
L 592.665107 281.561749 
" style="fill:none;stroke:#9467bd;stroke-linecap:square;stroke-width:1.5;"/>
   </g>
   <g id="line2d_66">
    <path clip-path="url(#p1f62744144)" d="M 443.467246 261.623018 
L 445.71646 262.101317 
L 447.215936 262.262304 
L 448.715412 262.240698 
L 450.214888 261.913724 
L 451.714364 261.219625 
L 452.464102 260.763966 
L 453.963578 259.493512 
L 456.212792 256.912167 
L 458.462006 253.886764 
L 459.211744 252.692159 
L 459.961482 251.272123 
L 460.71122 249.506682 
L 461.460958 247.389305 
L 462.210696 244.726442 
L 462.960434 241.537861 
L 463.710172 237.692737 
L 464.45991 233.043011 
L 465.209648 227.443096 
L 465.959386 220.68034 
L 466.709124 212.488026 
L 467.458862 202.459513 
L 468.2086 190.290472 
L 468.958338 175.573286 
L 470.457814 138.430233 
L 471.95729 97.131103 
L 472.707028 81.096224 
L 473.456766 73.329367 
L 474.206504 76.052682 
L 474.956242 88.823999 
L 476.455718 130.642538 
L 477.955194 171.903179 
L 478.704932 188.764257 
L 479.45467 202.855999 
L 480.204408 214.568526 
L 480.954146 224.037418 
L 481.703884 231.947145 
L 482.453622 238.460361 
L 483.20336 243.852183 
L 483.953098 248.383384 
L 485.452574 255.352032 
L 486.95205 260.359396 
L 488.451526 264.07441 
L 489.951002 266.901544 
L 491.450478 269.114121 
L 492.949954 270.863704 
L 494.44943 272.281777 
L 495.948906 273.444091 
L 498.19812 274.82323 
L 500.447334 275.87669 
L 502.696548 276.704515 
L 505.6955 277.555585 
L 509.44419 278.351993 
L 513.942617 279.056571 
L 519.940521 279.700222 
L 527.437901 280.252015 
L 537.934233 280.740727 
L 551.429517 281.133103 
L 571.672443 281.476041 
L 592.665107 281.683646 
L 592.665107 281.683646 
" style="fill:none;stroke:#8c564b;stroke-linecap:square;stroke-width:1.5;"/>
   </g>
   <g id="line2d_67">
    <path clip-path="url(#p1f62744144)" d="M 443.467246 257.685011 
L 444.966722 257.785857 
L 447.215936 257.465464 
L 448.715412 256.933477 
L 450.214888 255.94378 
L 451.714364 254.425995 
L 452.464102 253.514039 
L 453.963578 251.274859 
L 455.463054 248.545032 
L 456.212792 246.955845 
L 456.96253 245.028939 
L 457.712268 242.792394 
L 458.462006 240.021891 
L 459.211744 236.693004 
L 459.961482 232.664723 
L 460.71122 227.771019 
L 461.460958 221.869909 
L 462.210696 214.650007 
L 462.960434 205.948005 
L 463.710172 195.450825 
L 464.45991 182.930338 
L 465.959386 151.241646 
L 467.458862 114.38499 
L 468.2086 98.873197 
L 468.958338 89.538296 
L 469.708076 89.612664 
L 470.457814 99.194715 
L 471.207552 115.990788 
L 473.456766 175.557876 
L 474.206504 192.110459 
L 474.956242 205.991168 
L 475.70598 217.406834 
L 476.455718 226.870616 
L 477.205456 234.48832 
L 477.955194 240.818501 
L 478.704932 246.056415 
L 479.45467 250.410647 
L 480.204408 254.091444 
L 481.703884 259.767525 
L 483.20336 263.929929 
L 484.702836 267.04029 
L 486.202312 269.40347 
L 487.701788 271.238183 
L 489.201264 272.674222 
L 490.70074 273.839993 
L 492.200216 274.79707 
L 494.44943 275.942029 
L 496.698644 276.830134 
L 499.697596 277.730374 
L 503.446286 278.540293 
L 507.944714 279.228533 
L 513.942617 279.868101 
L 521.439997 280.387381 
L 531.186591 280.827584 
L 545.431613 281.216343 
L 566.424277 281.541223 
L 592.665107 281.76358 
L 592.665107 281.76358 
" style="fill:none;stroke:#e377c2;stroke-linecap:square;stroke-width:1.5;"/>
   </g>
   <g id="patch_14">
    <path d="M 436.007353 294.118125 
L 436.007353 22.318125 
" style="fill:none;stroke:#000000;stroke-linecap:square;stroke-linejoin:miter;stroke-width:0.8;"/>
   </g>
   <g id="patch_15">
    <path d="M 600.125 294.118125 
L 600.125 22.318125 
" style="fill:none;stroke:#000000;stroke-linecap:square;stroke-linejoin:miter;stroke-width:0.8;"/>
   </g>
   <g id="patch_16">
    <path d="M 436.007353 294.118125 
L 600.125 294.118125 
" style="fill:none;stroke:#000000;stroke-linecap:square;stroke-linejoin:miter;stroke-width:0.8;"/>
   </g>
   <g id="patch_17">
    <path d="M 436.007353 22.318125 
L 600.125 22.318125 
" style="fill:none;stroke:#000000;stroke-linecap:square;stroke-linejoin:miter;stroke-width:0.8;"/>
   </g>
   <g id="text_46">
    <!-- Absorption -->
    <g transform="translate(485.587426 16.318125)scale(0.12 -0.12)">
     <defs>
      <path d="M 34.1875 63.1875 
L 20.796875 26.90625 
L 47.609375 26.90625 
z
M 28.609375 72.90625 
L 39.796875 72.90625 
L 67.578125 0 
L 57.328125 0 
L 50.6875 18.703125 
L 17.828125 18.703125 
L 11.1875 0 
L 0.78125 0 
z
" id="DejaVuSans-65"/>
      <path d="M 48.6875 27.296875 
Q 48.6875 37.203125 44.609375 42.84375 
Q 40.53125 48.484375 33.40625 48.484375 
Q 26.265625 48.484375 22.1875 42.84375 
Q 18.109375 37.203125 18.109375 27.296875 
Q 18.109375 17.390625 22.1875 11.75 
Q 26.265625 6.109375 33.40625 6.109375 
Q 40.53125 6.109375 44.609375 11.75 
Q 48.6875 17.390625 48.6875 27.296875 
z
M 18.109375 46.390625 
Q 20.953125 51.265625 25.265625 53.625 
Q 29.59375 56 35.59375 56 
Q 45.5625 56 51.78125 48.09375 
Q 58.015625 40.1875 58.015625 27.296875 
Q 58.015625 14.40625 51.78125 6.484375 
Q 45.5625 -1.421875 35.59375 -1.421875 
Q 29.59375 -1.421875 25.265625 0.953125 
Q 20.953125 3.328125 18.109375 8.203125 
L 18.109375 0 
L 9.078125 0 
L 9.078125 75.984375 
L 18.109375 75.984375 
z
" id="DejaVuSans-98"/>
      <path d="M 18.109375 8.203125 
L 18.109375 -20.796875 
L 9.078125 -20.796875 
L 9.078125 54.6875 
L 18.109375 54.6875 
L 18.109375 46.390625 
Q 20.953125 51.265625 25.265625 53.625 
Q 29.59375 56 35.59375 56 
Q 45.5625 56 51.78125 48.09375 
Q 58.015625 40.1875 58.015625 27.296875 
Q 58.015625 14.40625 51.78125 6.484375 
Q 45.5625 -1.421875 35.59375 -1.421875 
Q 29.59375 -1.421875 25.265625 0.953125 
Q 20.953125 3.328125 18.109375 8.203125 
z
M 48.6875 27.296875 
Q 48.6875 37.203125 44.609375 42.84375 
Q 40.53125 48.484375 33.40625 48.484375 
Q 26.265625 48.484375 22.1875 42.84375 
Q 18.109375 37.203125 18.109375 27.296875 
Q 18.109375 17.390625 22.1875 11.75 
Q 26.265625 6.109375 33.40625 6.109375 
Q 40.53125 6.109375 44.609375 11.75 
Q 48.6875 17.390625 48.6875 27.296875 
z
" id="DejaVuSans-112"/>
     </defs>
     <use xlink:href="#DejaVuSans-65"/>
     <use x="68.408203" xlink:href="#DejaVuSans-98"/>
     <use x="131.884766" xlink:href="#DejaVuSans-115"/>
     <use x="183.984375" xlink:href="#DejaVuSans-111"/>
     <use x="245.166016" xlink:href="#DejaVuSans-114"/>
     <use x="286.279297" xlink:href="#DejaVuSans-112"/>
     <use x="349.755859" xlink:href="#DejaVuSans-116"/>
     <use x="388.964844" xlink:href="#DejaVuSans-105"/>
     <use x="416.748047" xlink:href="#DejaVuSans-111"/>
     <use x="477.929688" xlink:href="#DejaVuSans-110"/>
    </g>
   </g>
  </g>
 </g>
 <defs>
  <clipPath id="p376d3dbdf9">
   <rect height="271.8" width="164.117647" x="42.125" y="22.318125"/>
  </clipPath>
  <clipPath id="pc904ff5431">
   <rect height="271.8" width="164.117647" x="239.066176" y="22.318125"/>
  </clipPath>
  <clipPath id="p1f62744144">
   <rect height="271.8" width="164.117647" x="436.007353" y="22.318125"/>
  </clipPath>
 </defs>
</svg>
