<?xml version="1.0" encoding="utf-8" standalone="no"?>
<!DOCTYPE svg PUBLIC "-//W3C//DTD SVG 1.1//EN"
  "http://www.w3.org/Graphics/SVG/1.1/DTD/svg11.dtd">
<!-- Created with matplotlib (https://matplotlib.org/) -->
<svg height="262.318125pt" version="1.1" viewBox="0 0 394.1 262.318125" width="394.1pt" xmlns="http://www.w3.org/2000/svg" xmlns:xlink="http://www.w3.org/1999/xlink">
 <defs>
  <style type="text/css">
*{stroke-linecap:butt;stroke-linejoin:round;}
  </style>
 </defs>
 <g id="figure_1">
  <g id="patch_1">
   <path d="M -0 262.318125 
L 394.1 262.318125 
L 394.1 0 
L -0 0 
z
" style="fill:none;"/>
  </g>
  <g id="axes_1">
   <g id="patch_2">
    <path d="M 52.1 224.64 
L 386.9 224.64 
L 386.9 7.2 
L 52.1 7.2 
z
" style="fill:#ffffff;"/>
   </g>
   <g id="matplotlib.axis_1">
    <g id="xtick_1">
     <g id="line2d_1">
      <defs>
       <path d="M 0 0 
L 0 3.5 
" id="m7b7bc74f4a" style="stroke:#000000;stroke-width:0.8;"/>
      </defs>
      <g>
       <use style="stroke:#000000;stroke-width:0.8;" x="65.608274" xlink:href="#m7b7bc74f4a" y="224.64"/>
      </g>
     </g>
     <g id="text_1">
      <!-- −90 -->
      <defs>
       <path d="M 10.59375 35.5 
L 73.1875 35.5 
L 73.1875 27.203125 
L 10.59375 27.203125 
z
" id="DejaVuSans-8722"/>
       <path d="M 10.984375 1.515625 
L 10.984375 10.5 
Q 14.703125 8.734375 18.5 7.8125 
Q 22.3125 6.890625 25.984375 6.890625 
Q 35.75 6.890625 40.890625 13.453125 
Q 46.046875 20.015625 46.78125 33.40625 
Q 43.953125 29.203125 39.59375 26.953125 
Q 35.25 24.703125 29.984375 24.703125 
Q 19.046875 24.703125 12.671875 31.3125 
Q 6.296875 37.9375 6.296875 49.421875 
Q 6.296875 60.640625 12.9375 67.421875 
Q 19.578125 74.21875 30.609375 74.21875 
Q 43.265625 74.21875 49.921875 64.515625 
Q 56.59375 54.828125 56.59375 36.375 
Q 56.59375 19.140625 48.40625 8.859375 
Q 40.234375 -1.421875 26.421875 -1.421875 
Q 22.703125 -1.421875 18.890625 -0.6875 
Q 15.09375 0.046875 10.984375 1.515625 
z
M 30.609375 32.421875 
Q 37.25 32.421875 41.125 36.953125 
Q 45.015625 41.5 45.015625 49.421875 
Q 45.015625 57.28125 41.125 61.84375 
Q 37.25 66.40625 30.609375 66.40625 
Q 23.96875 66.40625 20.09375 61.84375 
Q 16.21875 57.28125 16.21875 49.421875 
Q 16.21875 41.5 20.09375 36.953125 
Q 23.96875 32.421875 30.609375 32.421875 
z
" id="DejaVuSans-57"/>
       <path d="M 31.78125 66.40625 
Q 24.171875 66.40625 20.328125 58.90625 
Q 16.5 51.421875 16.5 36.375 
Q 16.5 21.390625 20.328125 13.890625 
Q 24.171875 6.390625 31.78125 6.390625 
Q 39.453125 6.390625 43.28125 13.890625 
Q 47.125 21.390625 47.125 36.375 
Q 47.125 51.421875 43.28125 58.90625 
Q 39.453125 66.40625 31.78125 66.40625 
z
M 31.78125 74.21875 
Q 44.046875 74.21875 50.515625 64.515625 
Q 56.984375 54.828125 56.984375 36.375 
Q 56.984375 17.96875 50.515625 8.265625 
Q 44.046875 -1.421875 31.78125 -1.421875 
Q 19.53125 -1.421875 13.0625 8.265625 
Q 6.59375 17.96875 6.59375 36.375 
Q 6.59375 54.828125 13.0625 64.515625 
Q 19.53125 74.21875 31.78125 74.21875 
z
" id="DejaVuSans-48"/>
      </defs>
      <g transform="translate(55.05593 239.238438)scale(0.1 -0.1)">
       <use xlink:href="#DejaVuSans-8722"/>
       <use x="83.789062" xlink:href="#DejaVuSans-57"/>
       <use x="147.412109" xlink:href="#DejaVuSans-48"/>
      </g>
     </g>
    </g>
    <g id="xtick_2">
     <g id="line2d_2">
      <g>
       <use style="stroke:#000000;stroke-width:0.8;" x="116.905516" xlink:href="#m7b7bc74f4a" y="224.64"/>
      </g>
     </g>
     <g id="text_2">
      <!-- −60 -->
      <defs>
       <path d="M 33.015625 40.375 
Q 26.375 40.375 22.484375 35.828125 
Q 18.609375 31.296875 18.609375 23.390625 
Q 18.609375 15.53125 22.484375 10.953125 
Q 26.375 6.390625 33.015625 6.390625 
Q 39.65625 6.390625 43.53125 10.953125 
Q 47.40625 15.53125 47.40625 23.390625 
Q 47.40625 31.296875 43.53125 35.828125 
Q 39.65625 40.375 33.015625 40.375 
z
M 52.59375 71.296875 
L 52.59375 62.3125 
Q 48.875 64.0625 45.09375 64.984375 
Q 41.3125 65.921875 37.59375 65.921875 
Q 27.828125 65.921875 22.671875 59.328125 
Q 17.53125 52.734375 16.796875 39.40625 
Q 19.671875 43.65625 24.015625 45.921875 
Q 28.375 48.1875 33.59375 48.1875 
Q 44.578125 48.1875 50.953125 41.515625 
Q 57.328125 34.859375 57.328125 23.390625 
Q 57.328125 12.15625 50.6875 5.359375 
Q 44.046875 -1.421875 33.015625 -1.421875 
Q 20.359375 -1.421875 13.671875 8.265625 
Q 6.984375 17.96875 6.984375 36.375 
Q 6.984375 53.65625 15.1875 63.9375 
Q 23.390625 74.21875 37.203125 74.21875 
Q 40.921875 74.21875 44.703125 73.484375 
Q 48.484375 72.75 52.59375 71.296875 
z
" id="DejaVuSans-54"/>
      </defs>
      <g transform="translate(106.353172 239.238438)scale(0.1 -0.1)">
       <use xlink:href="#DejaVuSans-8722"/>
       <use x="83.789062" xlink:href="#DejaVuSans-54"/>
       <use x="147.412109" xlink:href="#DejaVuSans-48"/>
      </g>
     </g>
    </g>
    <g id="xtick_3">
     <g id="line2d_3">
      <g>
       <use style="stroke:#000000;stroke-width:0.8;" x="168.202758" xlink:href="#m7b7bc74f4a" y="224.64"/>
      </g>
     </g>
     <g id="text_3">
      <!-- −30 -->
      <defs>
       <path d="M 40.578125 39.3125 
Q 47.65625 37.796875 51.625 33 
Q 55.609375 28.21875 55.609375 21.1875 
Q 55.609375 10.40625 48.1875 4.484375 
Q 40.765625 -1.421875 27.09375 -1.421875 
Q 22.515625 -1.421875 17.65625 -0.515625 
Q 12.796875 0.390625 7.625 2.203125 
L 7.625 11.71875 
Q 11.71875 9.328125 16.59375 8.109375 
Q 21.484375 6.890625 26.8125 6.890625 
Q 36.078125 6.890625 40.9375 10.546875 
Q 45.796875 14.203125 45.796875 21.1875 
Q 45.796875 27.640625 41.28125 31.265625 
Q 36.765625 34.90625 28.71875 34.90625 
L 20.21875 34.90625 
L 20.21875 43.015625 
L 29.109375 43.015625 
Q 36.375 43.015625 40.234375 45.921875 
Q 44.09375 48.828125 44.09375 54.296875 
Q 44.09375 59.90625 40.109375 62.90625 
Q 36.140625 65.921875 28.71875 65.921875 
Q 24.65625 65.921875 20.015625 65.03125 
Q 15.375 64.15625 9.8125 62.3125 
L 9.8125 71.09375 
Q 15.4375 72.65625 20.34375 73.4375 
Q 25.25 74.21875 29.59375 74.21875 
Q 40.828125 74.21875 47.359375 69.109375 
Q 53.90625 64.015625 53.90625 55.328125 
Q 53.90625 49.265625 50.4375 45.09375 
Q 46.96875 40.921875 40.578125 39.3125 
z
" id="DejaVuSans-51"/>
      </defs>
      <g transform="translate(157.650414 239.238438)scale(0.1 -0.1)">
       <use xlink:href="#DejaVuSans-8722"/>
       <use x="83.789062" xlink:href="#DejaVuSans-51"/>
       <use x="147.412109" xlink:href="#DejaVuSans-48"/>
      </g>
     </g>
    </g>
    <g id="xtick_4">
     <g id="line2d_4">
      <g>
       <use style="stroke:#000000;stroke-width:0.8;" x="219.5" xlink:href="#m7b7bc74f4a" y="224.64"/>
      </g>
     </g>
     <g id="text_4">
      <!-- 0 -->
      <g transform="translate(216.31875 239.238438)scale(0.1 -0.1)">
       <use xlink:href="#DejaVuSans-48"/>
      </g>
     </g>
    </g>
    <g id="xtick_5">
     <g id="line2d_5">
      <g>
       <use style="stroke:#000000;stroke-width:0.8;" x="270.797242" xlink:href="#m7b7bc74f4a" y="224.64"/>
      </g>
     </g>
     <g id="text_5">
      <!-- 30 -->
      <g transform="translate(264.434742 239.238438)scale(0.1 -0.1)">
       <use xlink:href="#DejaVuSans-51"/>
       <use x="63.623047" xlink:href="#DejaVuSans-48"/>
      </g>
     </g>
    </g>
    <g id="xtick_6">
     <g id="line2d_6">
      <g>
       <use style="stroke:#000000;stroke-width:0.8;" x="322.094484" xlink:href="#m7b7bc74f4a" y="224.64"/>
      </g>
     </g>
     <g id="text_6">
      <!-- 60 -->
      <g transform="translate(315.731984 239.238438)scale(0.1 -0.1)">
       <use xlink:href="#DejaVuSans-54"/>
       <use x="63.623047" xlink:href="#DejaVuSans-48"/>
      </g>
     </g>
    </g>
    <g id="xtick_7">
     <g id="line2d_7">
      <g>
       <use style="stroke:#000000;stroke-width:0.8;" x="373.391726" xlink:href="#m7b7bc74f4a" y="224.64"/>
      </g>
     </g>
     <g id="text_7">
      <!-- 90 -->
      <g transform="translate(367.029226 239.238438)scale(0.1 -0.1)">
       <use xlink:href="#DejaVuSans-57"/>
       <use x="63.623047" xlink:href="#DejaVuSans-48"/>
      </g>
     </g>
    </g>
    <g id="text_8">
     <!-- $\theta_\mathrm{r}$ (degrees) -->
     <defs>
      <path d="M 45.515625 34.671875 
L 14.453125 34.671875 
Q 12.359375 20.0625 14.5 13.875 
Q 17.1875 6.25 24.46875 6.25 
Q 31.78125 6.25 37.359375 13.921875 
Q 42.234375 20.65625 45.515625 34.671875 
z
M 47.015625 42.96875 
Q 48.34375 56.84375 46.625 61.71875 
Q 43.953125 69.4375 36.765625 69.4375 
Q 29.296875 69.4375 23.828125 61.8125 
Q 19.53125 55.671875 16.15625 42.96875 
z
M 38.1875 76.765625 
Q 49.90625 76.765625 54.59375 66.40625 
Q 59.28125 56.109375 55.71875 37.84375 
Q 52.203125 19.625 43.453125 9.28125 
Q 34.765625 -1.125 23.046875 -1.125 
Q 11.28125 -1.125 6.640625 9.28125 
Q 2 19.625 5.515625 37.84375 
Q 9.078125 56.109375 17.71875 66.40625 
Q 26.421875 76.765625 38.1875 76.765625 
z
" id="DejaVuSans-Oblique-952"/>
      <path d="M 41.109375 46.296875 
Q 39.59375 47.171875 37.8125 47.578125 
Q 36.03125 48 33.890625 48 
Q 26.265625 48 22.1875 43.046875 
Q 18.109375 38.09375 18.109375 28.8125 
L 18.109375 0 
L 9.078125 0 
L 9.078125 54.6875 
L 18.109375 54.6875 
L 18.109375 46.1875 
Q 20.953125 51.171875 25.484375 53.578125 
Q 30.03125 56 36.53125 56 
Q 37.453125 56 38.578125 55.875 
Q 39.703125 55.765625 41.0625 55.515625 
z
" id="DejaVuSans-114"/>
      <path id="DejaVuSans-32"/>
      <path d="M 31 75.875 
Q 24.46875 64.65625 21.28125 53.65625 
Q 18.109375 42.671875 18.109375 31.390625 
Q 18.109375 20.125 21.3125 9.0625 
Q 24.515625 -2 31 -13.1875 
L 23.1875 -13.1875 
Q 15.875 -1.703125 12.234375 9.375 
Q 8.59375 20.453125 8.59375 31.390625 
Q 8.59375 42.28125 12.203125 53.3125 
Q 15.828125 64.359375 23.1875 75.875 
z
" id="DejaVuSans-40"/>
      <path d="M 45.40625 46.390625 
L 45.40625 75.984375 
L 54.390625 75.984375 
L 54.390625 0 
L 45.40625 0 
L 45.40625 8.203125 
Q 42.578125 3.328125 38.25 0.953125 
Q 33.9375 -1.421875 27.875 -1.421875 
Q 17.96875 -1.421875 11.734375 6.484375 
Q 5.515625 14.40625 5.515625 27.296875 
Q 5.515625 40.1875 11.734375 48.09375 
Q 17.96875 56 27.875 56 
Q 33.9375 56 38.25 53.625 
Q 42.578125 51.265625 45.40625 46.390625 
z
M 14.796875 27.296875 
Q 14.796875 17.390625 18.875 11.75 
Q 22.953125 6.109375 30.078125 6.109375 
Q 37.203125 6.109375 41.296875 11.75 
Q 45.40625 17.390625 45.40625 27.296875 
Q 45.40625 37.203125 41.296875 42.84375 
Q 37.203125 48.484375 30.078125 48.484375 
Q 22.953125 48.484375 18.875 42.84375 
Q 14.796875 37.203125 14.796875 27.296875 
z
" id="DejaVuSans-100"/>
      <path d="M 56.203125 29.59375 
L 56.203125 25.203125 
L 14.890625 25.203125 
Q 15.484375 15.921875 20.484375 11.0625 
Q 25.484375 6.203125 34.421875 6.203125 
Q 39.59375 6.203125 44.453125 7.46875 
Q 49.3125 8.734375 54.109375 11.28125 
L 54.109375 2.78125 
Q 49.265625 0.734375 44.1875 -0.34375 
Q 39.109375 -1.421875 33.890625 -1.421875 
Q 20.796875 -1.421875 13.15625 6.1875 
Q 5.515625 13.8125 5.515625 26.8125 
Q 5.515625 40.234375 12.765625 48.109375 
Q 20.015625 56 32.328125 56 
Q 43.359375 56 49.78125 48.890625 
Q 56.203125 41.796875 56.203125 29.59375 
z
M 47.21875 32.234375 
Q 47.125 39.59375 43.09375 43.984375 
Q 39.0625 48.390625 32.421875 48.390625 
Q 24.90625 48.390625 20.390625 44.140625 
Q 15.875 39.890625 15.1875 32.171875 
z
" id="DejaVuSans-101"/>
      <path d="M 45.40625 27.984375 
Q 45.40625 37.75 41.375 43.109375 
Q 37.359375 48.484375 30.078125 48.484375 
Q 22.859375 48.484375 18.828125 43.109375 
Q 14.796875 37.75 14.796875 27.984375 
Q 14.796875 18.265625 18.828125 12.890625 
Q 22.859375 7.515625 30.078125 7.515625 
Q 37.359375 7.515625 41.375 12.890625 
Q 45.40625 18.265625 45.40625 27.984375 
z
M 54.390625 6.78125 
Q 54.390625 -7.171875 48.1875 -13.984375 
Q 42 -20.796875 29.203125 -20.796875 
Q 24.46875 -20.796875 20.265625 -20.09375 
Q 16.0625 -19.390625 12.109375 -17.921875 
L 12.109375 -9.1875 
Q 16.0625 -11.328125 19.921875 -12.34375 
Q 23.78125 -13.375 27.78125 -13.375 
Q 36.625 -13.375 41.015625 -8.765625 
Q 45.40625 -4.15625 45.40625 5.171875 
L 45.40625 9.625 
Q 42.625 4.78125 38.28125 2.390625 
Q 33.9375 0 27.875 0 
Q 17.828125 0 11.671875 7.65625 
Q 5.515625 15.328125 5.515625 27.984375 
Q 5.515625 40.671875 11.671875 48.328125 
Q 17.828125 56 27.875 56 
Q 33.9375 56 38.28125 53.609375 
Q 42.625 51.21875 45.40625 46.390625 
L 45.40625 54.6875 
L 54.390625 54.6875 
z
" id="DejaVuSans-103"/>
      <path d="M 44.28125 53.078125 
L 44.28125 44.578125 
Q 40.484375 46.53125 36.375 47.5 
Q 32.28125 48.484375 27.875 48.484375 
Q 21.1875 48.484375 17.84375 46.4375 
Q 14.5 44.390625 14.5 40.28125 
Q 14.5 37.15625 16.890625 35.375 
Q 19.28125 33.59375 26.515625 31.984375 
L 29.59375 31.296875 
Q 39.15625 29.25 43.1875 25.515625 
Q 47.21875 21.78125 47.21875 15.09375 
Q 47.21875 7.46875 41.1875 3.015625 
Q 35.15625 -1.421875 24.609375 -1.421875 
Q 20.21875 -1.421875 15.453125 -0.5625 
Q 10.6875 0.296875 5.421875 2 
L 5.421875 11.28125 
Q 10.40625 8.6875 15.234375 7.390625 
Q 20.0625 6.109375 24.8125 6.109375 
Q 31.15625 6.109375 34.5625 8.28125 
Q 37.984375 10.453125 37.984375 14.40625 
Q 37.984375 18.0625 35.515625 20.015625 
Q 33.0625 21.96875 24.703125 23.78125 
L 21.578125 24.515625 
Q 13.234375 26.265625 9.515625 29.90625 
Q 5.8125 33.546875 5.8125 39.890625 
Q 5.8125 47.609375 11.28125 51.796875 
Q 16.75 56 26.8125 56 
Q 31.78125 56 36.171875 55.265625 
Q 40.578125 54.546875 44.28125 53.078125 
z
" id="DejaVuSans-115"/>
      <path d="M 8.015625 75.875 
L 15.828125 75.875 
Q 23.140625 64.359375 26.78125 53.3125 
Q 30.421875 42.28125 30.421875 31.390625 
Q 30.421875 20.453125 26.78125 9.375 
Q 23.140625 -1.703125 15.828125 -13.1875 
L 8.015625 -13.1875 
Q 14.5 -2 17.703125 9.0625 
Q 20.90625 20.125 20.90625 31.390625 
Q 20.90625 42.671875 17.703125 53.65625 
Q 14.5 64.65625 8.015625 75.875 
z
" id="DejaVuSans-41"/>
     </defs>
     <g transform="translate(189.1 253.018125)scale(0.1 -0.1)">
      <use transform="translate(0 0.234375)" xlink:href="#DejaVuSans-Oblique-952"/>
      <use transform="translate(61.181641 -16.171875)scale(0.7)" xlink:href="#DejaVuSans-114"/>
      <use transform="translate(92.695312 0.234375)" xlink:href="#DejaVuSans-32"/>
      <use transform="translate(124.482422 0.234375)" xlink:href="#DejaVuSans-40"/>
      <use transform="translate(163.496094 0.234375)" xlink:href="#DejaVuSans-100"/>
      <use transform="translate(226.972656 0.234375)" xlink:href="#DejaVuSans-101"/>
      <use transform="translate(288.496094 0.234375)" xlink:href="#DejaVuSans-103"/>
      <use transform="translate(351.972656 0.234375)" xlink:href="#DejaVuSans-114"/>
      <use transform="translate(393.085938 0.234375)" xlink:href="#DejaVuSans-101"/>
      <use transform="translate(454.609375 0.234375)" xlink:href="#DejaVuSans-101"/>
      <use transform="translate(516.132812 0.234375)" xlink:href="#DejaVuSans-115"/>
      <use transform="translate(568.232422 0.234375)" xlink:href="#DejaVuSans-41"/>
     </g>
    </g>
   </g>
   <g id="matplotlib.axis_2">
    <g id="ytick_1">
     <g id="line2d_8">
      <defs>
       <path d="M 0 0 
L -3.5 0 
" id="m2b9e7f351e" style="stroke:#000000;stroke-width:0.8;"/>
      </defs>
      <g>
       <use style="stroke:#000000;stroke-width:0.8;" x="52.1" xlink:href="#m2b9e7f351e" y="222.30304"/>
      </g>
     </g>
     <g id="text_9">
      <!-- $\mathdefault{10^{-8}}$ -->
      <defs>
       <path d="M 12.40625 8.296875 
L 28.515625 8.296875 
L 28.515625 63.921875 
L 10.984375 60.40625 
L 10.984375 69.390625 
L 28.421875 72.90625 
L 38.28125 72.90625 
L 38.28125 8.296875 
L 54.390625 8.296875 
L 54.390625 0 
L 12.40625 0 
z
" id="DejaVuSans-49"/>
       <path d="M 31.78125 34.625 
Q 24.75 34.625 20.71875 30.859375 
Q 16.703125 27.09375 16.703125 20.515625 
Q 16.703125 13.921875 20.71875 10.15625 
Q 24.75 6.390625 31.78125 6.390625 
Q 38.8125 6.390625 42.859375 10.171875 
Q 46.921875 13.96875 46.921875 20.515625 
Q 46.921875 27.09375 42.890625 30.859375 
Q 38.875 34.625 31.78125 34.625 
z
M 21.921875 38.8125 
Q 15.578125 40.375 12.03125 44.71875 
Q 8.5 49.078125 8.5 55.328125 
Q 8.5 64.0625 14.71875 69.140625 
Q 20.953125 74.21875 31.78125 74.21875 
Q 42.671875 74.21875 48.875 69.140625 
Q 55.078125 64.0625 55.078125 55.328125 
Q 55.078125 49.078125 51.53125 44.71875 
Q 48 40.375 41.703125 38.8125 
Q 48.828125 37.15625 52.796875 32.3125 
Q 56.78125 27.484375 56.78125 20.515625 
Q 56.78125 9.90625 50.3125 4.234375 
Q 43.84375 -1.421875 31.78125 -1.421875 
Q 19.734375 -1.421875 13.25 4.234375 
Q 6.78125 9.90625 6.78125 20.515625 
Q 6.78125 27.484375 10.78125 32.3125 
Q 14.796875 37.15625 21.921875 38.8125 
z
M 18.3125 54.390625 
Q 18.3125 48.734375 21.84375 45.5625 
Q 25.390625 42.390625 31.78125 42.390625 
Q 38.140625 42.390625 41.71875 45.5625 
Q 45.3125 48.734375 45.3125 54.390625 
Q 45.3125 60.0625 41.71875 63.234375 
Q 38.140625 66.40625 31.78125 66.40625 
Q 25.390625 66.40625 21.84375 63.234375 
Q 18.3125 60.0625 18.3125 54.390625 
z
" id="DejaVuSans-56"/>
      </defs>
      <g transform="translate(21.6 226.102259)scale(0.1 -0.1)">
       <use transform="translate(0 0.765625)" xlink:href="#DejaVuSans-49"/>
       <use transform="translate(63.623047 0.765625)" xlink:href="#DejaVuSans-48"/>
       <use transform="translate(128.203125 39.046875)scale(0.7)" xlink:href="#DejaVuSans-8722"/>
       <use transform="translate(186.855469 39.046875)scale(0.7)" xlink:href="#DejaVuSans-56"/>
      </g>
     </g>
    </g>
    <g id="ytick_2">
     <g id="line2d_9">
      <g>
       <use style="stroke:#000000;stroke-width:0.8;" x="52.1" xlink:href="#m2b9e7f351e" y="193.98707"/>
      </g>
     </g>
     <g id="text_10">
      <!-- $\mathdefault{10^{-7}}$ -->
      <defs>
       <path d="M 8.203125 72.90625 
L 55.078125 72.90625 
L 55.078125 68.703125 
L 28.609375 0 
L 18.3125 0 
L 43.21875 64.59375 
L 8.203125 64.59375 
z
" id="DejaVuSans-55"/>
      </defs>
      <g transform="translate(21.6 197.786289)scale(0.1 -0.1)">
       <use transform="translate(0 0.684375)" xlink:href="#DejaVuSans-49"/>
       <use transform="translate(63.623047 0.684375)" xlink:href="#DejaVuSans-48"/>
       <use transform="translate(128.203125 38.965625)scale(0.7)" xlink:href="#DejaVuSans-8722"/>
       <use transform="translate(186.855469 38.965625)scale(0.7)" xlink:href="#DejaVuSans-55"/>
      </g>
     </g>
    </g>
    <g id="ytick_3">
     <g id="line2d_10">
      <g>
       <use style="stroke:#000000;stroke-width:0.8;" x="52.1" xlink:href="#m2b9e7f351e" y="165.6711"/>
      </g>
     </g>
     <g id="text_11">
      <!-- $\mathdefault{10^{-6}}$ -->
      <g transform="translate(21.6 169.470319)scale(0.1 -0.1)">
       <use transform="translate(0 0.765625)" xlink:href="#DejaVuSans-49"/>
       <use transform="translate(63.623047 0.765625)" xlink:href="#DejaVuSans-48"/>
       <use transform="translate(128.203125 39.046875)scale(0.7)" xlink:href="#DejaVuSans-8722"/>
       <use transform="translate(186.855469 39.046875)scale(0.7)" xlink:href="#DejaVuSans-54"/>
      </g>
     </g>
    </g>
    <g id="ytick_4">
     <g id="line2d_11">
      <g>
       <use style="stroke:#000000;stroke-width:0.8;" x="52.1" xlink:href="#m2b9e7f351e" y="137.355131"/>
      </g>
     </g>
     <g id="text_12">
      <!-- $\mathdefault{10^{-5}}$ -->
      <defs>
       <path d="M 10.796875 72.90625 
L 49.515625 72.90625 
L 49.515625 64.59375 
L 19.828125 64.59375 
L 19.828125 46.734375 
Q 21.96875 47.46875 24.109375 47.828125 
Q 26.265625 48.1875 28.421875 48.1875 
Q 40.625 48.1875 47.75 41.5 
Q 54.890625 34.8125 54.890625 23.390625 
Q 54.890625 11.625 47.5625 5.09375 
Q 40.234375 -1.421875 26.90625 -1.421875 
Q 22.3125 -1.421875 17.546875 -0.640625 
Q 12.796875 0.140625 7.71875 1.703125 
L 7.71875 11.625 
Q 12.109375 9.234375 16.796875 8.0625 
Q 21.484375 6.890625 26.703125 6.890625 
Q 35.15625 6.890625 40.078125 11.328125 
Q 45.015625 15.765625 45.015625 23.390625 
Q 45.015625 31 40.078125 35.4375 
Q 35.15625 39.890625 26.703125 39.890625 
Q 22.75 39.890625 18.8125 39.015625 
Q 14.890625 38.140625 10.796875 36.28125 
z
" id="DejaVuSans-53"/>
      </defs>
      <g transform="translate(21.6 141.154349)scale(0.1 -0.1)">
       <use transform="translate(0 0.684375)" xlink:href="#DejaVuSans-49"/>
       <use transform="translate(63.623047 0.684375)" xlink:href="#DejaVuSans-48"/>
       <use transform="translate(128.203125 38.965625)scale(0.7)" xlink:href="#DejaVuSans-8722"/>
       <use transform="translate(186.855469 38.965625)scale(0.7)" xlink:href="#DejaVuSans-53"/>
      </g>
     </g>
    </g>
    <g id="ytick_5">
     <g id="line2d_12">
      <g>
       <use style="stroke:#000000;stroke-width:0.8;" x="52.1" xlink:href="#m2b9e7f351e" y="109.039161"/>
      </g>
     </g>
     <g id="text_13">
      <!-- $\mathdefault{10^{-4}}$ -->
      <defs>
       <path d="M 37.796875 64.3125 
L 12.890625 25.390625 
L 37.796875 25.390625 
z
M 35.203125 72.90625 
L 47.609375 72.90625 
L 47.609375 25.390625 
L 58.015625 25.390625 
L 58.015625 17.1875 
L 47.609375 17.1875 
L 47.609375 0 
L 37.796875 0 
L 37.796875 17.1875 
L 4.890625 17.1875 
L 4.890625 26.703125 
z
" id="DejaVuSans-52"/>
      </defs>
      <g transform="translate(21.6 112.838379)scale(0.1 -0.1)">
       <use transform="translate(0 0.684375)" xlink:href="#DejaVuSans-49"/>
       <use transform="translate(63.623047 0.684375)" xlink:href="#DejaVuSans-48"/>
       <use transform="translate(128.203125 38.965625)scale(0.7)" xlink:href="#DejaVuSans-8722"/>
       <use transform="translate(186.855469 38.965625)scale(0.7)" xlink:href="#DejaVuSans-52"/>
      </g>
     </g>
    </g>
    <g id="ytick_6">
     <g id="line2d_13">
      <g>
       <use style="stroke:#000000;stroke-width:0.8;" x="52.1" xlink:href="#m2b9e7f351e" y="80.723191"/>
      </g>
     </g>
     <g id="text_14">
      <!-- $\mathdefault{10^{-3}}$ -->
      <g transform="translate(21.6 84.522409)scale(0.1 -0.1)">
       <use transform="translate(0 0.765625)" xlink:href="#DejaVuSans-49"/>
       <use transform="translate(63.623047 0.765625)" xlink:href="#DejaVuSans-48"/>
       <use transform="translate(128.203125 39.046875)scale(0.7)" xlink:href="#DejaVuSans-8722"/>
       <use transform="translate(186.855469 39.046875)scale(0.7)" xlink:href="#DejaVuSans-51"/>
      </g>
     </g>
    </g>
    <g id="ytick_7">
     <g id="line2d_14">
      <g>
       <use style="stroke:#000000;stroke-width:0.8;" x="52.1" xlink:href="#m2b9e7f351e" y="52.407221"/>
      </g>
     </g>
     <g id="text_15">
      <!-- $\mathdefault{10^{-2}}$ -->
      <defs>
       <path d="M 19.1875 8.296875 
L 53.609375 8.296875 
L 53.609375 0 
L 7.328125 0 
L 7.328125 8.296875 
Q 12.9375 14.109375 22.625 23.890625 
Q 32.328125 33.6875 34.8125 36.53125 
Q 39.546875 41.84375 41.421875 45.53125 
Q 43.3125 49.21875 43.3125 52.78125 
Q 43.3125 58.59375 39.234375 62.25 
Q 35.15625 65.921875 28.609375 65.921875 
Q 23.96875 65.921875 18.8125 64.3125 
Q 13.671875 62.703125 7.8125 59.421875 
L 7.8125 69.390625 
Q 13.765625 71.78125 18.9375 73 
Q 24.125 74.21875 28.421875 74.21875 
Q 39.75 74.21875 46.484375 68.546875 
Q 53.21875 62.890625 53.21875 53.421875 
Q 53.21875 48.921875 51.53125 44.890625 
Q 49.859375 40.875 45.40625 35.40625 
Q 44.1875 33.984375 37.640625 27.21875 
Q 31.109375 20.453125 19.1875 8.296875 
z
" id="DejaVuSans-50"/>
      </defs>
      <g transform="translate(21.6 56.20644)scale(0.1 -0.1)">
       <use transform="translate(0 0.765625)" xlink:href="#DejaVuSans-49"/>
       <use transform="translate(63.623047 0.765625)" xlink:href="#DejaVuSans-48"/>
       <use transform="translate(128.203125 39.046875)scale(0.7)" xlink:href="#DejaVuSans-8722"/>
       <use transform="translate(186.855469 39.046875)scale(0.7)" xlink:href="#DejaVuSans-50"/>
      </g>
     </g>
    </g>
    <g id="ytick_8">
     <g id="line2d_15">
      <g>
       <use style="stroke:#000000;stroke-width:0.8;" x="52.1" xlink:href="#m2b9e7f351e" y="24.091251"/>
      </g>
     </g>
     <g id="text_16">
      <!-- $\mathdefault{10^{-1}}$ -->
      <g transform="translate(21.6 27.89047)scale(0.1 -0.1)">
       <use transform="translate(0 0.684375)" xlink:href="#DejaVuSans-49"/>
       <use transform="translate(63.623047 0.684375)" xlink:href="#DejaVuSans-48"/>
       <use transform="translate(128.203125 38.965625)scale(0.7)" xlink:href="#DejaVuSans-8722"/>
       <use transform="translate(186.855469 38.965625)scale(0.7)" xlink:href="#DejaVuSans-49"/>
      </g>
     </g>
    </g>
    <g id="ytick_9">
     <g id="line2d_16">
      <defs>
       <path d="M 0 0 
L -2 0 
" id="m7553c85725" style="stroke:#000000;stroke-width:0.6;"/>
      </defs>
      <g>
       <use style="stroke:#000000;stroke-width:0.6;" x="52.1" xlink:href="#m7553c85725" y="223.598708"/>
      </g>
     </g>
    </g>
    <g id="ytick_10">
     <g id="line2d_17">
      <g>
       <use style="stroke:#000000;stroke-width:0.6;" x="52.1" xlink:href="#m7553c85725" y="213.779084"/>
      </g>
     </g>
    </g>
    <g id="ytick_11">
     <g id="line2d_18">
      <g>
       <use style="stroke:#000000;stroke-width:0.6;" x="52.1" xlink:href="#m7553c85725" y="208.792889"/>
      </g>
     </g>
    </g>
    <g id="ytick_12">
     <g id="line2d_19">
      <g>
       <use style="stroke:#000000;stroke-width:0.6;" x="52.1" xlink:href="#m7553c85725" y="205.255128"/>
      </g>
     </g>
    </g>
    <g id="ytick_13">
     <g id="line2d_20">
      <g>
       <use style="stroke:#000000;stroke-width:0.6;" x="52.1" xlink:href="#m7553c85725" y="202.511027"/>
      </g>
     </g>
    </g>
    <g id="ytick_14">
     <g id="line2d_21">
      <g>
       <use style="stroke:#000000;stroke-width:0.6;" x="52.1" xlink:href="#m7553c85725" y="200.268933"/>
      </g>
     </g>
    </g>
    <g id="ytick_15">
     <g id="line2d_22">
      <g>
       <use style="stroke:#000000;stroke-width:0.6;" x="52.1" xlink:href="#m7553c85725" y="198.373269"/>
      </g>
     </g>
    </g>
    <g id="ytick_16">
     <g id="line2d_23">
      <g>
       <use style="stroke:#000000;stroke-width:0.6;" x="52.1" xlink:href="#m7553c85725" y="196.731171"/>
      </g>
     </g>
    </g>
    <g id="ytick_17">
     <g id="line2d_24">
      <g>
       <use style="stroke:#000000;stroke-width:0.6;" x="52.1" xlink:href="#m7553c85725" y="195.282738"/>
      </g>
     </g>
    </g>
    <g id="ytick_18">
     <g id="line2d_25">
      <g>
       <use style="stroke:#000000;stroke-width:0.6;" x="52.1" xlink:href="#m7553c85725" y="185.463114"/>
      </g>
     </g>
    </g>
    <g id="ytick_19">
     <g id="line2d_26">
      <g>
       <use style="stroke:#000000;stroke-width:0.6;" x="52.1" xlink:href="#m7553c85725" y="180.476919"/>
      </g>
     </g>
    </g>
    <g id="ytick_20">
     <g id="line2d_27">
      <g>
       <use style="stroke:#000000;stroke-width:0.6;" x="52.1" xlink:href="#m7553c85725" y="176.939158"/>
      </g>
     </g>
    </g>
    <g id="ytick_21">
     <g id="line2d_28">
      <g>
       <use style="stroke:#000000;stroke-width:0.6;" x="52.1" xlink:href="#m7553c85725" y="174.195057"/>
      </g>
     </g>
    </g>
    <g id="ytick_22">
     <g id="line2d_29">
      <g>
       <use style="stroke:#000000;stroke-width:0.6;" x="52.1" xlink:href="#m7553c85725" y="171.952963"/>
      </g>
     </g>
    </g>
    <g id="ytick_23">
     <g id="line2d_30">
      <g>
       <use style="stroke:#000000;stroke-width:0.6;" x="52.1" xlink:href="#m7553c85725" y="170.0573"/>
      </g>
     </g>
    </g>
    <g id="ytick_24">
     <g id="line2d_31">
      <g>
       <use style="stroke:#000000;stroke-width:0.6;" x="52.1" xlink:href="#m7553c85725" y="168.415201"/>
      </g>
     </g>
    </g>
    <g id="ytick_25">
     <g id="line2d_32">
      <g>
       <use style="stroke:#000000;stroke-width:0.6;" x="52.1" xlink:href="#m7553c85725" y="166.966768"/>
      </g>
     </g>
    </g>
    <g id="ytick_26">
     <g id="line2d_33">
      <g>
       <use style="stroke:#000000;stroke-width:0.6;" x="52.1" xlink:href="#m7553c85725" y="157.147144"/>
      </g>
     </g>
    </g>
    <g id="ytick_27">
     <g id="line2d_34">
      <g>
       <use style="stroke:#000000;stroke-width:0.6;" x="52.1" xlink:href="#m7553c85725" y="152.160949"/>
      </g>
     </g>
    </g>
    <g id="ytick_28">
     <g id="line2d_35">
      <g>
       <use style="stroke:#000000;stroke-width:0.6;" x="52.1" xlink:href="#m7553c85725" y="148.623188"/>
      </g>
     </g>
    </g>
    <g id="ytick_29">
     <g id="line2d_36">
      <g>
       <use style="stroke:#000000;stroke-width:0.6;" x="52.1" xlink:href="#m7553c85725" y="145.879087"/>
      </g>
     </g>
    </g>
    <g id="ytick_30">
     <g id="line2d_37">
      <g>
       <use style="stroke:#000000;stroke-width:0.6;" x="52.1" xlink:href="#m7553c85725" y="143.636993"/>
      </g>
     </g>
    </g>
    <g id="ytick_31">
     <g id="line2d_38">
      <g>
       <use style="stroke:#000000;stroke-width:0.6;" x="52.1" xlink:href="#m7553c85725" y="141.74133"/>
      </g>
     </g>
    </g>
    <g id="ytick_32">
     <g id="line2d_39">
      <g>
       <use style="stroke:#000000;stroke-width:0.6;" x="52.1" xlink:href="#m7553c85725" y="140.099232"/>
      </g>
     </g>
    </g>
    <g id="ytick_33">
     <g id="line2d_40">
      <g>
       <use style="stroke:#000000;stroke-width:0.6;" x="52.1" xlink:href="#m7553c85725" y="138.650798"/>
      </g>
     </g>
    </g>
    <g id="ytick_34">
     <g id="line2d_41">
      <g>
       <use style="stroke:#000000;stroke-width:0.6;" x="52.1" xlink:href="#m7553c85725" y="128.831174"/>
      </g>
     </g>
    </g>
    <g id="ytick_35">
     <g id="line2d_42">
      <g>
       <use style="stroke:#000000;stroke-width:0.6;" x="52.1" xlink:href="#m7553c85725" y="123.844979"/>
      </g>
     </g>
    </g>
    <g id="ytick_36">
     <g id="line2d_43">
      <g>
       <use style="stroke:#000000;stroke-width:0.6;" x="52.1" xlink:href="#m7553c85725" y="120.307218"/>
      </g>
     </g>
    </g>
    <g id="ytick_37">
     <g id="line2d_44">
      <g>
       <use style="stroke:#000000;stroke-width:0.6;" x="52.1" xlink:href="#m7553c85725" y="117.563117"/>
      </g>
     </g>
    </g>
    <g id="ytick_38">
     <g id="line2d_45">
      <g>
       <use style="stroke:#000000;stroke-width:0.6;" x="52.1" xlink:href="#m7553c85725" y="115.321023"/>
      </g>
     </g>
    </g>
    <g id="ytick_39">
     <g id="line2d_46">
      <g>
       <use style="stroke:#000000;stroke-width:0.6;" x="52.1" xlink:href="#m7553c85725" y="113.42536"/>
      </g>
     </g>
    </g>
    <g id="ytick_40">
     <g id="line2d_47">
      <g>
       <use style="stroke:#000000;stroke-width:0.6;" x="52.1" xlink:href="#m7553c85725" y="111.783262"/>
      </g>
     </g>
    </g>
    <g id="ytick_41">
     <g id="line2d_48">
      <g>
       <use style="stroke:#000000;stroke-width:0.6;" x="52.1" xlink:href="#m7553c85725" y="110.334828"/>
      </g>
     </g>
    </g>
    <g id="ytick_42">
     <g id="line2d_49">
      <g>
       <use style="stroke:#000000;stroke-width:0.6;" x="52.1" xlink:href="#m7553c85725" y="100.515204"/>
      </g>
     </g>
    </g>
    <g id="ytick_43">
     <g id="line2d_50">
      <g>
       <use style="stroke:#000000;stroke-width:0.6;" x="52.1" xlink:href="#m7553c85725" y="95.52901"/>
      </g>
     </g>
    </g>
    <g id="ytick_44">
     <g id="line2d_51">
      <g>
       <use style="stroke:#000000;stroke-width:0.6;" x="52.1" xlink:href="#m7553c85725" y="91.991248"/>
      </g>
     </g>
    </g>
    <g id="ytick_45">
     <g id="line2d_52">
      <g>
       <use style="stroke:#000000;stroke-width:0.6;" x="52.1" xlink:href="#m7553c85725" y="89.247147"/>
      </g>
     </g>
    </g>
    <g id="ytick_46">
     <g id="line2d_53">
      <g>
       <use style="stroke:#000000;stroke-width:0.6;" x="52.1" xlink:href="#m7553c85725" y="87.005053"/>
      </g>
     </g>
    </g>
    <g id="ytick_47">
     <g id="line2d_54">
      <g>
       <use style="stroke:#000000;stroke-width:0.6;" x="52.1" xlink:href="#m7553c85725" y="85.10939"/>
      </g>
     </g>
    </g>
    <g id="ytick_48">
     <g id="line2d_55">
      <g>
       <use style="stroke:#000000;stroke-width:0.6;" x="52.1" xlink:href="#m7553c85725" y="83.467292"/>
      </g>
     </g>
    </g>
    <g id="ytick_49">
     <g id="line2d_56">
      <g>
       <use style="stroke:#000000;stroke-width:0.6;" x="52.1" xlink:href="#m7553c85725" y="82.018858"/>
      </g>
     </g>
    </g>
    <g id="ytick_50">
     <g id="line2d_57">
      <g>
       <use style="stroke:#000000;stroke-width:0.6;" x="52.1" xlink:href="#m7553c85725" y="72.199234"/>
      </g>
     </g>
    </g>
    <g id="ytick_51">
     <g id="line2d_58">
      <g>
       <use style="stroke:#000000;stroke-width:0.6;" x="52.1" xlink:href="#m7553c85725" y="67.21304"/>
      </g>
     </g>
    </g>
    <g id="ytick_52">
     <g id="line2d_59">
      <g>
       <use style="stroke:#000000;stroke-width:0.6;" x="52.1" xlink:href="#m7553c85725" y="63.675278"/>
      </g>
     </g>
    </g>
    <g id="ytick_53">
     <g id="line2d_60">
      <g>
       <use style="stroke:#000000;stroke-width:0.6;" x="52.1" xlink:href="#m7553c85725" y="60.931177"/>
      </g>
     </g>
    </g>
    <g id="ytick_54">
     <g id="line2d_61">
      <g>
       <use style="stroke:#000000;stroke-width:0.6;" x="52.1" xlink:href="#m7553c85725" y="58.689083"/>
      </g>
     </g>
    </g>
    <g id="ytick_55">
     <g id="line2d_62">
      <g>
       <use style="stroke:#000000;stroke-width:0.6;" x="52.1" xlink:href="#m7553c85725" y="56.79342"/>
      </g>
     </g>
    </g>
    <g id="ytick_56">
     <g id="line2d_63">
      <g>
       <use style="stroke:#000000;stroke-width:0.6;" x="52.1" xlink:href="#m7553c85725" y="55.151322"/>
      </g>
     </g>
    </g>
    <g id="ytick_57">
     <g id="line2d_64">
      <g>
       <use style="stroke:#000000;stroke-width:0.6;" x="52.1" xlink:href="#m7553c85725" y="53.702889"/>
      </g>
     </g>
    </g>
    <g id="ytick_58">
     <g id="line2d_65">
      <g>
       <use style="stroke:#000000;stroke-width:0.6;" x="52.1" xlink:href="#m7553c85725" y="43.883265"/>
      </g>
     </g>
    </g>
    <g id="ytick_59">
     <g id="line2d_66">
      <g>
       <use style="stroke:#000000;stroke-width:0.6;" x="52.1" xlink:href="#m7553c85725" y="38.89707"/>
      </g>
     </g>
    </g>
    <g id="ytick_60">
     <g id="line2d_67">
      <g>
       <use style="stroke:#000000;stroke-width:0.6;" x="52.1" xlink:href="#m7553c85725" y="35.359308"/>
      </g>
     </g>
    </g>
    <g id="ytick_61">
     <g id="line2d_68">
      <g>
       <use style="stroke:#000000;stroke-width:0.6;" x="52.1" xlink:href="#m7553c85725" y="32.615207"/>
      </g>
     </g>
    </g>
    <g id="ytick_62">
     <g id="line2d_69">
      <g>
       <use style="stroke:#000000;stroke-width:0.6;" x="52.1" xlink:href="#m7553c85725" y="30.373113"/>
      </g>
     </g>
    </g>
    <g id="ytick_63">
     <g id="line2d_70">
      <g>
       <use style="stroke:#000000;stroke-width:0.6;" x="52.1" xlink:href="#m7553c85725" y="28.47745"/>
      </g>
     </g>
    </g>
    <g id="ytick_64">
     <g id="line2d_71">
      <g>
       <use style="stroke:#000000;stroke-width:0.6;" x="52.1" xlink:href="#m7553c85725" y="26.835352"/>
      </g>
     </g>
    </g>
    <g id="ytick_65">
     <g id="line2d_72">
      <g>
       <use style="stroke:#000000;stroke-width:0.6;" x="52.1" xlink:href="#m7553c85725" y="25.386919"/>
      </g>
     </g>
    </g>
    <g id="ytick_66">
     <g id="line2d_73">
      <g>
       <use style="stroke:#000000;stroke-width:0.6;" x="52.1" xlink:href="#m7553c85725" y="15.567295"/>
      </g>
     </g>
    </g>
    <g id="ytick_67">
     <g id="line2d_74">
      <g>
       <use style="stroke:#000000;stroke-width:0.6;" x="52.1" xlink:href="#m7553c85725" y="10.5811"/>
      </g>
     </g>
    </g>
    <g id="text_17">
     <!-- BRDF (sr$^{-1}$) -->
     <defs>
      <path d="M 19.671875 34.8125 
L 19.671875 8.109375 
L 35.5 8.109375 
Q 43.453125 8.109375 47.28125 11.40625 
Q 51.125 14.703125 51.125 21.484375 
Q 51.125 28.328125 47.28125 31.5625 
Q 43.453125 34.8125 35.5 34.8125 
z
M 19.671875 64.796875 
L 19.671875 42.828125 
L 34.28125 42.828125 
Q 41.5 42.828125 45.03125 45.53125 
Q 48.578125 48.25 48.578125 53.8125 
Q 48.578125 59.328125 45.03125 62.0625 
Q 41.5 64.796875 34.28125 64.796875 
z
M 9.8125 72.90625 
L 35.015625 72.90625 
Q 46.296875 72.90625 52.390625 68.21875 
Q 58.5 63.53125 58.5 54.890625 
Q 58.5 48.1875 55.375 44.234375 
Q 52.25 40.28125 46.1875 39.3125 
Q 53.46875 37.75 57.5 32.78125 
Q 61.53125 27.828125 61.53125 20.40625 
Q 61.53125 10.640625 54.890625 5.3125 
Q 48.25 0 35.984375 0 
L 9.8125 0 
z
" id="DejaVuSans-66"/>
      <path d="M 44.390625 34.1875 
Q 47.5625 33.109375 50.5625 29.59375 
Q 53.5625 26.078125 56.59375 19.921875 
L 66.609375 0 
L 56 0 
L 46.6875 18.703125 
Q 43.0625 26.03125 39.671875 28.421875 
Q 36.28125 30.8125 30.421875 30.8125 
L 19.671875 30.8125 
L 19.671875 0 
L 9.8125 0 
L 9.8125 72.90625 
L 32.078125 72.90625 
Q 44.578125 72.90625 50.734375 67.671875 
Q 56.890625 62.453125 56.890625 51.90625 
Q 56.890625 45.015625 53.6875 40.46875 
Q 50.484375 35.9375 44.390625 34.1875 
z
M 19.671875 64.796875 
L 19.671875 38.921875 
L 32.078125 38.921875 
Q 39.203125 38.921875 42.84375 42.21875 
Q 46.484375 45.515625 46.484375 51.90625 
Q 46.484375 58.296875 42.84375 61.546875 
Q 39.203125 64.796875 32.078125 64.796875 
z
" id="DejaVuSans-82"/>
      <path d="M 19.671875 64.796875 
L 19.671875 8.109375 
L 31.59375 8.109375 
Q 46.6875 8.109375 53.6875 14.9375 
Q 60.6875 21.78125 60.6875 36.53125 
Q 60.6875 51.171875 53.6875 57.984375 
Q 46.6875 64.796875 31.59375 64.796875 
z
M 9.8125 72.90625 
L 30.078125 72.90625 
Q 51.265625 72.90625 61.171875 64.09375 
Q 71.09375 55.28125 71.09375 36.53125 
Q 71.09375 17.671875 61.125 8.828125 
Q 51.171875 0 30.078125 0 
L 9.8125 0 
z
" id="DejaVuSans-68"/>
      <path d="M 9.8125 72.90625 
L 51.703125 72.90625 
L 51.703125 64.59375 
L 19.671875 64.59375 
L 19.671875 43.109375 
L 48.578125 43.109375 
L 48.578125 34.8125 
L 19.671875 34.8125 
L 19.671875 0 
L 9.8125 0 
z
" id="DejaVuSans-70"/>
     </defs>
     <g transform="translate(15.520312 145.07)rotate(-90)scale(0.1 -0.1)">
      <use transform="translate(0 0.684375)" xlink:href="#DejaVuSans-66"/>
      <use transform="translate(68.603516 0.684375)" xlink:href="#DejaVuSans-82"/>
      <use transform="translate(138.085938 0.684375)" xlink:href="#DejaVuSans-68"/>
      <use transform="translate(215.087891 0.684375)" xlink:href="#DejaVuSans-70"/>
      <use transform="translate(272.607422 0.684375)" xlink:href="#DejaVuSans-32"/>
      <use transform="translate(304.394531 0.684375)" xlink:href="#DejaVuSans-40"/>
      <use transform="translate(343.408203 0.684375)" xlink:href="#DejaVuSans-115"/>
      <use transform="translate(395.507812 0.684375)" xlink:href="#DejaVuSans-114"/>
      <use transform="translate(437.578125 38.965625)scale(0.7)" xlink:href="#DejaVuSans-8722"/>
      <use transform="translate(496.230469 38.965625)scale(0.7)" xlink:href="#DejaVuSans-49"/>
      <use transform="translate(543.500977 0.684375)" xlink:href="#DejaVuSans-41"/>
     </g>
    </g>
   </g>
   <g id="line2d_75">
    <path clip-path="url(#pe2e66331aa)" d="M 67.318182 208.045675 
L 70.392562 196.292911 
L 73.466942 191.098152 
L 76.541322 187.948618 
L 79.615702 185.809667 
L 82.690083 184.27114 
L 85.764463 183.127174 
L 88.838843 182.259218 
L 91.913223 181.592525 
L 94.987603 181.076841 
L 98.061983 180.676737 
L 101.136364 180.366313 
L 104.210744 180.126085 
L 107.285124 179.941054 
L 110.359504 179.799457 
L 113.433884 179.691916 
L 116.508264 179.610855 
L 119.582645 179.550071 
L 122.657025 179.504434 
L 125.731405 179.469648 
L 128.805785 179.442082 
L 131.880165 179.418631 
L 134.954545 179.396612 
L 138.028926 179.373679 
L 141.103306 179.347756 
L 144.177686 179.316986 
L 147.252066 179.279684 
L 150.326446 179.234306 
L 153.400826 179.179417 
L 156.475207 179.11367 
L 159.549587 179.035786 
L 162.623967 178.94454 
L 165.698347 178.838747 
L 168.772727 178.717253 
L 171.847107 178.578924 
L 174.921488 178.422642 
L 177.995868 178.247298 
L 181.070248 178.051783 
L 184.144628 177.834987 
L 187.219008 177.595793 
L 190.293388 177.333067 
L 193.367769 177.045659 
L 196.442149 176.732392 
L 199.516529 176.392057 
L 202.590909 176.023401 
L 205.665289 175.625126 
L 208.739669 175.195869 
L 211.81405 174.734198 
L 214.88843 174.238593 
L 217.96281 173.707434 
L 221.03719 173.138984 
L 224.11157 172.531367 
L 227.18595 171.882544 
L 230.260331 171.190294 
L 233.334711 170.452177 
L 236.409091 169.665503 
L 239.483471 168.827294 
L 242.557851 167.934234 
L 245.632231 166.982618 
L 248.706612 165.96829 
L 251.780992 164.886562 
L 254.855372 163.73213 
L 257.929752 162.498957 
L 261.004132 161.180148 
L 264.078512 159.767777 
L 267.152893 158.252678 
L 270.227273 156.624188 
L 273.301653 154.869792 
L 276.376033 152.974681 
L 279.450413 150.921135 
L 282.524793 148.687695 
L 285.599174 146.247986 
L 288.673554 143.569025 
L 291.747934 140.60871 
L 294.822314 137.311943 
L 297.896694 133.60442 
L 300.971074 129.382156 
L 304.045455 124.492695 
L 307.119835 118.698579 
L 310.194215 111.598326 
L 313.268595 102.427223 
L 316.342975 89.419394 
L 319.417355 66.58473 
L 322.491736 17.263923 
L 325.566116 73.22892 
L 328.640496 91.331455 
L 331.714876 102.134669 
L 334.789256 109.758721 
L 337.863636 115.599949 
L 340.938017 120.309089 
L 344.012397 124.250079 
L 347.086777 127.655917 
L 350.161157 130.695666 
L 353.235537 133.510193 
L 356.309917 136.237821 
L 359.384298 139.042654 
L 362.458678 142.163455 
L 365.533058 146.033935 
L 368.607438 151.705017 
L 371.681818 163.699798 
" style="fill:none;stroke:#1f77b4;stroke-linecap:square;stroke-width:1.5;"/>
   </g>
   <g id="line2d_76">
    <path clip-path="url(#pe2e66331aa)" d="M 67.318182 196.724571 
L 70.392562 185.114031 
L 73.466942 180.007164 
L 76.541322 176.897233 
L 79.615702 174.755742 
L 82.690083 173.178567 
L 85.764463 171.965642 
L 88.838843 171.003894 
L 91.913223 170.223674 
L 94.987603 169.579415 
L 98.061983 169.039941 
L 101.136364 168.583147 
L 104.210744 168.19288 
L 107.285124 167.857007 
L 110.359504 167.566157 
L 113.433884 167.312892 
L 116.508264 167.091138 
L 119.582645 166.895786 
L 122.657025 166.722425 
L 125.731405 166.567157 
L 128.805785 166.426463 
L 131.880165 166.297127 
L 134.954545 166.176182 
L 138.028926 166.060875 
L 141.103306 165.948652 
L 144.177686 165.837149 
L 147.252066 165.724188 
L 150.326446 165.607774 
L 153.400826 165.486094 
L 156.475207 165.357514 
L 159.549587 165.220577 
L 162.623967 165.073991 
L 165.698347 164.916627 
L 168.772727 164.747505 
L 171.847107 164.565784 
L 174.921488 164.37075 
L 177.995868 164.161798 
L 181.070248 163.938424 
L 184.144628 163.700202 
L 187.219008 163.446774 
L 190.293388 163.177831 
L 193.367769 162.893099 
L 196.442149 162.592319 
L 199.516529 162.275233 
L 202.590909 161.941571 
L 205.665289 161.591024 
L 208.739669 161.223239 
L 211.81405 160.837789 
L 214.88843 160.434164 
L 217.96281 160.011747 
L 221.03719 159.569792 
L 224.11157 159.107402 
L 227.18595 158.623507 
L 230.260331 158.11683 
L 233.334711 157.58586 
L 236.409091 157.028812 
L 239.483471 156.443589 
L 242.557851 155.82773 
L 245.632231 155.17835 
L 248.706612 154.492076 
L 251.780992 153.764958 
L 254.855372 152.992369 
L 257.929752 152.168881 
L 261.004132 151.288112 
L 264.078512 150.342532 
L 267.152893 149.323222 
L 270.227273 148.219569 
L 273.301653 147.018869 
L 276.376033 145.705814 
L 279.450413 144.261807 
L 282.524793 142.664039 
L 285.599174 140.884223 
L 288.673554 138.88679 
L 291.747934 136.626259 
L 294.822314 134.04326 
L 297.896694 131.058222 
L 300.971074 127.560836 
L 304.045455 123.391251 
L 307.119835 118.30361 
L 310.194215 111.887187 
L 313.268595 103.367479 
L 316.342975 90.968687 
L 319.417355 68.691195 
L 322.491736 19.867227 
L 325.566116 76.261937 
L 328.640496 94.72251 
L 331.714876 105.810179 
L 334.789256 113.645989 
L 337.863636 119.629826 
L 340.938017 124.418248 
L 344.012397 128.382683 
L 347.086777 131.764574 
L 350.161157 134.741634 
L 353.235537 137.462903 
L 356.309917 140.07382 
L 359.384298 142.744112 
L 362.458678 145.716371 
L 365.533058 149.426194 
L 368.607438 154.924428 
L 371.681818 166.732244 
" style="fill:none;stroke:#ff7f0e;stroke-linecap:square;stroke-width:1.5;"/>
   </g>
   <g id="line2d_77">
    <path clip-path="url(#pe2e66331aa)" d="M 67.318182 181.587042 
L 70.392562 171.415648 
L 73.466942 167.618733 
L 76.541322 165.706398 
L 79.615702 164.665921 
L 82.690083 164.106919 
L 85.764463 163.840816 
L 88.838843 163.763889 
L 91.913223 163.813946 
L 94.987603 163.951271 
L 98.061983 164.14922 
L 101.136364 164.389174 
L 104.210744 164.657661 
L 107.285124 164.944632 
L 110.359504 165.242393 
L 113.433884 165.544916 
L 116.508264 165.847388 
L 119.582645 166.14591 
L 122.657025 166.437277 
L 125.731405 166.718837 
L 128.805785 166.988373 
L 131.880165 167.244024 
L 134.954545 167.484209 
L 138.028926 167.707578 
L 141.103306 167.912955 
L 144.177686 168.099295 
L 147.252066 168.265644 
L 150.326446 168.411095 
L 153.400826 168.534757 
L 156.475207 168.635721 
L 159.549587 168.713036 
L 162.623967 168.765685 
L 165.698347 168.792577 
L 168.772727 168.792537 
L 171.847107 168.764314 
L 174.921488 168.706593 
L 177.995868 168.618013 
L 181.070248 168.4972 
L 184.144628 168.342793 
L 187.219008 168.153485 
L 190.293388 167.928058 
L 193.367769 167.665416 
L 196.442149 167.364617 
L 199.516529 167.024899 
L 202.590909 166.645698 
L 205.665289 166.226659 
L 208.739669 165.767636 
L 211.81405 165.268688 
L 214.88843 164.730066 
L 217.96281 164.152187 
L 221.03719 163.535609 
L 224.11157 162.88099 
L 227.18595 162.189045 
L 230.260331 161.460496 
L 233.334711 160.69601 
L 236.409091 159.896132 
L 239.483471 159.061206 
L 242.557851 158.19129 
L 245.632231 157.28605 
L 248.706612 156.344654 
L 251.780992 155.365638 
L 254.855372 154.346766 
L 257.929752 153.28486 
L 261.004132 152.175616 
L 264.078512 151.013379 
L 267.152893 149.79089 
L 270.227273 148.498968 
L 273.301653 147.126123 
L 276.376033 145.658071 
L 279.450413 144.077083 
L 282.524793 142.361123 
L 285.599174 140.482642 
L 288.673554 138.40686 
L 291.747934 136.089221 
L 294.822314 133.471493 
L 297.896694 130.475531 
L 300.971074 126.992783 
L 304.045455 122.865478 
L 307.119835 117.850098 
L 310.194215 111.538355 
L 313.268595 103.158018 
L 316.342975 90.935011 
L 319.417355 68.870404 
L 322.491736 20.295509 
L 325.566116 76.972395 
L 328.640496 95.742467 
L 331.714876 107.158112 
L 334.789256 115.328288 
L 337.863636 121.637623 
L 340.938017 126.724511 
L 344.012397 130.939758 
L 347.086777 134.502229 
L 350.161157 137.565641 
L 353.235537 140.254062 
L 356.309917 142.687364 
L 359.384298 145.00938 
L 362.458678 147.43671 
L 365.533058 150.379123 
L 368.607438 154.862325 
L 371.681818 165.384217 
" style="fill:none;stroke:#2ca02c;stroke-linecap:square;stroke-width:1.5;"/>
   </g>
   <g id="line2d_78">
    <path clip-path="url(#pe2e66331aa)" d="M 67.318182 214.756364 
L 70.392562 202.893059 
L 73.466942 197.574039 
L 76.541322 194.283837 
L 79.615702 191.984161 
L 82.690083 190.26064 
L 85.764463 188.903009 
L 88.838843 187.788474 
L 91.913223 186.838518 
L 94.987603 185.999891 
L 98.061983 185.235196 
L 101.136364 184.517804 
L 104.210744 183.828902 
L 107.285124 183.155632 
L 110.359504 182.489821 
L 113.433884 181.827012 
L 116.508264 181.165648 
L 119.582645 180.506341 
L 122.657025 179.851175 
L 125.731405 179.203064 
L 128.805785 178.565174 
L 131.880165 177.940434 
L 134.954545 177.331155 
L 138.028926 176.73879 
L 141.103306 176.163814 
L 144.177686 175.605728 
L 147.252066 175.063169 
L 150.326446 174.534077 
L 153.400826 174.015901 
L 156.475207 173.505822 
L 159.549587 173.000947 
L 162.623967 172.498485 
L 165.698347 171.995873 
L 168.772727 171.490876 
L 171.847107 170.981631 
L 174.921488 170.466675 
L 177.995868 169.944934 
L 181.070248 169.415702 
L 184.144628 168.878594 
L 187.219008 168.333503 
L 190.293388 167.780542 
L 193.367769 167.219991 
L 196.442149 166.652242 
L 199.516529 166.077745 
L 202.590909 165.49696 
L 205.665289 164.910312 
L 208.739669 164.318147 
L 211.81405 163.720696 
L 214.88843 163.11804 
L 217.96281 162.510074 
L 221.03719 161.896476 
L 224.11157 161.276679 
L 227.18595 160.649835 
L 230.260331 160.014787 
L 233.334711 159.370028 
L 236.409091 158.71366 
L 239.483471 158.043351 
L 242.557851 157.356273 
L 245.632231 156.649039 
L 248.706612 155.917612 
L 251.780992 155.157213 
L 254.855372 154.362182 
L 257.929752 153.525827 
L 261.004132 152.640225 
L 264.078512 151.695973 
L 267.152893 150.681887 
L 270.227273 149.584617 
L 273.301653 148.388171 
L 276.376033 147.073325 
L 279.450413 145.616875 
L 282.524793 143.990686 
L 285.599174 142.160443 
L 288.673554 140.083967 
L 291.747934 137.70882 
L 294.822314 134.96869 
L 297.896694 131.777613 
L 300.971074 128.02008 
L 304.045455 123.532952 
L 307.119835 118.069687 
L 310.194215 111.222017 
L 313.268595 102.22129 
L 316.342975 89.30084 
L 319.417355 66.472949 
L 322.491736 17.083636 
L 325.566116 72.912653 
L 328.640496 90.821427 
L 331.714876 101.384046 
L 334.789256 108.732273 
L 337.863636 114.274182 
L 340.938017 118.671978 
L 344.012397 122.300506 
L 347.086777 125.402938 
L 350.161157 128.157682 
L 353.235537 130.714096 
L 356.309917 133.218152 
L 359.384298 135.840768 
L 362.458678 138.826684 
L 365.533058 142.614691 
L 368.607438 148.259781 
L 371.681818 160.287901 
" style="fill:none;stroke:#d62728;stroke-linecap:square;stroke-width:1.5;"/>
   </g>
   <g id="line2d_79">
    <path clip-path="url(#pe2e66331aa)" d="M 67.318182 187.831394 
L 70.392562 176.508036 
L 73.466942 171.629715 
L 76.541322 168.704533 
L 79.615702 166.717409 
L 82.690083 165.276305 
L 85.764463 164.191922 
L 88.838843 163.36056 
L 91.913223 162.720418 
L 94.987603 162.232084 
L 98.061983 161.868694 
L 101.136364 161.61053 
L 104.210744 161.441908 
L 107.285124 161.349366 
L 110.359504 161.320648 
L 113.433884 161.344194 
L 116.508264 161.40895 
L 119.582645 161.504366 
L 122.657025 161.620492 
L 125.731405 161.748111 
L 128.805785 161.878862 
L 131.880165 162.005337 
L 134.954545 162.121138 
L 138.028926 162.220899 
L 141.103306 162.300266 
L 144.177686 162.355855 
L 147.252066 162.385185 
L 150.326446 162.386585 
L 153.400826 162.359095 
L 156.475207 162.302348 
L 159.549587 162.216441 
L 162.623967 162.101802 
L 165.698347 161.959053 
L 168.772727 161.788878 
L 171.847107 161.591896 
L 174.921488 161.368558 
L 177.995868 161.119067 
L 181.070248 160.843326 
L 184.144628 160.540922 
L 187.219008 160.211149 
L 190.293388 159.853057 
L 193.367769 159.465532 
L 196.442149 159.047389 
L 199.516529 158.597484 
L 202.590909 158.114813 
L 205.665289 157.598619 
L 208.739669 157.048472 
L 211.81405 156.46434 
L 214.88843 155.846636 
L 217.96281 155.196241 
L 221.03719 154.514506 
L 224.11157 153.803232 
L 227.18595 153.064625 
L 230.260331 152.30123 
L 233.334711 151.51584 
L 236.409091 150.711378 
L 239.483471 149.890764 
L 242.557851 149.056747 
L 245.632231 148.211722 
L 248.706612 147.357524 
L 251.780992 146.495212 
L 254.855372 145.624832 
L 257.929752 144.745176 
L 261.004132 143.853543 
L 264.078512 142.945476 
L 267.152893 142.014498 
L 270.227273 141.051807 
L 273.301653 140.045922 
L 276.376033 138.982225 
L 279.450413 137.842352 
L 282.524793 136.603341 
L 285.599174 135.236415 
L 288.673554 133.705204 
L 291.747934 131.963081 
L 294.822314 129.94909 
L 297.896694 127.581448 
L 300.971074 124.746724 
L 304.045455 121.280631 
L 307.119835 116.931038 
L 310.194215 111.27848 
L 313.268595 103.536544 
L 316.342975 91.913694 
L 319.417355 70.39032 
L 322.491736 22.274484 
L 325.566116 79.303972 
L 328.640496 98.297555 
L 331.714876 109.790392 
L 334.789256 117.88396 
L 337.863636 123.96895 
L 340.938017 128.70537 
L 344.012397 132.480475 
L 347.086777 135.56109 
L 350.161157 138.15547 
L 353.235537 140.443722 
L 356.309917 142.599103 
L 359.384298 144.813481 
L 362.458678 147.344753 
L 365.533058 150.636705 
L 368.607438 155.741466 
L 371.681818 167.174907 
" style="fill:none;stroke:#9467bd;stroke-linecap:square;stroke-width:1.5;"/>
   </g>
   <g id="patch_3">
    <path d="M 52.1 224.64 
L 52.1 7.2 
" style="fill:none;stroke:#000000;stroke-linecap:square;stroke-linejoin:miter;stroke-width:0.8;"/>
   </g>
   <g id="patch_4">
    <path d="M 386.9 224.64 
L 386.9 7.2 
" style="fill:none;stroke:#000000;stroke-linecap:square;stroke-linejoin:miter;stroke-width:0.8;"/>
   </g>
   <g id="patch_5">
    <path d="M 52.1 224.64 
L 386.9 224.64 
" style="fill:none;stroke:#000000;stroke-linecap:square;stroke-linejoin:miter;stroke-width:0.8;"/>
   </g>
   <g id="patch_6">
    <path d="M 52.1 7.2 
L 386.9 7.2 
" style="fill:none;stroke:#000000;stroke-linecap:square;stroke-linejoin:miter;stroke-width:0.8;"/>
   </g>
   <g id="legend_1">
    <g id="patch_7">
     <path d="M 59.1 88.590625 
L 127 88.590625 
Q 129 88.590625 129 86.590625 
L 129 14.2 
Q 129 12.2 127 12.2 
L 59.1 12.2 
Q 57.1 12.2 57.1 14.2 
L 57.1 86.590625 
Q 57.1 88.590625 59.1 88.590625 
z
" style="fill:#ffffff;opacity:0.8;stroke:#cccccc;stroke-linejoin:miter;"/>
    </g>
    <g id="line2d_80">
     <path d="M 61.1 20.298438 
L 81.1 20.298438 
" style="fill:none;stroke:#1f77b4;stroke-linecap:square;stroke-width:1.5;"/>
    </g>
    <g id="line2d_81"/>
    <g id="text_18">
     <!-- $D = 0.1$ -->
     <defs>
      <path d="M 16.890625 72.90625 
L 38.09375 72.90625 
Q 54.984375 72.90625 63.59375 65.75 
Q 72.21875 58.59375 72.21875 44.484375 
Q 72.21875 35.15625 68.9375 26.53125 
Q 65.671875 17.921875 59.90625 12.015625 
Q 54.109375 5.953125 45.171875 2.96875 
Q 36.234375 0 24.03125 0 
L 2.6875 0 
z
M 25.203125 64.796875 
L 14.203125 8.109375 
L 27.09375 8.109375 
Q 43.65625 8.109375 52.734375 17.625 
Q 61.8125 27.15625 61.8125 44.484375 
Q 61.8125 54.984375 55.953125 59.890625 
Q 50.09375 64.796875 37.59375 64.796875 
z
" id="DejaVuSans-Oblique-68"/>
      <path d="M 10.59375 45.40625 
L 73.1875 45.40625 
L 73.1875 37.203125 
L 10.59375 37.203125 
z
M 10.59375 25.484375 
L 73.1875 25.484375 
L 73.1875 17.1875 
L 10.59375 17.1875 
z
" id="DejaVuSans-61"/>
      <path d="M 10.6875 12.40625 
L 21 12.40625 
L 21 0 
L 10.6875 0 
z
" id="DejaVuSans-46"/>
     </defs>
     <g transform="translate(89.1 23.798438)scale(0.1 -0.1)">
      <use transform="translate(0 0.78125)" xlink:href="#DejaVuSans-Oblique-68"/>
      <use transform="translate(96.484375 0.78125)" xlink:href="#DejaVuSans-61"/>
      <use transform="translate(199.755859 0.78125)" xlink:href="#DejaVuSans-48"/>
      <use transform="translate(263.378906 0.78125)" xlink:href="#DejaVuSans-46"/>
      <use transform="translate(295.166016 0.78125)" xlink:href="#DejaVuSans-49"/>
     </g>
    </g>
    <g id="line2d_82">
     <path d="M 61.1 34.976563 
L 81.1 34.976563 
" style="fill:none;stroke:#ff7f0e;stroke-linecap:square;stroke-width:1.5;"/>
    </g>
    <g id="line2d_83"/>
    <g id="text_19">
     <!-- $D = 0.2$ -->
     <g transform="translate(89.1 38.476563)scale(0.1 -0.1)">
      <use transform="translate(0 0.78125)" xlink:href="#DejaVuSans-Oblique-68"/>
      <use transform="translate(96.484375 0.78125)" xlink:href="#DejaVuSans-61"/>
      <use transform="translate(199.755859 0.78125)" xlink:href="#DejaVuSans-48"/>
      <use transform="translate(263.378906 0.78125)" xlink:href="#DejaVuSans-46"/>
      <use transform="translate(289.666016 0.78125)" xlink:href="#DejaVuSans-50"/>
     </g>
    </g>
    <g id="line2d_84">
     <path d="M 61.1 49.654688 
L 81.1 49.654688 
" style="fill:none;stroke:#2ca02c;stroke-linecap:square;stroke-width:1.5;"/>
    </g>
    <g id="line2d_85"/>
    <g id="text_20">
     <!-- $D = 0.3$ -->
     <g transform="translate(89.1 53.154688)scale(0.1 -0.1)">
      <use transform="translate(0 0.78125)" xlink:href="#DejaVuSans-Oblique-68"/>
      <use transform="translate(96.484375 0.78125)" xlink:href="#DejaVuSans-61"/>
      <use transform="translate(199.755859 0.78125)" xlink:href="#DejaVuSans-48"/>
      <use transform="translate(263.378906 0.78125)" xlink:href="#DejaVuSans-46"/>
      <use transform="translate(295.166016 0.78125)" xlink:href="#DejaVuSans-51"/>
     </g>
    </g>
    <g id="line2d_86">
     <path d="M 61.1 64.332813 
L 81.1 64.332813 
" style="fill:none;stroke:#d62728;stroke-linecap:square;stroke-width:1.5;"/>
    </g>
    <g id="line2d_87"/>
    <g id="text_21">
     <!-- $D = 0.4$ -->
     <g transform="translate(89.1 67.832813)scale(0.1 -0.1)">
      <use transform="translate(0 0.78125)" xlink:href="#DejaVuSans-Oblique-68"/>
      <use transform="translate(96.484375 0.78125)" xlink:href="#DejaVuSans-61"/>
      <use transform="translate(199.755859 0.78125)" xlink:href="#DejaVuSans-48"/>
      <use transform="translate(263.378906 0.78125)" xlink:href="#DejaVuSans-46"/>
      <use transform="translate(295.166016 0.78125)" xlink:href="#DejaVuSans-52"/>
     </g>
    </g>
    <g id="line2d_88">
     <path d="M 61.1 79.010938 
L 81.1 79.010938 
" style="fill:none;stroke:#9467bd;stroke-linecap:square;stroke-width:1.5;"/>
    </g>
    <g id="line2d_89"/>
    <g id="text_22">
     <!-- $D = 0.5$ -->
     <g transform="translate(89.1 82.510938)scale(0.1 -0.1)">
      <use transform="translate(0 0.78125)" xlink:href="#DejaVuSans-Oblique-68"/>
      <use transform="translate(96.484375 0.78125)" xlink:href="#DejaVuSans-61"/>
      <use transform="translate(199.755859 0.78125)" xlink:href="#DejaVuSans-48"/>
      <use transform="translate(263.378906 0.78125)" xlink:href="#DejaVuSans-46"/>
      <use transform="translate(295.166016 0.78125)" xlink:href="#DejaVuSans-53"/>
     </g>
    </g>
   </g>
  </g>
 </g>
 <defs>
  <clipPath id="pe2e66331aa">
   <rect height="217.44" width="334.8" x="52.1" y="7.2"/>
  </clipPath>
 </defs>
</svg>
