<?xml version="1.0" encoding="utf-8" standalone="no"?>
<!DOCTYPE svg PUBLIC "-//W3C//DTD SVG 1.1//EN"
  "http://www.w3.org/Graphics/SVG/1.1/DTD/svg11.dtd">
<svg xmlns:xlink="http://www.w3.org/1999/xlink" width="386.318321pt" height="262.19625pt" viewBox="0 0 386.318321 262.19625" xmlns="http://www.w3.org/2000/svg" version="1.1">
 <metadata>
  <rdf:RDF xmlns:dc="http://purl.org/dc/elements/1.1/" xmlns:cc="http://creativecommons.org/ns#" xmlns:rdf="http://www.w3.org/1999/02/22-rdf-syntax-ns#">
   <cc:Work>
    <dc:type rdf:resource="http://purl.org/dc/dcmitype/StillImage"/>
    <dc:date>2023-03-02T13:11:30.593692</dc:date>
    <dc:format>image/svg+xml</dc:format>
    <dc:creator>
     <cc:Agent>
      <dc:title>Matplotlib v3.5.2, https://matplotlib.org/</dc:title>
     </cc:Agent>
    </dc:creator>
   </cc:Work>
  </rdf:RDF>
 </metadata>
 <defs>
  <style type="text/css">*{stroke-linejoin: round; stroke-linecap: butt}</style>
 </defs>
 <g id="figure_1">
  <g id="patch_1">
   <path d="M 0 262.19625 
L 386.318321 262.19625 
L 386.318321 0 
L 0 0 
L 0 262.19625 
z
" style="fill: none"/>
  </g>
  <g id="axes_1">
   <g id="patch_2">
    <path d="M 43.78125 224.64 
L 378.58125 224.64 
L 378.58125 7.2 
L 43.78125 7.2 
z
" style="fill: #ffffff"/>
   </g>
   <g id="matplotlib.axis_1">
    <g id="xtick_1">
     <g id="line2d_1">
      <defs>
       <path id="me9945f8f14" d="M 0 0 
L 0 3.5 
" style="stroke: #000000; stroke-width: 0.8"/>
      </defs>
      <g>
       <use xlink:href="#me9945f8f14" x="58.999432" y="224.64" style="stroke: #000000; stroke-width: 0.8"/>
      </g>
     </g>
     <g id="text_1">
      <!-- 0 -->
      <g transform="translate(55.818182 239.238437)scale(0.1 -0.1)">
       <defs>
        <path id="DejaVuSans-30" d="M 2034 4250 
Q 1547 4250 1301 3770 
Q 1056 3291 1056 2328 
Q 1056 1369 1301 889 
Q 1547 409 2034 409 
Q 2525 409 2770 889 
Q 3016 1369 3016 2328 
Q 3016 3291 2770 3770 
Q 2525 4250 2034 4250 
z
M 2034 4750 
Q 2819 4750 3233 4129 
Q 3647 3509 3647 2328 
Q 3647 1150 3233 529 
Q 2819 -91 2034 -91 
Q 1250 -91 836 529 
Q 422 1150 422 2328 
Q 422 3509 836 4129 
Q 1250 4750 2034 4750 
z
" transform="scale(0.015625)"/>
       </defs>
       <use xlink:href="#DejaVuSans-30"/>
      </g>
     </g>
    </g>
    <g id="xtick_2">
     <g id="line2d_2">
      <g>
       <use xlink:href="#me9945f8f14" x="121.11446" y="224.64" style="stroke: #000000; stroke-width: 0.8"/>
      </g>
     </g>
     <g id="text_2">
      <!-- 20 -->
      <g transform="translate(114.75196 239.238437)scale(0.1 -0.1)">
       <defs>
        <path id="DejaVuSans-32" d="M 1228 531 
L 3431 531 
L 3431 0 
L 469 0 
L 469 531 
Q 828 903 1448 1529 
Q 2069 2156 2228 2338 
Q 2531 2678 2651 2914 
Q 2772 3150 2772 3378 
Q 2772 3750 2511 3984 
Q 2250 4219 1831 4219 
Q 1534 4219 1204 4116 
Q 875 4013 500 3803 
L 500 4441 
Q 881 4594 1212 4672 
Q 1544 4750 1819 4750 
Q 2544 4750 2975 4387 
Q 3406 4025 3406 3419 
Q 3406 3131 3298 2873 
Q 3191 2616 2906 2266 
Q 2828 2175 2409 1742 
Q 1991 1309 1228 531 
z
" transform="scale(0.015625)"/>
       </defs>
       <use xlink:href="#DejaVuSans-32"/>
       <use xlink:href="#DejaVuSans-30" x="63.623047"/>
      </g>
     </g>
    </g>
    <g id="xtick_3">
     <g id="line2d_3">
      <g>
       <use xlink:href="#me9945f8f14" x="183.229487" y="224.64" style="stroke: #000000; stroke-width: 0.8"/>
      </g>
     </g>
     <g id="text_3">
      <!-- 40 -->
      <g transform="translate(176.866987 239.238437)scale(0.1 -0.1)">
       <defs>
        <path id="DejaVuSans-34" d="M 2419 4116 
L 825 1625 
L 2419 1625 
L 2419 4116 
z
M 2253 4666 
L 3047 4666 
L 3047 1625 
L 3713 1625 
L 3713 1100 
L 3047 1100 
L 3047 0 
L 2419 0 
L 2419 1100 
L 313 1100 
L 313 1709 
L 2253 4666 
z
" transform="scale(0.015625)"/>
       </defs>
       <use xlink:href="#DejaVuSans-34"/>
       <use xlink:href="#DejaVuSans-30" x="63.623047"/>
      </g>
     </g>
    </g>
    <g id="xtick_4">
     <g id="line2d_4">
      <g>
       <use xlink:href="#me9945f8f14" x="245.344515" y="224.64" style="stroke: #000000; stroke-width: 0.8"/>
      </g>
     </g>
     <g id="text_4">
      <!-- 60 -->
      <g transform="translate(238.982015 239.238437)scale(0.1 -0.1)">
       <defs>
        <path id="DejaVuSans-36" d="M 2113 2584 
Q 1688 2584 1439 2293 
Q 1191 2003 1191 1497 
Q 1191 994 1439 701 
Q 1688 409 2113 409 
Q 2538 409 2786 701 
Q 3034 994 3034 1497 
Q 3034 2003 2786 2293 
Q 2538 2584 2113 2584 
z
M 3366 4563 
L 3366 3988 
Q 3128 4100 2886 4159 
Q 2644 4219 2406 4219 
Q 1781 4219 1451 3797 
Q 1122 3375 1075 2522 
Q 1259 2794 1537 2939 
Q 1816 3084 2150 3084 
Q 2853 3084 3261 2657 
Q 3669 2231 3669 1497 
Q 3669 778 3244 343 
Q 2819 -91 2113 -91 
Q 1303 -91 875 529 
Q 447 1150 447 2328 
Q 447 3434 972 4092 
Q 1497 4750 2381 4750 
Q 2619 4750 2861 4703 
Q 3103 4656 3366 4563 
z
" transform="scale(0.015625)"/>
       </defs>
       <use xlink:href="#DejaVuSans-36"/>
       <use xlink:href="#DejaVuSans-30" x="63.623047"/>
      </g>
     </g>
    </g>
    <g id="xtick_5">
     <g id="line2d_5">
      <g>
       <use xlink:href="#me9945f8f14" x="307.459543" y="224.64" style="stroke: #000000; stroke-width: 0.8"/>
      </g>
     </g>
     <g id="text_5">
      <!-- 80 -->
      <g transform="translate(301.097043 239.238437)scale(0.1 -0.1)">
       <defs>
        <path id="DejaVuSans-38" d="M 2034 2216 
Q 1584 2216 1326 1975 
Q 1069 1734 1069 1313 
Q 1069 891 1326 650 
Q 1584 409 2034 409 
Q 2484 409 2743 651 
Q 3003 894 3003 1313 
Q 3003 1734 2745 1975 
Q 2488 2216 2034 2216 
z
M 1403 2484 
Q 997 2584 770 2862 
Q 544 3141 544 3541 
Q 544 4100 942 4425 
Q 1341 4750 2034 4750 
Q 2731 4750 3128 4425 
Q 3525 4100 3525 3541 
Q 3525 3141 3298 2862 
Q 3072 2584 2669 2484 
Q 3125 2378 3379 2068 
Q 3634 1759 3634 1313 
Q 3634 634 3220 271 
Q 2806 -91 2034 -91 
Q 1263 -91 848 271 
Q 434 634 434 1313 
Q 434 1759 690 2068 
Q 947 2378 1403 2484 
z
M 1172 3481 
Q 1172 3119 1398 2916 
Q 1625 2713 2034 2713 
Q 2441 2713 2670 2916 
Q 2900 3119 2900 3481 
Q 2900 3844 2670 4047 
Q 2441 4250 2034 4250 
Q 1625 4250 1398 4047 
Q 1172 3844 1172 3481 
z
" transform="scale(0.015625)"/>
       </defs>
       <use xlink:href="#DejaVuSans-38"/>
       <use xlink:href="#DejaVuSans-30" x="63.623047"/>
      </g>
     </g>
    </g>
    <g id="xtick_6">
     <g id="line2d_6">
      <g>
       <use xlink:href="#me9945f8f14" x="369.574571" y="224.64" style="stroke: #000000; stroke-width: 0.8"/>
      </g>
     </g>
     <g id="text_6">
      <!-- 100 -->
      <g transform="translate(360.030821 239.238437)scale(0.1 -0.1)">
       <defs>
        <path id="DejaVuSans-31" d="M 794 531 
L 1825 531 
L 1825 4091 
L 703 3866 
L 703 4441 
L 1819 4666 
L 2450 4666 
L 2450 531 
L 3481 531 
L 3481 0 
L 794 0 
L 794 531 
z
" transform="scale(0.015625)"/>
       </defs>
       <use xlink:href="#DejaVuSans-31"/>
       <use xlink:href="#DejaVuSans-30" x="63.623047"/>
       <use xlink:href="#DejaVuSans-30" x="127.246094"/>
      </g>
     </g>
    </g>
    <g id="text_7">
     <!-- Number of Jones-Mueller matrices averaged -->
     <g transform="translate(100.847656 252.916562)scale(0.1 -0.1)">
      <defs>
       <path id="DejaVuSans-4e" d="M 628 4666 
L 1478 4666 
L 3547 763 
L 3547 4666 
L 4159 4666 
L 4159 0 
L 3309 0 
L 1241 3903 
L 1241 0 
L 628 0 
L 628 4666 
z
" transform="scale(0.015625)"/>
       <path id="DejaVuSans-75" d="M 544 1381 
L 544 3500 
L 1119 3500 
L 1119 1403 
Q 1119 906 1312 657 
Q 1506 409 1894 409 
Q 2359 409 2629 706 
Q 2900 1003 2900 1516 
L 2900 3500 
L 3475 3500 
L 3475 0 
L 2900 0 
L 2900 538 
Q 2691 219 2414 64 
Q 2138 -91 1772 -91 
Q 1169 -91 856 284 
Q 544 659 544 1381 
z
M 1991 3584 
L 1991 3584 
z
" transform="scale(0.015625)"/>
       <path id="DejaVuSans-6d" d="M 3328 2828 
Q 3544 3216 3844 3400 
Q 4144 3584 4550 3584 
Q 5097 3584 5394 3201 
Q 5691 2819 5691 2113 
L 5691 0 
L 5113 0 
L 5113 2094 
Q 5113 2597 4934 2840 
Q 4756 3084 4391 3084 
Q 3944 3084 3684 2787 
Q 3425 2491 3425 1978 
L 3425 0 
L 2847 0 
L 2847 2094 
Q 2847 2600 2669 2842 
Q 2491 3084 2119 3084 
Q 1678 3084 1418 2786 
Q 1159 2488 1159 1978 
L 1159 0 
L 581 0 
L 581 3500 
L 1159 3500 
L 1159 2956 
Q 1356 3278 1631 3431 
Q 1906 3584 2284 3584 
Q 2666 3584 2933 3390 
Q 3200 3197 3328 2828 
z
" transform="scale(0.015625)"/>
       <path id="DejaVuSans-62" d="M 3116 1747 
Q 3116 2381 2855 2742 
Q 2594 3103 2138 3103 
Q 1681 3103 1420 2742 
Q 1159 2381 1159 1747 
Q 1159 1113 1420 752 
Q 1681 391 2138 391 
Q 2594 391 2855 752 
Q 3116 1113 3116 1747 
z
M 1159 2969 
Q 1341 3281 1617 3432 
Q 1894 3584 2278 3584 
Q 2916 3584 3314 3078 
Q 3713 2572 3713 1747 
Q 3713 922 3314 415 
Q 2916 -91 2278 -91 
Q 1894 -91 1617 61 
Q 1341 213 1159 525 
L 1159 0 
L 581 0 
L 581 4863 
L 1159 4863 
L 1159 2969 
z
" transform="scale(0.015625)"/>
       <path id="DejaVuSans-65" d="M 3597 1894 
L 3597 1613 
L 953 1613 
Q 991 1019 1311 708 
Q 1631 397 2203 397 
Q 2534 397 2845 478 
Q 3156 559 3463 722 
L 3463 178 
Q 3153 47 2828 -22 
Q 2503 -91 2169 -91 
Q 1331 -91 842 396 
Q 353 884 353 1716 
Q 353 2575 817 3079 
Q 1281 3584 2069 3584 
Q 2775 3584 3186 3129 
Q 3597 2675 3597 1894 
z
M 3022 2063 
Q 3016 2534 2758 2815 
Q 2500 3097 2075 3097 
Q 1594 3097 1305 2825 
Q 1016 2553 972 2059 
L 3022 2063 
z
" transform="scale(0.015625)"/>
       <path id="DejaVuSans-72" d="M 2631 2963 
Q 2534 3019 2420 3045 
Q 2306 3072 2169 3072 
Q 1681 3072 1420 2755 
Q 1159 2438 1159 1844 
L 1159 0 
L 581 0 
L 581 3500 
L 1159 3500 
L 1159 2956 
Q 1341 3275 1631 3429 
Q 1922 3584 2338 3584 
Q 2397 3584 2469 3576 
Q 2541 3569 2628 3553 
L 2631 2963 
z
" transform="scale(0.015625)"/>
       <path id="DejaVuSans-20" transform="scale(0.015625)"/>
       <path id="DejaVuSans-6f" d="M 1959 3097 
Q 1497 3097 1228 2736 
Q 959 2375 959 1747 
Q 959 1119 1226 758 
Q 1494 397 1959 397 
Q 2419 397 2687 759 
Q 2956 1122 2956 1747 
Q 2956 2369 2687 2733 
Q 2419 3097 1959 3097 
z
M 1959 3584 
Q 2709 3584 3137 3096 
Q 3566 2609 3566 1747 
Q 3566 888 3137 398 
Q 2709 -91 1959 -91 
Q 1206 -91 779 398 
Q 353 888 353 1747 
Q 353 2609 779 3096 
Q 1206 3584 1959 3584 
z
" transform="scale(0.015625)"/>
       <path id="DejaVuSans-66" d="M 2375 4863 
L 2375 4384 
L 1825 4384 
Q 1516 4384 1395 4259 
Q 1275 4134 1275 3809 
L 1275 3500 
L 2222 3500 
L 2222 3053 
L 1275 3053 
L 1275 0 
L 697 0 
L 697 3053 
L 147 3053 
L 147 3500 
L 697 3500 
L 697 3744 
Q 697 4328 969 4595 
Q 1241 4863 1831 4863 
L 2375 4863 
z
" transform="scale(0.015625)"/>
       <path id="DejaVuSans-4a" d="M 628 4666 
L 1259 4666 
L 1259 325 
Q 1259 -519 939 -900 
Q 619 -1281 -91 -1281 
L -331 -1281 
L -331 -750 
L -134 -750 
Q 284 -750 456 -515 
Q 628 -281 628 325 
L 628 4666 
z
" transform="scale(0.015625)"/>
       <path id="DejaVuSans-6e" d="M 3513 2113 
L 3513 0 
L 2938 0 
L 2938 2094 
Q 2938 2591 2744 2837 
Q 2550 3084 2163 3084 
Q 1697 3084 1428 2787 
Q 1159 2491 1159 1978 
L 1159 0 
L 581 0 
L 581 3500 
L 1159 3500 
L 1159 2956 
Q 1366 3272 1645 3428 
Q 1925 3584 2291 3584 
Q 2894 3584 3203 3211 
Q 3513 2838 3513 2113 
z
" transform="scale(0.015625)"/>
       <path id="DejaVuSans-73" d="M 2834 3397 
L 2834 2853 
Q 2591 2978 2328 3040 
Q 2066 3103 1784 3103 
Q 1356 3103 1142 2972 
Q 928 2841 928 2578 
Q 928 2378 1081 2264 
Q 1234 2150 1697 2047 
L 1894 2003 
Q 2506 1872 2764 1633 
Q 3022 1394 3022 966 
Q 3022 478 2636 193 
Q 2250 -91 1575 -91 
Q 1294 -91 989 -36 
Q 684 19 347 128 
L 347 722 
Q 666 556 975 473 
Q 1284 391 1588 391 
Q 1994 391 2212 530 
Q 2431 669 2431 922 
Q 2431 1156 2273 1281 
Q 2116 1406 1581 1522 
L 1381 1569 
Q 847 1681 609 1914 
Q 372 2147 372 2553 
Q 372 3047 722 3315 
Q 1072 3584 1716 3584 
Q 2034 3584 2315 3537 
Q 2597 3491 2834 3397 
z
" transform="scale(0.015625)"/>
       <path id="DejaVuSans-2d" d="M 313 2009 
L 1997 2009 
L 1997 1497 
L 313 1497 
L 313 2009 
z
" transform="scale(0.015625)"/>
       <path id="DejaVuSans-4d" d="M 628 4666 
L 1569 4666 
L 2759 1491 
L 3956 4666 
L 4897 4666 
L 4897 0 
L 4281 0 
L 4281 4097 
L 3078 897 
L 2444 897 
L 1241 4097 
L 1241 0 
L 628 0 
L 628 4666 
z
" transform="scale(0.015625)"/>
       <path id="DejaVuSans-6c" d="M 603 4863 
L 1178 4863 
L 1178 0 
L 603 0 
L 603 4863 
z
" transform="scale(0.015625)"/>
       <path id="DejaVuSans-61" d="M 2194 1759 
Q 1497 1759 1228 1600 
Q 959 1441 959 1056 
Q 959 750 1161 570 
Q 1363 391 1709 391 
Q 2188 391 2477 730 
Q 2766 1069 2766 1631 
L 2766 1759 
L 2194 1759 
z
M 3341 1997 
L 3341 0 
L 2766 0 
L 2766 531 
Q 2569 213 2275 61 
Q 1981 -91 1556 -91 
Q 1019 -91 701 211 
Q 384 513 384 1019 
Q 384 1609 779 1909 
Q 1175 2209 1959 2209 
L 2766 2209 
L 2766 2266 
Q 2766 2663 2505 2880 
Q 2244 3097 1772 3097 
Q 1472 3097 1187 3025 
Q 903 2953 641 2809 
L 641 3341 
Q 956 3463 1253 3523 
Q 1550 3584 1831 3584 
Q 2591 3584 2966 3190 
Q 3341 2797 3341 1997 
z
" transform="scale(0.015625)"/>
       <path id="DejaVuSans-74" d="M 1172 4494 
L 1172 3500 
L 2356 3500 
L 2356 3053 
L 1172 3053 
L 1172 1153 
Q 1172 725 1289 603 
Q 1406 481 1766 481 
L 2356 481 
L 2356 0 
L 1766 0 
Q 1100 0 847 248 
Q 594 497 594 1153 
L 594 3053 
L 172 3053 
L 172 3500 
L 594 3500 
L 594 4494 
L 1172 4494 
z
" transform="scale(0.015625)"/>
       <path id="DejaVuSans-69" d="M 603 3500 
L 1178 3500 
L 1178 0 
L 603 0 
L 603 3500 
z
M 603 4863 
L 1178 4863 
L 1178 4134 
L 603 4134 
L 603 4863 
z
" transform="scale(0.015625)"/>
       <path id="DejaVuSans-63" d="M 3122 3366 
L 3122 2828 
Q 2878 2963 2633 3030 
Q 2388 3097 2138 3097 
Q 1578 3097 1268 2742 
Q 959 2388 959 1747 
Q 959 1106 1268 751 
Q 1578 397 2138 397 
Q 2388 397 2633 464 
Q 2878 531 3122 666 
L 3122 134 
Q 2881 22 2623 -34 
Q 2366 -91 2075 -91 
Q 1284 -91 818 406 
Q 353 903 353 1747 
Q 353 2603 823 3093 
Q 1294 3584 2113 3584 
Q 2378 3584 2631 3529 
Q 2884 3475 3122 3366 
z
" transform="scale(0.015625)"/>
       <path id="DejaVuSans-76" d="M 191 3500 
L 800 3500 
L 1894 563 
L 2988 3500 
L 3597 3500 
L 2284 0 
L 1503 0 
L 191 3500 
z
" transform="scale(0.015625)"/>
       <path id="DejaVuSans-67" d="M 2906 1791 
Q 2906 2416 2648 2759 
Q 2391 3103 1925 3103 
Q 1463 3103 1205 2759 
Q 947 2416 947 1791 
Q 947 1169 1205 825 
Q 1463 481 1925 481 
Q 2391 481 2648 825 
Q 2906 1169 2906 1791 
z
M 3481 434 
Q 3481 -459 3084 -895 
Q 2688 -1331 1869 -1331 
Q 1566 -1331 1297 -1286 
Q 1028 -1241 775 -1147 
L 775 -588 
Q 1028 -725 1275 -790 
Q 1522 -856 1778 -856 
Q 2344 -856 2625 -561 
Q 2906 -266 2906 331 
L 2906 616 
Q 2728 306 2450 153 
Q 2172 0 1784 0 
Q 1141 0 747 490 
Q 353 981 353 1791 
Q 353 2603 747 3093 
Q 1141 3584 1784 3584 
Q 2172 3584 2450 3431 
Q 2728 3278 2906 2969 
L 2906 3500 
L 3481 3500 
L 3481 434 
z
" transform="scale(0.015625)"/>
       <path id="DejaVuSans-64" d="M 2906 2969 
L 2906 4863 
L 3481 4863 
L 3481 0 
L 2906 0 
L 2906 525 
Q 2725 213 2448 61 
Q 2172 -91 1784 -91 
Q 1150 -91 751 415 
Q 353 922 353 1747 
Q 353 2572 751 3078 
Q 1150 3584 1784 3584 
Q 2172 3584 2448 3432 
Q 2725 3281 2906 2969 
z
M 947 1747 
Q 947 1113 1208 752 
Q 1469 391 1925 391 
Q 2381 391 2643 752 
Q 2906 1113 2906 1747 
Q 2906 2381 2643 2742 
Q 2381 3103 1925 3103 
Q 1469 3103 1208 2742 
Q 947 2381 947 1747 
z
" transform="scale(0.015625)"/>
      </defs>
      <use xlink:href="#DejaVuSans-4e"/>
      <use xlink:href="#DejaVuSans-75" x="74.804688"/>
      <use xlink:href="#DejaVuSans-6d" x="138.183594"/>
      <use xlink:href="#DejaVuSans-62" x="235.595703"/>
      <use xlink:href="#DejaVuSans-65" x="299.072266"/>
      <use xlink:href="#DejaVuSans-72" x="360.595703"/>
      <use xlink:href="#DejaVuSans-20" x="401.708984"/>
      <use xlink:href="#DejaVuSans-6f" x="433.496094"/>
      <use xlink:href="#DejaVuSans-66" x="494.677734"/>
      <use xlink:href="#DejaVuSans-20" x="529.882812"/>
      <use xlink:href="#DejaVuSans-4a" x="561.669922"/>
      <use xlink:href="#DejaVuSans-6f" x="591.162109"/>
      <use xlink:href="#DejaVuSans-6e" x="652.34375"/>
      <use xlink:href="#DejaVuSans-65" x="715.722656"/>
      <use xlink:href="#DejaVuSans-73" x="777.246094"/>
      <use xlink:href="#DejaVuSans-2d" x="829.345703"/>
      <use xlink:href="#DejaVuSans-4d" x="865.429688"/>
      <use xlink:href="#DejaVuSans-75" x="951.708984"/>
      <use xlink:href="#DejaVuSans-65" x="1015.087891"/>
      <use xlink:href="#DejaVuSans-6c" x="1076.611328"/>
      <use xlink:href="#DejaVuSans-6c" x="1104.394531"/>
      <use xlink:href="#DejaVuSans-65" x="1132.177734"/>
      <use xlink:href="#DejaVuSans-72" x="1193.701172"/>
      <use xlink:href="#DejaVuSans-20" x="1234.814453"/>
      <use xlink:href="#DejaVuSans-6d" x="1266.601562"/>
      <use xlink:href="#DejaVuSans-61" x="1364.013672"/>
      <use xlink:href="#DejaVuSans-74" x="1425.292969"/>
      <use xlink:href="#DejaVuSans-72" x="1464.501953"/>
      <use xlink:href="#DejaVuSans-69" x="1505.615234"/>
      <use xlink:href="#DejaVuSans-63" x="1533.398438"/>
      <use xlink:href="#DejaVuSans-65" x="1588.378906"/>
      <use xlink:href="#DejaVuSans-73" x="1649.902344"/>
      <use xlink:href="#DejaVuSans-20" x="1702.001953"/>
      <use xlink:href="#DejaVuSans-61" x="1733.789062"/>
      <use xlink:href="#DejaVuSans-76" x="1795.068359"/>
      <use xlink:href="#DejaVuSans-65" x="1854.248047"/>
      <use xlink:href="#DejaVuSans-72" x="1915.771484"/>
      <use xlink:href="#DejaVuSans-61" x="1956.884766"/>
      <use xlink:href="#DejaVuSans-67" x="2018.164062"/>
      <use xlink:href="#DejaVuSans-65" x="2081.640625"/>
      <use xlink:href="#DejaVuSans-64" x="2143.164062"/>
     </g>
    </g>
   </g>
   <g id="matplotlib.axis_2">
    <g id="ytick_1">
     <g id="line2d_7">
      <defs>
       <path id="mc362eb708a" d="M 0 0 
L -3.5 0 
" style="stroke: #000000; stroke-width: 0.8"/>
      </defs>
      <g>
       <use xlink:href="#mc362eb708a" x="43.78125" y="214.756364" style="stroke: #000000; stroke-width: 0.8"/>
      </g>
     </g>
     <g id="text_8">
      <!-- 0.0 -->
      <g transform="translate(20.878125 218.555582)scale(0.1 -0.1)">
       <defs>
        <path id="DejaVuSans-2e" d="M 684 794 
L 1344 794 
L 1344 0 
L 684 0 
L 684 794 
z
" transform="scale(0.015625)"/>
       </defs>
       <use xlink:href="#DejaVuSans-30"/>
       <use xlink:href="#DejaVuSans-2e" x="63.623047"/>
       <use xlink:href="#DejaVuSans-30" x="95.410156"/>
      </g>
     </g>
    </g>
    <g id="ytick_2">
     <g id="line2d_8">
      <g>
       <use xlink:href="#mc362eb708a" x="43.78125" y="178.114183" style="stroke: #000000; stroke-width: 0.8"/>
      </g>
     </g>
     <g id="text_9">
      <!-- 0.2 -->
      <g transform="translate(20.878125 181.913401)scale(0.1 -0.1)">
       <use xlink:href="#DejaVuSans-30"/>
       <use xlink:href="#DejaVuSans-2e" x="63.623047"/>
       <use xlink:href="#DejaVuSans-32" x="95.410156"/>
      </g>
     </g>
    </g>
    <g id="ytick_3">
     <g id="line2d_9">
      <g>
       <use xlink:href="#mc362eb708a" x="43.78125" y="141.472001" style="stroke: #000000; stroke-width: 0.8"/>
      </g>
     </g>
     <g id="text_10">
      <!-- 0.4 -->
      <g transform="translate(20.878125 145.27122)scale(0.1 -0.1)">
       <use xlink:href="#DejaVuSans-30"/>
       <use xlink:href="#DejaVuSans-2e" x="63.623047"/>
       <use xlink:href="#DejaVuSans-34" x="95.410156"/>
      </g>
     </g>
    </g>
    <g id="ytick_4">
     <g id="line2d_10">
      <g>
       <use xlink:href="#mc362eb708a" x="43.78125" y="104.82982" style="stroke: #000000; stroke-width: 0.8"/>
      </g>
     </g>
     <g id="text_11">
      <!-- 0.6 -->
      <g transform="translate(20.878125 108.629039)scale(0.1 -0.1)">
       <use xlink:href="#DejaVuSans-30"/>
       <use xlink:href="#DejaVuSans-2e" x="63.623047"/>
       <use xlink:href="#DejaVuSans-36" x="95.410156"/>
      </g>
     </g>
    </g>
    <g id="ytick_5">
     <g id="line2d_11">
      <g>
       <use xlink:href="#mc362eb708a" x="43.78125" y="68.187639" style="stroke: #000000; stroke-width: 0.8"/>
      </g>
     </g>
     <g id="text_12">
      <!-- 0.8 -->
      <g transform="translate(20.878125 71.986858)scale(0.1 -0.1)">
       <use xlink:href="#DejaVuSans-30"/>
       <use xlink:href="#DejaVuSans-2e" x="63.623047"/>
       <use xlink:href="#DejaVuSans-38" x="95.410156"/>
      </g>
     </g>
    </g>
    <g id="ytick_6">
     <g id="line2d_12">
      <g>
       <use xlink:href="#mc362eb708a" x="43.78125" y="31.545458" style="stroke: #000000; stroke-width: 0.8"/>
      </g>
     </g>
     <g id="text_13">
      <!-- 1.0 -->
      <g transform="translate(20.878125 35.344677)scale(0.1 -0.1)">
       <use xlink:href="#DejaVuSans-31"/>
       <use xlink:href="#DejaVuSans-2e" x="63.623047"/>
       <use xlink:href="#DejaVuSans-30" x="95.410156"/>
      </g>
     </g>
    </g>
    <g id="text_14">
     <!-- Cloude decomposition -->
     <g transform="translate(14.798438 171.602812)rotate(-90)scale(0.1 -0.1)">
      <defs>
       <path id="DejaVuSans-43" d="M 4122 4306 
L 4122 3641 
Q 3803 3938 3442 4084 
Q 3081 4231 2675 4231 
Q 1875 4231 1450 3742 
Q 1025 3253 1025 2328 
Q 1025 1406 1450 917 
Q 1875 428 2675 428 
Q 3081 428 3442 575 
Q 3803 722 4122 1019 
L 4122 359 
Q 3791 134 3420 21 
Q 3050 -91 2638 -91 
Q 1578 -91 968 557 
Q 359 1206 359 2328 
Q 359 3453 968 4101 
Q 1578 4750 2638 4750 
Q 3056 4750 3426 4639 
Q 3797 4528 4122 4306 
z
" transform="scale(0.015625)"/>
       <path id="DejaVuSans-70" d="M 1159 525 
L 1159 -1331 
L 581 -1331 
L 581 3500 
L 1159 3500 
L 1159 2969 
Q 1341 3281 1617 3432 
Q 1894 3584 2278 3584 
Q 2916 3584 3314 3078 
Q 3713 2572 3713 1747 
Q 3713 922 3314 415 
Q 2916 -91 2278 -91 
Q 1894 -91 1617 61 
Q 1341 213 1159 525 
z
M 3116 1747 
Q 3116 2381 2855 2742 
Q 2594 3103 2138 3103 
Q 1681 3103 1420 2742 
Q 1159 2381 1159 1747 
Q 1159 1113 1420 752 
Q 1681 391 2138 391 
Q 2594 391 2855 752 
Q 3116 1113 3116 1747 
z
" transform="scale(0.015625)"/>
      </defs>
      <use xlink:href="#DejaVuSans-43"/>
      <use xlink:href="#DejaVuSans-6c" x="69.824219"/>
      <use xlink:href="#DejaVuSans-6f" x="97.607422"/>
      <use xlink:href="#DejaVuSans-75" x="158.789062"/>
      <use xlink:href="#DejaVuSans-64" x="222.167969"/>
      <use xlink:href="#DejaVuSans-65" x="285.644531"/>
      <use xlink:href="#DejaVuSans-20" x="347.167969"/>
      <use xlink:href="#DejaVuSans-64" x="378.955078"/>
      <use xlink:href="#DejaVuSans-65" x="442.431641"/>
      <use xlink:href="#DejaVuSans-63" x="503.955078"/>
      <use xlink:href="#DejaVuSans-6f" x="558.935547"/>
      <use xlink:href="#DejaVuSans-6d" x="620.117188"/>
      <use xlink:href="#DejaVuSans-70" x="717.529297"/>
      <use xlink:href="#DejaVuSans-6f" x="781.005859"/>
      <use xlink:href="#DejaVuSans-73" x="842.1875"/>
      <use xlink:href="#DejaVuSans-69" x="894.287109"/>
      <use xlink:href="#DejaVuSans-74" x="922.070312"/>
      <use xlink:href="#DejaVuSans-69" x="961.279297"/>
      <use xlink:href="#DejaVuSans-6f" x="989.0625"/>
      <use xlink:href="#DejaVuSans-6e" x="1050.244141"/>
     </g>
    </g>
   </g>
   <g id="line2d_13">
    <path d="M 58.999432 17.083636 
L 62.105183 75.952289 
L 65.210935 92.55064 
L 68.316686 107.507775 
L 71.422437 109.719841 
L 74.528189 116.534277 
L 77.63394 118.777961 
L 80.739692 125.285567 
L 83.845443 127.735304 
L 86.951194 128.568916 
L 90.056946 130.575266 
L 93.162697 131.313806 
L 96.268449 134.397033 
L 99.3742 135.538931 
L 102.479951 135.300201 
L 105.585703 135.152968 
L 108.691454 137.922251 
L 111.797205 139.206821 
L 114.902957 140.720786 
L 118.008708 140.66273 
L 121.11446 141.63869 
L 124.220211 143.378082 
L 127.325962 143.913414 
L 130.431714 142.22483 
L 133.537465 143.682254 
L 136.643217 144.46125 
L 139.748968 143.8447 
L 142.854719 145.275302 
L 145.960471 146.85942 
L 149.066222 146.906263 
L 152.171974 147.405103 
L 155.277725 147.499363 
L 158.383476 146.606102 
L 161.489228 147.705563 
L 164.594979 149.458191 
L 167.700731 148.005813 
L 170.806482 147.818949 
L 173.912233 147.466697 
L 177.017985 149.408889 
L 180.123736 149.501541 
L 183.229487 150.408483 
L 186.335239 149.565609 
L 189.44099 150.529311 
L 192.546742 151.471224 
L 195.652493 150.982176 
L 198.758244 151.445232 
L 201.863996 151.166901 
L 204.969747 150.174152 
L 208.075499 151.804118 
L 211.18125 151.329884 
L 214.287001 151.695615 
L 217.392753 151.625384 
L 220.498504 151.914143 
L 223.604256 152.073413 
L 226.710007 151.793952 
L 229.815758 153.325766 
L 232.92151 152.939863 
L 236.027261 153.681994 
L 239.133013 153.495857 
L 242.238764 153.401857 
L 245.344515 152.617346 
L 248.450267 152.992732 
L 251.556018 153.788217 
L 254.661769 154.050443 
L 257.767521 153.456687 
L 260.873272 154.279131 
L 263.979024 154.483598 
L 267.084775 154.092243 
L 270.190526 154.7457 
L 273.296278 153.985656 
L 276.402029 154.135172 
L 279.507781 154.851519 
L 282.613532 155.30975 
L 285.719283 154.250358 
L 288.825035 154.976165 
L 291.930786 154.86648 
L 295.036538 155.709949 
L 298.142289 155.046044 
L 301.24804 154.801161 
L 304.353792 155.1029 
L 307.459543 155.326069 
L 310.565295 155.715046 
L 313.671046 155.267251 
L 316.776797 156.523428 
L 319.882549 155.847228 
L 322.9883 156.5359 
L 326.094051 155.958258 
L 329.199803 155.777869 
L 332.305554 155.881629 
L 335.411306 157.080266 
L 338.517057 156.788113 
L 341.622808 157.143431 
L 344.72856 156.533767 
L 347.834311 156.885448 
L 350.940063 156.238312 
L 354.045814 157.084891 
L 357.151565 156.756836 
L 360.257317 157.025743 
L 363.363068 156.13322 
" clip-path="url(#pdee9e64e32)" style="fill: none; stroke: #1f77b4; stroke-width: 1.5; stroke-linecap: square"/>
   </g>
   <g id="line2d_14">
    <path d="M 58.999432 214.756364 
L 62.105183 170.380054 
L 65.210935 165.697249 
L 68.316686 163.559565 
L 71.422437 162.907213 
L 74.528189 161.77405 
L 77.63394 160.568254 
L 80.739692 161.902717 
L 83.845443 163.246084 
L 86.951194 161.987469 
L 90.056946 162.419333 
L 93.162697 161.731662 
L 96.268449 161.287844 
L 99.3742 164.113676 
L 102.479951 162.749819 
L 105.585703 161.304891 
L 108.691454 162.518887 
L 111.797205 162.747678 
L 114.902957 162.533544 
L 118.008708 162.225806 
L 121.11446 163.321454 
L 124.220211 163.394313 
L 127.325962 164.122114 
L 130.431714 163.414535 
L 133.537465 163.563393 
L 136.643217 163.693318 
L 139.748968 163.617763 
L 142.854719 163.02708 
L 145.960471 164.932906 
L 149.066222 164.113418 
L 152.171974 164.200756 
L 155.277725 164.586884 
L 158.383476 163.066453 
L 161.489228 164.620144 
L 164.594979 164.862856 
L 167.700731 164.260608 
L 170.806482 163.526004 
L 173.912233 163.630255 
L 177.017985 164.999383 
L 180.123736 164.113665 
L 183.229487 164.303938 
L 186.335239 163.410951 
L 189.44099 164.922169 
L 192.546742 164.444213 
L 195.652493 164.862103 
L 198.758244 164.877622 
L 201.863996 165.344722 
L 204.969747 164.48621 
L 208.075499 165.372663 
L 211.18125 165.668515 
L 214.287001 164.991162 
L 217.392753 164.872258 
L 220.498504 164.738655 
L 223.604256 164.660164 
L 226.710007 164.69232 
L 229.815758 165.687878 
L 232.92151 165.033356 
L 236.027261 164.763551 
L 239.133013 165.051343 
L 242.238764 165.395787 
L 245.344515 164.950098 
L 248.450267 165.248224 
L 251.556018 164.944933 
L 254.661769 164.95284 
L 257.767521 165.164186 
L 260.873272 164.835434 
L 263.979024 165.380588 
L 267.084775 165.100423 
L 270.190526 165.785623 
L 273.296278 165.04579 
L 276.402029 164.88657 
L 279.507781 165.545185 
L 282.613532 165.554859 
L 285.719283 165.422064 
L 288.825035 165.503931 
L 291.930786 165.238027 
L 295.036538 165.8514 
L 298.142289 165.05305 
L 301.24804 165.626719 
L 304.353792 165.820846 
L 307.459543 166.101469 
L 310.565295 165.905989 
L 313.671046 164.906129 
L 316.776797 165.512886 
L 319.882549 165.404133 
L 322.9883 166.066841 
L 326.094051 165.453601 
L 329.199803 165.363716 
L 332.305554 165.542442 
L 335.411306 166.086365 
L 338.517057 165.622126 
L 341.622808 166.354625 
L 344.72856 165.700849 
L 347.834311 165.601652 
L 350.940063 165.056575 
L 354.045814 165.955479 
L 357.151565 165.647219 
L 360.257317 165.472352 
L 363.363068 165.606212 
" clip-path="url(#pdee9e64e32)" style="fill: none; stroke: #ff7f0e; stroke-width: 1.5; stroke-linecap: square"/>
   </g>
   <g id="line2d_15">
    <path d="M 58.999432 214.756364 
L 62.105183 214.756364 
L 65.210935 201.98304 
L 68.316686 198.513102 
L 71.422437 192.271262 
L 74.528189 191.670381 
L 77.63394 187.435852 
L 80.739692 185.692927 
L 83.845443 185.969138 
L 86.951194 183.808404 
L 90.056946 184.105224 
L 93.162697 182.624108 
L 96.268449 180.962266 
L 99.3742 181.186842 
L 102.479951 180.589532 
L 105.585703 180.841301 
L 108.691454 180.480315 
L 111.797205 179.429744 
L 114.902957 179.742685 
L 118.008708 179.097953 
L 121.11446 179.403133 
L 124.220211 179.178578 
L 127.325962 179.28491 
L 130.431714 178.187178 
L 133.537465 178.448919 
L 136.643217 177.962783 
L 139.748968 177.326269 
L 142.854719 177.752852 
L 145.960471 177.111349 
L 149.066222 177.279766 
L 152.171974 176.79105 
L 155.277725 177.290235 
L 158.383476 176.401568 
L 161.489228 176.526037 
L 164.594979 176.706199 
L 167.700731 175.876118 
L 170.806482 176.335963 
L 173.912233 175.506227 
L 177.017985 175.642171 
L 180.123736 175.580749 
L 183.229487 176.083442 
L 186.335239 175.205293 
L 189.44099 175.498203 
L 192.546742 174.766564 
L 195.652493 175.631351 
L 198.758244 174.613518 
L 201.863996 175.431728 
L 204.969747 174.933154 
L 208.075499 175.613437 
L 211.18125 175.374345 
L 214.287001 174.958279 
L 217.392753 174.57431 
L 220.498504 174.537053 
L 223.604256 174.823825 
L 226.710007 174.345056 
L 229.815758 174.754887 
L 232.92151 174.378701 
L 236.027261 174.352621 
L 239.133013 174.180865 
L 242.238764 175.018434 
L 245.344515 173.991256 
L 248.450267 174.053803 
L 251.556018 173.532477 
L 254.661769 173.719499 
L 257.767521 173.692702 
L 260.873272 174.443733 
L 263.979024 173.669646 
L 267.084775 173.632515 
L 270.190526 173.735088 
L 273.296278 173.787709 
L 276.402029 173.185146 
L 279.507781 174.287547 
L 282.613532 173.832526 
L 285.719283 173.749729 
L 288.825035 173.322754 
L 291.930786 173.72137 
L 295.036538 173.637115 
L 298.142289 173.534431 
L 301.24804 173.353996 
L 304.353792 173.302129 
L 307.459543 173.813603 
L 310.565295 173.576762 
L 313.671046 173.266963 
L 316.776797 173.529618 
L 319.882549 173.141456 
L 322.9883 173.360148 
L 326.094051 173.485141 
L 329.199803 173.032382 
L 332.305554 173.09793 
L 335.411306 172.892807 
L 338.517057 173.110401 
L 341.622808 173.374671 
L 344.72856 172.854539 
L 347.834311 173.264243 
L 350.940063 173.184197 
L 354.045814 172.791156 
L 357.151565 172.829397 
L 360.257317 172.893917 
L 363.363068 173.062367 
" clip-path="url(#pdee9e64e32)" style="fill: none; stroke: #2ca02c; stroke-width: 1.5; stroke-linecap: square"/>
   </g>
   <g id="line2d_16">
    <path d="M 58.999432 214.756364 
L 62.105183 214.756364 
L 65.210935 214.756364 
L 68.316686 211.685211 
L 71.422437 208.588995 
L 74.528189 206.610131 
L 77.63394 203.892811 
L 80.739692 203.064591 
L 83.845443 201.653614 
L 86.951194 200.191037 
L 90.056946 199.511404 
L 93.162697 197.252557 
L 96.268449 196.394843 
L 99.3742 196.151193 
L 102.479951 196.186955 
L 105.585703 194.022423 
L 108.691454 194.239642 
L 111.797205 193.391868 
L 114.902957 193.075678 
L 118.008708 191.993756 
L 121.11446 191.909295 
L 124.220211 191.627247 
L 127.325962 191.30171 
L 130.431714 189.997015 
L 133.537465 190.204443 
L 136.643217 190.967569 
L 139.748968 189.28503 
L 142.854719 188.910461 
L 145.960471 188.226964 
L 149.066222 188.265299 
L 152.171974 188.264683 
L 155.277725 187.006157 
L 158.383476 187.503534 
L 161.489228 187.596739 
L 164.594979 187.797337 
L 167.700731 186.903214 
L 170.806482 187.351983 
L 173.912233 186.340216 
L 177.017985 185.947939 
L 180.123736 186.279286 
L 183.229487 186.210921 
L 186.335239 185.614848 
L 189.44099 185.487556 
L 192.546742 185.38739 
L 195.652493 185.022857 
L 198.758244 184.307989 
L 201.863996 184.688935 
L 204.969747 184.319193 
L 208.075499 184.648159 
L 211.18125 184.200493 
L 214.287001 184.601767 
L 217.392753 184.318375 
L 220.498504 183.543745 
L 223.604256 183.751947 
L 226.710007 183.128734 
L 229.815758 183.489053 
L 232.92151 183.213659 
L 236.027261 183.450779 
L 239.133013 182.403203 
L 242.238764 182.891031 
L 245.344515 182.821916 
L 248.450267 182.138873 
L 251.556018 182.274531 
L 254.661769 182.499114 
L 257.767521 182.31079 
L 260.873272 182.446528 
L 263.979024 182.273889 
L 267.084775 182.099192 
L 270.190526 182.092555 
L 273.296278 182.013534 
L 276.402029 181.468024 
L 279.507781 181.839042 
L 282.613532 181.338758 
L 285.719283 181.63582 
L 288.825035 181.783207 
L 291.930786 181.635979 
L 295.036538 181.614688 
L 298.142289 181.422904 
L 301.24804 181.065058 
L 304.353792 180.968995 
L 307.459543 181.218955 
L 310.565295 181.296331 
L 313.671046 180.958072 
L 316.776797 181.391483 
L 319.882549 181.194537 
L 322.9883 181.301794 
L 326.094051 180.546089 
L 329.199803 180.647026 
L 332.305554 180.388587 
L 335.411306 180.690209 
L 338.517057 180.629134 
L 341.622808 180.494351 
L 344.72856 180.43721 
L 347.834311 180.135236 
L 350.940063 180.481814 
L 354.045814 179.916145 
L 357.151565 180.477251 
L 360.257317 179.97958 
L 363.363068 180.126661 
" clip-path="url(#pdee9e64e32)" style="fill: none; stroke: #d62728; stroke-width: 1.5; stroke-linecap: square"/>
   </g>
   <g id="patch_3">
    <path d="M 43.78125 224.64 
L 43.78125 7.2 
" style="fill: none; stroke: #000000; stroke-width: 0.8; stroke-linejoin: miter; stroke-linecap: square"/>
   </g>
   <g id="patch_4">
    <path d="M 378.58125 224.64 
L 378.58125 7.2 
" style="fill: none; stroke: #000000; stroke-width: 0.8; stroke-linejoin: miter; stroke-linecap: square"/>
   </g>
   <g id="patch_5">
    <path d="M 43.78125 224.64 
L 378.58125 224.64 
" style="fill: none; stroke: #000000; stroke-width: 0.8; stroke-linejoin: miter; stroke-linecap: square"/>
   </g>
   <g id="patch_6">
    <path d="M 43.78125 7.2 
L 378.58125 7.2 
" style="fill: none; stroke: #000000; stroke-width: 0.8; stroke-linejoin: miter; stroke-linecap: square"/>
   </g>
  </g>
 </g>
 <defs>
  <clipPath id="pdee9e64e32">
   <rect x="43.78125" y="7.2" width="334.8" height="217.44"/>
  </clipPath>
 </defs>
</svg>
