<?xml version="1.0" encoding="utf-8" standalone="no"?>
<!DOCTYPE svg PUBLIC "-//W3C//DTD SVG 1.1//EN"
  "http://www.w3.org/Graphics/SVG/1.1/DTD/svg11.dtd">
<!-- Created with matplotlib (https://matplotlib.org/) -->
<svg height="574.678125pt" version="1.1" viewBox="0 0 610.045312 574.678125" width="610.045312pt" xmlns="http://www.w3.org/2000/svg" xmlns:xlink="http://www.w3.org/1999/xlink">
 <defs>
  <style type="text/css">
*{stroke-linecap:butt;stroke-linejoin:round;}
  </style>
 </defs>
 <g id="figure_1">
  <g id="patch_1">
   <path d="M 0 574.678125 
L 610.045312 574.678125 
L 610.045312 0 
L 0 0 
z
" style="fill:none;"/>
  </g>
  <g id="axes_1">
   <g id="patch_2">
    <path d="M 44.845313 550.8 
L 602.845312 550.8 
L 602.845312 7.2 
L 44.845313 7.2 
z
" style="fill:#ffffff;"/>
   </g>
   <g id="PathCollection_1">
    <path clip-path="url(#p3bf0a873bc)" d="M 93.578496 317.92906 
C 93.837667 317.92906 94.086257 317.826091 94.269519 317.642829 
C 94.45278 317.459568 94.55575 317.210977 94.55575 316.951806 
C 94.55575 316.692635 94.45278 316.444044 94.269519 316.260783 
C 94.086257 316.077521 93.837667 315.974551 93.578496 315.974551 
C 93.319325 315.974551 93.070734 316.077521 92.887472 316.260783 
C 92.704211 316.444044 92.601241 316.692635 92.601241 316.951806 
C 92.601241 317.210977 92.704211 317.459568 92.887472 317.642829 
C 93.070734 317.826091 93.319325 317.92906 93.578496 317.92906 
z
" style="fill:#1f77b4;stroke:#1f77b4;"/>
    <path clip-path="url(#p3bf0a873bc)" d="M 93.578496 242.439022 
C 93.947347 242.439022 94.301142 242.292475 94.561959 242.031658 
C 94.822777 241.77084 94.969323 241.417046 94.969323 241.048194 
C 94.969323 240.679342 94.822777 240.325548 94.561959 240.064731 
C 94.301142 239.803913 93.947347 239.657367 93.578496 239.657367 
C 93.209644 239.657367 92.85585 239.803913 92.595032 240.064731 
C 92.334215 240.325548 92.187668 240.679342 92.187668 241.048194 
C 92.187668 241.417046 92.334215 241.77084 92.595032 242.031658 
C 92.85585 242.292475 93.209644 242.439022 93.578496 242.439022 
z
" style="fill:#1f77b4;stroke:#1f77b4;"/>
    <path clip-path="url(#p3bf0a873bc)" d="M 161.062756 432.647513 
C 161.550807 432.647513 162.018933 432.453608 162.364037 432.108504 
C 162.709141 431.763401 162.903045 431.295274 162.903045 430.807223 
C 162.903045 430.319173 162.709141 429.851046 162.364037 429.505942 
C 162.018933 429.160838 161.550807 428.966934 161.062756 428.966934 
C 160.574706 428.966934 160.106579 429.160838 159.761475 429.505942 
C 159.416371 429.851046 159.222467 430.319173 159.222467 430.807223 
C 159.222467 431.295274 159.416371 431.763401 159.761475 432.108504 
C 160.106579 432.453608 160.574706 432.647513 161.062756 432.647513 
z
" style="fill:#1f77b4;stroke:#1f77b4;"/>
    <path clip-path="url(#p3bf0a873bc)" d="M 161.062756 357.024654 
C 161.625263 357.024654 162.164807 356.801168 162.56256 356.403415 
C 162.960312 356.005663 163.183798 355.466119 163.183798 354.903612 
C 163.183798 354.341105 162.960312 353.801561 162.56256 353.403808 
C 162.164807 353.006056 161.625263 352.782569 161.062756 352.782569 
C 160.500249 352.782569 159.960705 353.006056 159.562953 353.403808 
C 159.1652 353.801561 158.941714 354.341105 158.941714 354.903612 
C 158.941714 355.466119 159.1652 356.005663 159.562953 356.403415 
C 159.960705 356.801168 160.500249 357.024654 161.062756 357.024654 
z
" style="fill:#1f77b4;stroke:#1f77b4;"/>
    <path clip-path="url(#p3bf0a873bc)" d="M 161.062756 283.373592 
C 162.222646 283.373592 163.335186 282.912762 164.155352 282.092596 
C 164.975519 281.27243 165.436348 280.15989 165.436348 279 
C 165.436348 277.84011 164.975519 276.72757 164.155352 275.907404 
C 163.335186 275.087238 162.222646 274.626408 161.062756 274.626408 
C 159.902866 274.626408 158.790326 275.087238 157.97016 275.907404 
C 157.149994 276.72757 156.689164 277.84011 156.689164 279 
C 156.689164 280.15989 157.149994 281.27243 157.97016 282.092596 
C 158.790326 282.912762 159.902866 283.373592 161.062756 283.373592 
z
" style="fill:#1f77b4;stroke:#1f77b4;"/>
    <path clip-path="url(#p3bf0a873bc)" d="M 161.062756 205.027185 
C 161.574809 205.027185 162.065959 204.823744 162.428035 204.461667 
C 162.790111 204.099591 162.993552 203.608441 162.993552 203.096388 
C 162.993552 202.584335 162.790111 202.093185 162.428035 201.731109 
C 162.065959 201.369033 161.574809 201.165592 161.062756 201.165592 
C 160.550703 201.165592 160.059553 201.369033 159.697477 201.731109 
C 159.335401 202.093185 159.13196 202.584335 159.13196 203.096388 
C 159.13196 203.608441 159.335401 204.099591 159.697477 204.461667 
C 160.059553 204.823744 160.550703 205.027185 161.062756 205.027185 
z
" style="fill:#1f77b4;stroke:#1f77b4;"/>
    <path clip-path="url(#p3bf0a873bc)" d="M 161.062756 128.726125 
C 161.469405 128.726125 161.859453 128.564562 162.146997 128.277018 
C 162.434541 127.989474 162.596105 127.599425 162.596105 127.192777 
C 162.596105 126.786128 162.434541 126.39608 162.146997 126.108535 
C 161.859453 125.820991 161.469405 125.659428 161.062756 125.659428 
C 160.656107 125.659428 160.266059 125.820991 159.978515 126.108535 
C 159.690971 126.39608 159.529408 126.786128 159.529408 127.192777 
C 159.529408 127.599425 159.690971 127.989474 159.978515 128.277018 
C 160.266059 128.564562 160.656107 128.726125 161.062756 128.726125 
z
" style="fill:#1f77b4;stroke:#1f77b4;"/>
    <path clip-path="url(#p3bf0a873bc)" d="M 228.547017 470.313739 
C 228.95933 470.313739 229.354812 470.149925 229.646362 469.858375 
C 229.937912 469.566825 230.101726 469.171343 230.101726 468.759029 
C 230.101726 468.346715 229.937912 467.951233 229.646362 467.659683 
C 229.354812 467.368134 228.95933 467.20432 228.547017 467.20432 
C 228.134703 467.20432 227.739221 467.368134 227.447671 467.659683 
C 227.156121 467.951233 226.992307 468.346715 226.992307 468.759029 
C 226.992307 469.171343 227.156121 469.566825 227.447671 469.858375 
C 227.739221 470.149925 228.134703 470.313739 228.547017 470.313739 
z
" style="fill:#1f77b4;stroke:#1f77b4;"/>
    <path clip-path="url(#p3bf0a873bc)" d="M 228.547017 395.447215 
C 229.234369 395.447215 229.893662 395.174127 230.379694 394.688095 
C 230.865726 394.202063 231.138814 393.54277 231.138814 392.855418 
C 231.138814 392.168065 230.865726 391.508772 230.379694 391.02274 
C 229.893662 390.536708 229.234369 390.26362 228.547017 390.26362 
C 227.859664 390.26362 227.200371 390.536708 226.714339 391.02274 
C 226.228307 391.508772 225.955219 392.168065 225.955219 392.855418 
C 225.955219 393.54277 226.228307 394.202063 226.714339 394.688095 
C 227.200371 395.174127 227.859664 395.447215 228.547017 395.447215 
z
" style="fill:#1f77b4;stroke:#1f77b4;"/>
    <path clip-path="url(#p3bf0a873bc)" d="M 228.547017 322.367826 
C 229.983362 322.367826 231.361072 321.79716 232.376721 320.781511 
C 233.392371 319.765861 233.963037 318.388151 233.963037 316.951806 
C 233.963037 315.51546 233.392371 314.137751 232.376721 313.122101 
C 231.361072 312.106451 229.983362 311.535785 228.547017 311.535785 
C 227.110671 311.535785 225.732961 312.106451 224.717312 313.122101 
C 223.701662 314.137751 223.130996 315.51546 223.130996 316.951806 
C 223.130996 318.388151 223.701662 319.765861 224.717312 320.781511 
C 225.732961 321.79716 227.110671 322.367826 228.547017 322.367826 
z
" style="fill:#1f77b4;stroke:#1f77b4;"/>
    <path clip-path="url(#p3bf0a873bc)" d="M 228.547017 246.690909 
C 230.043482 246.690909 231.478858 246.096357 232.537019 245.038196 
C 233.59518 243.980035 234.189732 242.54466 234.189732 241.048194 
C 234.189732 239.551729 233.59518 238.116353 232.537019 237.058192 
C 231.478858 236.000031 230.043482 235.405479 228.547017 235.405479 
C 227.050551 235.405479 225.615175 236.000031 224.557014 237.058192 
C 223.498853 238.116353 222.904301 239.551729 222.904301 241.048194 
C 222.904301 242.54466 223.498853 243.980035 224.557014 245.038196 
C 225.615175 246.096357 227.050551 246.690909 228.547017 246.690909 
z
" style="fill:#1f77b4;stroke:#1f77b4;"/>
    <path clip-path="url(#p3bf0a873bc)" d="M 228.547017 167.569529 
C 229.19012 167.569529 229.80697 167.314021 230.261712 166.859278 
C 230.716455 166.404536 230.971963 165.787686 230.971963 165.144582 
C 230.971963 164.501479 230.716455 163.884629 230.261712 163.429887 
C 229.80697 162.975144 229.19012 162.719636 228.547017 162.719636 
C 227.903913 162.719636 227.287063 162.975144 226.832321 163.429887 
C 226.377578 163.884629 226.12207 164.501479 226.12207 165.144582 
C 226.12207 165.787686 226.377578 166.404536 226.832321 166.859278 
C 227.287063 167.314021 227.903913 167.569529 228.547017 167.569529 
z
" style="fill:#1f77b4;stroke:#1f77b4;"/>
    <path clip-path="url(#p3bf0a873bc)" d="M 228.547017 91.016831 
C 229.01798 91.016831 229.469718 90.829715 229.802739 90.496693 
C 230.135761 90.163672 230.322876 89.711934 230.322876 89.240971 
C 230.322876 88.770007 230.135761 88.31827 229.802739 87.985248 
C 229.469718 87.652227 229.01798 87.465111 228.547017 87.465111 
C 228.076053 87.465111 227.624315 87.652227 227.291294 87.985248 
C 226.958272 88.31827 226.771157 88.770007 226.771157 89.240971 
C 226.771157 89.711934 226.958272 90.163672 227.291294 90.496693 
C 227.624315 90.829715 228.076053 91.016831 228.547017 91.016831 
z
" style="fill:#1f77b4;stroke:#1f77b4;"/>
    <path clip-path="url(#p3bf0a873bc)" d="M 296.031277 508.873129 
C 296.604724 508.873129 297.154762 508.645297 297.56025 508.239808 
C 297.965738 507.83432 298.193571 507.284282 298.193571 506.710835 
C 298.193571 506.137388 297.965738 505.58735 297.56025 505.181862 
C 297.154762 504.776374 296.604724 504.548541 296.031277 504.548541 
C 295.45783 504.548541 294.907792 504.776374 294.502304 505.181862 
C 294.096816 505.58735 293.868983 506.137388 293.868983 506.710835 
C 293.868983 507.284282 294.096816 507.83432 294.502304 508.239808 
C 294.907792 508.645297 295.45783 508.873129 296.031277 508.873129 
z
" style="fill:#1f77b4;stroke:#1f77b4;"/>
    <path clip-path="url(#p3bf0a873bc)" d="M 296.031277 431.781666 
C 296.289702 431.781666 296.537578 431.678993 296.720312 431.496259 
C 296.903047 431.313524 297.00572 431.065649 297.00572 430.807223 
C 297.00572 430.548798 296.903047 430.300922 296.720312 430.118188 
C 296.537578 429.935454 296.289702 429.83278 296.031277 429.83278 
C 295.772852 429.83278 295.524976 429.935454 295.342242 430.118188 
C 295.159507 430.300922 295.056834 430.548798 295.056834 430.807223 
C 295.056834 431.065649 295.159507 431.313524 295.342242 431.496259 
C 295.524976 431.678993 295.772852 431.781666 296.031277 431.781666 
z
" style="fill:#1f77b4;stroke:#1f77b4;"/>
    <path clip-path="url(#p3bf0a873bc)" d="M 296.031277 360.852555 
C 297.608955 360.852555 299.122228 360.225737 300.237815 359.11015 
C 301.353402 357.994563 301.98022 356.48129 301.98022 354.903612 
C 301.98022 353.325933 301.353402 351.812661 300.237815 350.697074 
C 299.122228 349.581487 297.608955 348.954668 296.031277 348.954668 
C 294.453599 348.954668 292.940326 349.581487 291.824739 350.697074 
C 290.709152 351.812661 290.082334 353.325933 290.082334 354.903612 
C 290.082334 356.48129 290.709152 357.994563 291.824739 359.11015 
C 292.940326 360.225737 294.453599 360.852555 296.031277 360.852555 
z
" style="fill:#1f77b4;stroke:#1f77b4;"/>
    <path clip-path="url(#p3bf0a873bc)" d="M 296.031277 282.308719 
C 296.908759 282.308719 297.750421 281.960091 298.370894 281.339617 
C 298.991368 280.719144 299.339996 279.877482 299.339996 279 
C 299.339996 278.122518 298.991368 277.280856 298.370894 276.660383 
C 297.750421 276.039909 296.908759 275.691281 296.031277 275.691281 
C 295.153795 275.691281 294.312133 276.039909 293.69166 276.660383 
C 293.071186 277.280856 292.722558 278.122518 292.722558 279 
C 292.722558 279.877482 293.071186 280.719144 293.69166 281.339617 
C 294.312133 281.960091 295.153795 282.308719 296.031277 282.308719 
z
" style="fill:#1f77b4;stroke:#1f77b4;"/>
    <path clip-path="url(#p3bf0a873bc)" d="M 296.031277 208.628874 
C 297.498509 208.628874 298.905845 208.045936 299.943335 207.008446 
C 300.980825 205.970956 301.563762 204.563621 301.563762 203.096388 
C 301.563762 201.629156 300.980825 200.22182 299.943335 199.18433 
C 298.905845 198.14684 297.498509 197.563903 296.031277 197.563903 
C 294.564045 197.563903 293.156709 198.14684 292.119219 199.18433 
C 291.081729 200.22182 290.498791 201.629156 290.498791 203.096388 
C 290.498791 204.563621 291.081729 205.970956 292.119219 207.008446 
C 293.156709 208.045936 294.564045 208.628874 296.031277 208.628874 
z
" style="fill:#1f77b4;stroke:#1f77b4;"/>
    <path clip-path="url(#p3bf0a873bc)" d="M 296.031277 128.502424 
C 296.3786 128.502424 296.711743 128.364431 296.957338 128.118837 
C 297.202932 127.873243 297.340924 127.540099 297.340924 127.192777 
C 297.340924 126.845454 297.202932 126.51231 296.957338 126.266716 
C 296.711743 126.021122 296.3786 125.883129 296.031277 125.883129 
C 295.683954 125.883129 295.350811 126.021122 295.105216 126.266716 
C 294.859622 126.51231 294.72163 126.845454 294.72163 127.192777 
C 294.72163 127.540099 294.859622 127.873243 295.105216 128.118837 
C 295.350811 128.364431 295.683954 128.502424 296.031277 128.502424 
z
" style="fill:#1f77b4;stroke:#1f77b4;"/>
    <path clip-path="url(#p3bf0a873bc)" d="M 296.031277 52.852078 
C 296.445766 52.852078 296.843335 52.687399 297.136423 52.394311 
C 297.429511 52.101223 297.59419 51.703654 297.59419 51.289165 
C 297.59419 50.874676 297.429511 50.477107 297.136423 50.184019 
C 296.843335 49.89093 296.445766 49.726252 296.031277 49.726252 
C 295.616788 49.726252 295.219219 49.89093 294.926131 50.184019 
C 294.633043 50.477107 294.468364 50.874676 294.468364 51.289165 
C 294.468364 51.703654 294.633043 52.101223 294.926131 52.394311 
C 295.219219 52.687399 295.616788 52.852078 296.031277 52.852078 
z
" style="fill:#1f77b4;stroke:#1f77b4;"/>
    <path clip-path="url(#p3bf0a873bc)" d="M 363.515537 469.80947 
C 363.794118 469.80947 364.061325 469.698789 364.258311 469.501803 
C 364.455297 469.304817 364.565978 469.037609 364.565978 468.759029 
C 364.565978 468.480449 364.455297 468.213241 364.258311 468.016255 
C 364.061325 467.819269 363.794118 467.708588 363.515537 467.708588 
C 363.236957 467.708588 362.969749 467.819269 362.772764 468.016255 
C 362.575778 468.213241 362.465097 468.480449 362.465097 468.759029 
C 362.465097 469.037609 362.575778 469.304817 362.772764 469.501803 
C 362.969749 469.698789 363.236957 469.80947 363.515537 469.80947 
z
" style="fill:#1f77b4;stroke:#1f77b4;"/>
    <path clip-path="url(#p3bf0a873bc)" d="M 363.515537 397.473516 
C 364.740272 397.473516 365.915009 396.986924 366.781026 396.120906 
C 367.647044 395.254889 368.133636 394.080152 368.133636 392.855418 
C 368.133636 391.630683 367.647044 390.455946 366.781026 389.589929 
C 365.915009 388.723911 364.740272 388.237319 363.515537 388.237319 
C 362.290803 388.237319 361.116066 388.723911 360.250049 389.589929 
C 359.384031 390.455946 358.897439 391.630683 358.897439 392.855418 
C 358.897439 394.080152 359.384031 395.254889 360.250049 396.120906 
C 361.116066 396.986924 362.290803 397.473516 363.515537 397.473516 
z
" style="fill:#1f77b4;stroke:#1f77b4;"/>
    <path clip-path="url(#p3bf0a873bc)" d="M 363.515537 320.847449 
C 364.548674 320.847449 365.539635 320.436979 366.270173 319.706441 
C 367.000711 318.975903 367.41118 317.984942 367.41118 316.951806 
C 367.41118 315.918669 367.000711 314.927708 366.270173 314.19717 
C 365.539635 313.466633 364.548674 313.056163 363.515537 313.056163 
C 362.482401 313.056163 361.49144 313.466633 360.760902 314.19717 
C 360.030364 314.927708 359.619895 315.918669 359.619895 316.951806 
C 359.619895 317.984942 360.030364 318.975903 360.760902 319.706441 
C 361.49144 320.436979 362.482401 320.847449 363.515537 320.847449 
z
" style="fill:#1f77b4;stroke:#1f77b4;"/>
    <path clip-path="url(#p3bf0a873bc)" d="M 363.515537 244.723241 
C 364.490171 244.723241 365.425018 244.336014 366.114188 243.646844 
C 366.803358 242.957674 367.190584 242.022828 367.190584 241.048194 
C 367.190584 240.07356 366.803358 239.138714 366.114188 238.449544 
C 365.425018 237.760374 364.490171 237.373148 363.515537 237.373148 
C 362.540904 237.373148 361.606057 237.760374 360.916887 238.449544 
C 360.227717 239.138714 359.840491 240.07356 359.840491 241.048194 
C 359.840491 242.022828 360.227717 242.957674 360.916887 243.646844 
C 361.606057 244.336014 362.540904 244.723241 363.515537 244.723241 
z
" style="fill:#1f77b4;stroke:#1f77b4;"/>
    <path clip-path="url(#p3bf0a873bc)" d="M 363.515537 170.333266 
C 364.891592 170.333266 366.211473 169.786553 367.184491 168.813536 
C 368.157508 167.840518 368.704221 166.520637 368.704221 165.144582 
C 368.704221 163.768528 368.157508 162.448647 367.184491 161.475629 
C 366.211473 160.502612 364.891592 159.955899 363.515537 159.955899 
C 362.139483 159.955899 360.819602 160.502612 359.846584 161.475629 
C 358.873567 162.448647 358.326854 163.768528 358.326854 165.144582 
C 358.326854 166.520637 358.873567 167.840518 359.846584 168.813536 
C 360.819602 169.786553 362.139483 170.333266 363.515537 170.333266 
z
" style="fill:#1f77b4;stroke:#1f77b4;"/>
    <path clip-path="url(#p3bf0a873bc)" d="M 363.515537 90.458947 
C 363.838548 90.458947 364.148373 90.330613 364.376776 90.10221 
C 364.60518 89.873807 364.733513 89.563982 364.733513 89.240971 
C 364.733513 88.91796 364.60518 88.608135 364.376776 88.379732 
C 364.148373 88.151329 363.838548 88.022995 363.515537 88.022995 
C 363.192526 88.022995 362.882702 88.151329 362.654298 88.379732 
C 362.425895 88.608135 362.297562 88.91796 362.297562 89.240971 
C 362.297562 89.563982 362.425895 89.873807 362.654298 90.10221 
C 362.882702 90.330613 363.192526 90.458947 363.515537 90.458947 
z
" style="fill:#1f77b4;stroke:#1f77b4;"/>
    <path clip-path="url(#p3bf0a873bc)" d="M 430.999798 432.639467 
C 431.485715 432.639467 431.951795 432.44641 432.29539 432.102815 
C 432.638985 431.75922 432.832042 431.29314 432.832042 430.807223 
C 432.832042 430.321307 432.638985 429.855226 432.29539 429.511631 
C 431.951795 429.168036 431.485715 428.97498 430.999798 428.97498 
C 430.513881 428.97498 430.047801 429.168036 429.704206 429.511631 
C 429.360611 429.855226 429.167554 430.321307 429.167554 430.807223 
C 429.167554 431.29314 429.360611 431.75922 429.704206 432.102815 
C 430.047801 432.44641 430.513881 432.639467 430.999798 432.639467 
z
" style="fill:#1f77b4;stroke:#1f77b4;"/>
    <path clip-path="url(#p3bf0a873bc)" d="M 430.999798 361.197283 
C 432.668899 361.197283 434.269863 360.534142 435.450095 359.353909 
C 436.630328 358.173676 437.293469 356.572713 437.293469 354.903612 
C 437.293469 353.234511 436.630328 351.633547 435.450095 350.453314 
C 434.269863 349.273082 432.668899 348.609941 430.999798 348.609941 
C 429.330697 348.609941 427.729733 349.273082 426.549501 350.453314 
C 425.369268 351.633547 424.706127 353.234511 424.706127 354.903612 
C 424.706127 356.572713 425.369268 358.173676 426.549501 359.353909 
C 427.729733 360.534142 429.330697 361.197283 430.999798 361.197283 
z
" style="fill:#1f77b4;stroke:#1f77b4;"/>
    <path clip-path="url(#p3bf0a873bc)" d="M 430.999798 286.673922 
C 433.034946 286.673922 434.987013 285.865349 436.42608 284.426282 
C 437.865147 282.987215 438.67372 281.035148 438.67372 279 
C 438.67372 276.964852 437.865147 275.012785 436.42608 273.573718 
C 434.987013 272.134651 433.034946 271.326078 430.999798 271.326078 
C 428.96465 271.326078 427.012583 272.134651 425.573516 273.573718 
C 424.134449 275.012785 423.325876 276.964852 423.325876 279 
C 423.325876 281.035148 424.134449 282.987215 425.573516 284.426282 
C 427.012583 285.865349 428.96465 286.673922 430.999798 286.673922 
z
" style="fill:#1f77b4;stroke:#1f77b4;"/>
    <path clip-path="url(#p3bf0a873bc)" d="M 430.999798 209.592473 
C 432.72258 209.592473 434.375033 208.908005 435.593224 207.689814 
C 436.811414 206.471623 437.495883 204.81917 437.495883 203.096388 
C 437.495883 201.373606 436.811414 199.721153 435.593224 198.502963 
C 434.375033 197.284772 432.72258 196.600303 430.999798 196.600303 
C 429.277016 196.600303 427.624563 197.284772 426.406372 198.502963 
C 425.188182 199.721153 424.503713 201.373606 424.503713 203.096388 
C 424.503713 204.81917 425.188182 206.471623 426.406372 207.689814 
C 427.624563 208.908005 429.277016 209.592473 430.999798 209.592473 
z
" style="fill:#1f77b4;stroke:#1f77b4;"/>
    <path clip-path="url(#p3bf0a873bc)" d="M 430.999798 129.407679 
C 431.587197 129.407679 432.150617 129.174303 432.56597 128.758949 
C 432.981324 128.343595 433.2147 127.780176 433.2147 127.192777 
C 433.2147 126.605378 432.981324 126.041958 432.56597 125.626604 
C 432.150617 125.21125 431.587197 124.977874 430.999798 124.977874 
C 430.412399 124.977874 429.848979 125.21125 429.433625 125.626604 
C 429.018272 126.041958 428.784895 126.605378 428.784895 127.192777 
C 428.784895 127.780176 429.018272 128.343595 429.433625 128.758949 
C 429.848979 129.174303 430.412399 129.407679 430.999798 129.407679 
z
" style="fill:#1f77b4;stroke:#1f77b4;"/>
    <path clip-path="url(#p3bf0a873bc)" d="M 498.484058 394.475848 
C 498.913801 394.475848 499.326001 394.305109 499.629876 394.001235 
C 499.93375 393.69736 500.104489 393.285161 500.104489 392.855418 
C 500.104489 392.425674 499.93375 392.013475 499.629876 391.7096 
C 499.326001 391.405726 498.913801 391.234987 498.484058 391.234987 
C 498.054315 391.234987 497.642115 391.405726 497.338241 391.7096 
C 497.034367 392.013475 496.863628 392.425674 496.863628 392.855418 
C 496.863628 393.285161 497.034367 393.69736 497.338241 394.001235 
C 497.642115 394.305109 498.054315 394.475848 498.484058 394.475848 
z
" style="fill:#1f77b4;stroke:#1f77b4;"/>
    <path clip-path="url(#p3bf0a873bc)" d="M 498.484058 319.359425 
C 499.122567 319.359425 499.735009 319.105743 500.186502 318.65425 
C 500.637996 318.202756 500.891678 317.590314 500.891678 316.951806 
C 500.891678 316.313298 500.637996 315.700855 500.186502 315.249362 
C 499.735009 314.797868 499.122567 314.544186 498.484058 314.544186 
C 497.84555 314.544186 497.233108 314.797868 496.781614 315.249362 
C 496.330121 315.700855 496.076439 316.313298 496.076439 316.951806 
C 496.076439 317.590314 496.330121 318.202756 496.781614 318.65425 
C 497.233108 319.105743 497.84555 319.359425 498.484058 319.359425 
z
" style="fill:#1f77b4;stroke:#1f77b4;"/>
    <path clip-path="url(#p3bf0a873bc)" d="M 498.484058 243.789055 
C 499.210943 243.789055 499.908155 243.500261 500.42214 242.986276 
C 500.936125 242.472291 501.22492 241.775079 501.22492 241.048194 
C 501.22492 240.321309 500.936125 239.624098 500.42214 239.110113 
C 499.908155 238.596127 499.210943 238.307333 498.484058 238.307333 
C 497.757173 238.307333 497.059962 238.596127 496.545977 239.110113 
C 496.031992 239.624098 495.743197 240.321309 495.743197 241.048194 
C 495.743197 241.775079 496.031992 242.472291 496.545977 242.986276 
C 497.059962 243.500261 497.757173 243.789055 498.484058 243.789055 
z
" style="fill:#1f77b4;stroke:#1f77b4;"/>
    <path clip-path="url(#p3bf0a873bc)" d="M 498.484058 167.23306 
C 499.037929 167.23306 499.569189 167.013005 499.960835 166.621359 
C 500.352481 166.229713 500.572536 165.698453 500.572536 165.144582 
C 500.572536 164.590712 500.352481 164.059452 499.960835 163.667806 
C 499.569189 163.27616 499.037929 163.056105 498.484058 163.056105 
C 497.930188 163.056105 497.398928 163.27616 497.007282 163.667806 
C 496.615636 164.059452 496.395581 164.590712 496.395581 165.144582 
C 496.395581 165.698453 496.615636 166.229713 497.007282 166.621359 
C 497.398928 167.013005 497.930188 167.23306 498.484058 167.23306 
z
" style="fill:#1f77b4;stroke:#1f77b4;"/>
    <path clip-path="url(#p3bf0a873bc)" d="M 565.968319 280.269848 
C 566.305086 280.269848 566.628106 280.136049 566.866237 279.897918 
C 567.104367 279.659787 567.238167 279.336768 567.238167 279 
C 567.238167 278.663232 567.104367 278.340213 566.866237 278.102082 
C 566.628106 277.863951 566.305086 277.730152 565.968319 277.730152 
C 565.631551 277.730152 565.308532 277.863951 565.070401 278.102082 
C 564.83227 278.340213 564.698471 278.663232 564.698471 279 
C 564.698471 279.336768 564.83227 279.659787 565.070401 279.897918 
C 565.308532 280.136049 565.631551 280.269848 565.968319 280.269848 
z
" style="fill:#1f77b4;stroke:#1f77b4;"/>
   </g>
   <g id="matplotlib.axis_1">
    <g id="xtick_1">
     <g id="line2d_1">
      <defs>
       <path d="M 0 0 
L 0 3.5 
" id="m6e20a70d9d" style="stroke:#000000;stroke-width:0.8;"/>
      </defs>
      <g>
       <use style="stroke:#000000;stroke-width:0.8;" x="70.081222" xlink:href="#m6e20a70d9d" y="550.8"/>
      </g>
     </g>
     <g id="text_1">
      <!-- −1.00 -->
      <defs>
       <path d="M 10.59375 35.5 
L 73.1875 35.5 
L 73.1875 27.203125 
L 10.59375 27.203125 
z
" id="DejaVuSans-8722"/>
       <path d="M 12.40625 8.296875 
L 28.515625 8.296875 
L 28.515625 63.921875 
L 10.984375 60.40625 
L 10.984375 69.390625 
L 28.421875 72.90625 
L 38.28125 72.90625 
L 38.28125 8.296875 
L 54.390625 8.296875 
L 54.390625 0 
L 12.40625 0 
z
" id="DejaVuSans-49"/>
       <path d="M 10.6875 12.40625 
L 21 12.40625 
L 21 0 
L 10.6875 0 
z
" id="DejaVuSans-46"/>
       <path d="M 31.78125 66.40625 
Q 24.171875 66.40625 20.328125 58.90625 
Q 16.5 51.421875 16.5 36.375 
Q 16.5 21.390625 20.328125 13.890625 
Q 24.171875 6.390625 31.78125 6.390625 
Q 39.453125 6.390625 43.28125 13.890625 
Q 47.125 21.390625 47.125 36.375 
Q 47.125 51.421875 43.28125 58.90625 
Q 39.453125 66.40625 31.78125 66.40625 
z
M 31.78125 74.21875 
Q 44.046875 74.21875 50.515625 64.515625 
Q 56.984375 54.828125 56.984375 36.375 
Q 56.984375 17.96875 50.515625 8.265625 
Q 44.046875 -1.421875 31.78125 -1.421875 
Q 19.53125 -1.421875 13.0625 8.265625 
Q 6.59375 17.96875 6.59375 36.375 
Q 6.59375 54.828125 13.0625 64.515625 
Q 19.53125 74.21875 31.78125 74.21875 
z
" id="DejaVuSans-48"/>
      </defs>
      <g transform="translate(54.758565 565.398438)scale(0.1 -0.1)">
       <use xlink:href="#DejaVuSans-8722"/>
       <use x="83.789062" xlink:href="#DejaVuSans-49"/>
       <use x="147.412109" xlink:href="#DejaVuSans-46"/>
       <use x="179.199219" xlink:href="#DejaVuSans-48"/>
       <use x="242.822266" xlink:href="#DejaVuSans-48"/>
      </g>
     </g>
    </g>
    <g id="xtick_2">
     <g id="line2d_2">
      <g>
       <use style="stroke:#000000;stroke-width:0.8;" x="133.506278" xlink:href="#m6e20a70d9d" y="550.8"/>
      </g>
     </g>
     <g id="text_2">
      <!-- −0.75 -->
      <defs>
       <path d="M 8.203125 72.90625 
L 55.078125 72.90625 
L 55.078125 68.703125 
L 28.609375 0 
L 18.3125 0 
L 43.21875 64.59375 
L 8.203125 64.59375 
z
" id="DejaVuSans-55"/>
       <path d="M 10.796875 72.90625 
L 49.515625 72.90625 
L 49.515625 64.59375 
L 19.828125 64.59375 
L 19.828125 46.734375 
Q 21.96875 47.46875 24.109375 47.828125 
Q 26.265625 48.1875 28.421875 48.1875 
Q 40.625 48.1875 47.75 41.5 
Q 54.890625 34.8125 54.890625 23.390625 
Q 54.890625 11.625 47.5625 5.09375 
Q 40.234375 -1.421875 26.90625 -1.421875 
Q 22.3125 -1.421875 17.546875 -0.640625 
Q 12.796875 0.140625 7.71875 1.703125 
L 7.71875 11.625 
Q 12.109375 9.234375 16.796875 8.0625 
Q 21.484375 6.890625 26.703125 6.890625 
Q 35.15625 6.890625 40.078125 11.328125 
Q 45.015625 15.765625 45.015625 23.390625 
Q 45.015625 31 40.078125 35.4375 
Q 35.15625 39.890625 26.703125 39.890625 
Q 22.75 39.890625 18.8125 39.015625 
Q 14.890625 38.140625 10.796875 36.28125 
z
" id="DejaVuSans-53"/>
      </defs>
      <g transform="translate(118.183622 565.398438)scale(0.1 -0.1)">
       <use xlink:href="#DejaVuSans-8722"/>
       <use x="83.789062" xlink:href="#DejaVuSans-48"/>
       <use x="147.412109" xlink:href="#DejaVuSans-46"/>
       <use x="179.199219" xlink:href="#DejaVuSans-55"/>
       <use x="242.822266" xlink:href="#DejaVuSans-53"/>
      </g>
     </g>
    </g>
    <g id="xtick_3">
     <g id="line2d_3">
      <g>
       <use style="stroke:#000000;stroke-width:0.8;" x="196.931335" xlink:href="#m6e20a70d9d" y="550.8"/>
      </g>
     </g>
     <g id="text_3">
      <!-- −0.50 -->
      <g transform="translate(181.608679 565.398438)scale(0.1 -0.1)">
       <use xlink:href="#DejaVuSans-8722"/>
       <use x="83.789062" xlink:href="#DejaVuSans-48"/>
       <use x="147.412109" xlink:href="#DejaVuSans-46"/>
       <use x="179.199219" xlink:href="#DejaVuSans-53"/>
       <use x="242.822266" xlink:href="#DejaVuSans-48"/>
      </g>
     </g>
    </g>
    <g id="xtick_4">
     <g id="line2d_4">
      <g>
       <use style="stroke:#000000;stroke-width:0.8;" x="260.356392" xlink:href="#m6e20a70d9d" y="550.8"/>
      </g>
     </g>
     <g id="text_4">
      <!-- −0.25 -->
      <defs>
       <path d="M 19.1875 8.296875 
L 53.609375 8.296875 
L 53.609375 0 
L 7.328125 0 
L 7.328125 8.296875 
Q 12.9375 14.109375 22.625 23.890625 
Q 32.328125 33.6875 34.8125 36.53125 
Q 39.546875 41.84375 41.421875 45.53125 
Q 43.3125 49.21875 43.3125 52.78125 
Q 43.3125 58.59375 39.234375 62.25 
Q 35.15625 65.921875 28.609375 65.921875 
Q 23.96875 65.921875 18.8125 64.3125 
Q 13.671875 62.703125 7.8125 59.421875 
L 7.8125 69.390625 
Q 13.765625 71.78125 18.9375 73 
Q 24.125 74.21875 28.421875 74.21875 
Q 39.75 74.21875 46.484375 68.546875 
Q 53.21875 62.890625 53.21875 53.421875 
Q 53.21875 48.921875 51.53125 44.890625 
Q 49.859375 40.875 45.40625 35.40625 
Q 44.1875 33.984375 37.640625 27.21875 
Q 31.109375 20.453125 19.1875 8.296875 
z
" id="DejaVuSans-50"/>
      </defs>
      <g transform="translate(245.033736 565.398438)scale(0.1 -0.1)">
       <use xlink:href="#DejaVuSans-8722"/>
       <use x="83.789062" xlink:href="#DejaVuSans-48"/>
       <use x="147.412109" xlink:href="#DejaVuSans-46"/>
       <use x="179.199219" xlink:href="#DejaVuSans-50"/>
       <use x="242.822266" xlink:href="#DejaVuSans-53"/>
      </g>
     </g>
    </g>
    <g id="xtick_5">
     <g id="line2d_5">
      <g>
       <use style="stroke:#000000;stroke-width:0.8;" x="323.781449" xlink:href="#m6e20a70d9d" y="550.8"/>
      </g>
     </g>
     <g id="text_5">
      <!-- 0.00 -->
      <g transform="translate(312.648636 565.398438)scale(0.1 -0.1)">
       <use xlink:href="#DejaVuSans-48"/>
       <use x="63.623047" xlink:href="#DejaVuSans-46"/>
       <use x="95.410156" xlink:href="#DejaVuSans-48"/>
       <use x="159.033203" xlink:href="#DejaVuSans-48"/>
      </g>
     </g>
    </g>
    <g id="xtick_6">
     <g id="line2d_6">
      <g>
       <use style="stroke:#000000;stroke-width:0.8;" x="387.206506" xlink:href="#m6e20a70d9d" y="550.8"/>
      </g>
     </g>
     <g id="text_6">
      <!-- 0.25 -->
      <g transform="translate(376.073693 565.398438)scale(0.1 -0.1)">
       <use xlink:href="#DejaVuSans-48"/>
       <use x="63.623047" xlink:href="#DejaVuSans-46"/>
       <use x="95.410156" xlink:href="#DejaVuSans-50"/>
       <use x="159.033203" xlink:href="#DejaVuSans-53"/>
      </g>
     </g>
    </g>
    <g id="xtick_7">
     <g id="line2d_7">
      <g>
       <use style="stroke:#000000;stroke-width:0.8;" x="450.631562" xlink:href="#m6e20a70d9d" y="550.8"/>
      </g>
     </g>
     <g id="text_7">
      <!-- 0.50 -->
      <g transform="translate(439.49875 565.398438)scale(0.1 -0.1)">
       <use xlink:href="#DejaVuSans-48"/>
       <use x="63.623047" xlink:href="#DejaVuSans-46"/>
       <use x="95.410156" xlink:href="#DejaVuSans-53"/>
       <use x="159.033203" xlink:href="#DejaVuSans-48"/>
      </g>
     </g>
    </g>
    <g id="xtick_8">
     <g id="line2d_8">
      <g>
       <use style="stroke:#000000;stroke-width:0.8;" x="514.056619" xlink:href="#m6e20a70d9d" y="550.8"/>
      </g>
     </g>
     <g id="text_8">
      <!-- 0.75 -->
      <g transform="translate(502.923807 565.398438)scale(0.1 -0.1)">
       <use xlink:href="#DejaVuSans-48"/>
       <use x="63.623047" xlink:href="#DejaVuSans-46"/>
       <use x="95.410156" xlink:href="#DejaVuSans-55"/>
       <use x="159.033203" xlink:href="#DejaVuSans-53"/>
      </g>
     </g>
    </g>
    <g id="xtick_9">
     <g id="line2d_9">
      <g>
       <use style="stroke:#000000;stroke-width:0.8;" x="577.481676" xlink:href="#m6e20a70d9d" y="550.8"/>
      </g>
     </g>
     <g id="text_9">
      <!-- 1.00 -->
      <g transform="translate(566.348864 565.398438)scale(0.1 -0.1)">
       <use xlink:href="#DejaVuSans-49"/>
       <use x="63.623047" xlink:href="#DejaVuSans-46"/>
       <use x="95.410156" xlink:href="#DejaVuSans-48"/>
       <use x="159.033203" xlink:href="#DejaVuSans-48"/>
      </g>
     </g>
    </g>
   </g>
   <g id="matplotlib.axis_2">
    <g id="ytick_1">
     <g id="line2d_10">
      <defs>
       <path d="M 0 0 
L -3.5 0 
" id="mc0bb272e65" style="stroke:#000000;stroke-width:0.8;"/>
      </defs>
      <g>
       <use style="stroke:#000000;stroke-width:0.8;" x="44.845313" xlink:href="#mc0bb272e65" y="526.122015"/>
      </g>
     </g>
     <g id="text_10">
      <!-- −1.00 -->
      <g transform="translate(7.2 529.921234)scale(0.1 -0.1)">
       <use xlink:href="#DejaVuSans-8722"/>
       <use x="83.789062" xlink:href="#DejaVuSans-49"/>
       <use x="147.412109" xlink:href="#DejaVuSans-46"/>
       <use x="179.199219" xlink:href="#DejaVuSans-48"/>
       <use x="242.822266" xlink:href="#DejaVuSans-48"/>
      </g>
     </g>
    </g>
    <g id="ytick_2">
     <g id="line2d_11">
      <g>
       <use style="stroke:#000000;stroke-width:0.8;" x="44.845313" xlink:href="#mc0bb272e65" y="464.341511"/>
      </g>
     </g>
     <g id="text_11">
      <!-- −0.75 -->
      <g transform="translate(7.2 468.14073)scale(0.1 -0.1)">
       <use xlink:href="#DejaVuSans-8722"/>
       <use x="83.789062" xlink:href="#DejaVuSans-48"/>
       <use x="147.412109" xlink:href="#DejaVuSans-46"/>
       <use x="179.199219" xlink:href="#DejaVuSans-55"/>
       <use x="242.822266" xlink:href="#DejaVuSans-53"/>
      </g>
     </g>
    </g>
    <g id="ytick_3">
     <g id="line2d_12">
      <g>
       <use style="stroke:#000000;stroke-width:0.8;" x="44.845313" xlink:href="#mc0bb272e65" y="402.561007"/>
      </g>
     </g>
     <g id="text_12">
      <!-- −0.50 -->
      <g transform="translate(7.2 406.360226)scale(0.1 -0.1)">
       <use xlink:href="#DejaVuSans-8722"/>
       <use x="83.789062" xlink:href="#DejaVuSans-48"/>
       <use x="147.412109" xlink:href="#DejaVuSans-46"/>
       <use x="179.199219" xlink:href="#DejaVuSans-53"/>
       <use x="242.822266" xlink:href="#DejaVuSans-48"/>
      </g>
     </g>
    </g>
    <g id="ytick_4">
     <g id="line2d_13">
      <g>
       <use style="stroke:#000000;stroke-width:0.8;" x="44.845313" xlink:href="#mc0bb272e65" y="340.780504"/>
      </g>
     </g>
     <g id="text_13">
      <!-- −0.25 -->
      <g transform="translate(7.2 344.579722)scale(0.1 -0.1)">
       <use xlink:href="#DejaVuSans-8722"/>
       <use x="83.789062" xlink:href="#DejaVuSans-48"/>
       <use x="147.412109" xlink:href="#DejaVuSans-46"/>
       <use x="179.199219" xlink:href="#DejaVuSans-50"/>
       <use x="242.822266" xlink:href="#DejaVuSans-53"/>
      </g>
     </g>
    </g>
    <g id="ytick_5">
     <g id="line2d_14">
      <g>
       <use style="stroke:#000000;stroke-width:0.8;" x="44.845313" xlink:href="#mc0bb272e65" y="279"/>
      </g>
     </g>
     <g id="text_14">
      <!-- 0.00 -->
      <g transform="translate(15.579688 282.799219)scale(0.1 -0.1)">
       <use xlink:href="#DejaVuSans-48"/>
       <use x="63.623047" xlink:href="#DejaVuSans-46"/>
       <use x="95.410156" xlink:href="#DejaVuSans-48"/>
       <use x="159.033203" xlink:href="#DejaVuSans-48"/>
      </g>
     </g>
    </g>
    <g id="ytick_6">
     <g id="line2d_15">
      <g>
       <use style="stroke:#000000;stroke-width:0.8;" x="44.845313" xlink:href="#mc0bb272e65" y="217.219496"/>
      </g>
     </g>
     <g id="text_15">
      <!-- 0.25 -->
      <g transform="translate(15.579688 221.018715)scale(0.1 -0.1)">
       <use xlink:href="#DejaVuSans-48"/>
       <use x="63.623047" xlink:href="#DejaVuSans-46"/>
       <use x="95.410156" xlink:href="#DejaVuSans-50"/>
       <use x="159.033203" xlink:href="#DejaVuSans-53"/>
      </g>
     </g>
    </g>
    <g id="ytick_7">
     <g id="line2d_16">
      <g>
       <use style="stroke:#000000;stroke-width:0.8;" x="44.845313" xlink:href="#mc0bb272e65" y="155.438993"/>
      </g>
     </g>
     <g id="text_16">
      <!-- 0.50 -->
      <g transform="translate(15.579688 159.238211)scale(0.1 -0.1)">
       <use xlink:href="#DejaVuSans-48"/>
       <use x="63.623047" xlink:href="#DejaVuSans-46"/>
       <use x="95.410156" xlink:href="#DejaVuSans-53"/>
       <use x="159.033203" xlink:href="#DejaVuSans-48"/>
      </g>
     </g>
    </g>
    <g id="ytick_8">
     <g id="line2d_17">
      <g>
       <use style="stroke:#000000;stroke-width:0.8;" x="44.845313" xlink:href="#mc0bb272e65" y="93.658489"/>
      </g>
     </g>
     <g id="text_17">
      <!-- 0.75 -->
      <g transform="translate(15.579688 97.457708)scale(0.1 -0.1)">
       <use xlink:href="#DejaVuSans-48"/>
       <use x="63.623047" xlink:href="#DejaVuSans-46"/>
       <use x="95.410156" xlink:href="#DejaVuSans-55"/>
       <use x="159.033203" xlink:href="#DejaVuSans-53"/>
      </g>
     </g>
    </g>
    <g id="ytick_9">
     <g id="line2d_18">
      <g>
       <use style="stroke:#000000;stroke-width:0.8;" x="44.845313" xlink:href="#mc0bb272e65" y="31.877985"/>
      </g>
     </g>
     <g id="text_18">
      <!-- 1.00 -->
      <g transform="translate(15.579688 35.677204)scale(0.1 -0.1)">
       <use xlink:href="#DejaVuSans-49"/>
       <use x="63.623047" xlink:href="#DejaVuSans-46"/>
       <use x="95.410156" xlink:href="#DejaVuSans-48"/>
       <use x="159.033203" xlink:href="#DejaVuSans-48"/>
      </g>
     </g>
    </g>
   </g>
   <g id="line2d_19">
    <path clip-path="url(#p3bf0a873bc)" d="M 577.481676 279 
L 576.970895 263.326553 
L 575.44061 247.716218 
L 572.896983 232.231851 
L 569.350254 216.935803 
L 564.814707 201.889666 
L 559.308604 187.154025 
L 552.854117 172.788215 
L 545.477234 158.850083 
L 537.207661 145.395752 
L 528.078696 132.479398 
L 518.127098 120.153031 
L 507.392939 108.466284 
L 495.919441 97.466217 
L 483.752804 87.197122 
L 470.942019 77.700349 
L 457.53867 69.01414 
L 443.596728 61.173469 
L 429.172332 54.209908 
L 414.323564 48.151499 
L 399.110216 43.022634 
L 383.593544 38.843967 
L 367.836031 35.632324 
L 351.901125 33.400636 
L 335.852992 32.157891 
L 319.75625 31.909091 
L 303.675717 32.655239 
L 287.676142 34.393331 
L 271.821951 37.116367 
L 256.176982 40.813384 
L 240.804232 45.469494 
L 225.765603 51.065948 
L 211.121648 57.580213 
L 196.931335 64.986057 
L 183.251803 73.25366 
L 170.138134 82.349731 
L 157.643132 92.237642 
L 145.81711 102.87758 
L 134.707689 114.226701 
L 124.3596 126.239306 
L 114.814513 138.867024 
L 106.110862 152.059008 
L 98.283693 165.762139 
L 91.364525 179.921238 
L 85.381217 194.479293 
L 80.357863 209.377683 
L 76.31469 224.556417 
L 73.267978 239.954377 
L 71.229996 255.509559 
L 70.208949 271.159329 
L 70.208949 286.840671 
L 71.229996 302.490441 
L 73.267978 318.045623 
L 76.31469 333.443583 
L 80.357863 348.622317 
L 85.381217 363.520707 
L 91.364525 378.078762 
L 98.283693 392.237861 
L 106.110862 405.940992 
L 114.814513 419.132976 
L 124.3596 431.760694 
L 134.707689 443.773299 
L 145.81711 455.12242 
L 157.643132 465.762358 
L 170.138134 475.650269 
L 183.251803 484.74634 
L 196.931335 493.013943 
L 211.121648 500.419787 
L 225.765603 506.934052 
L 240.804232 512.530506 
L 256.176982 517.186616 
L 271.821951 520.883633 
L 287.676142 523.606669 
L 303.675717 525.344761 
L 319.75625 526.090909 
L 335.852992 525.842109 
L 351.901125 524.599364 
L 367.836031 522.367676 
L 383.593544 519.156033 
L 399.110216 514.977366 
L 414.323564 509.848501 
L 429.172332 503.790092 
L 443.596728 496.826531 
L 457.53867 488.98586 
L 470.942019 480.299651 
L 483.752804 470.802878 
L 495.919441 460.533783 
L 507.392939 449.533716 
L 518.127098 437.846969 
L 528.078696 425.520602 
L 537.207661 412.604248 
L 545.477234 399.149917 
L 552.854117 385.211785 
L 559.308604 370.845975 
L 564.814707 356.110334 
L 569.350254 341.064197 
L 572.896983 325.768149 
L 575.44061 310.283782 
L 576.970895 294.673447 
L 577.481676 279 
" style="fill:none;stroke:#ff0000;stroke-linecap:square;stroke-width:1.5;"/>
   </g>
   <g id="patch_3">
    <path d="M 44.845313 550.8 
L 44.845313 7.2 
" style="fill:none;stroke:#000000;stroke-linecap:square;stroke-linejoin:miter;stroke-width:0.8;"/>
   </g>
   <g id="patch_4">
    <path d="M 602.845312 550.8 
L 602.845312 7.2 
" style="fill:none;stroke:#000000;stroke-linecap:square;stroke-linejoin:miter;stroke-width:0.8;"/>
   </g>
   <g id="patch_5">
    <path d="M 44.845313 550.8 
L 602.845313 550.8 
" style="fill:none;stroke:#000000;stroke-linecap:square;stroke-linejoin:miter;stroke-width:0.8;"/>
   </g>
   <g id="patch_6">
    <path d="M 44.845313 7.2 
L 602.845313 7.2 
" style="fill:none;stroke:#000000;stroke-linecap:square;stroke-linejoin:miter;stroke-width:0.8;"/>
   </g>
  </g>
 </g>
 <defs>
  <clipPath id="p3bf0a873bc">
   <rect height="543.6" width="558" x="44.845313" y="7.2"/>
  </clipPath>
 </defs>
</svg>
