<?xml version="1.0" encoding="utf-8" standalone="no"?>
<!DOCTYPE svg PUBLIC "-//W3C//DTD SVG 1.1//EN"
  "http://www.w3.org/Graphics/SVG/1.1/DTD/svg11.dtd">
<svg xmlns:xlink="http://www.w3.org/1999/xlink" width="380.482812pt" height="262.19625pt" viewBox="0 0 380.482812 262.19625" xmlns="http://www.w3.org/2000/svg" version="1.1">
 <metadata>
  <rdf:RDF xmlns:dc="http://purl.org/dc/elements/1.1/" xmlns:cc="http://creativecommons.org/ns#" xmlns:rdf="http://www.w3.org/1999/02/22-rdf-syntax-ns#">
   <cc:Work>
    <dc:type rdf:resource="http://purl.org/dc/dcmitype/StillImage"/>
    <dc:date>2024-12-19T14:06:11.382927</dc:date>
    <dc:format>image/svg+xml</dc:format>
    <dc:creator>
     <cc:Agent>
      <dc:title>Matplotlib v3.5.2, https://matplotlib.org/</dc:title>
     </cc:Agent>
    </dc:creator>
   </cc:Work>
  </rdf:RDF>
 </metadata>
 <defs>
  <style type="text/css">*{stroke-linejoin: round; stroke-linecap: butt}</style>
 </defs>
 <g id="figure_1">
  <g id="patch_1">
   <path d="M -0 262.19625 
L 380.482812 262.19625 
L 380.482812 0 
L -0 0 
L -0 262.19625 
z
" style="fill: none"/>
  </g>
  <g id="axes_1">
   <g id="patch_2">
    <path d="M 38.482813 224.64 
L 373.282813 224.64 
L 373.282813 7.2 
L 38.482813 7.2 
z
" style="fill: #ffffff"/>
   </g>
   <g id="matplotlib.axis_1">
    <g id="xtick_1">
     <g id="line2d_1">
      <defs>
       <path id="m42108d9b32" d="M 0 0 
L 0 3.5 
" style="stroke: #000000; stroke-width: 0.8"/>
      </defs>
      <g>
       <use xlink:href="#m42108d9b32" x="53.700994" y="224.64" style="stroke: #000000; stroke-width: 0.8"/>
      </g>
     </g>
     <g id="text_1">
      <!-- 200 -->
      <g transform="translate(44.157244 239.238437)scale(0.1 -0.1)">
       <defs>
        <path id="DejaVuSans-32" d="M 1228 531 
L 3431 531 
L 3431 0 
L 469 0 
L 469 531 
Q 828 903 1448 1529 
Q 2069 2156 2228 2338 
Q 2531 2678 2651 2914 
Q 2772 3150 2772 3378 
Q 2772 3750 2511 3984 
Q 2250 4219 1831 4219 
Q 1534 4219 1204 4116 
Q 875 4013 500 3803 
L 500 4441 
Q 881 4594 1212 4672 
Q 1544 4750 1819 4750 
Q 2544 4750 2975 4387 
Q 3406 4025 3406 3419 
Q 3406 3131 3298 2873 
Q 3191 2616 2906 2266 
Q 2828 2175 2409 1742 
Q 1991 1309 1228 531 
z
" transform="scale(0.015625)"/>
        <path id="DejaVuSans-30" d="M 2034 4250 
Q 1547 4250 1301 3770 
Q 1056 3291 1056 2328 
Q 1056 1369 1301 889 
Q 1547 409 2034 409 
Q 2525 409 2770 889 
Q 3016 1369 3016 2328 
Q 3016 3291 2770 3770 
Q 2525 4250 2034 4250 
z
M 2034 4750 
Q 2819 4750 3233 4129 
Q 3647 3509 3647 2328 
Q 3647 1150 3233 529 
Q 2819 -91 2034 -91 
Q 1250 -91 836 529 
Q 422 1150 422 2328 
Q 422 3509 836 4129 
Q 1250 4750 2034 4750 
z
" transform="scale(0.015625)"/>
       </defs>
       <use xlink:href="#DejaVuSans-32"/>
       <use xlink:href="#DejaVuSans-30" x="63.623047"/>
       <use xlink:href="#DejaVuSans-30" x="127.246094"/>
      </g>
     </g>
    </g>
    <g id="xtick_2">
     <g id="line2d_2">
      <g>
       <use xlink:href="#m42108d9b32" x="100.526169" y="224.64" style="stroke: #000000; stroke-width: 0.8"/>
      </g>
     </g>
     <g id="text_2">
      <!-- 400 -->
      <g transform="translate(90.982419 239.238437)scale(0.1 -0.1)">
       <defs>
        <path id="DejaVuSans-34" d="M 2419 4116 
L 825 1625 
L 2419 1625 
L 2419 4116 
z
M 2253 4666 
L 3047 4666 
L 3047 1625 
L 3713 1625 
L 3713 1100 
L 3047 1100 
L 3047 0 
L 2419 0 
L 2419 1100 
L 313 1100 
L 313 1709 
L 2253 4666 
z
" transform="scale(0.015625)"/>
       </defs>
       <use xlink:href="#DejaVuSans-34"/>
       <use xlink:href="#DejaVuSans-30" x="63.623047"/>
       <use xlink:href="#DejaVuSans-30" x="127.246094"/>
      </g>
     </g>
    </g>
    <g id="xtick_3">
     <g id="line2d_3">
      <g>
       <use xlink:href="#m42108d9b32" x="147.351344" y="224.64" style="stroke: #000000; stroke-width: 0.8"/>
      </g>
     </g>
     <g id="text_3">
      <!-- 600 -->
      <g transform="translate(137.807594 239.238437)scale(0.1 -0.1)">
       <defs>
        <path id="DejaVuSans-36" d="M 2113 2584 
Q 1688 2584 1439 2293 
Q 1191 2003 1191 1497 
Q 1191 994 1439 701 
Q 1688 409 2113 409 
Q 2538 409 2786 701 
Q 3034 994 3034 1497 
Q 3034 2003 2786 2293 
Q 2538 2584 2113 2584 
z
M 3366 4563 
L 3366 3988 
Q 3128 4100 2886 4159 
Q 2644 4219 2406 4219 
Q 1781 4219 1451 3797 
Q 1122 3375 1075 2522 
Q 1259 2794 1537 2939 
Q 1816 3084 2150 3084 
Q 2853 3084 3261 2657 
Q 3669 2231 3669 1497 
Q 3669 778 3244 343 
Q 2819 -91 2113 -91 
Q 1303 -91 875 529 
Q 447 1150 447 2328 
Q 447 3434 972 4092 
Q 1497 4750 2381 4750 
Q 2619 4750 2861 4703 
Q 3103 4656 3366 4563 
z
" transform="scale(0.015625)"/>
       </defs>
       <use xlink:href="#DejaVuSans-36"/>
       <use xlink:href="#DejaVuSans-30" x="63.623047"/>
       <use xlink:href="#DejaVuSans-30" x="127.246094"/>
      </g>
     </g>
    </g>
    <g id="xtick_4">
     <g id="line2d_4">
      <g>
       <use xlink:href="#m42108d9b32" x="194.176519" y="224.64" style="stroke: #000000; stroke-width: 0.8"/>
      </g>
     </g>
     <g id="text_4">
      <!-- 800 -->
      <g transform="translate(184.632769 239.238437)scale(0.1 -0.1)">
       <defs>
        <path id="DejaVuSans-38" d="M 2034 2216 
Q 1584 2216 1326 1975 
Q 1069 1734 1069 1313 
Q 1069 891 1326 650 
Q 1584 409 2034 409 
Q 2484 409 2743 651 
Q 3003 894 3003 1313 
Q 3003 1734 2745 1975 
Q 2488 2216 2034 2216 
z
M 1403 2484 
Q 997 2584 770 2862 
Q 544 3141 544 3541 
Q 544 4100 942 4425 
Q 1341 4750 2034 4750 
Q 2731 4750 3128 4425 
Q 3525 4100 3525 3541 
Q 3525 3141 3298 2862 
Q 3072 2584 2669 2484 
Q 3125 2378 3379 2068 
Q 3634 1759 3634 1313 
Q 3634 634 3220 271 
Q 2806 -91 2034 -91 
Q 1263 -91 848 271 
Q 434 634 434 1313 
Q 434 1759 690 2068 
Q 947 2378 1403 2484 
z
M 1172 3481 
Q 1172 3119 1398 2916 
Q 1625 2713 2034 2713 
Q 2441 2713 2670 2916 
Q 2900 3119 2900 3481 
Q 2900 3844 2670 4047 
Q 2441 4250 2034 4250 
Q 1625 4250 1398 4047 
Q 1172 3844 1172 3481 
z
" transform="scale(0.015625)"/>
       </defs>
       <use xlink:href="#DejaVuSans-38"/>
       <use xlink:href="#DejaVuSans-30" x="63.623047"/>
       <use xlink:href="#DejaVuSans-30" x="127.246094"/>
      </g>
     </g>
    </g>
    <g id="xtick_5">
     <g id="line2d_5">
      <g>
       <use xlink:href="#m42108d9b32" x="241.001694" y="224.64" style="stroke: #000000; stroke-width: 0.8"/>
      </g>
     </g>
     <g id="text_5">
      <!-- 1000 -->
      <g transform="translate(228.276694 239.238437)scale(0.1 -0.1)">
       <defs>
        <path id="DejaVuSans-31" d="M 794 531 
L 1825 531 
L 1825 4091 
L 703 3866 
L 703 4441 
L 1819 4666 
L 2450 4666 
L 2450 531 
L 3481 531 
L 3481 0 
L 794 0 
L 794 531 
z
" transform="scale(0.015625)"/>
       </defs>
       <use xlink:href="#DejaVuSans-31"/>
       <use xlink:href="#DejaVuSans-30" x="63.623047"/>
       <use xlink:href="#DejaVuSans-30" x="127.246094"/>
       <use xlink:href="#DejaVuSans-30" x="190.869141"/>
      </g>
     </g>
    </g>
    <g id="xtick_6">
     <g id="line2d_6">
      <g>
       <use xlink:href="#m42108d9b32" x="287.826868" y="224.64" style="stroke: #000000; stroke-width: 0.8"/>
      </g>
     </g>
     <g id="text_6">
      <!-- 1200 -->
      <g transform="translate(275.101868 239.238437)scale(0.1 -0.1)">
       <use xlink:href="#DejaVuSans-31"/>
       <use xlink:href="#DejaVuSans-32" x="63.623047"/>
       <use xlink:href="#DejaVuSans-30" x="127.246094"/>
       <use xlink:href="#DejaVuSans-30" x="190.869141"/>
      </g>
     </g>
    </g>
    <g id="xtick_7">
     <g id="line2d_7">
      <g>
       <use xlink:href="#m42108d9b32" x="334.652043" y="224.64" style="stroke: #000000; stroke-width: 0.8"/>
      </g>
     </g>
     <g id="text_7">
      <!-- 1400 -->
      <g transform="translate(321.927043 239.238437)scale(0.1 -0.1)">
       <use xlink:href="#DejaVuSans-31"/>
       <use xlink:href="#DejaVuSans-34" x="63.623047"/>
       <use xlink:href="#DejaVuSans-30" x="127.246094"/>
       <use xlink:href="#DejaVuSans-30" x="190.869141"/>
      </g>
     </g>
    </g>
    <g id="text_8">
     <!-- $\lambda$ / nm -->
     <g transform="translate(189.982812 252.916562)scale(0.1 -0.1)">
      <defs>
       <path id="DejaVuSans-Oblique-3bb" d="M 2350 4316 
L 3125 0 
L 2516 0 
L 2038 2588 
L 328 0 
L -281 0 
L 1903 3356 
L 1794 3975 
Q 1725 4369 1391 4369 
L 1091 4369 
L 1184 4863 
L 1550 4856 
Q 2253 4847 2350 4316 
z
" transform="scale(0.015625)"/>
       <path id="DejaVuSans-20" transform="scale(0.015625)"/>
       <path id="DejaVuSans-2f" d="M 1625 4666 
L 2156 4666 
L 531 -594 
L 0 -594 
L 1625 4666 
z
" transform="scale(0.015625)"/>
       <path id="DejaVuSans-6e" d="M 3513 2113 
L 3513 0 
L 2938 0 
L 2938 2094 
Q 2938 2591 2744 2837 
Q 2550 3084 2163 3084 
Q 1697 3084 1428 2787 
Q 1159 2491 1159 1978 
L 1159 0 
L 581 0 
L 581 3500 
L 1159 3500 
L 1159 2956 
Q 1366 3272 1645 3428 
Q 1925 3584 2291 3584 
Q 2894 3584 3203 3211 
Q 3513 2838 3513 2113 
z
" transform="scale(0.015625)"/>
       <path id="DejaVuSans-6d" d="M 3328 2828 
Q 3544 3216 3844 3400 
Q 4144 3584 4550 3584 
Q 5097 3584 5394 3201 
Q 5691 2819 5691 2113 
L 5691 0 
L 5113 0 
L 5113 2094 
Q 5113 2597 4934 2840 
Q 4756 3084 4391 3084 
Q 3944 3084 3684 2787 
Q 3425 2491 3425 1978 
L 3425 0 
L 2847 0 
L 2847 2094 
Q 2847 2600 2669 2842 
Q 2491 3084 2119 3084 
Q 1678 3084 1418 2786 
Q 1159 2488 1159 1978 
L 1159 0 
L 581 0 
L 581 3500 
L 1159 3500 
L 1159 2956 
Q 1356 3278 1631 3431 
Q 1906 3584 2284 3584 
Q 2666 3584 2933 3390 
Q 3200 3197 3328 2828 
z
" transform="scale(0.015625)"/>
      </defs>
      <use xlink:href="#DejaVuSans-Oblique-3bb" transform="translate(0 0.015625)"/>
      <use xlink:href="#DejaVuSans-20" transform="translate(59.179688 0.015625)"/>
      <use xlink:href="#DejaVuSans-2f" transform="translate(90.966797 0.015625)"/>
      <use xlink:href="#DejaVuSans-20" transform="translate(124.658203 0.015625)"/>
      <use xlink:href="#DejaVuSans-6e" transform="translate(156.445312 0.015625)"/>
      <use xlink:href="#DejaVuSans-6d" transform="translate(219.824219 0.015625)"/>
     </g>
    </g>
   </g>
   <g id="matplotlib.axis_2">
    <g id="ytick_1">
     <g id="line2d_8">
      <defs>
       <path id="m2395406bf1" d="M 0 0 
L -3.5 0 
" style="stroke: #000000; stroke-width: 0.8"/>
      </defs>
      <g>
       <use xlink:href="#m2395406bf1" x="38.482813" y="215.979425" style="stroke: #000000; stroke-width: 0.8"/>
      </g>
     </g>
     <g id="text_9">
      <!-- −0.3 -->
      <g transform="translate(7.2 219.778644)scale(0.1 -0.1)">
       <defs>
        <path id="DejaVuSans-2212" d="M 678 2272 
L 4684 2272 
L 4684 1741 
L 678 1741 
L 678 2272 
z
" transform="scale(0.015625)"/>
        <path id="DejaVuSans-2e" d="M 684 794 
L 1344 794 
L 1344 0 
L 684 0 
L 684 794 
z
" transform="scale(0.015625)"/>
        <path id="DejaVuSans-33" d="M 2597 2516 
Q 3050 2419 3304 2112 
Q 3559 1806 3559 1356 
Q 3559 666 3084 287 
Q 2609 -91 1734 -91 
Q 1441 -91 1130 -33 
Q 819 25 488 141 
L 488 750 
Q 750 597 1062 519 
Q 1375 441 1716 441 
Q 2309 441 2620 675 
Q 2931 909 2931 1356 
Q 2931 1769 2642 2001 
Q 2353 2234 1838 2234 
L 1294 2234 
L 1294 2753 
L 1863 2753 
Q 2328 2753 2575 2939 
Q 2822 3125 2822 3475 
Q 2822 3834 2567 4026 
Q 2313 4219 1838 4219 
Q 1578 4219 1281 4162 
Q 984 4106 628 3988 
L 628 4550 
Q 988 4650 1302 4700 
Q 1616 4750 1894 4750 
Q 2613 4750 3031 4423 
Q 3450 4097 3450 3541 
Q 3450 3153 3228 2886 
Q 3006 2619 2597 2516 
z
" transform="scale(0.015625)"/>
       </defs>
       <use xlink:href="#DejaVuSans-2212"/>
       <use xlink:href="#DejaVuSans-30" x="83.789062"/>
       <use xlink:href="#DejaVuSans-2e" x="147.412109"/>
       <use xlink:href="#DejaVuSans-33" x="179.199219"/>
      </g>
     </g>
    </g>
    <g id="ytick_2">
     <g id="line2d_9">
      <g>
       <use xlink:href="#m2395406bf1" x="38.482813" y="188.874389" style="stroke: #000000; stroke-width: 0.8"/>
      </g>
     </g>
     <g id="text_10">
      <!-- −0.2 -->
      <g transform="translate(7.2 192.673608)scale(0.1 -0.1)">
       <use xlink:href="#DejaVuSans-2212"/>
       <use xlink:href="#DejaVuSans-30" x="83.789062"/>
       <use xlink:href="#DejaVuSans-2e" x="147.412109"/>
       <use xlink:href="#DejaVuSans-32" x="179.199219"/>
      </g>
     </g>
    </g>
    <g id="ytick_3">
     <g id="line2d_10">
      <g>
       <use xlink:href="#m2395406bf1" x="38.482813" y="161.769353" style="stroke: #000000; stroke-width: 0.8"/>
      </g>
     </g>
     <g id="text_11">
      <!-- −0.1 -->
      <g transform="translate(7.2 165.568572)scale(0.1 -0.1)">
       <use xlink:href="#DejaVuSans-2212"/>
       <use xlink:href="#DejaVuSans-30" x="83.789062"/>
       <use xlink:href="#DejaVuSans-2e" x="147.412109"/>
       <use xlink:href="#DejaVuSans-31" x="179.199219"/>
      </g>
     </g>
    </g>
    <g id="ytick_4">
     <g id="line2d_11">
      <g>
       <use xlink:href="#m2395406bf1" x="38.482813" y="134.664317" style="stroke: #000000; stroke-width: 0.8"/>
      </g>
     </g>
     <g id="text_12">
      <!-- 0.0 -->
      <g transform="translate(15.579688 138.463536)scale(0.1 -0.1)">
       <use xlink:href="#DejaVuSans-30"/>
       <use xlink:href="#DejaVuSans-2e" x="63.623047"/>
       <use xlink:href="#DejaVuSans-30" x="95.410156"/>
      </g>
     </g>
    </g>
    <g id="ytick_5">
     <g id="line2d_12">
      <g>
       <use xlink:href="#m2395406bf1" x="38.482813" y="107.559281" style="stroke: #000000; stroke-width: 0.8"/>
      </g>
     </g>
     <g id="text_13">
      <!-- 0.1 -->
      <g transform="translate(15.579688 111.3585)scale(0.1 -0.1)">
       <use xlink:href="#DejaVuSans-30"/>
       <use xlink:href="#DejaVuSans-2e" x="63.623047"/>
       <use xlink:href="#DejaVuSans-31" x="95.410156"/>
      </g>
     </g>
    </g>
    <g id="ytick_6">
     <g id="line2d_13">
      <g>
       <use xlink:href="#m2395406bf1" x="38.482813" y="80.454245" style="stroke: #000000; stroke-width: 0.8"/>
      </g>
     </g>
     <g id="text_14">
      <!-- 0.2 -->
      <g transform="translate(15.579688 84.253464)scale(0.1 -0.1)">
       <use xlink:href="#DejaVuSans-30"/>
       <use xlink:href="#DejaVuSans-2e" x="63.623047"/>
       <use xlink:href="#DejaVuSans-32" x="95.410156"/>
      </g>
     </g>
    </g>
    <g id="ytick_7">
     <g id="line2d_14">
      <g>
       <use xlink:href="#m2395406bf1" x="38.482813" y="53.34921" style="stroke: #000000; stroke-width: 0.8"/>
      </g>
     </g>
     <g id="text_15">
      <!-- 0.3 -->
      <g transform="translate(15.579688 57.148428)scale(0.1 -0.1)">
       <use xlink:href="#DejaVuSans-30"/>
       <use xlink:href="#DejaVuSans-2e" x="63.623047"/>
       <use xlink:href="#DejaVuSans-33" x="95.410156"/>
      </g>
     </g>
    </g>
    <g id="ytick_8">
     <g id="line2d_15">
      <g>
       <use xlink:href="#m2395406bf1" x="38.482813" y="26.244174" style="stroke: #000000; stroke-width: 0.8"/>
      </g>
     </g>
     <g id="text_16">
      <!-- 0.4 -->
      <g transform="translate(15.579688 30.043392)scale(0.1 -0.1)">
       <use xlink:href="#DejaVuSans-30"/>
       <use xlink:href="#DejaVuSans-2e" x="63.623047"/>
       <use xlink:href="#DejaVuSans-34" x="95.410156"/>
      </g>
     </g>
    </g>
   </g>
   <g id="line2d_16">
    <path d="M 53.700994 73.609895 
L 54.923338 69.787403 
L 56.145682 67.571334 
L 57.368026 64.936963 
L 58.59037 61.569251 
L 59.812714 57.756589 
L 61.035058 53.573989 
L 62.257402 50.738403 
L 63.479746 48.559068 
L 64.70209 46.687166 
L 65.924434 45.1252 
L 68.369121 42.704335 
L 69.591465 41.513702 
L 73.258497 37.573066 
L 74.480841 36.667504 
L 75.703185 36.879185 
L 76.925529 37.486677 
L 78.147873 37.850213 
L 79.370217 37.883229 
L 80.592561 37.67473 
L 83.037248 36.856304 
L 85.481936 35.783877 
L 87.926624 34.452215 
L 89.148968 33.596774 
L 91.593656 31.343917 
L 92.816 31.434158 
L 94.038344 33.317434 
L 95.260688 36.225961 
L 96.483032 40.149392 
L 97.705375 48.191732 
L 98.927719 45.738004 
L 100.150063 42.893801 
L 101.372407 41.106008 
L 102.594751 41.154858 
L 103.817095 42.320379 
L 105.039439 44.630881 
L 106.261783 48.106748 
L 107.484127 51.998282 
L 108.706471 55.279224 
L 109.928815 58.139958 
L 112.373503 64.454223 
L 113.595846 67.046539 
L 114.81819 68.827222 
L 116.040534 69.720596 
L 117.262878 69.365921 
L 118.485222 67.008273 
L 119.707566 62.868389 
L 120.92991 59.721177 
L 122.152254 58.750408 
L 123.374598 58.740573 
L 125.819286 58.989204 
L 127.04163 58.927367 
L 128.263974 56.85558 
L 129.486317 53.916131 
L 130.708661 52.018207 
L 131.931005 51.276661 
L 133.153349 51.605939 
L 134.375693 52.829595 
L 135.598037 54.732949 
L 136.820381 57.096983 
L 141.709757 67.58935 
L 142.932101 69.860128 
L 144.154444 71.862416 
L 145.376788 73.585273 
L 146.599132 75.032944 
L 147.821476 76.12257 
L 149.04382 76.862765 
L 150.266164 77.408089 
L 152.710852 78.084294 
L 155.15554 78.38541 
L 157.600228 78.445055 
L 160.044915 78.318923 
L 162.489603 77.929065 
L 163.711947 77.550369 
L 164.934291 76.969836 
L 166.156635 76.111141 
L 167.378979 74.901611 
L 168.601323 73.297958 
L 169.823667 71.315998 
L 174.713043 62.379561 
L 175.935386 60.744736 
L 177.15773 59.53945 
L 178.380074 58.756202 
L 179.602418 58.353583 
L 180.824762 58.274981 
L 182.047106 58.461524 
L 183.26945 58.859043 
L 184.491794 59.420539 
L 186.936482 60.886303 
L 190.603513 63.549832 
L 199.159921 70.032872 
L 202.826953 72.532857 
L 206.493984 74.773305 
L 210.161016 76.72995 
L 213.828048 78.37773 
L 216.272736 79.274256 
L 218.717424 79.918951 
L 219.939768 79.951948 
L 221.162112 80.873269 
L 223.606799 82.274038 
L 226.051487 83.32903 
L 228.496175 84.181782 
L 232.163207 85.202803 
L 235.830239 86.008826 
L 240.719614 86.861149 
L 246.831334 87.699802 
L 255.387741 88.636713 
L 268.833524 89.854762 
L 292.058059 91.701814 
L 314.06025 93.247064 
L 331.173064 94.237978 
L 347.063535 94.929946 
L 358.064631 95.258922 
L 358.064631 95.258922 
" clip-path="url(#pcf40b40b5b)" style="fill: none; stroke: #1f77b4; stroke-width: 1.5; stroke-linecap: square"/>
   </g>
   <g id="line2d_17">
    <path d="M 53.700994 135.646272 
L 54.923338 138.444114 
L 56.145682 146.023475 
L 58.59037 175.815989 
L 59.812714 187.613894 
L 61.035058 186.89951 
L 62.257402 180.347331 
L 63.479746 174.976661 
L 64.70209 167.350222 
L 65.924434 156.070535 
L 67.146777 140.367571 
L 69.591465 102.393266 
L 70.813809 86.745431 
L 72.036153 77.165504 
L 73.258497 73.862541 
L 74.480841 75.354629 
L 76.925529 85.822248 
L 79.370217 94.609432 
L 89.148968 127.528552 
L 90.371312 132.464782 
L 91.593656 138.237132 
L 92.816 142.527243 
L 94.038344 142.31377 
L 95.260688 138.510293 
L 96.483032 132.355085 
L 97.705375 113.92211 
L 98.927719 97.603558 
L 100.150063 103.720025 
L 101.372407 117.789454 
L 102.594751 127.755054 
L 103.817095 133.246515 
L 105.039439 134.618612 
L 106.261783 131.996198 
L 107.484127 125.259843 
L 112.373503 88.269663 
L 114.81819 68.122081 
L 116.040534 59.375033 
L 117.262878 52.952883 
L 118.485222 51.434723 
L 119.707566 56.939198 
L 120.92991 64.586854 
L 122.152254 68.844396 
L 123.374598 70.513555 
L 124.596942 71.252125 
L 125.819286 71.564113 
L 127.04163 71.322751 
L 128.263974 74.363236 
L 130.708661 89.457904 
L 131.931005 95.257344 
L 133.153349 99.043649 
L 134.375693 100.772824 
L 135.598037 100.63905 
L 136.820381 98.957977 
L 138.042725 96.083694 
L 139.265069 92.354551 
L 141.709757 83.454236 
L 146.599132 64.857205 
L 147.821476 60.766864 
L 149.04382 57.184075 
L 150.266164 53.969247 
L 151.488508 51.149027 
L 152.710852 48.729955 
L 153.933196 46.701294 
L 155.15554 45.042172 
L 156.377884 43.727623 
L 157.600228 42.732617 
L 158.822572 42.037977 
L 160.044915 41.63386 
L 161.267259 41.530062 
L 162.489603 41.75641 
L 163.711947 42.374009 
L 164.934291 43.466187 
L 166.156635 45.134542 
L 167.378979 47.468562 
L 168.601323 50.509743 
L 169.823667 54.216292 
L 172.268355 62.914818 
L 174.713043 71.499683 
L 175.935386 75.107174 
L 177.15773 78.066751 
L 178.380074 80.340953 
L 179.602418 81.955177 
L 180.824762 82.971619 
L 182.047106 83.469375 
L 183.26945 83.529514 
L 184.491794 83.227787 
L 185.714138 82.631383 
L 186.936482 81.798183 
L 188.158826 80.77709 
L 190.603513 78.328562 
L 194.270545 74.074802 
L 202.826953 63.826571 
L 206.493984 59.909941 
L 208.938672 57.573458 
L 211.38336 55.507617 
L 213.828048 53.778926 
L 215.050392 53.077619 
L 216.272736 52.523919 
L 217.49508 52.181733 
L 218.717424 52.214281 
L 219.939768 53.580766 
L 221.162112 51.949391 
L 223.606799 47.634755 
L 226.051487 43.876287 
L 228.496175 40.525508 
L 230.940863 37.523339 
L 233.385551 34.828714 
L 235.830239 32.411527 
L 238.274926 30.245791 
L 240.719614 28.30901 
L 243.164302 26.581862 
L 245.60899 25.046811 
L 249.276022 23.070345 
L 252.943053 21.444522 
L 256.610085 20.129214 
L 260.277117 19.089499 
L 263.944149 18.295089 
L 267.611181 17.719229 
L 271.278212 17.338749 
L 276.167588 17.099934 
L 281.056964 17.129664 
L 285.946339 17.391719 
L 290.835715 17.8548 
L 296.947435 18.67629 
L 303.059154 19.725474 
L 310.393218 21.231738 
L 317.727281 22.95676 
L 326.283689 25.185029 
L 337.284784 28.301053 
L 350.730567 32.360204 
L 358.064631 34.643935 
L 358.064631 34.643935 
" clip-path="url(#pcf40b40b5b)" style="fill: none; stroke: #ff7f0e; stroke-width: 1.5; stroke-linecap: square"/>
   </g>
   <g id="line2d_18">
    <path d="M 53.700994 82.786617 
L 54.923338 85.682568 
L 56.145682 81.59113 
L 57.368026 82.044623 
L 58.59037 90.95266 
L 59.812714 108.314639 
L 61.035058 130.715138 
L 63.479746 157.615201 
L 65.924434 183.515542 
L 67.146777 193.491003 
L 68.369121 197.877576 
L 69.591465 195.134094 
L 70.813809 186.308954 
L 73.258497 160.123241 
L 74.480841 148.419232 
L 75.703185 140.288851 
L 76.925529 135.365017 
L 78.147873 132.031168 
L 79.370217 129.610696 
L 80.592561 127.924058 
L 81.814905 126.921507 
L 83.037248 126.578642 
L 84.259592 126.861243 
L 85.481936 127.726082 
L 86.70428 129.139557 
L 87.926624 131.103506 
L 89.148968 133.676147 
L 90.371312 137.177624 
L 91.593656 143.035476 
L 92.816 152.744078 
L 94.038344 163.967646 
L 96.483032 182.996087 
L 97.705375 199.80521 
L 98.927719 175.033662 
L 100.150063 157.643114 
L 101.372407 154.493175 
L 102.594751 160.615059 
L 103.817095 170.12501 
L 106.261783 192.41647 
L 107.484127 202.077209 
L 108.706471 208.294117 
L 109.928815 211.897873 
L 111.151159 214.308037 
L 112.373503 214.756364 
L 113.595846 212.802488 
L 114.81819 208.377943 
L 116.040534 201.273816 
L 117.262878 191.117975 
L 118.485222 178.455645 
L 119.707566 167.808758 
L 120.92991 164.131839 
L 122.152254 164.158489 
L 123.374598 164.0087 
L 124.596942 163.038313 
L 125.819286 161.358386 
L 127.04163 158.245506 
L 128.263974 151.740192 
L 129.486317 149.632308 
L 130.708661 151.538823 
L 131.931005 155.956147 
L 134.375693 168.116211 
L 135.598037 174.304837 
L 136.820381 179.886759 
L 138.042725 184.591899 
L 139.265069 188.297393 
L 140.487413 190.986698 
L 141.709757 192.712678 
L 142.932101 193.566769 
L 144.154444 193.653686 
L 145.376788 193.06792 
L 146.599132 191.852518 
L 147.821476 189.959548 
L 150.266164 185.468668 
L 152.710852 180.2139 
L 156.377884 171.44038 
L 160.044915 162.006263 
L 162.489603 155.207887 
L 166.156635 144.056095 
L 168.601323 136.974458 
L 169.823667 134.204838 
L 171.046011 132.322731 
L 172.268355 131.520081 
L 173.490699 131.847181 
L 174.713043 133.205913 
L 175.935386 135.390491 
L 177.15773 138.154631 
L 184.491794 156.576598 
L 186.936482 161.363073 
L 188.158826 163.402475 
L 189.38117 165.213875 
L 190.603513 166.807465 
L 191.825857 168.194716 
L 193.048201 169.388384 
L 194.270545 170.40103 
L 195.492889 171.245056 
L 196.715233 171.932517 
L 197.937577 172.47494 
L 199.159921 172.883301 
L 201.604609 173.338773 
L 204.049297 173.375038 
L 206.493984 173.059114 
L 208.938672 172.449862 
L 211.38336 171.59934 
L 213.828048 170.555422 
L 217.49508 168.735398 
L 218.717424 168.104836 
L 219.939768 167.677447 
L 221.162112 169.849714 
L 222.384455 170.298538 
L 223.606799 170.312554 
L 224.829143 170.090378 
L 227.273831 169.21918 
L 229.718519 167.993446 
L 233.385551 165.766102 
L 238.274926 162.397205 
L 245.60899 156.988075 
L 259.054773 147.031819 
L 267.611181 141.004517 
L 274.945244 136.105357 
L 282.279308 131.468149 
L 289.613371 127.092992 
L 296.947435 122.972813 
L 304.281498 119.097152 
L 311.615562 115.453303 
L 318.949625 112.0283 
L 327.506033 108.292003 
L 336.06244 104.816329 
L 344.618848 101.583077 
L 353.175255 98.57548 
L 358.064631 96.952228 
L 358.064631 96.952228 
" clip-path="url(#pcf40b40b5b)" style="fill: none; stroke: #2ca02c; stroke-width: 1.5; stroke-linecap: square"/>
   </g>
   <g id="patch_3">
    <path d="M 38.482813 224.64 
L 38.482813 7.2 
" style="fill: none; stroke: #000000; stroke-width: 0.8; stroke-linejoin: miter; stroke-linecap: square"/>
   </g>
   <g id="patch_4">
    <path d="M 373.282813 224.64 
L 373.282813 7.2 
" style="fill: none; stroke: #000000; stroke-width: 0.8; stroke-linejoin: miter; stroke-linecap: square"/>
   </g>
   <g id="patch_5">
    <path d="M 38.482813 224.64 
L 373.282812 224.64 
" style="fill: none; stroke: #000000; stroke-width: 0.8; stroke-linejoin: miter; stroke-linecap: square"/>
   </g>
   <g id="patch_6">
    <path d="M 38.482813 7.2 
L 373.282812 7.2 
" style="fill: none; stroke: #000000; stroke-width: 0.8; stroke-linejoin: miter; stroke-linecap: square"/>
   </g>
   <g id="legend_1">
    <g id="patch_7">
     <path d="M 326.801563 219.64 
L 366.282813 219.64 
Q 368.282813 219.64 368.282813 217.64 
L 368.282813 174.605625 
Q 368.282813 172.605625 366.282813 172.605625 
L 326.801563 172.605625 
Q 324.801563 172.605625 324.801563 174.605625 
L 324.801563 217.64 
Q 324.801563 219.64 326.801563 219.64 
z
" style="fill: #ffffff; opacity: 0.8; stroke: #cccccc; stroke-linejoin: miter"/>
    </g>
    <g id="line2d_19">
     <path d="M 328.801563 180.704062 
L 338.801563 180.704062 
L 348.801563 180.704062 
" style="fill: none; stroke: #1f77b4; stroke-width: 1.5; stroke-linecap: square"/>
    </g>
    <g id="text_17">
     <!-- N -->
     <g transform="translate(356.801563 184.204062)scale(0.1 -0.1)">
      <defs>
       <path id="DejaVuSans-4e" d="M 628 4666 
L 1478 4666 
L 3547 763 
L 3547 4666 
L 4159 4666 
L 4159 0 
L 3309 0 
L 1241 3903 
L 1241 0 
L 628 0 
L 628 4666 
z
" transform="scale(0.015625)"/>
      </defs>
      <use xlink:href="#DejaVuSans-4e"/>
     </g>
    </g>
    <g id="line2d_20">
     <path d="M 328.801563 195.382187 
L 338.801563 195.382187 
L 348.801563 195.382187 
" style="fill: none; stroke: #ff7f0e; stroke-width: 1.5; stroke-linecap: square"/>
    </g>
    <g id="text_18">
     <!-- C -->
     <g transform="translate(356.801563 198.882187)scale(0.1 -0.1)">
      <defs>
       <path id="DejaVuSans-43" d="M 4122 4306 
L 4122 3641 
Q 3803 3938 3442 4084 
Q 3081 4231 2675 4231 
Q 1875 4231 1450 3742 
Q 1025 3253 1025 2328 
Q 1025 1406 1450 917 
Q 1875 428 2675 428 
Q 3081 428 3442 575 
Q 3803 722 4122 1019 
L 4122 359 
Q 3791 134 3420 21 
Q 3050 -91 2638 -91 
Q 1578 -91 968 557 
Q 359 1206 359 2328 
Q 359 3453 968 4101 
Q 1578 4750 2638 4750 
Q 3056 4750 3426 4639 
Q 3797 4528 4122 4306 
z
" transform="scale(0.015625)"/>
      </defs>
      <use xlink:href="#DejaVuSans-43"/>
     </g>
    </g>
    <g id="line2d_21">
     <path d="M 328.801563 210.060312 
L 338.801563 210.060312 
L 348.801563 210.060312 
" style="fill: none; stroke: #2ca02c; stroke-width: 1.5; stroke-linecap: square"/>
    </g>
    <g id="text_19">
     <!-- S -->
     <g transform="translate(356.801563 213.560312)scale(0.1 -0.1)">
      <defs>
       <path id="DejaVuSans-53" d="M 3425 4513 
L 3425 3897 
Q 3066 4069 2747 4153 
Q 2428 4238 2131 4238 
Q 1616 4238 1336 4038 
Q 1056 3838 1056 3469 
Q 1056 3159 1242 3001 
Q 1428 2844 1947 2747 
L 2328 2669 
Q 3034 2534 3370 2195 
Q 3706 1856 3706 1288 
Q 3706 609 3251 259 
Q 2797 -91 1919 -91 
Q 1588 -91 1214 -16 
Q 841 59 441 206 
L 441 856 
Q 825 641 1194 531 
Q 1563 422 1919 422 
Q 2459 422 2753 634 
Q 3047 847 3047 1241 
Q 3047 1584 2836 1778 
Q 2625 1972 2144 2069 
L 1759 2144 
Q 1053 2284 737 2584 
Q 422 2884 422 3419 
Q 422 4038 858 4394 
Q 1294 4750 2059 4750 
Q 2388 4750 2728 4690 
Q 3069 4631 3425 4513 
z
" transform="scale(0.015625)"/>
      </defs>
      <use xlink:href="#DejaVuSans-53"/>
     </g>
    </g>
   </g>
  </g>
 </g>
 <defs>
  <clipPath id="pcf40b40b5b">
   <rect x="38.482813" y="7.2" width="334.8" height="217.44"/>
  </clipPath>
 </defs>
</svg>
