<?xml version="1.0" encoding="utf-8" standalone="no"?>
<!DOCTYPE svg PUBLIC "-//W3C//DTD SVG 1.1//EN"
  "http://www.w3.org/Graphics/SVG/1.1/DTD/svg11.dtd">
<!-- Created with matplotlib (https://matplotlib.org/) -->
<svg height="277.31625pt" version="1.1" viewBox="0 0 404.765312 277.31625" width="404.765312pt" xmlns="http://www.w3.org/2000/svg" xmlns:xlink="http://www.w3.org/1999/xlink">
 <defs>
  <style type="text/css">
*{stroke-linecap:butt;stroke-linejoin:round;}
  </style>
 </defs>
 <g id="figure_1">
  <g id="patch_1">
   <path d="M 0 277.31625 
L 404.765312 277.31625 
L 404.765312 0 
L 0 0 
z
" style="fill:none;"/>
  </g>
  <g id="axes_1">
   <g id="patch_2">
    <path d="M 59.645313 239.76 
L 394.445312 239.76 
L 394.445312 22.32 
L 59.645313 22.32 
z
" style="fill:#ffffff;"/>
   </g>
   <g id="matplotlib.axis_1">
    <g id="xtick_1">
     <g id="line2d_1">
      <defs>
       <path d="M 0 0 
L 0 3.5 
" id="ma98372cd5d" style="stroke:#000000;stroke-width:0.8;"/>
      </defs>
      <g>
       <use style="stroke:#000000;stroke-width:0.8;" x="76.385313" xlink:href="#ma98372cd5d" y="239.76"/>
      </g>
     </g>
     <g id="text_1">
      <!-- $0 \degree$ -->
      <defs>
       <path d="M 31.78125 66.40625 
Q 24.171875 66.40625 20.328125 58.90625 
Q 16.5 51.421875 16.5 36.375 
Q 16.5 21.390625 20.328125 13.890625 
Q 24.171875 6.390625 31.78125 6.390625 
Q 39.453125 6.390625 43.28125 13.890625 
Q 47.125 21.390625 47.125 36.375 
Q 47.125 51.421875 43.28125 58.90625 
Q 39.453125 66.40625 31.78125 66.40625 
z
M 31.78125 74.21875 
Q 44.046875 74.21875 50.515625 64.515625 
Q 56.984375 54.828125 56.984375 36.375 
Q 56.984375 17.96875 50.515625 8.265625 
Q 44.046875 -1.421875 31.78125 -1.421875 
Q 19.53125 -1.421875 13.0625 8.265625 
Q 6.59375 17.96875 6.59375 36.375 
Q 6.59375 54.828125 13.0625 64.515625 
Q 19.53125 74.21875 31.78125 74.21875 
z
" id="DejaVuSans-48"/>
       <path d="M 25 67.921875 
Q 21.09375 67.921875 18.40625 65.203125 
Q 15.71875 62.5 15.71875 58.59375 
Q 15.71875 54.734375 18.40625 52.078125 
Q 21.09375 49.421875 25 49.421875 
Q 28.90625 49.421875 31.59375 52.078125 
Q 34.28125 54.734375 34.28125 58.59375 
Q 34.28125 62.453125 31.5625 65.1875 
Q 28.859375 67.921875 25 67.921875 
z
M 25 74.21875 
Q 28.125 74.21875 31 73.015625 
Q 33.890625 71.828125 35.984375 69.578125 
Q 38.234375 67.390625 39.359375 64.59375 
Q 40.484375 61.8125 40.484375 58.59375 
Q 40.484375 52.15625 35.96875 47.6875 
Q 31.453125 43.21875 24.90625 43.21875 
Q 18.3125 43.21875 13.90625 47.609375 
Q 9.515625 52 9.515625 58.59375 
Q 9.515625 65.140625 14 69.671875 
Q 18.5 74.21875 25 74.21875 
z
" id="DejaVuSans-176"/>
      </defs>
      <g transform="translate(70.685313 254.358437)scale(0.1 -0.1)">
       <use transform="translate(0 0.78125)" xlink:href="#DejaVuSans-48"/>
       <use transform="translate(63.623047 0.78125)" xlink:href="#DejaVuSans-176"/>
      </g>
     </g>
    </g>
    <g id="xtick_2">
     <g id="line2d_2">
      <g>
       <use style="stroke:#000000;stroke-width:0.8;" x="109.865313" xlink:href="#ma98372cd5d" y="239.76"/>
      </g>
     </g>
     <g id="text_2">
      <!-- $10 \degree$ -->
      <defs>
       <path d="M 12.40625 8.296875 
L 28.515625 8.296875 
L 28.515625 63.921875 
L 10.984375 60.40625 
L 10.984375 69.390625 
L 28.421875 72.90625 
L 38.28125 72.90625 
L 38.28125 8.296875 
L 54.390625 8.296875 
L 54.390625 0 
L 12.40625 0 
z
" id="DejaVuSans-49"/>
      </defs>
      <g transform="translate(100.965313 254.358437)scale(0.1 -0.1)">
       <use transform="translate(0 0.78125)" xlink:href="#DejaVuSans-49"/>
       <use transform="translate(63.623047 0.78125)" xlink:href="#DejaVuSans-48"/>
       <use transform="translate(127.246094 0.78125)" xlink:href="#DejaVuSans-176"/>
      </g>
     </g>
    </g>
    <g id="xtick_3">
     <g id="line2d_3">
      <g>
       <use style="stroke:#000000;stroke-width:0.8;" x="143.345313" xlink:href="#ma98372cd5d" y="239.76"/>
      </g>
     </g>
     <g id="text_3">
      <!-- $20 \degree$ -->
      <defs>
       <path d="M 19.1875 8.296875 
L 53.609375 8.296875 
L 53.609375 0 
L 7.328125 0 
L 7.328125 8.296875 
Q 12.9375 14.109375 22.625 23.890625 
Q 32.328125 33.6875 34.8125 36.53125 
Q 39.546875 41.84375 41.421875 45.53125 
Q 43.3125 49.21875 43.3125 52.78125 
Q 43.3125 58.59375 39.234375 62.25 
Q 35.15625 65.921875 28.609375 65.921875 
Q 23.96875 65.921875 18.8125 64.3125 
Q 13.671875 62.703125 7.8125 59.421875 
L 7.8125 69.390625 
Q 13.765625 71.78125 18.9375 73 
Q 24.125 74.21875 28.421875 74.21875 
Q 39.75 74.21875 46.484375 68.546875 
Q 53.21875 62.890625 53.21875 53.421875 
Q 53.21875 48.921875 51.53125 44.890625 
Q 49.859375 40.875 45.40625 35.40625 
Q 44.1875 33.984375 37.640625 27.21875 
Q 31.109375 20.453125 19.1875 8.296875 
z
" id="DejaVuSans-50"/>
      </defs>
      <g transform="translate(134.445313 254.358437)scale(0.1 -0.1)">
       <use transform="translate(0 0.78125)" xlink:href="#DejaVuSans-50"/>
       <use transform="translate(63.623047 0.78125)" xlink:href="#DejaVuSans-48"/>
       <use transform="translate(127.246094 0.78125)" xlink:href="#DejaVuSans-176"/>
      </g>
     </g>
    </g>
    <g id="xtick_4">
     <g id="line2d_4">
      <g>
       <use style="stroke:#000000;stroke-width:0.8;" x="176.825313" xlink:href="#ma98372cd5d" y="239.76"/>
      </g>
     </g>
     <g id="text_4">
      <!-- $30 \degree$ -->
      <defs>
       <path d="M 40.578125 39.3125 
Q 47.65625 37.796875 51.625 33 
Q 55.609375 28.21875 55.609375 21.1875 
Q 55.609375 10.40625 48.1875 4.484375 
Q 40.765625 -1.421875 27.09375 -1.421875 
Q 22.515625 -1.421875 17.65625 -0.515625 
Q 12.796875 0.390625 7.625 2.203125 
L 7.625 11.71875 
Q 11.71875 9.328125 16.59375 8.109375 
Q 21.484375 6.890625 26.8125 6.890625 
Q 36.078125 6.890625 40.9375 10.546875 
Q 45.796875 14.203125 45.796875 21.1875 
Q 45.796875 27.640625 41.28125 31.265625 
Q 36.765625 34.90625 28.71875 34.90625 
L 20.21875 34.90625 
L 20.21875 43.015625 
L 29.109375 43.015625 
Q 36.375 43.015625 40.234375 45.921875 
Q 44.09375 48.828125 44.09375 54.296875 
Q 44.09375 59.90625 40.109375 62.90625 
Q 36.140625 65.921875 28.71875 65.921875 
Q 24.65625 65.921875 20.015625 65.03125 
Q 15.375 64.15625 9.8125 62.3125 
L 9.8125 71.09375 
Q 15.4375 72.65625 20.34375 73.4375 
Q 25.25 74.21875 29.59375 74.21875 
Q 40.828125 74.21875 47.359375 69.109375 
Q 53.90625 64.015625 53.90625 55.328125 
Q 53.90625 49.265625 50.4375 45.09375 
Q 46.96875 40.921875 40.578125 39.3125 
z
" id="DejaVuSans-51"/>
      </defs>
      <g transform="translate(167.925313 254.358437)scale(0.1 -0.1)">
       <use transform="translate(0 0.78125)" xlink:href="#DejaVuSans-51"/>
       <use transform="translate(63.623047 0.78125)" xlink:href="#DejaVuSans-48"/>
       <use transform="translate(127.246094 0.78125)" xlink:href="#DejaVuSans-176"/>
      </g>
     </g>
    </g>
    <g id="xtick_5">
     <g id="line2d_5">
      <g>
       <use style="stroke:#000000;stroke-width:0.8;" x="210.305313" xlink:href="#ma98372cd5d" y="239.76"/>
      </g>
     </g>
     <g id="text_5">
      <!-- $40 \degree$ -->
      <defs>
       <path d="M 37.796875 64.3125 
L 12.890625 25.390625 
L 37.796875 25.390625 
z
M 35.203125 72.90625 
L 47.609375 72.90625 
L 47.609375 25.390625 
L 58.015625 25.390625 
L 58.015625 17.1875 
L 47.609375 17.1875 
L 47.609375 0 
L 37.796875 0 
L 37.796875 17.1875 
L 4.890625 17.1875 
L 4.890625 26.703125 
z
" id="DejaVuSans-52"/>
      </defs>
      <g transform="translate(201.405313 254.358437)scale(0.1 -0.1)">
       <use transform="translate(0 0.78125)" xlink:href="#DejaVuSans-52"/>
       <use transform="translate(63.623047 0.78125)" xlink:href="#DejaVuSans-48"/>
       <use transform="translate(127.246094 0.78125)" xlink:href="#DejaVuSans-176"/>
      </g>
     </g>
    </g>
    <g id="xtick_6">
     <g id="line2d_6">
      <g>
       <use style="stroke:#000000;stroke-width:0.8;" x="243.785313" xlink:href="#ma98372cd5d" y="239.76"/>
      </g>
     </g>
     <g id="text_6">
      <!-- $50 \degree$ -->
      <defs>
       <path d="M 10.796875 72.90625 
L 49.515625 72.90625 
L 49.515625 64.59375 
L 19.828125 64.59375 
L 19.828125 46.734375 
Q 21.96875 47.46875 24.109375 47.828125 
Q 26.265625 48.1875 28.421875 48.1875 
Q 40.625 48.1875 47.75 41.5 
Q 54.890625 34.8125 54.890625 23.390625 
Q 54.890625 11.625 47.5625 5.09375 
Q 40.234375 -1.421875 26.90625 -1.421875 
Q 22.3125 -1.421875 17.546875 -0.640625 
Q 12.796875 0.140625 7.71875 1.703125 
L 7.71875 11.625 
Q 12.109375 9.234375 16.796875 8.0625 
Q 21.484375 6.890625 26.703125 6.890625 
Q 35.15625 6.890625 40.078125 11.328125 
Q 45.015625 15.765625 45.015625 23.390625 
Q 45.015625 31 40.078125 35.4375 
Q 35.15625 39.890625 26.703125 39.890625 
Q 22.75 39.890625 18.8125 39.015625 
Q 14.890625 38.140625 10.796875 36.28125 
z
" id="DejaVuSans-53"/>
      </defs>
      <g transform="translate(234.885313 254.358437)scale(0.1 -0.1)">
       <use transform="translate(0 0.78125)" xlink:href="#DejaVuSans-53"/>
       <use transform="translate(63.623047 0.78125)" xlink:href="#DejaVuSans-48"/>
       <use transform="translate(127.246094 0.78125)" xlink:href="#DejaVuSans-176"/>
      </g>
     </g>
    </g>
    <g id="xtick_7">
     <g id="line2d_7">
      <g>
       <use style="stroke:#000000;stroke-width:0.8;" x="277.265313" xlink:href="#ma98372cd5d" y="239.76"/>
      </g>
     </g>
     <g id="text_7">
      <!-- $60 \degree$ -->
      <defs>
       <path d="M 33.015625 40.375 
Q 26.375 40.375 22.484375 35.828125 
Q 18.609375 31.296875 18.609375 23.390625 
Q 18.609375 15.53125 22.484375 10.953125 
Q 26.375 6.390625 33.015625 6.390625 
Q 39.65625 6.390625 43.53125 10.953125 
Q 47.40625 15.53125 47.40625 23.390625 
Q 47.40625 31.296875 43.53125 35.828125 
Q 39.65625 40.375 33.015625 40.375 
z
M 52.59375 71.296875 
L 52.59375 62.3125 
Q 48.875 64.0625 45.09375 64.984375 
Q 41.3125 65.921875 37.59375 65.921875 
Q 27.828125 65.921875 22.671875 59.328125 
Q 17.53125 52.734375 16.796875 39.40625 
Q 19.671875 43.65625 24.015625 45.921875 
Q 28.375 48.1875 33.59375 48.1875 
Q 44.578125 48.1875 50.953125 41.515625 
Q 57.328125 34.859375 57.328125 23.390625 
Q 57.328125 12.15625 50.6875 5.359375 
Q 44.046875 -1.421875 33.015625 -1.421875 
Q 20.359375 -1.421875 13.671875 8.265625 
Q 6.984375 17.96875 6.984375 36.375 
Q 6.984375 53.65625 15.1875 63.9375 
Q 23.390625 74.21875 37.203125 74.21875 
Q 40.921875 74.21875 44.703125 73.484375 
Q 48.484375 72.75 52.59375 71.296875 
z
" id="DejaVuSans-54"/>
      </defs>
      <g transform="translate(268.365313 254.358437)scale(0.1 -0.1)">
       <use transform="translate(0 0.78125)" xlink:href="#DejaVuSans-54"/>
       <use transform="translate(63.623047 0.78125)" xlink:href="#DejaVuSans-48"/>
       <use transform="translate(127.246094 0.78125)" xlink:href="#DejaVuSans-176"/>
      </g>
     </g>
    </g>
    <g id="xtick_8">
     <g id="line2d_8">
      <g>
       <use style="stroke:#000000;stroke-width:0.8;" x="310.745313" xlink:href="#ma98372cd5d" y="239.76"/>
      </g>
     </g>
     <g id="text_8">
      <!-- $70 \degree$ -->
      <defs>
       <path d="M 8.203125 72.90625 
L 55.078125 72.90625 
L 55.078125 68.703125 
L 28.609375 0 
L 18.3125 0 
L 43.21875 64.59375 
L 8.203125 64.59375 
z
" id="DejaVuSans-55"/>
      </defs>
      <g transform="translate(301.845313 254.358437)scale(0.1 -0.1)">
       <use transform="translate(0 0.78125)" xlink:href="#DejaVuSans-55"/>
       <use transform="translate(63.623047 0.78125)" xlink:href="#DejaVuSans-48"/>
       <use transform="translate(127.246094 0.78125)" xlink:href="#DejaVuSans-176"/>
      </g>
     </g>
    </g>
    <g id="xtick_9">
     <g id="line2d_9">
      <g>
       <use style="stroke:#000000;stroke-width:0.8;" x="344.225313" xlink:href="#ma98372cd5d" y="239.76"/>
      </g>
     </g>
     <g id="text_9">
      <!-- $80 \degree$ -->
      <defs>
       <path d="M 31.78125 34.625 
Q 24.75 34.625 20.71875 30.859375 
Q 16.703125 27.09375 16.703125 20.515625 
Q 16.703125 13.921875 20.71875 10.15625 
Q 24.75 6.390625 31.78125 6.390625 
Q 38.8125 6.390625 42.859375 10.171875 
Q 46.921875 13.96875 46.921875 20.515625 
Q 46.921875 27.09375 42.890625 30.859375 
Q 38.875 34.625 31.78125 34.625 
z
M 21.921875 38.8125 
Q 15.578125 40.375 12.03125 44.71875 
Q 8.5 49.078125 8.5 55.328125 
Q 8.5 64.0625 14.71875 69.140625 
Q 20.953125 74.21875 31.78125 74.21875 
Q 42.671875 74.21875 48.875 69.140625 
Q 55.078125 64.0625 55.078125 55.328125 
Q 55.078125 49.078125 51.53125 44.71875 
Q 48 40.375 41.703125 38.8125 
Q 48.828125 37.15625 52.796875 32.3125 
Q 56.78125 27.484375 56.78125 20.515625 
Q 56.78125 9.90625 50.3125 4.234375 
Q 43.84375 -1.421875 31.78125 -1.421875 
Q 19.734375 -1.421875 13.25 4.234375 
Q 6.78125 9.90625 6.78125 20.515625 
Q 6.78125 27.484375 10.78125 32.3125 
Q 14.796875 37.15625 21.921875 38.8125 
z
M 18.3125 54.390625 
Q 18.3125 48.734375 21.84375 45.5625 
Q 25.390625 42.390625 31.78125 42.390625 
Q 38.140625 42.390625 41.71875 45.5625 
Q 45.3125 48.734375 45.3125 54.390625 
Q 45.3125 60.0625 41.71875 63.234375 
Q 38.140625 66.40625 31.78125 66.40625 
Q 25.390625 66.40625 21.84375 63.234375 
Q 18.3125 60.0625 18.3125 54.390625 
z
" id="DejaVuSans-56"/>
      </defs>
      <g transform="translate(335.325313 254.358437)scale(0.1 -0.1)">
       <use transform="translate(0 0.78125)" xlink:href="#DejaVuSans-56"/>
       <use transform="translate(63.623047 0.78125)" xlink:href="#DejaVuSans-48"/>
       <use transform="translate(127.246094 0.78125)" xlink:href="#DejaVuSans-176"/>
      </g>
     </g>
    </g>
    <g id="xtick_10">
     <g id="line2d_10">
      <g>
       <use style="stroke:#000000;stroke-width:0.8;" x="377.705313" xlink:href="#ma98372cd5d" y="239.76"/>
      </g>
     </g>
     <g id="text_10">
      <!-- $90 \degree$ -->
      <defs>
       <path d="M 10.984375 1.515625 
L 10.984375 10.5 
Q 14.703125 8.734375 18.5 7.8125 
Q 22.3125 6.890625 25.984375 6.890625 
Q 35.75 6.890625 40.890625 13.453125 
Q 46.046875 20.015625 46.78125 33.40625 
Q 43.953125 29.203125 39.59375 26.953125 
Q 35.25 24.703125 29.984375 24.703125 
Q 19.046875 24.703125 12.671875 31.3125 
Q 6.296875 37.9375 6.296875 49.421875 
Q 6.296875 60.640625 12.9375 67.421875 
Q 19.578125 74.21875 30.609375 74.21875 
Q 43.265625 74.21875 49.921875 64.515625 
Q 56.59375 54.828125 56.59375 36.375 
Q 56.59375 19.140625 48.40625 8.859375 
Q 40.234375 -1.421875 26.421875 -1.421875 
Q 22.703125 -1.421875 18.890625 -0.6875 
Q 15.09375 0.046875 10.984375 1.515625 
z
M 30.609375 32.421875 
Q 37.25 32.421875 41.125 36.953125 
Q 45.015625 41.5 45.015625 49.421875 
Q 45.015625 57.28125 41.125 61.84375 
Q 37.25 66.40625 30.609375 66.40625 
Q 23.96875 66.40625 20.09375 61.84375 
Q 16.21875 57.28125 16.21875 49.421875 
Q 16.21875 41.5 20.09375 36.953125 
Q 23.96875 32.421875 30.609375 32.421875 
z
" id="DejaVuSans-57"/>
      </defs>
      <g transform="translate(368.805313 254.358437)scale(0.1 -0.1)">
       <use transform="translate(0 0.78125)" xlink:href="#DejaVuSans-57"/>
       <use transform="translate(63.623047 0.78125)" xlink:href="#DejaVuSans-48"/>
       <use transform="translate(127.246094 0.78125)" xlink:href="#DejaVuSans-176"/>
      </g>
     </g>
    </g>
    <g id="text_11">
     <!-- Angle -->
     <defs>
      <path d="M 34.1875 63.1875 
L 20.796875 26.90625 
L 47.609375 26.90625 
z
M 28.609375 72.90625 
L 39.796875 72.90625 
L 67.578125 0 
L 57.328125 0 
L 50.6875 18.703125 
L 17.828125 18.703125 
L 11.1875 0 
L 0.78125 0 
z
" id="DejaVuSans-65"/>
      <path d="M 54.890625 33.015625 
L 54.890625 0 
L 45.90625 0 
L 45.90625 32.71875 
Q 45.90625 40.484375 42.875 44.328125 
Q 39.84375 48.1875 33.796875 48.1875 
Q 26.515625 48.1875 22.3125 43.546875 
Q 18.109375 38.921875 18.109375 30.90625 
L 18.109375 0 
L 9.078125 0 
L 9.078125 54.6875 
L 18.109375 54.6875 
L 18.109375 46.1875 
Q 21.34375 51.125 25.703125 53.5625 
Q 30.078125 56 35.796875 56 
Q 45.21875 56 50.046875 50.171875 
Q 54.890625 44.34375 54.890625 33.015625 
z
" id="DejaVuSans-110"/>
      <path d="M 45.40625 27.984375 
Q 45.40625 37.75 41.375 43.109375 
Q 37.359375 48.484375 30.078125 48.484375 
Q 22.859375 48.484375 18.828125 43.109375 
Q 14.796875 37.75 14.796875 27.984375 
Q 14.796875 18.265625 18.828125 12.890625 
Q 22.859375 7.515625 30.078125 7.515625 
Q 37.359375 7.515625 41.375 12.890625 
Q 45.40625 18.265625 45.40625 27.984375 
z
M 54.390625 6.78125 
Q 54.390625 -7.171875 48.1875 -13.984375 
Q 42 -20.796875 29.203125 -20.796875 
Q 24.46875 -20.796875 20.265625 -20.09375 
Q 16.0625 -19.390625 12.109375 -17.921875 
L 12.109375 -9.1875 
Q 16.0625 -11.328125 19.921875 -12.34375 
Q 23.78125 -13.375 27.78125 -13.375 
Q 36.625 -13.375 41.015625 -8.765625 
Q 45.40625 -4.15625 45.40625 5.171875 
L 45.40625 9.625 
Q 42.625 4.78125 38.28125 2.390625 
Q 33.9375 0 27.875 0 
Q 17.828125 0 11.671875 7.65625 
Q 5.515625 15.328125 5.515625 27.984375 
Q 5.515625 40.671875 11.671875 48.328125 
Q 17.828125 56 27.875 56 
Q 33.9375 56 38.28125 53.609375 
Q 42.625 51.21875 45.40625 46.390625 
L 45.40625 54.6875 
L 54.390625 54.6875 
z
" id="DejaVuSans-103"/>
      <path d="M 9.421875 75.984375 
L 18.40625 75.984375 
L 18.40625 0 
L 9.421875 0 
z
" id="DejaVuSans-108"/>
      <path d="M 56.203125 29.59375 
L 56.203125 25.203125 
L 14.890625 25.203125 
Q 15.484375 15.921875 20.484375 11.0625 
Q 25.484375 6.203125 34.421875 6.203125 
Q 39.59375 6.203125 44.453125 7.46875 
Q 49.3125 8.734375 54.109375 11.28125 
L 54.109375 2.78125 
Q 49.265625 0.734375 44.1875 -0.34375 
Q 39.109375 -1.421875 33.890625 -1.421875 
Q 20.796875 -1.421875 13.15625 6.1875 
Q 5.515625 13.8125 5.515625 26.8125 
Q 5.515625 40.234375 12.765625 48.109375 
Q 20.015625 56 32.328125 56 
Q 43.359375 56 49.78125 48.890625 
Q 56.203125 41.796875 56.203125 29.59375 
z
M 47.21875 32.234375 
Q 47.125 39.59375 43.09375 43.984375 
Q 39.0625 48.390625 32.421875 48.390625 
Q 24.90625 48.390625 20.390625 44.140625 
Q 15.875 39.890625 15.1875 32.171875 
z
" id="DejaVuSans-101"/>
     </defs>
     <g transform="translate(212.816406 268.036562)scale(0.1 -0.1)">
      <use xlink:href="#DejaVuSans-65"/>
      <use x="68.408203" xlink:href="#DejaVuSans-110"/>
      <use x="131.787109" xlink:href="#DejaVuSans-103"/>
      <use x="195.263672" xlink:href="#DejaVuSans-108"/>
      <use x="223.046875" xlink:href="#DejaVuSans-101"/>
     </g>
    </g>
   </g>
   <g id="matplotlib.axis_2">
    <g id="ytick_1">
     <g id="line2d_11">
      <defs>
       <path d="M 0 0 
L -3.5 0 
" id="m6ceb185654" style="stroke:#000000;stroke-width:0.8;"/>
      </defs>
      <g>
       <use style="stroke:#000000;stroke-width:0.8;" x="59.645313" xlink:href="#m6ceb185654" y="229.895473"/>
      </g>
     </g>
     <g id="text_12">
      <!-- 0 % -->
      <defs>
       <path id="DejaVuSans-32"/>
       <path d="M 72.703125 32.078125 
Q 68.453125 32.078125 66.03125 28.46875 
Q 63.625 24.859375 63.625 18.40625 
Q 63.625 12.0625 66.03125 8.421875 
Q 68.453125 4.78125 72.703125 4.78125 
Q 76.859375 4.78125 79.265625 8.421875 
Q 81.6875 12.0625 81.6875 18.40625 
Q 81.6875 24.8125 79.265625 28.4375 
Q 76.859375 32.078125 72.703125 32.078125 
z
M 72.703125 38.28125 
Q 80.421875 38.28125 84.953125 32.90625 
Q 89.5 27.546875 89.5 18.40625 
Q 89.5 9.28125 84.9375 3.921875 
Q 80.375 -1.421875 72.703125 -1.421875 
Q 64.890625 -1.421875 60.34375 3.921875 
Q 55.8125 9.28125 55.8125 18.40625 
Q 55.8125 27.59375 60.375 32.9375 
Q 64.9375 38.28125 72.703125 38.28125 
z
M 22.3125 68.015625 
Q 18.109375 68.015625 15.6875 64.375 
Q 13.28125 60.75 13.28125 54.390625 
Q 13.28125 47.953125 15.671875 44.328125 
Q 18.0625 40.71875 22.3125 40.71875 
Q 26.5625 40.71875 28.96875 44.328125 
Q 31.390625 47.953125 31.390625 54.390625 
Q 31.390625 60.6875 28.953125 64.34375 
Q 26.515625 68.015625 22.3125 68.015625 
z
M 66.40625 74.21875 
L 74.21875 74.21875 
L 28.609375 -1.421875 
L 20.796875 -1.421875 
z
M 22.3125 74.21875 
Q 30.03125 74.21875 34.609375 68.875 
Q 39.203125 63.53125 39.203125 54.390625 
Q 39.203125 45.171875 34.640625 39.84375 
Q 30.078125 34.515625 22.3125 34.515625 
Q 14.546875 34.515625 10.03125 39.859375 
Q 5.515625 45.21875 5.515625 54.390625 
Q 5.515625 63.484375 10.046875 68.84375 
Q 14.59375 74.21875 22.3125 74.21875 
z
" id="DejaVuSans-37"/>
      </defs>
      <g transform="translate(33.603125 233.694692)scale(0.1 -0.1)">
       <use xlink:href="#DejaVuSans-48"/>
       <use x="63.623047" xlink:href="#DejaVuSans-32"/>
       <use x="95.410156" xlink:href="#DejaVuSans-37"/>
      </g>
     </g>
    </g>
    <g id="ytick_2">
     <g id="line2d_12">
      <g>
       <use style="stroke:#000000;stroke-width:0.8;" x="59.645313" xlink:href="#m6ceb185654" y="190.353284"/>
      </g>
     </g>
     <g id="text_13">
      <!-- 20 % -->
      <g transform="translate(27.240625 194.152503)scale(0.1 -0.1)">
       <use xlink:href="#DejaVuSans-50"/>
       <use x="63.623047" xlink:href="#DejaVuSans-48"/>
       <use x="127.246094" xlink:href="#DejaVuSans-32"/>
       <use x="159.033203" xlink:href="#DejaVuSans-37"/>
      </g>
     </g>
    </g>
    <g id="ytick_3">
     <g id="line2d_13">
      <g>
       <use style="stroke:#000000;stroke-width:0.8;" x="59.645313" xlink:href="#m6ceb185654" y="150.811095"/>
      </g>
     </g>
     <g id="text_14">
      <!-- 40 % -->
      <g transform="translate(27.240625 154.610313)scale(0.1 -0.1)">
       <use xlink:href="#DejaVuSans-52"/>
       <use x="63.623047" xlink:href="#DejaVuSans-48"/>
       <use x="127.246094" xlink:href="#DejaVuSans-32"/>
       <use x="159.033203" xlink:href="#DejaVuSans-37"/>
      </g>
     </g>
    </g>
    <g id="ytick_4">
     <g id="line2d_14">
      <g>
       <use style="stroke:#000000;stroke-width:0.8;" x="59.645313" xlink:href="#m6ceb185654" y="111.268905"/>
      </g>
     </g>
     <g id="text_15">
      <!-- 60 % -->
      <g transform="translate(27.240625 115.068124)scale(0.1 -0.1)">
       <use xlink:href="#DejaVuSans-54"/>
       <use x="63.623047" xlink:href="#DejaVuSans-48"/>
       <use x="127.246094" xlink:href="#DejaVuSans-32"/>
       <use x="159.033203" xlink:href="#DejaVuSans-37"/>
      </g>
     </g>
    </g>
    <g id="ytick_5">
     <g id="line2d_15">
      <g>
       <use style="stroke:#000000;stroke-width:0.8;" x="59.645313" xlink:href="#m6ceb185654" y="71.726716"/>
      </g>
     </g>
     <g id="text_16">
      <!-- 80 % -->
      <g transform="translate(27.240625 75.525935)scale(0.1 -0.1)">
       <use xlink:href="#DejaVuSans-56"/>
       <use x="63.623047" xlink:href="#DejaVuSans-48"/>
       <use x="127.246094" xlink:href="#DejaVuSans-32"/>
       <use x="159.033203" xlink:href="#DejaVuSans-37"/>
      </g>
     </g>
    </g>
    <g id="ytick_6">
     <g id="line2d_16">
      <g>
       <use style="stroke:#000000;stroke-width:0.8;" x="59.645313" xlink:href="#m6ceb185654" y="32.184527"/>
      </g>
     </g>
     <g id="text_17">
      <!-- 100 % -->
      <g transform="translate(20.878125 35.983746)scale(0.1 -0.1)">
       <use xlink:href="#DejaVuSans-49"/>
       <use x="63.623047" xlink:href="#DejaVuSans-48"/>
       <use x="127.246094" xlink:href="#DejaVuSans-48"/>
       <use x="190.869141" xlink:href="#DejaVuSans-32"/>
       <use x="222.65625" xlink:href="#DejaVuSans-37"/>
      </g>
     </g>
    </g>
    <g id="text_18">
     <!-- Reflectance, Transmittance -->
     <defs>
      <path d="M 44.390625 34.1875 
Q 47.5625 33.109375 50.5625 29.59375 
Q 53.5625 26.078125 56.59375 19.921875 
L 66.609375 0 
L 56 0 
L 46.6875 18.703125 
Q 43.0625 26.03125 39.671875 28.421875 
Q 36.28125 30.8125 30.421875 30.8125 
L 19.671875 30.8125 
L 19.671875 0 
L 9.8125 0 
L 9.8125 72.90625 
L 32.078125 72.90625 
Q 44.578125 72.90625 50.734375 67.671875 
Q 56.890625 62.453125 56.890625 51.90625 
Q 56.890625 45.015625 53.6875 40.46875 
Q 50.484375 35.9375 44.390625 34.1875 
z
M 19.671875 64.796875 
L 19.671875 38.921875 
L 32.078125 38.921875 
Q 39.203125 38.921875 42.84375 42.21875 
Q 46.484375 45.515625 46.484375 51.90625 
Q 46.484375 58.296875 42.84375 61.546875 
Q 39.203125 64.796875 32.078125 64.796875 
z
" id="DejaVuSans-82"/>
      <path d="M 37.109375 75.984375 
L 37.109375 68.5 
L 28.515625 68.5 
Q 23.6875 68.5 21.796875 66.546875 
Q 19.921875 64.59375 19.921875 59.515625 
L 19.921875 54.6875 
L 34.71875 54.6875 
L 34.71875 47.703125 
L 19.921875 47.703125 
L 19.921875 0 
L 10.890625 0 
L 10.890625 47.703125 
L 2.296875 47.703125 
L 2.296875 54.6875 
L 10.890625 54.6875 
L 10.890625 58.5 
Q 10.890625 67.625 15.140625 71.796875 
Q 19.390625 75.984375 28.609375 75.984375 
z
" id="DejaVuSans-102"/>
      <path d="M 48.78125 52.59375 
L 48.78125 44.1875 
Q 44.96875 46.296875 41.140625 47.34375 
Q 37.3125 48.390625 33.40625 48.390625 
Q 24.65625 48.390625 19.8125 42.84375 
Q 14.984375 37.3125 14.984375 27.296875 
Q 14.984375 17.28125 19.8125 11.734375 
Q 24.65625 6.203125 33.40625 6.203125 
Q 37.3125 6.203125 41.140625 7.25 
Q 44.96875 8.296875 48.78125 10.40625 
L 48.78125 2.09375 
Q 45.015625 0.34375 40.984375 -0.53125 
Q 36.96875 -1.421875 32.421875 -1.421875 
Q 20.0625 -1.421875 12.78125 6.34375 
Q 5.515625 14.109375 5.515625 27.296875 
Q 5.515625 40.671875 12.859375 48.328125 
Q 20.21875 56 33.015625 56 
Q 37.15625 56 41.109375 55.140625 
Q 45.0625 54.296875 48.78125 52.59375 
z
" id="DejaVuSans-99"/>
      <path d="M 18.3125 70.21875 
L 18.3125 54.6875 
L 36.8125 54.6875 
L 36.8125 47.703125 
L 18.3125 47.703125 
L 18.3125 18.015625 
Q 18.3125 11.328125 20.140625 9.421875 
Q 21.96875 7.515625 27.59375 7.515625 
L 36.8125 7.515625 
L 36.8125 0 
L 27.59375 0 
Q 17.1875 0 13.234375 3.875 
Q 9.28125 7.765625 9.28125 18.015625 
L 9.28125 47.703125 
L 2.6875 47.703125 
L 2.6875 54.6875 
L 9.28125 54.6875 
L 9.28125 70.21875 
z
" id="DejaVuSans-116"/>
      <path d="M 34.28125 27.484375 
Q 23.390625 27.484375 19.1875 25 
Q 14.984375 22.515625 14.984375 16.5 
Q 14.984375 11.71875 18.140625 8.90625 
Q 21.296875 6.109375 26.703125 6.109375 
Q 34.1875 6.109375 38.703125 11.40625 
Q 43.21875 16.703125 43.21875 25.484375 
L 43.21875 27.484375 
z
M 52.203125 31.203125 
L 52.203125 0 
L 43.21875 0 
L 43.21875 8.296875 
Q 40.140625 3.328125 35.546875 0.953125 
Q 30.953125 -1.421875 24.3125 -1.421875 
Q 15.921875 -1.421875 10.953125 3.296875 
Q 6 8.015625 6 15.921875 
Q 6 25.140625 12.171875 29.828125 
Q 18.359375 34.515625 30.609375 34.515625 
L 43.21875 34.515625 
L 43.21875 35.40625 
Q 43.21875 41.609375 39.140625 45 
Q 35.0625 48.390625 27.6875 48.390625 
Q 23 48.390625 18.546875 47.265625 
Q 14.109375 46.140625 10.015625 43.890625 
L 10.015625 52.203125 
Q 14.9375 54.109375 19.578125 55.046875 
Q 24.21875 56 28.609375 56 
Q 40.484375 56 46.34375 49.84375 
Q 52.203125 43.703125 52.203125 31.203125 
z
" id="DejaVuSans-97"/>
      <path d="M 11.71875 12.40625 
L 22.015625 12.40625 
L 22.015625 4 
L 14.015625 -11.625 
L 7.71875 -11.625 
L 11.71875 4 
z
" id="DejaVuSans-44"/>
      <path d="M -0.296875 72.90625 
L 61.375 72.90625 
L 61.375 64.59375 
L 35.5 64.59375 
L 35.5 0 
L 25.59375 0 
L 25.59375 64.59375 
L -0.296875 64.59375 
z
" id="DejaVuSans-84"/>
      <path d="M 41.109375 46.296875 
Q 39.59375 47.171875 37.8125 47.578125 
Q 36.03125 48 33.890625 48 
Q 26.265625 48 22.1875 43.046875 
Q 18.109375 38.09375 18.109375 28.8125 
L 18.109375 0 
L 9.078125 0 
L 9.078125 54.6875 
L 18.109375 54.6875 
L 18.109375 46.1875 
Q 20.953125 51.171875 25.484375 53.578125 
Q 30.03125 56 36.53125 56 
Q 37.453125 56 38.578125 55.875 
Q 39.703125 55.765625 41.0625 55.515625 
z
" id="DejaVuSans-114"/>
      <path d="M 44.28125 53.078125 
L 44.28125 44.578125 
Q 40.484375 46.53125 36.375 47.5 
Q 32.28125 48.484375 27.875 48.484375 
Q 21.1875 48.484375 17.84375 46.4375 
Q 14.5 44.390625 14.5 40.28125 
Q 14.5 37.15625 16.890625 35.375 
Q 19.28125 33.59375 26.515625 31.984375 
L 29.59375 31.296875 
Q 39.15625 29.25 43.1875 25.515625 
Q 47.21875 21.78125 47.21875 15.09375 
Q 47.21875 7.46875 41.1875 3.015625 
Q 35.15625 -1.421875 24.609375 -1.421875 
Q 20.21875 -1.421875 15.453125 -0.5625 
Q 10.6875 0.296875 5.421875 2 
L 5.421875 11.28125 
Q 10.40625 8.6875 15.234375 7.390625 
Q 20.0625 6.109375 24.8125 6.109375 
Q 31.15625 6.109375 34.5625 8.28125 
Q 37.984375 10.453125 37.984375 14.40625 
Q 37.984375 18.0625 35.515625 20.015625 
Q 33.0625 21.96875 24.703125 23.78125 
L 21.578125 24.515625 
Q 13.234375 26.265625 9.515625 29.90625 
Q 5.8125 33.546875 5.8125 39.890625 
Q 5.8125 47.609375 11.28125 51.796875 
Q 16.75 56 26.8125 56 
Q 31.78125 56 36.171875 55.265625 
Q 40.578125 54.546875 44.28125 53.078125 
z
" id="DejaVuSans-115"/>
      <path d="M 52 44.1875 
Q 55.375 50.25 60.0625 53.125 
Q 64.75 56 71.09375 56 
Q 79.640625 56 84.28125 50.015625 
Q 88.921875 44.046875 88.921875 33.015625 
L 88.921875 0 
L 79.890625 0 
L 79.890625 32.71875 
Q 79.890625 40.578125 77.09375 44.375 
Q 74.3125 48.1875 68.609375 48.1875 
Q 61.625 48.1875 57.5625 43.546875 
Q 53.515625 38.921875 53.515625 30.90625 
L 53.515625 0 
L 44.484375 0 
L 44.484375 32.71875 
Q 44.484375 40.625 41.703125 44.40625 
Q 38.921875 48.1875 33.109375 48.1875 
Q 26.21875 48.1875 22.15625 43.53125 
Q 18.109375 38.875 18.109375 30.90625 
L 18.109375 0 
L 9.078125 0 
L 9.078125 54.6875 
L 18.109375 54.6875 
L 18.109375 46.1875 
Q 21.1875 51.21875 25.484375 53.609375 
Q 29.78125 56 35.6875 56 
Q 41.65625 56 45.828125 52.96875 
Q 50 49.953125 52 44.1875 
z
" id="DejaVuSans-109"/>
      <path d="M 9.421875 54.6875 
L 18.40625 54.6875 
L 18.40625 0 
L 9.421875 0 
z
M 9.421875 75.984375 
L 18.40625 75.984375 
L 18.40625 64.59375 
L 9.421875 64.59375 
z
" id="DejaVuSans-105"/>
     </defs>
     <g transform="translate(14.798438 198.985312)rotate(-90)scale(0.1 -0.1)">
      <use xlink:href="#DejaVuSans-82"/>
      <use x="64.982422" xlink:href="#DejaVuSans-101"/>
      <use x="126.505859" xlink:href="#DejaVuSans-102"/>
      <use x="161.710938" xlink:href="#DejaVuSans-108"/>
      <use x="189.494141" xlink:href="#DejaVuSans-101"/>
      <use x="251.017578" xlink:href="#DejaVuSans-99"/>
      <use x="305.998047" xlink:href="#DejaVuSans-116"/>
      <use x="345.207031" xlink:href="#DejaVuSans-97"/>
      <use x="406.486328" xlink:href="#DejaVuSans-110"/>
      <use x="469.865234" xlink:href="#DejaVuSans-99"/>
      <use x="524.845703" xlink:href="#DejaVuSans-101"/>
      <use x="586.369141" xlink:href="#DejaVuSans-44"/>
      <use x="618.15625" xlink:href="#DejaVuSans-32"/>
      <use x="649.943359" xlink:href="#DejaVuSans-84"/>
      <use x="696.277344" xlink:href="#DejaVuSans-114"/>
      <use x="737.390625" xlink:href="#DejaVuSans-97"/>
      <use x="798.669922" xlink:href="#DejaVuSans-110"/>
      <use x="862.048828" xlink:href="#DejaVuSans-115"/>
      <use x="914.148438" xlink:href="#DejaVuSans-109"/>
      <use x="1011.560547" xlink:href="#DejaVuSans-105"/>
      <use x="1039.34375" xlink:href="#DejaVuSans-116"/>
      <use x="1078.552734" xlink:href="#DejaVuSans-116"/>
      <use x="1117.761719" xlink:href="#DejaVuSans-97"/>
      <use x="1179.041016" xlink:href="#DejaVuSans-110"/>
      <use x="1242.419922" xlink:href="#DejaVuSans-99"/>
      <use x="1297.400391" xlink:href="#DejaVuSans-101"/>
     </g>
    </g>
   </g>
   <g id="line2d_17">
    <path clip-path="url(#p1cf1d43361)" d="M 76.385313 226.663583 
L 79.733313 226.662026 
L 83.081313 226.657351 
L 86.429313 226.64954 
L 89.777313 226.638566 
L 93.125313 226.624387 
L 96.473313 226.606954 
L 99.821313 226.586201 
L 103.169313 226.562053 
L 106.517313 226.534421 
L 109.865313 226.503203 
L 113.213313 226.468281 
L 116.561313 226.429525 
L 119.909313 226.386789 
L 123.257313 226.339909 
L 126.605313 226.288706 
L 129.953313 226.232981 
L 133.301313 226.172516 
L 136.649313 226.107072 
L 139.997313 226.036389 
L 143.345313 225.960181 
L 146.693313 225.878138 
L 150.041313 225.789922 
L 153.389313 225.695165 
L 156.737313 225.593467 
L 160.085313 225.484394 
L 163.433312 225.367476 
L 166.781313 225.2422 
L 170.129313 225.108012 
L 173.477313 224.964309 
L 176.825313 224.810439 
L 180.173313 224.645693 
L 183.521313 224.469302 
L 186.869313 224.280433 
L 190.217313 224.078182 
L 193.565313 223.861567 
L 196.913313 223.629525 
L 200.261313 223.3809 
L 203.609313 223.114438 
L 206.957313 222.828778 
L 210.305313 222.522442 
L 213.653313 222.193824 
L 217.001313 221.84118 
L 220.349313 221.462617 
L 223.697313 221.056075 
L 227.045313 220.619317 
L 230.393313 220.14991 
L 233.741313 219.645209 
L 237.089313 219.102338 
L 240.437313 218.518169 
L 243.785313 217.889299 
L 247.133313 217.212024 
L 250.481313 216.482316 
L 253.829313 215.695792 
L 257.177313 214.847679 
L 260.525313 213.932785 
L 263.873313 212.945457 
L 267.221313 211.879544 
L 270.569313 210.728349 
L 273.917313 209.484585 
L 277.265313 208.140319 
L 280.613313 206.68692 
L 283.961313 205.114995 
L 287.309313 203.414325 
L 290.657313 201.573797 
L 294.005313 199.581322 
L 297.353313 197.423758 
L 300.701313 195.086822 
L 304.049313 192.554992 
L 307.397313 189.811411 
L 310.745313 186.837778 
L 314.093313 183.61423 
L 317.441313 180.119225 
L 320.789313 176.329407 
L 324.137313 172.219476 
L 327.485313 167.762033 
L 330.833313 162.927435 
L 334.181313 157.683631 
L 337.529313 151.995994 
L 340.877313 145.827144 
L 344.225313 139.136765 
L 347.573313 131.881417 
L 350.921312 124.014337 
L 354.269313 115.485239 
L 357.617313 106.240108 
L 360.965313 96.220987 
L 364.313313 85.365769 
L 367.661313 73.60798 
L 371.009313 60.876569 
L 374.357313 47.095695 
" style="fill:none;stroke:#1f77b4;stroke-linecap:square;stroke-width:1.5;"/>
   </g>
   <g id="line2d_18">
    <path clip-path="url(#p1cf1d43361)" d="M 76.385313 226.663583 
L 79.733313 226.665139 
L 83.081313 226.669807 
L 86.429313 226.677585 
L 89.777313 226.688474 
L 93.125313 226.70247 
L 96.473313 226.719572 
L 99.821313 226.739776 
L 103.169313 226.76308 
L 106.517313 226.789478 
L 109.865313 226.818968 
L 113.213313 226.851542 
L 116.561313 226.887197 
L 119.909313 226.925924 
L 123.257313 226.967718 
L 126.605313 227.012568 
L 129.953313 227.060466 
L 133.301313 227.1114 
L 136.649313 227.165358 
L 139.997313 227.222325 
L 143.345313 227.282284 
L 146.693313 227.345213 
L 150.041313 227.41109 
L 153.389313 227.479884 
L 156.737313 227.551562 
L 160.085313 227.626084 
L 163.433312 227.7034 
L 166.781313 227.783452 
L 170.129313 227.866172 
L 173.477313 227.951477 
L 176.825313 228.039268 
L 180.173313 228.129429 
L 183.521313 228.221822 
L 186.869313 228.316284 
L 190.217313 228.412623 
L 193.565313 228.51061 
L 196.913313 228.60998 
L 200.261313 228.71042 
L 203.609313 228.811564 
L 206.957313 228.912987 
L 210.305313 229.014192 
L 213.653313 229.114601 
L 217.001313 229.213546 
L 220.349313 229.31025 
L 223.697313 229.40382 
L 227.045313 229.49322 
L 230.393313 229.577261 
L 233.741313 229.654573 
L 237.089313 229.723584 
L 240.437313 229.782489 
L 243.785313 229.829222 
L 247.133313 229.861415 
L 250.481313 229.876364 
L 253.829313 229.870979 
L 257.177313 229.841734 
L 260.525313 229.784608 
L 263.873313 229.695019 
L 267.221313 229.567748 
L 270.569313 229.396854 
L 273.917313 229.175578 
L 277.265313 228.896234 
L 280.613313 228.550081 
L 283.961313 228.127182 
L 287.309313 227.616246 
L 290.657313 227.004437 
L 294.005313 226.27717 
L 297.353313 225.417865 
L 300.701313 224.407677 
L 304.049313 223.225178 
L 307.397313 221.845999 
L 310.745313 220.242415 
L 314.093313 218.382866 
L 317.441313 216.231417 
L 320.789313 213.747119 
L 324.137313 210.883282 
L 327.485313 207.586635 
L 330.833313 203.796342 
L 334.181313 199.442871 
L 337.529313 194.446669 
L 340.877313 188.716624 
L 344.225313 182.148263 
L 347.573313 174.621639 
L 350.921312 165.998855 
L 354.269313 156.121144 
L 357.617313 144.805422 
L 360.965313 131.840206 
L 364.313313 116.980759 
L 367.661313 99.943314 
L 371.009313 80.398151 
L 374.357313 57.961298 
" style="fill:none;stroke:#ff7f0e;stroke-linecap:square;stroke-width:1.5;"/>
   </g>
   <g id="line2d_19">
    <path clip-path="url(#p1cf1d43361)" d="M 76.385313 35.416417 
L 79.733313 35.417974 
L 83.081313 35.422649 
L 86.429313 35.43046 
L 89.777313 35.441434 
L 93.125313 35.455613 
L 96.473313 35.473046 
L 99.821313 35.493799 
L 103.169313 35.517947 
L 106.517313 35.545579 
L 109.865313 35.576797 
L 113.213313 35.611719 
L 116.561313 35.650475 
L 119.909313 35.693211 
L 123.257313 35.740091 
L 126.605313 35.791294 
L 129.953313 35.847019 
L 133.301313 35.907484 
L 136.649313 35.972928 
L 139.997313 36.043611 
L 143.345313 36.119819 
L 146.693313 36.201862 
L 150.041313 36.290078 
L 153.389313 36.384835 
L 156.737313 36.486533 
L 160.085313 36.595606 
L 163.433312 36.712524 
L 166.781313 36.8378 
L 170.129313 36.971988 
L 173.477313 37.115691 
L 176.825313 37.269561 
L 180.173313 37.434307 
L 183.521313 37.610698 
L 186.869313 37.799567 
L 190.217313 38.001818 
L 193.565313 38.218433 
L 196.913313 38.450475 
L 200.261313 38.6991 
L 203.609313 38.965562 
L 206.957313 39.251222 
L 210.305313 39.557558 
L 213.653313 39.886176 
L 217.001313 40.23882 
L 220.349313 40.617383 
L 223.697313 41.023925 
L 227.045313 41.460683 
L 230.393313 41.93009 
L 233.741313 42.434791 
L 237.089313 42.977662 
L 240.437313 43.561831 
L 243.785313 44.190701 
L 247.133313 44.867976 
L 250.481313 45.597684 
L 253.829313 46.384208 
L 257.177313 47.232321 
L 260.525313 48.147215 
L 263.873313 49.134543 
L 267.221313 50.200456 
L 270.569313 51.351651 
L 273.917313 52.595415 
L 277.265313 53.939681 
L 280.613313 55.39308 
L 283.961313 56.965005 
L 287.309313 58.665675 
L 290.657313 60.506203 
L 294.005313 62.498678 
L 297.353313 64.656242 
L 300.701313 66.993178 
L 304.049313 69.525008 
L 307.397313 72.268589 
L 310.745313 75.242222 
L 314.093313 78.46577 
L 317.441313 81.960775 
L 320.789313 85.750593 
L 324.137313 89.860524 
L 327.485313 94.317967 
L 330.833313 99.152565 
L 334.181313 104.396369 
L 337.529313 110.084006 
L 340.877313 116.252856 
L 344.225313 122.943235 
L 347.573313 130.198583 
L 350.921312 138.065663 
L 354.269313 146.594761 
L 357.617313 155.839892 
L 360.965313 165.859013 
L 364.313313 176.714231 
L 367.661313 188.47202 
L 371.009313 201.203431 
L 374.357313 214.984305 
" style="fill:none;stroke:#2ca02c;stroke-linecap:square;stroke-width:1.5;"/>
   </g>
   <g id="line2d_20">
    <path clip-path="url(#p1cf1d43361)" d="M 76.385313 35.416417 
L 79.733313 35.414861 
L 83.081313 35.410193 
L 86.429313 35.402415 
L 89.777313 35.391526 
L 93.125313 35.37753 
L 96.473313 35.360428 
L 99.821313 35.340224 
L 103.169313 35.31692 
L 106.517313 35.290522 
L 109.865313 35.261032 
L 113.213313 35.228458 
L 116.561313 35.192803 
L 119.909313 35.154076 
L 123.257313 35.112282 
L 126.605313 35.067432 
L 129.953313 35.019534 
L 133.301313 34.9686 
L 136.649313 34.914642 
L 139.997313 34.857675 
L 143.345313 34.797716 
L 146.693313 34.734787 
L 150.041313 34.66891 
L 153.389313 34.600116 
L 156.737313 34.528438 
L 160.085313 34.453916 
L 163.433312 34.3766 
L 166.781313 34.296548 
L 170.129313 34.213828 
L 173.477313 34.128523 
L 176.825313 34.040732 
L 180.173313 33.950571 
L 183.521313 33.858178 
L 186.869313 33.763716 
L 190.217313 33.667377 
L 193.565313 33.56939 
L 196.913313 33.47002 
L 200.261313 33.36958 
L 203.609313 33.268436 
L 206.957313 33.167013 
L 210.305313 33.065808 
L 213.653313 32.965399 
L 217.001313 32.866454 
L 220.349313 32.76975 
L 223.697313 32.67618 
L 227.045313 32.58678 
L 230.393313 32.502739 
L 233.741313 32.425427 
L 237.089313 32.356416 
L 240.437313 32.297511 
L 243.785313 32.250778 
L 247.133313 32.218585 
L 250.481313 32.203636 
L 253.829313 32.209021 
L 257.177313 32.238266 
L 260.525313 32.295392 
L 263.873313 32.384981 
L 267.221313 32.512252 
L 270.569313 32.683146 
L 273.917313 32.904422 
L 277.265313 33.183766 
L 280.613313 33.529919 
L 283.961313 33.952818 
L 287.309313 34.463754 
L 290.657313 35.075563 
L 294.005313 35.80283 
L 297.353313 36.662135 
L 300.701313 37.672323 
L 304.049313 38.854822 
L 307.397313 40.234001 
L 310.745313 41.837585 
L 314.093313 43.697134 
L 317.441313 45.848583 
L 320.789313 48.332881 
L 324.137313 51.196718 
L 327.485313 54.493365 
L 330.833313 58.283658 
L 334.181313 62.637129 
L 337.529313 67.633331 
L 340.877313 73.363376 
L 344.225313 79.931737 
L 347.573313 87.458361 
L 350.921312 96.081145 
L 354.269313 105.958856 
L 357.617313 117.274578 
L 360.965313 130.239794 
L 364.313313 145.099241 
L 367.661313 162.136686 
L 371.009313 181.681849 
L 374.357313 204.118702 
" style="fill:none;stroke:#d62728;stroke-linecap:square;stroke-width:1.5;"/>
   </g>
   <g id="patch_3">
    <path d="M 59.645313 239.76 
L 59.645313 22.32 
" style="fill:none;stroke:#000000;stroke-linecap:square;stroke-linejoin:miter;stroke-width:0.8;"/>
   </g>
   <g id="patch_4">
    <path d="M 394.445312 239.76 
L 394.445312 22.32 
" style="fill:none;stroke:#000000;stroke-linecap:square;stroke-linejoin:miter;stroke-width:0.8;"/>
   </g>
   <g id="patch_5">
    <path d="M 59.645313 239.76 
L 394.445312 239.76 
" style="fill:none;stroke:#000000;stroke-linecap:square;stroke-linejoin:miter;stroke-width:0.8;"/>
   </g>
   <g id="patch_6">
    <path d="M 59.645313 22.32 
L 394.445312 22.32 
" style="fill:none;stroke:#000000;stroke-linecap:square;stroke-linejoin:miter;stroke-width:0.8;"/>
   </g>
   <g id="text_19">
    <!-- Reflectance and Transmittance of a $\lambda/4$ MgF film on SiO$_2$ -->
    <defs>
     <path d="M 45.40625 46.390625 
L 45.40625 75.984375 
L 54.390625 75.984375 
L 54.390625 0 
L 45.40625 0 
L 45.40625 8.203125 
Q 42.578125 3.328125 38.25 0.953125 
Q 33.9375 -1.421875 27.875 -1.421875 
Q 17.96875 -1.421875 11.734375 6.484375 
Q 5.515625 14.40625 5.515625 27.296875 
Q 5.515625 40.1875 11.734375 48.09375 
Q 17.96875 56 27.875 56 
Q 33.9375 56 38.25 53.625 
Q 42.578125 51.265625 45.40625 46.390625 
z
M 14.796875 27.296875 
Q 14.796875 17.390625 18.875 11.75 
Q 22.953125 6.109375 30.078125 6.109375 
Q 37.203125 6.109375 41.296875 11.75 
Q 45.40625 17.390625 45.40625 27.296875 
Q 45.40625 37.203125 41.296875 42.84375 
Q 37.203125 48.484375 30.078125 48.484375 
Q 22.953125 48.484375 18.875 42.84375 
Q 14.796875 37.203125 14.796875 27.296875 
z
" id="DejaVuSans-100"/>
     <path d="M 30.609375 48.390625 
Q 23.390625 48.390625 19.1875 42.75 
Q 14.984375 37.109375 14.984375 27.296875 
Q 14.984375 17.484375 19.15625 11.84375 
Q 23.34375 6.203125 30.609375 6.203125 
Q 37.796875 6.203125 41.984375 11.859375 
Q 46.1875 17.53125 46.1875 27.296875 
Q 46.1875 37.015625 41.984375 42.703125 
Q 37.796875 48.390625 30.609375 48.390625 
z
M 30.609375 56 
Q 42.328125 56 49.015625 48.375 
Q 55.71875 40.765625 55.71875 27.296875 
Q 55.71875 13.875 49.015625 6.21875 
Q 42.328125 -1.421875 30.609375 -1.421875 
Q 18.84375 -1.421875 12.171875 6.21875 
Q 5.515625 13.875 5.515625 27.296875 
Q 5.515625 40.765625 12.171875 48.375 
Q 18.84375 56 30.609375 56 
z
" id="DejaVuSans-111"/>
     <path d="M 36.71875 67.4375 
L 48.828125 0 
L 39.3125 0 
L 31.84375 40.4375 
L 5.125 0 
L -4.390625 0 
L 29.734375 52.4375 
L 28.03125 62.109375 
Q 26.953125 68.265625 21.734375 68.265625 
L 17.046875 68.265625 
L 18.5 75.984375 
L 24.21875 75.875 
Q 35.203125 75.734375 36.71875 67.4375 
z
" id="DejaVuSans-Oblique-955"/>
     <path d="M 25.390625 72.90625 
L 33.6875 72.90625 
L 8.296875 -9.28125 
L 0 -9.28125 
z
" id="DejaVuSans-47"/>
     <path d="M 9.8125 72.90625 
L 24.515625 72.90625 
L 43.109375 23.296875 
L 61.8125 72.90625 
L 76.515625 72.90625 
L 76.515625 0 
L 66.890625 0 
L 66.890625 64.015625 
L 48.09375 14.015625 
L 38.1875 14.015625 
L 19.390625 64.015625 
L 19.390625 0 
L 9.8125 0 
z
" id="DejaVuSans-77"/>
     <path d="M 9.8125 72.90625 
L 51.703125 72.90625 
L 51.703125 64.59375 
L 19.671875 64.59375 
L 19.671875 43.109375 
L 48.578125 43.109375 
L 48.578125 34.8125 
L 19.671875 34.8125 
L 19.671875 0 
L 9.8125 0 
z
" id="DejaVuSans-70"/>
     <path d="M 53.515625 70.515625 
L 53.515625 60.890625 
Q 47.90625 63.578125 42.921875 64.890625 
Q 37.9375 66.21875 33.296875 66.21875 
Q 25.25 66.21875 20.875 63.09375 
Q 16.5 59.96875 16.5 54.203125 
Q 16.5 49.359375 19.40625 46.890625 
Q 22.3125 44.4375 30.421875 42.921875 
L 36.375 41.703125 
Q 47.40625 39.59375 52.65625 34.296875 
Q 57.90625 29 57.90625 20.125 
Q 57.90625 9.515625 50.796875 4.046875 
Q 43.703125 -1.421875 29.984375 -1.421875 
Q 24.8125 -1.421875 18.96875 -0.25 
Q 13.140625 0.921875 6.890625 3.21875 
L 6.890625 13.375 
Q 12.890625 10.015625 18.65625 8.296875 
Q 24.421875 6.59375 29.984375 6.59375 
Q 38.421875 6.59375 43.015625 9.90625 
Q 47.609375 13.234375 47.609375 19.390625 
Q 47.609375 24.75 44.3125 27.78125 
Q 41.015625 30.8125 33.5 32.328125 
L 27.484375 33.5 
Q 16.453125 35.6875 11.515625 40.375 
Q 6.59375 45.0625 6.59375 53.421875 
Q 6.59375 63.09375 13.40625 68.65625 
Q 20.21875 74.21875 32.171875 74.21875 
Q 37.3125 74.21875 42.625 73.28125 
Q 47.953125 72.359375 53.515625 70.515625 
z
" id="DejaVuSans-83"/>
     <path d="M 39.40625 66.21875 
Q 28.65625 66.21875 22.328125 58.203125 
Q 16.015625 50.203125 16.015625 36.375 
Q 16.015625 22.609375 22.328125 14.59375 
Q 28.65625 6.59375 39.40625 6.59375 
Q 50.140625 6.59375 56.421875 14.59375 
Q 62.703125 22.609375 62.703125 36.375 
Q 62.703125 50.203125 56.421875 58.203125 
Q 50.140625 66.21875 39.40625 66.21875 
z
M 39.40625 74.21875 
Q 54.734375 74.21875 63.90625 63.9375 
Q 73.09375 53.65625 73.09375 36.375 
Q 73.09375 19.140625 63.90625 8.859375 
Q 54.734375 -1.421875 39.40625 -1.421875 
Q 24.03125 -1.421875 14.8125 8.828125 
Q 5.609375 19.09375 5.609375 36.375 
Q 5.609375 53.65625 14.8125 63.9375 
Q 24.03125 74.21875 39.40625 74.21875 
z
" id="DejaVuSans-79"/>
    </defs>
    <g transform="translate(56.525313 16.32)scale(0.12 -0.12)">
     <use transform="translate(0 0.015625)" xlink:href="#DejaVuSans-82"/>
     <use transform="translate(69.482422 0.015625)" xlink:href="#DejaVuSans-101"/>
     <use transform="translate(131.005859 0.015625)" xlink:href="#DejaVuSans-102"/>
     <use transform="translate(166.210938 0.015625)" xlink:href="#DejaVuSans-108"/>
     <use transform="translate(193.994141 0.015625)" xlink:href="#DejaVuSans-101"/>
     <use transform="translate(255.517578 0.015625)" xlink:href="#DejaVuSans-99"/>
     <use transform="translate(310.498047 0.015625)" xlink:href="#DejaVuSans-116"/>
     <use transform="translate(349.707031 0.015625)" xlink:href="#DejaVuSans-97"/>
     <use transform="translate(410.986328 0.015625)" xlink:href="#DejaVuSans-110"/>
     <use transform="translate(474.365234 0.015625)" xlink:href="#DejaVuSans-99"/>
     <use transform="translate(529.345703 0.015625)" xlink:href="#DejaVuSans-101"/>
     <use transform="translate(590.869141 0.015625)" xlink:href="#DejaVuSans-32"/>
     <use transform="translate(622.65625 0.015625)" xlink:href="#DejaVuSans-97"/>
     <use transform="translate(683.935547 0.015625)" xlink:href="#DejaVuSans-110"/>
     <use transform="translate(747.314453 0.015625)" xlink:href="#DejaVuSans-100"/>
     <use transform="translate(810.791016 0.015625)" xlink:href="#DejaVuSans-32"/>
     <use transform="translate(842.578125 0.015625)" xlink:href="#DejaVuSans-84"/>
     <use transform="translate(903.662109 0.015625)" xlink:href="#DejaVuSans-114"/>
     <use transform="translate(944.775391 0.015625)" xlink:href="#DejaVuSans-97"/>
     <use transform="translate(1006.054688 0.015625)" xlink:href="#DejaVuSans-110"/>
     <use transform="translate(1069.433594 0.015625)" xlink:href="#DejaVuSans-115"/>
     <use transform="translate(1121.533203 0.015625)" xlink:href="#DejaVuSans-109"/>
     <use transform="translate(1218.945312 0.015625)" xlink:href="#DejaVuSans-105"/>
     <use transform="translate(1246.728516 0.015625)" xlink:href="#DejaVuSans-116"/>
     <use transform="translate(1285.9375 0.015625)" xlink:href="#DejaVuSans-116"/>
     <use transform="translate(1325.146484 0.015625)" xlink:href="#DejaVuSans-97"/>
     <use transform="translate(1386.425781 0.015625)" xlink:href="#DejaVuSans-110"/>
     <use transform="translate(1449.804688 0.015625)" xlink:href="#DejaVuSans-99"/>
     <use transform="translate(1504.785156 0.015625)" xlink:href="#DejaVuSans-101"/>
     <use transform="translate(1566.308594 0.015625)" xlink:href="#DejaVuSans-32"/>
     <use transform="translate(1598.095703 0.015625)" xlink:href="#DejaVuSans-111"/>
     <use transform="translate(1659.277344 0.015625)" xlink:href="#DejaVuSans-102"/>
     <use transform="translate(1694.482422 0.015625)" xlink:href="#DejaVuSans-32"/>
     <use transform="translate(1726.269531 0.015625)" xlink:href="#DejaVuSans-97"/>
     <use transform="translate(1787.548828 0.015625)" xlink:href="#DejaVuSans-32"/>
     <use transform="translate(1819.335938 0.015625)" xlink:href="#DejaVuSans-Oblique-955"/>
     <use transform="translate(1878.515625 0.015625)" xlink:href="#DejaVuSans-47"/>
     <use transform="translate(1912.207031 0.015625)" xlink:href="#DejaVuSans-52"/>
     <use transform="translate(1975.830078 0.015625)" xlink:href="#DejaVuSans-32"/>
     <use transform="translate(2007.617188 0.015625)" xlink:href="#DejaVuSans-77"/>
     <use transform="translate(2093.896484 0.015625)" xlink:href="#DejaVuSans-103"/>
     <use transform="translate(2157.373047 0.015625)" xlink:href="#DejaVuSans-70"/>
     <use transform="translate(2214.892578 0.015625)" xlink:href="#DejaVuSans-32"/>
     <use transform="translate(2246.679688 0.015625)" xlink:href="#DejaVuSans-102"/>
     <use transform="translate(2281.884766 0.015625)" xlink:href="#DejaVuSans-105"/>
     <use transform="translate(2309.667969 0.015625)" xlink:href="#DejaVuSans-108"/>
     <use transform="translate(2337.451172 0.015625)" xlink:href="#DejaVuSans-109"/>
     <use transform="translate(2434.863281 0.015625)" xlink:href="#DejaVuSans-32"/>
     <use transform="translate(2466.650391 0.015625)" xlink:href="#DejaVuSans-111"/>
     <use transform="translate(2527.832031 0.015625)" xlink:href="#DejaVuSans-110"/>
     <use transform="translate(2591.210938 0.015625)" xlink:href="#DejaVuSans-32"/>
     <use transform="translate(2622.998047 0.015625)" xlink:href="#DejaVuSans-83"/>
     <use transform="translate(2686.474609 0.015625)" xlink:href="#DejaVuSans-105"/>
     <use transform="translate(2714.257812 0.015625)" xlink:href="#DejaVuSans-79"/>
     <use transform="translate(2793.925781 -16.390625)scale(0.7)" xlink:href="#DejaVuSans-50"/>
    </g>
   </g>
   <g id="legend_1">
    <g id="patch_7">
     <path d="M 66.645313 161.89625 
L 111.942188 161.89625 
Q 113.942188 161.89625 113.942188 159.89625 
L 113.942188 102.18375 
Q 113.942188 100.18375 111.942188 100.18375 
L 66.645313 100.18375 
Q 64.645313 100.18375 64.645313 102.18375 
L 64.645313 159.89625 
Q 64.645313 161.89625 66.645313 161.89625 
z
" style="fill:#ffffff;opacity:0.8;stroke:#cccccc;stroke-linejoin:miter;"/>
    </g>
    <g id="line2d_21">
     <path d="M 68.645313 108.282187 
L 88.645313 108.282187 
" style="fill:none;stroke:#1f77b4;stroke-linecap:square;stroke-width:1.5;"/>
    </g>
    <g id="line2d_22"/>
    <g id="text_20">
     <!-- Rs -->
     <g transform="translate(96.645313 111.782187)scale(0.1 -0.1)">
      <use xlink:href="#DejaVuSans-82"/>
      <use x="69.482422" xlink:href="#DejaVuSans-115"/>
     </g>
    </g>
    <g id="line2d_23">
     <path d="M 68.645313 122.960312 
L 88.645313 122.960312 
" style="fill:none;stroke:#ff7f0e;stroke-linecap:square;stroke-width:1.5;"/>
    </g>
    <g id="line2d_24"/>
    <g id="text_21">
     <!-- Rp -->
     <defs>
      <path d="M 18.109375 8.203125 
L 18.109375 -20.796875 
L 9.078125 -20.796875 
L 9.078125 54.6875 
L 18.109375 54.6875 
L 18.109375 46.390625 
Q 20.953125 51.265625 25.265625 53.625 
Q 29.59375 56 35.59375 56 
Q 45.5625 56 51.78125 48.09375 
Q 58.015625 40.1875 58.015625 27.296875 
Q 58.015625 14.40625 51.78125 6.484375 
Q 45.5625 -1.421875 35.59375 -1.421875 
Q 29.59375 -1.421875 25.265625 0.953125 
Q 20.953125 3.328125 18.109375 8.203125 
z
M 48.6875 27.296875 
Q 48.6875 37.203125 44.609375 42.84375 
Q 40.53125 48.484375 33.40625 48.484375 
Q 26.265625 48.484375 22.1875 42.84375 
Q 18.109375 37.203125 18.109375 27.296875 
Q 18.109375 17.390625 22.1875 11.75 
Q 26.265625 6.109375 33.40625 6.109375 
Q 40.53125 6.109375 44.609375 11.75 
Q 48.6875 17.390625 48.6875 27.296875 
z
" id="DejaVuSans-112"/>
     </defs>
     <g transform="translate(96.645313 126.460312)scale(0.1 -0.1)">
      <use xlink:href="#DejaVuSans-82"/>
      <use x="69.482422" xlink:href="#DejaVuSans-112"/>
     </g>
    </g>
    <g id="line2d_25">
     <path d="M 68.645313 137.638437 
L 88.645313 137.638437 
" style="fill:none;stroke:#2ca02c;stroke-linecap:square;stroke-width:1.5;"/>
    </g>
    <g id="line2d_26"/>
    <g id="text_22">
     <!-- Ts -->
     <g transform="translate(96.645313 141.138437)scale(0.1 -0.1)">
      <use xlink:href="#DejaVuSans-84"/>
      <use x="44.583984" xlink:href="#DejaVuSans-115"/>
     </g>
    </g>
    <g id="line2d_27">
     <path d="M 68.645313 152.316562 
L 88.645313 152.316562 
" style="fill:none;stroke:#d62728;stroke-linecap:square;stroke-width:1.5;"/>
    </g>
    <g id="line2d_28"/>
    <g id="text_23">
     <!-- Tp -->
     <g transform="translate(96.645313 155.816562)scale(0.1 -0.1)">
      <use xlink:href="#DejaVuSans-84"/>
      <use x="61.083984" xlink:href="#DejaVuSans-112"/>
     </g>
    </g>
   </g>
  </g>
 </g>
 <defs>
  <clipPath id="p1cf1d43361">
   <rect height="217.44" width="334.8" x="59.645313" y="22.32"/>
  </clipPath>
 </defs>
</svg>
