<?xml version="1.0" encoding="utf-8" standalone="no"?>
<!DOCTYPE svg PUBLIC "-//W3C//DTD SVG 1.1//EN"
  "http://www.w3.org/Graphics/SVG/1.1/DTD/svg11.dtd">
<!-- Created with matplotlib (https://matplotlib.org/) -->
<svg height="262.318125pt" version="1.1" viewBox="0 0 401.2625 262.318125" width="401.2625pt" xmlns="http://www.w3.org/2000/svg" xmlns:xlink="http://www.w3.org/1999/xlink">
 <defs>
  <style type="text/css">
*{stroke-linecap:butt;stroke-linejoin:round;}
  </style>
 </defs>
 <g id="figure_1">
  <g id="patch_1">
   <path d="M 0 262.318125 
L 401.2625 262.318125 
L 401.2625 0 
L 0 0 
z
" style="fill:none;"/>
  </g>
  <g id="axes_1">
   <g id="patch_2">
    <path d="M 52.9 224.64 
L 387.7 224.64 
L 387.7 7.2 
L 52.9 7.2 
z
" style="fill:#ffffff;"/>
   </g>
   <g id="matplotlib.axis_1">
    <g id="xtick_1">
     <g id="line2d_1">
      <defs>
       <path d="M 0 0 
L 0 3.5 
" id="m53b2299514" style="stroke:#000000;stroke-width:0.8;"/>
      </defs>
      <g>
       <use style="stroke:#000000;stroke-width:0.8;" x="52.9" xlink:href="#m53b2299514" y="224.64"/>
      </g>
     </g>
     <g id="text_1">
      <!-- −90 -->
      <defs>
       <path d="M 10.59375 35.5 
L 73.1875 35.5 
L 73.1875 27.203125 
L 10.59375 27.203125 
z
" id="DejaVuSans-8722"/>
       <path d="M 10.984375 1.515625 
L 10.984375 10.5 
Q 14.703125 8.734375 18.5 7.8125 
Q 22.3125 6.890625 25.984375 6.890625 
Q 35.75 6.890625 40.890625 13.453125 
Q 46.046875 20.015625 46.78125 33.40625 
Q 43.953125 29.203125 39.59375 26.953125 
Q 35.25 24.703125 29.984375 24.703125 
Q 19.046875 24.703125 12.671875 31.3125 
Q 6.296875 37.9375 6.296875 49.421875 
Q 6.296875 60.640625 12.9375 67.421875 
Q 19.578125 74.21875 30.609375 74.21875 
Q 43.265625 74.21875 49.921875 64.515625 
Q 56.59375 54.828125 56.59375 36.375 
Q 56.59375 19.140625 48.40625 8.859375 
Q 40.234375 -1.421875 26.421875 -1.421875 
Q 22.703125 -1.421875 18.890625 -0.6875 
Q 15.09375 0.046875 10.984375 1.515625 
z
M 30.609375 32.421875 
Q 37.25 32.421875 41.125 36.953125 
Q 45.015625 41.5 45.015625 49.421875 
Q 45.015625 57.28125 41.125 61.84375 
Q 37.25 66.40625 30.609375 66.40625 
Q 23.96875 66.40625 20.09375 61.84375 
Q 16.21875 57.28125 16.21875 49.421875 
Q 16.21875 41.5 20.09375 36.953125 
Q 23.96875 32.421875 30.609375 32.421875 
z
" id="DejaVuSans-57"/>
       <path d="M 31.78125 66.40625 
Q 24.171875 66.40625 20.328125 58.90625 
Q 16.5 51.421875 16.5 36.375 
Q 16.5 21.390625 20.328125 13.890625 
Q 24.171875 6.390625 31.78125 6.390625 
Q 39.453125 6.390625 43.28125 13.890625 
Q 47.125 21.390625 47.125 36.375 
Q 47.125 51.421875 43.28125 58.90625 
Q 39.453125 66.40625 31.78125 66.40625 
z
M 31.78125 74.21875 
Q 44.046875 74.21875 50.515625 64.515625 
Q 56.984375 54.828125 56.984375 36.375 
Q 56.984375 17.96875 50.515625 8.265625 
Q 44.046875 -1.421875 31.78125 -1.421875 
Q 19.53125 -1.421875 13.0625 8.265625 
Q 6.59375 17.96875 6.59375 36.375 
Q 6.59375 54.828125 13.0625 64.515625 
Q 19.53125 74.21875 31.78125 74.21875 
z
" id="DejaVuSans-48"/>
      </defs>
      <g transform="translate(42.347656 239.238438)scale(0.1 -0.1)">
       <use xlink:href="#DejaVuSans-8722"/>
       <use x="83.789062" xlink:href="#DejaVuSans-57"/>
       <use x="147.412109" xlink:href="#DejaVuSans-48"/>
      </g>
     </g>
    </g>
    <g id="xtick_2">
     <g id="line2d_2">
      <g>
       <use style="stroke:#000000;stroke-width:0.8;" x="108.7" xlink:href="#m53b2299514" y="224.64"/>
      </g>
     </g>
     <g id="text_2">
      <!-- −60 -->
      <defs>
       <path d="M 33.015625 40.375 
Q 26.375 40.375 22.484375 35.828125 
Q 18.609375 31.296875 18.609375 23.390625 
Q 18.609375 15.53125 22.484375 10.953125 
Q 26.375 6.390625 33.015625 6.390625 
Q 39.65625 6.390625 43.53125 10.953125 
Q 47.40625 15.53125 47.40625 23.390625 
Q 47.40625 31.296875 43.53125 35.828125 
Q 39.65625 40.375 33.015625 40.375 
z
M 52.59375 71.296875 
L 52.59375 62.3125 
Q 48.875 64.0625 45.09375 64.984375 
Q 41.3125 65.921875 37.59375 65.921875 
Q 27.828125 65.921875 22.671875 59.328125 
Q 17.53125 52.734375 16.796875 39.40625 
Q 19.671875 43.65625 24.015625 45.921875 
Q 28.375 48.1875 33.59375 48.1875 
Q 44.578125 48.1875 50.953125 41.515625 
Q 57.328125 34.859375 57.328125 23.390625 
Q 57.328125 12.15625 50.6875 5.359375 
Q 44.046875 -1.421875 33.015625 -1.421875 
Q 20.359375 -1.421875 13.671875 8.265625 
Q 6.984375 17.96875 6.984375 36.375 
Q 6.984375 53.65625 15.1875 63.9375 
Q 23.390625 74.21875 37.203125 74.21875 
Q 40.921875 74.21875 44.703125 73.484375 
Q 48.484375 72.75 52.59375 71.296875 
z
" id="DejaVuSans-54"/>
      </defs>
      <g transform="translate(98.147656 239.238438)scale(0.1 -0.1)">
       <use xlink:href="#DejaVuSans-8722"/>
       <use x="83.789062" xlink:href="#DejaVuSans-54"/>
       <use x="147.412109" xlink:href="#DejaVuSans-48"/>
      </g>
     </g>
    </g>
    <g id="xtick_3">
     <g id="line2d_3">
      <g>
       <use style="stroke:#000000;stroke-width:0.8;" x="164.5" xlink:href="#m53b2299514" y="224.64"/>
      </g>
     </g>
     <g id="text_3">
      <!-- −30 -->
      <defs>
       <path d="M 40.578125 39.3125 
Q 47.65625 37.796875 51.625 33 
Q 55.609375 28.21875 55.609375 21.1875 
Q 55.609375 10.40625 48.1875 4.484375 
Q 40.765625 -1.421875 27.09375 -1.421875 
Q 22.515625 -1.421875 17.65625 -0.515625 
Q 12.796875 0.390625 7.625 2.203125 
L 7.625 11.71875 
Q 11.71875 9.328125 16.59375 8.109375 
Q 21.484375 6.890625 26.8125 6.890625 
Q 36.078125 6.890625 40.9375 10.546875 
Q 45.796875 14.203125 45.796875 21.1875 
Q 45.796875 27.640625 41.28125 31.265625 
Q 36.765625 34.90625 28.71875 34.90625 
L 20.21875 34.90625 
L 20.21875 43.015625 
L 29.109375 43.015625 
Q 36.375 43.015625 40.234375 45.921875 
Q 44.09375 48.828125 44.09375 54.296875 
Q 44.09375 59.90625 40.109375 62.90625 
Q 36.140625 65.921875 28.71875 65.921875 
Q 24.65625 65.921875 20.015625 65.03125 
Q 15.375 64.15625 9.8125 62.3125 
L 9.8125 71.09375 
Q 15.4375 72.65625 20.34375 73.4375 
Q 25.25 74.21875 29.59375 74.21875 
Q 40.828125 74.21875 47.359375 69.109375 
Q 53.90625 64.015625 53.90625 55.328125 
Q 53.90625 49.265625 50.4375 45.09375 
Q 46.96875 40.921875 40.578125 39.3125 
z
" id="DejaVuSans-51"/>
      </defs>
      <g transform="translate(153.947656 239.238438)scale(0.1 -0.1)">
       <use xlink:href="#DejaVuSans-8722"/>
       <use x="83.789062" xlink:href="#DejaVuSans-51"/>
       <use x="147.412109" xlink:href="#DejaVuSans-48"/>
      </g>
     </g>
    </g>
    <g id="xtick_4">
     <g id="line2d_4">
      <g>
       <use style="stroke:#000000;stroke-width:0.8;" x="220.3" xlink:href="#m53b2299514" y="224.64"/>
      </g>
     </g>
     <g id="text_4">
      <!-- 0 -->
      <g transform="translate(217.11875 239.238438)scale(0.1 -0.1)">
       <use xlink:href="#DejaVuSans-48"/>
      </g>
     </g>
    </g>
    <g id="xtick_5">
     <g id="line2d_5">
      <g>
       <use style="stroke:#000000;stroke-width:0.8;" x="276.1" xlink:href="#m53b2299514" y="224.64"/>
      </g>
     </g>
     <g id="text_5">
      <!-- 30 -->
      <g transform="translate(269.7375 239.238438)scale(0.1 -0.1)">
       <use xlink:href="#DejaVuSans-51"/>
       <use x="63.623047" xlink:href="#DejaVuSans-48"/>
      </g>
     </g>
    </g>
    <g id="xtick_6">
     <g id="line2d_6">
      <g>
       <use style="stroke:#000000;stroke-width:0.8;" x="331.9" xlink:href="#m53b2299514" y="224.64"/>
      </g>
     </g>
     <g id="text_6">
      <!-- 60 -->
      <g transform="translate(325.5375 239.238438)scale(0.1 -0.1)">
       <use xlink:href="#DejaVuSans-54"/>
       <use x="63.623047" xlink:href="#DejaVuSans-48"/>
      </g>
     </g>
    </g>
    <g id="xtick_7">
     <g id="line2d_7">
      <g>
       <use style="stroke:#000000;stroke-width:0.8;" x="387.7" xlink:href="#m53b2299514" y="224.64"/>
      </g>
     </g>
     <g id="text_7">
      <!-- 90 -->
      <g transform="translate(381.3375 239.238438)scale(0.1 -0.1)">
       <use xlink:href="#DejaVuSans-57"/>
       <use x="63.623047" xlink:href="#DejaVuSans-48"/>
      </g>
     </g>
    </g>
    <g id="text_8">
     <!-- $\theta_s$ [degrees] -->
     <defs>
      <path d="M 45.515625 34.671875 
L 14.453125 34.671875 
Q 12.359375 20.0625 14.5 13.875 
Q 17.1875 6.25 24.46875 6.25 
Q 31.78125 6.25 37.359375 13.921875 
Q 42.234375 20.65625 45.515625 34.671875 
z
M 47.015625 42.96875 
Q 48.34375 56.84375 46.625 61.71875 
Q 43.953125 69.4375 36.765625 69.4375 
Q 29.296875 69.4375 23.828125 61.8125 
Q 19.53125 55.671875 16.15625 42.96875 
z
M 38.1875 76.765625 
Q 49.90625 76.765625 54.59375 66.40625 
Q 59.28125 56.109375 55.71875 37.84375 
Q 52.203125 19.625 43.453125 9.28125 
Q 34.765625 -1.125 23.046875 -1.125 
Q 11.28125 -1.125 6.640625 9.28125 
Q 2 19.625 5.515625 37.84375 
Q 9.078125 56.109375 17.71875 66.40625 
Q 26.421875 76.765625 38.1875 76.765625 
z
" id="DejaVuSans-Oblique-952"/>
      <path d="M 50 53.078125 
L 48.296875 44.578125 
Q 44.734375 46.53125 40.765625 47.5 
Q 36.8125 48.484375 32.625 48.484375 
Q 25.53125 48.484375 21.453125 46.0625 
Q 17.390625 43.65625 17.390625 39.5 
Q 17.390625 34.671875 26.859375 32.078125 
Q 27.59375 31.890625 27.9375 31.78125 
L 30.8125 30.90625 
Q 39.796875 28.421875 42.796875 25.6875 
Q 45.796875 22.953125 45.796875 18.21875 
Q 45.796875 9.515625 38.890625 4.046875 
Q 31.984375 -1.421875 20.796875 -1.421875 
Q 16.453125 -1.421875 11.671875 -0.578125 
Q 6.890625 0.25 1.125 2 
L 2.875 11.28125 
Q 7.8125 8.734375 12.59375 7.421875 
Q 17.390625 6.109375 21.78125 6.109375 
Q 28.375 6.109375 32.5 8.9375 
Q 36.625 11.765625 36.625 16.109375 
Q 36.625 20.796875 25.78125 23.6875 
L 24.859375 23.921875 
L 21.78125 24.703125 
Q 14.9375 26.515625 11.765625 29.46875 
Q 8.59375 32.421875 8.59375 37.015625 
Q 8.59375 45.75 15.15625 50.875 
Q 21.734375 56 33.015625 56 
Q 37.453125 56 41.671875 55.265625 
Q 45.90625 54.546875 50 53.078125 
z
" id="DejaVuSans-Oblique-115"/>
      <path id="DejaVuSans-32"/>
      <path d="M 8.59375 75.984375 
L 29.296875 75.984375 
L 29.296875 69 
L 17.578125 69 
L 17.578125 -6.203125 
L 29.296875 -6.203125 
L 29.296875 -13.1875 
L 8.59375 -13.1875 
z
" id="DejaVuSans-91"/>
      <path d="M 45.40625 46.390625 
L 45.40625 75.984375 
L 54.390625 75.984375 
L 54.390625 0 
L 45.40625 0 
L 45.40625 8.203125 
Q 42.578125 3.328125 38.25 0.953125 
Q 33.9375 -1.421875 27.875 -1.421875 
Q 17.96875 -1.421875 11.734375 6.484375 
Q 5.515625 14.40625 5.515625 27.296875 
Q 5.515625 40.1875 11.734375 48.09375 
Q 17.96875 56 27.875 56 
Q 33.9375 56 38.25 53.625 
Q 42.578125 51.265625 45.40625 46.390625 
z
M 14.796875 27.296875 
Q 14.796875 17.390625 18.875 11.75 
Q 22.953125 6.109375 30.078125 6.109375 
Q 37.203125 6.109375 41.296875 11.75 
Q 45.40625 17.390625 45.40625 27.296875 
Q 45.40625 37.203125 41.296875 42.84375 
Q 37.203125 48.484375 30.078125 48.484375 
Q 22.953125 48.484375 18.875 42.84375 
Q 14.796875 37.203125 14.796875 27.296875 
z
" id="DejaVuSans-100"/>
      <path d="M 56.203125 29.59375 
L 56.203125 25.203125 
L 14.890625 25.203125 
Q 15.484375 15.921875 20.484375 11.0625 
Q 25.484375 6.203125 34.421875 6.203125 
Q 39.59375 6.203125 44.453125 7.46875 
Q 49.3125 8.734375 54.109375 11.28125 
L 54.109375 2.78125 
Q 49.265625 0.734375 44.1875 -0.34375 
Q 39.109375 -1.421875 33.890625 -1.421875 
Q 20.796875 -1.421875 13.15625 6.1875 
Q 5.515625 13.8125 5.515625 26.8125 
Q 5.515625 40.234375 12.765625 48.109375 
Q 20.015625 56 32.328125 56 
Q 43.359375 56 49.78125 48.890625 
Q 56.203125 41.796875 56.203125 29.59375 
z
M 47.21875 32.234375 
Q 47.125 39.59375 43.09375 43.984375 
Q 39.0625 48.390625 32.421875 48.390625 
Q 24.90625 48.390625 20.390625 44.140625 
Q 15.875 39.890625 15.1875 32.171875 
z
" id="DejaVuSans-101"/>
      <path d="M 45.40625 27.984375 
Q 45.40625 37.75 41.375 43.109375 
Q 37.359375 48.484375 30.078125 48.484375 
Q 22.859375 48.484375 18.828125 43.109375 
Q 14.796875 37.75 14.796875 27.984375 
Q 14.796875 18.265625 18.828125 12.890625 
Q 22.859375 7.515625 30.078125 7.515625 
Q 37.359375 7.515625 41.375 12.890625 
Q 45.40625 18.265625 45.40625 27.984375 
z
M 54.390625 6.78125 
Q 54.390625 -7.171875 48.1875 -13.984375 
Q 42 -20.796875 29.203125 -20.796875 
Q 24.46875 -20.796875 20.265625 -20.09375 
Q 16.0625 -19.390625 12.109375 -17.921875 
L 12.109375 -9.1875 
Q 16.0625 -11.328125 19.921875 -12.34375 
Q 23.78125 -13.375 27.78125 -13.375 
Q 36.625 -13.375 41.015625 -8.765625 
Q 45.40625 -4.15625 45.40625 5.171875 
L 45.40625 9.625 
Q 42.625 4.78125 38.28125 2.390625 
Q 33.9375 0 27.875 0 
Q 17.828125 0 11.671875 7.65625 
Q 5.515625 15.328125 5.515625 27.984375 
Q 5.515625 40.671875 11.671875 48.328125 
Q 17.828125 56 27.875 56 
Q 33.9375 56 38.28125 53.609375 
Q 42.625 51.21875 45.40625 46.390625 
L 45.40625 54.6875 
L 54.390625 54.6875 
z
" id="DejaVuSans-103"/>
      <path d="M 41.109375 46.296875 
Q 39.59375 47.171875 37.8125 47.578125 
Q 36.03125 48 33.890625 48 
Q 26.265625 48 22.1875 43.046875 
Q 18.109375 38.09375 18.109375 28.8125 
L 18.109375 0 
L 9.078125 0 
L 9.078125 54.6875 
L 18.109375 54.6875 
L 18.109375 46.1875 
Q 20.953125 51.171875 25.484375 53.578125 
Q 30.03125 56 36.53125 56 
Q 37.453125 56 38.578125 55.875 
Q 39.703125 55.765625 41.0625 55.515625 
z
" id="DejaVuSans-114"/>
      <path d="M 44.28125 53.078125 
L 44.28125 44.578125 
Q 40.484375 46.53125 36.375 47.5 
Q 32.28125 48.484375 27.875 48.484375 
Q 21.1875 48.484375 17.84375 46.4375 
Q 14.5 44.390625 14.5 40.28125 
Q 14.5 37.15625 16.890625 35.375 
Q 19.28125 33.59375 26.515625 31.984375 
L 29.59375 31.296875 
Q 39.15625 29.25 43.1875 25.515625 
Q 47.21875 21.78125 47.21875 15.09375 
Q 47.21875 7.46875 41.1875 3.015625 
Q 35.15625 -1.421875 24.609375 -1.421875 
Q 20.21875 -1.421875 15.453125 -0.5625 
Q 10.6875 0.296875 5.421875 2 
L 5.421875 11.28125 
Q 10.40625 8.6875 15.234375 7.390625 
Q 20.0625 6.109375 24.8125 6.109375 
Q 31.15625 6.109375 34.5625 8.28125 
Q 37.984375 10.453125 37.984375 14.40625 
Q 37.984375 18.0625 35.515625 20.015625 
Q 33.0625 21.96875 24.703125 23.78125 
L 21.578125 24.515625 
Q 13.234375 26.265625 9.515625 29.90625 
Q 5.8125 33.546875 5.8125 39.890625 
Q 5.8125 47.609375 11.28125 51.796875 
Q 16.75 56 26.8125 56 
Q 31.78125 56 36.171875 55.265625 
Q 40.578125 54.546875 44.28125 53.078125 
z
" id="DejaVuSans-115"/>
      <path d="M 30.421875 75.984375 
L 30.421875 -13.1875 
L 9.71875 -13.1875 
L 9.71875 -6.203125 
L 21.390625 -6.203125 
L 21.390625 69 
L 9.71875 69 
L 9.71875 75.984375 
z
" id="DejaVuSans-93"/>
     </defs>
     <g transform="translate(189.55 253.018125)scale(0.1 -0.1)">
      <use transform="translate(0 0.234375)" xlink:href="#DejaVuSans-Oblique-952"/>
      <use transform="translate(61.181641 -16.171875)scale(0.7)" xlink:href="#DejaVuSans-Oblique-115"/>
      <use transform="translate(100.385742 0.234375)" xlink:href="#DejaVuSans-32"/>
      <use transform="translate(132.172852 0.234375)" xlink:href="#DejaVuSans-91"/>
      <use transform="translate(171.186523 0.234375)" xlink:href="#DejaVuSans-100"/>
      <use transform="translate(234.663086 0.234375)" xlink:href="#DejaVuSans-101"/>
      <use transform="translate(296.186523 0.234375)" xlink:href="#DejaVuSans-103"/>
      <use transform="translate(359.663086 0.234375)" xlink:href="#DejaVuSans-114"/>
      <use transform="translate(400.776367 0.234375)" xlink:href="#DejaVuSans-101"/>
      <use transform="translate(462.299805 0.234375)" xlink:href="#DejaVuSans-101"/>
      <use transform="translate(523.823242 0.234375)" xlink:href="#DejaVuSans-115"/>
      <use transform="translate(575.922852 0.234375)" xlink:href="#DejaVuSans-93"/>
     </g>
    </g>
   </g>
   <g id="matplotlib.axis_2">
    <g id="ytick_1">
     <g id="line2d_8">
      <defs>
       <path d="M 0 0 
L -3.5 0 
" id="mfa7b6bc02e" style="stroke:#000000;stroke-width:0.8;"/>
      </defs>
      <g>
       <use style="stroke:#000000;stroke-width:0.8;" x="52.9" xlink:href="#mfa7b6bc02e" y="207.803722"/>
      </g>
     </g>
     <g id="text_9">
      <!-- $\mathdefault{10^{-5}}$ -->
      <defs>
       <path d="M 12.40625 8.296875 
L 28.515625 8.296875 
L 28.515625 63.921875 
L 10.984375 60.40625 
L 10.984375 69.390625 
L 28.421875 72.90625 
L 38.28125 72.90625 
L 38.28125 8.296875 
L 54.390625 8.296875 
L 54.390625 0 
L 12.40625 0 
z
" id="DejaVuSans-49"/>
       <path d="M 10.796875 72.90625 
L 49.515625 72.90625 
L 49.515625 64.59375 
L 19.828125 64.59375 
L 19.828125 46.734375 
Q 21.96875 47.46875 24.109375 47.828125 
Q 26.265625 48.1875 28.421875 48.1875 
Q 40.625 48.1875 47.75 41.5 
Q 54.890625 34.8125 54.890625 23.390625 
Q 54.890625 11.625 47.5625 5.09375 
Q 40.234375 -1.421875 26.90625 -1.421875 
Q 22.3125 -1.421875 17.546875 -0.640625 
Q 12.796875 0.140625 7.71875 1.703125 
L 7.71875 11.625 
Q 12.109375 9.234375 16.796875 8.0625 
Q 21.484375 6.890625 26.703125 6.890625 
Q 35.15625 6.890625 40.078125 11.328125 
Q 45.015625 15.765625 45.015625 23.390625 
Q 45.015625 31 40.078125 35.4375 
Q 35.15625 39.890625 26.703125 39.890625 
Q 22.75 39.890625 18.8125 39.015625 
Q 14.890625 38.140625 10.796875 36.28125 
z
" id="DejaVuSans-53"/>
      </defs>
      <g transform="translate(22.4 211.60294)scale(0.1 -0.1)">
       <use transform="translate(0 0.684375)" xlink:href="#DejaVuSans-49"/>
       <use transform="translate(63.623047 0.684375)" xlink:href="#DejaVuSans-48"/>
       <use transform="translate(128.203125 38.965625)scale(0.7)" xlink:href="#DejaVuSans-8722"/>
       <use transform="translate(186.855469 38.965625)scale(0.7)" xlink:href="#DejaVuSans-53"/>
      </g>
     </g>
    </g>
    <g id="ytick_2">
     <g id="line2d_9">
      <g>
       <use style="stroke:#000000;stroke-width:0.8;" x="52.9" xlink:href="#mfa7b6bc02e" y="176.061542"/>
      </g>
     </g>
     <g id="text_10">
      <!-- $\mathdefault{10^{-4}}$ -->
      <defs>
       <path d="M 37.796875 64.3125 
L 12.890625 25.390625 
L 37.796875 25.390625 
z
M 35.203125 72.90625 
L 47.609375 72.90625 
L 47.609375 25.390625 
L 58.015625 25.390625 
L 58.015625 17.1875 
L 47.609375 17.1875 
L 47.609375 0 
L 37.796875 0 
L 37.796875 17.1875 
L 4.890625 17.1875 
L 4.890625 26.703125 
z
" id="DejaVuSans-52"/>
      </defs>
      <g transform="translate(22.4 179.860761)scale(0.1 -0.1)">
       <use transform="translate(0 0.684375)" xlink:href="#DejaVuSans-49"/>
       <use transform="translate(63.623047 0.684375)" xlink:href="#DejaVuSans-48"/>
       <use transform="translate(128.203125 38.965625)scale(0.7)" xlink:href="#DejaVuSans-8722"/>
       <use transform="translate(186.855469 38.965625)scale(0.7)" xlink:href="#DejaVuSans-52"/>
      </g>
     </g>
    </g>
    <g id="ytick_3">
     <g id="line2d_10">
      <g>
       <use style="stroke:#000000;stroke-width:0.8;" x="52.9" xlink:href="#mfa7b6bc02e" y="144.319362"/>
      </g>
     </g>
     <g id="text_11">
      <!-- $\mathdefault{10^{-3}}$ -->
      <g transform="translate(22.4 148.118581)scale(0.1 -0.1)">
       <use transform="translate(0 0.765625)" xlink:href="#DejaVuSans-49"/>
       <use transform="translate(63.623047 0.765625)" xlink:href="#DejaVuSans-48"/>
       <use transform="translate(128.203125 39.046875)scale(0.7)" xlink:href="#DejaVuSans-8722"/>
       <use transform="translate(186.855469 39.046875)scale(0.7)" xlink:href="#DejaVuSans-51"/>
      </g>
     </g>
    </g>
    <g id="ytick_4">
     <g id="line2d_11">
      <g>
       <use style="stroke:#000000;stroke-width:0.8;" x="52.9" xlink:href="#mfa7b6bc02e" y="112.577183"/>
      </g>
     </g>
     <g id="text_12">
      <!-- $\mathdefault{10^{-2}}$ -->
      <defs>
       <path d="M 19.1875 8.296875 
L 53.609375 8.296875 
L 53.609375 0 
L 7.328125 0 
L 7.328125 8.296875 
Q 12.9375 14.109375 22.625 23.890625 
Q 32.328125 33.6875 34.8125 36.53125 
Q 39.546875 41.84375 41.421875 45.53125 
Q 43.3125 49.21875 43.3125 52.78125 
Q 43.3125 58.59375 39.234375 62.25 
Q 35.15625 65.921875 28.609375 65.921875 
Q 23.96875 65.921875 18.8125 64.3125 
Q 13.671875 62.703125 7.8125 59.421875 
L 7.8125 69.390625 
Q 13.765625 71.78125 18.9375 73 
Q 24.125 74.21875 28.421875 74.21875 
Q 39.75 74.21875 46.484375 68.546875 
Q 53.21875 62.890625 53.21875 53.421875 
Q 53.21875 48.921875 51.53125 44.890625 
Q 49.859375 40.875 45.40625 35.40625 
Q 44.1875 33.984375 37.640625 27.21875 
Q 31.109375 20.453125 19.1875 8.296875 
z
" id="DejaVuSans-50"/>
      </defs>
      <g transform="translate(22.4 116.376401)scale(0.1 -0.1)">
       <use transform="translate(0 0.765625)" xlink:href="#DejaVuSans-49"/>
       <use transform="translate(63.623047 0.765625)" xlink:href="#DejaVuSans-48"/>
       <use transform="translate(128.203125 39.046875)scale(0.7)" xlink:href="#DejaVuSans-8722"/>
       <use transform="translate(186.855469 39.046875)scale(0.7)" xlink:href="#DejaVuSans-50"/>
      </g>
     </g>
    </g>
    <g id="ytick_5">
     <g id="line2d_12">
      <g>
       <use style="stroke:#000000;stroke-width:0.8;" x="52.9" xlink:href="#mfa7b6bc02e" y="80.835003"/>
      </g>
     </g>
     <g id="text_13">
      <!-- $\mathdefault{10^{-1}}$ -->
      <g transform="translate(22.4 84.634222)scale(0.1 -0.1)">
       <use transform="translate(0 0.684375)" xlink:href="#DejaVuSans-49"/>
       <use transform="translate(63.623047 0.684375)" xlink:href="#DejaVuSans-48"/>
       <use transform="translate(128.203125 38.965625)scale(0.7)" xlink:href="#DejaVuSans-8722"/>
       <use transform="translate(186.855469 38.965625)scale(0.7)" xlink:href="#DejaVuSans-49"/>
      </g>
     </g>
    </g>
    <g id="ytick_6">
     <g id="line2d_13">
      <g>
       <use style="stroke:#000000;stroke-width:0.8;" x="52.9" xlink:href="#mfa7b6bc02e" y="49.092823"/>
      </g>
     </g>
     <g id="text_14">
      <!-- $\mathdefault{10^{0}}$ -->
      <g transform="translate(28.3 52.892042)scale(0.1 -0.1)">
       <use transform="translate(0 0.765625)" xlink:href="#DejaVuSans-49"/>
       <use transform="translate(63.623047 0.765625)" xlink:href="#DejaVuSans-48"/>
       <use transform="translate(128.203125 39.046875)scale(0.7)" xlink:href="#DejaVuSans-48"/>
      </g>
     </g>
    </g>
    <g id="ytick_7">
     <g id="line2d_14">
      <g>
       <use style="stroke:#000000;stroke-width:0.8;" x="52.9" xlink:href="#mfa7b6bc02e" y="17.350644"/>
      </g>
     </g>
     <g id="text_15">
      <!-- $\mathdefault{10^{1}}$ -->
      <g transform="translate(28.3 21.149862)scale(0.1 -0.1)">
       <use transform="translate(0 0.684375)" xlink:href="#DejaVuSans-49"/>
       <use transform="translate(63.623047 0.684375)" xlink:href="#DejaVuSans-48"/>
       <use transform="translate(128.203125 38.965625)scale(0.7)" xlink:href="#DejaVuSans-49"/>
      </g>
     </g>
    </g>
    <g id="ytick_8">
     <g id="line2d_15">
      <defs>
       <path d="M 0 0 
L -2 0 
" id="me8462c7dbd" style="stroke:#000000;stroke-width:0.6;"/>
      </defs>
      <g>
       <use style="stroke:#000000;stroke-width:0.6;" x="52.9" xlink:href="#me8462c7dbd" y="224.401033"/>
      </g>
     </g>
    </g>
    <g id="ytick_9">
     <g id="line2d_16">
      <g>
       <use style="stroke:#000000;stroke-width:0.6;" x="52.9" xlink:href="#me8462c7dbd" y="220.435205"/>
      </g>
     </g>
    </g>
    <g id="ytick_10">
     <g id="line2d_17">
      <g>
       <use style="stroke:#000000;stroke-width:0.6;" x="52.9" xlink:href="#me8462c7dbd" y="217.35907"/>
      </g>
     </g>
    </g>
    <g id="ytick_11">
     <g id="line2d_18">
      <g>
       <use style="stroke:#000000;stroke-width:0.6;" x="52.9" xlink:href="#me8462c7dbd" y="214.845684"/>
      </g>
     </g>
    </g>
    <g id="ytick_12">
     <g id="line2d_19">
      <g>
       <use style="stroke:#000000;stroke-width:0.6;" x="52.9" xlink:href="#me8462c7dbd" y="212.720647"/>
      </g>
     </g>
    </g>
    <g id="ytick_13">
     <g id="line2d_20">
      <g>
       <use style="stroke:#000000;stroke-width:0.6;" x="52.9" xlink:href="#me8462c7dbd" y="210.879857"/>
      </g>
     </g>
    </g>
    <g id="ytick_14">
     <g id="line2d_21">
      <g>
       <use style="stroke:#000000;stroke-width:0.6;" x="52.9" xlink:href="#me8462c7dbd" y="209.256164"/>
      </g>
     </g>
    </g>
    <g id="ytick_15">
     <g id="line2d_22">
      <g>
       <use style="stroke:#000000;stroke-width:0.6;" x="52.9" xlink:href="#me8462c7dbd" y="198.248373"/>
      </g>
     </g>
    </g>
    <g id="ytick_16">
     <g id="line2d_23">
      <g>
       <use style="stroke:#000000;stroke-width:0.6;" x="52.9" xlink:href="#me8462c7dbd" y="192.658853"/>
      </g>
     </g>
    </g>
    <g id="ytick_17">
     <g id="line2d_24">
      <g>
       <use style="stroke:#000000;stroke-width:0.6;" x="52.9" xlink:href="#me8462c7dbd" y="188.693025"/>
      </g>
     </g>
    </g>
    <g id="ytick_18">
     <g id="line2d_25">
      <g>
       <use style="stroke:#000000;stroke-width:0.6;" x="52.9" xlink:href="#me8462c7dbd" y="185.61689"/>
      </g>
     </g>
    </g>
    <g id="ytick_19">
     <g id="line2d_26">
      <g>
       <use style="stroke:#000000;stroke-width:0.6;" x="52.9" xlink:href="#me8462c7dbd" y="183.103505"/>
      </g>
     </g>
    </g>
    <g id="ytick_20">
     <g id="line2d_27">
      <g>
       <use style="stroke:#000000;stroke-width:0.6;" x="52.9" xlink:href="#me8462c7dbd" y="180.978468"/>
      </g>
     </g>
    </g>
    <g id="ytick_21">
     <g id="line2d_28">
      <g>
       <use style="stroke:#000000;stroke-width:0.6;" x="52.9" xlink:href="#me8462c7dbd" y="179.137677"/>
      </g>
     </g>
    </g>
    <g id="ytick_22">
     <g id="line2d_29">
      <g>
       <use style="stroke:#000000;stroke-width:0.6;" x="52.9" xlink:href="#me8462c7dbd" y="177.513984"/>
      </g>
     </g>
    </g>
    <g id="ytick_23">
     <g id="line2d_30">
      <g>
       <use style="stroke:#000000;stroke-width:0.6;" x="52.9" xlink:href="#me8462c7dbd" y="166.506194"/>
      </g>
     </g>
    </g>
    <g id="ytick_24">
     <g id="line2d_31">
      <g>
       <use style="stroke:#000000;stroke-width:0.6;" x="52.9" xlink:href="#me8462c7dbd" y="160.916673"/>
      </g>
     </g>
    </g>
    <g id="ytick_25">
     <g id="line2d_32">
      <g>
       <use style="stroke:#000000;stroke-width:0.6;" x="52.9" xlink:href="#me8462c7dbd" y="156.950846"/>
      </g>
     </g>
    </g>
    <g id="ytick_26">
     <g id="line2d_33">
      <g>
       <use style="stroke:#000000;stroke-width:0.6;" x="52.9" xlink:href="#me8462c7dbd" y="153.87471"/>
      </g>
     </g>
    </g>
    <g id="ytick_27">
     <g id="line2d_34">
      <g>
       <use style="stroke:#000000;stroke-width:0.6;" x="52.9" xlink:href="#me8462c7dbd" y="151.361325"/>
      </g>
     </g>
    </g>
    <g id="ytick_28">
     <g id="line2d_35">
      <g>
       <use style="stroke:#000000;stroke-width:0.6;" x="52.9" xlink:href="#me8462c7dbd" y="149.236288"/>
      </g>
     </g>
    </g>
    <g id="ytick_29">
     <g id="line2d_36">
      <g>
       <use style="stroke:#000000;stroke-width:0.6;" x="52.9" xlink:href="#me8462c7dbd" y="147.395497"/>
      </g>
     </g>
    </g>
    <g id="ytick_30">
     <g id="line2d_37">
      <g>
       <use style="stroke:#000000;stroke-width:0.6;" x="52.9" xlink:href="#me8462c7dbd" y="145.771805"/>
      </g>
     </g>
    </g>
    <g id="ytick_31">
     <g id="line2d_38">
      <g>
       <use style="stroke:#000000;stroke-width:0.6;" x="52.9" xlink:href="#me8462c7dbd" y="134.764014"/>
      </g>
     </g>
    </g>
    <g id="ytick_32">
     <g id="line2d_39">
      <g>
       <use style="stroke:#000000;stroke-width:0.6;" x="52.9" xlink:href="#me8462c7dbd" y="129.174494"/>
      </g>
     </g>
    </g>
    <g id="ytick_33">
     <g id="line2d_40">
      <g>
       <use style="stroke:#000000;stroke-width:0.6;" x="52.9" xlink:href="#me8462c7dbd" y="125.208666"/>
      </g>
     </g>
    </g>
    <g id="ytick_34">
     <g id="line2d_41">
      <g>
       <use style="stroke:#000000;stroke-width:0.6;" x="52.9" xlink:href="#me8462c7dbd" y="122.132531"/>
      </g>
     </g>
    </g>
    <g id="ytick_35">
     <g id="line2d_42">
      <g>
       <use style="stroke:#000000;stroke-width:0.6;" x="52.9" xlink:href="#me8462c7dbd" y="119.619145"/>
      </g>
     </g>
    </g>
    <g id="ytick_36">
     <g id="line2d_43">
      <g>
       <use style="stroke:#000000;stroke-width:0.6;" x="52.9" xlink:href="#me8462c7dbd" y="117.494108"/>
      </g>
     </g>
    </g>
    <g id="ytick_37">
     <g id="line2d_44">
      <g>
       <use style="stroke:#000000;stroke-width:0.6;" x="52.9" xlink:href="#me8462c7dbd" y="115.653318"/>
      </g>
     </g>
    </g>
    <g id="ytick_38">
     <g id="line2d_45">
      <g>
       <use style="stroke:#000000;stroke-width:0.6;" x="52.9" xlink:href="#me8462c7dbd" y="114.029625"/>
      </g>
     </g>
    </g>
    <g id="ytick_39">
     <g id="line2d_46">
      <g>
       <use style="stroke:#000000;stroke-width:0.6;" x="52.9" xlink:href="#me8462c7dbd" y="103.021834"/>
      </g>
     </g>
    </g>
    <g id="ytick_40">
     <g id="line2d_47">
      <g>
       <use style="stroke:#000000;stroke-width:0.6;" x="52.9" xlink:href="#me8462c7dbd" y="97.432314"/>
      </g>
     </g>
    </g>
    <g id="ytick_41">
     <g id="line2d_48">
      <g>
       <use style="stroke:#000000;stroke-width:0.6;" x="52.9" xlink:href="#me8462c7dbd" y="93.466486"/>
      </g>
     </g>
    </g>
    <g id="ytick_42">
     <g id="line2d_49">
      <g>
       <use style="stroke:#000000;stroke-width:0.6;" x="52.9" xlink:href="#me8462c7dbd" y="90.390351"/>
      </g>
     </g>
    </g>
    <g id="ytick_43">
     <g id="line2d_50">
      <g>
       <use style="stroke:#000000;stroke-width:0.6;" x="52.9" xlink:href="#me8462c7dbd" y="87.876966"/>
      </g>
     </g>
    </g>
    <g id="ytick_44">
     <g id="line2d_51">
      <g>
       <use style="stroke:#000000;stroke-width:0.6;" x="52.9" xlink:href="#me8462c7dbd" y="85.751929"/>
      </g>
     </g>
    </g>
    <g id="ytick_45">
     <g id="line2d_52">
      <g>
       <use style="stroke:#000000;stroke-width:0.6;" x="52.9" xlink:href="#me8462c7dbd" y="83.911138"/>
      </g>
     </g>
    </g>
    <g id="ytick_46">
     <g id="line2d_53">
      <g>
       <use style="stroke:#000000;stroke-width:0.6;" x="52.9" xlink:href="#me8462c7dbd" y="82.287445"/>
      </g>
     </g>
    </g>
    <g id="ytick_47">
     <g id="line2d_54">
      <g>
       <use style="stroke:#000000;stroke-width:0.6;" x="52.9" xlink:href="#me8462c7dbd" y="71.279655"/>
      </g>
     </g>
    </g>
    <g id="ytick_48">
     <g id="line2d_55">
      <g>
       <use style="stroke:#000000;stroke-width:0.6;" x="52.9" xlink:href="#me8462c7dbd" y="65.690134"/>
      </g>
     </g>
    </g>
    <g id="ytick_49">
     <g id="line2d_56">
      <g>
       <use style="stroke:#000000;stroke-width:0.6;" x="52.9" xlink:href="#me8462c7dbd" y="61.724307"/>
      </g>
     </g>
    </g>
    <g id="ytick_50">
     <g id="line2d_57">
      <g>
       <use style="stroke:#000000;stroke-width:0.6;" x="52.9" xlink:href="#me8462c7dbd" y="58.648172"/>
      </g>
     </g>
    </g>
    <g id="ytick_51">
     <g id="line2d_58">
      <g>
       <use style="stroke:#000000;stroke-width:0.6;" x="52.9" xlink:href="#me8462c7dbd" y="56.134786"/>
      </g>
     </g>
    </g>
    <g id="ytick_52">
     <g id="line2d_59">
      <g>
       <use style="stroke:#000000;stroke-width:0.6;" x="52.9" xlink:href="#me8462c7dbd" y="54.009749"/>
      </g>
     </g>
    </g>
    <g id="ytick_53">
     <g id="line2d_60">
      <g>
       <use style="stroke:#000000;stroke-width:0.6;" x="52.9" xlink:href="#me8462c7dbd" y="52.168958"/>
      </g>
     </g>
    </g>
    <g id="ytick_54">
     <g id="line2d_61">
      <g>
       <use style="stroke:#000000;stroke-width:0.6;" x="52.9" xlink:href="#me8462c7dbd" y="50.545266"/>
      </g>
     </g>
    </g>
    <g id="ytick_55">
     <g id="line2d_62">
      <g>
       <use style="stroke:#000000;stroke-width:0.6;" x="52.9" xlink:href="#me8462c7dbd" y="39.537475"/>
      </g>
     </g>
    </g>
    <g id="ytick_56">
     <g id="line2d_63">
      <g>
       <use style="stroke:#000000;stroke-width:0.6;" x="52.9" xlink:href="#me8462c7dbd" y="33.947955"/>
      </g>
     </g>
    </g>
    <g id="ytick_57">
     <g id="line2d_64">
      <g>
       <use style="stroke:#000000;stroke-width:0.6;" x="52.9" xlink:href="#me8462c7dbd" y="29.982127"/>
      </g>
     </g>
    </g>
    <g id="ytick_58">
     <g id="line2d_65">
      <g>
       <use style="stroke:#000000;stroke-width:0.6;" x="52.9" xlink:href="#me8462c7dbd" y="26.905992"/>
      </g>
     </g>
    </g>
    <g id="ytick_59">
     <g id="line2d_66">
      <g>
       <use style="stroke:#000000;stroke-width:0.6;" x="52.9" xlink:href="#me8462c7dbd" y="24.392607"/>
      </g>
     </g>
    </g>
    <g id="ytick_60">
     <g id="line2d_67">
      <g>
       <use style="stroke:#000000;stroke-width:0.6;" x="52.9" xlink:href="#me8462c7dbd" y="22.26757"/>
      </g>
     </g>
    </g>
    <g id="ytick_61">
     <g id="line2d_68">
      <g>
       <use style="stroke:#000000;stroke-width:0.6;" x="52.9" xlink:href="#me8462c7dbd" y="20.426779"/>
      </g>
     </g>
    </g>
    <g id="ytick_62">
     <g id="line2d_69">
      <g>
       <use style="stroke:#000000;stroke-width:0.6;" x="52.9" xlink:href="#me8462c7dbd" y="18.803086"/>
      </g>
     </g>
    </g>
    <g id="ytick_63">
     <g id="line2d_70">
      <g>
       <use style="stroke:#000000;stroke-width:0.6;" x="52.9" xlink:href="#me8462c7dbd" y="7.795295"/>
      </g>
     </g>
    </g>
    <g id="text_16">
     <!-- DSC [$\mathrm{\mu m}^2/\mathrm{sr}$] -->
     <defs>
      <path d="M 19.671875 64.796875 
L 19.671875 8.109375 
L 31.59375 8.109375 
Q 46.6875 8.109375 53.6875 14.9375 
Q 60.6875 21.78125 60.6875 36.53125 
Q 60.6875 51.171875 53.6875 57.984375 
Q 46.6875 64.796875 31.59375 64.796875 
z
M 9.8125 72.90625 
L 30.078125 72.90625 
Q 51.265625 72.90625 61.171875 64.09375 
Q 71.09375 55.28125 71.09375 36.53125 
Q 71.09375 17.671875 61.125 8.828125 
Q 51.171875 0 30.078125 0 
L 9.8125 0 
z
" id="DejaVuSans-68"/>
      <path d="M 53.515625 70.515625 
L 53.515625 60.890625 
Q 47.90625 63.578125 42.921875 64.890625 
Q 37.9375 66.21875 33.296875 66.21875 
Q 25.25 66.21875 20.875 63.09375 
Q 16.5 59.96875 16.5 54.203125 
Q 16.5 49.359375 19.40625 46.890625 
Q 22.3125 44.4375 30.421875 42.921875 
L 36.375 41.703125 
Q 47.40625 39.59375 52.65625 34.296875 
Q 57.90625 29 57.90625 20.125 
Q 57.90625 9.515625 50.796875 4.046875 
Q 43.703125 -1.421875 29.984375 -1.421875 
Q 24.8125 -1.421875 18.96875 -0.25 
Q 13.140625 0.921875 6.890625 3.21875 
L 6.890625 13.375 
Q 12.890625 10.015625 18.65625 8.296875 
Q 24.421875 6.59375 29.984375 6.59375 
Q 38.421875 6.59375 43.015625 9.90625 
Q 47.609375 13.234375 47.609375 19.390625 
Q 47.609375 24.75 44.3125 27.78125 
Q 41.015625 30.8125 33.5 32.328125 
L 27.484375 33.5 
Q 16.453125 35.6875 11.515625 40.375 
Q 6.59375 45.0625 6.59375 53.421875 
Q 6.59375 63.09375 13.40625 68.65625 
Q 20.21875 74.21875 32.171875 74.21875 
Q 37.3125 74.21875 42.625 73.28125 
Q 47.953125 72.359375 53.515625 70.515625 
z
" id="DejaVuSans-83"/>
      <path d="M 64.40625 67.28125 
L 64.40625 56.890625 
Q 59.421875 61.53125 53.78125 63.8125 
Q 48.140625 66.109375 41.796875 66.109375 
Q 29.296875 66.109375 22.65625 58.46875 
Q 16.015625 50.828125 16.015625 36.375 
Q 16.015625 21.96875 22.65625 14.328125 
Q 29.296875 6.6875 41.796875 6.6875 
Q 48.140625 6.6875 53.78125 8.984375 
Q 59.421875 11.28125 64.40625 15.921875 
L 64.40625 5.609375 
Q 59.234375 2.09375 53.4375 0.328125 
Q 47.65625 -1.421875 41.21875 -1.421875 
Q 24.65625 -1.421875 15.125 8.703125 
Q 5.609375 18.84375 5.609375 36.375 
Q 5.609375 53.953125 15.125 64.078125 
Q 24.65625 74.21875 41.21875 74.21875 
Q 47.75 74.21875 53.53125 72.484375 
Q 59.328125 70.75 64.40625 67.28125 
z
" id="DejaVuSans-67"/>
      <path d="M 8.5 -20.796875 
L 8.5 54.6875 
L 17.484375 54.6875 
L 17.484375 20.703125 
Q 17.484375 13.625 20.84375 10 
Q 24.21875 6.390625 30.8125 6.390625 
Q 38.03125 6.390625 41.671875 10.484375 
Q 45.3125 14.59375 45.3125 22.796875 
L 45.3125 54.6875 
L 54.296875 54.6875 
L 54.296875 12.59375 
Q 54.296875 9.671875 55.140625 8.28125 
Q 56 6.890625 57.8125 6.890625 
Q 58.25 6.890625 59.03125 7.15625 
Q 59.8125 7.421875 61.1875 8.015625 
L 61.1875 0.78125 
Q 59.1875 -0.34375 57.390625 -0.875 
Q 55.609375 -1.421875 53.90625 -1.421875 
Q 50.53125 -1.421875 48.53125 0.484375 
Q 46.53125 2.390625 45.796875 6.296875 
Q 43.359375 2.4375 39.8125 0.5 
Q 36.28125 -1.421875 31.5 -1.421875 
Q 26.515625 -1.421875 23.015625 0.484375 
Q 19.53125 2.390625 17.484375 6.203125 
L 17.484375 -20.796875 
z
" id="DejaVuSans-956"/>
      <path d="M 52 44.1875 
Q 55.375 50.25 60.0625 53.125 
Q 64.75 56 71.09375 56 
Q 79.640625 56 84.28125 50.015625 
Q 88.921875 44.046875 88.921875 33.015625 
L 88.921875 0 
L 79.890625 0 
L 79.890625 32.71875 
Q 79.890625 40.578125 77.09375 44.375 
Q 74.3125 48.1875 68.609375 48.1875 
Q 61.625 48.1875 57.5625 43.546875 
Q 53.515625 38.921875 53.515625 30.90625 
L 53.515625 0 
L 44.484375 0 
L 44.484375 32.71875 
Q 44.484375 40.625 41.703125 44.40625 
Q 38.921875 48.1875 33.109375 48.1875 
Q 26.21875 48.1875 22.15625 43.53125 
Q 18.109375 38.875 18.109375 30.90625 
L 18.109375 0 
L 9.078125 0 
L 9.078125 54.6875 
L 18.109375 54.6875 
L 18.109375 46.1875 
Q 21.1875 51.21875 25.484375 53.609375 
Q 29.78125 56 35.6875 56 
Q 41.65625 56 45.828125 52.96875 
Q 50 49.953125 52 44.1875 
z
" id="DejaVuSans-109"/>
      <path d="M 25.390625 72.90625 
L 33.6875 72.90625 
L 8.296875 -9.28125 
L 0 -9.28125 
z
" id="DejaVuSans-47"/>
     </defs>
     <g transform="translate(16.3 148.77)rotate(-90)scale(0.1 -0.1)">
      <use transform="translate(0 0.765625)" xlink:href="#DejaVuSans-68"/>
      <use transform="translate(77.001953 0.765625)" xlink:href="#DejaVuSans-83"/>
      <use transform="translate(140.478516 0.765625)" xlink:href="#DejaVuSans-67"/>
      <use transform="translate(210.302734 0.765625)" xlink:href="#DejaVuSans-32"/>
      <use transform="translate(242.089844 0.765625)" xlink:href="#DejaVuSans-91"/>
      <use transform="translate(281.103516 0.765625)" xlink:href="#DejaVuSans-956"/>
      <use transform="translate(344.726562 0.765625)" xlink:href="#DejaVuSans-109"/>
      <use transform="translate(443.095703 39.046875)scale(0.7)" xlink:href="#DejaVuSans-50"/>
      <use transform="translate(490.366211 0.765625)" xlink:href="#DejaVuSans-47"/>
      <use transform="translate(524.057617 0.765625)" xlink:href="#DejaVuSans-115"/>
      <use transform="translate(576.157227 0.765625)" xlink:href="#DejaVuSans-114"/>
      <use transform="translate(617.270508 0.765625)" xlink:href="#DejaVuSans-93"/>
     </g>
    </g>
   </g>
   <g id="line2d_71">
    <path clip-path="url(#p6bf4faeeb6)" d="M 54.76 214.756364 
L 58.104242 190.145203 
L 61.448485 180.049979 
L 64.792727 174.359467 
L 68.13697 170.783773 
L 71.481212 168.439712 
L 74.825455 166.901877 
L 78.169697 165.937885 
L 81.513939 165.410207 
L 84.858182 165.233056 
L 88.202424 165.35118 
L 91.546667 165.728535 
L 94.890909 166.341865 
L 98.235152 167.176885 
L 101.579394 168.225913 
L 104.923636 169.486325 
L 108.267879 170.959431 
L 111.612121 172.649477 
L 114.956364 174.562403 
L 118.300606 176.703873 
L 121.644848 179.075672 
L 124.989091 181.668894 
L 128.333333 184.451194 
L 131.677576 187.344162 
L 135.021818 190.187957 
L 138.366061 192.70177 
L 141.710303 194.482938 
L 145.054545 195.123165 
L 148.398788 194.440201 
L 151.74303 192.611794 
L 155.087273 190.04198 
L 158.431515 187.1293 
L 161.775758 184.150338 
L 165.12 181.260441 
L 168.464242 178.533171 
L 171.808485 175.995584 
L 175.152727 173.650753 
L 178.49697 171.49037 
L 181.841212 169.501359 
L 185.185455 167.669205 
L 188.529697 165.97956 
L 191.873939 164.418959 
L 195.218182 162.975089 
L 198.562424 161.636838 
L 201.906667 160.394239 
L 205.250909 159.238375 
L 208.595152 158.161271 
L 211.939394 157.155785 
L 215.283636 156.215515 
L 218.627879 155.334707 
L 221.972121 154.508182 
L 225.316364 153.731276 
L 228.660606 152.999778 
L 232.004848 152.309887 
L 235.349091 151.658173 
L 238.693333 151.041543 
L 242.037576 150.457212 
L 245.381818 149.90268 
L 248.726061 149.375712 
L 252.070303 148.874323 
L 255.414545 148.396759 
L 258.758788 147.941491 
L 262.10303 147.507198 
L 265.447273 147.092767 
L 268.791515 146.697279 
L 272.135758 146.320009 
L 275.48 145.960419 
L 278.824242 145.618158 
L 282.168485 145.293059 
L 285.512727 144.985142 
L 288.85697 144.694616 
L 292.201212 144.421883 
L 295.545455 144.167546 
L 298.889697 143.932421 
L 302.233939 143.717553 
L 305.578182 143.52423 
L 308.922424 143.354019 
L 312.266667 143.208794 
L 315.610909 143.090784 
L 318.955152 143.002637 
L 322.299394 142.947495 
L 325.643636 142.929106 
L 328.987879 142.951963 
L 332.332121 143.021495 
L 335.676364 143.144334 
L 339.020606 143.328671 
L 342.364848 143.584765 
L 345.709091 143.925675 
L 349.053333 144.368317 
L 352.397576 144.935058 
L 355.741818 145.656168 
L 359.086061 146.573744 
L 362.430303 147.748223 
L 365.774545 149.269795 
L 369.118788 151.279691 
L 372.46303 154.013362 
L 375.807273 157.898694 
L 379.151515 163.820817 
L 382.495758 174.071057 
L 385.84 198.761593 
" style="fill:none;stroke:#1f77b4;stroke-linecap:square;stroke-width:1.5;"/>
   </g>
   <g id="line2d_72">
    <path clip-path="url(#p6bf4faeeb6)" d="M 54.76 189.783999 
L 58.104242 165.359594 
L 61.448485 155.62828 
L 64.792727 150.478948 
L 68.13697 147.620424 
L 71.481212 146.164592 
L 74.825455 145.673436 
L 78.169697 145.887299 
L 81.513939 146.615225 
L 84.858182 147.674601 
L 88.202424 148.848908 
L 91.546667 149.863452 
L 94.890909 150.402254 
L 98.235152 150.192006 
L 101.579394 149.123134 
L 104.923636 147.302736 
L 108.267879 144.980673 
L 111.612121 142.42516 
L 114.956364 139.845003 
L 118.300606 137.373988 
L 121.644848 135.086169 
L 124.989091 133.016398 
L 128.333333 131.176363 
L 131.677576 129.565029 
L 135.021818 128.174853 
L 138.366061 126.995325 
L 141.710303 126.014923 
L 145.054545 125.222144 
L 148.398788 124.606039 
L 151.74303 124.156459 
L 155.087273 123.864151 
L 158.431515 123.720779 
L 161.775758 123.7189 
L 165.12 123.85193 
L 168.464242 124.114093 
L 171.808485 124.500372 
L 175.152727 125.006448 
L 178.49697 125.628611 
L 181.841212 126.36365 
L 185.185455 127.208662 
L 188.529697 128.160767 
L 191.873939 129.216647 
L 195.218182 130.371821 
L 198.562424 131.619516 
L 201.906667 132.948942 
L 205.250909 134.342731 
L 208.595152 135.773291 
L 211.939394 137.198014 
L 215.283636 138.553805 
L 218.627879 139.752688 
L 221.972121 140.682298 
L 225.316364 141.216749 
L 228.660606 141.241481 
L 232.004848 140.68682 
L 235.349091 139.553487 
L 238.693333 137.913018 
L 242.037576 135.882751 
L 245.381818 133.592136 
L 248.726061 131.157381 
L 252.070303 128.670092 
L 255.414545 126.196486 
L 258.758788 123.781653 
L 262.10303 121.45499 
L 265.447273 119.23501 
L 268.791515 117.133008 
L 272.135758 115.155648 
L 275.48 113.306709 
L 278.824242 111.588229 
L 282.168485 110.001243 
L 285.512727 108.546243 
L 288.85697 107.223468 
L 292.201212 106.033069 
L 295.545455 104.975209 
L 298.889697 104.050107 
L 302.233939 103.258061 
L 305.578182 102.599442 
L 308.922424 102.074682 
L 312.266667 101.684255 
L 315.610909 101.428653 
L 318.955152 101.308367 
L 322.299394 101.323871 
L 325.643636 101.475623 
L 328.987879 101.764083 
L 332.332121 102.189776 
L 335.676364 102.753401 
L 339.020606 103.456049 
L 342.364848 104.299553 
L 345.709091 105.287076 
L 349.053333 106.42405 
L 352.397576 107.719699 
L 355.741818 109.189479 
L 359.086061 110.859091 
L 362.430303 112.771211 
L 365.774545 114.997269 
L 369.118788 117.659265 
L 372.46303 120.973649 
L 375.807273 125.350372 
L 379.151515 131.658606 
L 382.495758 142.176628 
L 385.84 167.007291 
" style="fill:none;stroke:#ff7f0e;stroke-linecap:square;stroke-width:1.5;"/>
   </g>
   <g id="line2d_73">
    <path clip-path="url(#p6bf4faeeb6)" d="M 54.76 152.344669 
L 58.104242 129.045593 
L 61.448485 121.47081 
L 64.792727 119.385482 
L 68.13697 120.147705 
L 71.481212 122.099957 
L 74.825455 123.699727 
L 78.169697 124.047656 
L 81.513939 123.266594 
L 84.858182 121.405954 
L 88.202424 117.635282 
L 91.546667 111.487325 
L 94.890909 104.042035 
L 98.235152 96.730864 
L 101.579394 90.317119 
L 104.923636 85.028614 
L 108.267879 80.860973 
L 111.612121 77.73132 
L 114.956364 75.533362 
L 118.300606 74.150722 
L 121.644848 73.453982 
L 124.989091 73.292388 
L 128.333333 73.488025 
L 131.677576 73.842342 
L 135.021818 74.164827 
L 138.366061 74.32189 
L 141.710303 74.281014 
L 145.054545 74.11694 
L 148.398788 73.974401 
L 151.74303 74.016428 
L 155.087273 74.388473 
L 158.431515 75.20629 
L 161.775758 76.559988 
L 165.12 78.525116 
L 168.464242 81.176045 
L 171.808485 84.601138 
L 175.152727 88.922367 
L 178.49697 94.32545 
L 181.841212 101.111601 
L 185.185455 109.78265 
L 188.529697 121.057306 
L 191.873939 134.095117 
L 195.218182 136.414476 
L 198.562424 125.932707 
L 201.906667 116.476887 
L 205.250909 109.585761 
L 208.595152 104.517515 
L 211.939394 100.726142 
L 215.283636 97.89559 
L 218.627879 95.851601 
L 221.972121 94.506433 
L 225.316364 93.828268 
L 228.660606 93.824409 
L 232.004848 94.53185 
L 235.349091 96.01013 
L 238.693333 98.328003 
L 242.037576 101.521265 
L 245.381818 105.45583 
L 248.726061 109.453052 
L 252.070303 111.766068 
L 255.414545 110.501528 
L 258.758788 106.290901 
L 262.10303 101.344218 
L 265.447273 97.03491 
L 268.791515 93.862669 
L 272.135758 92.007629 
L 275.48 91.62 
L 278.824242 92.967355 
L 282.168485 96.606116 
L 285.512727 103.813085 
L 288.85697 118.205586 
L 292.201212 143.552264 
L 295.545455 113.852338 
L 298.889697 94.287436 
L 302.233939 81.993794 
L 305.578182 73.217482 
L 308.922424 66.609872 
L 312.266667 61.550558 
L 315.610909 57.7083 
L 318.955152 54.889605 
L 322.299394 52.975443 
L 325.643636 51.891093 
L 328.987879 51.590387 
L 332.332121 52.046995 
L 335.676364 53.249601 
L 339.020606 55.199588 
L 342.364848 57.910848 
L 345.709091 61.412037 
L 349.053333 65.752382 
L 352.397576 71.01341 
L 355.741818 77.331146 
L 359.086061 84.93849 
L 362.430303 94.251406 
L 365.774545 106.070113 
L 369.118788 122.172626 
L 372.46303 147.877282 
L 375.807273 180.816536 
L 379.151515 156.32598 
L 382.495758 154.640478 
L 385.84 174.631856 
" style="fill:none;stroke:#2ca02c;stroke-linecap:square;stroke-width:1.5;"/>
   </g>
   <g id="line2d_74">
    <path clip-path="url(#p6bf4faeeb6)" d="M 54.76 164.243432 
L 58.104242 147.498723 
L 61.448485 155.112322 
L 64.792727 151.606801 
L 68.13697 128.532652 
L 71.481212 113.124519 
L 74.825455 101.373177 
L 78.169697 91.899938 
L 81.513939 84.447535 
L 84.858182 78.658176 
L 88.202424 74.100555 
L 91.546667 70.575956 
L 94.890909 68.196734 
L 98.235152 67.201696 
L 101.579394 67.741804 
L 104.923636 69.712632 
L 108.267879 72.442821 
L 111.612121 74.182596 
L 114.956364 72.889708 
L 118.300606 69.091902 
L 121.644848 65.188079 
L 124.989091 62.750614 
L 128.333333 62.3469 
L 131.677576 64.035716 
L 135.021818 67.42847 
L 138.366061 71.339317 
L 141.710303 73.807234 
L 145.054545 74.01307 
L 148.398788 73.36489 
L 151.74303 73.280843 
L 155.087273 73.944591 
L 158.431515 74.630788 
L 161.775758 74.549518 
L 165.12 73.777066 
L 168.464242 73.179187 
L 171.808485 73.636156 
L 175.152727 75.74236 
L 178.49697 79.961435 
L 181.841212 86.904982 
L 185.185455 97.766408 
L 188.529697 115.07511 
L 191.873939 130.595686 
L 195.218182 114.891891 
L 198.562424 103.563428 
L 201.906667 97.895201 
L 205.250909 95.732081 
L 208.595152 96.163564 
L 211.939394 98.839007 
L 215.283636 103.562041 
L 218.627879 109.508979 
L 221.972121 113.355548 
L 225.316364 111.219073 
L 228.660606 106.220545 
L 232.004848 102.673272 
L 235.349091 102.211467 
L 238.693333 105.778513 
L 242.037576 114.459098 
L 245.381818 122.22613 
L 248.726061 110.010004 
L 252.070303 96.871081 
L 255.414545 89.299509 
L 258.758788 86.75565 
L 262.10303 89.715336 
L 265.447273 100.909256 
L 268.791515 112.872492 
L 272.135758 88.486689 
L 275.48 71.738431 
L 278.824242 61.910983 
L 282.168485 56.527679 
L 285.512727 54.606729 
L 288.85697 55.46549 
L 292.201212 57.499356 
L 295.545455 57.105647 
L 298.889697 52.857735 
L 302.233939 48.509587 
L 305.578182 47.390038 
L 308.922424 51.9424 
L 312.266667 68.227347 
L 315.610909 83.715124 
L 318.955152 47.705498 
L 322.299394 31.311564 
L 325.643636 22.304014 
L 328.987879 17.841092 
L 332.332121 17.083636 
L 335.676364 19.998321 
L 339.020606 27.287675 
L 342.364848 41.196085 
L 345.709091 69.454731 
L 349.053333 68.035463 
L 352.397576 49.985591 
L 355.741818 45.004419 
L 359.086061 46.842801 
L 362.430303 53.812621 
L 365.774545 65.183936 
L 369.118788 78.416612 
L 372.46303 82.139765 
L 375.807273 75.021937 
L 379.151515 70.225514 
L 382.495758 73.15151 
L 385.84 94.118312 
" style="fill:none;stroke:#d62728;stroke-linecap:square;stroke-width:1.5;"/>
   </g>
   <g id="patch_3">
    <path d="M 52.9 224.64 
L 52.9 7.2 
" style="fill:none;stroke:#000000;stroke-linecap:square;stroke-linejoin:miter;stroke-width:0.8;"/>
   </g>
   <g id="patch_4">
    <path d="M 387.7 224.64 
L 387.7 7.2 
" style="fill:none;stroke:#000000;stroke-linecap:square;stroke-linejoin:miter;stroke-width:0.8;"/>
   </g>
   <g id="patch_5">
    <path d="M 52.9 224.64 
L 387.7 224.64 
" style="fill:none;stroke:#000000;stroke-linecap:square;stroke-linejoin:miter;stroke-width:0.8;"/>
   </g>
   <g id="patch_6">
    <path d="M 52.9 7.2 
L 387.7 7.2 
" style="fill:none;stroke:#000000;stroke-linecap:square;stroke-linejoin:miter;stroke-width:0.8;"/>
   </g>
   <g id="legend_1">
    <g id="patch_7">
     <path d="M 175.489844 73.9125 
L 265.110156 73.9125 
Q 267.110156 73.9125 267.110156 71.9125 
L 267.110156 14.2 
Q 267.110156 12.2 265.110156 12.2 
L 175.489844 12.2 
Q 173.489844 12.2 173.489844 14.2 
L 173.489844 71.9125 
Q 173.489844 73.9125 175.489844 73.9125 
z
" style="fill:#ffffff;opacity:0.8;stroke:#cccccc;stroke-linejoin:miter;"/>
    </g>
    <g id="line2d_75">
     <path d="M 177.489844 20.298438 
L 197.489844 20.298438 
" style="fill:none;stroke:#1f77b4;stroke-linecap:square;stroke-width:1.5;"/>
    </g>
    <g id="line2d_76"/>
    <g id="text_17">
     <!-- D = 0.1 µm -->
     <defs>
      <path d="M 10.59375 45.40625 
L 73.1875 45.40625 
L 73.1875 37.203125 
L 10.59375 37.203125 
z
M 10.59375 25.484375 
L 73.1875 25.484375 
L 73.1875 17.1875 
L 10.59375 17.1875 
z
" id="DejaVuSans-61"/>
      <path d="M 10.6875 12.40625 
L 21 12.40625 
L 21 0 
L 10.6875 0 
z
" id="DejaVuSans-46"/>
      <path d="M 8.5 -20.796875 
L 8.5 54.6875 
L 17.484375 54.6875 
L 17.484375 20.703125 
Q 17.484375 13.625 20.84375 10 
Q 24.21875 6.390625 30.8125 6.390625 
Q 38.03125 6.390625 41.671875 10.484375 
Q 45.3125 14.59375 45.3125 22.796875 
L 45.3125 54.6875 
L 54.296875 54.6875 
L 54.296875 12.59375 
Q 54.296875 9.671875 55.140625 8.28125 
Q 56 6.890625 57.8125 6.890625 
Q 58.25 6.890625 59.03125 7.15625 
Q 59.8125 7.421875 61.1875 8.015625 
L 61.1875 0.78125 
Q 59.1875 -0.34375 57.390625 -0.875 
Q 55.609375 -1.421875 53.90625 -1.421875 
Q 50.53125 -1.421875 48.53125 0.484375 
Q 46.53125 2.390625 45.796875 6.296875 
Q 43.359375 2.4375 39.8125 0.5 
Q 36.28125 -1.421875 31.5 -1.421875 
Q 26.515625 -1.421875 23.015625 0.484375 
Q 19.53125 2.390625 17.484375 6.203125 
L 17.484375 -20.796875 
z
" id="DejaVuSans-181"/>
     </defs>
     <g transform="translate(205.489844 23.798438)scale(0.1 -0.1)">
      <use xlink:href="#DejaVuSans-68"/>
      <use x="77.001953" xlink:href="#DejaVuSans-32"/>
      <use x="108.789062" xlink:href="#DejaVuSans-61"/>
      <use x="192.578125" xlink:href="#DejaVuSans-32"/>
      <use x="224.365234" xlink:href="#DejaVuSans-48"/>
      <use x="287.988281" xlink:href="#DejaVuSans-46"/>
      <use x="319.775391" xlink:href="#DejaVuSans-49"/>
      <use x="383.398438" xlink:href="#DejaVuSans-32"/>
      <use x="415.185547" xlink:href="#DejaVuSans-181"/>
      <use x="478.808594" xlink:href="#DejaVuSans-109"/>
     </g>
    </g>
    <g id="line2d_77">
     <path d="M 177.489844 34.976563 
L 197.489844 34.976563 
" style="fill:none;stroke:#ff7f0e;stroke-linecap:square;stroke-width:1.5;"/>
    </g>
    <g id="line2d_78"/>
    <g id="text_18">
     <!-- D = 0.2 µm -->
     <g transform="translate(205.489844 38.476563)scale(0.1 -0.1)">
      <use xlink:href="#DejaVuSans-68"/>
      <use x="77.001953" xlink:href="#DejaVuSans-32"/>
      <use x="108.789062" xlink:href="#DejaVuSans-61"/>
      <use x="192.578125" xlink:href="#DejaVuSans-32"/>
      <use x="224.365234" xlink:href="#DejaVuSans-48"/>
      <use x="287.988281" xlink:href="#DejaVuSans-46"/>
      <use x="319.775391" xlink:href="#DejaVuSans-50"/>
      <use x="383.398438" xlink:href="#DejaVuSans-32"/>
      <use x="415.185547" xlink:href="#DejaVuSans-181"/>
      <use x="478.808594" xlink:href="#DejaVuSans-109"/>
     </g>
    </g>
    <g id="line2d_79">
     <path d="M 177.489844 49.654688 
L 197.489844 49.654688 
" style="fill:none;stroke:#2ca02c;stroke-linecap:square;stroke-width:1.5;"/>
    </g>
    <g id="line2d_80"/>
    <g id="text_19">
     <!-- D = 0.5 µm -->
     <g transform="translate(205.489844 53.154688)scale(0.1 -0.1)">
      <use xlink:href="#DejaVuSans-68"/>
      <use x="77.001953" xlink:href="#DejaVuSans-32"/>
      <use x="108.789062" xlink:href="#DejaVuSans-61"/>
      <use x="192.578125" xlink:href="#DejaVuSans-32"/>
      <use x="224.365234" xlink:href="#DejaVuSans-48"/>
      <use x="287.988281" xlink:href="#DejaVuSans-46"/>
      <use x="319.775391" xlink:href="#DejaVuSans-53"/>
      <use x="383.398438" xlink:href="#DejaVuSans-32"/>
      <use x="415.185547" xlink:href="#DejaVuSans-181"/>
      <use x="478.808594" xlink:href="#DejaVuSans-109"/>
     </g>
    </g>
    <g id="line2d_81">
     <path d="M 177.489844 64.332813 
L 197.489844 64.332813 
" style="fill:none;stroke:#d62728;stroke-linecap:square;stroke-width:1.5;"/>
    </g>
    <g id="line2d_82"/>
    <g id="text_20">
     <!-- D = 1 µm -->
     <g transform="translate(205.489844 67.832813)scale(0.1 -0.1)">
      <use xlink:href="#DejaVuSans-68"/>
      <use x="77.001953" xlink:href="#DejaVuSans-32"/>
      <use x="108.789062" xlink:href="#DejaVuSans-61"/>
      <use x="192.578125" xlink:href="#DejaVuSans-32"/>
      <use x="224.365234" xlink:href="#DejaVuSans-49"/>
      <use x="287.988281" xlink:href="#DejaVuSans-32"/>
      <use x="319.775391" xlink:href="#DejaVuSans-181"/>
      <use x="383.398438" xlink:href="#DejaVuSans-109"/>
     </g>
    </g>
   </g>
  </g>
 </g>
 <defs>
  <clipPath id="p6bf4faeeb6">
   <rect height="217.44" width="334.8" x="52.9" y="7.2"/>
  </clipPath>
 </defs>
</svg>
