<?xml version="1.0" encoding="utf-8" standalone="no"?>
<!DOCTYPE svg PUBLIC "-//W3C//DTD SVG 1.1//EN"
  "http://www.w3.org/Graphics/SVG/1.1/DTD/svg11.dtd">
<!-- Created with matplotlib (https://matplotlib.org/) -->
<svg height="262.19625pt" version="1.1" viewBox="0 0 386.318321 262.19625" width="386.318321pt" xmlns="http://www.w3.org/2000/svg" xmlns:xlink="http://www.w3.org/1999/xlink">
 <defs>
  <style type="text/css">
*{stroke-linecap:butt;stroke-linejoin:round;}
  </style>
 </defs>
 <g id="figure_1">
  <g id="patch_1">
   <path d="M 0 262.19625 
L 386.318321 262.19625 
L 386.318321 0 
L 0 0 
z
" style="fill:none;"/>
  </g>
  <g id="axes_1">
   <g id="patch_2">
    <path d="M 43.78125 224.64 
L 378.58125 224.64 
L 378.58125 7.2 
L 43.78125 7.2 
z
" style="fill:#ffffff;"/>
   </g>
   <g id="matplotlib.axis_1">
    <g id="xtick_1">
     <g id="line2d_1">
      <defs>
       <path d="M 0 0 
L 0 3.5 
" id="mc9c6804176" style="stroke:#000000;stroke-width:0.8;"/>
      </defs>
      <g>
       <use style="stroke:#000000;stroke-width:0.8;" x="58.999432" xlink:href="#mc9c6804176" y="224.64"/>
      </g>
     </g>
     <g id="text_1">
      <!-- 0 -->
      <defs>
       <path d="M 31.78125 66.40625 
Q 24.171875 66.40625 20.328125 58.90625 
Q 16.5 51.421875 16.5 36.375 
Q 16.5 21.390625 20.328125 13.890625 
Q 24.171875 6.390625 31.78125 6.390625 
Q 39.453125 6.390625 43.28125 13.890625 
Q 47.125 21.390625 47.125 36.375 
Q 47.125 51.421875 43.28125 58.90625 
Q 39.453125 66.40625 31.78125 66.40625 
z
M 31.78125 74.21875 
Q 44.046875 74.21875 50.515625 64.515625 
Q 56.984375 54.828125 56.984375 36.375 
Q 56.984375 17.96875 50.515625 8.265625 
Q 44.046875 -1.421875 31.78125 -1.421875 
Q 19.53125 -1.421875 13.0625 8.265625 
Q 6.59375 17.96875 6.59375 36.375 
Q 6.59375 54.828125 13.0625 64.515625 
Q 19.53125 74.21875 31.78125 74.21875 
z
" id="DejaVuSans-48"/>
      </defs>
      <g transform="translate(55.818182 239.238437)scale(0.1 -0.1)">
       <use xlink:href="#DejaVuSans-48"/>
      </g>
     </g>
    </g>
    <g id="xtick_2">
     <g id="line2d_2">
      <g>
       <use style="stroke:#000000;stroke-width:0.8;" x="121.11446" xlink:href="#mc9c6804176" y="224.64"/>
      </g>
     </g>
     <g id="text_2">
      <!-- 20 -->
      <defs>
       <path d="M 19.1875 8.296875 
L 53.609375 8.296875 
L 53.609375 0 
L 7.328125 0 
L 7.328125 8.296875 
Q 12.9375 14.109375 22.625 23.890625 
Q 32.328125 33.6875 34.8125 36.53125 
Q 39.546875 41.84375 41.421875 45.53125 
Q 43.3125 49.21875 43.3125 52.78125 
Q 43.3125 58.59375 39.234375 62.25 
Q 35.15625 65.921875 28.609375 65.921875 
Q 23.96875 65.921875 18.8125 64.3125 
Q 13.671875 62.703125 7.8125 59.421875 
L 7.8125 69.390625 
Q 13.765625 71.78125 18.9375 73 
Q 24.125 74.21875 28.421875 74.21875 
Q 39.75 74.21875 46.484375 68.546875 
Q 53.21875 62.890625 53.21875 53.421875 
Q 53.21875 48.921875 51.53125 44.890625 
Q 49.859375 40.875 45.40625 35.40625 
Q 44.1875 33.984375 37.640625 27.21875 
Q 31.109375 20.453125 19.1875 8.296875 
z
" id="DejaVuSans-50"/>
      </defs>
      <g transform="translate(114.75196 239.238437)scale(0.1 -0.1)">
       <use xlink:href="#DejaVuSans-50"/>
       <use x="63.623047" xlink:href="#DejaVuSans-48"/>
      </g>
     </g>
    </g>
    <g id="xtick_3">
     <g id="line2d_3">
      <g>
       <use style="stroke:#000000;stroke-width:0.8;" x="183.229487" xlink:href="#mc9c6804176" y="224.64"/>
      </g>
     </g>
     <g id="text_3">
      <!-- 40 -->
      <defs>
       <path d="M 37.796875 64.3125 
L 12.890625 25.390625 
L 37.796875 25.390625 
z
M 35.203125 72.90625 
L 47.609375 72.90625 
L 47.609375 25.390625 
L 58.015625 25.390625 
L 58.015625 17.1875 
L 47.609375 17.1875 
L 47.609375 0 
L 37.796875 0 
L 37.796875 17.1875 
L 4.890625 17.1875 
L 4.890625 26.703125 
z
" id="DejaVuSans-52"/>
      </defs>
      <g transform="translate(176.866987 239.238437)scale(0.1 -0.1)">
       <use xlink:href="#DejaVuSans-52"/>
       <use x="63.623047" xlink:href="#DejaVuSans-48"/>
      </g>
     </g>
    </g>
    <g id="xtick_4">
     <g id="line2d_4">
      <g>
       <use style="stroke:#000000;stroke-width:0.8;" x="245.344515" xlink:href="#mc9c6804176" y="224.64"/>
      </g>
     </g>
     <g id="text_4">
      <!-- 60 -->
      <defs>
       <path d="M 33.015625 40.375 
Q 26.375 40.375 22.484375 35.828125 
Q 18.609375 31.296875 18.609375 23.390625 
Q 18.609375 15.53125 22.484375 10.953125 
Q 26.375 6.390625 33.015625 6.390625 
Q 39.65625 6.390625 43.53125 10.953125 
Q 47.40625 15.53125 47.40625 23.390625 
Q 47.40625 31.296875 43.53125 35.828125 
Q 39.65625 40.375 33.015625 40.375 
z
M 52.59375 71.296875 
L 52.59375 62.3125 
Q 48.875 64.0625 45.09375 64.984375 
Q 41.3125 65.921875 37.59375 65.921875 
Q 27.828125 65.921875 22.671875 59.328125 
Q 17.53125 52.734375 16.796875 39.40625 
Q 19.671875 43.65625 24.015625 45.921875 
Q 28.375 48.1875 33.59375 48.1875 
Q 44.578125 48.1875 50.953125 41.515625 
Q 57.328125 34.859375 57.328125 23.390625 
Q 57.328125 12.15625 50.6875 5.359375 
Q 44.046875 -1.421875 33.015625 -1.421875 
Q 20.359375 -1.421875 13.671875 8.265625 
Q 6.984375 17.96875 6.984375 36.375 
Q 6.984375 53.65625 15.1875 63.9375 
Q 23.390625 74.21875 37.203125 74.21875 
Q 40.921875 74.21875 44.703125 73.484375 
Q 48.484375 72.75 52.59375 71.296875 
z
" id="DejaVuSans-54"/>
      </defs>
      <g transform="translate(238.982015 239.238437)scale(0.1 -0.1)">
       <use xlink:href="#DejaVuSans-54"/>
       <use x="63.623047" xlink:href="#DejaVuSans-48"/>
      </g>
     </g>
    </g>
    <g id="xtick_5">
     <g id="line2d_5">
      <g>
       <use style="stroke:#000000;stroke-width:0.8;" x="307.459543" xlink:href="#mc9c6804176" y="224.64"/>
      </g>
     </g>
     <g id="text_5">
      <!-- 80 -->
      <defs>
       <path d="M 31.78125 34.625 
Q 24.75 34.625 20.71875 30.859375 
Q 16.703125 27.09375 16.703125 20.515625 
Q 16.703125 13.921875 20.71875 10.15625 
Q 24.75 6.390625 31.78125 6.390625 
Q 38.8125 6.390625 42.859375 10.171875 
Q 46.921875 13.96875 46.921875 20.515625 
Q 46.921875 27.09375 42.890625 30.859375 
Q 38.875 34.625 31.78125 34.625 
z
M 21.921875 38.8125 
Q 15.578125 40.375 12.03125 44.71875 
Q 8.5 49.078125 8.5 55.328125 
Q 8.5 64.0625 14.71875 69.140625 
Q 20.953125 74.21875 31.78125 74.21875 
Q 42.671875 74.21875 48.875 69.140625 
Q 55.078125 64.0625 55.078125 55.328125 
Q 55.078125 49.078125 51.53125 44.71875 
Q 48 40.375 41.703125 38.8125 
Q 48.828125 37.15625 52.796875 32.3125 
Q 56.78125 27.484375 56.78125 20.515625 
Q 56.78125 9.90625 50.3125 4.234375 
Q 43.84375 -1.421875 31.78125 -1.421875 
Q 19.734375 -1.421875 13.25 4.234375 
Q 6.78125 9.90625 6.78125 20.515625 
Q 6.78125 27.484375 10.78125 32.3125 
Q 14.796875 37.15625 21.921875 38.8125 
z
M 18.3125 54.390625 
Q 18.3125 48.734375 21.84375 45.5625 
Q 25.390625 42.390625 31.78125 42.390625 
Q 38.140625 42.390625 41.71875 45.5625 
Q 45.3125 48.734375 45.3125 54.390625 
Q 45.3125 60.0625 41.71875 63.234375 
Q 38.140625 66.40625 31.78125 66.40625 
Q 25.390625 66.40625 21.84375 63.234375 
Q 18.3125 60.0625 18.3125 54.390625 
z
" id="DejaVuSans-56"/>
      </defs>
      <g transform="translate(301.097043 239.238437)scale(0.1 -0.1)">
       <use xlink:href="#DejaVuSans-56"/>
       <use x="63.623047" xlink:href="#DejaVuSans-48"/>
      </g>
     </g>
    </g>
    <g id="xtick_6">
     <g id="line2d_6">
      <g>
       <use style="stroke:#000000;stroke-width:0.8;" x="369.574571" xlink:href="#mc9c6804176" y="224.64"/>
      </g>
     </g>
     <g id="text_6">
      <!-- 100 -->
      <defs>
       <path d="M 12.40625 8.296875 
L 28.515625 8.296875 
L 28.515625 63.921875 
L 10.984375 60.40625 
L 10.984375 69.390625 
L 28.421875 72.90625 
L 38.28125 72.90625 
L 38.28125 8.296875 
L 54.390625 8.296875 
L 54.390625 0 
L 12.40625 0 
z
" id="DejaVuSans-49"/>
      </defs>
      <g transform="translate(360.030821 239.238437)scale(0.1 -0.1)">
       <use xlink:href="#DejaVuSans-49"/>
       <use x="63.623047" xlink:href="#DejaVuSans-48"/>
       <use x="127.246094" xlink:href="#DejaVuSans-48"/>
      </g>
     </g>
    </g>
    <g id="text_7">
     <!-- Number of Jones-Mueller matrices averaged -->
     <defs>
      <path d="M 9.8125 72.90625 
L 23.09375 72.90625 
L 55.421875 11.921875 
L 55.421875 72.90625 
L 64.984375 72.90625 
L 64.984375 0 
L 51.703125 0 
L 19.390625 60.984375 
L 19.390625 0 
L 9.8125 0 
z
" id="DejaVuSans-78"/>
      <path d="M 8.5 21.578125 
L 8.5 54.6875 
L 17.484375 54.6875 
L 17.484375 21.921875 
Q 17.484375 14.15625 20.5 10.265625 
Q 23.53125 6.390625 29.59375 6.390625 
Q 36.859375 6.390625 41.078125 11.03125 
Q 45.3125 15.671875 45.3125 23.6875 
L 45.3125 54.6875 
L 54.296875 54.6875 
L 54.296875 0 
L 45.3125 0 
L 45.3125 8.40625 
Q 42.046875 3.421875 37.71875 1 
Q 33.40625 -1.421875 27.6875 -1.421875 
Q 18.265625 -1.421875 13.375 4.4375 
Q 8.5 10.296875 8.5 21.578125 
z
M 31.109375 56 
z
" id="DejaVuSans-117"/>
      <path d="M 52 44.1875 
Q 55.375 50.25 60.0625 53.125 
Q 64.75 56 71.09375 56 
Q 79.640625 56 84.28125 50.015625 
Q 88.921875 44.046875 88.921875 33.015625 
L 88.921875 0 
L 79.890625 0 
L 79.890625 32.71875 
Q 79.890625 40.578125 77.09375 44.375 
Q 74.3125 48.1875 68.609375 48.1875 
Q 61.625 48.1875 57.5625 43.546875 
Q 53.515625 38.921875 53.515625 30.90625 
L 53.515625 0 
L 44.484375 0 
L 44.484375 32.71875 
Q 44.484375 40.625 41.703125 44.40625 
Q 38.921875 48.1875 33.109375 48.1875 
Q 26.21875 48.1875 22.15625 43.53125 
Q 18.109375 38.875 18.109375 30.90625 
L 18.109375 0 
L 9.078125 0 
L 9.078125 54.6875 
L 18.109375 54.6875 
L 18.109375 46.1875 
Q 21.1875 51.21875 25.484375 53.609375 
Q 29.78125 56 35.6875 56 
Q 41.65625 56 45.828125 52.96875 
Q 50 49.953125 52 44.1875 
z
" id="DejaVuSans-109"/>
      <path d="M 48.6875 27.296875 
Q 48.6875 37.203125 44.609375 42.84375 
Q 40.53125 48.484375 33.40625 48.484375 
Q 26.265625 48.484375 22.1875 42.84375 
Q 18.109375 37.203125 18.109375 27.296875 
Q 18.109375 17.390625 22.1875 11.75 
Q 26.265625 6.109375 33.40625 6.109375 
Q 40.53125 6.109375 44.609375 11.75 
Q 48.6875 17.390625 48.6875 27.296875 
z
M 18.109375 46.390625 
Q 20.953125 51.265625 25.265625 53.625 
Q 29.59375 56 35.59375 56 
Q 45.5625 56 51.78125 48.09375 
Q 58.015625 40.1875 58.015625 27.296875 
Q 58.015625 14.40625 51.78125 6.484375 
Q 45.5625 -1.421875 35.59375 -1.421875 
Q 29.59375 -1.421875 25.265625 0.953125 
Q 20.953125 3.328125 18.109375 8.203125 
L 18.109375 0 
L 9.078125 0 
L 9.078125 75.984375 
L 18.109375 75.984375 
z
" id="DejaVuSans-98"/>
      <path d="M 56.203125 29.59375 
L 56.203125 25.203125 
L 14.890625 25.203125 
Q 15.484375 15.921875 20.484375 11.0625 
Q 25.484375 6.203125 34.421875 6.203125 
Q 39.59375 6.203125 44.453125 7.46875 
Q 49.3125 8.734375 54.109375 11.28125 
L 54.109375 2.78125 
Q 49.265625 0.734375 44.1875 -0.34375 
Q 39.109375 -1.421875 33.890625 -1.421875 
Q 20.796875 -1.421875 13.15625 6.1875 
Q 5.515625 13.8125 5.515625 26.8125 
Q 5.515625 40.234375 12.765625 48.109375 
Q 20.015625 56 32.328125 56 
Q 43.359375 56 49.78125 48.890625 
Q 56.203125 41.796875 56.203125 29.59375 
z
M 47.21875 32.234375 
Q 47.125 39.59375 43.09375 43.984375 
Q 39.0625 48.390625 32.421875 48.390625 
Q 24.90625 48.390625 20.390625 44.140625 
Q 15.875 39.890625 15.1875 32.171875 
z
" id="DejaVuSans-101"/>
      <path d="M 41.109375 46.296875 
Q 39.59375 47.171875 37.8125 47.578125 
Q 36.03125 48 33.890625 48 
Q 26.265625 48 22.1875 43.046875 
Q 18.109375 38.09375 18.109375 28.8125 
L 18.109375 0 
L 9.078125 0 
L 9.078125 54.6875 
L 18.109375 54.6875 
L 18.109375 46.1875 
Q 20.953125 51.171875 25.484375 53.578125 
Q 30.03125 56 36.53125 56 
Q 37.453125 56 38.578125 55.875 
Q 39.703125 55.765625 41.0625 55.515625 
z
" id="DejaVuSans-114"/>
      <path id="DejaVuSans-32"/>
      <path d="M 30.609375 48.390625 
Q 23.390625 48.390625 19.1875 42.75 
Q 14.984375 37.109375 14.984375 27.296875 
Q 14.984375 17.484375 19.15625 11.84375 
Q 23.34375 6.203125 30.609375 6.203125 
Q 37.796875 6.203125 41.984375 11.859375 
Q 46.1875 17.53125 46.1875 27.296875 
Q 46.1875 37.015625 41.984375 42.703125 
Q 37.796875 48.390625 30.609375 48.390625 
z
M 30.609375 56 
Q 42.328125 56 49.015625 48.375 
Q 55.71875 40.765625 55.71875 27.296875 
Q 55.71875 13.875 49.015625 6.21875 
Q 42.328125 -1.421875 30.609375 -1.421875 
Q 18.84375 -1.421875 12.171875 6.21875 
Q 5.515625 13.875 5.515625 27.296875 
Q 5.515625 40.765625 12.171875 48.375 
Q 18.84375 56 30.609375 56 
z
" id="DejaVuSans-111"/>
      <path d="M 37.109375 75.984375 
L 37.109375 68.5 
L 28.515625 68.5 
Q 23.6875 68.5 21.796875 66.546875 
Q 19.921875 64.59375 19.921875 59.515625 
L 19.921875 54.6875 
L 34.71875 54.6875 
L 34.71875 47.703125 
L 19.921875 47.703125 
L 19.921875 0 
L 10.890625 0 
L 10.890625 47.703125 
L 2.296875 47.703125 
L 2.296875 54.6875 
L 10.890625 54.6875 
L 10.890625 58.5 
Q 10.890625 67.625 15.140625 71.796875 
Q 19.390625 75.984375 28.609375 75.984375 
z
" id="DejaVuSans-102"/>
      <path d="M 9.8125 72.90625 
L 19.671875 72.90625 
L 19.671875 5.078125 
Q 19.671875 -8.109375 14.671875 -14.0625 
Q 9.671875 -20.015625 -1.421875 -20.015625 
L -5.171875 -20.015625 
L -5.171875 -11.71875 
L -2.09375 -11.71875 
Q 4.4375 -11.71875 7.125 -8.046875 
Q 9.8125 -4.390625 9.8125 5.078125 
z
" id="DejaVuSans-74"/>
      <path d="M 54.890625 33.015625 
L 54.890625 0 
L 45.90625 0 
L 45.90625 32.71875 
Q 45.90625 40.484375 42.875 44.328125 
Q 39.84375 48.1875 33.796875 48.1875 
Q 26.515625 48.1875 22.3125 43.546875 
Q 18.109375 38.921875 18.109375 30.90625 
L 18.109375 0 
L 9.078125 0 
L 9.078125 54.6875 
L 18.109375 54.6875 
L 18.109375 46.1875 
Q 21.34375 51.125 25.703125 53.5625 
Q 30.078125 56 35.796875 56 
Q 45.21875 56 50.046875 50.171875 
Q 54.890625 44.34375 54.890625 33.015625 
z
" id="DejaVuSans-110"/>
      <path d="M 44.28125 53.078125 
L 44.28125 44.578125 
Q 40.484375 46.53125 36.375 47.5 
Q 32.28125 48.484375 27.875 48.484375 
Q 21.1875 48.484375 17.84375 46.4375 
Q 14.5 44.390625 14.5 40.28125 
Q 14.5 37.15625 16.890625 35.375 
Q 19.28125 33.59375 26.515625 31.984375 
L 29.59375 31.296875 
Q 39.15625 29.25 43.1875 25.515625 
Q 47.21875 21.78125 47.21875 15.09375 
Q 47.21875 7.46875 41.1875 3.015625 
Q 35.15625 -1.421875 24.609375 -1.421875 
Q 20.21875 -1.421875 15.453125 -0.5625 
Q 10.6875 0.296875 5.421875 2 
L 5.421875 11.28125 
Q 10.40625 8.6875 15.234375 7.390625 
Q 20.0625 6.109375 24.8125 6.109375 
Q 31.15625 6.109375 34.5625 8.28125 
Q 37.984375 10.453125 37.984375 14.40625 
Q 37.984375 18.0625 35.515625 20.015625 
Q 33.0625 21.96875 24.703125 23.78125 
L 21.578125 24.515625 
Q 13.234375 26.265625 9.515625 29.90625 
Q 5.8125 33.546875 5.8125 39.890625 
Q 5.8125 47.609375 11.28125 51.796875 
Q 16.75 56 26.8125 56 
Q 31.78125 56 36.171875 55.265625 
Q 40.578125 54.546875 44.28125 53.078125 
z
" id="DejaVuSans-115"/>
      <path d="M 4.890625 31.390625 
L 31.203125 31.390625 
L 31.203125 23.390625 
L 4.890625 23.390625 
z
" id="DejaVuSans-45"/>
      <path d="M 9.8125 72.90625 
L 24.515625 72.90625 
L 43.109375 23.296875 
L 61.8125 72.90625 
L 76.515625 72.90625 
L 76.515625 0 
L 66.890625 0 
L 66.890625 64.015625 
L 48.09375 14.015625 
L 38.1875 14.015625 
L 19.390625 64.015625 
L 19.390625 0 
L 9.8125 0 
z
" id="DejaVuSans-77"/>
      <path d="M 9.421875 75.984375 
L 18.40625 75.984375 
L 18.40625 0 
L 9.421875 0 
z
" id="DejaVuSans-108"/>
      <path d="M 34.28125 27.484375 
Q 23.390625 27.484375 19.1875 25 
Q 14.984375 22.515625 14.984375 16.5 
Q 14.984375 11.71875 18.140625 8.90625 
Q 21.296875 6.109375 26.703125 6.109375 
Q 34.1875 6.109375 38.703125 11.40625 
Q 43.21875 16.703125 43.21875 25.484375 
L 43.21875 27.484375 
z
M 52.203125 31.203125 
L 52.203125 0 
L 43.21875 0 
L 43.21875 8.296875 
Q 40.140625 3.328125 35.546875 0.953125 
Q 30.953125 -1.421875 24.3125 -1.421875 
Q 15.921875 -1.421875 10.953125 3.296875 
Q 6 8.015625 6 15.921875 
Q 6 25.140625 12.171875 29.828125 
Q 18.359375 34.515625 30.609375 34.515625 
L 43.21875 34.515625 
L 43.21875 35.40625 
Q 43.21875 41.609375 39.140625 45 
Q 35.0625 48.390625 27.6875 48.390625 
Q 23 48.390625 18.546875 47.265625 
Q 14.109375 46.140625 10.015625 43.890625 
L 10.015625 52.203125 
Q 14.9375 54.109375 19.578125 55.046875 
Q 24.21875 56 28.609375 56 
Q 40.484375 56 46.34375 49.84375 
Q 52.203125 43.703125 52.203125 31.203125 
z
" id="DejaVuSans-97"/>
      <path d="M 18.3125 70.21875 
L 18.3125 54.6875 
L 36.8125 54.6875 
L 36.8125 47.703125 
L 18.3125 47.703125 
L 18.3125 18.015625 
Q 18.3125 11.328125 20.140625 9.421875 
Q 21.96875 7.515625 27.59375 7.515625 
L 36.8125 7.515625 
L 36.8125 0 
L 27.59375 0 
Q 17.1875 0 13.234375 3.875 
Q 9.28125 7.765625 9.28125 18.015625 
L 9.28125 47.703125 
L 2.6875 47.703125 
L 2.6875 54.6875 
L 9.28125 54.6875 
L 9.28125 70.21875 
z
" id="DejaVuSans-116"/>
      <path d="M 9.421875 54.6875 
L 18.40625 54.6875 
L 18.40625 0 
L 9.421875 0 
z
M 9.421875 75.984375 
L 18.40625 75.984375 
L 18.40625 64.59375 
L 9.421875 64.59375 
z
" id="DejaVuSans-105"/>
      <path d="M 48.78125 52.59375 
L 48.78125 44.1875 
Q 44.96875 46.296875 41.140625 47.34375 
Q 37.3125 48.390625 33.40625 48.390625 
Q 24.65625 48.390625 19.8125 42.84375 
Q 14.984375 37.3125 14.984375 27.296875 
Q 14.984375 17.28125 19.8125 11.734375 
Q 24.65625 6.203125 33.40625 6.203125 
Q 37.3125 6.203125 41.140625 7.25 
Q 44.96875 8.296875 48.78125 10.40625 
L 48.78125 2.09375 
Q 45.015625 0.34375 40.984375 -0.53125 
Q 36.96875 -1.421875 32.421875 -1.421875 
Q 20.0625 -1.421875 12.78125 6.34375 
Q 5.515625 14.109375 5.515625 27.296875 
Q 5.515625 40.671875 12.859375 48.328125 
Q 20.21875 56 33.015625 56 
Q 37.15625 56 41.109375 55.140625 
Q 45.0625 54.296875 48.78125 52.59375 
z
" id="DejaVuSans-99"/>
      <path d="M 2.984375 54.6875 
L 12.5 54.6875 
L 29.59375 8.796875 
L 46.6875 54.6875 
L 56.203125 54.6875 
L 35.6875 0 
L 23.484375 0 
z
" id="DejaVuSans-118"/>
      <path d="M 45.40625 27.984375 
Q 45.40625 37.75 41.375 43.109375 
Q 37.359375 48.484375 30.078125 48.484375 
Q 22.859375 48.484375 18.828125 43.109375 
Q 14.796875 37.75 14.796875 27.984375 
Q 14.796875 18.265625 18.828125 12.890625 
Q 22.859375 7.515625 30.078125 7.515625 
Q 37.359375 7.515625 41.375 12.890625 
Q 45.40625 18.265625 45.40625 27.984375 
z
M 54.390625 6.78125 
Q 54.390625 -7.171875 48.1875 -13.984375 
Q 42 -20.796875 29.203125 -20.796875 
Q 24.46875 -20.796875 20.265625 -20.09375 
Q 16.0625 -19.390625 12.109375 -17.921875 
L 12.109375 -9.1875 
Q 16.0625 -11.328125 19.921875 -12.34375 
Q 23.78125 -13.375 27.78125 -13.375 
Q 36.625 -13.375 41.015625 -8.765625 
Q 45.40625 -4.15625 45.40625 5.171875 
L 45.40625 9.625 
Q 42.625 4.78125 38.28125 2.390625 
Q 33.9375 0 27.875 0 
Q 17.828125 0 11.671875 7.65625 
Q 5.515625 15.328125 5.515625 27.984375 
Q 5.515625 40.671875 11.671875 48.328125 
Q 17.828125 56 27.875 56 
Q 33.9375 56 38.28125 53.609375 
Q 42.625 51.21875 45.40625 46.390625 
L 45.40625 54.6875 
L 54.390625 54.6875 
z
" id="DejaVuSans-103"/>
      <path d="M 45.40625 46.390625 
L 45.40625 75.984375 
L 54.390625 75.984375 
L 54.390625 0 
L 45.40625 0 
L 45.40625 8.203125 
Q 42.578125 3.328125 38.25 0.953125 
Q 33.9375 -1.421875 27.875 -1.421875 
Q 17.96875 -1.421875 11.734375 6.484375 
Q 5.515625 14.40625 5.515625 27.296875 
Q 5.515625 40.1875 11.734375 48.09375 
Q 17.96875 56 27.875 56 
Q 33.9375 56 38.25 53.625 
Q 42.578125 51.265625 45.40625 46.390625 
z
M 14.796875 27.296875 
Q 14.796875 17.390625 18.875 11.75 
Q 22.953125 6.109375 30.078125 6.109375 
Q 37.203125 6.109375 41.296875 11.75 
Q 45.40625 17.390625 45.40625 27.296875 
Q 45.40625 37.203125 41.296875 42.84375 
Q 37.203125 48.484375 30.078125 48.484375 
Q 22.953125 48.484375 18.875 42.84375 
Q 14.796875 37.203125 14.796875 27.296875 
z
" id="DejaVuSans-100"/>
     </defs>
     <g transform="translate(100.847656 252.916562)scale(0.1 -0.1)">
      <use xlink:href="#DejaVuSans-78"/>
      <use x="74.804688" xlink:href="#DejaVuSans-117"/>
      <use x="138.183594" xlink:href="#DejaVuSans-109"/>
      <use x="235.595703" xlink:href="#DejaVuSans-98"/>
      <use x="299.072266" xlink:href="#DejaVuSans-101"/>
      <use x="360.595703" xlink:href="#DejaVuSans-114"/>
      <use x="401.708984" xlink:href="#DejaVuSans-32"/>
      <use x="433.496094" xlink:href="#DejaVuSans-111"/>
      <use x="494.677734" xlink:href="#DejaVuSans-102"/>
      <use x="529.882812" xlink:href="#DejaVuSans-32"/>
      <use x="561.669922" xlink:href="#DejaVuSans-74"/>
      <use x="591.162109" xlink:href="#DejaVuSans-111"/>
      <use x="652.34375" xlink:href="#DejaVuSans-110"/>
      <use x="715.722656" xlink:href="#DejaVuSans-101"/>
      <use x="777.246094" xlink:href="#DejaVuSans-115"/>
      <use x="829.345703" xlink:href="#DejaVuSans-45"/>
      <use x="865.429688" xlink:href="#DejaVuSans-77"/>
      <use x="951.708984" xlink:href="#DejaVuSans-117"/>
      <use x="1015.087891" xlink:href="#DejaVuSans-101"/>
      <use x="1076.611328" xlink:href="#DejaVuSans-108"/>
      <use x="1104.394531" xlink:href="#DejaVuSans-108"/>
      <use x="1132.177734" xlink:href="#DejaVuSans-101"/>
      <use x="1193.701172" xlink:href="#DejaVuSans-114"/>
      <use x="1234.814453" xlink:href="#DejaVuSans-32"/>
      <use x="1266.601562" xlink:href="#DejaVuSans-109"/>
      <use x="1364.013672" xlink:href="#DejaVuSans-97"/>
      <use x="1425.292969" xlink:href="#DejaVuSans-116"/>
      <use x="1464.501953" xlink:href="#DejaVuSans-114"/>
      <use x="1505.615234" xlink:href="#DejaVuSans-105"/>
      <use x="1533.398438" xlink:href="#DejaVuSans-99"/>
      <use x="1588.378906" xlink:href="#DejaVuSans-101"/>
      <use x="1649.902344" xlink:href="#DejaVuSans-115"/>
      <use x="1702.001953" xlink:href="#DejaVuSans-32"/>
      <use x="1733.789062" xlink:href="#DejaVuSans-97"/>
      <use x="1795.068359" xlink:href="#DejaVuSans-118"/>
      <use x="1854.248047" xlink:href="#DejaVuSans-101"/>
      <use x="1915.771484" xlink:href="#DejaVuSans-114"/>
      <use x="1956.884766" xlink:href="#DejaVuSans-97"/>
      <use x="2018.164062" xlink:href="#DejaVuSans-103"/>
      <use x="2081.640625" xlink:href="#DejaVuSans-101"/>
      <use x="2143.164062" xlink:href="#DejaVuSans-100"/>
     </g>
    </g>
   </g>
   <g id="matplotlib.axis_2">
    <g id="ytick_1">
     <g id="line2d_7">
      <defs>
       <path d="M 0 0 
L -3.5 0 
" id="mac4f6baf3b" style="stroke:#000000;stroke-width:0.8;"/>
      </defs>
      <g>
       <use style="stroke:#000000;stroke-width:0.8;" x="43.78125" xlink:href="#mac4f6baf3b" y="214.756364"/>
      </g>
     </g>
     <g id="text_8">
      <!-- 0.0 -->
      <defs>
       <path d="M 10.6875 12.40625 
L 21 12.40625 
L 21 0 
L 10.6875 0 
z
" id="DejaVuSans-46"/>
      </defs>
      <g transform="translate(20.878125 218.555582)scale(0.1 -0.1)">
       <use xlink:href="#DejaVuSans-48"/>
       <use x="63.623047" xlink:href="#DejaVuSans-46"/>
       <use x="95.410156" xlink:href="#DejaVuSans-48"/>
      </g>
     </g>
    </g>
    <g id="ytick_2">
     <g id="line2d_8">
      <g>
       <use style="stroke:#000000;stroke-width:0.8;" x="43.78125" xlink:href="#mac4f6baf3b" y="176.507997"/>
      </g>
     </g>
     <g id="text_9">
      <!-- 0.2 -->
      <g transform="translate(20.878125 180.307215)scale(0.1 -0.1)">
       <use xlink:href="#DejaVuSans-48"/>
       <use x="63.623047" xlink:href="#DejaVuSans-46"/>
       <use x="95.410156" xlink:href="#DejaVuSans-50"/>
      </g>
     </g>
    </g>
    <g id="ytick_3">
     <g id="line2d_9">
      <g>
       <use style="stroke:#000000;stroke-width:0.8;" x="43.78125" xlink:href="#mac4f6baf3b" y="138.25963"/>
      </g>
     </g>
     <g id="text_10">
      <!-- 0.4 -->
      <g transform="translate(20.878125 142.058848)scale(0.1 -0.1)">
       <use xlink:href="#DejaVuSans-48"/>
       <use x="63.623047" xlink:href="#DejaVuSans-46"/>
       <use x="95.410156" xlink:href="#DejaVuSans-52"/>
      </g>
     </g>
    </g>
    <g id="ytick_4">
     <g id="line2d_10">
      <g>
       <use style="stroke:#000000;stroke-width:0.8;" x="43.78125" xlink:href="#mac4f6baf3b" y="100.011263"/>
      </g>
     </g>
     <g id="text_11">
      <!-- 0.6 -->
      <g transform="translate(20.878125 103.810481)scale(0.1 -0.1)">
       <use xlink:href="#DejaVuSans-48"/>
       <use x="63.623047" xlink:href="#DejaVuSans-46"/>
       <use x="95.410156" xlink:href="#DejaVuSans-54"/>
      </g>
     </g>
    </g>
    <g id="ytick_5">
     <g id="line2d_11">
      <g>
       <use style="stroke:#000000;stroke-width:0.8;" x="43.78125" xlink:href="#mac4f6baf3b" y="61.762896"/>
      </g>
     </g>
     <g id="text_12">
      <!-- 0.8 -->
      <g transform="translate(20.878125 65.562115)scale(0.1 -0.1)">
       <use xlink:href="#DejaVuSans-48"/>
       <use x="63.623047" xlink:href="#DejaVuSans-46"/>
       <use x="95.410156" xlink:href="#DejaVuSans-56"/>
      </g>
     </g>
    </g>
    <g id="ytick_6">
     <g id="line2d_12">
      <g>
       <use style="stroke:#000000;stroke-width:0.8;" x="43.78125" xlink:href="#mac4f6baf3b" y="23.514529"/>
      </g>
     </g>
     <g id="text_13">
      <!-- 1.0 -->
      <g transform="translate(20.878125 27.313748)scale(0.1 -0.1)">
       <use xlink:href="#DejaVuSans-49"/>
       <use x="63.623047" xlink:href="#DejaVuSans-46"/>
       <use x="95.410156" xlink:href="#DejaVuSans-48"/>
      </g>
     </g>
    </g>
    <g id="text_14">
     <!-- Cloude decomposition -->
     <defs>
      <path d="M 64.40625 67.28125 
L 64.40625 56.890625 
Q 59.421875 61.53125 53.78125 63.8125 
Q 48.140625 66.109375 41.796875 66.109375 
Q 29.296875 66.109375 22.65625 58.46875 
Q 16.015625 50.828125 16.015625 36.375 
Q 16.015625 21.96875 22.65625 14.328125 
Q 29.296875 6.6875 41.796875 6.6875 
Q 48.140625 6.6875 53.78125 8.984375 
Q 59.421875 11.28125 64.40625 15.921875 
L 64.40625 5.609375 
Q 59.234375 2.09375 53.4375 0.328125 
Q 47.65625 -1.421875 41.21875 -1.421875 
Q 24.65625 -1.421875 15.125 8.703125 
Q 5.609375 18.84375 5.609375 36.375 
Q 5.609375 53.953125 15.125 64.078125 
Q 24.65625 74.21875 41.21875 74.21875 
Q 47.75 74.21875 53.53125 72.484375 
Q 59.328125 70.75 64.40625 67.28125 
z
" id="DejaVuSans-67"/>
      <path d="M 18.109375 8.203125 
L 18.109375 -20.796875 
L 9.078125 -20.796875 
L 9.078125 54.6875 
L 18.109375 54.6875 
L 18.109375 46.390625 
Q 20.953125 51.265625 25.265625 53.625 
Q 29.59375 56 35.59375 56 
Q 45.5625 56 51.78125 48.09375 
Q 58.015625 40.1875 58.015625 27.296875 
Q 58.015625 14.40625 51.78125 6.484375 
Q 45.5625 -1.421875 35.59375 -1.421875 
Q 29.59375 -1.421875 25.265625 0.953125 
Q 20.953125 3.328125 18.109375 8.203125 
z
M 48.6875 27.296875 
Q 48.6875 37.203125 44.609375 42.84375 
Q 40.53125 48.484375 33.40625 48.484375 
Q 26.265625 48.484375 22.1875 42.84375 
Q 18.109375 37.203125 18.109375 27.296875 
Q 18.109375 17.390625 22.1875 11.75 
Q 26.265625 6.109375 33.40625 6.109375 
Q 40.53125 6.109375 44.609375 11.75 
Q 48.6875 17.390625 48.6875 27.296875 
z
" id="DejaVuSans-112"/>
     </defs>
     <g transform="translate(14.798438 171.602812)rotate(-90)scale(0.1 -0.1)">
      <use xlink:href="#DejaVuSans-67"/>
      <use x="69.824219" xlink:href="#DejaVuSans-108"/>
      <use x="97.607422" xlink:href="#DejaVuSans-111"/>
      <use x="158.789062" xlink:href="#DejaVuSans-117"/>
      <use x="222.167969" xlink:href="#DejaVuSans-100"/>
      <use x="285.644531" xlink:href="#DejaVuSans-101"/>
      <use x="347.167969" xlink:href="#DejaVuSans-32"/>
      <use x="378.955078" xlink:href="#DejaVuSans-100"/>
      <use x="442.431641" xlink:href="#DejaVuSans-101"/>
      <use x="503.955078" xlink:href="#DejaVuSans-99"/>
      <use x="558.935547" xlink:href="#DejaVuSans-111"/>
      <use x="620.117188" xlink:href="#DejaVuSans-109"/>
      <use x="717.529297" xlink:href="#DejaVuSans-112"/>
      <use x="781.005859" xlink:href="#DejaVuSans-111"/>
      <use x="842.1875" xlink:href="#DejaVuSans-115"/>
      <use x="894.287109" xlink:href="#DejaVuSans-105"/>
      <use x="922.070312" xlink:href="#DejaVuSans-116"/>
      <use x="961.279297" xlink:href="#DejaVuSans-105"/>
      <use x="989.0625" xlink:href="#DejaVuSans-111"/>
      <use x="1050.244141" xlink:href="#DejaVuSans-110"/>
     </g>
    </g>
   </g>
   <g id="line2d_13">
    <path clip-path="url(#pb9a1f77b6b)" d="M 58.999432 17.083636 
L 62.105183 64.572374 
L 65.210935 84.003846 
L 68.316686 93.128854 
L 71.422437 100.450242 
L 74.528189 110.979379 
L 77.63394 114.133706 
L 80.739692 116.672288 
L 83.845443 121.399625 
L 86.951194 125.038555 
L 90.056946 127.792077 
L 93.162697 129.448027 
L 96.268449 129.355346 
L 99.3742 131.427859 
L 102.479951 134.186556 
L 105.585703 134.075291 
L 108.691454 136.499556 
L 111.797205 136.223709 
L 114.902957 136.316152 
L 118.008708 138.592204 
L 121.11446 138.37178 
L 124.220211 138.570429 
L 127.325962 140.181797 
L 130.431714 140.405201 
L 133.537465 140.925051 
L 136.643217 142.221108 
L 139.748968 142.677115 
L 142.854719 141.21983 
L 145.960471 143.184212 
L 149.066222 144.403303 
L 152.171974 143.658436 
L 155.277725 145.116525 
L 158.383476 144.167325 
L 161.489228 144.344843 
L 164.594979 145.700338 
L 167.700731 145.460439 
L 170.806482 146.045375 
L 173.912233 146.548876 
L 177.017985 146.843077 
L 180.123736 146.666676 
L 183.229487 146.904997 
L 186.335239 147.452435 
L 189.44099 147.715129 
L 192.546742 148.712756 
L 195.652493 148.223719 
L 198.758244 147.726907 
L 201.863996 148.140467 
L 204.969747 148.520816 
L 208.075499 148.099958 
L 211.18125 148.626271 
L 214.287001 149.895969 
L 217.392753 149.444066 
L 220.498504 149.426814 
L 223.604256 150.381516 
L 226.710007 150.349913 
L 229.815758 149.529482 
L 232.92151 150.031547 
L 236.027261 150.116316 
L 239.133013 150.171671 
L 242.238764 151.215314 
L 245.344515 150.879035 
L 248.450267 149.845577 
L 251.556018 151.990771 
L 254.661769 151.219674 
L 257.767521 152.084097 
L 260.873272 151.075236 
L 263.979024 151.185693 
L 267.084775 151.397958 
L 270.190526 152.171094 
L 273.296278 151.564806 
L 276.402029 153.018036 
L 279.507781 152.280642 
L 282.613532 151.994678 
L 285.719283 152.567985 
L 288.825035 151.928739 
L 291.930786 152.741508 
L 295.036538 152.992899 
L 298.142289 153.479233 
L 301.24804 152.425233 
L 304.353792 152.070912 
L 307.459543 152.252671 
L 310.565295 153.21125 
L 313.671046 152.787629 
L 316.776797 153.659344 
L 319.882549 152.614565 
L 322.9883 154.022818 
L 326.094051 153.573377 
L 329.199803 153.158029 
L 332.305554 153.270802 
L 335.411306 154.039027 
L 338.517057 153.812105 
L 341.622808 153.509263 
L 344.72856 154.391106 
L 347.834311 154.39498 
L 350.940063 154.010203 
L 354.045814 153.767625 
L 357.151565 154.183876 
L 360.257317 154.623323 
L 363.363068 154.411068 
" style="fill:none;stroke:#1f77b4;stroke-linecap:square;stroke-width:1.5;"/>
   </g>
   <g id="line2d_14">
    <path clip-path="url(#pb9a1f77b6b)" d="M 58.999432 214.756364 
L 62.105183 170.620146 
L 65.210935 164.726028 
L 68.316686 162.704427 
L 71.422437 162.444732 
L 74.528189 160.762933 
L 77.63394 161.074673 
L 80.739692 159.540441 
L 83.845443 161.003438 
L 86.951194 159.354195 
L 90.056946 161.580839 
L 93.162697 160.22867 
L 96.268449 160.729372 
L 99.3742 159.726377 
L 102.479951 160.957855 
L 105.585703 160.146404 
L 108.691454 160.263422 
L 111.797205 161.054926 
L 114.902957 159.644506 
L 118.008708 161.661236 
L 121.11446 161.199975 
L 124.220211 161.331383 
L 127.325962 161.374982 
L 130.431714 161.521161 
L 133.537465 161.355112 
L 136.643217 161.458698 
L 139.748968 160.964318 
L 142.854719 160.452396 
L 145.960471 161.541323 
L 149.066222 161.801297 
L 152.171974 161.328906 
L 155.277725 162.683658 
L 158.383476 161.887047 
L 161.489228 162.134395 
L 164.594979 161.895553 
L 167.700731 162.705018 
L 170.806482 161.936976 
L 173.912233 161.812089 
L 177.017985 162.290646 
L 180.123736 162.008778 
L 183.229487 162.602467 
L 186.335239 161.858058 
L 189.44099 161.63357 
L 192.546742 162.413846 
L 195.652493 162.354176 
L 198.758244 162.542122 
L 201.863996 163.112788 
L 204.969747 162.981347 
L 208.075499 162.45385 
L 211.18125 162.533005 
L 214.287001 162.608454 
L 217.392753 162.805093 
L 220.498504 162.27676 
L 223.604256 163.558891 
L 226.710007 163.102646 
L 229.815758 162.108204 
L 232.92151 162.469336 
L 236.027261 162.55876 
L 239.133013 162.796894 
L 242.238764 162.781862 
L 245.344515 162.590242 
L 248.450267 163.046289 
L 251.556018 163.013424 
L 254.661769 162.2311 
L 257.767521 163.43055 
L 260.873272 162.595695 
L 263.979024 162.564511 
L 267.084775 163.075554 
L 270.190526 163.707873 
L 273.296278 163.416004 
L 276.402029 163.539558 
L 279.507781 163.407481 
L 282.613532 163.329049 
L 285.719283 163.75895 
L 288.825035 163.303405 
L 291.930786 163.656557 
L 295.036538 163.336916 
L 298.142289 163.001108 
L 301.24804 162.575977 
L 304.353792 162.927635 
L 307.459543 163.002382 
L 310.565295 163.571957 
L 313.671046 163.025265 
L 316.776797 163.155752 
L 319.882549 163.35419 
L 322.9883 163.75527 
L 326.094051 163.472615 
L 329.199803 163.386249 
L 332.305554 163.252731 
L 335.411306 163.77318 
L 338.517057 163.677445 
L 341.622808 163.303766 
L 344.72856 163.74958 
L 347.834311 163.270678 
L 350.940063 163.726135 
L 354.045814 163.425812 
L 357.151565 163.55218 
L 360.257317 163.602602 
L 363.363068 163.288358 
" style="fill:none;stroke:#ff7f0e;stroke-linecap:square;stroke-width:1.5;"/>
   </g>
   <g id="line2d_15">
    <path clip-path="url(#pb9a1f77b6b)" d="M 58.999432 214.756364 
L 62.105183 214.756364 
L 65.210935 202.429078 
L 68.316686 194.576162 
L 71.422437 191.725046 
L 74.528189 189.748357 
L 77.63394 187.561457 
L 80.739692 185.713842 
L 83.845443 183.272289 
L 86.951194 183.121609 
L 90.056946 182.681858 
L 93.162697 181.750253 
L 96.268449 180.531838 
L 99.3742 179.144363 
L 102.479951 179.580725 
L 105.585703 179.448009 
L 108.691454 178.981218 
L 111.797205 178.643248 
L 114.902957 177.149413 
L 118.008708 177.689921 
L 121.11446 177.344211 
L 124.220211 177.406262 
L 127.325962 177.161514 
L 130.431714 175.379906 
L 133.537465 176.429782 
L 136.643217 176.354666 
L 139.748968 175.02899 
L 142.854719 175.477329 
L 145.960471 175.906219 
L 149.066222 174.821373 
L 152.171974 174.694647 
L 155.277725 175.707661 
L 158.383476 174.924088 
L 161.489228 174.267194 
L 164.594979 174.788073 
L 167.700731 174.791758 
L 170.806482 174.122251 
L 173.912233 174.162355 
L 177.017985 173.779932 
L 180.123736 174.43766 
L 183.229487 174.007996 
L 186.335239 173.91711 
L 189.44099 174.559818 
L 192.546742 173.872751 
L 195.652493 173.48074 
L 198.758244 173.047099 
L 201.863996 173.098492 
L 204.969747 173.263176 
L 208.075499 173.313359 
L 211.18125 173.49123 
L 214.287001 173.202979 
L 217.392753 173.693601 
L 220.498504 172.014757 
L 223.604256 173.581391 
L 226.710007 172.776885 
L 229.815758 172.338681 
L 232.92151 172.614193 
L 236.027261 172.590882 
L 239.133013 172.576186 
L 242.238764 172.615242 
L 245.344515 172.216227 
L 248.450267 173.14578 
L 251.556018 172.095585 
L 254.661769 171.631884 
L 257.767521 172.976526 
L 260.873272 171.96692 
L 263.979024 171.879975 
L 267.084775 172.235997 
L 270.190526 172.968993 
L 273.296278 172.032849 
L 276.402029 172.318019 
L 279.507781 171.833686 
L 282.613532 171.934799 
L 285.719283 171.970118 
L 288.825035 172.034207 
L 291.930786 171.867818 
L 295.036538 171.842315 
L 298.142289 172.200449 
L 301.24804 171.475578 
L 304.353792 171.482307 
L 307.459543 171.752895 
L 310.565295 171.57351 
L 313.671046 171.621971 
L 316.776797 171.483924 
L 319.882549 171.473638 
L 322.9883 171.677887 
L 326.094051 171.50384 
L 329.199803 171.312061 
L 332.305554 170.988885 
L 335.411306 171.653443 
L 338.517057 171.56569 
L 341.622808 170.78458 
L 344.72856 170.955402 
L 347.834311 171.110099 
L 350.940063 170.996836 
L 354.045814 171.41662 
L 357.151565 170.530887 
L 360.257317 171.151882 
L 363.363068 170.92348 
" style="fill:none;stroke:#2ca02c;stroke-linecap:square;stroke-width:1.5;"/>
   </g>
   <g id="line2d_16">
    <path clip-path="url(#pb9a1f77b6b)" d="M 58.999432 214.756364 
L 62.105183 214.756364 
L 65.210935 214.756364 
L 68.316686 211.688501 
L 71.422437 208.902503 
L 74.528189 206.636916 
L 77.63394 204.782972 
L 80.739692 202.991169 
L 83.845443 200.995377 
L 86.951194 199.88707 
L 90.056946 198.042552 
L 93.162697 196.752048 
L 96.268449 196.197927 
L 99.3742 195.35495 
L 102.479951 194.530862 
L 105.585703 194.044285 
L 108.691454 193.551586 
L 111.797205 192.233148 
L 114.902957 192.374286 
L 118.008708 191.564156 
L 121.11446 190.415221 
L 124.220211 190.46041 
L 127.325962 189.973854 
L 130.431714 189.531117 
L 133.537465 188.489107 
L 136.643217 188.567561 
L 139.748968 187.470121 
L 142.854719 187.692391 
L 145.960471 188.238421 
L 149.066222 187.172396 
L 152.171974 186.858873 
L 155.277725 187.590049 
L 158.383476 186.585762 
L 161.489228 185.489551 
L 164.594979 185.571512 
L 167.700731 185.965626 
L 170.806482 185.72697 
L 173.912233 184.924803 
L 177.017985 184.758635 
L 180.123736 184.872475 
L 183.229487 184.457889 
L 186.335239 184.350626 
L 189.44099 185.18126 
L 192.546742 183.618946 
L 195.652493 183.386093 
L 198.758244 183.098306 
L 201.863996 183.701285 
L 204.969747 183.374318 
L 208.075499 182.911038 
L 211.18125 182.283449 
L 214.287001 183.272945 
L 217.392753 182.680849 
L 220.498504 182.431691 
L 223.604256 182.641639 
L 226.710007 182.143937 
L 229.815758 181.687759 
L 232.92151 181.485986 
L 236.027261 181.814402 
L 239.133013 181.993372 
L 242.238764 181.422423 
L 245.344515 180.919543 
L 248.450267 182.022322 
L 251.556018 181.333234 
L 254.661769 180.219523 
L 257.767521 181.242786 
L 260.873272 180.545967 
L 263.979024 180.931385 
L 267.084775 180.618175 
L 270.190526 181.162078 
L 273.296278 180.747653 
L 276.402029 180.683906 
L 279.507781 180.44081 
L 282.613532 180.477974 
L 285.719283 180.83269 
L 288.825035 180.428528 
L 291.930786 180.051161 
L 295.036538 180.374261 
L 298.142289 180.50118 
L 301.24804 179.320431 
L 304.353792 179.933428 
L 307.459543 179.382618 
L 310.565295 179.351998 
L 313.671046 180.214558 
L 316.776797 179.442511 
L 319.882549 179.322366 
L 322.9883 179.655243 
L 326.094051 180.075467 
L 329.199803 179.521521 
L 332.305554 178.663624 
L 335.411306 178.992128 
L 338.517057 178.91491 
L 341.622808 178.950767 
L 344.72856 178.974801 
L 347.834311 179.215686 
L 350.940063 178.707545 
L 354.045814 179.393763 
L 357.151565 178.958657 
L 360.257317 178.858878 
L 363.363068 178.373264 
" style="fill:none;stroke:#d62728;stroke-linecap:square;stroke-width:1.5;"/>
   </g>
   <g id="patch_3">
    <path d="M 43.78125 224.64 
L 43.78125 7.2 
" style="fill:none;stroke:#000000;stroke-linecap:square;stroke-linejoin:miter;stroke-width:0.8;"/>
   </g>
   <g id="patch_4">
    <path d="M 378.58125 224.64 
L 378.58125 7.2 
" style="fill:none;stroke:#000000;stroke-linecap:square;stroke-linejoin:miter;stroke-width:0.8;"/>
   </g>
   <g id="patch_5">
    <path d="M 43.78125 224.64 
L 378.58125 224.64 
" style="fill:none;stroke:#000000;stroke-linecap:square;stroke-linejoin:miter;stroke-width:0.8;"/>
   </g>
   <g id="patch_6">
    <path d="M 43.78125 7.2 
L 378.58125 7.2 
" style="fill:none;stroke:#000000;stroke-linecap:square;stroke-linejoin:miter;stroke-width:0.8;"/>
   </g>
  </g>
 </g>
 <defs>
  <clipPath id="pb9a1f77b6b">
   <rect height="217.44" width="334.8" x="43.78125" y="7.2"/>
  </clipPath>
 </defs>
</svg>
