<?xml version="1.0" encoding="utf-8" standalone="no"?>
<!DOCTYPE svg PUBLIC "-//W3C//DTD SVG 1.1//EN"
  "http://www.w3.org/Graphics/SVG/1.1/DTD/svg11.dtd">
<!-- Created with matplotlib (https://matplotlib.org/) -->
<svg height="262.19625pt" version="1.1" viewBox="0 0 380.482812 262.19625" width="380.482812pt" xmlns="http://www.w3.org/2000/svg" xmlns:xlink="http://www.w3.org/1999/xlink">
 <defs>
  <style type="text/css">
*{stroke-linecap:butt;stroke-linejoin:round;}
  </style>
 </defs>
 <g id="figure_1">
  <g id="patch_1">
   <path d="M -0 262.19625 
L 380.482812 262.19625 
L 380.482812 0 
L -0 0 
z
" style="fill:none;"/>
  </g>
  <g id="axes_1">
   <g id="patch_2">
    <path d="M 38.482813 224.64 
L 373.282813 224.64 
L 373.282813 7.2 
L 38.482813 7.2 
z
" style="fill:#ffffff;"/>
   </g>
   <g id="matplotlib.axis_1">
    <g id="xtick_1">
     <g id="line2d_1">
      <defs>
       <path d="M 0 0 
L 0 3.5 
" id="me389fd1e73" style="stroke:#000000;stroke-width:0.8;"/>
      </defs>
      <g>
       <use style="stroke:#000000;stroke-width:0.8;" x="53.700994" xlink:href="#me389fd1e73" y="224.64"/>
      </g>
     </g>
     <g id="text_1">
      <!-- 200 -->
      <defs>
       <path d="M 19.1875 8.296875 
L 53.609375 8.296875 
L 53.609375 0 
L 7.328125 0 
L 7.328125 8.296875 
Q 12.9375 14.109375 22.625 23.890625 
Q 32.328125 33.6875 34.8125 36.53125 
Q 39.546875 41.84375 41.421875 45.53125 
Q 43.3125 49.21875 43.3125 52.78125 
Q 43.3125 58.59375 39.234375 62.25 
Q 35.15625 65.921875 28.609375 65.921875 
Q 23.96875 65.921875 18.8125 64.3125 
Q 13.671875 62.703125 7.8125 59.421875 
L 7.8125 69.390625 
Q 13.765625 71.78125 18.9375 73 
Q 24.125 74.21875 28.421875 74.21875 
Q 39.75 74.21875 46.484375 68.546875 
Q 53.21875 62.890625 53.21875 53.421875 
Q 53.21875 48.921875 51.53125 44.890625 
Q 49.859375 40.875 45.40625 35.40625 
Q 44.1875 33.984375 37.640625 27.21875 
Q 31.109375 20.453125 19.1875 8.296875 
z
" id="DejaVuSans-50"/>
       <path d="M 31.78125 66.40625 
Q 24.171875 66.40625 20.328125 58.90625 
Q 16.5 51.421875 16.5 36.375 
Q 16.5 21.390625 20.328125 13.890625 
Q 24.171875 6.390625 31.78125 6.390625 
Q 39.453125 6.390625 43.28125 13.890625 
Q 47.125 21.390625 47.125 36.375 
Q 47.125 51.421875 43.28125 58.90625 
Q 39.453125 66.40625 31.78125 66.40625 
z
M 31.78125 74.21875 
Q 44.046875 74.21875 50.515625 64.515625 
Q 56.984375 54.828125 56.984375 36.375 
Q 56.984375 17.96875 50.515625 8.265625 
Q 44.046875 -1.421875 31.78125 -1.421875 
Q 19.53125 -1.421875 13.0625 8.265625 
Q 6.59375 17.96875 6.59375 36.375 
Q 6.59375 54.828125 13.0625 64.515625 
Q 19.53125 74.21875 31.78125 74.21875 
z
" id="DejaVuSans-48"/>
      </defs>
      <g transform="translate(44.157244 239.238437)scale(0.1 -0.1)">
       <use xlink:href="#DejaVuSans-50"/>
       <use x="63.623047" xlink:href="#DejaVuSans-48"/>
       <use x="127.246094" xlink:href="#DejaVuSans-48"/>
      </g>
     </g>
    </g>
    <g id="xtick_2">
     <g id="line2d_2">
      <g>
       <use style="stroke:#000000;stroke-width:0.8;" x="100.526169" xlink:href="#me389fd1e73" y="224.64"/>
      </g>
     </g>
     <g id="text_2">
      <!-- 400 -->
      <defs>
       <path d="M 37.796875 64.3125 
L 12.890625 25.390625 
L 37.796875 25.390625 
z
M 35.203125 72.90625 
L 47.609375 72.90625 
L 47.609375 25.390625 
L 58.015625 25.390625 
L 58.015625 17.1875 
L 47.609375 17.1875 
L 47.609375 0 
L 37.796875 0 
L 37.796875 17.1875 
L 4.890625 17.1875 
L 4.890625 26.703125 
z
" id="DejaVuSans-52"/>
      </defs>
      <g transform="translate(90.982419 239.238437)scale(0.1 -0.1)">
       <use xlink:href="#DejaVuSans-52"/>
       <use x="63.623047" xlink:href="#DejaVuSans-48"/>
       <use x="127.246094" xlink:href="#DejaVuSans-48"/>
      </g>
     </g>
    </g>
    <g id="xtick_3">
     <g id="line2d_3">
      <g>
       <use style="stroke:#000000;stroke-width:0.8;" x="147.351344" xlink:href="#me389fd1e73" y="224.64"/>
      </g>
     </g>
     <g id="text_3">
      <!-- 600 -->
      <defs>
       <path d="M 33.015625 40.375 
Q 26.375 40.375 22.484375 35.828125 
Q 18.609375 31.296875 18.609375 23.390625 
Q 18.609375 15.53125 22.484375 10.953125 
Q 26.375 6.390625 33.015625 6.390625 
Q 39.65625 6.390625 43.53125 10.953125 
Q 47.40625 15.53125 47.40625 23.390625 
Q 47.40625 31.296875 43.53125 35.828125 
Q 39.65625 40.375 33.015625 40.375 
z
M 52.59375 71.296875 
L 52.59375 62.3125 
Q 48.875 64.0625 45.09375 64.984375 
Q 41.3125 65.921875 37.59375 65.921875 
Q 27.828125 65.921875 22.671875 59.328125 
Q 17.53125 52.734375 16.796875 39.40625 
Q 19.671875 43.65625 24.015625 45.921875 
Q 28.375 48.1875 33.59375 48.1875 
Q 44.578125 48.1875 50.953125 41.515625 
Q 57.328125 34.859375 57.328125 23.390625 
Q 57.328125 12.15625 50.6875 5.359375 
Q 44.046875 -1.421875 33.015625 -1.421875 
Q 20.359375 -1.421875 13.671875 8.265625 
Q 6.984375 17.96875 6.984375 36.375 
Q 6.984375 53.65625 15.1875 63.9375 
Q 23.390625 74.21875 37.203125 74.21875 
Q 40.921875 74.21875 44.703125 73.484375 
Q 48.484375 72.75 52.59375 71.296875 
z
" id="DejaVuSans-54"/>
      </defs>
      <g transform="translate(137.807594 239.238437)scale(0.1 -0.1)">
       <use xlink:href="#DejaVuSans-54"/>
       <use x="63.623047" xlink:href="#DejaVuSans-48"/>
       <use x="127.246094" xlink:href="#DejaVuSans-48"/>
      </g>
     </g>
    </g>
    <g id="xtick_4">
     <g id="line2d_4">
      <g>
       <use style="stroke:#000000;stroke-width:0.8;" x="194.176519" xlink:href="#me389fd1e73" y="224.64"/>
      </g>
     </g>
     <g id="text_4">
      <!-- 800 -->
      <defs>
       <path d="M 31.78125 34.625 
Q 24.75 34.625 20.71875 30.859375 
Q 16.703125 27.09375 16.703125 20.515625 
Q 16.703125 13.921875 20.71875 10.15625 
Q 24.75 6.390625 31.78125 6.390625 
Q 38.8125 6.390625 42.859375 10.171875 
Q 46.921875 13.96875 46.921875 20.515625 
Q 46.921875 27.09375 42.890625 30.859375 
Q 38.875 34.625 31.78125 34.625 
z
M 21.921875 38.8125 
Q 15.578125 40.375 12.03125 44.71875 
Q 8.5 49.078125 8.5 55.328125 
Q 8.5 64.0625 14.71875 69.140625 
Q 20.953125 74.21875 31.78125 74.21875 
Q 42.671875 74.21875 48.875 69.140625 
Q 55.078125 64.0625 55.078125 55.328125 
Q 55.078125 49.078125 51.53125 44.71875 
Q 48 40.375 41.703125 38.8125 
Q 48.828125 37.15625 52.796875 32.3125 
Q 56.78125 27.484375 56.78125 20.515625 
Q 56.78125 9.90625 50.3125 4.234375 
Q 43.84375 -1.421875 31.78125 -1.421875 
Q 19.734375 -1.421875 13.25 4.234375 
Q 6.78125 9.90625 6.78125 20.515625 
Q 6.78125 27.484375 10.78125 32.3125 
Q 14.796875 37.15625 21.921875 38.8125 
z
M 18.3125 54.390625 
Q 18.3125 48.734375 21.84375 45.5625 
Q 25.390625 42.390625 31.78125 42.390625 
Q 38.140625 42.390625 41.71875 45.5625 
Q 45.3125 48.734375 45.3125 54.390625 
Q 45.3125 60.0625 41.71875 63.234375 
Q 38.140625 66.40625 31.78125 66.40625 
Q 25.390625 66.40625 21.84375 63.234375 
Q 18.3125 60.0625 18.3125 54.390625 
z
" id="DejaVuSans-56"/>
      </defs>
      <g transform="translate(184.632769 239.238437)scale(0.1 -0.1)">
       <use xlink:href="#DejaVuSans-56"/>
       <use x="63.623047" xlink:href="#DejaVuSans-48"/>
       <use x="127.246094" xlink:href="#DejaVuSans-48"/>
      </g>
     </g>
    </g>
    <g id="xtick_5">
     <g id="line2d_5">
      <g>
       <use style="stroke:#000000;stroke-width:0.8;" x="241.001694" xlink:href="#me389fd1e73" y="224.64"/>
      </g>
     </g>
     <g id="text_5">
      <!-- 1000 -->
      <defs>
       <path d="M 12.40625 8.296875 
L 28.515625 8.296875 
L 28.515625 63.921875 
L 10.984375 60.40625 
L 10.984375 69.390625 
L 28.421875 72.90625 
L 38.28125 72.90625 
L 38.28125 8.296875 
L 54.390625 8.296875 
L 54.390625 0 
L 12.40625 0 
z
" id="DejaVuSans-49"/>
      </defs>
      <g transform="translate(228.276694 239.238437)scale(0.1 -0.1)">
       <use xlink:href="#DejaVuSans-49"/>
       <use x="63.623047" xlink:href="#DejaVuSans-48"/>
       <use x="127.246094" xlink:href="#DejaVuSans-48"/>
       <use x="190.869141" xlink:href="#DejaVuSans-48"/>
      </g>
     </g>
    </g>
    <g id="xtick_6">
     <g id="line2d_6">
      <g>
       <use style="stroke:#000000;stroke-width:0.8;" x="287.826868" xlink:href="#me389fd1e73" y="224.64"/>
      </g>
     </g>
     <g id="text_6">
      <!-- 1200 -->
      <g transform="translate(275.101868 239.238437)scale(0.1 -0.1)">
       <use xlink:href="#DejaVuSans-49"/>
       <use x="63.623047" xlink:href="#DejaVuSans-50"/>
       <use x="127.246094" xlink:href="#DejaVuSans-48"/>
       <use x="190.869141" xlink:href="#DejaVuSans-48"/>
      </g>
     </g>
    </g>
    <g id="xtick_7">
     <g id="line2d_7">
      <g>
       <use style="stroke:#000000;stroke-width:0.8;" x="334.652043" xlink:href="#me389fd1e73" y="224.64"/>
      </g>
     </g>
     <g id="text_7">
      <!-- 1400 -->
      <g transform="translate(321.927043 239.238437)scale(0.1 -0.1)">
       <use xlink:href="#DejaVuSans-49"/>
       <use x="63.623047" xlink:href="#DejaVuSans-52"/>
       <use x="127.246094" xlink:href="#DejaVuSans-48"/>
       <use x="190.869141" xlink:href="#DejaVuSans-48"/>
      </g>
     </g>
    </g>
    <g id="text_8">
     <!-- $\lambda$ / nm -->
     <defs>
      <path d="M 36.71875 67.4375 
L 48.828125 0 
L 39.3125 0 
L 31.84375 40.4375 
L 5.125 0 
L -4.390625 0 
L 29.734375 52.4375 
L 28.03125 62.109375 
Q 26.953125 68.265625 21.734375 68.265625 
L 17.046875 68.265625 
L 18.5 75.984375 
L 24.21875 75.875 
Q 35.203125 75.734375 36.71875 67.4375 
z
" id="DejaVuSans-Oblique-955"/>
      <path id="DejaVuSans-32"/>
      <path d="M 25.390625 72.90625 
L 33.6875 72.90625 
L 8.296875 -9.28125 
L 0 -9.28125 
z
" id="DejaVuSans-47"/>
      <path d="M 54.890625 33.015625 
L 54.890625 0 
L 45.90625 0 
L 45.90625 32.71875 
Q 45.90625 40.484375 42.875 44.328125 
Q 39.84375 48.1875 33.796875 48.1875 
Q 26.515625 48.1875 22.3125 43.546875 
Q 18.109375 38.921875 18.109375 30.90625 
L 18.109375 0 
L 9.078125 0 
L 9.078125 54.6875 
L 18.109375 54.6875 
L 18.109375 46.1875 
Q 21.34375 51.125 25.703125 53.5625 
Q 30.078125 56 35.796875 56 
Q 45.21875 56 50.046875 50.171875 
Q 54.890625 44.34375 54.890625 33.015625 
z
" id="DejaVuSans-110"/>
      <path d="M 52 44.1875 
Q 55.375 50.25 60.0625 53.125 
Q 64.75 56 71.09375 56 
Q 79.640625 56 84.28125 50.015625 
Q 88.921875 44.046875 88.921875 33.015625 
L 88.921875 0 
L 79.890625 0 
L 79.890625 32.71875 
Q 79.890625 40.578125 77.09375 44.375 
Q 74.3125 48.1875 68.609375 48.1875 
Q 61.625 48.1875 57.5625 43.546875 
Q 53.515625 38.921875 53.515625 30.90625 
L 53.515625 0 
L 44.484375 0 
L 44.484375 32.71875 
Q 44.484375 40.625 41.703125 44.40625 
Q 38.921875 48.1875 33.109375 48.1875 
Q 26.21875 48.1875 22.15625 43.53125 
Q 18.109375 38.875 18.109375 30.90625 
L 18.109375 0 
L 9.078125 0 
L 9.078125 54.6875 
L 18.109375 54.6875 
L 18.109375 46.1875 
Q 21.1875 51.21875 25.484375 53.609375 
Q 29.78125 56 35.6875 56 
Q 41.65625 56 45.828125 52.96875 
Q 50 49.953125 52 44.1875 
z
" id="DejaVuSans-109"/>
     </defs>
     <g transform="translate(189.982812 252.916562)scale(0.1 -0.1)">
      <use transform="translate(0 0.015625)" xlink:href="#DejaVuSans-Oblique-955"/>
      <use transform="translate(59.179688 0.015625)" xlink:href="#DejaVuSans-32"/>
      <use transform="translate(90.966797 0.015625)" xlink:href="#DejaVuSans-47"/>
      <use transform="translate(124.658203 0.015625)" xlink:href="#DejaVuSans-32"/>
      <use transform="translate(156.445312 0.015625)" xlink:href="#DejaVuSans-110"/>
      <use transform="translate(219.824219 0.015625)" xlink:href="#DejaVuSans-109"/>
     </g>
    </g>
   </g>
   <g id="matplotlib.axis_2">
    <g id="ytick_1">
     <g id="line2d_8">
      <defs>
       <path d="M 0 0 
L -3.5 0 
" id="mc6d3948ba8" style="stroke:#000000;stroke-width:0.8;"/>
      </defs>
      <g>
       <use style="stroke:#000000;stroke-width:0.8;" x="38.482813" xlink:href="#mc6d3948ba8" y="215.979425"/>
      </g>
     </g>
     <g id="text_9">
      <!-- −0.3 -->
      <defs>
       <path d="M 10.59375 35.5 
L 73.1875 35.5 
L 73.1875 27.203125 
L 10.59375 27.203125 
z
" id="DejaVuSans-8722"/>
       <path d="M 10.6875 12.40625 
L 21 12.40625 
L 21 0 
L 10.6875 0 
z
" id="DejaVuSans-46"/>
       <path d="M 40.578125 39.3125 
Q 47.65625 37.796875 51.625 33 
Q 55.609375 28.21875 55.609375 21.1875 
Q 55.609375 10.40625 48.1875 4.484375 
Q 40.765625 -1.421875 27.09375 -1.421875 
Q 22.515625 -1.421875 17.65625 -0.515625 
Q 12.796875 0.390625 7.625 2.203125 
L 7.625 11.71875 
Q 11.71875 9.328125 16.59375 8.109375 
Q 21.484375 6.890625 26.8125 6.890625 
Q 36.078125 6.890625 40.9375 10.546875 
Q 45.796875 14.203125 45.796875 21.1875 
Q 45.796875 27.640625 41.28125 31.265625 
Q 36.765625 34.90625 28.71875 34.90625 
L 20.21875 34.90625 
L 20.21875 43.015625 
L 29.109375 43.015625 
Q 36.375 43.015625 40.234375 45.921875 
Q 44.09375 48.828125 44.09375 54.296875 
Q 44.09375 59.90625 40.109375 62.90625 
Q 36.140625 65.921875 28.71875 65.921875 
Q 24.65625 65.921875 20.015625 65.03125 
Q 15.375 64.15625 9.8125 62.3125 
L 9.8125 71.09375 
Q 15.4375 72.65625 20.34375 73.4375 
Q 25.25 74.21875 29.59375 74.21875 
Q 40.828125 74.21875 47.359375 69.109375 
Q 53.90625 64.015625 53.90625 55.328125 
Q 53.90625 49.265625 50.4375 45.09375 
Q 46.96875 40.921875 40.578125 39.3125 
z
" id="DejaVuSans-51"/>
      </defs>
      <g transform="translate(7.2 219.778644)scale(0.1 -0.1)">
       <use xlink:href="#DejaVuSans-8722"/>
       <use x="83.789062" xlink:href="#DejaVuSans-48"/>
       <use x="147.412109" xlink:href="#DejaVuSans-46"/>
       <use x="179.199219" xlink:href="#DejaVuSans-51"/>
      </g>
     </g>
    </g>
    <g id="ytick_2">
     <g id="line2d_9">
      <g>
       <use style="stroke:#000000;stroke-width:0.8;" x="38.482813" xlink:href="#mc6d3948ba8" y="188.874389"/>
      </g>
     </g>
     <g id="text_10">
      <!-- −0.2 -->
      <g transform="translate(7.2 192.673608)scale(0.1 -0.1)">
       <use xlink:href="#DejaVuSans-8722"/>
       <use x="83.789062" xlink:href="#DejaVuSans-48"/>
       <use x="147.412109" xlink:href="#DejaVuSans-46"/>
       <use x="179.199219" xlink:href="#DejaVuSans-50"/>
      </g>
     </g>
    </g>
    <g id="ytick_3">
     <g id="line2d_10">
      <g>
       <use style="stroke:#000000;stroke-width:0.8;" x="38.482813" xlink:href="#mc6d3948ba8" y="161.769353"/>
      </g>
     </g>
     <g id="text_11">
      <!-- −0.1 -->
      <g transform="translate(7.2 165.568572)scale(0.1 -0.1)">
       <use xlink:href="#DejaVuSans-8722"/>
       <use x="83.789062" xlink:href="#DejaVuSans-48"/>
       <use x="147.412109" xlink:href="#DejaVuSans-46"/>
       <use x="179.199219" xlink:href="#DejaVuSans-49"/>
      </g>
     </g>
    </g>
    <g id="ytick_4">
     <g id="line2d_11">
      <g>
       <use style="stroke:#000000;stroke-width:0.8;" x="38.482813" xlink:href="#mc6d3948ba8" y="134.664317"/>
      </g>
     </g>
     <g id="text_12">
      <!-- 0.0 -->
      <g transform="translate(15.579688 138.463536)scale(0.1 -0.1)">
       <use xlink:href="#DejaVuSans-48"/>
       <use x="63.623047" xlink:href="#DejaVuSans-46"/>
       <use x="95.410156" xlink:href="#DejaVuSans-48"/>
      </g>
     </g>
    </g>
    <g id="ytick_5">
     <g id="line2d_12">
      <g>
       <use style="stroke:#000000;stroke-width:0.8;" x="38.482813" xlink:href="#mc6d3948ba8" y="107.559281"/>
      </g>
     </g>
     <g id="text_13">
      <!-- 0.1 -->
      <g transform="translate(15.579688 111.3585)scale(0.1 -0.1)">
       <use xlink:href="#DejaVuSans-48"/>
       <use x="63.623047" xlink:href="#DejaVuSans-46"/>
       <use x="95.410156" xlink:href="#DejaVuSans-49"/>
      </g>
     </g>
    </g>
    <g id="ytick_6">
     <g id="line2d_13">
      <g>
       <use style="stroke:#000000;stroke-width:0.8;" x="38.482813" xlink:href="#mc6d3948ba8" y="80.454245"/>
      </g>
     </g>
     <g id="text_14">
      <!-- 0.2 -->
      <g transform="translate(15.579688 84.253464)scale(0.1 -0.1)">
       <use xlink:href="#DejaVuSans-48"/>
       <use x="63.623047" xlink:href="#DejaVuSans-46"/>
       <use x="95.410156" xlink:href="#DejaVuSans-50"/>
      </g>
     </g>
    </g>
    <g id="ytick_7">
     <g id="line2d_14">
      <g>
       <use style="stroke:#000000;stroke-width:0.8;" x="38.482813" xlink:href="#mc6d3948ba8" y="53.34921"/>
      </g>
     </g>
     <g id="text_15">
      <!-- 0.3 -->
      <g transform="translate(15.579688 57.148428)scale(0.1 -0.1)">
       <use xlink:href="#DejaVuSans-48"/>
       <use x="63.623047" xlink:href="#DejaVuSans-46"/>
       <use x="95.410156" xlink:href="#DejaVuSans-51"/>
      </g>
     </g>
    </g>
    <g id="ytick_8">
     <g id="line2d_15">
      <g>
       <use style="stroke:#000000;stroke-width:0.8;" x="38.482813" xlink:href="#mc6d3948ba8" y="26.244174"/>
      </g>
     </g>
     <g id="text_16">
      <!-- 0.4 -->
      <g transform="translate(15.579688 30.043392)scale(0.1 -0.1)">
       <use xlink:href="#DejaVuSans-48"/>
       <use x="63.623047" xlink:href="#DejaVuSans-46"/>
       <use x="95.410156" xlink:href="#DejaVuSans-52"/>
      </g>
     </g>
    </g>
   </g>
   <g id="line2d_16">
    <path clip-path="url(#pc9c9c97686)" d="M 53.700994 73.609895 
L 54.923338 69.787403 
L 56.145682 67.571334 
L 57.368026 64.936963 
L 58.59037 61.569251 
L 59.812714 57.756589 
L 61.035058 53.573989 
L 62.257402 50.738403 
L 63.479746 48.559068 
L 64.70209 46.687166 
L 65.924434 45.1252 
L 68.369121 42.704335 
L 69.591465 41.513702 
L 73.258497 37.573066 
L 74.480841 36.667504 
L 75.703185 36.879185 
L 76.925529 37.486677 
L 78.147873 37.850213 
L 79.370217 37.883229 
L 80.592561 37.67473 
L 83.037248 36.856304 
L 85.481936 35.783877 
L 87.926624 34.452215 
L 89.148968 33.596774 
L 91.593656 31.343917 
L 92.816 31.434158 
L 94.038344 33.317434 
L 95.260688 36.225961 
L 96.483032 40.149392 
L 97.705375 48.191732 
L 98.927719 45.738004 
L 100.150063 42.893801 
L 101.372407 41.106008 
L 102.594751 41.154858 
L 103.817095 42.320379 
L 105.039439 44.630881 
L 106.261783 48.106748 
L 107.484127 51.998282 
L 108.706471 55.279224 
L 109.928815 58.139958 
L 112.373503 64.454223 
L 113.595846 67.046539 
L 114.81819 68.827222 
L 116.040534 69.720596 
L 117.262878 69.365921 
L 118.485222 67.008273 
L 119.707566 62.868389 
L 120.92991 59.721177 
L 122.152254 58.750408 
L 123.374598 58.740573 
L 125.819286 58.989204 
L 127.04163 58.927367 
L 128.263974 56.85558 
L 129.486317 53.916131 
L 130.708661 52.018207 
L 131.931005 51.276661 
L 133.153349 51.605939 
L 134.375693 52.829595 
L 135.598037 54.732949 
L 136.820381 57.096983 
L 141.709757 67.58935 
L 142.932101 69.860128 
L 144.154444 71.862416 
L 145.376788 73.585273 
L 146.599132 75.032944 
L 147.821476 76.12257 
L 149.04382 76.862765 
L 150.266164 77.408089 
L 152.710852 78.084294 
L 155.15554 78.38541 
L 157.600228 78.445055 
L 160.044915 78.318923 
L 162.489603 77.929065 
L 163.711947 77.550369 
L 164.934291 76.969836 
L 166.156635 76.111141 
L 167.378979 74.901611 
L 168.601323 73.297958 
L 169.823667 71.315998 
L 174.713043 62.379561 
L 175.935386 60.744736 
L 177.15773 59.53945 
L 178.380074 58.756202 
L 179.602418 58.353583 
L 180.824762 58.274981 
L 182.047106 58.461524 
L 183.26945 58.859043 
L 184.491794 59.420539 
L 186.936482 60.886303 
L 190.603513 63.549832 
L 199.159921 70.032872 
L 202.826953 72.532857 
L 206.493984 74.773305 
L 210.161016 76.72995 
L 213.828048 78.37773 
L 216.272736 79.274256 
L 218.717424 79.918951 
L 219.939768 79.951948 
L 221.162112 80.873269 
L 223.606799 82.274038 
L 226.051487 83.32903 
L 228.496175 84.181782 
L 232.163207 85.202803 
L 235.830239 86.008826 
L 240.719614 86.861149 
L 246.831334 87.699802 
L 255.387741 88.636713 
L 268.833524 89.854762 
L 292.058059 91.701814 
L 314.06025 93.247064 
L 331.173064 94.237978 
L 347.063535 94.929946 
L 358.064631 95.258922 
L 358.064631 95.258922 
" style="fill:none;stroke:#1f77b4;stroke-linecap:square;stroke-width:1.5;"/>
   </g>
   <g id="line2d_17">
    <path clip-path="url(#pc9c9c97686)" d="M 53.700994 135.646272 
L 54.923338 138.444114 
L 56.145682 146.023475 
L 58.59037 175.815989 
L 59.812714 187.613894 
L 61.035058 186.89951 
L 62.257402 180.347331 
L 63.479746 174.976661 
L 64.70209 167.350222 
L 65.924434 156.070535 
L 67.146777 140.367571 
L 69.591465 102.393266 
L 70.813809 86.745431 
L 72.036153 77.165504 
L 73.258497 73.862541 
L 74.480841 75.354629 
L 76.925529 85.822248 
L 79.370217 94.609432 
L 89.148968 127.528552 
L 90.371312 132.464782 
L 91.593656 138.237132 
L 92.816 142.527243 
L 94.038344 142.31377 
L 95.260688 138.510293 
L 96.483032 132.355085 
L 97.705375 113.92211 
L 98.927719 97.603558 
L 100.150063 103.720025 
L 101.372407 117.789454 
L 102.594751 127.755054 
L 103.817095 133.246515 
L 105.039439 134.618612 
L 106.261783 131.996198 
L 107.484127 125.259843 
L 112.373503 88.269663 
L 114.81819 68.122081 
L 116.040534 59.375033 
L 117.262878 52.952883 
L 118.485222 51.434723 
L 119.707566 56.939198 
L 120.92991 64.586854 
L 122.152254 68.844396 
L 123.374598 70.513555 
L 124.596942 71.252125 
L 125.819286 71.564113 
L 127.04163 71.322751 
L 128.263974 74.363236 
L 130.708661 89.457904 
L 131.931005 95.257344 
L 133.153349 99.043649 
L 134.375693 100.772824 
L 135.598037 100.63905 
L 136.820381 98.957977 
L 138.042725 96.083694 
L 139.265069 92.354551 
L 141.709757 83.454236 
L 146.599132 64.857205 
L 147.821476 60.766864 
L 149.04382 57.184075 
L 150.266164 53.969247 
L 151.488508 51.149027 
L 152.710852 48.729955 
L 153.933196 46.701294 
L 155.15554 45.042172 
L 156.377884 43.727623 
L 157.600228 42.732617 
L 158.822572 42.037977 
L 160.044915 41.63386 
L 161.267259 41.530062 
L 162.489603 41.75641 
L 163.711947 42.374009 
L 164.934291 43.466187 
L 166.156635 45.134542 
L 167.378979 47.468562 
L 168.601323 50.509743 
L 169.823667 54.216292 
L 172.268355 62.914818 
L 174.713043 71.499683 
L 175.935386 75.107174 
L 177.15773 78.066751 
L 178.380074 80.340953 
L 179.602418 81.955177 
L 180.824762 82.971619 
L 182.047106 83.469375 
L 183.26945 83.529514 
L 184.491794 83.227787 
L 185.714138 82.631383 
L 186.936482 81.798183 
L 188.158826 80.77709 
L 190.603513 78.328562 
L 194.270545 74.074802 
L 202.826953 63.826571 
L 206.493984 59.909941 
L 208.938672 57.573458 
L 211.38336 55.507617 
L 213.828048 53.778926 
L 215.050392 53.077619 
L 216.272736 52.523919 
L 217.49508 52.181733 
L 218.717424 52.214281 
L 219.939768 53.580766 
L 221.162112 51.949391 
L 223.606799 47.634755 
L 226.051487 43.876287 
L 228.496175 40.525508 
L 230.940863 37.523339 
L 233.385551 34.828714 
L 235.830239 32.411527 
L 238.274926 30.245791 
L 240.719614 28.30901 
L 243.164302 26.581862 
L 245.60899 25.046811 
L 249.276022 23.070345 
L 252.943053 21.444522 
L 256.610085 20.129214 
L 260.277117 19.089499 
L 263.944149 18.295089 
L 267.611181 17.719229 
L 271.278212 17.338749 
L 276.167588 17.099934 
L 281.056964 17.129664 
L 285.946339 17.391719 
L 290.835715 17.8548 
L 296.947435 18.67629 
L 303.059154 19.725474 
L 310.393218 21.231738 
L 317.727281 22.95676 
L 326.283689 25.185029 
L 337.284784 28.301053 
L 350.730567 32.360204 
L 358.064631 34.643935 
L 358.064631 34.643935 
" style="fill:none;stroke:#ff7f0e;stroke-linecap:square;stroke-width:1.5;"/>
   </g>
   <g id="line2d_18">
    <path clip-path="url(#pc9c9c97686)" d="M 53.700994 82.786617 
L 54.923338 85.682568 
L 56.145682 81.59113 
L 57.368026 82.044623 
L 58.59037 90.95266 
L 59.812714 108.314639 
L 61.035058 130.715138 
L 63.479746 157.615201 
L 65.924434 183.515542 
L 67.146777 193.491003 
L 68.369121 197.877576 
L 69.591465 195.134094 
L 70.813809 186.308954 
L 73.258497 160.123241 
L 74.480841 148.419232 
L 75.703185 140.288851 
L 76.925529 135.365017 
L 78.147873 132.031168 
L 79.370217 129.610696 
L 80.592561 127.924058 
L 81.814905 126.921507 
L 83.037248 126.578642 
L 84.259592 126.861243 
L 85.481936 127.726082 
L 86.70428 129.139557 
L 87.926624 131.103506 
L 89.148968 133.676147 
L 90.371312 137.177624 
L 91.593656 143.035476 
L 92.816 152.744078 
L 94.038344 163.967646 
L 96.483032 182.996087 
L 97.705375 199.80521 
L 98.927719 175.033662 
L 100.150063 157.643114 
L 101.372407 154.493175 
L 102.594751 160.615059 
L 103.817095 170.12501 
L 106.261783 192.41647 
L 107.484127 202.077209 
L 108.706471 208.294117 
L 109.928815 211.897873 
L 111.151159 214.308037 
L 112.373503 214.756364 
L 113.595846 212.802488 
L 114.81819 208.377943 
L 116.040534 201.273816 
L 117.262878 191.117975 
L 118.485222 178.455645 
L 119.707566 167.808758 
L 120.92991 164.131839 
L 122.152254 164.158489 
L 123.374598 164.0087 
L 124.596942 163.038313 
L 125.819286 161.358386 
L 127.04163 158.245506 
L 128.263974 151.740192 
L 129.486317 149.632308 
L 130.708661 151.538823 
L 131.931005 155.956147 
L 134.375693 168.116211 
L 135.598037 174.304837 
L 136.820381 179.886759 
L 138.042725 184.591899 
L 139.265069 188.297393 
L 140.487413 190.986698 
L 141.709757 192.712678 
L 142.932101 193.566769 
L 144.154444 193.653686 
L 145.376788 193.06792 
L 146.599132 191.852518 
L 147.821476 189.959548 
L 150.266164 185.468668 
L 152.710852 180.2139 
L 156.377884 171.44038 
L 160.044915 162.006263 
L 162.489603 155.207887 
L 166.156635 144.056095 
L 168.601323 136.974458 
L 169.823667 134.204838 
L 171.046011 132.322731 
L 172.268355 131.520081 
L 173.490699 131.847181 
L 174.713043 133.205913 
L 175.935386 135.390491 
L 177.15773 138.154631 
L 184.491794 156.576598 
L 186.936482 161.363073 
L 188.158826 163.402475 
L 189.38117 165.213875 
L 190.603513 166.807465 
L 191.825857 168.194716 
L 193.048201 169.388384 
L 194.270545 170.40103 
L 195.492889 171.245056 
L 196.715233 171.932517 
L 197.937577 172.47494 
L 199.159921 172.883301 
L 201.604609 173.338773 
L 204.049297 173.375038 
L 206.493984 173.059114 
L 208.938672 172.449862 
L 211.38336 171.59934 
L 213.828048 170.555422 
L 217.49508 168.735398 
L 218.717424 168.104836 
L 219.939768 167.677447 
L 221.162112 169.849714 
L 222.384455 170.298538 
L 223.606799 170.312554 
L 224.829143 170.090378 
L 227.273831 169.21918 
L 229.718519 167.993446 
L 233.385551 165.766102 
L 238.274926 162.397205 
L 245.60899 156.988075 
L 259.054773 147.031819 
L 267.611181 141.004517 
L 274.945244 136.105357 
L 282.279308 131.468149 
L 289.613371 127.092992 
L 296.947435 122.972813 
L 304.281498 119.097152 
L 311.615562 115.453303 
L 318.949625 112.0283 
L 327.506033 108.292003 
L 336.06244 104.816329 
L 344.618848 101.583077 
L 353.175255 98.57548 
L 358.064631 96.952228 
L 358.064631 96.952228 
" style="fill:none;stroke:#2ca02c;stroke-linecap:square;stroke-width:1.5;"/>
   </g>
   <g id="patch_3">
    <path d="M 38.482813 224.64 
L 38.482813 7.2 
" style="fill:none;stroke:#000000;stroke-linecap:square;stroke-linejoin:miter;stroke-width:0.8;"/>
   </g>
   <g id="patch_4">
    <path d="M 373.282813 224.64 
L 373.282813 7.2 
" style="fill:none;stroke:#000000;stroke-linecap:square;stroke-linejoin:miter;stroke-width:0.8;"/>
   </g>
   <g id="patch_5">
    <path d="M 38.482813 224.64 
L 373.282812 224.64 
" style="fill:none;stroke:#000000;stroke-linecap:square;stroke-linejoin:miter;stroke-width:0.8;"/>
   </g>
   <g id="patch_6">
    <path d="M 38.482813 7.2 
L 373.282812 7.2 
" style="fill:none;stroke:#000000;stroke-linecap:square;stroke-linejoin:miter;stroke-width:0.8;"/>
   </g>
   <g id="legend_1">
    <g id="patch_7">
     <path d="M 326.801563 219.64 
L 366.282813 219.64 
Q 368.282813 219.64 368.282813 217.64 
L 368.282813 174.605625 
Q 368.282813 172.605625 366.282813 172.605625 
L 326.801563 172.605625 
Q 324.801563 172.605625 324.801563 174.605625 
L 324.801563 217.64 
Q 324.801563 219.64 326.801563 219.64 
z
" style="fill:#ffffff;opacity:0.8;stroke:#cccccc;stroke-linejoin:miter;"/>
    </g>
    <g id="line2d_19">
     <path d="M 328.801563 180.704062 
L 348.801563 180.704062 
" style="fill:none;stroke:#1f77b4;stroke-linecap:square;stroke-width:1.5;"/>
    </g>
    <g id="line2d_20"/>
    <g id="text_17">
     <!-- N -->
     <defs>
      <path d="M 9.8125 72.90625 
L 23.09375 72.90625 
L 55.421875 11.921875 
L 55.421875 72.90625 
L 64.984375 72.90625 
L 64.984375 0 
L 51.703125 0 
L 19.390625 60.984375 
L 19.390625 0 
L 9.8125 0 
z
" id="DejaVuSans-78"/>
     </defs>
     <g transform="translate(356.801563 184.204062)scale(0.1 -0.1)">
      <use xlink:href="#DejaVuSans-78"/>
     </g>
    </g>
    <g id="line2d_21">
     <path d="M 328.801563 195.382187 
L 348.801563 195.382187 
" style="fill:none;stroke:#ff7f0e;stroke-linecap:square;stroke-width:1.5;"/>
    </g>
    <g id="line2d_22"/>
    <g id="text_18">
     <!-- C -->
     <defs>
      <path d="M 64.40625 67.28125 
L 64.40625 56.890625 
Q 59.421875 61.53125 53.78125 63.8125 
Q 48.140625 66.109375 41.796875 66.109375 
Q 29.296875 66.109375 22.65625 58.46875 
Q 16.015625 50.828125 16.015625 36.375 
Q 16.015625 21.96875 22.65625 14.328125 
Q 29.296875 6.6875 41.796875 6.6875 
Q 48.140625 6.6875 53.78125 8.984375 
Q 59.421875 11.28125 64.40625 15.921875 
L 64.40625 5.609375 
Q 59.234375 2.09375 53.4375 0.328125 
Q 47.65625 -1.421875 41.21875 -1.421875 
Q 24.65625 -1.421875 15.125 8.703125 
Q 5.609375 18.84375 5.609375 36.375 
Q 5.609375 53.953125 15.125 64.078125 
Q 24.65625 74.21875 41.21875 74.21875 
Q 47.75 74.21875 53.53125 72.484375 
Q 59.328125 70.75 64.40625 67.28125 
z
" id="DejaVuSans-67"/>
     </defs>
     <g transform="translate(356.801563 198.882187)scale(0.1 -0.1)">
      <use xlink:href="#DejaVuSans-67"/>
     </g>
    </g>
    <g id="line2d_23">
     <path d="M 328.801563 210.060312 
L 348.801563 210.060312 
" style="fill:none;stroke:#2ca02c;stroke-linecap:square;stroke-width:1.5;"/>
    </g>
    <g id="line2d_24"/>
    <g id="text_19">
     <!-- S -->
     <defs>
      <path d="M 53.515625 70.515625 
L 53.515625 60.890625 
Q 47.90625 63.578125 42.921875 64.890625 
Q 37.9375 66.21875 33.296875 66.21875 
Q 25.25 66.21875 20.875 63.09375 
Q 16.5 59.96875 16.5 54.203125 
Q 16.5 49.359375 19.40625 46.890625 
Q 22.3125 44.4375 30.421875 42.921875 
L 36.375 41.703125 
Q 47.40625 39.59375 52.65625 34.296875 
Q 57.90625 29 57.90625 20.125 
Q 57.90625 9.515625 50.796875 4.046875 
Q 43.703125 -1.421875 29.984375 -1.421875 
Q 24.8125 -1.421875 18.96875 -0.25 
Q 13.140625 0.921875 6.890625 3.21875 
L 6.890625 13.375 
Q 12.890625 10.015625 18.65625 8.296875 
Q 24.421875 6.59375 29.984375 6.59375 
Q 38.421875 6.59375 43.015625 9.90625 
Q 47.609375 13.234375 47.609375 19.390625 
Q 47.609375 24.75 44.3125 27.78125 
Q 41.015625 30.8125 33.5 32.328125 
L 27.484375 33.5 
Q 16.453125 35.6875 11.515625 40.375 
Q 6.59375 45.0625 6.59375 53.421875 
Q 6.59375 63.09375 13.40625 68.65625 
Q 20.21875 74.21875 32.171875 74.21875 
Q 37.3125 74.21875 42.625 73.28125 
Q 47.953125 72.359375 53.515625 70.515625 
z
" id="DejaVuSans-83"/>
     </defs>
     <g transform="translate(356.801563 213.560312)scale(0.1 -0.1)">
      <use xlink:href="#DejaVuSans-83"/>
     </g>
    </g>
   </g>
  </g>
 </g>
 <defs>
  <clipPath id="pc9c9c97686">
   <rect height="217.44" width="334.8" x="38.482813" y="7.2"/>
  </clipPath>
 </defs>
</svg>
