<?xml version="1.0" encoding="utf-8" standalone="no"?>
<!DOCTYPE svg PUBLIC "-//W3C//DTD SVG 1.1//EN"
  "http://www.w3.org/Graphics/SVG/1.1/DTD/svg11.dtd">
<svg xmlns:xlink="http://www.w3.org/1999/xlink" width="610.045312pt" height="574.678125pt" viewBox="0 0 610.045312 574.678125" xmlns="http://www.w3.org/2000/svg" version="1.1">
 <metadata>
  <rdf:RDF xmlns:dc="http://purl.org/dc/elements/1.1/" xmlns:cc="http://creativecommons.org/ns#" xmlns:rdf="http://www.w3.org/1999/02/22-rdf-syntax-ns#">
   <cc:Work>
    <dc:type rdf:resource="http://purl.org/dc/dcmitype/StillImage"/>
    <dc:date>2024-12-19T14:07:29.508356</dc:date>
    <dc:format>image/svg+xml</dc:format>
    <dc:creator>
     <cc:Agent>
      <dc:title>Matplotlib v3.5.2, https://matplotlib.org/</dc:title>
     </cc:Agent>
    </dc:creator>
   </cc:Work>
  </rdf:RDF>
 </metadata>
 <defs>
  <style type="text/css">*{stroke-linejoin: round; stroke-linecap: butt}</style>
 </defs>
 <g id="figure_1">
  <g id="patch_1">
   <path d="M 0 574.678125 
L 610.045312 574.678125 
L 610.045312 0 
L 0 0 
L 0 574.678125 
z
" style="fill: none"/>
  </g>
  <g id="axes_1">
   <g id="patch_2">
    <path d="M 44.845313 550.8 
L 602.845312 550.8 
L 602.845312 7.2 
L 44.845313 7.2 
z
" style="fill: #ffffff"/>
   </g>
   <g id="PathCollection_1">
    <path d="M 560.436894 223.53621 
C 560.5201 223.53621 560.59991 223.503152 560.658746 223.444316 
C 560.717581 223.385481 560.75064 223.305671 560.75064 223.222465 
C 560.75064 223.139258 560.717581 223.059448 560.658746 223.000613 
C 560.59991 222.941777 560.5201 222.908719 560.436894 222.908719 
C 560.353687 222.908719 560.273878 222.941777 560.215042 223.000613 
C 560.156206 223.059448 560.123148 223.139258 560.123148 223.222465 
C 560.123148 223.305671 560.156206 223.385481 560.215042 223.444316 
C 560.273878 223.503152 560.353687 223.53621 560.436894 223.53621 
z
" clip-path="url(#p2a37bd073a)" style="fill: #1f77b4; stroke: #1f77b4"/>
    <path d="M 550.893178 232.806149 
C 550.969405 232.806149 551.04252 232.775863 551.096421 232.721963 
C 551.150321 232.668062 551.180606 232.594947 551.180606 232.51872 
C 551.180606 232.442494 551.150321 232.369378 551.096421 232.315478 
C 551.04252 232.261577 550.969405 232.231292 550.893178 232.231292 
C 550.816951 232.231292 550.743836 232.261577 550.689936 232.315478 
C 550.636035 232.369378 550.60575 232.442494 550.60575 232.51872 
C 550.60575 232.594947 550.636035 232.668062 550.689936 232.721963 
C 550.743836 232.775863 550.816951 232.806149 550.893178 232.806149 
z
" clip-path="url(#p2a37bd073a)" style="fill: #1f77b4; stroke: #1f77b4"/>
    <path d="M 541.349463 242.087422 
C 541.421716 242.087422 541.49102 242.058715 541.54211 242.007624 
C 541.593201 241.956533 541.621908 241.88723 541.621908 241.814976 
C 541.621908 241.742723 541.593201 241.673419 541.54211 241.622328 
C 541.49102 241.571238 541.421716 241.542531 541.349463 241.542531 
C 541.277209 241.542531 541.207905 241.571238 541.156815 241.622328 
C 541.105724 241.673419 541.077017 241.742723 541.077017 241.814976 
C 541.077017 241.88723 541.105724 241.956533 541.156815 242.007624 
C 541.207905 242.058715 541.277209 242.087422 541.349463 242.087422 
z
" clip-path="url(#p2a37bd073a)" style="fill: #1f77b4; stroke: #1f77b4"/>
    <path d="M 531.805747 251.37669 
C 531.876147 251.37669 531.943673 251.348719 531.993454 251.298939 
C 532.043234 251.249159 532.071204 251.181632 532.071204 251.111232 
C 532.071204 251.040832 532.043234 250.973306 531.993454 250.923525 
C 531.943673 250.873745 531.876147 250.845775 531.805747 250.845775 
C 531.735347 250.845775 531.66782 250.873745 531.61804 250.923525 
C 531.56826 250.973306 531.540289 251.040832 531.540289 251.111232 
C 531.540289 251.181632 531.56826 251.249159 531.61804 251.298939 
C 531.66782 251.348719 531.735347 251.37669 531.805747 251.37669 
z
" clip-path="url(#p2a37bd073a)" style="fill: #1f77b4; stroke: #1f77b4"/>
    <path d="M 522.262031 260.675456 
C 522.333097 260.675456 522.401262 260.647221 522.451513 260.59697 
C 522.501764 260.546719 522.529999 260.478554 522.529999 260.407488 
C 522.529999 260.336422 522.501764 260.268258 522.451513 260.218006 
C 522.401262 260.167755 522.333097 260.13952 522.262031 260.13952 
C 522.190965 260.13952 522.122801 260.167755 522.072549 260.218006 
C 522.022298 260.268258 521.994064 260.336422 521.994064 260.407488 
C 521.994064 260.478554 522.022298 260.546719 522.072549 260.59697 
C 522.122801 260.647221 522.190965 260.675456 522.262031 260.675456 
z
" clip-path="url(#p2a37bd073a)" style="fill: #1f77b4; stroke: #1f77b4"/>
    <path d="M 512.718316 269.979665 
C 512.791491 269.979665 512.861679 269.950592 512.913421 269.89885 
C 512.965164 269.847107 512.994237 269.776919 512.994237 269.703744 
C 512.994237 269.630569 512.965164 269.560381 512.913421 269.508638 
C 512.861679 269.456896 512.791491 269.427823 512.718316 269.427823 
C 512.64514 269.427823 512.574953 269.456896 512.52321 269.508638 
C 512.471467 269.560381 512.442395 269.630569 512.442395 269.703744 
C 512.442395 269.776919 512.471467 269.847107 512.52321 269.89885 
C 512.574953 269.950592 512.64514 269.979665 512.718316 269.979665 
z
" clip-path="url(#p2a37bd073a)" style="fill: #1f77b4; stroke: #1f77b4"/>
    <path d="M 503.1746 281.790037 
C 503.914526 281.790037 504.624247 281.496061 505.147454 280.972854 
C 505.670661 280.449647 505.964636 279.739926 505.964636 279 
C 505.964636 278.260074 505.670661 277.550353 505.147454 277.027146 
C 504.624247 276.503939 503.914526 276.209963 503.1746 276.209963 
C 502.434674 276.209963 501.724953 276.503939 501.201746 277.027146 
C 500.678539 277.550353 500.384563 278.260074 500.384563 279 
C 500.384563 279.739926 500.678539 280.449647 501.201746 280.972854 
C 501.724953 281.496061 502.434674 281.790037 503.1746 281.790037 
z
" clip-path="url(#p2a37bd073a)" style="fill: #1f77b4; stroke: #1f77b4"/>
    <path d="M 493.630884 288.582434 
C 493.70678 288.582434 493.779576 288.55228 493.833242 288.498614 
C 493.886908 288.444948 493.917062 288.372151 493.917062 288.296256 
C 493.917062 288.220361 493.886908 288.147564 493.833242 288.093898 
C 493.779576 288.040232 493.70678 288.010078 493.630884 288.010078 
C 493.554989 288.010078 493.482192 288.040232 493.428526 288.093898 
C 493.37486 288.147564 493.344707 288.220361 493.344707 288.296256 
C 493.344707 288.372151 493.37486 288.444948 493.428526 288.498614 
C 493.482192 288.55228 493.554989 288.582434 493.630884 288.582434 
z
" clip-path="url(#p2a37bd073a)" style="fill: #1f77b4; stroke: #1f77b4"/>
    <path d="M 484.087169 297.875571 
C 484.162237 297.875571 484.234241 297.845746 484.287322 297.792665 
C 484.340403 297.739584 484.370228 297.66758 484.370228 297.592512 
C 484.370228 297.517444 484.340403 297.44544 484.287322 297.392359 
C 484.234241 297.339278 484.162237 297.309453 484.087169 297.309453 
C 484.0121 297.309453 483.940097 297.339278 483.887016 297.392359 
C 483.833934 297.44544 483.804109 297.517444 483.804109 297.592512 
C 483.804109 297.66758 483.833934 297.739584 483.887016 297.792665 
C 483.940097 297.845746 484.0121 297.875571 484.087169 297.875571 
z
" clip-path="url(#p2a37bd073a)" style="fill: #1f77b4; stroke: #1f77b4"/>
    <path d="M 474.543453 307.16307 
C 474.616199 307.16307 474.685975 307.134168 474.737414 307.082729 
C 474.788853 307.03129 474.817755 306.961514 474.817755 306.888768 
C 474.817755 306.816022 474.788853 306.746246 474.737414 306.694807 
C 474.685975 306.643368 474.616199 306.614465 474.543453 306.614465 
C 474.470707 306.614465 474.400931 306.643368 474.349492 306.694807 
C 474.298053 306.746246 474.269151 306.816022 474.269151 306.888768 
C 474.269151 306.961514 474.298053 307.03129 474.349492 307.082729 
C 474.400931 307.134168 474.470707 307.16307 474.543453 307.16307 
z
" clip-path="url(#p2a37bd073a)" style="fill: #1f77b4; stroke: #1f77b4"/>
    <path d="M 464.999737 316.446125 
C 465.068982 316.446125 465.135401 316.418614 465.184364 316.36965 
C 465.233328 316.320687 465.260839 316.254269 465.260839 316.185024 
C 465.260839 316.115779 465.233328 316.04936 465.184364 316.000397 
C 465.135401 315.951433 465.068982 315.923922 464.999737 315.923922 
C 464.930492 315.923922 464.864074 315.951433 464.815111 316.000397 
C 464.766147 316.04936 464.738636 316.115779 464.738636 316.185024 
C 464.738636 316.254269 464.766147 316.320687 464.815111 316.36965 
C 464.864074 316.418614 464.930492 316.446125 464.999737 316.446125 
z
" clip-path="url(#p2a37bd073a)" style="fill: #1f77b4; stroke: #1f77b4"/>
    <path d="M 455.456022 325.726196 
C 455.520974 325.726196 455.583275 325.70039 455.629204 325.654462 
C 455.675132 325.608533 455.700938 325.546232 455.700938 325.48128 
C 455.700938 325.416327 455.675132 325.354026 455.629204 325.308097 
C 455.583275 325.262169 455.520974 325.236363 455.456022 325.236363 
C 455.391069 325.236363 455.328768 325.262169 455.28284 325.308097 
C 455.236911 325.354026 455.211105 325.416327 455.211105 325.48128 
C 455.211105 325.546232 455.236911 325.608533 455.28284 325.654462 
C 455.328768 325.70039 455.391069 325.726196 455.456022 325.726196 
z
" clip-path="url(#p2a37bd073a)" style="fill: #1f77b4; stroke: #1f77b4"/>
    <path d="M 445.912306 335.004668 
C 445.972542 335.004668 446.03032 334.980736 446.072913 334.938143 
C 446.115507 334.895549 446.139439 334.837772 446.139439 334.777535 
C 446.139439 334.717299 446.115507 334.659522 446.072913 334.616928 
C 446.03032 334.574335 445.972542 334.550403 445.912306 334.550403 
C 445.85207 334.550403 445.794293 334.574335 445.751699 334.616928 
C 445.709106 334.659522 445.685173 334.717299 445.685173 334.777535 
C 445.685173 334.837772 445.709106 334.895549 445.751699 334.938143 
C 445.794293 334.980736 445.85207 335.004668 445.912306 335.004668 
z
" clip-path="url(#p2a37bd073a)" style="fill: #1f77b4; stroke: #1f77b4"/>
    <path d="M 436.36859 344.282687 
C 436.42399 344.282687 436.477128 344.260677 436.516302 344.221503 
C 436.555476 344.182329 436.577486 344.129191 436.577486 344.073791 
C 436.577486 344.018392 436.555476 343.965253 436.516302 343.92608 
C 436.477128 343.886906 436.42399 343.864896 436.36859 343.864896 
C 436.313191 343.864896 436.260052 343.886906 436.220879 343.92608 
C 436.181705 343.965253 436.159695 344.018392 436.159695 344.073791 
C 436.159695 344.129191 436.181705 344.182329 436.220879 344.221503 
C 436.260052 344.260677 436.313191 344.282687 436.36859 344.282687 
z
" clip-path="url(#p2a37bd073a)" style="fill: #1f77b4; stroke: #1f77b4"/>
    <path d="M 426.824875 353.56109 
C 426.87554 353.56109 426.924137 353.54096 426.959962 353.505135 
C 426.995788 353.469309 427.015917 353.420712 427.015917 353.370047 
C 427.015917 353.319382 426.995788 353.270785 426.959962 353.23496 
C 426.924137 353.199134 426.87554 353.179005 426.824875 353.179005 
C 426.77421 353.179005 426.725613 353.199134 426.689787 353.23496 
C 426.653962 353.270785 426.633832 353.319382 426.633832 353.370047 
C 426.633832 353.420712 426.653962 353.469309 426.689787 353.505135 
C 426.725613 353.54096 426.77421 353.56109 426.824875 353.56109 
z
" clip-path="url(#p2a37bd073a)" style="fill: #1f77b4; stroke: #1f77b4"/>
    <path d="M 417.281159 362.840392 
C 417.327328 362.840392 417.371612 362.822049 417.404259 362.789403 
C 417.436905 362.756756 417.455248 362.712472 417.455248 362.666303 
C 417.455248 362.620134 417.436905 362.57585 417.404259 362.543204 
C 417.371612 362.510557 417.327328 362.492214 417.281159 362.492214 
C 417.23499 362.492214 417.190706 362.510557 417.15806 362.543204 
C 417.125413 362.57585 417.10707 362.620134 417.10707 362.666303 
C 417.10707 362.712472 417.125413 362.756756 417.15806 362.789403 
C 417.190706 362.822049 417.23499 362.840392 417.281159 362.840392 
z
" clip-path="url(#p2a37bd073a)" style="fill: #1f77b4; stroke: #1f77b4"/>
    <path d="M 407.737444 372.1208 
C 407.77941 372.1208 407.819662 372.104127 407.849337 372.074453 
C 407.879011 372.044778 407.895685 372.004525 407.895685 371.962559 
C 407.895685 371.920593 407.879011 371.88034 407.849337 371.850666 
C 407.819662 371.820991 407.77941 371.804318 407.737444 371.804318 
C 407.695478 371.804318 407.655225 371.820991 407.62555 371.850666 
C 407.595876 371.88034 407.579202 371.920593 407.579202 371.962559 
C 407.579202 372.004525 407.595876 372.044778 407.62555 372.074453 
C 407.655225 372.104127 407.695478 372.1208 407.737444 372.1208 
z
" clip-path="url(#p2a37bd073a)" style="fill: #1f77b4; stroke: #1f77b4"/>
    <path d="M 398.193728 381.402246 
C 398.231766 381.402246 398.268252 381.387134 398.295149 381.360236 
C 398.322046 381.333339 398.337159 381.296854 398.337159 381.258815 
C 398.337159 381.220777 398.322046 381.184291 398.295149 381.157394 
C 398.268252 381.130497 398.231766 381.115384 398.193728 381.115384 
C 398.155689 381.115384 398.119204 381.130497 398.092307 381.157394 
C 398.065409 381.184291 398.050297 381.220777 398.050297 381.258815 
C 398.050297 381.296854 398.065409 381.333339 398.092307 381.360236 
C 398.119204 381.387134 398.155689 381.402246 398.193728 381.402246 
z
" clip-path="url(#p2a37bd073a)" style="fill: #1f77b4; stroke: #1f77b4"/>
    <path d="M 388.650012 390.68445 
C 388.684324 390.68445 388.717235 390.670818 388.741497 390.646556 
C 388.765759 390.622294 388.779392 390.589383 388.779392 390.555071 
C 388.779392 390.520759 388.765759 390.487848 388.741497 390.463586 
C 388.717235 390.439324 388.684324 390.425692 388.650012 390.425692 
C 388.6157 390.425692 388.582789 390.439324 388.558527 390.463586 
C 388.534265 390.487848 388.520633 390.520759 388.520633 390.555071 
C 388.520633 390.589383 388.534265 390.622294 388.558527 390.646556 
C 388.582789 390.670818 388.6157 390.68445 388.650012 390.68445 
z
" clip-path="url(#p2a37bd073a)" style="fill: #1f77b4; stroke: #1f77b4"/>
    <path d="M 379.106297 399.967037 
C 379.136983 399.967037 379.166417 399.954845 379.188116 399.933146 
C 379.209815 399.911448 379.222007 399.882014 379.222007 399.851327 
C 379.222007 399.82064 379.209815 399.791206 379.188116 399.769507 
C 379.166417 399.747809 379.136983 399.735617 379.106297 399.735617 
C 379.07561 399.735617 379.046176 399.747809 379.024477 399.769507 
C 379.002778 399.791206 378.990586 399.82064 378.990586 399.851327 
C 378.990586 399.882014 379.002778 399.911448 379.024477 399.933146 
C 379.046176 399.954845 379.07561 399.967037 379.106297 399.967037 
z
" clip-path="url(#p2a37bd073a)" style="fill: #1f77b4; stroke: #1f77b4"/>
    <path d="M 369.562581 409.249755 
C 369.589677 409.249755 369.615668 409.238989 369.634828 409.219829 
C 369.653988 409.200669 369.664753 409.174679 369.664753 409.147583 
C 369.664753 409.120486 369.653988 409.094496 369.634828 409.075336 
C 369.615668 409.056176 369.589677 409.045411 369.562581 409.045411 
C 369.535485 409.045411 369.509494 409.056176 369.490334 409.075336 
C 369.471174 409.094496 369.460409 409.120486 369.460409 409.147583 
C 369.460409 409.174679 369.471174 409.200669 369.490334 409.219829 
C 369.509494 409.238989 369.535485 409.249755 369.562581 409.249755 
z
" clip-path="url(#p2a37bd073a)" style="fill: #1f77b4; stroke: #1f77b4"/>
    <path d="M 360.018865 418.532881 
C 360.04248 418.532881 360.06513 418.523499 360.081828 418.506801 
C 360.098525 418.490103 360.107907 418.467453 360.107907 418.443839 
C 360.107907 418.420224 360.098525 418.397574 360.081828 418.380877 
C 360.06513 418.364179 360.04248 418.354797 360.018865 418.354797 
C 359.995251 418.354797 359.972601 418.364179 359.955903 418.380877 
C 359.939205 418.397574 359.929823 418.420224 359.929823 418.443839 
C 359.929823 418.467453 359.939205 418.490103 359.955903 418.506801 
C 359.972601 418.523499 359.995251 418.532881 360.018865 418.532881 
z
" clip-path="url(#p2a37bd073a)" style="fill: #1f77b4; stroke: #1f77b4"/>
    <path d="M 350.47515 427.817943 
C 350.495795 427.817943 350.515598 427.809741 350.530197 427.795142 
C 350.544796 427.780543 350.552998 427.76074 350.552998 427.740095 
C 350.552998 427.719449 350.544796 427.699646 350.530197 427.685047 
C 350.515598 427.670449 350.495795 427.662246 350.47515 427.662246 
C 350.454504 427.662246 350.434701 427.670449 350.420102 427.685047 
C 350.405504 427.699646 350.397301 427.719449 350.397301 427.740095 
C 350.397301 427.76074 350.405504 427.780543 350.420102 427.795142 
C 350.434701 427.809741 350.454504 427.817943 350.47515 427.817943 
z
" clip-path="url(#p2a37bd073a)" style="fill: #1f77b4; stroke: #1f77b4"/>
    <path d="M 340.931434 437.108522 
C 340.950574 437.108522 340.968933 437.100917 340.982467 437.087383 
C 340.996001 437.073849 341.003605 437.055491 341.003605 437.036351 
C 341.003605 437.017211 340.996001 436.998852 340.982467 436.985318 
C 340.968933 436.971784 340.950574 436.964179 340.931434 436.964179 
C 340.912294 436.964179 340.893935 436.971784 340.880401 436.985318 
C 340.866867 436.998852 340.859263 437.017211 340.859263 437.036351 
C 340.859263 437.055491 340.866867 437.073849 340.880401 437.087383 
C 340.893935 437.100917 340.912294 437.108522 340.931434 437.108522 
z
" clip-path="url(#p2a37bd073a)" style="fill: #1f77b4; stroke: #1f77b4"/>
    <path d="M 331.387718 446.408993 
C 331.407977 446.408993 331.427408 446.400945 331.441732 446.38662 
C 331.456057 446.372296 331.464105 446.352865 331.464105 446.332606 
C 331.464105 446.312348 331.456057 446.292917 331.441732 446.278593 
C 331.427408 446.264268 331.407977 446.256219 331.387718 446.256219 
C 331.36746 446.256219 331.348029 446.264268 331.333705 446.278593 
C 331.31938 446.292917 331.311331 446.312348 331.311331 446.332606 
C 331.311331 446.352865 331.31938 446.372296 331.333705 446.38662 
C 331.348029 446.400945 331.36746 446.408993 331.387718 446.408993 
z
" clip-path="url(#p2a37bd073a)" style="fill: #1f77b4; stroke: #1f77b4"/>
    <path d="M 321.844003 455.719722 
C 321.868099 455.719722 321.891212 455.710149 321.90825 455.69311 
C 321.925289 455.676071 321.934863 455.652959 321.934863 455.628862 
C 321.934863 455.604766 321.925289 455.581653 321.90825 455.564615 
C 321.891212 455.547576 321.868099 455.538003 321.844003 455.538003 
C 321.819907 455.538003 321.796794 455.547576 321.779755 455.564615 
C 321.762717 455.581653 321.753143 455.604766 321.753143 455.628862 
C 321.753143 455.652959 321.762717 455.676071 321.779755 455.69311 
C 321.796794 455.710149 321.819907 455.719722 321.844003 455.719722 
z
" clip-path="url(#p2a37bd073a)" style="fill: #1f77b4; stroke: #1f77b4"/>
    <path d="M 312.300287 465.035629 
C 312.329595 465.035629 312.357706 465.023985 312.37843 465.003261 
C 312.399153 464.982537 312.410797 464.954426 312.410797 464.925118 
C 312.410797 464.895811 312.399153 464.867699 312.37843 464.846976 
C 312.357706 464.826252 312.329595 464.814608 312.300287 464.814608 
C 312.27098 464.814608 312.242868 464.826252 312.222145 464.846976 
C 312.201421 464.867699 312.189777 464.895811 312.189777 464.925118 
C 312.189777 464.954426 312.201421 464.982537 312.222145 465.003261 
C 312.242868 465.023985 312.27098 465.035629 312.300287 465.035629 
z
" clip-path="url(#p2a37bd073a)" style="fill: #1f77b4; stroke: #1f77b4"/>
    <path d="M 302.756572 474.349166 
C 302.790462 474.349166 302.82297 474.335701 302.846934 474.311737 
C 302.870898 474.287772 302.884363 474.255265 302.884363 474.221374 
C 302.884363 474.187483 302.870898 474.154976 302.846934 474.131012 
C 302.82297 474.107047 302.790462 474.093583 302.756572 474.093583 
C 302.722681 474.093583 302.690174 474.107047 302.666209 474.131012 
C 302.642245 474.154976 302.62878 474.187483 302.62878 474.221374 
C 302.62878 474.255265 302.642245 474.287772 302.666209 474.311737 
C 302.690174 474.335701 302.722681 474.349166 302.756572 474.349166 
z
" clip-path="url(#p2a37bd073a)" style="fill: #1f77b4; stroke: #1f77b4"/>
    <path d="M 293.212856 483.651412 
C 293.248335 483.651412 293.282366 483.637316 293.307454 483.612228 
C 293.332542 483.587141 293.346638 483.55311 293.346638 483.51763 
C 293.346638 483.482151 293.332542 483.44812 293.307454 483.423032 
C 293.282366 483.397944 293.248335 483.383848 293.212856 483.383848 
C 293.177376 483.383848 293.143345 483.397944 293.118258 483.423032 
C 293.09317 483.44812 293.079074 483.482151 293.079074 483.51763 
C 293.079074 483.55311 293.09317 483.587141 293.118258 483.612228 
C 293.143345 483.637316 293.177376 483.651412 293.212856 483.651412 
z
" clip-path="url(#p2a37bd073a)" style="fill: #1f77b4; stroke: #1f77b4"/>
    <path d="M 283.66914 492.933199 
C 283.700782 492.933199 283.731133 492.920627 283.753507 492.898253 
C 283.775882 492.875879 283.788453 492.845528 283.788453 492.813886 
C 283.788453 492.782244 283.775882 492.751893 283.753507 492.729519 
C 283.731133 492.707145 283.700782 492.694573 283.66914 492.694573 
C 283.637498 492.694573 283.607148 492.707145 283.584773 492.729519 
C 283.562399 492.751893 283.549827 492.782244 283.549827 492.813886 
C 283.549827 492.845528 283.562399 492.875879 283.584773 492.898253 
C 283.607148 492.920627 283.637498 492.933199 283.66914 492.933199 
z
" clip-path="url(#p2a37bd073a)" style="fill: #1f77b4; stroke: #1f77b4"/>
    <path d="M 274.125425 502.201823 
C 274.149739 502.201823 274.17306 502.192163 274.190253 502.17497 
C 274.207446 502.157778 274.217106 502.134456 274.217106 502.110142 
C 274.217106 502.085828 274.207446 502.062506 274.190253 502.045314 
C 274.17306 502.028121 274.149739 502.018461 274.125425 502.018461 
C 274.101111 502.018461 274.077789 502.028121 274.060596 502.045314 
C 274.043404 502.062506 274.033744 502.085828 274.033744 502.110142 
C 274.033744 502.134456 274.043404 502.157778 274.060596 502.17497 
C 274.077789 502.192163 274.101111 502.201823 274.125425 502.201823 
z
" clip-path="url(#p2a37bd073a)" style="fill: #1f77b4; stroke: #1f77b4"/>
   </g>
   <g id="matplotlib.axis_1">
    <g id="xtick_1">
     <g id="line2d_1">
      <defs>
       <path id="m8ce61d8655" d="M 0 0 
L 0 3.5 
" style="stroke: #000000; stroke-width: 0.8"/>
      </defs>
      <g>
       <use xlink:href="#m8ce61d8655" x="70.081222" y="550.8" style="stroke: #000000; stroke-width: 0.8"/>
      </g>
     </g>
     <g id="text_1">
      <!-- −1.00 -->
      <g transform="translate(54.758565 565.398438)scale(0.1 -0.1)">
       <defs>
        <path id="DejaVuSans-2212" d="M 678 2272 
L 4684 2272 
L 4684 1741 
L 678 1741 
L 678 2272 
z
" transform="scale(0.015625)"/>
        <path id="DejaVuSans-31" d="M 794 531 
L 1825 531 
L 1825 4091 
L 703 3866 
L 703 4441 
L 1819 4666 
L 2450 4666 
L 2450 531 
L 3481 531 
L 3481 0 
L 794 0 
L 794 531 
z
" transform="scale(0.015625)"/>
        <path id="DejaVuSans-2e" d="M 684 794 
L 1344 794 
L 1344 0 
L 684 0 
L 684 794 
z
" transform="scale(0.015625)"/>
        <path id="DejaVuSans-30" d="M 2034 4250 
Q 1547 4250 1301 3770 
Q 1056 3291 1056 2328 
Q 1056 1369 1301 889 
Q 1547 409 2034 409 
Q 2525 409 2770 889 
Q 3016 1369 3016 2328 
Q 3016 3291 2770 3770 
Q 2525 4250 2034 4250 
z
M 2034 4750 
Q 2819 4750 3233 4129 
Q 3647 3509 3647 2328 
Q 3647 1150 3233 529 
Q 2819 -91 2034 -91 
Q 1250 -91 836 529 
Q 422 1150 422 2328 
Q 422 3509 836 4129 
Q 1250 4750 2034 4750 
z
" transform="scale(0.015625)"/>
       </defs>
       <use xlink:href="#DejaVuSans-2212"/>
       <use xlink:href="#DejaVuSans-31" x="83.789062"/>
       <use xlink:href="#DejaVuSans-2e" x="147.412109"/>
       <use xlink:href="#DejaVuSans-30" x="179.199219"/>
       <use xlink:href="#DejaVuSans-30" x="242.822266"/>
      </g>
     </g>
    </g>
    <g id="xtick_2">
     <g id="line2d_2">
      <g>
       <use xlink:href="#m8ce61d8655" x="133.506278" y="550.8" style="stroke: #000000; stroke-width: 0.8"/>
      </g>
     </g>
     <g id="text_2">
      <!-- −0.75 -->
      <g transform="translate(118.183622 565.398438)scale(0.1 -0.1)">
       <defs>
        <path id="DejaVuSans-37" d="M 525 4666 
L 3525 4666 
L 3525 4397 
L 1831 0 
L 1172 0 
L 2766 4134 
L 525 4134 
L 525 4666 
z
" transform="scale(0.015625)"/>
        <path id="DejaVuSans-35" d="M 691 4666 
L 3169 4666 
L 3169 4134 
L 1269 4134 
L 1269 2991 
Q 1406 3038 1543 3061 
Q 1681 3084 1819 3084 
Q 2600 3084 3056 2656 
Q 3513 2228 3513 1497 
Q 3513 744 3044 326 
Q 2575 -91 1722 -91 
Q 1428 -91 1123 -41 
Q 819 9 494 109 
L 494 744 
Q 775 591 1075 516 
Q 1375 441 1709 441 
Q 2250 441 2565 725 
Q 2881 1009 2881 1497 
Q 2881 1984 2565 2268 
Q 2250 2553 1709 2553 
Q 1456 2553 1204 2497 
Q 953 2441 691 2322 
L 691 4666 
z
" transform="scale(0.015625)"/>
       </defs>
       <use xlink:href="#DejaVuSans-2212"/>
       <use xlink:href="#DejaVuSans-30" x="83.789062"/>
       <use xlink:href="#DejaVuSans-2e" x="147.412109"/>
       <use xlink:href="#DejaVuSans-37" x="179.199219"/>
       <use xlink:href="#DejaVuSans-35" x="242.822266"/>
      </g>
     </g>
    </g>
    <g id="xtick_3">
     <g id="line2d_3">
      <g>
       <use xlink:href="#m8ce61d8655" x="196.931335" y="550.8" style="stroke: #000000; stroke-width: 0.8"/>
      </g>
     </g>
     <g id="text_3">
      <!-- −0.50 -->
      <g transform="translate(181.608679 565.398438)scale(0.1 -0.1)">
       <use xlink:href="#DejaVuSans-2212"/>
       <use xlink:href="#DejaVuSans-30" x="83.789062"/>
       <use xlink:href="#DejaVuSans-2e" x="147.412109"/>
       <use xlink:href="#DejaVuSans-35" x="179.199219"/>
       <use xlink:href="#DejaVuSans-30" x="242.822266"/>
      </g>
     </g>
    </g>
    <g id="xtick_4">
     <g id="line2d_4">
      <g>
       <use xlink:href="#m8ce61d8655" x="260.356392" y="550.8" style="stroke: #000000; stroke-width: 0.8"/>
      </g>
     </g>
     <g id="text_4">
      <!-- −0.25 -->
      <g transform="translate(245.033736 565.398438)scale(0.1 -0.1)">
       <defs>
        <path id="DejaVuSans-32" d="M 1228 531 
L 3431 531 
L 3431 0 
L 469 0 
L 469 531 
Q 828 903 1448 1529 
Q 2069 2156 2228 2338 
Q 2531 2678 2651 2914 
Q 2772 3150 2772 3378 
Q 2772 3750 2511 3984 
Q 2250 4219 1831 4219 
Q 1534 4219 1204 4116 
Q 875 4013 500 3803 
L 500 4441 
Q 881 4594 1212 4672 
Q 1544 4750 1819 4750 
Q 2544 4750 2975 4387 
Q 3406 4025 3406 3419 
Q 3406 3131 3298 2873 
Q 3191 2616 2906 2266 
Q 2828 2175 2409 1742 
Q 1991 1309 1228 531 
z
" transform="scale(0.015625)"/>
       </defs>
       <use xlink:href="#DejaVuSans-2212"/>
       <use xlink:href="#DejaVuSans-30" x="83.789062"/>
       <use xlink:href="#DejaVuSans-2e" x="147.412109"/>
       <use xlink:href="#DejaVuSans-32" x="179.199219"/>
       <use xlink:href="#DejaVuSans-35" x="242.822266"/>
      </g>
     </g>
    </g>
    <g id="xtick_5">
     <g id="line2d_5">
      <g>
       <use xlink:href="#m8ce61d8655" x="323.781449" y="550.8" style="stroke: #000000; stroke-width: 0.8"/>
      </g>
     </g>
     <g id="text_5">
      <!-- 0.00 -->
      <g transform="translate(312.648636 565.398438)scale(0.1 -0.1)">
       <use xlink:href="#DejaVuSans-30"/>
       <use xlink:href="#DejaVuSans-2e" x="63.623047"/>
       <use xlink:href="#DejaVuSans-30" x="95.410156"/>
       <use xlink:href="#DejaVuSans-30" x="159.033203"/>
      </g>
     </g>
    </g>
    <g id="xtick_6">
     <g id="line2d_6">
      <g>
       <use xlink:href="#m8ce61d8655" x="387.206506" y="550.8" style="stroke: #000000; stroke-width: 0.8"/>
      </g>
     </g>
     <g id="text_6">
      <!-- 0.25 -->
      <g transform="translate(376.073693 565.398438)scale(0.1 -0.1)">
       <use xlink:href="#DejaVuSans-30"/>
       <use xlink:href="#DejaVuSans-2e" x="63.623047"/>
       <use xlink:href="#DejaVuSans-32" x="95.410156"/>
       <use xlink:href="#DejaVuSans-35" x="159.033203"/>
      </g>
     </g>
    </g>
    <g id="xtick_7">
     <g id="line2d_7">
      <g>
       <use xlink:href="#m8ce61d8655" x="450.631562" y="550.8" style="stroke: #000000; stroke-width: 0.8"/>
      </g>
     </g>
     <g id="text_7">
      <!-- 0.50 -->
      <g transform="translate(439.49875 565.398438)scale(0.1 -0.1)">
       <use xlink:href="#DejaVuSans-30"/>
       <use xlink:href="#DejaVuSans-2e" x="63.623047"/>
       <use xlink:href="#DejaVuSans-35" x="95.410156"/>
       <use xlink:href="#DejaVuSans-30" x="159.033203"/>
      </g>
     </g>
    </g>
    <g id="xtick_8">
     <g id="line2d_8">
      <g>
       <use xlink:href="#m8ce61d8655" x="514.056619" y="550.8" style="stroke: #000000; stroke-width: 0.8"/>
      </g>
     </g>
     <g id="text_8">
      <!-- 0.75 -->
      <g transform="translate(502.923807 565.398438)scale(0.1 -0.1)">
       <use xlink:href="#DejaVuSans-30"/>
       <use xlink:href="#DejaVuSans-2e" x="63.623047"/>
       <use xlink:href="#DejaVuSans-37" x="95.410156"/>
       <use xlink:href="#DejaVuSans-35" x="159.033203"/>
      </g>
     </g>
    </g>
    <g id="xtick_9">
     <g id="line2d_9">
      <g>
       <use xlink:href="#m8ce61d8655" x="577.481676" y="550.8" style="stroke: #000000; stroke-width: 0.8"/>
      </g>
     </g>
     <g id="text_9">
      <!-- 1.00 -->
      <g transform="translate(566.348864 565.398438)scale(0.1 -0.1)">
       <use xlink:href="#DejaVuSans-31"/>
       <use xlink:href="#DejaVuSans-2e" x="63.623047"/>
       <use xlink:href="#DejaVuSans-30" x="95.410156"/>
       <use xlink:href="#DejaVuSans-30" x="159.033203"/>
      </g>
     </g>
    </g>
   </g>
   <g id="matplotlib.axis_2">
    <g id="ytick_1">
     <g id="line2d_10">
      <defs>
       <path id="m2d3eb88216" d="M 0 0 
L -3.5 0 
" style="stroke: #000000; stroke-width: 0.8"/>
      </defs>
      <g>
       <use xlink:href="#m2d3eb88216" x="44.845313" y="526.122015" style="stroke: #000000; stroke-width: 0.8"/>
      </g>
     </g>
     <g id="text_10">
      <!-- −1.00 -->
      <g transform="translate(7.2 529.921234)scale(0.1 -0.1)">
       <use xlink:href="#DejaVuSans-2212"/>
       <use xlink:href="#DejaVuSans-31" x="83.789062"/>
       <use xlink:href="#DejaVuSans-2e" x="147.412109"/>
       <use xlink:href="#DejaVuSans-30" x="179.199219"/>
       <use xlink:href="#DejaVuSans-30" x="242.822266"/>
      </g>
     </g>
    </g>
    <g id="ytick_2">
     <g id="line2d_11">
      <g>
       <use xlink:href="#m2d3eb88216" x="44.845313" y="464.341511" style="stroke: #000000; stroke-width: 0.8"/>
      </g>
     </g>
     <g id="text_11">
      <!-- −0.75 -->
      <g transform="translate(7.2 468.14073)scale(0.1 -0.1)">
       <use xlink:href="#DejaVuSans-2212"/>
       <use xlink:href="#DejaVuSans-30" x="83.789062"/>
       <use xlink:href="#DejaVuSans-2e" x="147.412109"/>
       <use xlink:href="#DejaVuSans-37" x="179.199219"/>
       <use xlink:href="#DejaVuSans-35" x="242.822266"/>
      </g>
     </g>
    </g>
    <g id="ytick_3">
     <g id="line2d_12">
      <g>
       <use xlink:href="#m2d3eb88216" x="44.845313" y="402.561007" style="stroke: #000000; stroke-width: 0.8"/>
      </g>
     </g>
     <g id="text_12">
      <!-- −0.50 -->
      <g transform="translate(7.2 406.360226)scale(0.1 -0.1)">
       <use xlink:href="#DejaVuSans-2212"/>
       <use xlink:href="#DejaVuSans-30" x="83.789062"/>
       <use xlink:href="#DejaVuSans-2e" x="147.412109"/>
       <use xlink:href="#DejaVuSans-35" x="179.199219"/>
       <use xlink:href="#DejaVuSans-30" x="242.822266"/>
      </g>
     </g>
    </g>
    <g id="ytick_4">
     <g id="line2d_13">
      <g>
       <use xlink:href="#m2d3eb88216" x="44.845313" y="340.780504" style="stroke: #000000; stroke-width: 0.8"/>
      </g>
     </g>
     <g id="text_13">
      <!-- −0.25 -->
      <g transform="translate(7.2 344.579722)scale(0.1 -0.1)">
       <use xlink:href="#DejaVuSans-2212"/>
       <use xlink:href="#DejaVuSans-30" x="83.789062"/>
       <use xlink:href="#DejaVuSans-2e" x="147.412109"/>
       <use xlink:href="#DejaVuSans-32" x="179.199219"/>
       <use xlink:href="#DejaVuSans-35" x="242.822266"/>
      </g>
     </g>
    </g>
    <g id="ytick_5">
     <g id="line2d_14">
      <g>
       <use xlink:href="#m2d3eb88216" x="44.845313" y="279" style="stroke: #000000; stroke-width: 0.8"/>
      </g>
     </g>
     <g id="text_14">
      <!-- 0.00 -->
      <g transform="translate(15.579688 282.799219)scale(0.1 -0.1)">
       <use xlink:href="#DejaVuSans-30"/>
       <use xlink:href="#DejaVuSans-2e" x="63.623047"/>
       <use xlink:href="#DejaVuSans-30" x="95.410156"/>
       <use xlink:href="#DejaVuSans-30" x="159.033203"/>
      </g>
     </g>
    </g>
    <g id="ytick_6">
     <g id="line2d_15">
      <g>
       <use xlink:href="#m2d3eb88216" x="44.845313" y="217.219496" style="stroke: #000000; stroke-width: 0.8"/>
      </g>
     </g>
     <g id="text_15">
      <!-- 0.25 -->
      <g transform="translate(15.579688 221.018715)scale(0.1 -0.1)">
       <use xlink:href="#DejaVuSans-30"/>
       <use xlink:href="#DejaVuSans-2e" x="63.623047"/>
       <use xlink:href="#DejaVuSans-32" x="95.410156"/>
       <use xlink:href="#DejaVuSans-35" x="159.033203"/>
      </g>
     </g>
    </g>
    <g id="ytick_7">
     <g id="line2d_16">
      <g>
       <use xlink:href="#m2d3eb88216" x="44.845313" y="155.438993" style="stroke: #000000; stroke-width: 0.8"/>
      </g>
     </g>
     <g id="text_16">
      <!-- 0.50 -->
      <g transform="translate(15.579688 159.238211)scale(0.1 -0.1)">
       <use xlink:href="#DejaVuSans-30"/>
       <use xlink:href="#DejaVuSans-2e" x="63.623047"/>
       <use xlink:href="#DejaVuSans-35" x="95.410156"/>
       <use xlink:href="#DejaVuSans-30" x="159.033203"/>
      </g>
     </g>
    </g>
    <g id="ytick_8">
     <g id="line2d_17">
      <g>
       <use xlink:href="#m2d3eb88216" x="44.845313" y="93.658489" style="stroke: #000000; stroke-width: 0.8"/>
      </g>
     </g>
     <g id="text_17">
      <!-- 0.75 -->
      <g transform="translate(15.579688 97.457708)scale(0.1 -0.1)">
       <use xlink:href="#DejaVuSans-30"/>
       <use xlink:href="#DejaVuSans-2e" x="63.623047"/>
       <use xlink:href="#DejaVuSans-37" x="95.410156"/>
       <use xlink:href="#DejaVuSans-35" x="159.033203"/>
      </g>
     </g>
    </g>
    <g id="ytick_9">
     <g id="line2d_18">
      <g>
       <use xlink:href="#m2d3eb88216" x="44.845313" y="31.877985" style="stroke: #000000; stroke-width: 0.8"/>
      </g>
     </g>
     <g id="text_18">
      <!-- 1.00 -->
      <g transform="translate(15.579688 35.677204)scale(0.1 -0.1)">
       <use xlink:href="#DejaVuSans-31"/>
       <use xlink:href="#DejaVuSans-2e" x="63.623047"/>
       <use xlink:href="#DejaVuSans-30" x="95.410156"/>
       <use xlink:href="#DejaVuSans-30" x="159.033203"/>
      </g>
     </g>
    </g>
   </g>
   <g id="line2d_19">
    <path d="M 577.481676 279 
L 576.970895 263.326553 
L 575.44061 247.716218 
L 572.896983 232.231851 
L 569.350254 216.935803 
L 564.814707 201.889666 
L 559.308604 187.154025 
L 552.854117 172.788215 
L 545.477234 158.850083 
L 537.207661 145.395752 
L 528.078696 132.479398 
L 518.127098 120.153031 
L 507.392939 108.466284 
L 495.919441 97.466217 
L 483.752804 87.197122 
L 470.942019 77.700349 
L 457.53867 69.01414 
L 443.596728 61.173469 
L 429.172332 54.209908 
L 414.323564 48.151499 
L 399.110216 43.022634 
L 383.593544 38.843967 
L 367.836031 35.632324 
L 351.901125 33.400636 
L 335.852992 32.157891 
L 319.75625 31.909091 
L 303.675717 32.655239 
L 287.676142 34.393331 
L 271.821951 37.116367 
L 256.176982 40.813384 
L 240.804232 45.469494 
L 225.765603 51.065948 
L 211.121648 57.580213 
L 196.931335 64.986057 
L 183.251803 73.25366 
L 170.138134 82.349731 
L 157.643132 92.237642 
L 145.81711 102.87758 
L 134.707689 114.226701 
L 124.3596 126.239306 
L 114.814513 138.867024 
L 106.110862 152.059008 
L 98.283693 165.762139 
L 91.364525 179.921238 
L 85.381217 194.479293 
L 80.357863 209.377683 
L 76.31469 224.556417 
L 73.267978 239.954377 
L 71.229996 255.509559 
L 70.208949 271.159329 
L 70.208949 286.840671 
L 71.229996 302.490441 
L 73.267978 318.045623 
L 76.31469 333.443583 
L 80.357863 348.622317 
L 85.381217 363.520707 
L 91.364525 378.078762 
L 98.283693 392.237861 
L 106.110862 405.940992 
L 114.814513 419.132976 
L 124.3596 431.760694 
L 134.707689 443.773299 
L 145.81711 455.12242 
L 157.643132 465.762358 
L 170.138134 475.650269 
L 183.251803 484.74634 
L 196.931335 493.013943 
L 211.121648 500.419787 
L 225.765603 506.934052 
L 240.804232 512.530506 
L 256.176982 517.186616 
L 271.821951 520.883633 
L 287.676142 523.606669 
L 303.675717 525.344761 
L 319.75625 526.090909 
L 335.852992 525.842109 
L 351.901125 524.599364 
L 367.836031 522.367676 
L 383.593544 519.156033 
L 399.110216 514.977366 
L 414.323564 509.848501 
L 429.172332 503.790092 
L 443.596728 496.826531 
L 457.53867 488.98586 
L 470.942019 480.299651 
L 483.752804 470.802878 
L 495.919441 460.533783 
L 507.392939 449.533716 
L 518.127098 437.846969 
L 528.078696 425.520602 
L 537.207661 412.604248 
L 545.477234 399.149917 
L 552.854117 385.211785 
L 559.308604 370.845975 
L 564.814707 356.110334 
L 569.350254 341.064197 
L 572.896983 325.768149 
L 575.44061 310.283782 
L 576.970895 294.673447 
L 577.481676 279 
" clip-path="url(#p2a37bd073a)" style="fill: none; stroke: #ff0000; stroke-width: 1.5; stroke-linecap: square"/>
   </g>
   <g id="patch_3">
    <path d="M 44.845313 550.8 
L 44.845313 7.2 
" style="fill: none; stroke: #000000; stroke-width: 0.8; stroke-linejoin: miter; stroke-linecap: square"/>
   </g>
   <g id="patch_4">
    <path d="M 602.845312 550.8 
L 602.845312 7.2 
" style="fill: none; stroke: #000000; stroke-width: 0.8; stroke-linejoin: miter; stroke-linecap: square"/>
   </g>
   <g id="patch_5">
    <path d="M 44.845313 550.8 
L 602.845313 550.8 
" style="fill: none; stroke: #000000; stroke-width: 0.8; stroke-linejoin: miter; stroke-linecap: square"/>
   </g>
   <g id="patch_6">
    <path d="M 44.845313 7.2 
L 602.845313 7.2 
" style="fill: none; stroke: #000000; stroke-width: 0.8; stroke-linejoin: miter; stroke-linecap: square"/>
   </g>
  </g>
 </g>
 <defs>
  <clipPath id="p2a37bd073a">
   <rect x="44.845313" y="7.2" width="558" height="543.6"/>
  </clipPath>
 </defs>
</svg>
